<svg id="Layer_1" data-name="Layer 1" xmlns="http://www.w3.org/2000/svg" viewBox="0 0 296 296"><defs><style>.cls-1{fill:#eee;}.cls-2,.cls-3{fill:#bdc2c4;}.cls-2,.cls-4{fill-rule:evenodd;}.cls-4,.cls-5{fill:#bbb;}</style></defs><circle class="cls-1" cx="148" cy="148" r="145.92"/><path class="cls-2" d="M297.73,154.62l-9.25-.46v-8.32l9.25-.47v9.25Zm-.46-18-9.25.92-.93-8.32,9.25-1.39ZM294.49,119l-9.25,1.85-1.85-8.32,8.79-2.32,2.31,8.79Zm-4.62-17.11-8.79,3.24-2.78-7.86,8.33-3.7,3.24,8.32Zm-6.94-16.65-8.33,4.16L270.9,82l7.87-4.62,4.16,7.86Zm-8.79-15.72-7.86,5.08-4.63-6.93,7.4-5.55,5.09,7.4ZM263.5,55.19l-7.4,6-5.55-6.47,6.94-6.48,6,6.94ZM251,42.24l-6.48,6.93-6-5.55,6-6.93ZM237.6,30.67l-5.55,7.4-6.93-4.62,5.08-7.86,7.4,5.08ZM222.34,21l-4.62,7.87-7.4-3.71,4.16-8.32L222.34,21ZM206.62,13.1l-3.7,8.32-7.87-2.77,3.24-8.79ZM189.5,7.55l-2.31,8.79-8.32-1.85,1.85-9.25,8.78,2.31Zm-17.57-3.7-1.39,9.25-8.32-.92.92-9.25,8.79.92ZM154.35,2H145.1l.47,9.25h8.32Zm-18,.46.92,9.25-8.32.93-1.39-9.25C127.53,3.85,136.32,2.46,136.32,2.46ZM118.74,5.24l1.85,9.25-8.32,1.85L110,7.55l8.79-2.31ZM101.63,9.86l3.24,8.79L97,21.42,93.3,13.1ZM85,16.8l4.16,8.32-7.4,3.71L77.12,21,85,16.8ZM69.25,25.59l5.09,7.86L67.4,38.08l-5.55-7.41,7.4-5.08ZM54.92,36.23l6,7.39-6.48,5.55L48,42.24l6.94-6ZM42,48.71l6.93,6.48-5.55,6-6.93-6ZM30.4,62.12l7.4,5.55-4.62,6.94-7.86-5.09,5.08-7.4ZM20.69,77.39,28.55,82l-3.7,7.4-8.32-4.16,4.16-7.86ZM12.83,93.57l8.32,3.7-2.77,7.87L9.59,101.9ZM7.28,110.22l8.79,2.32-1.85,8.32L5,119l2.31-8.79ZM3.58,127.8l9.25,1.39-.93,8.32-9.25-.92C2.19,136.59,3.58,127.8,3.58,127.8ZM1.73,145.37v9.25l9.25-.46v-8.32Zm.46,18,9.25-.92.93,8.32L3.12,172.2l-.93-8.79ZM5,181l9.25-1.85,1.85,8.32-8.79,2.31L5,181ZM9.59,198.1l8.79-3.24,2.77,7.87-8.32,3.7Zm6.94,16.65,8.32-4.16,3.7,7.4-7.86,4.62-4.16-7.86Zm8.79,15.73,7.86-5.09,4.62,6.94-7.4,5.54-5.08-7.39ZM36,244.81l7.4-6,5.55,6.48L42,251.75l-6-6.94Zm12.49,12.95,6.48-6.94,6.47,5.56-6,6.93-6.94-5.55Zm13.41,11.56,5.55-7.39,6.94,4.62-5.09,7.86-7.4-5.09ZM77.12,279l4.62-7.86,7.4,3.69L85,283.2,77.12,279ZM93.3,286.9l3.7-8.33,7.87,2.78-3.24,8.79L93.3,286.9ZM110,292.45l2.32-8.79,8.32,1.85-1.85,9.25L110,292.45Zm17.58,3.7,1.39-9.25,8.32.92-.92,9.25ZM145.1,298l.47-9.25h8.32l.46,9.25H145.1Zm18-.46-.92-9.25,8.32-.93,1.39,9.25-8.79.93Zm17.58-2.78-1.85-9.25,8.32-1.85,2.31,8.79-8.78,2.31Zm17.11-4.62-3.24-8.79,7.86-2.78,3.7,8.33-8.32,3.24Zm16.65-6.94-4.16-8.33,7.4-3.69,4.62,7.86-7.86,4.16Zm15.72-8.79-5.08-7.86,6.93-4.62,5.55,7.39-7.4,5.09Zm14.34-10.64-6-7.39,6.47-5.56,6.48,6.94-6.94,6Zm13-12.48-6.94-6.48,5.55-6.47,6.94,6-5.55,6.94Zm11.56-13.42-7.4-5.55,4.63-6.93,7.86,5.08-5.09,7.4Zm9.72-15.26L270.9,218l3.7-7.4,8.33,4.16-4.16,7.86Zm7.86-16.18-8.33-3.7,2.78-7.87,8.79,3.24-3.24,8.33Zm5.55-16.66-8.79-2.31,1.85-8.32,9.25,1.85-2.31,8.78Zm3.7-17.57-9.25-1.39.92-8.32,9.25.92-.92,8.79Z" transform="translate(-1.73 -2)"/><path class="cls-3" d="M236.68,165.26v-1.39a9.26,9.26,0,0,1,1.39-5.08,12.39,12.39,0,0,1,3.23-3.7c1.39-.93,2.32-2.31,3.7-3.24a7.82,7.82,0,0,0,2.78-2.77,5.05,5.05,0,0,0,1.39-3.24c0-1.85-.47-3.24-1.85-4.16s-3.7-1.39-6.48-1.39a27.18,27.18,0,0,0-6,.92,16.94,16.94,0,0,0-5.09,1.85v-9.71a50.12,50.12,0,0,1,6.48-2.31,41.54,41.54,0,0,1,8.32-.93c5.55,0,10.18,1.39,13,3.7A13.23,13.23,0,0,1,262.12,144c0,2.77-.47,5.09-1.85,6.47-.93,1.85-2.78,3.24-5.09,5.09l-4.63,3.7c-1.38.93-1.85,2.31-1.85,4.62v.93l-12,.46Zm-.93,13v-8.32h12.49v8.32Z" transform="translate(-1.73 -2)"/><path class="cls-4" d="M190.36,174.18c-21.52-2.8-14,50.15-22.59,69.95H157.43c6.46-100.51-71.67-93.84-67.58-1.72H80.38c-6.89-20-8.61-59.83-9-79.85-3.87,4.73-8.4,7.1-15.28,8.18,7.32-25.83,35.08-83.08,73-82.65s41.54,53.16,56.4,54.24c33.35,2.58,11.19-60.7,21.73-67.16,1.29,1.29,5.17,2.59,6.25,4.09,6-1.5,12-3,18.29-.43,17.65-2.15,26.26,3.23,23.46,18.29-14.2-.86-24.11,3.66-27.55,14.43-8.18,24.75.22,62.63-37.24,62.63Z" transform="translate(-1.73 -2)"/><path class="cls-4" d="M132,174.18c-14,8-25.83,31.21-24.11,68.23H98.45c-2.36-7.1-4.08-16.57-5.37-26.9,2.8-17.65,9.46-30.14,17.64-36.81,4.53-3.87,9.48-5.81,14.43-5.81a18.69,18.69,0,0,1,6.89,1.29Z" transform="translate(-1.73 -2)"/><path class="cls-4" d="M191.44,226.7c3,1.29,5.38,2.58,8.82,2.8,7.75-36.59,15.29-27.34-12.91-50.58C182,181.07,180,188.82,179,197c19.16,11,14.21,6.25,12.49,29.71Z" transform="translate(-1.73 -2)"/><rect class="cls-1" x="125.14" y="137.96" width="20.88" height="21.09"/><rect class="cls-1" x="90.92" y="105.89" width="31.64" height="31.64"/><rect class="cls-5" x="109.43" y="63.7" width="16.79" height="16.57"/><rect class="cls-5" x="74.13" y="77.48" width="22.81" height="22.6"/><rect class="cls-5" x="50.88" y="102.01" width="18.51" height="18.51"/></svg>