<svg xmlns="http://www.w3.org/2000/svg" viewBox="0 0 251 301"><defs><style>.cls-1,.cls-6{fill:#fff;}.cls-1{stroke:#fff;stroke-miterlimit:10;}.cls-2{opacity:0.74;}.cls-3{fill:#3c5412;}.cls-4{fill:#676767;}.cls-5{fill:#047391;}.cls-6{opacity:0.45;}.cls-6,.cls-7{isolation:isolate;}.cls-7{opacity:0.4;}</style></defs><g id="Layer_2" data-name="Layer 2"><rect class="cls-1" x="0.5" y="0.5" width="250" height="300"/></g><g id="Layer_1" data-name="Layer 1"><g class="cls-2"><path class="cls-3" d="M200.28,159.11h1.18a3.25,3.25,0,0,1,2.37.72,1.75,1.75,0,0,1,.49,1.71,7.19,7.19,0,0,1,1.11.36,8,8,0,0,1,2.75,1.44,1.66,1.66,0,0,1,.49.81.61.61,0,0,0,.06.32l.39.09a1.82,1.82,0,0,1,1.33,1.24,1.67,1.67,0,0,1,0,.94,1.71,1.71,0,0,1-.86,1.06c-.21.1-.42.18-.63.26a7.48,7.48,0,0,1-1.06.12H190.1l-1,.13-.5-.07a1.69,1.69,0,0,1-.7-.22,2.16,2.16,0,0,1-.72-.69.74.74,0,0,1-.13-.21c-.39,0-.78,0-1.17,0a2.75,2.75,0,0,1-1,0,1.93,1.93,0,0,1-1.79-.86,1.73,1.73,0,0,1,.68-2.43l.17-.09.26-.31a8.92,8.92,0,0,1,1.63-1.31,9.43,9.43,0,0,1,1.62-.81,11.35,11.35,0,0,1,1.57-.57l1.42-.42c.72-.21,1.44-.39,2.16-.55.46-.13.93-.24,1.4-.34a15.23,15.23,0,0,1,2.14-.24c.63-.05,1.26-.08,1.89-.1h1.63Z" transform="translate(1 1)"/><path class="cls-4" d="M201.41,122.1Zm-8.24-.41Zm5.19-6.22a7.27,7.27,0,0,0-1.61-.16h-.18a16.86,16.86,0,0,0-1.73.06,8.55,8.55,0,0,0-2.6.59,7.26,7.26,0,0,0-1.73,1l-.24.2-.74.14a1.09,1.09,0,0,0-.83,1.35.78.78,0,0,0,.09.21c-.15.27-.28.54-.41.81s-.28.68-.41,1a6.76,6.76,0,0,1-.47.85,8.43,8.43,0,0,0-.76,2.48,5.53,5.53,0,0,0,.21,2.06,1.93,1.93,0,0,0,.42.68,1.75,1.75,0,0,0,.65.37l.72.09.66.08c.94.13,1.88.26,2.83.34l1.84.17,1.87.14c1.22.11,2.46.23,3.69.24h3.81a8.75,8.75,0,0,0,2-.25,2.53,2.53,0,0,0,1-.57,1.43,1.43,0,0,0,.4-1.14c-.08-.59-.21-1.16-.33-1.75a6.41,6.41,0,0,0-.87-2.37,9.54,9.54,0,0,0-.67-.9l-.26-.32a.91.91,0,0,0-.16-.71,17,17,0,0,0-2.14-2.58,7.57,7.57,0,0,0-1.8-1.26l-.71-.32a9.45,9.45,0,0,0-1.55-.53Z" transform="translate(1 1)"/><path class="cls-4" d="M196.58,76.33a1.24,1.24,0,0,1,.7.5,1.1,1.1,0,0,1,.13.81,5.12,5.12,0,0,0-.95-.17,4.54,4.54,0,0,0-1.46.27c.05-.22.1-.44.14-.66a1.13,1.13,0,0,1,.55-.67,1.31,1.31,0,0,1,.59-.14.81.81,0,0,1,.31,0Z" transform="translate(1 1)"/><path class="cls-4" d="M197.24,77.28h0Zm3.89-4.38a1.16,1.16,0,0,0-1.16-.81.76.76,0,0,0-.3,0l-1.39.27a7.19,7.19,0,0,1-.86.11h.11c-1,.1-1.95.22-2.93.27s-1.93.07-2.89.07h-.2a1.11,1.11,0,1,0,0,2.21h1.05a.64.64,0,0,0-.15.13,2.47,2.47,0,0,0-.59.12,3.61,3.61,0,0,0-.64.27,1.07,1.07,0,0,0-.59.95,1,1,0,0,0,.35.81,1.4,1.4,0,0,0,1,.44h3a4.72,4.72,0,0,1,1.48-.27,6.25,6.25,0,0,1,.87.09l.6-.13a1.22,1.22,0,0,0,.67-.45,1.45,1.45,0,0,0,.39-.3,1.53,1.53,0,0,0,.46-.23,1.12,1.12,0,0,0,.59-1,1.16,1.16,0,0,0-.3-.75,1.11,1.11,0,0,0,.22-.45l.35-.08a1.1,1.1,0,0,0,.82-1.35Z" transform="translate(1 1)"/><path class="cls-4" d="M189.63,58.66Zm6-5.28H195a8.53,8.53,0,0,0-1.43.11,9.32,9.32,0,0,0-2.27.69,7,7,0,0,0-1.82,1.15l-.26.26c-.1.11-.19.23-.28.34a1,1,0,0,0-.17.66v.06a1.51,1.51,0,0,0-.79.82,1,1,0,0,0,0,.58,1.12,1.12,0,0,0,.82.81c.68.11,1.36.14,2,.2l1.54.14c1,.1,2.07.22,3.12.28.56,0,1.12.07,1.69.08l1.86,0c.54,0,1.09,0,1.64,0l1.83.15a1.13,1.13,0,0,0,.86-.32,1.46,1.46,0,0,0,.16-.19A1.06,1.06,0,0,0,204,59a1.69,1.69,0,0,0,.33-.56,1.26,1.26,0,0,0,0-.72,3.1,3.1,0,0,0-.21-.58,3.9,3.9,0,0,0-.53-.81,5.05,5.05,0,0,0-.86-.87,8.53,8.53,0,0,0-3.09-1.33c-.61-.15-1.24-.32-1.87-.43a16.87,16.87,0,0,0-2.14-.23Z" transform="translate(1 1)"/><path class="cls-4" d="M186,164.59Zm7.88-5.8h-1.2a9.08,9.08,0,0,0-2.64.45,13.34,13.34,0,0,0-2.38,1,3.05,3.05,0,0,0-.74.08,1.18,1.18,0,0,0-.86.93l-.87.21a1.1,1.1,0,0,0-.86,1.34h0a.18.18,0,0,0,0,.11l-.28.29-.6.63-.3.32a4.7,4.7,0,0,0-.34.44l-.23.42a1.15,1.15,0,0,0-.12.85,1.09,1.09,0,0,0,.55.66,1.26,1.26,0,0,0,1.52-.26,1.11,1.11,0,0,0,.7.51,4.67,4.67,0,0,0,1.18.09h2.72c1,0,2.07,0,3.11.07l3.55.13h6.63c1.42,0,2.84,0,4.27-.08a13.83,13.83,0,0,0,2.13-.2,2.71,2.71,0,0,0,1.08-.4,1,1,0,0,0,.43-.39l.07-.08a1.41,1.41,0,0,0,.2-.66c.09-.7-.54-1.21-1.08-1.57a6,6,0,0,0-.75-.48c-.52-.29-1.05-.57-1.58-.81a16.24,16.24,0,0,0-1.87-.81l-1.09-.38-.39-.12a1.18,1.18,0,0,0-.48-.19l-.47-.08c-.47-.21-.94-.42-1.41-.6a20.55,20.55,0,0,0-2.67-.81,17.57,17.57,0,0,0-2.59-.46c-.8-.09-1.6-.14-2.41-.15Z" transform="translate(1 1)"/><path class="cls-5" d="M193.94,58.5a47.36,47.36,0,0,1-6.41-.53,8.16,8.16,0,0,1,.57-.67,3.82,3.82,0,0,0,.41-.94v-.09l.12-.25a5.33,5.33,0,0,1,.57-1,4.9,4.9,0,0,1,1.67-1.49,7.33,7.33,0,0,1,2.88-.76c.35,0,.71,0,1.07,0a7.9,7.9,0,0,1,1,0,7.44,7.44,0,0,1,1.48.28,6,6,0,0,1,1.38.35,15.68,15.68,0,0,1,2.08,1l.86.46.11,0a5.43,5.43,0,0,1,.91.51,2.59,2.59,0,0,1,.78.73,2.29,2.29,0,0,1,.29.56v.09l0,.08.05.22h0a2.79,2.79,0,0,1,.08.81,2.67,2.67,0,0,1-.29,1.14C200.64,59.55,197.05,58.54,193.94,58.5Z" transform="translate(1 1)"/><path class="cls-5" d="M186.65,59.36c.1-.2.21-.4.33-.61a65.45,65.45,0,0,0,7.79.64c2.84,0,5.91.9,8.75.55a2,2,0,0,1,.45.9,2.48,2.48,0,0,1,.3.49,5.64,5.64,0,0,1,.33.86,3.75,3.75,0,0,1,.16.81v.19c.06.44.08.86.1,1.22v1.45a10.42,10.42,0,0,1-.19,1.67,6,6,0,0,1-.64,1.72l-.22.4h0c-2.76,2.37-7.43,2.26-10.94,1.88q-.77-.09-1.5-.21l-.13-.06a11.4,11.4,0,0,1-3-1.89,5.13,5.13,0,0,1-.39-.44l-.09-.1a8.28,8.28,0,0,1-.86-1.18,8,8,0,0,1-1-3.46c0-.4,0-.81,0-1.27a7.51,7.51,0,0,1,.13-1.57A8.8,8.8,0,0,1,186.65,59.36Z" transform="translate(1 1)"/><path class="cls-4" d="M200.94,73.42a1.9,1.9,0,0,1-.12.62,5.28,5.28,0,0,1,.19,1.18v1.46a2.09,2.09,0,0,1-.52,1.25c-3,0-6.06,0-9.06.09l-.16-.19-.12-.14a2.91,2.91,0,0,1-.27-.69,5.65,5.65,0,0,1-.11-.91V76a1.68,1.68,0,0,1-.62-.91l-.08-.48a1.72,1.72,0,0,1,.25-.88v-.15l.08-.19.08-.23a4.35,4.35,0,0,1,.4-.81l.13-.14a26.33,26.33,0,0,0,4.26.35,21.09,21.09,0,0,0,5.87-.56c-.26.12-.51.21-.78.31A1.69,1.69,0,0,1,200.94,73.42Z" transform="translate(1 1)"/><path class="cls-5" d="M177,139.41a7.39,7.39,0,0,1,.21-1,8.67,8.67,0,0,1,.86-2,9.11,9.11,0,0,1,1.4-1.76l.12-.13.45-.45.07-.07.06-.05.06,0,.09-.1.08-.07,0-.06.17-.17c.32-.32.67-.65,1-1l.15-.27a6.17,6.17,0,0,1,.58-.86,4.38,4.38,0,0,1,.86-.86l.87-.59c.27-.18.44-.27.67-.4l.1-.05.08,0,.87-.47.19-.11.09,0a7.24,7.24,0,0,1,.73-.38,2,2,0,0,1,1.89,0c.38,0,.8-.07,1.28-.1a.26.26,0,0,1-.1-.11,8.46,8.46,0,0,1-1.33-.15l-.39-.09a1.92,1.92,0,0,1-.82.18,1.61,1.61,0,0,1-.49-.07,1.86,1.86,0,0,1-.87-.45,1.8,1.8,0,0,1-.56-1.28,16.19,16.19,0,0,1,0-2,15.92,15.92,0,0,1,.25-2.49,1.79,1.79,0,0,1,.86-1.07,2,2,0,0,1,1.57-.16A7.27,7.27,0,0,1,190.5,116a3.19,3.19,0,0,1,.75-.56,2,2,0,0,1,1-.25l.71.09a1.83,1.83,0,0,1,.55.25,3.73,3.73,0,0,1-.07-.56c0-.86-.05-1.75-.06-2.68V78.89l3.82,0v32.25c0,1.41,0,3,.13,4.53a1.51,1.51,0,0,0,.07.37,9.63,9.63,0,0,1,3.07,1.22,12.41,12.41,0,0,1,4.32,4.38,3.07,3.07,0,0,1,.43.26,11.54,11.54,0,0,1,1.55,1.12,6.22,6.22,0,0,1,1.42,1.7,3.94,3.94,0,0,1,.34.72l.07.17a3.49,3.49,0,0,1,.2,1,4.43,4.43,0,0,1-.07.81v.16a2.5,2.5,0,0,1-.3.72v.06l-.07.13-.06.09-.08.11a1.36,1.36,0,0,0-.12.17,7.24,7.24,0,0,1,.92.22,8.15,8.15,0,0,1,1.58.67,7.85,7.85,0,0,1,1.24.9c.32.27.66.6,1,1,.57.58,1.24,1.26,1.86,2a13.14,13.14,0,0,1,.94,1.18,7.58,7.58,0,0,1,.79,1.52c.21.5.38.94.52,1.34a8.63,8.63,0,0,1,.29,1.11v.08a15,15,0,0,1,.27,1.63c.08.93.13,1.86.16,2.86a11.73,11.73,0,0,1-.1,1.78,8,8,0,0,1-.38,1.66,7.71,7.71,0,0,1-.82,1.62,9.94,9.94,0,0,1-2,2.14l-.67.54-.09.08-.3.23a20.06,20.06,0,0,1-2.25,1.62,6.23,6.23,0,0,1-1,.5l-.14.06a13.33,13.33,0,0,1-1.36.55c-.74.23-1.5.42-2.26.58s-1.73.27-2.43.36l-.64.09h-.09c-.79.11-1.62.22-2.44.29s-1.73.06-2.45.06h-6a16.12,16.12,0,0,1-6.92-1.51,16.29,16.29,0,0,1-2.49-1.47h0a14.38,14.38,0,0,1-1.16-.9c-.34-.32-.68-.64-1.11-1.07a14.43,14.43,0,0,1-1.27-1.56,10.6,10.6,0,0,1-.87-1.44,15.82,15.82,0,0,1-.74-1.75,13,13,0,0,1-.66-2.74c0-.48-.09-.94-.13-1.41v-1.21A6.92,6.92,0,0,1,177,139.41Z" transform="translate(1 1)"/><path class="cls-6" d="M196.08,53.33a9.31,9.31,0,0,1,2.11.27,11.63,11.63,0,0,1,4.21,1.93c.25.18.49.36.73.56l.6.3.55.23a1.39,1.39,0,0,1,.75,1.22h0a3.72,3.72,0,0,1,.41.48.93.93,0,0,1,0,1,1.08,1.08,0,0,1-1.17.45,3.37,3.37,0,0,1-.87-.27l-.28-.14h-.59a.37.37,0,0,1-.38.34,12.66,12.66,0,0,1-2-.08l-1-.09-.81-.06-.54-.06a5.91,5.91,0,0,1-.94-.13.71.71,0,0,1-.54-.67.67.67,0,0,1,.16-.43l-1.38-.25a1.25,1.25,0,0,1-1-1.52,1.29,1.29,0,0,1,.71-.81l-.13-.1a1.27,1.27,0,0,1,0-1.86h0l-1.14-.05h0c.53-.07,1.05-.15,1.58-.21l.18,0a1.14,1.14,0,0,1,.37,0,1.27,1.27,0,0,1,.34,0Z" transform="translate(1 1)"/><path class="cls-6" d="M195.37,64.51Zm7.63-5a10.75,10.75,0,0,0-1.8-.12c-.78,0-1.57,0-2.36.1-1.39.09-2.77.2-4.17.3h0l4.16.3-.35.09h-.74a7.67,7.67,0,0,0-1.27.07,2.87,2.87,0,0,0-1,.23l-.27.15a1.24,1.24,0,0,0-.49,1.75,1.38,1.38,0,0,0,.82.59l.37,0a1.16,1.16,0,0,0,.07.31,1.9,1.9,0,0,0,.47.81l.4.29h0l-.78.1-.75.13h0l0-.07.12-.09h0l.22-.14h0a1.2,1.2,0,0,0-.47.29h0v0l-.5.11a.46.46,0,0,0-.35.58.5.5,0,0,0,.49.35,6.47,6.47,0,0,0,.76,0h.16l-.13,0h0a1,1,0,0,0-.31.27h0a.9.9,0,0,0-.18,1.49l-.39.31a1.13,1.13,0,0,0-.3,1.27,1.13,1.13,0,0,0-.14,1,1.35,1.35,0,0,0,.46.65V71a1.32,1.32,0,0,0,.71,1.15,1.46,1.46,0,0,0,1.1.14,10.91,10.91,0,0,1,1.25-.32c.34-.08.66-.19,1-.3s.67-.25,1-.37l.73-.29.86-.35h.1a1.46,1.46,0,0,0,.68-.34l.15-.06.15-.08a5.09,5.09,0,0,0,.45-.31,4.75,4.75,0,0,0,1.25-2.09,8.17,8.17,0,0,0,.38-2.55,10.86,10.86,0,0,0-.1-1.28,7.75,7.75,0,0,0-.16-.81,1.35,1.35,0,0,0-.33-1.56l-.11-.11a1,1,0,0,0-.16-.54,1.24,1.24,0,0,0-.38-.44v-.05a2.2,2.2,0,0,0,0-.36.56.56,0,0,0-.45-.55Z" transform="translate(1 1)"/><path class="cls-6" d="M198.3,71.49h.08a.69.69,0,0,1,.41.2,1.69,1.69,0,0,1,.71.38l.34.4a4.48,4.48,0,0,1,.37.68,10.34,10.34,0,0,1,.66,2.91,2.62,2.62,0,0,1,0,.56,1.37,1.37,0,0,1-.43.95,1.51,1.51,0,0,1-1,.39,1.07,1.07,0,0,1-1.23,0,1.28,1.28,0,0,1-.61.37,1.56,1.56,0,0,1-.68,0l-.25.11a.88.88,0,0,1-1-.54c-.12-.64-.29-1.3-.37-2,0-.33-.09-.67-.12-1a3.73,3.73,0,0,1,0-1.56,1.11,1.11,0,0,1,1.06-.75h.24a2,2,0,0,1,0-.24,1.37,1.37,0,0,1,1-.93,1.65,1.65,0,0,1,.38,0,1.58,1.58,0,0,1,.38,0Z" transform="translate(1 1)"/><path class="cls-6" d="M196.36,109.78v0Zm.22-33.23h0c-.28,1.25-.62,2.49-.8,3.75-.08.55-.15,1.1-.19,1.62a7.79,7.79,0,0,0,.14,2.22c.1.81.22,1.55.27,2.34s.08,1.62.07,2.43c0,1.76-.12,3.52-.16,5.28,0,.81,0,1.62-.08,2.43s-.13,1.74-.2,2.6a36.85,36.85,0,0,0,.17,5.25c.06.81.11,1.68.2,2.52s.26,1.79.39,2.68c.2,1.67.43,3.33.63,5h0c.23-2,.46-4.12.52-6.18,0-.81.09-1.69.16-2.53s.13-1.68.18-2.53.12-1.73.18-2.6.21-1.78.31-2.67a17.72,17.72,0,0,0,.21-2.52c0-.85,0-1.71-.06-2.57s-.05-1.71-.08-2.57-.09-1.91-.23-2.85a22.64,22.64,0,0,0-.47-2.43c-.13-.46-.26-.91-.4-1.38a11.45,11.45,0,0,1-.45-1.62c-.09-.86-.18-1.73-.21-2.6,0-1.07,0-2.14-.09-3.24Z" transform="translate(1 1)"/><path class="cls-6" d="M205,127.86Zm-9-11.18a2.8,2.8,0,0,0-.41,0,1.36,1.36,0,0,0-.71.17,1.47,1.47,0,0,0-.53.49,1.39,1.39,0,0,0-.15,1,1.57,1.57,0,0,0,.36.59.6.6,0,0,0,.09.15,2.56,2.56,0,0,0,.2.26,1.31,1.31,0,0,0-.34.58,1.42,1.42,0,0,0,1,1.72l.38.12a1.36,1.36,0,0,0-.7.81,1.4,1.4,0,0,0,0,.81,1.32,1.32,0,0,0-.69,1.15,1.35,1.35,0,0,0,1.06,1.29h.14a.84.84,0,0,0,.47,1.14l.13,0a33.39,33.39,0,0,0,4.23.48h.42c-1.37.14-2.75.24-4.12.34h0c1.37.09,2.74.18,4.11.23h3.66a5.76,5.76,0,0,0,.81-.15.5.5,0,0,0,.39-.61v0a1.28,1.28,0,0,0,.28-.07,2.31,2.31,0,0,0,.79-.34,1.65,1.65,0,0,0,.24-.22,1.16,1.16,0,0,0,.32-1.14,1.24,1.24,0,0,0-.72-.81,1.62,1.62,0,0,0-.12-.43,1.36,1.36,0,0,0-.07-.53.34.34,0,0,1,0-.5.77.77,0,0,0-.22-.81l-.09-.1v-.14a1.42,1.42,0,0,0-1.08-1.32l-.42-.13h0l-.52-.52a1.45,1.45,0,0,0-.45-.87,1.56,1.56,0,0,0-.67-.36l-.68-.19a10.21,10.21,0,0,0-2.59-1.32c-.62-.19-1.24-.35-1.87-.48s-1.29-.3-1.95-.41Z" transform="translate(1 1)"/><path class="cls-6" d="M214.13,144.37h.13v.22l-.43-.06.16-.07.16-.1ZM196.4,127.53h-.07a1.17,1.17,0,0,0-.86.52,1,1,0,0,0-.05.89l-1.1,0h0a1.12,1.12,0,0,0-1.19,1A1.11,1.11,0,0,0,194,131l.49.09h0a1.4,1.4,0,0,0,.46,1l0,0-.2.09a1.12,1.12,0,0,0-.54.67,1.1,1.1,0,0,0,.54,1.25,1.73,1.73,0,0,0,.57.26.89.89,0,0,0,.3.81h0a2.33,2.33,0,0,0-.59.08,1.1,1.1,0,0,0-1,.77,1,1,0,0,0,.77,1.28l.41.11a1,1,0,0,0,0,1,3.72,3.72,0,0,0,.68.75h0a1,1,0,0,0,.18,1.32l.46.33a1.91,1.91,0,0,0,.74.21h.14l-.36.07h0a1.07,1.07,0,0,0-.82,1,1.1,1.1,0,0,0,1.12,1.05H198a1.2,1.2,0,0,0,.93.93h0a1.07,1.07,0,0,0-.18.62,1.25,1.25,0,0,0,.79,1.14V146a1.36,1.36,0,0,0,.79,1.19l-.29.09a7,7,0,0,1-.87.23,3,3,0,0,0-.43.06l-.44.17h0a1.25,1.25,0,0,0-.47.44,1.16,1.16,0,0,0,0,1.24,1.12,1.12,0,0,0,.16.22,1.26,1.26,0,0,0-.33.36,1.14,1.14,0,0,0-.19.67,1.3,1.3,0,0,0,.58,1.08c-.37.16-.73.34-1.08.53a1.26,1.26,0,0,0-.56,1.62,1.65,1.65,0,0,0,.22,2.76l.43.17a7.79,7.79,0,0,0,1,.09h.46c.46,0,.92-.08,1.37-.15.61-.08,1.22-.18,1.81-.29a14.47,14.47,0,0,0,1.73-.4c.39-.05.79-.13,1.17-.21.57-.11,1.13-.26,1.69-.39s1.23-.29,1.82-.47l.87-.3c.53-.21,1.05-.39,1.56-.64a12.27,12.27,0,0,0,2.09-1.32c.37-.28.77-.56,1.11-.87a9.07,9.07,0,0,0,1.54-1.74l.49-.69c.25-.42.51-.81.73-1.25a9.27,9.27,0,0,0,.86-2.43,11,11,0,0,0,.17-1.52v-1.39a17,17,0,0,0-.57-4,14.17,14.17,0,0,0-1.73-3.62,10.77,10.77,0,0,0-1.25-1.62,13.6,13.6,0,0,0-1.33-1.3,20.53,20.53,0,0,0-1.79-1.26,8.57,8.57,0,0,0-2.66-1.28,15.5,15.5,0,0,0-1.9-.47l-.3-.06-.25-.09a34,34,0,0,0-4-1.11,21.33,21.33,0,0,0-3.38-.48,16.86,16.86,0,0,1-1.73-.06h-.31Z" transform="translate(1 1)"/><path class="cls-6" d="M200.24,161.65a8.63,8.63,0,0,1,.86.3l.55.24-.5-.11-.29-.11h0l-.66-.32Zm-2.38-1.11a1.6,1.6,0,0,0-.53-.09h-.17a1,1,0,0,0-.65.29l-1.33.18h1.18V161a.79.79,0,0,0,.39.89l.34.2a1.26,1.26,0,0,0-.16.33,1.34,1.34,0,0,0,.87,1.62.94.94,0,0,0-.23.1,1.1,1.1,0,0,0-.55.51l-.87,0h-.38a2.92,2.92,0,0,0-.51,0,1.28,1.28,0,0,0-1.38,1.16,1.24,1.24,0,0,0,1,1.27c.42.1.86.19,1.29.26a1,1,0,0,0-.05.35,1.25,1.25,0,0,0,.43,1,1.56,1.56,0,0,0,.64.36,2.14,2.14,0,0,0,.76.08h.37l.5,0c.44,0,.87.07,1.32.1,1,0,2.06.07,3.1.09.86,0,1.73,0,2.64,0,.44,0,.87-.09,1.33-.13l.62-.06a11.5,11.5,0,0,0,1.42-.28,1.39,1.39,0,0,0,1-1.71V167a.87.87,0,0,0-.11-.81,1.85,1.85,0,0,0-.45-.43l-.16-.11c-.55-.42-1.07-.87-1.62-1.3a16.81,16.81,0,0,0-2.77-1.91c-.55-.27-1.13-.51-1.73-.74a13.23,13.23,0,0,0-2.25-.76,13,13,0,0,0-3.05-.36,1.33,1.33,0,0,0-.28-.1Z" transform="translate(1 1)"/><path d="M176.25,57.75l.65.15c1.44.14,2.88.18,4.33.2h4.47c2.93-.06,5.87,0,8.8.11q4.17.23,8.34.56c3,.25,6,.48,9,.81h0a91.36,91.36,0,0,1-9.21.68,83.18,83.18,0,0,1-8.65-.36c-3-.3-5.92-.59-8.89-.81-1.48-.13-3-.26-4.44-.43l-1.85-.25-1.1-.2-.46-.09-.32-.06a2.75,2.75,0,0,1-.63-.28h0Z" transform="translate(1 1)"/><path d="M186,61.53v0Zm3.46-2.91h0a10.25,10.25,0,0,0-1.24.16,3.8,3.8,0,0,0-.67.14l-.75.2a1.8,1.8,0,0,0-.87.41,3.46,3.46,0,0,0-.58.93,6.73,6.73,0,0,0-.57,2.24,15.82,15.82,0,0,0,0,3.37,7.67,7.67,0,0,0,.87,3,6.25,6.25,0,0,0,2,2,12.61,12.61,0,0,0,3,1.44,11,11,0,0,0,3.19.53,16.66,16.66,0,0,0,6.82-1,11.8,11.8,0,0,0,2.82-1.62,7.24,7.24,0,0,0,1.16-1.12,7,7,0,0,0,.76-1.21,7.29,7.29,0,0,0,.58-1.62,6.82,6.82,0,0,0,.18-1.42,12.8,12.8,0,0,0-.12-1.52,9.15,9.15,0,0,0-.38-1.8,7.42,7.42,0,0,0-.51-1.28c-.1-.17-.2-.33-.31-.49l2-.16,3.4-.32h0c-1.56-.16-3.13-.31-4.68-.43l-1-.07a1.94,1.94,0,0,0-.76,0,.76.76,0,0,0-.5.47,1.94,1.94,0,0,0,.3,1.17c.08.21.18.43.25.64a6.33,6.33,0,0,1,.26,1,12,12,0,0,1,.08,1.58,10.37,10.37,0,0,1,0,1.24,7.56,7.56,0,0,1-.42,1.38,8.15,8.15,0,0,1-.71,1.21,6.16,6.16,0,0,1-1,.81,12.51,12.51,0,0,1-2.3,1.27,12.34,12.34,0,0,1-1.6.49c-.59.13-1.17.22-1.77.3a20.16,20.16,0,0,1-4.11.11,10.33,10.33,0,0,1-2-.53,11.55,11.55,0,0,1-2-1,5.44,5.44,0,0,1-.7-.65,6.61,6.61,0,0,1-.64-1,11.58,11.58,0,0,1-.74-2.63,15.48,15.48,0,0,1-.18-3.33,5.32,5.32,0,0,1,.35-1.24,1.75,1.75,0,0,1,.18-.29l.08-.09a9.58,9.58,0,0,1,1.14-.61l.86-.38h0c.29-.12.58-.19.87-.28Z" transform="translate(1 1)"/><path d="M204,57.34v0Zm0-.11Zm0-.12v.11h0v-.1ZM197,51.8a16,16,0,0,0-1.83-.11h-.09a8.84,8.84,0,0,0-3.64.54,9,9,0,0,0-2,1.27A5.82,5.82,0,0,0,188.15,55a6.1,6.1,0,0,0-.54,1.19c0,.14-.07.3-.12.45a10.82,10.82,0,0,1-1.27.2l-4.85.51h0l3.89.4c.55.06,1.09.11,1.64.14a5,5,0,0,0,.77,0,1.49,1.49,0,0,0,.66-.15,1.18,1.18,0,0,0,.38-.32,1.3,1.3,0,0,0,.1-.25.76.76,0,0,0,0-.3,5.53,5.53,0,0,1,.2-.66,5.16,5.16,0,0,1,.68-1.06,4.84,4.84,0,0,1,.66-.62,8.78,8.78,0,0,1,1.55-.81,6.2,6.2,0,0,1,1.2-.3,18,18,0,0,1,2.32,0,13,13,0,0,1,1.52.14l.92.16a12.19,12.19,0,0,1,2.14.62,17.07,17.07,0,0,1,2.87,1.51,4.39,4.39,0,0,1,.75.68,4.55,4.55,0,0,1,.28.43l-.08-.17a1.74,1.74,0,0,1,.14.38v.07h0c-.2.2-.46.35-.45.67a.45.45,0,0,0,.26.43,2.19,2.19,0,0,0,.68.17l.7.12a8.07,8.07,0,0,0,1.7.21,19.8,19.8,0,0,0,2-.15h0l-1.47-.17a9.53,9.53,0,0,1-1.59-.32L205.1,58l.05-.08a1.19,1.19,0,0,0,.21-.44l0-.32a2.94,2.94,0,0,0-.25-1,6.36,6.36,0,0,0-2.6-2.43,12.94,12.94,0,0,0-5.53-1.9Z" transform="translate(1 1)"/><path d="M195.24,45.28a1.87,1.87,0,0,1,.74.18,3.54,3.54,0,0,1,.51.35,1.81,1.81,0,0,1,.29.33.71.71,0,0,1,.14.1,2.32,2.32,0,0,1,.59.81,4.86,4.86,0,0,1,.33,1.17,5,5,0,0,1,.08,1.39,4,4,0,0,1-.31,1.13,3.55,3.55,0,0,1-.3.58,2.66,2.66,0,0,1-.35.46,1.3,1.3,0,0,1-.31.26v.47h0a2.36,2.36,0,0,0-.09-.43l-.08.05a1.8,1.8,0,0,1-.56.21,1.63,1.63,0,0,1-1.36-.39,4.16,4.16,0,0,1-1-2.18,12.72,12.72,0,0,1-.17-1.62,5.23,5.23,0,0,1,0-1.37,1.81,1.81,0,0,1,1.69-1.46Z" transform="translate(1 1)"/><path d="M191,72.09Zm.26-.87h0a3,3,0,0,0-.23.27,2.14,2.14,0,0,0-.1.22c-.07.17-.13.33-.19.51s-.19.54-.27.81a22,22,0,0,0-.54,2.56,8.78,8.78,0,0,0-.13,1.45,2.3,2.3,0,0,0,.22,1.12,1.16,1.16,0,0,0,.4.36.9.9,0,0,0,.51.07h.39c.69,0,1.38.06,2.07.09,1.41.08,2.83.15,4.24.1a9.18,9.18,0,0,0,1.39-.07,7.91,7.91,0,0,0,1.2-.2.83.83,0,0,0,.61-.52.66.66,0,0,0,.05-.46l-.08-.29a2.25,2.25,0,0,0-.06-.36c0-.3-.1-.61-.14-.93-.1-.71-.18-1.43-.24-2.15s-.12-1.69-.18-2.54h0a29.86,29.86,0,0,0-.46,3.4c0,.51-.05,1-.05,1.54v1.06H195l-2.17.12c-.54,0-1.1.06-1.64.05a2.7,2.7,0,0,0-.09-.48c-.08-.73-.13-1.47-.14-2.2v-1a14.39,14.39,0,0,1,.13-1.73h0a2.15,2.15,0,0,1,.11-.55,1.77,1.77,0,0,1,.15-.31Z" transform="translate(1 1)"/><path d="M193.22,106.39v0Zm4.11-27.89h0c-.08.68-.16,1.37-.23,2-.13,1.27-.2,2.55-.25,3.83s-.09,2.75-.13,4.12c-.07,2.61-.06,5.21-.08,7.81v4c0,1.32,0,2.64,0,4s0,2.62.06,3.94c0,1.07,0,2.14,0,3.2l-.32-.1-.38-.12a9.65,9.65,0,0,1,.07-1.42,5.43,5.43,0,0,1,.06-1c0-.66.06-1.33.06-2s0-1.24,0-1.86,0-1.24,0-1.86v-4.1c0-1.37-.1-2.53-.16-3.8L195.72,91c-.06-1.26-.08-2.53-.2-3.78s-.24-2.66-.33-4l-.1-1.94a4.79,4.79,0,0,0-.06-.92v-.7a2.91,2.91,0,0,1,0-.59h0a2.82,2.82,0,0,0-.14.64v1.1c0,.47-.06,1-.09,1.42-.05,1-.1,2-.14,2.94s0,1.88,0,2.82-.08,1.91-.12,2.86c-.07,1.38-.13,2.77-.21,4.15s-.12,2.65-.21,4c-.2,2.57-.36,5.17-.7,7.73-.07.45-.13.91-.19,1.37s-.19,1-.28,1.54-.17,1-.21,1.44a4.32,4.32,0,0,0,.08,1.29,2.22,2.22,0,0,0,.24.6,2.71,2.71,0,0,0,.36.4,1.82,1.82,0,0,0,1.07.46,9.12,9.12,0,0,1,1.18.41c.92.35,2,.89,3,.27a1.53,1.53,0,0,0,.7-.81,1.4,1.4,0,0,0,0-.76,2.35,2.35,0,0,0-.19-.43,2.11,2.11,0,0,0-.07-.3c0-.41-.06-.81-.06-1.24,0-1.38-.1-2.77-.19-4.16s-.12-2.56-.17-3.84-.06-2.64-.09-4-.07-2.68-.12-4.05c-.08-2.63-.33-5.26-.53-7.88-.11-1.36-.24-2.73-.33-4a40.52,40.52,0,0,1,0-4.41Z" transform="translate(1 1)"/><path d="M211.17,69.27Zm-11.7,20.64v0Zm11.7-20.6h0v0Zm-1.48-6.8h0c.09.86.17,1.72.25,2.58.05.59.13,1.18.17,1.77l.15,2.2c0,.54.05,1.08.07,1.62,0,1,.09,1.92.14,2.88l.05,1.18c0,.41.06.81.06,1.22v4.33c0,.69,0,1.39-.07,2.09s-.13,1.28-.21,1.91a21.66,21.66,0,0,1-1.4,5.41,9.35,9.35,0,0,1-1.11,1.81,8.28,8.28,0,0,1-1,1,6.78,6.78,0,0,1-1.16.62,6,6,0,0,1-1.24.34,6.49,6.49,0,0,1-1.08,0,5,5,0,0,1-.87-.22,4.73,4.73,0,0,1-.86-.47,6.57,6.57,0,0,1-.87-.88A9.77,9.77,0,0,1,199.5,90a18.28,18.28,0,0,1-.66-1.74c-.16-.55-.3-1.1-.42-1.62s-.29-1.28-.39-1.94-.17-1.2-.27-1.8h0a11.74,11.74,0,0,0,.05,1.33,19.49,19.49,0,0,0,.08,2.16c0,.59.11,1.2.2,1.79a11.4,11.4,0,0,0,1.11,3.63,5.82,5.82,0,0,0,2.47,2.61,4.9,4.9,0,0,0,2,.52,6.21,6.21,0,0,0,2-.26,7.21,7.21,0,0,0,1.84-.81,7.89,7.89,0,0,0,1.42-1.22,9.43,9.43,0,0,0,1.2-1.67,11.87,11.87,0,0,0,.81-1.78,19,19,0,0,0,1-3.91,25.3,25.3,0,0,0,.35-4.16c0-.63,0-1.26,0-1.9a11.83,11.83,0,0,0,0-1.2c-.06-1-.12-1.89-.23-2.84-.23-2-.49-3.92-.78-5.87v0h0a0,0,0,0,0,0,0h0c-.08-.51-.19-1-.29-1.56s-.13-.75-.22-1.12c-.31-1.35-.62-2.71-1-4Z" transform="translate(1 1)"/><path d="M195.29,114.09c.91.11,1.81.29,2.71.48a14.81,14.81,0,0,1,3.06,1,7.2,7.2,0,0,1,2.31,1.81c.29.33.55.69.86,1.05a6.76,6.76,0,0,1,.65.88c.3.45.6.91.87,1.38a14.86,14.86,0,0,1,.82,1.88,29.2,29.2,0,0,1,.86,3c.31,1.21.55,2.43.79,3.68h0c-.36-.95-.73-1.89-1.1-2.84-.23-.59-.49-1.18-.74-1.76s-.38-.89-.61-1.32l-.49-.92a11.5,11.5,0,0,0-1.08-1.63,20.48,20.48,0,0,0-2.71-2.72,7.1,7.1,0,0,0-1.18-.65,19.5,19.5,0,0,0-4-.81,18.35,18.35,0,0,0-3.31-.14,5.75,5.75,0,0,0-.71.2,6.3,6.3,0,0,0-.87.5,12.56,12.56,0,0,0-1.83,1.74,13.86,13.86,0,0,0-1.58,2.57,17.19,17.19,0,0,0-.86,3.24c0,.34-.09.68-.11,1s-.05.45-.05.68c.7.15,1.43.23,2.15.33s1.23.16,1.84.24l3.8.51c2.1.23,4.2.39,6.31.54s4.32.25,6.53.45h0c-1.81.15-3.63.24-5.43.35s-3.42.22-5.13.29-3.34.07-5,.05h-1.49c-1.22,0-2.46,0-3.68-.08a6.5,6.5,0,0,1-1.32-.22,2.11,2.11,0,0,1-1.27-1,2,2,0,0,1-.06-1.56.89.89,0,0,1,.06-.39c.1-.81.18-1.57.31-2.36.06-.38.14-.81.22-1.16a12.55,12.55,0,0,1,.87-2.66,12.15,12.15,0,0,1,2.71-3.79,10.63,10.63,0,0,1,1.6-1.23,5.94,5.94,0,0,1,3.2-.86h.07a20.09,20.09,0,0,1,2,.19Z" transform="translate(1 1)"/><path d="M211.46,130.68ZM187.23,129h0Zm2.37-.55h0a9.58,9.58,0,0,0-2.51.21c-.45.12-.87.25-1.33.42a15.23,15.23,0,0,0-2,1c-.55.33-1.07.66-1.61,1a11.3,11.3,0,0,0-2.85,2.66c-.34.46-.7.92-1,1.4a12.85,12.85,0,0,0-1.73,3.11,7.8,7.8,0,0,0-.48,2.33v.95a18.4,18.4,0,0,0,.18,2.57,11.75,11.75,0,0,0,.87,3.06,15.37,15.37,0,0,0,1.24,2.38,15.74,15.74,0,0,0,2.6,3.17,18,18,0,0,0,2.76,1.95A16.21,16.21,0,0,0,186.6,156a29.48,29.48,0,0,0,4.27,1,34.5,34.5,0,0,0,7.11.35c.82,0,1.64,0,2.46-.09s1.6-.13,2.39-.2a24.23,24.23,0,0,0,5.91-1.26,19.63,19.63,0,0,0,3.14-1.4,19.63,19.63,0,0,0,4.9-4.09,13.69,13.69,0,0,0,1.65-2.43,9.23,9.23,0,0,0,1.06-3.12,16,16,0,0,0,0-2.94,14.85,14.85,0,0,0-.49-3,12.6,12.6,0,0,0-1.1-2.6,17.84,17.84,0,0,0-2.27-3.13,13.57,13.57,0,0,0-2.84-2.61,12.68,12.68,0,0,0-2.54-1.23,26.38,26.38,0,0,0-2.91-.74h0c.76.31,1.55.61,2.29,1a14.06,14.06,0,0,1,1.9,1.14,11.39,11.39,0,0,1,1.89,1.78,18.67,18.67,0,0,1,1.22,1.67,20.07,20.07,0,0,1,1.54,2.65,13.62,13.62,0,0,1,.87,2.92,19.79,19.79,0,0,1,.13,2.43,19.31,19.31,0,0,1-.08,2.28,8,8,0,0,1-.5,1.57,13.75,13.75,0,0,1-1.64,2.56,18.33,18.33,0,0,1-3.21,2.94A14.64,14.64,0,0,1,210,152.5c-.56.3-1.15.56-1.73.81a22.75,22.75,0,0,1-2.84.87c-.86.21-1.79.37-2.7.5-1.35.15-2.72.3-4.1.33a47,47,0,0,1-6.05-.08c-.75-.11-1.48-.25-2.23-.39a21.62,21.62,0,0,1-3.15-.87,19.11,19.11,0,0,1-3.27-1.85,13.94,13.94,0,0,1-2.1-2,20.08,20.08,0,0,1-2.39-3.76,13.44,13.44,0,0,1-.87-3,15.11,15.11,0,0,1-.14-3.36,10.32,10.32,0,0,1,.67-2.22c.33-.69.7-1.39,1.09-2.05a17.92,17.92,0,0,1,1.47-2.3,18.92,18.92,0,0,1,2.77-2.51l-.1.07c.38-.28.76-.56,1.16-.81a9,9,0,0,1,4.18-1.48Z" transform="translate(1 1)"/><path d="M195.16,157.84a7.81,7.81,0,0,1,1.08,0l1.31.12a10.15,10.15,0,0,1,1.55.22l1,.2c.32.07.77.16,1.14.27l1.23.36a14.24,14.24,0,0,1,1.37.52,11.62,11.62,0,0,1,1.69.85,19.32,19.32,0,0,1,3,2.43c.27.26.57.52.86.81s.59.56.87.86c.55.62,1.09,1.25,1.61,1.89.38.47.75,1,1.13,1.43h0l-1.32-1.23c-.32-.27-.62-.57-.94-.81l-1-.87c-.3-.25-.64-.47-1-.71a23.93,23.93,0,0,0-4.63-2.88,14.17,14.17,0,0,0-2.13-.65l-1.12-.24c-.58-.11-1.16-.18-1.73-.27l-1.36-.12a14,14,0,0,1-1.45,0,10.08,10.08,0,0,0-1.23,0,14.59,14.59,0,0,0-2.28.12,15.51,15.51,0,0,0-3.15.81,13,13,0,0,0-2.37,1.3,24.15,24.15,0,0,0-3.79,3.49l-.16.21c.58.14,1.18.25,1.73.36.77.13,1.54.25,2.31.35s1.39.16,2.09.2c.87.08,1.8.13,2.69.19,1.59.1,3.18.2,4.77.28l9.93.53,1.94.12c.71,0,1.44.11,2.15.12.22,0,.44-.12.65-.18h0a2.75,2.75,0,0,1-.8.3h-.59l-1.23.06-2.4.14-4.79.26c-3.31.18-6.62.37-9.94.53-1.57.07-3.16.15-4.74.09-.91,0-1.81-.08-2.72-.15a19.52,19.52,0,0,1-3.51-.58,2.64,2.64,0,0,1-.93-.51,1.76,1.76,0,0,1-.59-.81,1.69,1.69,0,0,1,0-1,1.94,1.94,0,0,1,.49-.81c.22-.25.48-.47.71-.69l1.55-1.54c.52-.5,1.18-1.07,1.79-1.62.29-.25.6-.48.87-.71a14.86,14.86,0,0,1,2.5-1.62,14.17,14.17,0,0,1,3-1.05,15.52,15.52,0,0,1,3.4-.43h1.56Z" transform="translate(1 1)"/><path d="M179.37,114.07a1.75,1.75,0,0,1,.51.34,2,2,0,0,1,1.34.17,2.39,2.39,0,0,1,.58.42,2.13,2.13,0,0,1,.42.65c.37.73.81,1.44,1.24,2.15s.81,1.37,1.2,2.08l.73,1.34c.23.41.41.85.6,1.27.12.23.22.45.32.68s.15.46.24.68l.24.68a6.14,6.14,0,0,1,.22.73,1.92,1.92,0,0,1-.07,1.16,1.46,1.46,0,0,1-1.77.94,1.41,1.41,0,0,1-.77-.51.53.53,0,0,1-.39-.13l-.34-.31a1.14,1.14,0,0,1-.36-.15,3.58,3.58,0,0,1-.46-.29,1.27,1.27,0,0,1-.7-.56l-.07-.1-.48-.47-.1-.1-.23-.17-1.55-1.06c-.64-.44-1.29-.91-1.92-1.37s-1-.74-1.45-1.11a4.22,4.22,0,0,1-1.64-2,1.77,1.77,0,0,1,.49-1.77,6,6,0,0,1,.58-.41c.2-.14.22-.18.35-.26a.41.41,0,0,1,0-.22.92.92,0,0,1,.65-.81,1.67,1.67,0,0,1,.5,0,1.21,1.21,0,0,1,.6-1.39,1.66,1.66,0,0,1,.79-.21,1.39,1.39,0,0,1,.67.17Z" transform="translate(1 1)"/><path d="M238.3,121.51l.14.17Zm-25-9.72c1.49.14,3,.3,4.48.46l2.26.34c.78.12,1.56.28,2.35.43s1.3.28,1.94.45a27,27,0,0,1,2.9.91l1.91.74a30.51,30.51,0,0,1,5.46,2.71,17.31,17.31,0,0,1,2.07,1.85c.63.67,1.28,1.32,1.87,2a14.5,14.5,0,0,1,.87,1.19,11.33,11.33,0,0,1,.65,1.18,7.85,7.85,0,0,1,.48,1.49,4.09,4.09,0,0,1,0,.7,5.44,5.44,0,0,1-.15.54l-.15.22-.06.06-.33.19a7.58,7.58,0,0,1-1,.25c-.47,0-.94,0-1.41,0h-.86a17.06,17.06,0,0,1-1.73-.06c-.61-.06-1.2-.08-1.8-.15l-1.63-.18-1-.17c-.35,0-.71-.09-1.05-.17l-1-.23c-.36-.08-.72-.14-1.07-.24l-1-.29c-.33-.09-.69-.17-1-.28l-2-.65-2-.81c-.71-.29-1.4-.63-2.1-1l-2-.9c-1.25-.56-2.49-1.1-3.73-1.69-2.7-1.3-5.4-2.63-8.06-4-.64-.34-1.28-.72-1.92-1.07s-1.27-.69-1.9-1-1.3-.66-2-1l-1.94-1c-.59-.3-1.15-.65-1.73-1l-1-.5h9.68c1.5,0,3,.09,4.49.18s2.76.18,4.13.31ZM150.87,97.74a.28.28,0,0,1,0,.13A.28.28,0,0,0,150.87,97.74Zm.72-.13a19.1,19.1,0,0,1,4.07,0,38.81,38.81,0,0,1,4.67,1l3.74,1c1.05.28,2.08.61,3.11.94.52.17,1,.32,1.56.52l1.51.59,5.19,2.34c.72.32,1.44.63,2.15,1s1.77.89,2.65,1.35l3.79,2,1.94,1c.39.21.77.44,1.15.68l-1,.16-1.95.35c-.69.14-1.37.26-2,.43s-1.56.34-2.33.56l-2.43.67c-1.39.39-2.77.81-4.15,1.27l-1.39.47-2.07-1.22c-1.22-.72-2.47-1.4-3.72-2.08-.62-.33-1.23-.65-1.83-1s-1.25-.75-1.85-1.14-1.26-.81-1.88-1.23L158.65,106c-.66-.49-1.32-1-2-1.47l-1.35-1A16.6,16.6,0,0,1,154,102.3,13.9,13.9,0,0,1,152.8,101l-.41-.52a4.7,4.7,0,0,1-.34-.44,14.4,14.4,0,0,1-.87-1.46,5.47,5.47,0,0,1-.26-.81,5.73,5.73,0,0,1,.7-.13Zm3.46-2.85a17.45,17.45,0,0,0-2-.12,12.1,12.1,0,0,0-1.21.06,10.51,10.51,0,0,0-1.59.24,3.29,3.29,0,0,0-1.43.69,2.12,2.12,0,0,0-.78,1.62,3.33,3.33,0,0,0,.35,1.34,9.87,9.87,0,0,0,1.09,1.85c.51.67,1,1.31,1.57,2a18.17,18.17,0,0,0,3.12,2.88l1.85,1.35,1.73,1.23c.58.41,1.22.81,1.85,1.19s1.3.81,2,1.18l2.12,1.16a8.17,8.17,0,0,0,.79.38l1.27.6,4,1.86.62.28c-.37.15-.76.29-1.13.46-.66.28-1.33.56-2,.87-.36.17-.73.32-1.08.52l-1,.54c-.61.33-1.2.69-1.78,1.07l-.87.58a12,12,0,0,0-1.19.94h0a27.91,27.91,0,0,1,2.78-1.56c.77-.37,1.54-.71,2.32-1.05s1.34-.52,2-.75,1.54-.54,2.33-.75l.93-.25,1.86.81c1.59.67,3.21,1.31,4.83,1.93h0l-5.06-3-.24-.15,2.07-.51c1.57-.37,3.15-.73,4.73-1.07,2.77-.6,5.59-1,8.41-1.37l1.48-.16h.09l1.6.81c1.36.7,2.72,1.4,4.06,2.13s2.71,1.37,4.08,2c.66.32,1.3.68,2,1l1.91,1c1.22.64,2.47,1.23,3.72,1.82s2.48,1.18,3.73,1.75c.75.34,1.48.7,2.24,1l2.24,1,3.91,1.7c1.33.57,2.7,1.16,4.1,1.62.72.24,1.44.47,2.17.69.34.09.69.22,1.05.3l1.16.27c.32.08.64.17,1,.23l1.26.21c.81.14,1.62.23,2.44.32,1.36.17,2.73.26,4.11.32l1.28,0a9,9,0,0,0,2.8-.23,4,4,0,0,0,1.45-.73,2.94,2.94,0,0,0,.8-1,5.58,5.58,0,0,0,.28-.67,3.19,3.19,0,0,0,.12-.6,2.84,2.84,0,0,0,.08-.77,5.28,5.28,0,0,0-.09-.81,9,9,0,0,0-1.12-2.87,13.66,13.66,0,0,0-1.73-2.22c-.67-.76-1.4-1.46-2.14-2.16a17.6,17.6,0,0,0-2.21-1.81,23.1,23.1,0,0,0-4.28-2.21c-.76-.31-1.51-.62-2.27-.91-1.07-.39-2.14-.81-3.24-1.13a34.31,34.31,0,0,0-4-.93c-.68-.11-1.37-.24-2.06-.33s-1.63-.24-2.45-.32c-1.62-.16-3.25-.31-4.86-.44-1.41-.12-2.82-.19-4.22-.26s-2.82-.11-4.22-.12h-9.11c-.67,0-1.36,0-2,0l-1.63.09h-.41l-.34-.18c-.35-.17-.7-.33-1-.52-.59-.35-1.2-.69-1.81-1s-1.38-.76-2.08-1.13c-1.26-.65-2.54-1.25-3.82-1.89s-2.51-1.3-3.8-1.88l-3.93-1.76-2.08-1c-.33-.15-.65-.32-1-.46l-1.08-.44c-.43-.17-.87-.37-1.27-.51l-1-.35c-.7-.25-1.4-.49-2.11-.72-1.42-.47-2.86-.89-4.28-1.34-.7-.22-1.41-.42-2.11-.63a26.89,26.89,0,0,0-4.54-.93Z" transform="translate(1 1)"/><path d="M164.52,115.29l.18.15a1.19,1.19,0,0,1,.36-.17,1.2,1.2,0,0,1,1.12.29,8.73,8.73,0,0,1,.78.82l.41.46.32.41a2.78,2.78,0,0,1,.33.67,1.16,1.16,0,0,1,0,.64,1.23,1.23,0,0,1-.59.72l-.11,0-.13.09a1,1,0,0,1-1.33-.32V119l-.27-.29-.27.2c-.29.2-.59.38-.87.55a5.07,5.07,0,0,1-.64.37c-.47.22-.94.44-1.42.64l-.61.24c-.43.31-.86.6-1.31.9a5,5,0,0,1-.71.5,1.5,1.5,0,0,1-.72.17l-.27.18a1,1,0,0,1-.55.09.86.86,0,0,1-.6-.23.78.78,0,0,1-.22-.76l.08-.19h0a1.37,1.37,0,0,1,.54-1.94h0c.42-.21.85-.41,1.27-.6l.4-.3c.25-.24.51-.47.77-.7a10.12,10.12,0,0,1,2-1.37,11.14,11.14,0,0,1,1-.54.58.58,0,0,1,.18-.58.67.67,0,0,1,.45-.18.83.83,0,0,1,.51.18Z" transform="translate(1 1)"/><path d="M218.62,125.56l-.29-.12Zm0,0ZM237.21,127Zm.11-.13v0h0Zm-17.77-3.62h0Zm-11.84-11.31c.68,0,1.36.13,2,.2,1.56.23,3.11.45,4.67.71s3.05.57,4.57.92c.68.15,1.34.33,2,.53s1.49.5,2.23.77l2.15.77c.72.24,1.51.51,2.26.81a31.82,31.82,0,0,1,6.38,3.93,14.22,14.22,0,0,1,2.29,2.16,8.86,8.86,0,0,1,.86,1.27,6.45,6.45,0,0,1,.27.85,7.12,7.12,0,0,1,0,1.46,3.77,3.77,0,0,1-.16.6h-1.39c-.46,0-1-.05-1.56-.09q-1.45-.14-2.91-.3c-1-.11-1.89-.27-2.82-.47s-2.06-.47-3.07-.81c-2-.61-4.06-1.32-6-2.06-1.5-.6-3-1.26-4.47-1.88a44.26,44.26,0,0,1-4.23-1.88c-.73-.38-1.46-.76-2.2-1.11s-1.32-.6-2-.9-1.49-.64-2.2-1-1.49-.81-2.22-1.19c-1.33-.72-2.71-1.35-4.06-2-.75-.36-1.46-.74-2.17-1.16l-.64-.37h.26c1.63-.05,3.26,0,4.88,0s3.1,0,4.64.1c.87,0,1.79.1,2.68.17ZM152.54,98.38v0Zm.29-.25-.17.12A1,1,0,0,1,152.83,98.13Zm-.12,0-.07.1h0l.07-.09ZM153.8,98a11.93,11.93,0,0,1,2.07,0,39.71,39.71,0,0,1,8,2.43c1.27.48,2.52,1,3.79,1.45.6.22,1.23.39,1.84.6l1.9.64q.69.27,1.38.57l1.81.81c1.05.49,2.13.94,3.19,1.41s2.24,1,3.35,1.53,2.11,1,3.18,1.54c.72.33,1.42.68,2.12,1.06h.05l-3.26.43a51.16,51.16,0,0,0-5.53.81,25.7,25.7,0,0,0-2.55.65,22,22,0,0,0-3,1.34l-.21.11-1-.59-4-2.43c-1.3-.81-2.36-1.57-3.52-2.37-1.73-1.3-3.41-2.64-5.11-4-.8-.64-1.62-1.28-2.4-1.94a28.48,28.48,0,0,1-2.7-2.43,6.79,6.79,0,0,1-.5-.81,4.58,4.58,0,0,1-.15-.49v-.07l.11-.06A6.14,6.14,0,0,1,153.8,98Zm2.43-2.91a11.75,11.75,0,0,0-1.78-.13,10.2,10.2,0,0,0-1.91.17,2.94,2.94,0,0,0-.65.16,3.75,3.75,0,0,0-1.36.7l-.19.16a4.48,4.48,0,0,0-.51.64,3.54,3.54,0,0,0-.23.53,4,4,0,0,1-.09.59,3.86,3.86,0,0,0,.1.75,4.94,4.94,0,0,0,.51,1.21,8.61,8.61,0,0,0,1.73,2.13c.56.51,1.14,1,1.73,1.47,1.38,1.08,2.79,2.12,4.23,3.14,1.26.89,2.52,1.81,3.82,2.66A76.32,76.32,0,0,0,170,113.8l.5.23-.51.23c-.7.31-1.38.63-2.06,1s-1.34.65-2,1l-2,1.23c-.69.41-1.26.65-1.85,1a22.34,22.34,0,0,0-1.93,1.37h0a29.16,29.16,0,0,1,2.71-1.28h0c.7-.26,1.41-.49,2.09-.81s1.43-.63,2.15-.93c1.24-.44,2.5-.87,3.77-1.28.59-.19,1.16-.39,1.73-.61l1.48.65c1.68.71,3.38,1.36,5.07,2h0c-1.77-1.06-3.56-2.09-5.34-3.14l.86-.35a20,20,0,0,1,2.87-.69c.58-.12,1.17-.2,1.73-.29,1.78-.2,3.58-.34,5.36-.56s3.6-.43,5.41-.62l.45.25c.69.37,1.41.71,2.11,1s1.36.77,2,1.16,1.44.77,2.17,1.13c1.4.67,2.81,1.32,4.17,2,.66.36,1.32.71,2,1s1.6.73,2.4,1.08,1.39.6,2.08.93,1.31.66,2,1c.39.19.77.39,1.17.57l1.17.51c.71.31,1.44.59,2.16.89s1.31.56,2,.81c.87.37,1.73.73,2.66,1.07,1.34.53,2.7,1,4.06,1.46s2.85.94,4.33,1.31c.73.18,1.46.37,2.21.5s1.65.27,2.47.38c1.53.2,3.07.36,4.61.47a8.08,8.08,0,0,0,1.63.05,2.87,2.87,0,0,0,1-.23,2.36,2.36,0,0,0,.62-.4,3.55,3.55,0,0,0,.86-1.32,5.15,5.15,0,0,0,.35-1.69,8,8,0,0,0-.09-1.69,5.49,5.49,0,0,0-.39-1.25,6.45,6.45,0,0,0-.77-1.35,14.24,14.24,0,0,0-2.23-2.43,25.33,25.33,0,0,0-2.26-1.63c-.77-.51-1.46-1-2.2-1.44a24.15,24.15,0,0,0-2.48-1.39,32,32,0,0,0-3.54-1.32l-2.47-.85c-.67-.24-1.35-.5-2-.71a62.31,62.31,0,0,0-9.68-2c-1.61-.22-3.22-.45-4.84-.54s-3.25-.17-4.89-.18c-3.33,0-6.67,0-10,.14-.53,0-1.07.06-1.61.1-.56-.31-1.11-.61-1.73-.9s-1.33-.73-2-1.09-1.41-.71-2.14-1.05c-1.41-.65-2.8-1.37-4.22-2s-3-1.27-4.47-1.92l-2.24-1c-.78-.34-1.57-.7-2.39-1l-2.37-.82c-.75-.25-1.49-.51-2.24-.81-1.27-.52-2.54-1.06-3.82-1.57-1.47-.58-2.94-1.17-4.46-1.62a22.6,22.6,0,0,0-2.95-.7Z" transform="translate(1 1)"/><path d="M197.23,68.24h0Zm5.85-7.7a1.08,1.08,0,0,0-.71-.29h-.05a1.17,1.17,0,0,0-.32,0l-.22.07-.46.1c-1.59.17-3.19.21-4.79.3-1.9.09-3.79.24-5.69.38h0a49.91,49.91,0,0,1,5.47.2c.79.06,1.56.17,2.34.24s1.63.16,2.43.26h-.19l.44.07v2.6a6.13,6.13,0,0,1-.18.61,5.85,5.85,0,0,1-.6.95,6.43,6.43,0,0,1-1,.89,13.31,13.31,0,0,1-2.46,1.34,12.46,12.46,0,0,1-2.69.67,16.58,16.58,0,0,1-1.73.14,10.13,10.13,0,0,1-1.55-.08h.09a13.6,13.6,0,0,1-2.8-.81h0c-.68-.28-1.33-.6-2-.92h0c.61.39,1.21.81,1.85,1.15a16.48,16.48,0,0,0,1.89.92A11.14,11.14,0,0,0,194,70a12.12,12.12,0,0,0,4.23-.52,10.41,10.41,0,0,0,3.4-1.77,5,5,0,0,0,1.94-3.32,9.88,9.88,0,0,0,0-1.72V62a2,2,0,0,0-.49-1.44Z" transform="translate(1 1)"/><path d="M198.55,156.13h.83c.82,0,1.63.11,2.44.22a1,1,0,0,1,.52.28,2.11,2.11,0,0,1,.19.23,1.1,1.1,0,0,1,.16.56.74.74,0,0,1,0,.21,2.7,2.7,0,0,1-.06.41,1.48,1.48,0,0,1-.71.81,4,4,0,0,1-1.08.42,8.39,8.39,0,0,1-1.43.26c-.49.07-1,.11-1.47.14h-1.37a3.53,3.53,0,0,1-.46,0l-1.33-.06H194l-1.16-.14-1.09-.15-.8-.13h-.38a2.23,2.23,0,0,1-.36-.05,1,1,0,0,1-.76-1.28,1.05,1.05,0,0,1,.49-.61,3.64,3.64,0,0,1,.69-.33,4.27,4.27,0,0,1,.71-.15,10.72,10.72,0,0,1,1.6-.17h.53a18.47,18.47,0,0,1,2-.27c.86-.07,1.65-.11,2.48-.14h.63Z" transform="translate(1 1)"/><path d="M200,158.71a16.73,16.73,0,0,1,3,.63,20.35,20.35,0,0,1,3.46,1.31c.56.28,1.08.61,1.61.94a21,21,0,0,1,1.73,1.24c.69.56,1.31,1.19,2,1.77a15.72,15.72,0,0,1,1.42,1.3,4.69,4.69,0,0,1,.46.54,1.87,1.87,0,0,1,.23.86,1.44,1.44,0,0,1-.46,1.06,2.44,2.44,0,0,1-1.31.65,7.52,7.52,0,0,1-1.34.14c-1.51.06-3,0-4.55,0s-3.06-.12-4.58-.17l-4.73-.11c-1.6,0-3.21,0-4.82,0h-1.67c-1.16,0-2.33,0-3.5-.06h0l2.92-.32,2.19-.26c1.56-.18,3.13-.37,4.68-.52l4.41-.43,4.65-.42,4.13-.45h.17a20.84,20.84,0,0,0-2.86-2.69c-.74-.51-1.48-1-2.28-1.47a27.11,27.11,0,0,0-2.51-1.14,17,17,0,0,0-3.31-1c-1-.11-1.92-.13-2.88-.18l-2.12-.12c-1.57-.09-3.12-.05-4.69,0h0a38.47,38.47,0,0,1,4.78-.81c.74-.06,1.49-.12,2.25-.16s1.64-.11,2.46-.11a9.39,9.39,0,0,1,1.06,0Z" transform="translate(1 1)"/><path d="M207.86,123a.11.11,0,0,1,0-.08,0,0,0,0,0,0,0h0Zm.08.17-.08-.17Zm-14.71-6.82Zm5-1.83H198a7.39,7.39,0,0,0-1.15.06c-.38.07-.78.08-1.17.15a7.89,7.89,0,0,0-1.85.55,13.2,13.2,0,0,0-3.75,2.86h0a23.82,23.82,0,0,1,3.19-1.81,9.85,9.85,0,0,1,1.94-.49,12.51,12.51,0,0,1,1.5,0,7.91,7.91,0,0,1,1.19.06,6.14,6.14,0,0,1,1.21.31,11.2,11.2,0,0,1,2.14,1.2,11.61,11.61,0,0,1,1.91,1.79,22.22,22.22,0,0,1,2.39,4c.1.21.19.42.27.64s.15.51.24.76a7.83,7.83,0,0,1,.26,1.26,11.67,11.67,0,0,1,.1,1.56l-1.27.1c-1.44.1-2.9.17-4.32.32-1.59.17-3.2.36-4.79.55s-3,.33-4.55.42c-1.73.12-3.52.2-5.27.35h0c1.21.11,2.44.17,3.66.25,1.52.09,3,.21,4.56.25s3.2.06,4.8.11,3,.14,4.53.24l2.27.12c.27,0,.53,0,.8,0s.44,0,.66-.07l.26,0a4,4,0,0,0,.65-.26,1.44,1.44,0,0,0,.6-.62,1.4,1.4,0,0,0,.14-1,1.55,1.55,0,0,0-.07-.31l-.05-.27a20.35,20.35,0,0,0-.43-2.2,14.56,14.56,0,0,0-.77-2.31c-.22-.5-.45-1-.71-1.48s-.51-.91-.78-1.36a12.41,12.41,0,0,0-2.42-3,11.87,11.87,0,0,0-3.62-2.17,6.64,6.64,0,0,0-2.11-.45Z" transform="translate(1 1)"/><path d="M212.9,45.21v0ZM202.66,39Zm4.92-.07a22.84,22.84,0,0,0-3.1-.19c-1.06,0-2.12,0-3.17.09h0l1.33.17c1,.13,2.05.26,3.05.45a17.27,17.27,0,0,1,2.83.81,10.64,10.64,0,0,1,1.85,1,9,9,0,0,1,1.29,1.17,6.93,6.93,0,0,1,.77,1.24,8.05,8.05,0,0,1,.5,1.72,9.18,9.18,0,0,1,.07,1.39,3.09,3.09,0,0,1-.18.59,3.32,3.32,0,0,1-.33.53,4.51,4.51,0,0,1-.55.52,4.85,4.85,0,0,1-.49.29l-.44.13a1.35,1.35,0,0,0-1,1.28,1.29,1.29,0,0,0,.41.93,1.5,1.5,0,0,0,.62.34,6.39,6.39,0,0,0,.78.1h.86a12.24,12.24,0,0,1,1.25.09,10.34,10.34,0,0,1,1.74.45,9.47,9.47,0,0,1,1.42.81,9.86,9.86,0,0,1,1.4,1.34,10.08,10.08,0,0,1,.87,1.39,9.28,9.28,0,0,1,.45,1.62,6.46,6.46,0,0,1,0,1.39,8.06,8.06,0,0,1-.29,1.07,6.62,6.62,0,0,1-.46.71,5.68,5.68,0,0,1-.51.47c-.33.2-.67.39-1,.56l-.31.09c-.2.08-.4.15-.59.24a4.82,4.82,0,0,0-.57.39,1.46,1.46,0,0,0-.4.66,1.4,1.4,0,0,0,0,.81,1.48,1.48,0,0,0,.4.65,1.6,1.6,0,0,0,.7.38c.57.08,1.15.18,1.73.22l1.11.08a11.79,11.79,0,0,1,2.11.59,14.7,14.7,0,0,1,2.6,1.46,16.2,16.2,0,0,1,2.65,2.44A12.14,12.14,0,0,1,228.52,72a10.68,10.68,0,0,1,.65,2.2,8.79,8.79,0,0,1,0,2,8.25,8.25,0,0,1-.48,1.68,6.18,6.18,0,0,1-.73,1.17,10.57,10.57,0,0,1-1.51,1.4,14.24,14.24,0,0,1-2.78,1.48,20.41,20.41,0,0,1-2.78.88c-1,.22-2,.4-2.95.6h0a31.52,31.52,0,0,0,4.94-.55,18.94,18.94,0,0,0,2.54-.75,10.76,10.76,0,0,0,1.91-.9,7.62,7.62,0,0,0,3-3.11,9.7,9.7,0,0,0,.73-2.27,8.89,8.89,0,0,0,.07-2.36,11.24,11.24,0,0,0-.54-2.43,13.21,13.21,0,0,0-1-2.13,14.8,14.8,0,0,0-3.23-3.8,15,15,0,0,0-2.14-1.56,12.68,12.68,0,0,0-2.28-1c-.22-.08-.45-.14-.67-.21a4.89,4.89,0,0,0,.63-.81,6,6,0,0,0,.67-1.51,8.15,8.15,0,0,0,.26-1.63,8.83,8.83,0,0,0-.11-1.62,8.49,8.49,0,0,0-.86-2.62,7.1,7.1,0,0,0-.87-1.31A10.27,10.27,0,0,0,220,51.59,9.21,9.21,0,0,0,217.65,50a10.12,10.12,0,0,0-3.05-.9,4.18,4.18,0,0,0,.53-2.21,8,8,0,0,0-2.32-5.27A8.34,8.34,0,0,0,210.42,40a11.27,11.27,0,0,0-2.93-.81Z" transform="translate(1 1)"/><path d="M184.81,24.62Zm.95-.88Zm2.6-1.08h0a8.29,8.29,0,0,0-3.15.77A8,8,0,0,0,183,25.5,9.71,9.71,0,0,0,182,27a8.1,8.1,0,0,0-.66,1.62,13.22,13.22,0,0,0-.36,3.25,24.57,24.57,0,0,0,.31,3.72,17,17,0,0,0,.37,1.86c.16.61.35,1.19.54,1.78s.4,1.18.61,1.76.42,1.16.61,1.74a19.78,19.78,0,0,1,.74,3.2,18.17,18.17,0,0,1,.09,3.38l-.16,3.09h0a37.19,37.19,0,0,0,1.23-4.86,12.86,12.86,0,0,0,.14-2.48,17.3,17.3,0,0,0-.24-2.27c-.31-1.62-.81-3.24-1.26-4.86A40.43,40.43,0,0,1,183,33a16.88,16.88,0,0,1-.16-4.2,9.29,9.29,0,0,1,.64-2,10.32,10.32,0,0,1,1.28-2.07,6.51,6.51,0,0,1,1-.92,5.15,5.15,0,0,1,1-.51h0c.57-.22,1.15-.4,1.73-.62Z" transform="translate(1 1)"/><path d="M196.18,40.65v0ZM192.72,22l0,.1Zm1-10.34h0a11.86,11.86,0,0,0-2.6,2.88,6.23,6.23,0,0,0-.69,1.86,9.5,9.5,0,0,0-.11,2,15.64,15.64,0,0,0,.2,2.05,14.3,14.3,0,0,0,.57,2.23,21.48,21.48,0,0,0,1.15,2.87,27.9,27.9,0,0,0,1.44,2.83,49.79,49.79,0,0,1,2.5,4.35,13.53,13.53,0,0,1,.93,2.89,11.43,11.43,0,0,1,0,3,5.4,5.4,0,0,1-.34,1.17,4.82,4.82,0,0,1-.57,1,8,8,0,0,1-1.14,1L193.7,42.9h0l2-1a5,5,0,0,0,1.45-1,5.76,5.76,0,0,0,1.12-1.74,10.35,10.35,0,0,0,.52-2,8.61,8.61,0,0,0,0-2.43,10.6,10.6,0,0,0-.49-2.13,18.12,18.12,0,0,0-1.47-3.24c-1.39-2.36-2.92-4.68-4.08-7.16a15.39,15.39,0,0,1-.86-2.35c-.17-.66-.3-1.33-.42-2a9,9,0,0,1,0-1.94,7.6,7.6,0,0,1,.43-1.38,23.63,23.63,0,0,1,1.77-2.81Z" transform="translate(1 1)"/><path d="M174.9,69a5,5,0,0,1,3,2,5.25,5.25,0,0,1,.73,1.62c.24.75.47,1.5.68,2.26h0l-.86-1.63a11.25,11.25,0,0,0-.87-1.44,4.58,4.58,0,0,0-1.66-1.25,5.93,5.93,0,0,0-1.1-.37,7.27,7.27,0,0,0-1.32,0q-.3.06-.6.15a6.71,6.71,0,0,0-.86.51,4.55,4.55,0,0,0-.64.6,6.32,6.32,0,0,0-.65,1,8.45,8.45,0,0,0-.44,1.62,10.71,10.71,0,0,0,0,2.53,9.89,9.89,0,0,0,.62,2A12.21,12.21,0,0,0,172.32,81l.6.12a11.21,11.21,0,0,1,2.41.81,4.94,4.94,0,0,1,2.1,1.67,2,2,0,0,1,.35,1.3,1.31,1.31,0,0,1-.14.59l-.16.35a3.73,3.73,0,0,1-.36.43,1.71,1.71,0,0,1-.7.38,2.2,2.2,0,0,1-1,0,5.55,5.55,0,0,1-.56-.24,3.88,3.88,0,0,1-.47-.32,22.86,22.86,0,0,1-2.48-1.78c-.21-.18-.41-.36-.61-.56l-.61-.11a9.85,9.85,0,0,0-1.8,0,6.12,6.12,0,0,0-.87.2l-.34.2a5.42,5.42,0,0,0-.49.46,5.77,5.77,0,0,0-.4.68,6.05,6.05,0,0,0-.29,1,5.92,5.92,0,0,0,0,1.19,8.56,8.56,0,0,0,.45,1.55,9.7,9.7,0,0,0,1.18,1.81,12,12,0,0,0,2.07,2,17.08,17.08,0,0,0,3.46,1.83h-.08c.45.17.87.32,1.35.47a20.41,20.41,0,0,0,2.69.57h0a17.85,17.85,0,0,1-2.31-.09c-.45-.06-.9-.16-1.35-.25a16.07,16.07,0,0,1-4.65-1.68,11.59,11.59,0,0,1-2-1.4,11.18,11.18,0,0,1-1.85-2,7.48,7.48,0,0,1-1.11-2.44,6.09,6.09,0,0,1-.08-2.55,5.48,5.48,0,0,1,.87-2.21,4.27,4.27,0,0,1,.92-1,3.78,3.78,0,0,1,1.27-.71,6.85,6.85,0,0,1,1.84-.43,14.24,14.24,0,0,1-.74-1.71A9.67,9.67,0,0,1,168,77a8.2,8.2,0,0,1,.05-2.1,10.55,10.55,0,0,1,.56-2.33,6.58,6.58,0,0,1,1-1.78,6,6,0,0,1,1.49-1.31A5,5,0,0,1,173,68.8a2.71,2.71,0,0,1,.57,0A7.44,7.44,0,0,1,175,69Z" transform="translate(1 1)"/><path class="cls-7" d="M192.47,150.91Zm-4.66,3.67Zm-2.45-4.05v0Zm7.29-1.1Zm-6.5-2.26Zm3.33-1.62Zm2.33-1.22a4.6,4.6,0,0,0-.91-.09h-.09a5.7,5.7,0,0,0-.82,0,8.7,8.7,0,0,0-1.67.28,7.1,7.1,0,0,0-1.61.73,5.38,5.38,0,0,0-1.2,1,4.26,4.26,0,0,0-.86,1.35,3.88,3.88,0,0,0-.29,1.46,6.5,6.5,0,0,0,.77,3.07,7.3,7.3,0,0,0,.87,1.29,6.54,6.54,0,0,0,1.13,1.1A7.51,7.51,0,0,0,190,155.6h0l-.41-.15h0c-.32-.13-.65-.26-.95-.4a5.77,5.77,0,0,1-.87-.5,6,6,0,0,1-.86-.81,8.53,8.53,0,0,1-1.19-1.9,5.42,5.42,0,0,1-.41-1.41,6.52,6.52,0,0,1,0-1.53,4.42,4.42,0,0,1,.28-.94,4.35,4.35,0,0,1,.46-.74,4.72,4.72,0,0,1,.74-.67,6.13,6.13,0,0,1,1.21-.65,7.18,7.18,0,0,1,1.29-.33,10.29,10.29,0,0,1,2,0,4.79,4.79,0,0,1,.92.24,5.64,5.64,0,0,1,1,.53,7,7,0,0,1,.79.75,5.33,5.33,0,0,1,.54.88,5,5,0,0,1,.35,1.26,4.27,4.27,0,0,1,0,1,2.64,2.64,0,0,1-.14.48,1.78,1.78,0,0,1-.17.27l-.28.25a5.39,5.39,0,0,1-.52.3,6.88,6.88,0,0,1-1,.24,6.14,6.14,0,0,1-1.05,0,3.76,3.76,0,0,1-.73-.2,4.84,4.84,0,0,1-.86-.48,5.54,5.54,0,0,1-.8-.72,2.25,2.25,0,0,1-.28-.47,2.81,2.81,0,0,1-.18-.56V149l0-.19a1.88,1.88,0,0,1,.12-.18l.19-.16a1.72,1.72,0,0,1,.38-.2,4,4,0,0,1,.91-.22,2.91,2.91,0,0,1,.59,0,2.18,2.18,0,0,1,.44.11,2,2,0,0,1,.37.21,2.79,2.79,0,0,1,.4.37,3.94,3.94,0,0,1,.39.61,2.41,2.41,0,0,1,.2.68.48.48,0,0,1,0,.17h0a1,1,0,0,1-.08.29.62.62,0,0,1-.11.17h0a2.39,2.39,0,0,1-.23.22h0c-.23.14-.47.25-.7.38h0a2.65,2.65,0,0,0,1-.5,1.11,1.11,0,0,0,.31-.93,3,3,0,0,0-.37-1.12,2.38,2.38,0,0,0-.86-1,2.56,2.56,0,0,0-1.44-.34,3.81,3.81,0,0,0-1.49.3,1.67,1.67,0,0,0-.95.93,2.15,2.15,0,0,0,0,1.18,3.36,3.36,0,0,0,.68,1.36,5.78,5.78,0,0,0,1.07,1,4.1,4.1,0,0,0,1.42.7,4.89,4.89,0,0,0,1.48.11,4.16,4.16,0,0,0,3-1.22,3.46,3.46,0,0,0,.52-2.9,5.38,5.38,0,0,0-1.45-2.91,5.58,5.58,0,0,0-1.31-1,5.08,5.08,0,0,0-1.58-.58Z" transform="translate(1 1)"/><path class="cls-7" d="M183.78,152.76Zm2.42-12.16Zm-.69-1.32Zm3-1.82.08.06Zm-2.45-2.18h-.36a4.21,4.21,0,0,0-.62.05,3.45,3.45,0,0,0-.79.24,3.29,3.29,0,0,0-.69.38,3.64,3.64,0,0,0-.61.49,3.5,3.5,0,0,0-.86,1.38,2.6,2.6,0,0,0,.65,2.82,3.22,3.22,0,0,0,1.29.72,5.76,5.76,0,0,0,.81.15,3.59,3.59,0,0,0,.73.05,1.32,1.32,0,0,0,.63-.18.83.83,0,0,0,.32-.38,1.83,1.83,0,0,0,.09-1.24,1,1,0,0,0-.65-.58,1.11,1.11,0,0,0-1,.07c-.26.17-.19.57-.21.81h0a5.26,5.26,0,0,1,.15-.6h0v-.05l.1-.09h.05a.79.79,0,0,1,.22-.06h.19a1.92,1.92,0,0,1,.32.09l.24.14a.52.52,0,0,1,.11.1h0a.64.64,0,0,1,.1.13l.06.21v.26a2.69,2.69,0,0,1-.14.46c0,.08-.09.16-.14.24l-.1.08h-.08a.78.78,0,0,1-.21,0h-.29a5.38,5.38,0,0,1-1-.32,4.83,4.83,0,0,1-.59-.32,3,3,0,0,1-.32-.3,2.17,2.17,0,0,1-.43-.94,2.35,2.35,0,0,1,0-.53,6.36,6.36,0,0,1,.19-.62,3.92,3.92,0,0,1,.29-.53A3,3,0,0,1,184,137a3.29,3.29,0,0,1,.66-.37l.52-.15a5,5,0,0,1,.77,0,6.39,6.39,0,0,1,1.37.34,7.55,7.55,0,0,1,1.32.7,5.86,5.86,0,0,1,.69.62,3.14,3.14,0,0,1,.28.46,1.82,1.82,0,0,1,.11.38,2.35,2.35,0,0,1,0,.53,3.58,3.58,0,0,1-.18.64,1.88,1.88,0,0,1-.27.42,3.27,3.27,0,0,1-.55.5c-.32.22-.66.41-1,.6l-.86.47-1.07.6a10.11,10.11,0,0,0-1.13.7,8.07,8.07,0,0,0-.73.58,8.71,8.71,0,0,0-.75.86,9.32,9.32,0,0,0-.66,1A6.42,6.42,0,0,0,182,147a4,4,0,0,0-.16,1.46,7.59,7.59,0,0,0,.11,1.16,5.61,5.61,0,0,0,1.16,2.87,8,8,0,0,0,2.59,1.83h0a13.12,13.12,0,0,1-1.94-1.62,5.74,5.74,0,0,1-.58-.95,6.56,6.56,0,0,1-.45-1.49,11.71,11.71,0,0,1-.06-1.19V148a2.9,2.9,0,0,1,.24-.81,8.93,8.93,0,0,1,1-1.62,7.85,7.85,0,0,1,1-.94,27.25,27.25,0,0,1,2.75-1.51l.87-.45c.26-.13.52-.26.76-.41a5.18,5.18,0,0,0,.87-.6,3.29,3.29,0,0,0,.68-.81,3.54,3.54,0,0,0,.44-2,3.6,3.6,0,0,0-1.84-2.57,7.27,7.27,0,0,0-3.4-1.07Z" transform="translate(1 1)"/><path class="cls-7" d="M179.21,137.13Zm8.86-3.51Zm0,0Zm1.78-3.82a6,6,0,0,0-1-.09h-.44a8.41,8.41,0,0,0-1,.09,9.73,9.73,0,0,0-2.21.51,11,11,0,0,0-1.56.72l-.68.42a14.79,14.79,0,0,0-2,1.47,9,9,0,0,0-.82.81,9.43,9.43,0,0,0-1,1.32,12.48,12.48,0,0,0-1,2.43c-.12.36-.24.74-.35,1.1s-.23.76-.33,1.14a7.1,7.1,0,0,0-.19,3,13.06,13.06,0,0,0,.7,2.59h0l-.24-1.42a2.07,2.07,0,0,0-.06-.61,1.63,1.63,0,0,1,0-.54,9.44,9.44,0,0,1,.07-1.3,9.61,9.61,0,0,1,.67-2.09c.24-.61.48-1.22.74-1.83l0,.12c.08-.16.15-.33.22-.5h0v-.05a8.76,8.76,0,0,1,1-1.71,12.13,12.13,0,0,1,.87-.89c.16-.17.33-.32.5-.47a3,3,0,0,1,.39-.32,12.84,12.84,0,0,1,1.26-.81l.8-.47a10.93,10.93,0,0,1,1.45-.73,10.62,10.62,0,0,1,2-.53c.3,0,.6,0,.91-.06s.71,0,1.08,0a3.41,3.41,0,0,1,.53.13,4.63,4.63,0,0,1,.58.31,8.33,8.33,0,0,1,1.15,1.07,4.72,4.72,0,0,1,.41.68,3.83,3.83,0,0,1,.25.86.74.74,0,0,1,0,.21l-.05.18a1.37,1.37,0,0,1-.13.2,3.2,3.2,0,0,1-.27.25,4.73,4.73,0,0,1-.45.23,5.55,5.55,0,0,1-1,.22,2.41,2.41,0,0,1-1.33-.12,3.72,3.72,0,0,1-.48-.27,4.12,4.12,0,0,1-.37-.35,1.75,1.75,0,0,1-.18-.29,1.81,1.81,0,0,1-.09-.31,1,1,0,0,1,0-.24.7.7,0,0,1,.06-.19l0-.07a1.29,1.29,0,0,1,.17-.16l.26-.14a5.35,5.35,0,0,1,.69-.17h.48a1.93,1.93,0,0,1,.79.29h0a2.35,2.35,0,0,1,.33.3,2,2,0,0,1,.21.3,1.93,1.93,0,0,1,.11.34v.1a3.22,3.22,0,0,1-.11.5h0a4.69,4.69,0,0,0,.2-.6.63.63,0,0,0-.06-.38,1.72,1.72,0,0,0-.49-.73,2.15,2.15,0,0,0-1-.48,3.22,3.22,0,0,0-1,0,2,2,0,0,0-1,.39,1.25,1.25,0,0,0-.39.82,2.05,2.05,0,0,0,.78,1.67,3.43,3.43,0,0,0,2.18.81,4.4,4.4,0,0,0,2.41-.56,2.06,2.06,0,0,0,.86-1,1.38,1.38,0,0,0,.11-.63,1.44,1.44,0,0,0-.07-.54,4.25,4.25,0,0,0-1-2.09,7.24,7.24,0,0,0-1.16-1.12,4.09,4.09,0,0,0-.67-.4,3.61,3.61,0,0,0-.86-.28Z" transform="translate(1 1)"/><path class="cls-7" d="M178.45,146.19Zm2.47-1.62Zm-.87-1.17Zm0-.05Zm.63-.26Zm1-.93v0Zm-.52-1.21H181a4.53,4.53,0,0,0-1.41.23,2.88,2.88,0,0,0-1.32.89,3,3,0,0,0-.55,1.33,6.45,6.45,0,0,0,.08,1.7,9.6,9.6,0,0,0,.87,2.53h0c-.09-.46-.17-.92-.25-1.37a2,2,0,0,0-.06-.6,1.63,1.63,0,0,1,0-.54v-1.31a3.69,3.69,0,0,1,.18-.65,3.87,3.87,0,0,1,.34-.55,2.27,2.27,0,0,1,.28-.26,2.94,2.94,0,0,1,.46-.25,4.27,4.27,0,0,1,.86-.19h.62l.29.07.13.07a2.09,2.09,0,0,1,.22.2,4.78,4.78,0,0,1,.26.42,2.7,2.7,0,0,1,.17.6,1.5,1.5,0,0,1,0,.3.81.81,0,0,1-.09.29,1,1,0,0,1-.16.26l-.21.21-.33.17a2.25,2.25,0,0,1-.35.09h-.15a.56.56,0,0,1-.21-.06h.07a1.14,1.14,0,0,1-.23-.15s0,0,.06,0a1.7,1.7,0,0,1-.24-.22,2.07,2.07,0,0,1-.15-.25,2.52,2.52,0,0,1-.12-.39v-.21a.57.57,0,0,1,.08-.13h0l.07-.06h0a.56.56,0,0,1,.15-.1h0l.18-.05h.27a5.68,5.68,0,0,1,.55.28h0a1.68,1.68,0,0,0-.75-.47.8.8,0,0,0-.6.15.77.77,0,0,0-.27.81,1.7,1.7,0,0,0,.61,1.06,1.34,1.34,0,0,0,.8.26,2.38,2.38,0,0,0,.8-.17,2,2,0,0,0,.93-.75,1.76,1.76,0,0,0,.27-.7,2.29,2.29,0,0,0,0-.64,2.67,2.67,0,0,0-.53-1.29,1.87,1.87,0,0,0-1.4-.73Z" transform="translate(1 1)"/><path class="cls-7" d="M191.71,123.27Zm2,.11Zm.15-.15Zm0,0Zm.05-.15Zm-2.24-.12Zm1-3.64Zm3.06-.85a3.84,3.84,0,0,0-1.63-.36H194a9.28,9.28,0,0,0-1.67.18,7.78,7.78,0,0,0-3.12,1.38,5.75,5.75,0,0,0-1.07,1c-.14.15-.27.31-.4.47a6.14,6.14,0,0,0-.54.72,5.25,5.25,0,0,0-.62,1.34,5.2,5.2,0,0,0-.22,1.62,15.13,15.13,0,0,0,.13,1.62h0a11.36,11.36,0,0,1,.13-1.75,5.42,5.42,0,0,1,.39-1.36v.05a6.09,6.09,0,0,1,.71-1.17,9.08,9.08,0,0,1,.68-.71,9.79,9.79,0,0,1,1.08-1,7.43,7.43,0,0,1,1.49-.82,9.34,9.34,0,0,1,1.73-.44,7,7,0,0,1,1.58,0,3.16,3.16,0,0,1,.53.13,1.83,1.83,0,0,1,.34.18l.25.23c.07.11.14.22.2.33a4.17,4.17,0,0,1,.2.75,7.71,7.71,0,0,1,.06,1.52,4.26,4.26,0,0,1-.15.47,3.94,3.94,0,0,1-.35.55,4,4,0,0,1-1.56,1.13,6.21,6.21,0,0,1-1.07.27,4.7,4.7,0,0,1-.75,0,2.38,2.38,0,0,1-.38-.11,3.43,3.43,0,0,1-.49-.28,4.58,4.58,0,0,1-.46-.42,2.5,2.5,0,0,1-.25-.41,1.92,1.92,0,0,1-.15-.48,1.31,1.31,0,0,1,0-.28,1,1,0,0,1,.06-.23l.11-.16a2.73,2.73,0,0,1,.25-.23,2.34,2.34,0,0,1,.49-.27,7.06,7.06,0,0,1,.91-.21,3.42,3.42,0,0,1,.64,0,2.49,2.49,0,0,1,.37.09,1.49,1.49,0,0,1,.24.14,1.7,1.7,0,0,1,.24.22,2,2,0,0,1,.25.39,1.39,1.39,0,0,1,.1.33v.13s0,.1,0,.15l-.06.07-.11.11-.26.14a4.88,4.88,0,0,1-.66.16h-.26a1.59,1.59,0,0,1-.33-.08l-.29-.15-.17-.18h0a1.71,1.71,0,0,1-.11-.14V123c.08-.09.18-.17.27-.27h0l-.07.06h0c-.15.09-.35.2-.32.4a.92.92,0,0,0,.19.33.89.89,0,0,0,.26.25,1.67,1.67,0,0,0,.93.23,2.28,2.28,0,0,0,1-.23,1,1,0,0,0,.35-.3,1.12,1.12,0,0,0,.15-.42,1.77,1.77,0,0,0-.22-1,2,2,0,0,0-.8-.81,1.72,1.72,0,0,0-.59-.2,3.21,3.21,0,0,0-.69,0,3.74,3.74,0,0,0-2.35.69,2,2,0,0,0-.39.43,1.62,1.62,0,0,0-.25.59,1.32,1.32,0,0,0,0,.56,2.35,2.35,0,0,0,.1.58,3,3,0,0,0,.63,1.09,3.64,3.64,0,0,0,.45.43,3.6,3.6,0,0,0,.57.39,3,3,0,0,0,1.4.35,6.31,6.31,0,0,0,1.37-.14,5.32,5.32,0,0,0,2.82-1.62,2.87,2.87,0,0,0,.51-.74,2.91,2.91,0,0,0,.29-.76,5.5,5.5,0,0,0,0-1.62,4.53,4.53,0,0,0-.49-1.67,2.51,2.51,0,0,0-.45-.58,2.64,2.64,0,0,0-.64-.45Z" transform="translate(1 1)"/><path class="cls-7" d="M187.9,68.11v0ZM190.49,67a1.59,1.59,0,0,1,.33.09l.1,0,.22.22h0a3,3,0,0,1-.43.12h-.19l-.22,0-.23-.12,0,0h0a.41.41,0,0,1-.07-.11h0l.1,0a1,1,0,0,1,.25-.06h.15Zm0-2.27a8.39,8.39,0,0,0-1-.06h-.59a3.7,3.7,0,0,0-.87.11,1.74,1.74,0,0,0-1.09.67,1.28,1.28,0,0,0-.17,1,2.35,2.35,0,0,0,.09.6,3.84,3.84,0,0,0,.64,1.55,5.65,5.65,0,0,0,1.22,1.17,6,6,0,0,0,2,.81h0a13.43,13.43,0,0,1-1.33-.76,7.15,7.15,0,0,1-.87-.87,5.25,5.25,0,0,1-.51-.81,4.84,4.84,0,0,1-.27-1,5.46,5.46,0,0,1,0-1v-.06l.06-.08h.05a2.2,2.2,0,0,1,.26-.15l.44-.1h.76a9.37,9.37,0,0,1,1.06,0,3,3,0,0,1,.45.12,1.56,1.56,0,0,1,.65.48l.17.25a1,1,0,0,0,.07.25v.09a1.21,1.21,0,0,1,0,.18l-.07.09a.65.65,0,0,1-.17.16l-.12.07a1.21,1.21,0,0,0-.29-.35.78.78,0,0,0-.33-.16,1.11,1.11,0,0,0-.8.09.39.39,0,0,0,0,.57.08.08,0,0,1,0,0,1.47,1.47,0,0,0,.87.45,2.29,2.29,0,0,0,.86-.11,1.13,1.13,0,0,0,.54-.31,1.43,1.43,0,0,0,.32-.49,1.32,1.32,0,0,0,0-.56,1.57,1.57,0,0,0-.23-.61,1.9,1.9,0,0,0-.4-.53,3.27,3.27,0,0,0-.58-.39,2.82,2.82,0,0,0-.69-.24Z" transform="translate(1 1)"/><path class="cls-7" d="M186.83,67.23Zm5-5.09Zm-.17-.28Zm.32-.81-.06.05Zm1.73-.65a3.59,3.59,0,0,0-.87-.13,2.57,2.57,0,0,0-.68.06,1.25,1.25,0,0,0-.86.81,1.21,1.21,0,0,0,.16,1.16,1.92,1.92,0,0,0,1.12.59H193a.76.76,0,0,0,.3,0,.27.27,0,0,0,.12-.09.31.31,0,0,0,.05-.25v-.09a2.73,2.73,0,0,0-.25-.23h0l.14.16.06.09a.43.43,0,0,1,0,.16l0,.06h-.19l-.63-.18a2.42,2.42,0,0,1-.5-.27h0a1,1,0,0,1-.18-.17,1.14,1.14,0,0,1-.15-.23v-.09a1,1,0,0,1,0-.24,1.51,1.51,0,0,1,.1-.3.37.37,0,0,1,.07-.12L192,61a.68.68,0,0,1,.24-.12h.56a5.61,5.61,0,0,1,.59.13,1.33,1.33,0,0,1,.59.42,2.14,2.14,0,0,1,.2.32,1.29,1.29,0,0,1,.08.28,2.94,2.94,0,0,1,0,.42,1.8,1.8,0,0,1-.1.4l-.08.13-.15.14-.22.12-.2,0a9.26,9.26,0,0,1-1.29,0H190a6.18,6.18,0,0,0-2.17.4,2.9,2.9,0,0,0-1.08.71,2.23,2.23,0,0,0-.52,1.08,3.16,3.16,0,0,0,0,1,3.55,3.55,0,0,0,.45,1.62,3.12,3.12,0,0,0,.81.89,11.05,11.05,0,0,0,1.09.68h0a12.43,12.43,0,0,1-1.07-1,3.34,3.34,0,0,1-.4-.65,2.81,2.81,0,0,1-.21-.68,6.28,6.28,0,0,1,0-1.37,2.14,2.14,0,0,1,.13-.48,1.85,1.85,0,0,1,.21-.33,1.49,1.49,0,0,1,.67-.47,5.21,5.21,0,0,1,1.17-.26h1.66c.39,0,.86,0,1.23.07s.86,0,1.25,0a2.86,2.86,0,0,0,.82-.12,2.27,2.27,0,0,0,.61-.34,2,2,0,0,0,.44-.54,1.92,1.92,0,0,0,.19-.66,2,2,0,0,0,0-.9,1.85,1.85,0,0,0-.33-.71,3.2,3.2,0,0,0-.52-.52,2.37,2.37,0,0,0-.66-.32Z" transform="translate(1 1)"/><path class="cls-7" d="M188,62.17Zm-.23,0Zm1.15-2.57a3.26,3.26,0,0,0-.62-.06h-.5a2.72,2.72,0,0,0-2,1.06,3.69,3.69,0,0,0-.59,2.41,7.42,7.42,0,0,0,.14,1c.11.39.25.81.39,1.18h0a12.45,12.45,0,0,1-.12-1.27,3.68,3.68,0,0,1,0-.47,3.64,3.64,0,0,1,.06-.81,3.45,3.45,0,0,1,.27-.88,3.55,3.55,0,0,1,.45-.75,3,3,0,0,1,.32-.3,2,2,0,0,1,.36-.19,3.08,3.08,0,0,1,.68-.17,4.12,4.12,0,0,1,.86,0,1.11,1.11,0,0,1,.26.07,1.15,1.15,0,0,1,.25.12,1.37,1.37,0,0,1,.16.18.66.66,0,0,1,.12.17,2.4,2.4,0,0,1,.12.38v.1a1.11,1.11,0,0,1-.07.26,1.49,1.49,0,0,1-.15.2h0l.05,0-.09.08L189,62a4.16,4.16,0,0,1-.63.17H188l-.21-.05a.36.36,0,0,1-.14-.1h0l-.07-.08-.06-.1h0a.4.4,0,0,1-.07-.24h0l0-.09.09-.07a1.36,1.36,0,0,1,.21-.1h0a1.1,1.1,0,0,0-.26.06.48.48,0,0,0-.27.21.54.54,0,0,0-.06.35.8.8,0,0,0,.18.4.91.91,0,0,0,.41.25,1.88,1.88,0,0,0,.53.07,2.79,2.79,0,0,0,1.15-.24A1.23,1.23,0,0,0,190,62a1.41,1.41,0,0,0,.21-.56,1.83,1.83,0,0,0-.36-1.17,1.76,1.76,0,0,0-1-.61Z" transform="translate(1 1)"/><path class="cls-7" d="M193.08,57.06v0ZM190.87,57Zm0-.38Zm.86-.07Zm.47-2.14h-.55l-.46,0a3.32,3.32,0,0,0-1.08.29,2.82,2.82,0,0,0-.78.59,2.33,2.33,0,0,0-.52.9,8.19,8.19,0,0,0-.28,1.11h0a6.89,6.89,0,0,1,.77-1.41,2.34,2.34,0,0,1,.4-.37,3.39,3.39,0,0,1,.56-.32,2.07,2.07,0,0,1,.49-.12,5,5,0,0,1,1.09,0,1.18,1.18,0,0,1,.31.08l.14.07a1.79,1.79,0,0,1,.27.28,2.5,2.5,0,0,1,.35.56,3.58,3.58,0,0,1,.18.64,1.93,1.93,0,0,1,0,.34v.1a.22.22,0,0,1-.05.08l-.15.15-.22.11a2.4,2.4,0,0,1-.53.12H192a1.5,1.5,0,0,1-.29-.06,2.22,2.22,0,0,1-.39-.23,2.83,2.83,0,0,1-.37-.32,2.43,2.43,0,0,0-.14-.2c0-.08,0,0,0-.06h0l.13-.08.37-.09a2.26,2.26,0,0,1,.52,0l.3,0h.1c.11.1.2.2.3.31h0a1.73,1.73,0,0,0-.24-.38,1.06,1.06,0,0,0-.35-.18,2.18,2.18,0,0,0-1-.13c-.29,0-.55.15-.61.44a.62.62,0,0,0,.12.41,1.85,1.85,0,0,0,.23.34,2.42,2.42,0,0,0,.87.67,1.86,1.86,0,0,0,1,.11,2.24,2.24,0,0,0,.58-.14A1.27,1.27,0,0,0,194,57a2.77,2.77,0,0,0-.74-2,1.73,1.73,0,0,0-1-.58Z" transform="translate(1 1)"/><path d="M225.48,169.12Zm.75.1Zm-18.65-1.16h.57l2.8.13h1c.26,0,.51,0,.76.06l2.6.21,2.59.24,2.18.22c.76.08,1.52.14,2.28.2l2.07.14,1.16.07h-2.78c-1.57,0-3.13,0-4.69-.05s-3.14,0-4.71-.05h-9.29l-4.67-.16c-1.56-.07-3.14-.15-4.72-.16l-4.79-.06c-1.63,0-3.26,0-4.89-.06s-3.34-.06-5-.1h0l.86-.05c1.45-.1,2.91-.18,4.33-.26l2.44-.11,1.8-.08,2.86-.09h2.23c1.63,0,3.26,0,4.89,0h8.13Zm-3.84-1.16H194c-1.65,0-3.3,0-4.95.06l-1.92.06-2.09.06-4.62.19-5.08.25-4.68.26c-.29,0-.58.05-.86.07l-1.49.13a7.78,7.78,0,0,0-1.08.14l-.76.1a4.55,4.55,0,0,0-.82.15.7.7,0,0,0-.53.87.76.76,0,0,0,.74.52h.26c.2,0,.4,0,.6,0h9.09c.76,0,1.53,0,2.29.06l4.69.11c1.42,0,2.84.07,4.27.1s3,0,4.49.06,3.1,0,4.64.12l4.71.24,3.15.14c.52,0,1,0,1.57,0,1.57,0,3.12.07,4.69.07s3.08,0,4.62-.05,3-.06,4.58-.15,3.07-.14,4.59-.28c2.22-.2,4.45-.42,6.67-.68H228l-1.73-.17h0l-.74-.09h0c-1.2-.15-2.4-.31-3.61-.49-1.44-.21-2.88-.45-4.32-.66-.75-.11-1.49-.23-2.23-.32l-3-.37c-.62-.08-1.24-.11-1.86-.15l-1.65-.12c-.25,0-.49,0-.74,0-1.45,0-2.91-.07-4.32-.07Z" transform="translate(1 1)"/></g></g></svg>