<svg id="Layer_1" data-name="Layer 1" xmlns="http://www.w3.org/2000/svg" viewBox="0 0 110.23 231.77"><defs><style>.cls-1{fill:#3c5412;}.cls-2{fill:#676767;}.cls-3{fill:#047391;}.cls-4{fill:#fff;opacity:0.45;}.cls-4,.cls-5{isolation:isolate;}.cls-5{opacity:0.4;}.cls-6{opacity:0.74;}</style></defs><g id="Layer_3" data-name="Layer 3"><path class="cls-1" d="M86.93,208.1h1.36a3.65,3.65,0,0,0,2.74-.89,2.23,2.23,0,0,0,.57-2.11,12.09,12.09,0,0,0,1.28-.44,9.78,9.78,0,0,0,3.18-1.78,2.18,2.18,0,0,0,.57-1,.85.85,0,0,1,.07-.4l.45-.09a2.24,2.24,0,0,0,1.54-1.53,2.32,2.32,0,0,0,0-1.17,2.1,2.1,0,0,0-1-1.31,6.73,6.73,0,0,0-.73-.32c-.4-.07-.81-.12-1.22-.15H75.15L74,196.75l-.58.08a1.66,1.66,0,0,0-.81.27,2.41,2.41,0,0,0-.83.85,1.35,1.35,0,0,0-.15.26q-.68,0-1.35-.06a3.13,3.13,0,0,0-1.1.06,2.19,2.19,0,0,0-1.28,4l.19.1c.1.14.2.27.31.4a11.2,11.2,0,0,0,3.75,2.64,16.67,16.67,0,0,0,1.82.7l1.64.52c.83.25,1.66.47,2.5.68.53.15,1.07.29,1.61.4a14.86,14.86,0,0,0,2.48.3c.73.06,1.45.1,2.18.12s1.26,0,1.89,0Z" transform="translate(-26.5 -0.04)"/><path class="cls-2" d="M70.41,201.34Zm9.11,7.15a25.78,25.78,0,0,0,2.78-.18,20.37,20.37,0,0,0,3-.58,23.55,23.55,0,0,0,3.08-1c.55-.22,1.09-.47,1.63-.73l.54-.1a1.4,1.4,0,0,0,.57-.32l.45-.16,1.26-.46A23.53,23.53,0,0,0,95,204c.62-.31,1.23-.65,1.83-1,.3-.18.58-.39.87-.59.62-.46,1.35-1.08,1.25-1.94a1.81,1.81,0,0,0-.24-.82l-.08-.1a1.44,1.44,0,0,0-.49-.49,3.29,3.29,0,0,0-1.25-.48,12.77,12.77,0,0,0-2.47-.25c-1.65,0-3.29-.09-4.93-.1H85.4c-1.19,0-2.39,0-3.58.06l-4.11.16c-1.2,0-2.4.08-3.59.09H71a5.18,5.18,0,0,0-1.36.11,1.38,1.38,0,0,0-.81.63,1.37,1.37,0,1,0-2.28,1.51l.26.52a3.09,3.09,0,0,0,.4.55c.11.14.23.26.34.39l.69.79.33.36a.2.2,0,0,1-.05.13,1.38,1.38,0,0,0,1,1.67l1,.26a1.42,1.42,0,0,0,1,1.13,2.72,2.72,0,0,0,.85.11,14.71,14.71,0,0,0,2.75,1.3,9.66,9.66,0,0,0,3.06.54h1.37Z" transform="translate(-26.5 -0.04)"/><path class="cls-3" d="M106.76,231.79H104c-10.24,0-20.44-.94-30.66-1.51-4.46-.25-8.92-.36-13.39-.41v-.13a17.27,17.27,0,0,1,.15-1.74,16.13,16.13,0,0,1,.76-3.37,21.28,21.28,0,0,1,.86-2.17,11.84,11.84,0,0,1,1-1.77,19.51,19.51,0,0,1,1.47-1.92c.5-.53.89-.94,1.28-1.32a14.45,14.45,0,0,1,1.34-1.12h0a19.6,19.6,0,0,1,2.88-1.81,17.73,17.73,0,0,1,8-1.86h6.93c.83,0,1.87,0,2.84.09s1.9.21,2.82.34h.1l.74.1c.83.12,1.81.26,2.81.46a23.43,23.43,0,0,1,2.61.72,14.46,14.46,0,0,1,1.57.66l.17.09a7.46,7.46,0,0,1,1.11.61,25.27,25.27,0,0,1,2.6,2l.34.29.11.09c.26.22.52.44.77.67a11.71,11.71,0,0,1,2.27,2.64,10.06,10.06,0,0,1,1,2.05,10.5,10.5,0,0,1,.44,2,18,18,0,0,1,.11,2.2c0,1.23-.09,2.39-.19,3.54A3.52,3.52,0,0,1,106.76,231.79Z" transform="translate(-26.5 -0.04)"/><path class="cls-4" d="M106.83,228.1v-1.73a12.89,12.89,0,0,0-.19-1.86,11.77,11.77,0,0,0-1-3c-.25-.54-.55-1-.84-1.54-.18-.3-.38-.58-.56-.86a11.92,11.92,0,0,0-1.72-2.16c-.4-.38-.86-.72-1.29-1.07a15.36,15.36,0,0,0-2.42-1.64c-.58-.29-1.19-.52-1.8-.77-.33-.14-.67-.25-1-.37-.69-.23-1.4-.41-2.11-.59s-1.29-.34-2-.48c-.44-.1-.9-.19-1.35-.27-.67-.19-1.33-.35-2-.48s-1.39-.26-2.1-.37c-.52-.08-1-.12-1.58-.18h-.53a6.94,6.94,0,0,0-1.11.1l-.5.21a2.21,2.21,0,0,0-.74.75,2.1,2.1,0,0,0-.21,1.59,2.07,2.07,0,0,0,.7,1.06,1.59,1.59,0,0,0,.65,2,11.38,11.38,0,0,0,1.24.67,1.66,1.66,0,0,0-.67,1.33,1.58,1.58,0,0,0,.22.82,1.61,1.61,0,0,0,.38.44,1.67,1.67,0,0,0-.18.28,1.5,1.5,0,0,0,0,1.53,1.55,1.55,0,0,0,.54.54h0c.17.08.34.16.51.22l.5.07a8.73,8.73,0,0,1,1,.28l.34.12a1.62,1.62,0,0,0-.43.31,1.6,1.6,0,0,0-.48,1.15v.16a1.54,1.54,0,0,0-.92,1.41,1.45,1.45,0,0,0,.21.76h0a1.45,1.45,0,0,0-1.07,1.15h-.64a1.29,1.29,0,0,0-.34,2.54h0l.41.1h-.16a2.61,2.61,0,0,0-.86.27l-.35.27c7.21.46,14.42.92,21.64.95h2.44A23.13,23.13,0,0,0,106.83,228.1Zm-3.74-1.85h-.15l-.18-.12-.19-.1.5-.07A2.83,2.83,0,0,1,103.09,226.25Z" transform="translate(-26.5 -0.04)"/><path class="cls-4" d="M86.88,205l.76-.4h0l.34-.14.54-.18c-.21.1-.41.2-.63.29l-1,.39Zm-2.75,1.37.32-.12a14.48,14.48,0,0,0,3.53-.46,16.07,16.07,0,0,0,2.6-.92c.67-.29,1.34-.58,2-.92a18.48,18.48,0,0,0,3.2-2.36c.63-.53,1.24-1.08,1.87-1.6l.19-.14a2.22,2.22,0,0,0,.52-.54,1.11,1.11,0,0,0,.12-1v-.06a1.73,1.73,0,0,0-1.19-2.11,11.65,11.65,0,0,0-1.64-.34l-.72-.08c-.51-.05-1-.14-1.53-.15-1,0-2-.07-3.06,0s-2.39,0-3.58.11c-.51,0-1,.07-1.52.12l-.58,0h-.43a2.37,2.37,0,0,0-.88.11,1.78,1.78,0,0,0-.74.43,1.7,1.7,0,0,0-.5,1.2,1.52,1.52,0,0,0,.06.42c-.5.09-1,.2-1.49.32a1.53,1.53,0,0,0,.42,3c.17,0,.44.06.59,0h.44l1-.07a1.42,1.42,0,0,0,.64.64L84,202a1.67,1.67,0,0,0-1,2,1.5,1.5,0,0,0,.18.41l-.39.24a1,1,0,0,0-.45,1.11v.08l-1.36.05h0c.51.08,1,.16,1.53.22a1,1,0,0,0,.75.36h.2a2.11,2.11,0,0,0,.61-.1Z" transform="translate(-26.5 -0.04)"/><path d="M108.72,231.74h-2.49c.09-.9.13-1.81.13-2.72a23.82,23.82,0,0,0-.1-2.8,10.12,10.12,0,0,0-.57-2,17.7,17.7,0,0,0-1.9-3.15,22.82,22.82,0,0,0-3.71-3.64,17.56,17.56,0,0,0-2-1.3c-.65-.37-1.33-.7-2-1A26.82,26.82,0,0,0,92.8,214c-1-.25-2.07-.45-3.12-.61-1.57-.18-3.15-.36-4.74-.4a48.12,48.12,0,0,0-7,.1c-.86.12-1.71.3-2.57.48a23,23,0,0,0-3.64,1.06A21.7,21.7,0,0,0,68,217a16.35,16.35,0,0,0-2.43,2.42A25.15,25.15,0,0,0,62.75,224a18,18,0,0,0-1,3.74c-.08.68-.15,1.37-.19,2.07H58.83a22.55,22.55,0,0,1,.21-3.18,15.44,15.44,0,0,1,1-3.77,18.19,18.19,0,0,1,1.44-2.94,16,16,0,0,1,6.16-6.31A18.81,18.81,0,0,1,71,211.92,34.9,34.9,0,0,1,76,210.67a39,39,0,0,1,8.22-.44c1,0,1.9.07,2.85.12s1.84.16,2.76.25a26.26,26.26,0,0,1,6.83,1.56,20.42,20.42,0,0,1,3.63,1.72,22,22,0,0,1,5.7,5.05,17.12,17.12,0,0,1,1.91,3,12.16,12.16,0,0,1,1.22,3.86,18.25,18.25,0,0,1,0,3.62C108.93,230.17,108.85,231,108.72,231.74Z" transform="translate(-26.5 -0.04)"/><path d="M81,209.66a8.72,8.72,0,0,0,1.25-.06l1.52-.14c.6-.06,1.2-.19,1.79-.29.37-.06.74-.15,1.1-.23s.88-.2,1.31-.34l1.42-.44a15.52,15.52,0,0,0,1.59-.64,13.07,13.07,0,0,0,2-1.05,22.22,22.22,0,0,0,3.43-3c.32-.33.66-.65,1-1s.68-.7,1-1.07c.64-.76,1.26-1.53,1.86-2.32l1.31-1.76h0l-1.48,1.42a14.22,14.22,0,0,1-1.08,1l-1.2,1.06c-.35.32-.74.6-1.1.89a27.32,27.32,0,0,1-5.35,3.55,14.14,14.14,0,0,1-2.46.8l-1.3.29c-.67.15-1.34.24-2,.35l-1.57.15c-.56,0-1.13,0-1.68.06a11.2,11.2,0,0,1-1.42,0,23.2,23.2,0,0,1-2.63-.16,17.17,17.17,0,0,1-3.65-1,13.89,13.89,0,0,1-2.73-1.61,29.75,29.75,0,0,1-4.39-4.3l-.18-.26c.67-.18,1.36-.31,2-.44.89-.17,1.78-.31,2.67-.44s1.61-.19,2.42-.26c1-.08,2.07-.16,3.1-.22,1.84-.13,3.68-.24,5.52-.34l11.49-.61,2.24-.14c.82,0,1.66-.15,2.48-.15a5,5,0,0,1,.76.21h0a2.65,2.65,0,0,0-.93-.36h-.68L97,196.72l-2.78-.17-5.53-.32c-3.83-.21-7.66-.45-11.49-.64-1.82-.09-3.66-.19-5.48-.12-1,0-2.1.09-3.15.18l-1.26.14a10.74,10.74,0,0,0-2.8.58,3.22,3.22,0,0,0-1.07.63,2.16,2.16,0,0,0-.68,1,2.25,2.25,0,0,0,0,1.26,2.44,2.44,0,0,0,.57,1c.25.3.55.57.82.86.6.63,1.19,1.27,1.79,1.89s1.37,1.32,2.07,2c.33.3.69.59,1,.88a18,18,0,0,0,2.9,2,15.11,15.11,0,0,0,3.43,1.29,17.39,17.39,0,0,0,3.93.54H81Z" transform="translate(-26.5 -0.04)"/><path d="M84.93,211.77h1c.94-.06,1.88-.12,2.82-.26a1.26,1.26,0,0,0,.6-.35l.22-.28a1.41,1.41,0,0,0,.19-.7v-.27a4.13,4.13,0,0,0-.07-.49,1.8,1.8,0,0,0-.82-1,4.72,4.72,0,0,0-1.25-.52,9.27,9.27,0,0,0-1.65-.33c-.57-.07-1.13-.13-1.7-.16H82.15l-1.54.08a5.56,5.56,0,0,0-.91,0l-1.34.17c-.42.06-.84.11-1.26.19l-.93.16h-.43a3,3,0,0,0-.42.06,1.27,1.27,0,0,0-.88,1.58,1.26,1.26,0,0,0,.57.75,4,4,0,0,0,.8.41,7.91,7.91,0,0,0,.81.19q.93.15,1.86.21h.61c.74.15,1.5.25,2.26.33,1,.09,1.91.13,2.87.16H85Z" transform="translate(-26.5 -0.04)"/><path d="M86.61,208.59a18.5,18.5,0,0,0,3.45-.77,21.66,21.66,0,0,0,4-1.63A19.9,19.9,0,0,0,95.92,205a21.05,21.05,0,0,0,2-1.52c.8-.7,1.52-1.48,2.3-2.18a22.78,22.78,0,0,0,1.64-1.62,4.32,4.32,0,0,0,.54-.66,2.59,2.59,0,0,0,.26-1.06,1.88,1.88,0,0,0-.53-1.31,2.72,2.72,0,0,0-1.51-.8,8.08,8.08,0,0,0-1.55-.17c-1.75-.07-3.51,0-5.26,0s-3.54.16-5.3.21l-5.46.14c-1.82.05-3.71,0-5.57.06H75.55c-1.35,0-2.7,0-4,.06h0l3.37.41,2.54.31c1.8.22,3.61.45,5.41.65l5.09.53c1.79.18,3.58.33,5.38.52,1.59.17,3.18.35,4.77.55h.2A24.65,24.65,0,0,1,95,202.46a27.86,27.86,0,0,1-2.63,1.81,25,25,0,0,1-2.9,1.41,17.71,17.71,0,0,1-3.83,1.19c-1.1.14-2.22.16-3.33.23l-2.45.14c-1.81.1-3.61.06-5.42,0h0a41.49,41.49,0,0,0,5.52,1c.86.08,1.73.14,2.6.2s1.9.14,2.85.14h1.25Z" transform="translate(-26.5 -0.04)"/><path class="cls-5" d="M77.9,218.25Zm-5.38-4.56Zm-2.83,5v0ZM78.11,220Zm-7.54,2.76Zm3.85,2Zm2.69,1.51a5.67,5.67,0,0,0,1.83-.71,6.1,6.1,0,0,0,1.58-1.24,6.73,6.73,0,0,0,1.68-3.59,4.5,4.5,0,0,0-.68-3.51,4.61,4.61,0,0,0-3.43-1.51,5.2,5.2,0,0,0-1.71.14,4.84,4.84,0,0,0-1.64.85,7.76,7.76,0,0,0-1.24,1.19,4.34,4.34,0,0,0-.81,1.62,2.82,2.82,0,0,0,0,1.47,2,2,0,0,0,1.1,1.15,4.25,4.25,0,0,0,1.72.37,3,3,0,0,0,1.66-.43,2.91,2.91,0,0,0,1-1.17,3.75,3.75,0,0,0,.42-1.38,1.42,1.42,0,0,0-.36-1.15,3,3,0,0,0-1.2-.61h0c.27.16.55.29.81.47h0a1.79,1.79,0,0,1,.27.28h0a.82.82,0,0,1,.12.2,1.61,1.61,0,0,1,.1.36h0v.22a3.41,3.41,0,0,1-.23.83,4.52,4.52,0,0,1-.46.76,3.92,3.92,0,0,1-.46.45,2.34,2.34,0,0,1-.43.26,2.85,2.85,0,0,1-.5.14,3.86,3.86,0,0,1-.68,0,4.85,4.85,0,0,1-1.06-.27,3.83,3.83,0,0,1-.44-.25,1.45,1.45,0,0,1-.22-.21,2.39,2.39,0,0,1-.13-.21l-.06-.23v-.38a3.22,3.22,0,0,1,.2-.69,3.33,3.33,0,0,1,.33-.58,6.38,6.38,0,0,1,.92-.88,5.69,5.69,0,0,1,1-.61,4.74,4.74,0,0,1,.84-.23,6.22,6.22,0,0,1,1.22,0,5.91,5.91,0,0,1,1.17.3,4.48,4.48,0,0,1,.6.35,3.34,3.34,0,0,1,.33.32,1.35,1.35,0,0,1,.19.33,3,3,0,0,1,.17.6,6.53,6.53,0,0,1,0,1.25,6.87,6.87,0,0,1-.41,1.54A6.43,6.43,0,0,1,79.6,223a5,5,0,0,1-2.07,1.6,5.54,5.54,0,0,1-1.06.29,10.13,10.13,0,0,1-2.2-.07,6.5,6.5,0,0,1-1.5-.39,7.37,7.37,0,0,1-1.39-.8A4.29,4.29,0,0,1,70,221.88a6,6,0,0,1-.33-1.17,8.53,8.53,0,0,1,0-1.89,7.49,7.49,0,0,1,.48-1.74,11.2,11.2,0,0,1,1.37-2.34,6.75,6.75,0,0,1,1-1,6.36,6.36,0,0,1,1-.61,10.83,10.83,0,0,1,1.1-.49h0l.47-.19h0a8.36,8.36,0,0,0-3.29,1.32,7.73,7.73,0,0,0-1.31,1.37,10.11,10.11,0,0,0-1,1.59,8.45,8.45,0,0,0-.89,3.79,5.56,5.56,0,0,0,.33,1.8,5.46,5.46,0,0,0,1,1.67,6.53,6.53,0,0,0,1.38,1.19,7.68,7.68,0,0,0,1.87.9,9.08,9.08,0,0,0,1.93.34,6.05,6.05,0,0,1,1,.05h.1a7.46,7.46,0,0,0,1-.1Z" transform="translate(-26.5 -0.04)"/><path class="cls-5" d="M69.13,229.82a4.06,4.06,0,0,1,.85-.06,1.56,1.56,0,0,1,.73.22,1.34,1.34,0,0,1,.2.21c-1-.05-1.91-.09-2.87-.12a.44.44,0,0,1,.16-.06A4.79,4.79,0,0,1,69.13,229.82Z" transform="translate(-26.5 -0.04)"/><path class="cls-5" d="M73.52,230.31c-.36-.26-.75-.48-1.12-.72l-1-.59-1.23-.72c-.45-.27-.89-.56-1.31-.87s-.58-.46-.84-.72a8.13,8.13,0,0,1-.87-1.07,10.1,10.1,0,0,1-.77-1.26,6.73,6.73,0,0,1-.62-1.43,5.19,5.19,0,0,1-.18-1.8,9.72,9.72,0,0,1,.12-1.42A7.18,7.18,0,0,1,67,216.16a9.47,9.47,0,0,1,3-2.25h0a13.3,13.3,0,0,0-2.24,2,6,6,0,0,0-.68,1.17,8.29,8.29,0,0,0-.51,1.83,12.22,12.22,0,0,0-.07,1.48v1.3a4.35,4.35,0,0,0,.27,1,11.65,11.65,0,0,0,1.2,2,9.6,9.6,0,0,0,1.13,1.17,29.59,29.59,0,0,0,3.18,1.85l1,.56c.3.17.6.33.88.51a6.63,6.63,0,0,1,1,.74,3.93,3.93,0,0,1,.77,1Z" transform="translate(-26.5 -0.04)"/><path class="cls-5" d="M67.86,215.94Z" transform="translate(-26.5 -0.04)"/><path class="cls-5" d="M60.69,227.65v.65a12.25,12.25,0,0,0,.08,1.6h-.62a13.3,13.3,0,0,1,.09-1.55,16.15,16.15,0,0,1,.81-3.2h0c-.1.58-.19,1.17-.28,1.75C60.74,227.14,60.72,227.39,60.69,227.65Z" transform="translate(-26.5 -0.04)"/><path class="cls-5" d="M66.52,229.65a2.17,2.17,0,0,1-.32.36l-3.75-.08a2.51,2.51,0,0,1-.85-.77,3.85,3.85,0,0,1-.64-1.63,8.21,8.21,0,0,1,.1-2.1,12.84,12.84,0,0,1,1-3.13h0c-.1.56-.19,1.13-.29,1.7a2.69,2.69,0,0,1-.07.74,2,2,0,0,0,0,.65V227a5.41,5.41,0,0,0,.21.79,5.9,5.9,0,0,0,.4.69c.1.11.21.22.32.32a2.78,2.78,0,0,0,.53.3,4.29,4.29,0,0,0,1,.24,4.21,4.21,0,0,0,.71,0,1.91,1.91,0,0,0,.34-.1l.15-.08a1.88,1.88,0,0,0,.25-.24,5.54,5.54,0,0,0,.3-.53,3.76,3.76,0,0,0,.2-.73,2.29,2.29,0,0,0,0-.37,1.53,1.53,0,0,0-.29-.68l-.24-.25-.39-.22a2.62,2.62,0,0,0-.4-.11h-.27l-.18.06a1.37,1.37,0,0,0-.2.13,3.19,3.19,0,0,0-.26.26c-.06.11-.12.2-.17.31a2.75,2.75,0,0,0-.14.49v.26l.08.12.05,0,.15.11h.5a4.77,4.77,0,0,0,.63-.34h0a1.9,1.9,0,0,1-.86.59.92.92,0,0,1-.7-.18,1,1,0,0,1-.31-1.06,2.06,2.06,0,0,1,.71-1.3,1.41,1.41,0,0,1,.92-.32,2.47,2.47,0,0,1,.93.21,2.32,2.32,0,0,1,1.07.91,2.45,2.45,0,0,1,.31.87,2.68,2.68,0,0,1,0,.8A3.38,3.38,0,0,1,66.52,229.65Z" transform="translate(-26.5 -0.04)"/><path class="cls-5" d="M61.7,224Z" transform="translate(-26.5 -0.04)"/><path class="cls-5" d="M64.52,226.07Z" transform="translate(-26.5 -0.04)"/><path class="cls-5" d="M63.58,227.51Z" transform="translate(-26.5 -0.04)"/><path class="cls-5" d="M63.6,227.57Z" transform="translate(-26.5 -0.04)"/><polygon class="cls-5" points="37.88 227.86 37.89 227.85 37.88 227.86 37.88 227.86"/><path class="cls-5" d="M64.32,227.92Z" transform="translate(-26.5 -0.04)"/><path d="M116.06,195.75Zm-20.69,1.3H85.89c-1.88,0-3.77,0-5.65-.06H77.66c-1.1-.05-2.21-.08-3.31-.12l-2.07-.09c-.94-.05-1.89-.09-2.83-.15-1.68-.1-3.36-.19-5-.31l-1-.07h0l5.8-.13c1.88,0,3.77-.05,5.65-.06l5.54-.07c1.82,0,3.64-.13,5.45-.2l5.4-.21h10.78l5.44-.06c1.8,0,3.61,0,5.42-.06h3.22l-1.34.08-2.4.17-2.63.25-2.52.27-3,.3c-1,.1-2,.17-3,.26l-.88.08H99.22L96,197h-.66Zm-4.44,1.44c1.68,0,3.36,0,5-.08a4,4,0,0,0,.85-.06l1.91-.14c.72-.05,1.43-.1,2.15-.19l3.44-.46c.86-.11,1.72-.26,2.58-.39,1.68-.26,3.34-.56,5-.82l4.17-.61h0l.85-.12h0l2-.22h3.3c-2.57-.31-5.14-.58-7.71-.83-1.76-.17-3.53-.25-5.31-.35s-3.52-.14-5.29-.18-3.56-.06-5.34-.06-3.61,0-5.42.08c-.6,0-1.21,0-1.82.05l-3.64.18-5.44.29c-1.78.1-3.58.11-5.37.15s-3.46.05-5.19.08l-4.93.11c-1.81.05-3.61.11-5.42.15-.88,0-1.77.06-2.65.06H48.14l-.69,0h-.3a.86.86,0,0,0-.24,1.7c.31.07.62.15.94.2l.88.12c.41.06.83.13,1.25.17l1.72.16c.34,0,.67.07,1,.09,1.8.11,3.61.22,5.41.31l5.87.32c1.78.09,3.56.16,5.34.23.8,0,1.61.06,2.41.08l2.23.06c1.9,0,3.81.08,5.72.09H90.9Z" transform="translate(-26.5 -0.04)"/><g class="cls-6"><path class="cls-1" d="M86.93,182h1.36a3.65,3.65,0,0,1,2.74.89A2.23,2.23,0,0,1,91.6,185a9.67,9.67,0,0,1,1.28.44,9.24,9.24,0,0,1,3.18,1.78,2.18,2.18,0,0,1,.57,1,.83.83,0,0,0,.07.4l.45.1a2.24,2.24,0,0,1,1.54,1.53,2.32,2.32,0,0,1,0,1.17,2.1,2.1,0,0,1-1,1.31c-.24.12-.48.22-.73.32a8.29,8.29,0,0,1-1.22.14H75.16l-1.13.16-.58-.08a1.94,1.94,0,0,1-.81-.27,2.69,2.69,0,0,1-.83-.85,1.35,1.35,0,0,1-.15-.26q-.68,0-1.35.06a3.38,3.38,0,0,1-1.1-.06,2.2,2.2,0,0,1-2.07-1.07,2.23,2.23,0,0,1,.79-3l.19-.1.31-.39a10.79,10.79,0,0,1,1.88-1.62,11.2,11.2,0,0,1,1.87-1A14.85,14.85,0,0,1,74,184l1.64-.52c.83-.25,1.66-.48,2.5-.68.53-.16,1.07-.29,1.61-.41a14.86,14.86,0,0,1,2.48-.3c.73-.06,1.45-.1,2.18-.12H86.3Z" transform="translate(-26.5 -0.04)"/><path class="cls-2" d="M88.24,136.32Zm-9.53-.51Zm6-7.68a7.73,7.73,0,0,0-1.86-.19h-.21a19.29,19.29,0,0,0-2,.07,9.42,9.42,0,0,0-3,.73,7.55,7.55,0,0,0-2,1.25l-.28.24-.86.17a1.36,1.36,0,0,0-1,1.67.82.82,0,0,0,.1.26c-.17.33-.32.67-.47,1s-.33.84-.48,1.27a9.33,9.33,0,0,1-.54,1.05,9.73,9.73,0,0,0-.42,1.06,9.21,9.21,0,0,0-.46,2,7.28,7.28,0,0,0,.24,2.54,2.3,2.3,0,0,0,.49.84,1.86,1.86,0,0,0,.75.45l.83.12.77.1c1.08.16,2.17.32,3.27.42l2.12.2,2.16.18c1.42.13,2.85.28,4.27.29s2.94,0,4.4,0a5.62,5.62,0,0,0,.92,0,5.73,5.73,0,0,0,1.43-.26,2.76,2.76,0,0,0,1.11-.7,1.84,1.84,0,0,0,.46-1.4c-.09-.73-.24-1.44-.38-2.16a8.49,8.49,0,0,0-1-2.93q-.36-.57-.78-1.11l-.3-.39a1.19,1.19,0,0,0-.18-.88,20.12,20.12,0,0,0-2.48-3.18,8.58,8.58,0,0,0-2.08-1.56c-.27-.13-.54-.27-.82-.39a10.39,10.39,0,0,0-1.79-.66Z" transform="translate(-26.5 -0.04)"/><path class="cls-2" d="M82.65,79.84a1.36,1.36,0,0,1,.81.62,1.39,1.39,0,0,1,.15,1,5,5,0,0,0-1.09-.21,4.66,4.66,0,0,0-1.69.33c0-.28.11-.55.16-.82a1.33,1.33,0,0,1,.63-.82,1.39,1.39,0,0,1,.69-.18,1.09,1.09,0,0,1,.36,0Z" transform="translate(-26.5 -0.04)"/><path class="cls-2" d="M83.42,81h0Zm4.49-5.41a1.36,1.36,0,0,0-1.34-1h-.34l-1.61.34a9.27,9.27,0,0,1-1,.14h.13c-1.13.12-2.25.27-3.38.33s-2.23.09-3.34.09h-.24a1.36,1.36,0,0,0,0,2.72H78a.93.93,0,0,0-.18.16,2.77,2.77,0,0,0-.68.15,4.91,4.91,0,0,0-.74.33A1.34,1.34,0,0,0,75.73,80a1.4,1.4,0,0,0,.4,1,1.59,1.59,0,0,0,1.19.54h3.49a4.53,4.53,0,0,1,1.71-.33,4.79,4.79,0,0,1,1,.11l.7-.17a1.42,1.42,0,0,0,.77-.55,1.59,1.59,0,0,0,.45-.37A1.83,1.83,0,0,0,86,80a1.37,1.37,0,0,0,.34-2.09,1.49,1.49,0,0,0,.25-.56l.4-.09a1.37,1.37,0,0,0,1-1.67Z" transform="translate(-26.5 -0.04)"/><path class="cls-2" d="M74.62,58Zm6.9-6.52h-.71a9.22,9.22,0,0,0-1.66.13,10.46,10.46,0,0,0-2.62.86,8.15,8.15,0,0,0-2.11,1.42l-.3.32c-.11.13-.22.28-.32.42a1.44,1.44,0,0,0-.2.81v.08a1.79,1.79,0,0,0-.91,1,1.26,1.26,0,0,0,0,.72,1.34,1.34,0,0,0,1,1c.78.14,1.57.17,2.35.25l1.77.17c1.2.13,2.4.27,3.61.34.65,0,1.3.09,1.95.11l2.15.06c.63,0,1.27,0,1.9.06s1.41.11,2.11.18a1.31,1.31,0,0,0,1.18-.62,1.27,1.27,0,0,0,.56-.38,2,2,0,0,0,.38-.69,1.68,1.68,0,0,0,0-.89,3.13,3.13,0,0,0-.24-.71,6.48,6.48,0,0,0-1.61-2.07,9.45,9.45,0,0,0-3.57-1.64c-.71-.19-1.43-.4-2.16-.53a18.69,18.69,0,0,0-2.47-.29Z" transform="translate(-26.5 -0.04)"/><path class="cls-2" d="M70.41,188.74Zm9.11-7.15H78.14a9.67,9.67,0,0,0-3.06.55,14.71,14.71,0,0,0-2.75,1.3,3,3,0,0,0-.85.1,1.44,1.44,0,0,0-1,1.14l-1,.26a1.37,1.37,0,0,0-1,1.66h0a.19.19,0,0,0,0,.13l-.33.36-.69.78-.34.39a4.29,4.29,0,0,0-.4.55l-.26.52a1.43,1.43,0,0,0-.14,1,1.38,1.38,0,0,0,.63.81,1.4,1.4,0,0,0,1.76-.32,1.38,1.38,0,0,0,.81.63,5.64,5.64,0,0,0,1.36.11h3.15c1.19,0,2.39,0,3.59.09l4.11.16h7.66c1.64,0,3.28,0,4.93-.1a14.57,14.57,0,0,0,2.47-.25,3.15,3.15,0,0,0,1.25-.49,1.33,1.33,0,0,0,.49-.48l.08-.11a1.77,1.77,0,0,0,.24-.81c.1-.86-.63-1.49-1.25-1.94a10.22,10.22,0,0,0-.87-.59c-.6-.36-1.21-.7-1.83-1a19.2,19.2,0,0,0-2.16-1l-1.26-.47-.45-.15a1.31,1.31,0,0,0-.56-.23l-.54-.1c-.54-.26-1.08-.51-1.63-.74a25.16,25.16,0,0,0-3.08-1,19.12,19.12,0,0,0-3-.57c-.92-.1-1.85-.17-2.78-.18Z" transform="translate(-26.5 -0.04)"/><path class="cls-3" d="M79.6,57.84a51.14,51.14,0,0,1-7.41-.66c.2-.27.41-.54.66-.82a4.62,4.62,0,0,0,.47-1.16v-.11l.14-.31a7.1,7.1,0,0,1,.66-1.25,5.86,5.86,0,0,1,1.93-1.84,8,8,0,0,1,3.33-.93,10.31,10.31,0,0,1,1.24-.07,8.74,8.74,0,0,1,1.19.06,9.11,9.11,0,0,1,1.71.35,6.76,6.76,0,0,1,1.6.43,17.85,17.85,0,0,1,2.4,1.19l1,.56.12.06a7,7,0,0,1,1,.63,3,3,0,0,1,.9.9,3,3,0,0,1,.34.7v.11l0,.1.06.27h0a4.19,4.19,0,0,1,.09,1,3.39,3.39,0,0,1-.34,1.4C87.35,59.13,83.2,57.88,79.6,57.84Z" transform="translate(-26.5 -0.04)"/><path class="cls-3" d="M71.18,58.9c.11-.25.24-.5.38-.75a71.44,71.44,0,0,0,9,.78c3.28.07,6.83,1.11,10.12.68a2.53,2.53,0,0,1,.52,1.11,3.65,3.65,0,0,1,.34.61,6.74,6.74,0,0,1,.39,1.06,5.67,5.67,0,0,1,.18,1v.23c.07.55.09,1.07.11,1.51v1.79A14.24,14.24,0,0,1,92,69a8,8,0,0,1-.74,2.12l-.26.49H91c-3.18,2.93-8.58,2.79-12.64,2.32-.59-.07-1.17-.16-1.74-.26l-.15-.07A13.11,13.11,0,0,1,73,71.25c-.16-.17-.32-.37-.45-.54l-.1-.13a9.58,9.58,0,0,1-1-1.45,10.42,10.42,0,0,1-1.16-4.27c0-.49,0-1,0-1.57a10.5,10.5,0,0,1,.15-1.94A11.1,11.1,0,0,1,71.18,58.9Z" transform="translate(-26.5 -0.04)"/><path class="cls-2" d="M87.69,76.25a2.18,2.18,0,0,1-.14.76,6.61,6.61,0,0,1,.22,1.46v1.25a5,5,0,0,1,0,.55,2.66,2.66,0,0,1-.6,1.54c-3.49,0-7,.06-10.47.11l-.18-.23-.14-.17a3.68,3.68,0,0,1-.31-.86,6,6,0,0,1-.13-1.12v-.16a2.08,2.08,0,0,1-.72-1.12l-.09-.59a2.2,2.2,0,0,1,.29-1.09v-.19l.09-.23.09-.28a5.08,5.08,0,0,1,.47-1l.14-.18a29.15,29.15,0,0,0,4.93.44,23.45,23.45,0,0,0,6.78-.69c-.29.14-.59.26-.9.38A2.09,2.09,0,0,1,87.69,76.25Z" transform="translate(-26.5 -0.04)"/><path class="cls-3" d="M60,157.67a8.89,8.89,0,0,1,.24-1.25,11.36,11.36,0,0,1,1-2.45,10.76,10.76,0,0,1,1.62-2.17l.14-.16.52-.56.08-.08.06-.07.07-.06.11-.12.09-.09.06-.07.2-.21c.36-.39.77-.8,1.21-1.2l.17-.33a9,9,0,0,1,.67-1.06,5,5,0,0,1,1-1.06c.35-.27.68-.51,1-.73s.51-.33.78-.49l.11-.06.1-.06,1-.57.22-.14.11-.06a5.79,5.79,0,0,1,.84-.47,2.18,2.18,0,0,1,2.18,0c.44,0,.93-.09,1.48-.13a.24.24,0,0,1-.11-.13,10.14,10.14,0,0,1-1.54-.18l-.45-.12a2.08,2.08,0,0,1-1,.23,1.84,1.84,0,0,1-.57-.09,2.17,2.17,0,0,1-1-.56,2.3,2.3,0,0,1-.65-1.57c0-.81,0-1.63,0-2.44a22.62,22.62,0,0,1,.29-3.07,2.22,2.22,0,0,1,1-1.32,2.13,2.13,0,0,1,1.81-.19,9.23,9.23,0,0,1,2.72-5.86,3.84,3.84,0,0,1,.86-.69,2.18,2.18,0,0,1,1.11-.3l.82.11a1.88,1.88,0,0,1,.64.3,4.06,4.06,0,0,1-.08-.69c0-1.06-.06-2.15-.07-3.3V83l4.42-.06v39.79c0,1.74,0,3.71.14,5.59a2.33,2.33,0,0,0,.08.46,10.62,10.62,0,0,1,3.55,1.5,14.76,14.76,0,0,1,5,5.41,5.19,5.19,0,0,1,.5.31,15,15,0,0,1,1.79,1.39A7.74,7.74,0,0,1,96,139.48a7.06,7.06,0,0,1,.39.89l.08.21a4.33,4.33,0,0,1,.23,1.19,5.55,5.55,0,0,1-.08,1V143a3.21,3.21,0,0,1-.34.89v.08l-.08.16-.07.11-.1.14c0,.07-.1.14-.14.21a6.71,6.71,0,0,1,1.07.27,9.3,9.3,0,0,1,1.82.82,11,11,0,0,1,1.44,1.11c.37.34.76.74,1.19,1.2.66.72,1.43,1.56,2.15,2.43a15.28,15.28,0,0,1,1.08,1.46,10.14,10.14,0,0,1,.92,1.87c.24.62.44,1.16.6,1.65a10.66,10.66,0,0,1,.33,1.38v.1a19.32,19.32,0,0,1,.31,2c.1,1.15.16,2.3.19,3.54a17.85,17.85,0,0,1-.11,2.19,11,11,0,0,1-.44,2.05,9.9,9.9,0,0,1-1,2,11.71,11.71,0,0,1-2.27,2.64l-.77.67-.11.09-.34.29a25.27,25.27,0,0,1-2.6,2,7.46,7.46,0,0,1-1.11.61l-.17.08a12.77,12.77,0,0,1-1.57.67,24,24,0,0,1-2.61.72c-1,.2-2,.34-2.81.45l-.74.11h-.1c-.92.13-1.87.27-2.82.35s-2,.08-2.84.08H77.73a17.73,17.73,0,0,1-8-1.86,19.66,19.66,0,0,1-2.88-1.82h0c-.47-.35-.91-.72-1.34-1.11s-.78-.79-1.28-1.32a17.23,17.23,0,0,1-1.47-1.93,11.84,11.84,0,0,1-1-1.77,20.23,20.23,0,0,1-.86-2.16,16.37,16.37,0,0,1-.76-3.38c-.06-.59-.11-1.16-.15-1.74V158.8A10.66,10.66,0,0,1,60,157.67Z" transform="translate(-26.5 -0.04)"/><path class="cls-4" d="M82.08,51.46a10.62,10.62,0,0,1,2.44.33,12.91,12.91,0,0,1,4.86,2.38q.44.33.84.69l.7.37.64.29a1.7,1.7,0,0,1,.86,1.5h0a7,7,0,0,1,.48.6,1.21,1.21,0,0,1,0,1.22,1.23,1.23,0,0,1-1.36.55,4.35,4.35,0,0,1-1-.33l-.33-.18h-.68a.46.46,0,0,1-.44.43,14.22,14.22,0,0,1-2.35-.1l-1.1-.11L84.7,59,84.07,59A6.54,6.54,0,0,1,83,58.79a.89.89,0,0,1-.63-.83.86.86,0,0,1,.19-.53L81,57.12a1.54,1.54,0,0,1-1.09-1.87,1.5,1.5,0,0,1,.82-1l-.15-.13a1.62,1.62,0,0,1,0-2.29h0l-1.32-.06h0c.61-.09,1.21-.19,1.83-.26l.2-.07a1.54,1.54,0,0,1,.43-.06,1.83,1.83,0,0,1,.4,0Z" transform="translate(-26.5 -0.04)"/><path class="cls-4" d="M81.25,65.25Zm8.83-6.17A13.15,13.15,0,0,0,88,58.93c-.91,0-1.82.06-2.73.13-1.61.11-3.21.24-4.82.37h0l4.81.37-.41.11H84a8,8,0,0,0-1.47.09,3.08,3.08,0,0,0-1.11.28,1.92,1.92,0,0,0-.31.18,1.58,1.58,0,0,0,.38,2.89l.42,0a1.61,1.61,0,0,0,.08.38,2.46,2.46,0,0,0,.55,1c.15.13.3.24.46.36h0l-.9.13-.87.16h0l0-.09.14-.11h0l.25-.17h0a1.36,1.36,0,0,0-.54.35h0a0,0,0,0,0,0,0l-.58.14a.58.58,0,0,0,.16,1.14,6.51,6.51,0,0,0,.88-.06h.19l-.15.07h0a1.14,1.14,0,0,0-.36.33h0a1.16,1.16,0,0,0-.42,1.58,1.33,1.33,0,0,0,.21.26l-.45.38a1.45,1.45,0,0,0-.35,1.57,1.53,1.53,0,0,0,.37,2v.37a1.63,1.63,0,0,0,.82,1.42,1.57,1.57,0,0,0,1.27.17,12.43,12.43,0,0,1,1.45-.39c.39-.1.76-.24,1.14-.37s.78-.31,1.16-.46l.84-.35,1-.43h.11a1.83,1.83,0,0,0,.79-.42l.17-.08.18-.1c.18-.12.35-.25.52-.38a5.85,5.85,0,0,0,1.44-2.58A10.45,10.45,0,0,0,92,66.11a14.18,14.18,0,0,0-.12-1.59,9,9,0,0,0-.18-1,1.74,1.74,0,0,0-.38-1.92l-.13-.13A1.29,1.29,0,0,0,91,60.8a1.42,1.42,0,0,0-.45-.55v-.06a2.12,2.12,0,0,0,0-.44.69.69,0,0,0-.52-.68Z" transform="translate(-26.5 -0.04)"/><path class="cls-4" d="M84.64,73.87h.09a.74.74,0,0,1,.48.24,2,2,0,0,1,.82.47l.39.5a5,5,0,0,1,.43.83,13.37,13.37,0,0,1,.76,3.59,2.66,2.66,0,0,1,0,.69,1.79,1.79,0,0,1-.49,1.18,1.67,1.67,0,0,1-1.18.48,1.17,1.17,0,0,1-1.42,0,1.45,1.45,0,0,1-.71.45,1.51,1.51,0,0,1-.79,0,1.11,1.11,0,0,1-.29.14,1,1,0,0,1-1.15-.66c-.14-.8-.34-1.61-.43-2.42,0-.41-.1-.83-.14-1.24a5.17,5.17,0,0,1,0-1.92,1.28,1.28,0,0,1,1.23-.93h.27a2.93,2.93,0,0,1,0-.29,1.64,1.64,0,0,1,1.16-1.15,1.64,1.64,0,0,1,.88,0Z" transform="translate(-26.5 -0.04)"/><path class="cls-4" d="M82.4,121.11v0Zm.25-41h0c-.32,1.54-.71,3.07-.92,4.63-.09.67-.17,1.35-.22,2a9.9,9.9,0,0,0,0,1.54,8.09,8.09,0,0,0,.16,1.19c.12,1,.25,1.92.31,2.89s.1,2,.08,3c0,2.17-.13,4.34-.18,6.51,0,1,0,2-.09,3s-.15,2.15-.23,3.21a48.33,48.33,0,0,0,.19,6.48c.07,1,.13,2.07.23,3.11s.3,2.21.45,3.31c.24,2.06.5,4.11.73,6.17h0c.27-2.53.54-5.09.6-7.63,0-1,.11-2.08.19-3.12s.15-2.08.21-3.12.14-2.14.21-3.21.24-2.2.35-3.3a23,23,0,0,0,.25-3.1c0-1.06,0-2.12-.07-3.18s-.06-2.11-.1-3.17-.1-2.35-.26-3.51a27.76,27.76,0,0,0-.55-3c-.15-.57-.3-1.13-.46-1.7a17.28,17.28,0,0,1-.52-2c-.1-1.07-.21-2.14-.24-3.21,0-1.32,0-2.64-.1-4Z" transform="translate(-26.5 -0.04)"/><path class="cls-4" d="M92.38,143.42Zm-10.45-13.8h-.48a1.67,1.67,0,0,0-.82.21,1.69,1.69,0,0,0-.78,1.91,1.85,1.85,0,0,0,.41.72,1.14,1.14,0,0,0,.1.19,2.43,2.43,0,0,0,.24.32,1.62,1.62,0,0,0-.4.71,1.77,1.77,0,0,0,1.21,2.13l.44.14a1.69,1.69,0,0,0-.81,1,1.7,1.7,0,0,0,0,1,1.66,1.66,0,0,0,.42,3h.16a1.07,1.07,0,0,0,.55,1.41l.15.05a34.93,34.93,0,0,0,4.89.6h.48c-1.58.17-3.17.29-4.76.42h0c1.58.11,3.17.22,4.75.28h4.23a7.42,7.42,0,0,0,.94-.18.62.62,0,0,0,.45-.75v0a1.68,1.68,0,0,0,.32-.09,2.52,2.52,0,0,0,.91-.42,1.79,1.79,0,0,0,.28-.27,1.49,1.49,0,0,0,.37-1.41,1.51,1.51,0,0,0-.83-1,2,2,0,0,0-.14-.53,1.6,1.6,0,0,0-.08-.65,1.2,1.2,0,0,0-.13-.33,1.08,1.08,0,0,0,.13-.29,1,1,0,0,0-.25-1l-.11-.12v-.17a1.71,1.71,0,0,0-1.25-1.63l-.48-.17h0l-.6-.64a1.84,1.84,0,0,0-.52-1.07,2,2,0,0,0-.78-.45l-.78-.23a11.34,11.34,0,0,0-3-1.63,20.29,20.29,0,0,0-2.16-.59q-1.11-.3-2.25-.51Z" transform="translate(-26.5 -0.04)"/><path class="cls-4" d="M102.94,163.79h.15v.28l-.5-.08a.66.66,0,0,0,.19-.09l.18-.12ZM82.45,143h-.08a1.29,1.29,0,0,0-1,.63,1.27,1.27,0,0,0-.06,1.11L80,144.7h0a1.34,1.34,0,0,0-.36,2.64l.57.12h0a1.82,1.82,0,0,0,.53,1.2l.06.06-.23.11a1.33,1.33,0,0,0-.63.82,1.41,1.41,0,0,0,.63,1.55,2,2,0,0,0,.66.31,1.13,1.13,0,0,0,.34,1h0a3.1,3.1,0,0,0-.68.1,1.32,1.32,0,0,0-1.1.95,1.3,1.3,0,0,0,.89,1.58l.48.14a1.24,1.24,0,0,0,0,1.21,4.58,4.58,0,0,0,.78.92h0a1.35,1.35,0,0,0,.21,1.63l.53.41a2.38,2.38,0,0,0,.86.26h.16l-.41.09h0a1.28,1.28,0,0,0-1,1.24,1.32,1.32,0,0,0,1.29,1.3h.64a1.45,1.45,0,0,0,1.07,1.15h0a1.45,1.45,0,0,0-.21.76,1.54,1.54,0,0,0,.92,1.41v.16a1.65,1.65,0,0,0,.91,1.46l-.34.12a8.73,8.73,0,0,1-1,.28,2.74,2.74,0,0,0-.5.07,2.91,2.91,0,0,0-.51.22h0a1.4,1.4,0,0,0-.54.54,1.5,1.5,0,0,0,0,1.53,1.27,1.27,0,0,0,.18.27,1.6,1.6,0,0,0-.6,1.27,1.66,1.66,0,0,0,.67,1.33,13.32,13.32,0,0,0-1.24.66,1.59,1.59,0,0,0-.65,2,2.07,2.07,0,0,0,.25,3.4l.5.21a7,7,0,0,0,1.11.11h.53c.53,0,1.06-.1,1.58-.18q1.07-.15,2.1-.36a19.44,19.44,0,0,0,2-.49c.45-.07.91-.16,1.35-.26.66-.14,1.31-.32,2-.48s1.42-.36,2.11-.59c.35-.12.69-.24,1-.37.61-.25,1.22-.48,1.8-.78a14.65,14.65,0,0,0,2.42-1.63c.43-.35.89-.69,1.29-1.08a11.37,11.37,0,0,0,1.78-2.14c.18-.29.38-.57.56-.86.29-.51.59-1,.84-1.54a11.77,11.77,0,0,0,1-3,13,13,0,0,0,.19-1.87v-1.72a21.75,21.75,0,0,0-.65-4.95,17.87,17.87,0,0,0-2-4.46,13.59,13.59,0,0,0-1.45-2,16.74,16.74,0,0,0-1.54-1.61,25.78,25.78,0,0,0-2.06-1.55c-.35-.25-.7-.5-1.08-.72a11.38,11.38,0,0,0-2-.86,16.56,16.56,0,0,0-2.2-.58l-.34-.07-.29-.11a36.81,36.81,0,0,0-4.6-1.37,23.38,23.38,0,0,0-3.91-.6,19.29,19.29,0,0,1-2-.07h-.36Z" transform="translate(-26.5 -0.04)"/><path class="cls-4" d="M86.88,185.11a10.46,10.46,0,0,1,1,.38l.63.29-.57-.14-.34-.13h0l-.76-.4Zm-2.75-1.37a1.81,1.81,0,0,0-.61-.1h-.2a1.13,1.13,0,0,0-.75.35l-1.53.23H82.4a.11.11,0,0,0,0,.08,1,1,0,0,0,.45,1.1l.39.24a1.65,1.65,0,0,0-.18.41,1.69,1.69,0,0,0,1,2,1.23,1.23,0,0,0-.26.12,1.33,1.33,0,0,0-.64.64l-1-.07h-.44a3.92,3.92,0,0,0-.59,0,1.52,1.52,0,0,0-.42,3c.49.13,1,.23,1.49.32a1.54,1.54,0,0,0-.06.43,1.72,1.72,0,0,0,1.24,1.63,2.17,2.17,0,0,0,.88.1h.43l.58,0c.5,0,1,.09,1.52.12,1.19.06,2.38.09,3.58.11,1,0,2,0,3.06-.05a13.7,13.7,0,0,0,1.53-.16l.72-.07a11.68,11.68,0,0,0,1.64-.35,1.73,1.73,0,0,0,1.19-2.1v-.06a1.14,1.14,0,0,0-.12-1,2.22,2.22,0,0,0-.52-.54l-.19-.13c-.63-.52-1.24-1.08-1.87-1.6a18.48,18.48,0,0,0-3.2-2.36c-.64-.34-1.31-.63-2-.92a15.21,15.21,0,0,0-2.6-.93,14,14,0,0,0-3.53-.45,1.75,1.75,0,0,0-.32-.12Z" transform="translate(-26.5 -0.04)"/><path d="M59.16,56.91c.25.07.5.14.75.19,1.66.17,3.32.22,5,.24s3.44,0,5.17,0c3.39-.07,6.78,0,10.17.14,3.21.19,6.43.42,9.64.69,3.46.31,6.91.59,10.36,1h0A99.87,99.87,0,0,1,89.6,60a87.85,87.85,0,0,1-10-.45c-3.42-.36-6.84-.72-10.27-1-1.72-.15-3.43-.32-5.14-.53-.71-.09-1.42-.19-2.13-.31l-1.28-.24-.53-.11-.37-.08a3.24,3.24,0,0,1-.73-.34h0Z" transform="translate(-26.5 -0.04)"/><path d="M70.46,61.57v0Zm4-3.58h0a11.83,11.83,0,0,0-1.44.19,3.58,3.58,0,0,0-.77.18l-.87.24a2.12,2.12,0,0,0-1,.51,4.22,4.22,0,0,0-.67,1.14A8.83,8.83,0,0,0,69.05,63a20.65,20.65,0,0,0,0,4.16,10.09,10.09,0,0,0,1,3.73,7.6,7.6,0,0,0,2.31,2.51,14.5,14.5,0,0,0,3.4,1.78,11.88,11.88,0,0,0,3.69.65,18.15,18.15,0,0,0,7.88-1.29,13,13,0,0,0,3.26-2,9.33,9.33,0,0,0,1.35-1.39,8.18,8.18,0,0,0,.87-1.49,8.88,8.88,0,0,0,.67-2,8.54,8.54,0,0,0,.21-1.75,16.81,16.81,0,0,0-.14-1.88,11.93,11.93,0,0,0-.43-2.22,9.16,9.16,0,0,0-.6-1.58c-.11-.2-.23-.4-.35-.6.78-.07,1.56-.12,2.34-.2q2-.18,3.93-.39h0c-1.8-.2-3.61-.38-5.41-.53l-1.18-.09a2.54,2.54,0,0,0-.87,0,.89.89,0,0,0-.58.58,2.51,2.51,0,0,0,.35,1.44c.09.27.2.53.29.8a9.5,9.5,0,0,1,.3,1.28,15.91,15.91,0,0,1,.09,1.95A13.22,13.22,0,0,1,91.37,66a9.17,9.17,0,0,1-.49,1.7,9.38,9.38,0,0,1-.82,1.49,7.39,7.39,0,0,1-1.09,1,14.53,14.53,0,0,1-2.66,1.57,13.31,13.31,0,0,1-1.85.6c-.68.16-1.36.27-2,.37a21.56,21.56,0,0,1-4.75.14,11.91,11.91,0,0,1-2.26-.65A12.28,12.28,0,0,1,73.07,71a6.12,6.12,0,0,1-.81-.8,8.53,8.53,0,0,1-.74-1.28,14.46,14.46,0,0,1-.85-3.24,20.27,20.27,0,0,1-.21-4.12,7.33,7.33,0,0,1,.4-1.53,2.5,2.5,0,0,1,.21-.35l.1-.11a10.57,10.57,0,0,1,1.31-.75l1-.48h0c.33-.14.67-.23,1-.34Z" transform="translate(-26.5 -0.04)"/><path d="M91.26,56.41v0Zm0-.14Zm0-.15v.14h0v-.13Zm-8.14-6.55A18.71,18.71,0,0,0,81,49.43h-.1a9.47,9.47,0,0,0-4.21.67,10.17,10.17,0,0,0-2.37,1.57,7.16,7.16,0,0,0-1.41,1.83A7.9,7.9,0,0,0,72.29,55c-.05.18-.09.37-.14.56-.49.11-1,.19-1.47.25l-5.61.63h0l4.5.49c.63.07,1.26.13,1.9.17a4.41,4.41,0,0,0,.89,0,1.67,1.67,0,0,0,.76-.18,1.53,1.53,0,0,0,.44-.4,1.63,1.63,0,0,0,.11-.31,1.15,1.15,0,0,0,0-.37A8.19,8.19,0,0,1,73.9,55a6.71,6.71,0,0,1,.79-1.31,5.46,5.46,0,0,1,.76-.76,9.6,9.6,0,0,1,1.8-1,6.71,6.71,0,0,1,1.38-.37,17.13,17.13,0,0,1,2.68,0,15,15,0,0,1,1.76.17l1.06.2a13.41,13.41,0,0,1,2.48.76,19.91,19.91,0,0,1,3.31,1.86,5.76,5.76,0,0,1,.87.84,4.15,4.15,0,0,1,.32.53l-.09-.2a2,2,0,0,1,.17.46v.09h0c-.24.25-.54.43-.53.83a.58.58,0,0,0,.3.53,2.72,2.72,0,0,0,.79.21l.81.15a9.24,9.24,0,0,0,2,.26,23,23,0,0,0,2.35-.19h0l-1.7-.21a9.73,9.73,0,0,1-1.84-.39l-.83-.29.06-.1a1.32,1.32,0,0,0,.24-.54l.06-.39a3.74,3.74,0,0,0-.29-1.24,7.72,7.72,0,0,0-3-3,14.47,14.47,0,0,0-6.4-2.34Z" transform="translate(-26.5 -0.04)"/><path d="M81.11,41.52a1.93,1.93,0,0,1,.85.23,3.07,3.07,0,0,1,.59.43,1.9,1.9,0,0,1,.34.41l.16.12a3,3,0,0,1,.68,1,6,6,0,0,1,.38,1.44,6.63,6.63,0,0,1,.09,1.72,5.56,5.56,0,0,1-.35,1.39,6,6,0,0,1-.35.72,4.57,4.57,0,0,1-.41.57,1.47,1.47,0,0,1-.35.31v.59h0a2.5,2.5,0,0,0-.11-.53l-.09.06a1.91,1.91,0,0,1-.65.25,1.78,1.78,0,0,1-1.57-.47,5.31,5.31,0,0,1-1.18-2.7,16.72,16.72,0,0,1-.2-2,7.27,7.27,0,0,1,0-1.68,2.13,2.13,0,0,1,2-1.81Z" transform="translate(-26.5 -0.04)"/><path d="M76.23,74.61Zm.3-1.08h0c-.17.2-.11.13-.27.34a1.53,1.53,0,0,0-.11.27c-.08.21-.15.41-.22.62s-.22.67-.31,1A28.48,28.48,0,0,0,75,78.92a10.72,10.72,0,0,0-.15,1.79,3,3,0,0,0,.25,1.39,1.41,1.41,0,0,0,.47.44,1,1,0,0,0,.59.09h.45c.8,0,1.59.07,2.39.11,1.63.09,3.27.18,4.9.12a9.6,9.6,0,0,0,1.61-.09,8.25,8.25,0,0,0,1.39-.24,1,1,0,0,0,.7-.64.86.86,0,0,0,.06-.57L87.56,81a3.35,3.35,0,0,0-.07-.44c-.06-.38-.12-.76-.17-1.15-.11-.88-.2-1.76-.27-2.65s-.14-2.09-.21-3.14h0a39.5,39.5,0,0,0-.53,4.2c0,.63-.06,1.27-.06,1.9V81H80.8l-2.5.14c-.63,0-1.27.08-1.9.06a4.28,4.28,0,0,0-.1-.59c-.1-.9-.15-1.81-.16-2.71v-1.2a16.81,16.81,0,0,1,.15-2.13h0a3.13,3.13,0,0,1,.12-.68,3.39,3.39,0,0,1,.18-.39Z" transform="translate(-26.5 -0.04)"/><path d="M78.77,116.93v0Zm4.75-34.41h0c-.09.84-.18,1.68-.26,2.52-.16,1.57-.24,3.15-.29,4.73s-.11,3.39-.15,5.09c-.08,3.21-.07,6.42-.1,9.63v4.88c0,1.62,0,3.25,0,4.88s0,3.24.07,4.86c0,1.32.05,2.64,0,4l-.37-.12-.44-.15A12.82,12.82,0,0,1,82,121a7.08,7.08,0,0,1,.07-1.21c0-.81.06-1.64.07-2.45s0-1.53,0-2.29-.06-1.53-.06-2.29v-5.06c0-1.69-.12-3.12-.19-4.69l-.24-5.16c-.07-1.55-.09-3.12-.23-4.67s-.28-3.28-.38-4.93l-.12-2.39a6.24,6.24,0,0,0-.07-1.14V83.9a4.45,4.45,0,0,1,0-.73h0a3.57,3.57,0,0,0-.16.79v1.35c0,.59-.07,1.18-.1,1.76-.06,1.21-.12,2.42-.16,3.63s0,2.32-.06,3.48-.09,2.35-.14,3.52c-.08,1.71-.15,3.42-.24,5.12s-.14,3.27-.25,4.9c-.23,3.18-.41,6.38-.81,9.54-.08.56-.15,1.12-.22,1.69s-.22,1.27-.32,1.9-.2,1.18-.24,1.78a6.05,6.05,0,0,0,.09,1.59,3.14,3.14,0,0,0,.28.74,3.31,3.31,0,0,0,.41.5,2.06,2.06,0,0,0,1.24.56,10.69,10.69,0,0,1,1.37.51c1.06.43,2.33,1.1,3.42.33a1.67,1.67,0,0,0,.8-1.93,2.7,2.7,0,0,0-.22-.53,1.76,1.76,0,0,0-.08-.37c0-.51-.06-1-.07-1.53,0-1.71-.11-3.43-.22-5.14s-.13-3.16-.19-4.74-.07-3.26-.11-4.89-.08-3.31-.13-5c-.1-3.25-.39-6.49-.62-9.73-.12-1.68-.27-3.36-.38-5s-.07-3.62,0-5.43Z" transform="translate(-26.5 -0.04)"/><path d="M99.52,71.13ZM86,96.6v0ZM99.52,71.17h0v0Zm-1.71-8.38h0c.1,1.06.19,2.12.29,3.18.06.73.15,1.45.19,2.18l.18,2.72c0,.66.06,1.33.08,2,0,1.19.1,2.37.16,3.55l.06,1.46c0,.5.07,1,.07,1.5v5.34a24.72,24.72,0,0,1-.09,2.58c-.09.86-.14,1.58-.24,2.36a28.46,28.46,0,0,1-1.62,6.68,11.21,11.21,0,0,1-1.28,2.23A8.79,8.79,0,0,1,94.4,99.8a7.75,7.75,0,0,1-1.34.77,6.6,6.6,0,0,1-1.44.42,6.53,6.53,0,0,1-1.25,0,5.7,5.7,0,0,1-1-.28,5.54,5.54,0,0,1-1-.58,6.82,6.82,0,0,1-1-1.08A11.41,11.41,0,0,1,86,96.7a20.14,20.14,0,0,1-.76-2.14c-.19-.68-.35-1.36-.49-2s-.33-1.58-.45-2.39S84.13,88.69,84,88h0a15,15,0,0,0,.06,1.64,26.27,26.27,0,0,0,.09,2.66c0,.73.13,1.48.23,2.21a14.93,14.93,0,0,0,1.28,4.48,7,7,0,0,0,2.86,3.22,5.29,5.29,0,0,0,2.3.64,6.8,6.8,0,0,0,2.28-.32,7.92,7.92,0,0,0,2.12-1,8.65,8.65,0,0,0,1.64-1.5,12.4,12.4,0,0,0,1.39-2.06,15.82,15.82,0,0,0,.94-2.2,25.15,25.15,0,0,0,1.15-4.83,33.9,33.9,0,0,0,.41-5.13c0-.78,0-1.56,0-2.35a14.54,14.54,0,0,0,0-1.48c-.07-1.17-.13-2.33-.26-3.5-.27-2.41-.57-4.83-.9-7.24v0h0v-.06h0c-.09-.64-.22-1.29-.34-1.93-.08-.46-.15-.92-.25-1.38-.36-1.67-.72-3.34-1.11-5Z" transform="translate(-26.5 -0.04)"/><path d="M81.16,126.43c1,.13,2.1.36,3.14.59a16.45,16.45,0,0,1,3.53,1.24,8.34,8.34,0,0,1,2.67,2.23c.34.41.64.85,1,1.29a8.62,8.62,0,0,1,.75,1.09c.35.56.69,1.12,1,1.71a17.37,17.37,0,0,1,1,2.32,37.49,37.49,0,0,1,1,3.74c.35,1.5.63,3,.91,4.54h0c-.42-1.17-.85-2.33-1.27-3.5-.27-.73-.57-1.45-.86-2.17-.23-.54-.44-1.1-.7-1.63-.2-.38-.38-.76-.57-1.14a14.25,14.25,0,0,0-1.25-2,23.7,23.7,0,0,0-3.13-3.36,8.08,8.08,0,0,0-1.36-.8,20.63,20.63,0,0,0-4.65-1,18.88,18.88,0,0,0-3.83-.17,5.91,5.91,0,0,0-.82.24,7.93,7.93,0,0,0-1,.62,14.79,14.79,0,0,0-2.12,2.14,16.91,16.91,0,0,0-1.82,3.17,22.09,22.09,0,0,0-1,4c0,.42-.1.84-.13,1.26,0,.27,0,.56-.06.84.82.19,1.66.28,2.49.41s1.42.19,2.13.29l4.39.64c2.43.28,4.86.48,7.29.66s5,.31,7.55.55h0c-2.09.19-4.19.3-6.28.44s-4,.27-5.92.36-3.86.08-5.79.06H75.67c-1.41,0-2.84,0-4.25-.1a7.91,7.91,0,0,1-1.53-.27,2.49,2.49,0,0,1-1.47-1.19,2.7,2.7,0,0,1-.07-1.92,1,1,0,0,1,.08-.48c.11-1,.2-1.94.35-2.91.07-.48.17-1,.26-1.44a16.15,16.15,0,0,1,1-3.28,15.1,15.1,0,0,1,3.14-4.68A12.12,12.12,0,0,1,75,127.31a6.64,6.64,0,0,1,3.7-1.06h.08a18.67,18.67,0,0,1,2.36.23Z" transform="translate(-26.5 -0.04)"/><path d="M99.85,146.9Zm-28-2.09h0Zm2.73-.67h0a10.88,10.88,0,0,0-2.9.25c-.51.16-1,.32-1.53.53a15.8,15.8,0,0,0-2.35,1.21l-1.86,1.24a13.31,13.31,0,0,0-3.29,3.28c-.4.57-.81,1.14-1.2,1.73a16.51,16.51,0,0,0-2,3.84,10.42,10.42,0,0,0-.55,2.87v1.17a22.55,22.55,0,0,0,.21,3.18,15.44,15.44,0,0,0,1,3.77,19.05,19.05,0,0,0,1.44,2.94,19.63,19.63,0,0,0,3,3.91,20.17,20.17,0,0,0,3.19,2.4,18.44,18.44,0,0,0,3.38,1.7,32.37,32.37,0,0,0,4.93,1.25,37.71,37.71,0,0,0,8.22.44c1,0,1.9-.07,2.85-.12s1.84-.15,2.76-.24a26.26,26.26,0,0,0,6.83-1.56,21.14,21.14,0,0,0,3.63-1.72,22,22,0,0,0,3-2.26,21.26,21.26,0,0,0,2.66-2.79,16.76,16.76,0,0,0,1.91-3,11.86,11.86,0,0,0,1.22-3.85,18.35,18.35,0,0,0,0-3.63,19.54,19.54,0,0,0-.56-3.73,16.13,16.13,0,0,0-1.27-3.21,22.17,22.17,0,0,0-2.63-3.87,16.15,16.15,0,0,0-3.28-3.22,14.5,14.5,0,0,0-2.93-1.51,30,30,0,0,0-3.37-.92h0c.88.39,1.79.75,2.65,1.21a15.71,15.71,0,0,1,2.19,1.41,14.17,14.17,0,0,1,2.19,2.19,22.93,22.93,0,0,1,1.41,2.07,25.09,25.09,0,0,1,1.78,3.26,16.67,16.67,0,0,1,1,3.61,25.13,25.13,0,0,1,.16,3,23.92,23.92,0,0,1-.1,2.81,9.57,9.57,0,0,1-.57,1.94,17.43,17.43,0,0,1-1.9,3.16,22.35,22.35,0,0,1-3.71,3.63,17.64,17.64,0,0,1-2,1.31c-.65.37-1.33.7-2,1a25.17,25.17,0,0,1-3.28,1.08,31.3,31.3,0,0,1-3.12.62c-1.57.18-3.15.36-4.74.4a49.57,49.57,0,0,1-7-.1c-.86-.13-1.71-.31-2.57-.48a22,22,0,0,1-3.64-1.07A21.34,21.34,0,0,1,68.06,173a16.35,16.35,0,0,1-2.43-2.42,25.3,25.3,0,0,1-2.77-4.64,18,18,0,0,1-1-3.74A19.84,19.84,0,0,1,61.7,158a12.89,12.89,0,0,1,.77-2.73c.38-.86.81-1.72,1.26-2.54a23.83,23.83,0,0,1,1.7-2.83,21.81,21.81,0,0,1,3.2-3.1l-.11.08c.44-.34.87-.69,1.34-1A16.54,16.54,0,0,1,72,144.77a15.89,15.89,0,0,1,2.72-.67Z" transform="translate(-26.5 -0.04)"/><path d="M81,180.41a7.49,7.49,0,0,1,1.25.07l1.52.14a10.92,10.92,0,0,1,1.79.28c.37.07.74.15,1.1.24s.88.2,1.31.33l1.42.45a15.52,15.52,0,0,1,1.59.64,13.07,13.07,0,0,1,2,1.05,22.22,22.22,0,0,1,3.43,3c.32.32.66.64,1,1s.68.69,1,1.06c.64.77,1.26,1.54,1.86,2.33.44.58.87,1.17,1.31,1.76h0L100,191.25c-.36-.34-.71-.7-1.08-1l-1.2-1.07c-.35-.31-.74-.59-1.1-.88a27.36,27.36,0,0,0-5.35-3.56,16.43,16.43,0,0,0-2.46-.8l-1.3-.29c-.67-.14-1.34-.23-2-.34L84,183.16a15.63,15.63,0,0,1-1.68-.06,11.2,11.2,0,0,0-1.42,0,15.47,15.47,0,0,0-2.63.15,17.78,17.78,0,0,0-3.65,1,14.67,14.67,0,0,0-2.73,1.6,29.82,29.82,0,0,0-4.39,4.31l-.18.26c.67.17,1.36.31,2,.44.89.17,1.78.31,2.67.44s1.61.19,2.42.25c1,.09,2.07.16,3.1.23,1.84.12,3.68.24,5.52.34l11.48.66,2.24.14c.82.05,1.66.14,2.48.15.26-.06.51-.14.76-.22h0a3.12,3.12,0,0,1-.93.37h-.68l-1.42.08-2.78.17-5.53.32c-3.83.22-7.66.46-11.49.65-1.82.09-3.66.19-5.48.12-1,0-2.1-.1-3.15-.19a10.79,10.79,0,0,1-1.26-.14,10.72,10.72,0,0,1-2.8-.57,3.22,3.22,0,0,1-1.07-.63,2.16,2.16,0,0,1-.68-1,2.25,2.25,0,0,1-.05-1.26,2.44,2.44,0,0,1,.57-1c.25-.31.55-.58.82-.86.6-.63,1.19-1.27,1.79-1.89s1.37-1.33,2.07-2c.33-.31.69-.59,1-.88a16.44,16.44,0,0,1,2.9-2,15.63,15.63,0,0,1,3.43-1.3,17.38,17.38,0,0,1,3.93-.53h1.8Z" transform="translate(-26.5 -0.04)"/><path d="M62.76,126.4a2.26,2.26,0,0,1,.59.42,2.31,2.31,0,0,1,1.55.21,3.09,3.09,0,0,1,.67.52,2.41,2.41,0,0,1,.48.8c.43.91.94,1.78,1.44,2.66s.93,1.69,1.38,2.56l.85,1.66c.26.51.47,1.05.69,1.57a7.91,7.91,0,0,1,.37.84c.09.28.18.56.28.83l.28.84c.1.3.18.6.25.9a2.49,2.49,0,0,1-.08,1.43,1.66,1.66,0,0,1-2.94.54.58.58,0,0,1-.45-.17l-.39-.38a1.3,1.3,0,0,1-.42-.18,6.18,6.18,0,0,1-.53-.36,1.57,1.57,0,0,1-.81-.69l-.08-.13-.55-.58-.12-.12-.26-.21-1.79-1.31c-.75-.54-1.49-1.12-2.22-1.69-.57-.44-1.12-.91-1.68-1.37a5.19,5.19,0,0,1-1.9-2.48,2.36,2.36,0,0,1,0-1.18,2.28,2.28,0,0,1,.57-1c.21-.18.44-.34.67-.51s.26-.22.4-.32a1.22,1.22,0,0,1,0-.27,1.15,1.15,0,0,1,.76-1,1.85,1.85,0,0,1,.57-.06,1.55,1.55,0,0,1,.7-1.72,2,2,0,0,1,.91-.26,1.66,1.66,0,0,1,.78.21Z" transform="translate(-26.5 -0.04)"/><path d="M130.88,135.59l.16.2Zm-28.94-12c1.72.18,3.45.37,5.17.57l2.61.42c.91.15,1.81.35,2.72.53.75.15,1.5.34,2.24.55a30.83,30.83,0,0,1,3.36,1.13l2.2.91a34.32,34.32,0,0,1,6.31,3.34,20.77,20.77,0,0,1,2.4,2.29c.73.83,1.48,1.63,2.16,2.5a14.63,14.63,0,0,1,1,1.47,15.53,15.53,0,0,1,.76,1.46,9.75,9.75,0,0,1,.55,1.84,6.17,6.17,0,0,1,0,.86,5.33,5.33,0,0,1-.17.66l-.17.28-.07.07c-.13.08-.25.16-.39.23a7.9,7.9,0,0,1-1.18.32c-.54,0-1.08,0-1.62,0h-1a19.58,19.58,0,0,1-2-.07c-.7-.07-1.39-.1-2.08-.18l-1.88-.23-1.15-.2c-.4-.07-.82-.12-1.21-.21l-1.22-.29c-.41-.1-.83-.17-1.23-.29l-1.2-.36c-.39-.11-.8-.21-1.19-.35l-2.28-.8-2.27-1c-.82-.36-1.62-.78-2.42-1.18l-2.32-1.11c-1.44-.69-2.88-1.36-4.31-2.09-3.12-1.61-6.24-3.24-9.31-4.94-.75-.42-1.48-.88-2.22-1.31l-2.2-1.29c-.73-.43-1.5-.81-2.26-1.21l-2.24-1.21c-.68-.37-1.33-.8-2-1.18-.37-.2-.73-.41-1.09-.62H91.93c1.73,0,3.46.11,5.18.22s3.19.22,4.78.38ZM29.82,106.25a.43.43,0,0,1,0,.16Zm.83-.16a20.53,20.53,0,0,1,4.7.06,41.42,41.42,0,0,1,5.4,1.24l4.33,1.22c1.21.35,2.4.75,3.59,1.16.6.21,1.21.4,1.8.65l1.75.72,6,2.89c.83.39,1.66.78,2.48,1.21,1,.54,2,1.1,3.07,1.67l4.38,2.42,2.24,1.28c.45.26.89.54,1.33.83l-1.13.2-2.26.44c-.79.17-1.58.32-2.36.52s-1.8.43-2.69.69l-2.81.83c-1.61.48-3.2,1-4.79,1.57l-1.61.58c-.79-.51-1.59-1-2.39-1.51-1.42-.88-2.86-1.72-4.31-2.56-.71-.41-1.42-.81-2.11-1.26s-1.44-.92-2.14-1.41-1.46-1-2.17-1.52l-2.14-1.57c-.76-.61-1.52-1.2-2.27-1.82L35,113.33a17.48,17.48,0,0,1-1.53-1.45,15.85,15.85,0,0,1-1.4-1.61l-.47-.64c-.13-.18-.29-.36-.4-.55a17.55,17.55,0,0,1-1-1.8,5.76,5.76,0,0,1-.3-1,7.73,7.73,0,0,1,.81-.16Zm4-3.51a18.58,18.58,0,0,0-2.36-.15,13.13,13.13,0,0,0-1.4.07,11.39,11.39,0,0,0-1.84.3,3.73,3.73,0,0,0-1.65.85,2.69,2.69,0,0,0-.9,2,4.3,4.3,0,0,0,.4,1.65,11.63,11.63,0,0,0,1.27,2.29c.58.82,1.19,1.61,1.81,2.41a21.33,21.33,0,0,0,3.61,3.56l2.13,1.67,2,1.51c.67.51,1.41,1,2.14,1.47s1.5,1,2.27,1.46l2.45,1.43a9.76,9.76,0,0,0,.91.47l1.47.74,4.65,2.29.71.35c-.43.18-.87.36-1.3.56-.77.35-1.54.7-2.3,1.08-.42.21-.85.4-1.25.64l-1.17.67c-.7.4-1.39.85-2.06,1.32l-1,.71a16.94,16.94,0,0,0-1.38,1.16h0a33.6,33.6,0,0,1,3.21-1.92c.89-.46,1.79-.88,2.69-1.3a24.24,24.24,0,0,1,2.33-.92c.78-.28,1.78-.67,2.69-.93l1.08-.31,2.15,1c1.84.83,3.71,1.62,5.58,2.39h0l-5.84-3.67-.28-.18c.79-.22,1.59-.44,2.39-.64q2.73-.67,5.47-1.31c3.2-.75,6.46-1.21,9.72-1.7l1.71-.19h.1l1.85,1c1.58.86,3.15,1.73,4.7,2.63s3.13,1.69,4.71,2.5c.77.4,1.51.84,2.27,1.26l2.21,1.26c1.4.79,2.85,1.52,4.29,2.24s2.87,1.46,4.32,2.16c.86.42,1.71.86,2.58,1.26l2.59,1.18c1.52.69,3,1.39,4.53,2.1s3.12,1.43,4.73,2c.84.3,1.67.58,2.51.85.4.12.8.27,1.21.37l1.35.34c.37.1.74.21,1.12.28l1.46.26c.93.17,1.87.28,2.81.4,1.58.2,3.16.32,4.75.39l1.48.05a10.29,10.29,0,0,0,1.57,0,10.61,10.61,0,0,0,1.67-.29,4.47,4.47,0,0,0,1.68-.89,3.72,3.72,0,0,0,.92-1.23,6.52,6.52,0,0,0,.33-.83,6,6,0,0,0,.14-.74,3.7,3.7,0,0,0,.09-.94,6.38,6.38,0,0,0-.11-1,11.25,11.25,0,0,0-1.29-3.54,16.79,16.79,0,0,0-2-2.75c-.77-.93-1.62-1.8-2.47-2.66a21.76,21.76,0,0,0-2.56-2.23,25.12,25.12,0,0,0-5-2.73c-.87-.38-1.74-.77-2.62-1.12-1.24-.49-2.47-1-3.74-1.4a37.4,37.4,0,0,0-4.67-1.14c-.79-.14-1.59-.3-2.39-.41s-1.88-.3-2.83-.4c-1.87-.19-3.75-.38-5.62-.54-1.63-.15-3.26-.23-4.88-.32s-3.25-.14-4.87-.15H81.2c-.78,0-1.57,0-2.35.06L77,120.8h-.48l-.39-.22c-.4-.21-.81-.41-1.2-.64-.69-.43-1.39-.85-2.09-1.26s-1.6-.94-2.41-1.39c-1.46-.8-2.94-1.55-4.41-2.33s-2.91-1.61-4.4-2.32l-4.54-2.18-2.4-1.2c-.38-.19-.76-.4-1.15-.57l-1.25-.55c-.49-.21-1-.45-1.47-.63l-1.15-.43c-.81-.3-1.62-.6-2.44-.88-1.64-.58-3.3-1.1-4.95-1.66-.81-.27-1.63-.52-2.44-.78a29.35,29.35,0,0,0-5.24-1.15Z" transform="translate(-26.5 -0.04)"/><path d="M45.59,127.91l.21.18a1.62,1.62,0,0,1,.42-.2,1.34,1.34,0,0,1,1.3.36,11,11,0,0,1,.9,1l.47.57.37.51a4.07,4.07,0,0,1,.38.82,1.49,1.49,0,0,1-.68,1.68l-.13.07-.15.11a1.14,1.14,0,0,1-1.53-.4v-.07l-.32-.36-.31.25-1,.68c-.24.16-.49.31-.74.45-.55.27-1.09.55-1.65.79l-.7.3c-.5.38-1,.74-1.52,1.11a5.45,5.45,0,0,1-.82.61,1.61,1.61,0,0,1-.83.22l-.31.22a1.09,1.09,0,0,1-.64.11,1,1,0,0,1-.69-.28,1,1,0,0,1-.25-.94l.09-.24h0a1.76,1.76,0,0,1,.62-2.4h0l1.47-.75L40,132c.29-.3.59-.59.89-.87a13,13,0,0,1,2.29-1.69c.39-.22.78-.48,1.19-.66a.77.77,0,0,1,.21-.72.73.73,0,0,1,.52-.22.92.92,0,0,1,.59.22Z" transform="translate(-26.5 -0.04)"/><path d="M108.13,140.58l-.34-.14Zm0,0Zm21.49,1.75Zm.12-.16v.05h0Zm-20.53-4.46h0Zm-13.69-14c.79,0,1.57.16,2.35.25,1.8.28,3.59.56,5.39.87s3.53.71,5.29,1.14q1.17.28,2.31.66c.87.29,1.72.61,2.58.94s1.65.65,2.48,1,1.75.63,2.61,1a37.62,37.62,0,0,1,7.38,4.85,16.67,16.67,0,0,1,2.64,2.67,9.93,9.93,0,0,1,1,1.57,7.46,7.46,0,0,1,.31,1,10.82,10.82,0,0,1,0,1.8,4.7,4.7,0,0,1-.18.74h-1.61c-.53,0-1.2-.06-1.8-.12-1.12-.11-2.25-.23-3.37-.37a30,30,0,0,1-3.26-.57c-1.19-.3-2.38-.59-3.54-1-2.38-.76-4.7-1.63-7-2.55-1.73-.74-3.43-1.55-5.17-2.31S100.62,133.88,99,133c-.84-.47-1.68-.94-2.54-1.38s-1.52-.73-2.28-1.1-1.72-.8-2.54-1.26-1.72-1-2.57-1.47c-1.53-.89-3.13-1.67-4.69-2.48-.86-.45-1.69-.92-2.51-1.43l-.73-.46h.3c1.88-.06,3.76,0,5.63,0s3.59,0,5.37.12c1,.07,2.07.13,3.1.21ZM31.75,107v0Zm.33-.3-.19.14A1.33,1.33,0,0,1,32.08,106.74Zm-.13,0-.09.12h0l.09-.11Zm1.25-.16a12,12,0,0,1,2.4,0,43.25,43.25,0,0,1,9.29,3c1.47.59,2.91,1.21,4.38,1.78.7.27,1.42.49,2.13.74l2.19.79c.54.23,1.07.46,1.6.71l2.09,1c1.22.6,2.46,1.16,3.69,1.74s2.59,1.25,3.87,1.89,2.44,1.28,3.68,1.89c.83.41,1.64.84,2.45,1.31H71l-3.77.53a60,60,0,0,0-6.4,1,30.18,30.18,0,0,0-2.94.8,25.32,25.32,0,0,0-3.49,1.66l-.25.13-1.12-.72-4.57-3c-1.51-1-2.73-1.94-4.07-2.93-2-1.6-3.94-3.26-5.91-4.9-.93-.78-1.87-1.58-2.78-2.39a32.62,32.62,0,0,1-3.11-3,7.65,7.65,0,0,1-.58-1q-.11-.3-.18-.6v-.09l.13-.07a7.11,7.11,0,0,1,1.21-.29ZM36,103a12.79,12.79,0,0,0-2-.17,11.73,11.73,0,0,0-2.21.21,3.77,3.77,0,0,0-.75.2,4.12,4.12,0,0,0-1.57.87l-.23.19a6.49,6.49,0,0,0-.59.79,5.32,5.32,0,0,0-.26.66,5.93,5.93,0,0,1-.1.72,4.15,4.15,0,0,0,.11.93,6.24,6.24,0,0,0,.59,1.5,10.41,10.41,0,0,0,2,2.62c.65.63,1.32,1.23,2,1.81,1.6,1.33,3.23,2.63,4.89,3.88,1.46,1.1,2.91,2.24,4.41,3.28A86.86,86.86,0,0,0,52,126.07l.57.29-.59.28c-.8.38-1.59.78-2.38,1.19s-1.54.8-2.27,1.27L45,130.61c-.8.51-1.46.8-2.14,1.28a22.91,22.91,0,0,0-2.23,1.69h0A30.72,30.72,0,0,1,43.74,132h0c.8-.33,1.62-.61,2.41-1s1.65-.78,2.48-1.15c1.44-.55,2.9-1.07,4.36-1.58.68-.23,1.34-.48,2-.75l1.71.8c1.94.87,3.91,1.68,5.87,2.5h0c-2-1.3-4.12-2.58-6.18-3.87l1-.43a21.19,21.19,0,0,1,3.31-.86c.67-.14,1.35-.24,2-.35,2.06-.25,4.14-.42,6.2-.69s4.16-.54,6.25-.77l.52.31c.8.46,1.63.87,2.44,1.3s1.57.94,2.34,1.43,1.66,1,2.51,1.39c1.61.83,3.24,1.63,4.82,2.53.76.44,1.52.88,2.3,1.27s1.84.9,2.77,1.34,1.61.74,2.4,1.14,1.52.82,2.28,1.22c.45.24.89.49,1.35.71l1.36.63c.82.38,1.66.73,2.49,1.09s1.52.69,2.28,1c1,.46,2,.9,3.07,1.33,1.55.65,3.13,1.23,4.7,1.8s3.29,1.15,5,1.61c.85.22,1.69.46,2.56.62s1.9.33,2.85.47c1.77.25,3.55.44,5.33.58a10,10,0,0,0,1.89.06,3.26,3.26,0,0,0,1.1-.29,2.55,2.55,0,0,0,.72-.49,4.36,4.36,0,0,0,1-1.63,7,7,0,0,0,.4-2.08,9.74,9.74,0,0,0-.11-2.09,6.81,6.81,0,0,0-.45-1.54,8.07,8.07,0,0,0-.88-1.67,18,18,0,0,0-2.58-3,31.13,31.13,0,0,0-2.61-2c-.89-.63-1.69-1.2-2.55-1.78a26.89,26.89,0,0,0-2.87-1.72,37.85,37.85,0,0,0-4.09-1.63c-.95-.34-1.91-.69-2.85-1.05-.78-.29-1.56-.61-2.35-.87a68,68,0,0,0-11.19-2.48c-1.86-.27-3.72-.56-5.59-.67s-3.76-.21-5.65-.22c-3.85,0-7.71,0-11.56.17-.62,0-1.24.08-1.86.13-.65-.38-1.29-.76-2-1.12s-1.54-.89-2.31-1.34-1.63-.87-2.47-1.29c-1.63-.81-3.23-1.7-4.88-2.49s-3.45-1.56-5.16-2.37L57,110.9c-.9-.43-1.82-.87-2.76-1.22l-2.74-1c-.87-.31-1.73-.63-2.59-1-1.47-.65-2.94-1.31-4.42-1.94-1.7-.72-3.4-1.45-5.15-2a25.2,25.2,0,0,0-3.42-.87Z" transform="translate(-26.5 -0.04)"/><path d="M83.41,69.86h0Zm6.76-9.51a1.26,1.26,0,0,0-.82-.36h-.06a2.35,2.35,0,0,0-.37,0l-.26.09a4.54,4.54,0,0,1-.53.12c-1.83.22-3.69.27-5.53.37-2.2.12-4.39.3-6.58.47h0a53.34,53.34,0,0,1,6.32.25c.91.08,1.81.21,2.71.3s1.88.19,2.81.32h-.22l.5.09v3.2a6.53,6.53,0,0,1-.2.76,7.7,7.7,0,0,1-.7,1.17,7,7,0,0,1-1.14,1.1,15,15,0,0,1-2.85,1.65,13.38,13.38,0,0,1-3.1.82,16.7,16.7,0,0,1-2,.18,10.69,10.69,0,0,1-1.79-.1h.1a14.82,14.82,0,0,1-3.24-1h0c-.78-.34-1.54-.74-2.3-1.14h0c.71.49,1.4,1,2.14,1.43a19.55,19.55,0,0,0,2.18,1.13,12.32,12.32,0,0,0,4.45.83,12.87,12.87,0,0,0,4.89-.65,11.56,11.56,0,0,0,3.94-2.18,6.27,6.27,0,0,0,2.24-4.1,13.64,13.64,0,0,0,0-2.12v-.9a2.58,2.58,0,0,0-.57-1.77Z" transform="translate(-26.5 -0.04)"/><path d="M84.93,178.31h1a26.62,26.62,0,0,1,2.82.26,1.26,1.26,0,0,1,.6.35c.08.09.15.19.22.28a1.4,1.4,0,0,1,.19.69v.27a4.29,4.29,0,0,1-.07.5,1.8,1.8,0,0,1-.82,1,4.72,4.72,0,0,1-1.25.52,9.25,9.25,0,0,1-1.65.32c-.57.08-1.13.14-1.7.17H82.64a4.69,4.69,0,0,1-.53,0l-1.54-.07h-.91l-1.34-.18-1.26-.18-.93-.16H75.7l-.42-.06a1.27,1.27,0,0,1-.88-1.58,1.26,1.26,0,0,1,.57-.75,3.56,3.56,0,0,1,.8-.41,5.93,5.93,0,0,1,.81-.19,14.5,14.5,0,0,1,1.86-.21h.61a21.59,21.59,0,0,1,2.26-.33c1-.09,1.91-.13,2.87-.17h.73Z" transform="translate(-26.5 -0.04)"/><path d="M86.61,181.49a18.5,18.5,0,0,1,3.45.77,22.34,22.34,0,0,1,4,1.62c.65.35,1.25.75,1.86,1.16a22.52,22.52,0,0,1,2,1.53c.8.69,1.52,1.47,2.3,2.18a17.76,17.76,0,0,1,1.64,1.61,5,5,0,0,1,.54.67,2.31,2.31,0,0,1,.26,1.06,1.8,1.8,0,0,1-.53,1.3,2.67,2.67,0,0,1-1.51.81,9,9,0,0,1-1.55.17c-1.75.07-3.51,0-5.26,0s-3.54-.15-5.3-.21L83.05,194c-1.85-.05-3.71-.05-5.57-.06H75.55c-1.35,0-2.7,0-4-.07h0l3.37-.4,2.54-.32c1.8-.22,3.61-.45,5.41-.64l5.09-.53c1.79-.18,3.58-.33,5.38-.52,1.59-.18,3.18-.35,4.77-.55h.2A24.72,24.72,0,0,0,95,187.62c-.85-.63-1.71-1.26-2.63-1.81a26.73,26.73,0,0,0-2.9-1.41,18.26,18.26,0,0,0-3.83-1.18c-1.1-.14-2.22-.16-3.33-.23l-2.45-.14c-1.81-.11-3.61-.07-5.42,0h0a41.49,41.49,0,0,1,5.52-1c.86-.08,1.73-.15,2.6-.2s1.9-.14,2.85-.14a10,10,0,0,1,1.22.05Z" transform="translate(-26.5 -0.04)"/><path d="M95.69,137.45a.17.17,0,0,1,0-.1v.06h0Zm.09.21-.09-.21Zm-17-8.42ZM84.55,127h-.28a7.43,7.43,0,0,0-1.33.08c-.44.08-.9.1-1.35.18a8.89,8.89,0,0,0-2.14.68,15.37,15.37,0,0,0-4.33,3.53h0a27.11,27.11,0,0,1,3.68-2.23,9.71,9.71,0,0,1,2.25-.6,12.49,12.49,0,0,1,1.73,0,9.12,9.12,0,0,1,1.38.07,6.74,6.74,0,0,1,1.4.38A13.14,13.14,0,0,1,88,130.55a14.43,14.43,0,0,1,2.21,2.21A28.61,28.61,0,0,1,93,137.64a6.67,6.67,0,0,1,.31.78c.09.31.18.63.28.94a10.23,10.23,0,0,1,.3,1.56,15.47,15.47,0,0,1,.12,1.92l-1.47.12c-1.67.13-3.35.21-5,.4-1.84.21-3.69.44-5.53.68s-3.5.4-5.26.52c-2,.14-4.07.24-6.1.43h0c1.41.14,2.83.21,4.24.31,1.75.11,3.51.26,5.27.3s3.7.08,5.55.14,3.49.17,5.23.3c.88.06,1.76.1,2.63.14a7.06,7.06,0,0,0,.92,0,6.53,6.53,0,0,0,.76-.08l.3,0a4.13,4.13,0,0,0,.75-.32A1.74,1.74,0,0,0,97,145a1.83,1.83,0,0,0,.16-1.28,2.33,2.33,0,0,0-.08-.38L97,143a22.66,22.66,0,0,0-.5-2.71,19.15,19.15,0,0,0-.88-2.85c-.26-.62-.53-1.23-.83-1.83s-.59-1.12-.9-1.67a14.86,14.86,0,0,0-2.8-3.7,13.61,13.61,0,0,0-4.18-2.67,7.61,7.61,0,0,0-2.44-.56Z" transform="translate(-26.5 -0.04)"/><path d="M101.52,41.44v0ZM89.68,33.83Zm5.69-.09a23.83,23.83,0,0,0-3.58-.23c-1.23,0-2.45.06-3.67.11h0l1.54.2c1.18.16,2.37.32,3.53.56a18.6,18.6,0,0,1,3.26,1,12.62,12.62,0,0,1,2.14,1.23,10.74,10.74,0,0,1,1.49,1.45,8.36,8.36,0,0,1,.89,1.53,10.23,10.23,0,0,1,.58,2.12,10.88,10.88,0,0,1,.08,1.71,4.64,4.64,0,0,1-.2.73,5.38,5.38,0,0,1-.38.66,6.44,6.44,0,0,1-.64.64c-.19.13-.37.25-.57.36l-.51.16a1.64,1.64,0,0,0-1.19,1.57,1.6,1.6,0,0,0,.48,1.15,1.66,1.66,0,0,0,.71.42,7,7,0,0,0,.9.13h1a13.33,13.33,0,0,1,1.45.11,10.78,10.78,0,0,1,2,.55,10.66,10.66,0,0,1,1.65,1A12.71,12.71,0,0,1,108,52.56a12.13,12.13,0,0,1,1,1.71,12.51,12.51,0,0,1,.52,2,9.88,9.88,0,0,1,0,1.72,8.4,8.4,0,0,1-.34,1.31,6,6,0,0,1-.53.88,5.29,5.29,0,0,1-.58.58,12.71,12.71,0,0,1-1.19.69l-.35.11c-.23.1-.46.19-.68.3a5.49,5.49,0,0,0-.66.48,2,2,0,0,0-.47.81,2.11,2.11,0,0,0,0,1,2,2,0,0,0,.47.81,1.79,1.79,0,0,0,.81.47c.66.1,1.32.22,2,.27l1.28.1a12.9,12.9,0,0,1,2.44.72,16.06,16.06,0,0,1,3,1.81,19.36,19.36,0,0,1,3.07,3,15.47,15.47,0,0,1,1.83,3.12,12.66,12.66,0,0,1,.75,2.71,11.89,11.89,0,0,1,0,2.53,10.53,10.53,0,0,1-.55,2.07,8,8,0,0,1-.84,1.45,12.93,12.93,0,0,1-1.75,1.72A16.43,16.43,0,0,1,114,86.76a23,23,0,0,1-3.22,1.08c-1.13.28-2.27.5-3.41.75h0a35.32,35.32,0,0,0,5.71-.68A20.08,20.08,0,0,0,116,87a11.43,11.43,0,0,0,2.21-1.11A9.2,9.2,0,0,0,121.7,82a12,12,0,0,0,.84-2.8,11.34,11.34,0,0,0,.08-2.91,14.54,14.54,0,0,0-.62-3,16.83,16.83,0,0,0-1.13-2.62A17.86,17.86,0,0,0,117.13,66a17.09,17.09,0,0,0-2.47-1.93A13.69,13.69,0,0,0,112,62.8c-.25-.1-.51-.18-.77-.26a6,6,0,0,0,.73-1,7.61,7.61,0,0,0,.77-1.87,10.29,10.29,0,0,0,.31-2,12.15,12.15,0,0,0-.13-2,10.79,10.79,0,0,0-1-3.24,8.65,8.65,0,0,0-1-1.61,13.82,13.82,0,0,0-1.24-1.51,10.72,10.72,0,0,0-2.68-2,11.26,11.26,0,0,0-3.53-1.11,5.4,5.4,0,0,0,.62-2.73,10.14,10.14,0,0,0-2.68-6.5,10,10,0,0,0-2.77-2,12.42,12.42,0,0,0-3.38-1Z" transform="translate(-26.5 -0.04)"/><path d="M69.05,16ZM70.15,15Zm3-1.34h0a9.18,9.18,0,0,0-3.64,1,9.6,9.6,0,0,0-2.6,2.56,12,12,0,0,0-1.09,1.79,10.29,10.29,0,0,0-.76,2,17.94,17.94,0,0,0-.42,4A33.54,33.54,0,0,0,65,29.5c.12.77.24,1.55.43,2.3s.4,1.47.63,2.2.46,1.45.7,2.17.49,1.43.71,2.15a26.59,26.59,0,0,1,.85,3.94,24.19,24.19,0,0,1,.11,4.17l-.19,3.82h0a49.34,49.34,0,0,0,1.42-6,16.49,16.49,0,0,0,.16-3.06,21.93,21.93,0,0,0-.27-2.8c-.36-2-.94-4-1.46-6a53.38,53.38,0,0,1-1.16-6,22,22,0,0,1-.18-5.19,11.66,11.66,0,0,1,.74-2.51A12.54,12.54,0,0,1,69,16.13,7.48,7.48,0,0,1,70.09,15a6.39,6.39,0,0,1,1.14-.64h0c.65-.26,1.33-.49,2-.76Z" transform="translate(-26.5 -0.04)"/><path d="M82.19,35.81v0Zm-4-23,0,.12ZM79.3.05h0a14.19,14.19,0,0,0-3,3.55,8.16,8.16,0,0,0-.8,2.3,12.65,12.65,0,0,0-.13,2.46,21.43,21.43,0,0,0,.23,2.53,21.58,21.58,0,0,0,.66,2.75,27.93,27.93,0,0,0,1.33,3.54,34.78,34.78,0,0,0,1.67,3.49c1,1.78,2.06,3.52,2.89,5.37a17.6,17.6,0,0,1,1.07,3.56,16.17,16.17,0,0,1,0,3.68,7.22,7.22,0,0,1-.39,1.45,7,7,0,0,1-.66,1.2,10.06,10.06,0,0,1-1.32,1.29l-1.52,1.37h0l2.32-1.24a5.75,5.75,0,0,0,1.68-1.26A7.19,7.19,0,0,0,84.62,34a13.59,13.59,0,0,0,.6-2.52,11.59,11.59,0,0,0,.06-3,13.76,13.76,0,0,0-.57-2.62,23.44,23.44,0,0,0-1.7-4C81.4,18.89,79.64,16,78.3,13a18.75,18.75,0,0,1-1-2.9c-.2-.81-.35-1.64-.48-2.47a10.61,10.61,0,0,1,0-2.39,9.17,9.17,0,0,1,.49-1.7,31,31,0,0,1,2-3.47Z" transform="translate(-26.5 -0.04)"/><path d="M57.59,70.77a5.7,5.7,0,0,1,3.49,2.48,6.56,6.56,0,0,1,.85,2c.28.92.54,1.85.79,2.78h0l-1-2a15.57,15.57,0,0,0-1-1.78A5.36,5.36,0,0,0,58.8,72.7a7.2,7.2,0,0,0-1.28-.45,6.44,6.44,0,0,0-1.52,0,5.91,5.91,0,0,0-.69.19,4.84,4.84,0,0,0-1.74,1.36,8,8,0,0,0-.75,1.3,10,10,0,0,0-.51,2,14.8,14.8,0,0,0-.05,3.12,13.49,13.49,0,0,0,.72,2.5,15.53,15.53,0,0,0,1.63,2.86l.7.14a12.47,12.47,0,0,1,2.78,1,5.79,5.79,0,0,1,2.43,2.06,2.54,2.54,0,0,1,.4,1.61,1.69,1.69,0,0,1-.16.73l-.18.43a5.43,5.43,0,0,1-.42.53,2,2,0,0,1-.81.47,2.61,2.61,0,0,1-1.18,0c-.22-.09-.44-.19-.65-.3a5.3,5.3,0,0,1-.54-.39,26.49,26.49,0,0,1-2.86-2.2c-.25-.22-.48-.45-.71-.69l-.7-.14a11.21,11.21,0,0,0-2.09,0,7,7,0,0,0-1,.25l-.4.25a6,6,0,0,0-.56.57,5.16,5.16,0,0,0-.46.83A8,8,0,0,0,47.86,92a7.12,7.12,0,0,0,0,1.46,10.59,10.59,0,0,0,.52,1.91,12,12,0,0,0,1.37,2.24A14.4,14.4,0,0,0,52.14,100a19.19,19.19,0,0,0,4,2.25h-.09c.52.21,1,.4,1.55.59a22,22,0,0,0,3.12.7h0a18.35,18.35,0,0,1-2.67-.11c-.53-.08-1-.2-1.57-.31A17.65,17.65,0,0,1,51.11,101a13.24,13.24,0,0,1-2.29-1.73,13.49,13.49,0,0,1-2.14-2.45,9.38,9.38,0,0,1-1.28-3,8,8,0,0,1-.09-3.15,7,7,0,0,1,1-2.73,5.55,5.55,0,0,1,1.06-1.21,4.68,4.68,0,0,1,1.47-.88A8.21,8.21,0,0,1,51,85.36a17.6,17.6,0,0,1-.86-2.11,12.71,12.71,0,0,1-.55-2.59,10.21,10.21,0,0,1,.06-2.59,14,14,0,0,1,.64-2.87A8.09,8.09,0,0,1,51.45,73a6.76,6.76,0,0,1,1.72-1.61,5.43,5.43,0,0,1,2.2-.85q.33,0,.66,0a7.44,7.44,0,0,1,1.63.22Z" transform="translate(-26.5 -0.04)"/><path class="cls-5" d="M77.9,171.86Zm-5.38,4.53Zm-2.83-5v0ZM78.11,170Zm-7.51-2.79Zm3.85-2Zm2.69-1.51a6.24,6.24,0,0,0-1-.11H76a6.05,6.05,0,0,0-.95.05,9.78,9.78,0,0,0-1.93.35,7.68,7.68,0,0,0-1.87.9,6.29,6.29,0,0,0-1.38,1.19,5.46,5.46,0,0,0-1,1.67,5.31,5.31,0,0,0-.33,1.8,8.45,8.45,0,0,0,.89,3.79,10.11,10.11,0,0,0,1,1.59,8,8,0,0,0,1.31,1.36A8.36,8.36,0,0,0,75,177.65h0l-.47-.19h0c-.37-.16-.75-.31-1.1-.49a7.85,7.85,0,0,1-1-.61,6.75,6.75,0,0,1-1-1A11.28,11.28,0,0,1,70.08,173a7.49,7.49,0,0,1-.48-1.74,8.53,8.53,0,0,1,0-1.89,5.71,5.71,0,0,1,.33-1.16,6.35,6.35,0,0,1,.53-.91,5.63,5.63,0,0,1,.86-.83,7.37,7.37,0,0,1,1.39-.8,7.07,7.07,0,0,1,1.5-.4,9.92,9.92,0,0,1,2.31,0,5.54,5.54,0,0,1,1.06.29,6.58,6.58,0,0,1,1.15.66,8.08,8.08,0,0,1,.92.93,6.43,6.43,0,0,1,.62,1.08,7,7,0,0,1,.41,1.55,6.53,6.53,0,0,1,0,1.25,3.15,3.15,0,0,1-.17.6c-.06.11-.12.22-.19.33s-.21.21-.33.31a3.67,3.67,0,0,1-.6.36,5.91,5.91,0,0,1-1.17.3,6.22,6.22,0,0,1-1.22,0,4,4,0,0,1-.84-.24,5.64,5.64,0,0,1-1-.6,5.54,5.54,0,0,1-.92-.89,3.25,3.25,0,0,1-.33-.57,3.49,3.49,0,0,1-.2-.7v-.37l.06-.23a1.59,1.59,0,0,1,.13-.22,2.09,2.09,0,0,1,.22-.2,2.76,2.76,0,0,1,.44-.25,4.85,4.85,0,0,1,1.06-.27,2.58,2.58,0,0,1,.68,0,2.85,2.85,0,0,1,.5.14,2.3,2.3,0,0,1,.43.25,3.33,3.33,0,0,1,.46.46,4.52,4.52,0,0,1,.46.76,3.41,3.41,0,0,1,.23.83V171h0a1.48,1.48,0,0,1-.1.36.72.72,0,0,1-.12.21h0a1.72,1.72,0,0,1-.27.27h0c-.26.18-.54.31-.81.47h0a2.93,2.93,0,0,0,1.2-.62,1.41,1.41,0,0,0,.36-1.14,3.74,3.74,0,0,0-.42-1.39,3.06,3.06,0,0,0-1-1.17,2.94,2.94,0,0,0-1.66-.42,4.25,4.25,0,0,0-1.72.37,2,2,0,0,0-1.1,1.15,2.59,2.59,0,0,0,0,1.46,4.38,4.38,0,0,0,.78,1.68,6.93,6.93,0,0,0,1.24,1.18,4.61,4.61,0,0,0,1.64.86,5.48,5.48,0,0,0,1.71.14,4.66,4.66,0,0,0,3.43-1.51,4.54,4.54,0,0,0,.61-3.57,6.8,6.8,0,0,0-1.68-3.59A6.62,6.62,0,0,0,79,164.53a5.67,5.67,0,0,0-1.83-.71Z" transform="translate(-26.5 -0.04)"/><path class="cls-5" d="M67.86,174.14Zm2.79-15Zm-.79-1.63Zm3.49-2.24.09.07Zm-2.83-2.69H70.1a4.37,4.37,0,0,0-.72.06,3.71,3.71,0,0,0-.91.29,4.3,4.3,0,0,0-.8.47,4.5,4.5,0,0,0-.7.61,4.31,4.31,0,0,0-1,1.7,3.67,3.67,0,0,0-.13,1.77,3.39,3.39,0,0,0,.88,1.71,3.7,3.7,0,0,0,1.5.89,5.9,5.9,0,0,0,.93.19,4,4,0,0,0,.85,0,1.36,1.36,0,0,0,.73-.22,1,1,0,0,0,.36-.47,2.34,2.34,0,0,0,.11-1.52,1.15,1.15,0,0,0-.75-.72,1.23,1.23,0,0,0-1.19.08c-.3.22-.22.71-.24,1h0a4.67,4.67,0,0,1,.17-.74h0v-.06l.11-.11h.06a.72.72,0,0,1,.25-.07.81.81,0,0,1,.22,0,1.58,1.58,0,0,1,.37.11,1.61,1.61,0,0,1,.28.17.49.49,0,0,1,.13.12h0a.91.91,0,0,1,.11.16,2.68,2.68,0,0,1,.07.27,1.61,1.61,0,0,1,0,.31,2.67,2.67,0,0,1-.16.57c0,.1-.1.2-.16.3l-.12.1h-.09a1,1,0,0,1-.24.05h-.33a6.22,6.22,0,0,1-1.17-.4,4.14,4.14,0,0,1-.68-.39,3.23,3.23,0,0,1-.37-.37,3.76,3.76,0,0,1-.32-.55,3.28,3.28,0,0,1-.18-.61,3.64,3.64,0,0,1,0-.66,6.61,6.61,0,0,1,.22-.76,5.08,5.08,0,0,1,.33-.66,4.18,4.18,0,0,1,.6-.59,4.61,4.61,0,0,1,.77-.46q.3-.1.6-.18a6.61,6.61,0,0,1,.89,0,7.23,7.23,0,0,1,1.58.42,8.27,8.27,0,0,1,1.53.87,6.29,6.29,0,0,1,.79.76,3.25,3.25,0,0,1,.33.57,2.52,2.52,0,0,1,.13.47,3.53,3.53,0,0,1,0,.65,5.41,5.41,0,0,1-.21.79,3.4,3.4,0,0,1-.31.52,4.69,4.69,0,0,1-.64.62c-.37.27-.76.5-1.14.74l-1,.58-1.23.73a12.39,12.39,0,0,0-1.31.87,7.24,7.24,0,0,0-.84.72,8,8,0,0,0-.87,1.06,11.45,11.45,0,0,0-.77,1.26,7.92,7.92,0,0,0-.62,1.43,5.19,5.19,0,0,0-.18,1.8,9.85,9.85,0,0,0,.12,1.43,7.62,7.62,0,0,0,.46,1.94,7.32,7.32,0,0,0,.88,1.6,9.35,9.35,0,0,0,3,2.26h0a15.18,15.18,0,0,1-2.24-2,7.59,7.59,0,0,1-.68-1.17,8.37,8.37,0,0,1-.51-1.84,12.06,12.06,0,0,1-.07-1.47v-1.31a4.35,4.35,0,0,1,.27-1,11.65,11.65,0,0,1,1.2-2,10.32,10.32,0,0,1,1.13-1.16,28.09,28.09,0,0,1,3.18-1.86l1-.55c.3-.17.6-.33.88-.51a6.63,6.63,0,0,0,1-.74,4.25,4.25,0,0,0,.79-1,4.64,4.64,0,0,0,.51-2.51,4.46,4.46,0,0,0-2.13-3.17,8.12,8.12,0,0,0-3.93-1.32Z" transform="translate(-26.5 -0.04)"/><path class="cls-5" d="M62.58,154.86Zm10.24-4.33Zm0,0Zm2.06-4.72a7,7,0,0,0-1.21-.1h-.51a9.24,9.24,0,0,0-1.18.1,10.71,10.71,0,0,0-2.55.64,12,12,0,0,0-1.8.88l-.79.52a17.91,17.91,0,0,0-2.35,1.81,14.18,14.18,0,0,0-2.14,2.63,16,16,0,0,0-1.14,3c-.14.45-.27.91-.4,1.36s-.27.94-.38,1.41a9,9,0,0,0-.22,3.66,16.15,16.15,0,0,0,.81,3.2h0c-.1-.59-.19-1.17-.28-1.75a2.76,2.76,0,0,0-.07-.76,2.09,2.09,0,0,1,0-.66,12.31,12.31,0,0,1,.08-1.61,13,13,0,0,1,.77-2.58c.28-.75.56-1.5.86-2.25l-.06.14c.09-.2.17-.41.26-.61h0v-.07a11.22,11.22,0,0,1,1.12-2.11c.31-.38.65-.74,1-1.1.19-.2.38-.39.58-.58a4.19,4.19,0,0,1,.45-.39,15.72,15.72,0,0,1,1.46-1l.92-.58a13.56,13.56,0,0,1,1.68-.9,11.12,11.12,0,0,1,2.32-.65c.35,0,.7-.06,1-.08s.83,0,1.25,0a3.22,3.22,0,0,1,.61.16,4.5,4.5,0,0,1,.67.39A9.76,9.76,0,0,1,77,149.25a5.27,5.27,0,0,1,.48.83,4.83,4.83,0,0,1,.29,1.07v.26l-.06.22a1.58,1.58,0,0,1-.15.24c-.1.11-.2.21-.31.31a3.74,3.74,0,0,1-.52.28,5.59,5.59,0,0,1-1.14.28,2.67,2.67,0,0,1-1.53-.15,3.22,3.22,0,0,1-.56-.34,4.36,4.36,0,0,1-.43-.43,4,4,0,0,1-.2-.35,2.85,2.85,0,0,1-.11-.39v-.29a2.17,2.17,0,0,1,.07-.24l.05-.08a1.89,1.89,0,0,1,.2-.2l.3-.17a5.41,5.41,0,0,1,.79-.21h.56a2,2,0,0,1,.91.36h0a2.16,2.16,0,0,1,.38.36,3.11,3.11,0,0,1,.25.38,2.77,2.77,0,0,1,.12.41v.13a3.51,3.51,0,0,1-.13.61h0a4.91,4.91,0,0,0,.24-.74,1.08,1.08,0,0,0-.07-.47,2.2,2.2,0,0,0-.57-.9,2.46,2.46,0,0,0-1.17-.59,3.57,3.57,0,0,0-1.13,0,2.14,2.14,0,0,0-1.12.49,1.52,1.52,0,0,0-.45,1,2.61,2.61,0,0,0,.9,2.07,3.86,3.86,0,0,0,2.52,1,4.77,4.77,0,0,0,2.78-.69,2.56,2.56,0,0,0,1-1.25,2.56,2.56,0,0,0,.05-1.44A5.49,5.49,0,0,0,78.07,148a9.2,9.2,0,0,0-1.35-1.37,3.91,3.91,0,0,0-.77-.5,4,4,0,0,0-1-.35Z" transform="translate(-26.5 -0.04)"/><path class="cls-5" d="M61.7,166Zm2.85-2Zm-1-1.44Zm0-.06Zm.72-.33Zm1.13-1.14v0Zm-.6-1.5h-.14a5.27,5.27,0,0,0-1.63.29A3.25,3.25,0,0,0,61.5,161a4,4,0,0,0-.64,1.64,8.13,8.13,0,0,0,.1,2.09,12.84,12.84,0,0,0,1,3.13h0c-.1-.57-.19-1.14-.29-1.7a2.66,2.66,0,0,0-.07-.74,2.09,2.09,0,0,1,0-.66V163.1a5.54,5.54,0,0,1,.21-.8,5.77,5.77,0,0,1,.4-.68,2.42,2.42,0,0,1,.32-.32,4.07,4.07,0,0,1,.53-.31,4.84,4.84,0,0,1,1-.23,4.21,4.21,0,0,1,.71,0,1.89,1.89,0,0,1,.34.09l.15.08a3,3,0,0,1,.25.25,5.39,5.39,0,0,1,.3.52,3.86,3.86,0,0,1,.2.74,2.29,2.29,0,0,1,0,.37,1.15,1.15,0,0,1-.1.35,1.57,1.57,0,0,1-.19.33l-.24.25a2.42,2.42,0,0,1-.39.21,2.64,2.64,0,0,1-.4.12h-.17a.68.68,0,0,1-.24-.08h.08a1.27,1.27,0,0,1-.27-.18.18.18,0,0,0,.07.05l-.28-.28c-.06-.1-.12-.2-.17-.3a2.75,2.75,0,0,1-.14-.49v-.26a.6.6,0,0,1,.09-.15h0l.08-.08h0a.57.57,0,0,1,.18-.12h0l.2-.07h.32c.22.1.42.23.63.35h0a1.88,1.88,0,0,0-.86-.58.92.92,0,0,0-.7.18,1,1,0,0,0-.31,1,2.08,2.08,0,0,0,.71,1.31,1.47,1.47,0,0,0,.92.32,2.47,2.47,0,0,0,.93-.21,2.34,2.34,0,0,0,1.07-.92,2.4,2.4,0,0,0,.31-.86,2.68,2.68,0,0,0,0-.8,3.52,3.52,0,0,0-.61-1.59,2.13,2.13,0,0,0-1.62-.9Z" transform="translate(-26.5 -0.04)"/><path class="cls-5" d="M77,137.76Zm2.27.13Zm.17-.18Zm0,0Zm.06-.19Zm-2.59-.14Zm1.15-4.5Zm3.53-1a4.22,4.22,0,0,0-1.88-.44h-.11a11.41,11.41,0,0,0-1.93.22,8.67,8.67,0,0,0-3.6,1.7,7.39,7.39,0,0,0-1.24,1.26c-.16.19-.31.39-.46.58a7.94,7.94,0,0,0-.63.89,6.53,6.53,0,0,0-.71,1.65,7.09,7.09,0,0,0-.26,2,19.43,19.43,0,0,0,.15,2h0a15.68,15.68,0,0,1,.15-2.16,7.53,7.53,0,0,1,.46-1.67v.06a7.41,7.41,0,0,1,.82-1.45c.24-.3.51-.59.78-.87a12.65,12.65,0,0,1,1.25-1.18,8.68,8.68,0,0,1,1.72-1,9.27,9.27,0,0,1,2-.55,8,8,0,0,1,1.83,0,3.22,3.22,0,0,1,.61.16,2.3,2.3,0,0,1,.4.23l.28.28c.08.13.16.27.23.41a5,5,0,0,1,.24.92,9.75,9.75,0,0,1,.06,1.87,3.86,3.86,0,0,1-.17.58,4,4,0,0,1-2.2,2.08,6.67,6.67,0,0,1-1.24.33,4.22,4.22,0,0,1-.87,0,3.19,3.19,0,0,1-.44-.13,4,4,0,0,1-.56-.35,4.42,4.42,0,0,1-.54-.52,3.1,3.1,0,0,1-.29-.5,3.06,3.06,0,0,1-.17-.59,2,2,0,0,1,0-.35,2.86,2.86,0,0,1,.07-.28l.13-.2.29-.29a2.84,2.84,0,0,1,.56-.33,6.56,6.56,0,0,1,1.06-.26,4.45,4.45,0,0,1,.73,0,3,3,0,0,1,.43.11,2.61,2.61,0,0,1,.28.17,3.7,3.7,0,0,1,.28.28,2.92,2.92,0,0,1,.29.48,1.91,1.91,0,0,1,.11.41v.16a1.21,1.21,0,0,1,0,.18l-.06.09a.8.8,0,0,1-.13.13,1.46,1.46,0,0,1-.3.17,4.15,4.15,0,0,1-.77.2h-.3a2.34,2.34,0,0,1-.38-.09L77.2,138l-.2-.22h0l-.12-.18v-.2c.09-.12.2-.22.31-.34h0l-.09.07h0c-.17.12-.4.25-.36.5a1.07,1.07,0,0,0,.21.41,1.11,1.11,0,0,0,.31.3,1.77,1.77,0,0,0,1.07.29,2.6,2.6,0,0,0,1.19-.28,1.24,1.24,0,0,0,.41-.38,1.38,1.38,0,0,0,.17-.52,2.3,2.3,0,0,0-.26-1.18,2.4,2.4,0,0,0-.92-1,2.31,2.31,0,0,0-.68-.25,5.29,5.29,0,0,0-.8-.06,4.13,4.13,0,0,0-2.71.86,2.29,2.29,0,0,0-.46.52,2.42,2.42,0,0,0-.29.73,2,2,0,0,0,0,.69,3,3,0,0,0,.12.72,3.85,3.85,0,0,0,.73,1.35,4.26,4.26,0,0,0,.52.52,3.53,3.53,0,0,0,.66.49,3.23,3.23,0,0,0,1.61.43,7.1,7.1,0,0,0,1.59-.17,6.09,6.09,0,0,0,3.26-2,3.65,3.65,0,0,0,.59-.91,3.51,3.51,0,0,0,.33-.94,6.7,6.7,0,0,0,0-2,5.9,5.9,0,0,0-.56-2.06,3.07,3.07,0,0,0-.52-.72,3,3,0,0,0-.74-.55Z" transform="translate(-26.5 -0.04)"/><path class="cls-5" d="M72.62,69.69v0Zm3-1.36a1.64,1.64,0,0,1,.38.1l.11.06.26.27h0a2.85,2.85,0,0,1-.5.14h-.22l-.25-.06-.27-.15-.06-.06h0A.57.57,0,0,1,75,68.5h0l.12-.07.28-.07h.18Zm-.05-2.8a7.45,7.45,0,0,0-1.16-.08h-.68a4.22,4.22,0,0,0-1,.13,2.15,2.15,0,0,0-1.27.83,1.74,1.74,0,0,0-.19,1.18,3.66,3.66,0,0,0,.1.74,4.91,4.91,0,0,0,.74,1.91,6.88,6.88,0,0,0,1.41,1.44,6.75,6.75,0,0,0,2.28,1h0a15.07,15.07,0,0,1-1.54-.94,9.18,9.18,0,0,1-1-1.07,4.27,4.27,0,0,1-.9-2.22,6.22,6.22,0,0,1,0-1.22v-.08l.06-.1h.06c.1-.07.2-.12.3-.18l.51-.13h.88q.61,0,1.23,0a4.44,4.44,0,0,1,.52.15,1.88,1.88,0,0,1,.75.59,3.37,3.37,0,0,1,.19.32,1.67,1.67,0,0,0,.08.3v.12a1.6,1.6,0,0,1,0,.21l-.08.12a1.89,1.89,0,0,1-.2.2l-.14.08a1.37,1.37,0,0,0-.33-.43,1.11,1.11,0,0,0-.39-.2,1.18,1.18,0,0,0-.92.11.5.5,0,0,0,0,.71s0,0,0,0a1.63,1.63,0,0,0,1,.56,2.42,2.42,0,0,0,1-.13,1.4,1.4,0,0,0,.62-.39,1.63,1.63,0,0,0,.37-.6,1.61,1.61,0,0,0,0-.69,2,2,0,0,0-.26-.76,2.51,2.51,0,0,0-.47-.65,3.16,3.16,0,0,0-.67-.48,2.8,2.8,0,0,0-.79-.3Z" transform="translate(-26.5 -0.04)"/><path class="cls-5" d="M71.38,68.61Zm5.82-6.28ZM77,62Zm.37-1L77.3,61Zm2-.8a3.73,3.73,0,0,0-1-.16,2.62,2.62,0,0,0-.79.08,1.48,1.48,0,0,0-1,1,1.56,1.56,0,0,0,.19,1.42,2.14,2.14,0,0,0,1.29.73h.46a.65.65,0,0,0,.34,0,.3.3,0,0,0,.14-.11.36.36,0,0,0,.06-.3v-.12a3.83,3.83,0,0,0-.29-.28h0l.16.2.07.11a.61.61,0,0,1,0,.19L79,63h-.21A6.14,6.14,0,0,1,78,62.8a3,3,0,0,1-.58-.34h0a1,1,0,0,1-.21-.21,1.61,1.61,0,0,1-.17-.28v-.11a1.5,1.5,0,0,1,0-.3,2.26,2.26,0,0,1,.11-.37.64.64,0,0,1,.08-.14.68.68,0,0,1,.12-.12.92.92,0,0,1,.28-.14h.08a2.62,2.62,0,0,1,.56,0A5.73,5.73,0,0,1,79,61a1.5,1.5,0,0,1,.68.51,3.18,3.18,0,0,1,.23.4,1.89,1.89,0,0,1,.09.34,2.26,2.26,0,0,1,0,.52,2.78,2.78,0,0,1-.11.5,1.5,1.5,0,0,1-.1.16,1.37,1.37,0,0,1-.17.17l-.25.15-.23.06a12.51,12.51,0,0,1-1.5,0H75a6.75,6.75,0,0,0-1.27.12,7.68,7.68,0,0,0-1.24.37,3.24,3.24,0,0,0-1.25.88,2.83,2.83,0,0,0-.6,1.33,4,4,0,0,0,0,1.2,4.64,4.64,0,0,0,.52,2,3.79,3.79,0,0,0,.93,1.1,11.91,11.91,0,0,0,1.26.83h0a13.93,13.93,0,0,1-1.23-1.2,3.67,3.67,0,0,1-.71-1.65,7.86,7.86,0,0,1,0-1.68,3.1,3.1,0,0,1,.15-.6,2.14,2.14,0,0,1,.25-.41,1.77,1.77,0,0,1,.77-.58A6.31,6.31,0,0,1,74,65.15h1.92c.45,0,1,.06,1.42.09s1,.06,1.45.06a3,3,0,0,0,.94-.15,2.42,2.42,0,0,0,.71-.42,2.34,2.34,0,0,0,.51-.66,2.63,2.63,0,0,0,.22-.82,2.6,2.6,0,0,0,0-1.11,2.51,2.51,0,0,0-.38-.87,3.36,3.36,0,0,0-.61-.64,2.52,2.52,0,0,0-.76-.4Z" transform="translate(-26.5 -0.04)"/><path class="cls-5" d="M72.75,62.37Zm-.27-.06Zm1.33-3.17a3.51,3.51,0,0,0-.72-.07h-.57a3.1,3.1,0,0,0-2.31,1.31,4.77,4.77,0,0,0-.69,3,9.15,9.15,0,0,0,.17,1.28c.12.49.28,1,.44,1.46h0c-.06-.52-.11-1-.13-1.56A5.61,5.61,0,0,1,70,64a4.72,4.72,0,0,1,.07-1,4.12,4.12,0,0,1,.31-1.09,4.71,4.71,0,0,1,.52-.93,3.23,3.23,0,0,1,.37-.37,3.3,3.3,0,0,1,.41-.23,3.54,3.54,0,0,1,.79-.21,5.57,5.57,0,0,1,1,0,1.67,1.67,0,0,1,.3.08,1.56,1.56,0,0,1,.28.16l.19.21a1.64,1.64,0,0,1,.14.22,2.44,2.44,0,0,1,.14.46v.13a1.68,1.68,0,0,1-.09.32,1.38,1.38,0,0,1-.17.25h0l.06-.07-.1.1a2.71,2.71,0,0,1-.37.21,4.68,4.68,0,0,1-.73.21h-.37a1,1,0,0,1-.25-.06.48.48,0,0,1-.16-.12h0l-.08-.1L72.19,62h0a.64.64,0,0,1-.08-.3h0l.06-.11.1-.09a1.15,1.15,0,0,1,.25-.12h0a1.63,1.63,0,0,0-.3.07.61.61,0,0,0-.31.26.7.7,0,0,0-.07.43,1.16,1.16,0,0,0,.21.5,1,1,0,0,0,.47.3,1.86,1.86,0,0,0,.62.09,2.91,2.91,0,0,0,1.33-.3,1.47,1.47,0,0,0,.6-.56,1.73,1.73,0,0,0,.24-.69A2.41,2.41,0,0,0,74.87,60a2,2,0,0,0-1.11-.75Z" transform="translate(-26.5 -0.04)"/><path class="cls-5" d="M78.61,56.06v0ZM76.05,56Zm0-.47Zm1-.09Zm.54-2.63a1.93,1.93,0,0,0-.48,0H77l-.53.06a3.08,3.08,0,0,0-2.15,1.08,3.07,3.07,0,0,0-.6,1.11,13,13,0,0,0-.32,1.37h0a8.65,8.65,0,0,1,.89-1.74,2.79,2.79,0,0,1,.46-.45,3.91,3.91,0,0,1,.65-.4,2.73,2.73,0,0,1,.56-.15,6.63,6.63,0,0,1,1.26,0,1.61,1.61,0,0,1,.36.1l.16.09a2.58,2.58,0,0,1,.32.34,3.65,3.65,0,0,1,.4.69,5.54,5.54,0,0,1,.21.8,2.94,2.94,0,0,1,0,.42v.12a.21.21,0,0,1-.06.1l-.17.18-.26.14a3.2,3.2,0,0,1-.61.15H77.3A2,2,0,0,1,77,56.7a2.6,2.6,0,0,1-.45-.28,2.72,2.72,0,0,1-.43-.4c0-.08-.11-.16-.16-.25s0,0,0-.07h0l.15-.1.42-.11a3.11,3.11,0,0,1,.61,0l.34.07h.12c.12.12.23.25.34.38h0a2,2,0,0,0-.27-.47,1.09,1.09,0,0,0-.41-.22,2.31,2.31,0,0,0-1.13-.16c-.33.06-.64.18-.7.54a.8.8,0,0,0,.13.5,3,3,0,0,0,.27.42,2.77,2.77,0,0,0,1,.83,2.07,2.07,0,0,0,1.18.14,2.73,2.73,0,0,0,.68-.18,1.57,1.57,0,0,0,1-1.36,3.52,3.52,0,0,0-.86-2.46,2,2,0,0,0-1.15-.72Z" transform="translate(-26.5 -0.04)"/><path d="M116.06,194.33Zm.87.12ZM95.37,193H96c1.08.06,2.15.11,3.23.15h1.16a8.46,8.46,0,0,1,.88.08c1,.09,2,.16,3,.26l3,.3,2.52.26c.88.1,1.76.18,2.63.25l2.4.18,1.34.08H113c-1.81,0-3.62,0-5.42-.06s-3.63,0-5.44-.06H91.37c-1.8-.06-3.6-.12-5.4-.2s-3.63-.18-5.45-.2L75,194c-1.88,0-3.77,0-5.65-.07s-3.87-.08-5.8-.13h0l1-.06c1.68-.12,3.36-.22,5-.32l2.83-.14,2.07-.09,3.31-.12h2.58c1.88,0,3.77,0,5.65-.06H93.6Zm-4.44-1.44H79.71c-1.91,0-3.82,0-5.72.08l-2.23.07-2.41.07-5.34.24-5.87.31-5.41.32c-.34,0-.67.06-1,.09l-1.72.16a8.74,8.74,0,0,0-1.25.17l-.88.12a5.05,5.05,0,0,0-.94.19.87.87,0,0,0,.24,1.71h.3c.23,0,.46-.05.69-.06H58.68c.88,0,1.77,0,2.65.07l5.42.14c1.64,0,3.28.09,4.93.12s3.46,0,5.19.08,3.59.05,5.37.14l5.44.3,3.64.18c.61,0,1.22,0,1.82,0,1.81,0,3.61.08,5.42.08s3.56,0,5.34-.06,3.53-.08,5.29-.18,3.55-.18,5.31-.35c2.57-.25,5.14-.52,7.71-.84h-3.3c-.65-.08-1.31-.14-2-.21h0l-.85-.11h0c-1.39-.19-2.78-.39-4.17-.61-1.67-.26-3.33-.55-5-.81-.86-.14-1.72-.28-2.58-.4l-3.44-.45c-.72-.1-1.43-.14-2.15-.19l-1.91-.14c-.28,0-.56-.06-.85-.06-1.68,0-3.36-.08-5-.08Z" transform="translate(-26.5 -0.04)"/></g></g></svg>