<svg id="Layer_3" data-name="Layer 3" xmlns="http://www.w3.org/2000/svg" xmlns:xlink="http://www.w3.org/1999/xlink" viewBox="0 0 156.42 138.31"><defs><linearGradient id="linear-gradient" x1="175.2" y1="91.17" x2="175.2" y2="129.6" gradientUnits="userSpaceOnUse"><stop offset="0" stop-color="#fff"/><stop offset="1"/></linearGradient><mask id="mask" x="121.85" y="106.27" width="42.39" height="32.04" maskUnits="userSpaceOnUse"><g transform="translate(-32.15 -2.37)"><rect x="154" y="108.64" width="42.39" height="24.43" style="fill:url(#linear-gradient)"/></g></mask></defs><g style="opacity:0.3"><path d="M133.57,77.13C117.31,75,123,115,116.5,129.94h-7.8c4.87-75.9-54.12-70.86-51-1.29H50.52c-5.21-15.12-6.51-45.19-6.83-60.3-2.93,3.57-6.34,5.36-11.54,6.18C37.68,55,58.64,11.79,87.25,12.11s31.36,40.14,42.58,41C155,55,138.28,7.24,146.24,2.37c1,1,3.9,1.94,4.72,3.08,4.54-1.14,17.64.12,22.72.6,12.55,1.19,14.53,17.33,3,16.63-10.73-.65-12.38-1-15,7.15-6.18,18.69.17,47.3-28.11,47.3Z" transform="translate(-32.15 -2.37)" style="fill:#b17f4a;fill-rule:evenodd"/><path d="M89.52,77.13c-10.57,6-19.5,23.56-18.2,51.52H64.17a111.2,111.2,0,0,1-4.07-20.33C62.22,95,67.26,85.57,73.43,80.54a16.67,16.67,0,0,1,10.89-4.39,13.89,13.89,0,0,1,5.2,1Z" transform="translate(-32.15 -2.37)" style="fill:#b17f4a;fill-rule:evenodd"/><path d="M134.37,116.78c2.28,1,4.07,2,6.67,2.11,5.85-27.63,11.54-20.64-9.75-38.19-4.06,1.62-5.53,7.48-6.34,13.65,14.46,8.29,10.73,4.71,9.42,22.43Z" transform="translate(-32.15 -2.37)" style="fill:#b17f4a;fill-rule:evenodd"/><path d="M158.27,12.13a2.39,2.39,0,1,1-2.38-2.39A2.38,2.38,0,0,1,158.27,12.13Z" transform="translate(-32.15 -2.37)" style="fill:#fff;fill-rule:evenodd"/><g style="mask:url(#mask)"><path d="M171.51,139.67a.44.44,0,0,1-.21-.37l0-.05h0a.55.55,0,0,1-.27-.31.68.68,0,0,1,0-.4.44.44,0,0,1,.52-.32.81.81,0,0,1,.22-.07,1.55,1.55,0,0,1,.74.07,1.77,1.77,0,0,1,.34.16l.14.1a1.46,1.46,0,0,1,.16.19.64.64,0,0,1,.07.33.45.45,0,0,1,0,.16.72.72,0,0,1-.14.24l-.14.1a1.21,1.21,0,0,1-.2.09,1.4,1.4,0,0,1-.41.06,1.13,1.13,0,0,1-.26,0,.5.5,0,0,1-.29.09.46.46,0,0,1-.23-.05Z" transform="translate(-32.15 -2.37)" style="fill:#3c5412"/><path d="M171.86,139.72l-.27-.07a1.11,1.11,0,0,1-.38-.22.77.77,0,0,1-.3-.77.79.79,0,0,1,.21-.38,1,1,0,0,1,.38-.23l.11,0a2.42,2.42,0,0,0-.1-.36.54.54,0,0,0-.07-.13l-.08-.08-.14-.08a3.5,3.5,0,0,0-.64-.15l-.25,0-.1,0A.61.61,0,0,1,170,136a1,1,0,0,1,.33-.14,3.65,3.65,0,0,1,.46-.07c.17,0,.35,0,.53,0l.7,0,.64,0c.33,0,.66.09,1,.15a.59.59,0,0,1,.35.27.57.57,0,0,1-.21.79.58.58,0,0,1-.45.06l-.49-.08-.37,0,.06.11a2.45,2.45,0,0,1,.23.8,3,3,0,0,1,0,.42.06.06,0,0,0,0,0,.83.83,0,0,1,.21.16.76.76,0,0,1,.19.46.78.78,0,0,1-.42.68,1.13,1.13,0,0,1-.47.12h-.11l-.31,0Z" transform="translate(-32.15 -2.37)" style="fill:#676767"/><path d="M171.45,135.6l.06-.08a.49.49,0,0,0,.2,0l.12,0a.41.41,0,0,0,.24-.17v0a2.47,2.47,0,0,0,.19.36l0,.06,0,.06a4.13,4.13,0,0,0-.51-.1l-.49-.06v-.05l.12-.09Zm2.33,2.06h0a.45.45,0,0,0,.44-.45.25.25,0,0,0,0-.12.49.49,0,0,0,.11-.18.46.46,0,0,0-.31-.56l-.08,0-.12,0a.44.44,0,0,0-.29-.1h-.1a.43.43,0,0,0,.22-.12.45.45,0,0,0,.1-.14l.1,0a.45.45,0,0,0,.27-.2.6.6,0,0,0,.06-.52c0-.07,0-.13,0-.2s-.06-.23-.1-.35v0c-.05-.18-.11-.36-.16-.55l-.05-.19c-.13-.46-.24-.91-.32-1.3s-.2-.86-.28-1.24l-.06-.84,0-.43c0-.36-.07-.73-.1-1.09l0-.37c0-.14,0-.27,0-.41v-.13l0-.28c0-.2,0-.4-.08-.59l-.06-.4-.06-.4a4.34,4.34,0,0,0-.09-.52l0-.18c-.08-.43-.15-.86-.21-1.28v-.08a1.09,1.09,0,0,0,.08-.15s0,0,0,0h0l.18,0,.12,0a.39.39,0,0,0,.23-.07.36.36,0,0,0,.15-.15.78.78,0,0,0,.15-.16,1.82,1.82,0,0,0,.29-.69l.11-.18.07-.12v0a.46.46,0,0,0,.22.14l.28.05a.72.72,0,0,0,.33-.11,2.38,2.38,0,0,0,.27-.23.48.48,0,0,0,.39-.22l.35-.67,0,0,.07-.09.19-.3.08-.1.15-.23.12-.2c.1-.15.2-.31.29-.47l.05-.1a2.54,2.54,0,0,0,.16-.28,1,1,0,0,1,.08-.14,3.1,3.1,0,0,0,.21-.45.4.4,0,0,0,0-.32.44.44,0,0,0-.27-.23h-.12l0-.08a.49.49,0,0,0-.16-.16.43.43,0,0,0-.22-.06.5.5,0,0,0-.21,0,.19.19,0,0,0-.06-.07.44.44,0,0,0-.31-.13.46.46,0,0,0-.23.06l-.24.18v0a.46.46,0,0,0-.06-.23.48.48,0,0,0-.39-.22l-.38,0-.59,0-1.38-.09-1.68-.1-1.39-.07h-.42l-.4,0h-.71a1.61,1.61,0,0,0-.58.09.51.51,0,0,0-.26.21.43.43,0,0,0-.06.22.41.41,0,0,0,0,.19.35.35,0,0,0-.08.13l-.17,0h-.08a.45.45,0,0,0-.37.22.43.43,0,0,0,0,.45,1.75,1.75,0,0,0,.28.33l.15.12.11.11.06,0,0,0,.06.06.15.17.18.21a.43.43,0,0,0-.11.12.45.45,0,0,0,0,.45,1.31,1.31,0,0,0,.23.31l0,0,.09.1.24.25.33.34v.12a.94.94,0,0,0,0,.16.56.56,0,0,0,.15.25,6.91,6.91,0,0,0,1,1,7.67,7.67,0,0,0,.89.64l.42.22a2.67,2.67,0,0,0,.34.15c0,.07,0,.15,0,.22l0,.09a3.84,3.84,0,0,0,.17.62.54.54,0,0,0-.22,0,.45.45,0,0,0-.2.27c0,.3-.07.6-.09.9v.11c0,.07,0,.15,0,.22s-.05.27-.07.4c-.07.37-.14.76-.2,1.14l0,.11a8.06,8.06,0,0,0-.31,1.33,14,14,0,0,0-.11,2.18c0,.34,0,.7,0,1.11a9.25,9.25,0,0,0,.1,1,3.75,3.75,0,0,0,.19.75v0h0a3.24,3.24,0,0,0,0,.46.86.86,0,0,0,0,.24l0,0a.49.49,0,0,0-.2.11.44.44,0,0,0-.13.32.63.63,0,0,0,0,.19.47.47,0,0,0-.12.32.44.44,0,0,0,.22.38,1.05,1.05,0,0,0,.46.16l.09,0,.44.08.93.14.18,0c.54.07,1.1.14,1.65.16Z" transform="translate(-32.15 -2.37)" style="fill:#d4932b"/><path d="M170.1,121.49s0-.1-.08-.16l.28,0v.21s0,.08,0,.12l-.1,0h.1v.27l-.19-.42Zm.4,14.8c0-.17-.08-.35-.11-.53a6.7,6.7,0,0,1,0-1.55s0-.07,0-.1l0,.25c0,.3,0,.6,0,.9s0,.36,0,.53,0,.33,0,.5Zm.58.87h0Zm.62,1.93h0a15.67,15.67,0,0,1-.4-1.64l0-.16a.14.14,0,0,0-.1-.1l-.13,0-.08,0,.1,0a.41.41,0,0,0,.3-.4c0-.25,0-.5,0-.74a.65.65,0,0,0,.13-.16.49.49,0,0,0,.06-.17,2,2,0,0,0,0-.35c0-.14,0-.28,0-.42s0-.38,0-.57c-.06-.95-.13-1.89-.18-2.84v-1.17c0-1,0-2,0-3v0l0,0a.53.53,0,0,0,.15-.36c0-.34,0-.67,0-1s0-.58,0-.87a.31.31,0,0,0,0-.19c0-.64,0-1.28-.05-1.91l0-1c0-.15,0-.3,0-.45s0-.42,0-.64a.26.26,0,0,0,0-.15.86.86,0,0,0,0-.16h0a.55.55,0,0,0,.18-.16.41.41,0,0,0,.12-.32l.37,0a.46.46,0,0,0,.46-.47.51.51,0,0,0-.13-.33.45.45,0,0,0-.21-.12,1.6,1.6,0,0,0-.23,0h-.06a.59.59,0,0,0,0-.23.48.48,0,0,0-.46-.35l-.33,0h0a.46.46,0,0,0-.23-.31l-.21-.08-.17,0-.19-.05-.31-.08-.67-.14c-.21,0-.43-.07-.64-.1a5.82,5.82,0,0,0-.93-.07,4,4,0,0,0-.49,0,1.37,1.37,0,0,0-.41.1.49.49,0,0,0-.31.69h0a.45.45,0,0,0-.2,0,.7.7,0,0,0-.21.11.39.39,0,0,0-.15.16.37.37,0,0,0-.06.21.47.47,0,0,0,.12.3l.18.2a.37.37,0,0,0,0,.23.64.64,0,0,0,.14.22.12.12,0,0,0,0,0c.22.32.44.64.67,1l.35.46.47.6c.25.3.51.59.77.88s.51.54.78.79a2.79,2.79,0,0,0,.48.43.62.62,0,0,0,.24.08l.07,0a1.51,1.51,0,0,0,.11.22c.05.11.11.21.16.31v.11c0,.12,0,.23,0,.34s0,.39,0,.58,0,.35,0,.52,0,.46,0,.7a.46.46,0,0,0,.14.35c0,.2,0,.39,0,.59v.39a.74.74,0,0,0,0,.14c0,.52-.05,1.05-.07,1.57v0c0,.08,0,.17,0,.26s0,.45-.05.67,0,.64,0,.95a.43.43,0,0,1,0,.05.19.19,0,0,1,0,.07c0,.13-.08.26-.13.39s-.17.5-.24.75a7.69,7.69,0,0,0-.18,1,5.61,5.61,0,0,0,0,1.16,4.73,4.73,0,0,0,.22,1,2.27,2.27,0,0,0,.48.84,1.19,1.19,0,0,0,.36.26l.18.05h0c.08.24.16.48.26.72l.39.91Z" transform="translate(-32.15 -2.37)" style="fill:#fff;opacity:0.45"/><path d="M171.07,140.68a.19.19,0,0,1,0-.08,2.18,2.18,0,0,1,.11-.27.66.66,0,0,1,.24-.23.67.67,0,0,1,.5-.07.61.61,0,0,1,.18.09.55.55,0,0,1,.29.08.66.66,0,0,1,.29.37l0,.11Z" transform="translate(-32.15 -2.37)"/><path d="M171.9,138.48h0Zm-.26,0h0Zm-.2,0,.05,0-.05,0Zm.85.1h0Zm-1.07.09s0,0,0,0,0,0,0,0Zm0,0v0Zm1.27,0,0,0,0,0Zm.06.14,0-.06,0,.06Zm-1.29.22,0,0,0,0Zm1.32.1Zm-.37.14a1.82,1.82,0,0,1-.33,0,2.26,2.26,0,0,1-.37-.11,2.58,2.58,0,0,1-.32-.18h0a1,1,0,0,1,0-.25.74.74,0,0,1,0-.14l.09-.14a.1.1,0,0,1,0,.05l.06,0a.41.41,0,0,1,.11-.07l.18,0a1.82,1.82,0,0,1,.33,0l.14,0a2,2,0,0,1,.25.14.76.76,0,0,1,.09.09.75.75,0,0,1,.07.12l0,.15s0,.08,0,.13v0l0,.05-.06.07.05,0a.76.76,0,0,1-.16.11l-.12,0Zm-.67.92a2.42,2.42,0,0,0,.46.06h.14a2.26,2.26,0,0,0,.68-.17,1.34,1.34,0,0,0,.42-.33,1.15,1.15,0,0,0,.05-1.25,1.4,1.4,0,0,0-.36-.47,1.34,1.34,0,0,0-.39-.36,1.77,1.77,0,0,0-.57-.2,2,2,0,0,0-.69,0,1.76,1.76,0,0,0-.55.22,2.48,2.48,0,0,0-.3.25,1.17,1.17,0,0,0-.29.93,1.33,1.33,0,0,0,.71,1,2.28,2.28,0,0,0,.69.28Z" transform="translate(-32.15 -2.37)"/><path d="M169.91,136.64h0l0,0,0,0Zm-.16.2v0Zm3.47-.08a10.39,10.39,0,0,1-2.43.08,6.12,6.12,0,0,1-.87-.2,5.12,5.12,0,0,1,.52-.27l.11,0a7,7,0,0,1,1.58,0,8.33,8.33,0,0,1,1.47.37l-.38.07Zm-.95,1.22h.83a3.09,3.09,0,0,0,2-.63,1,1,0,0,0,.23-.41l0-.23a.55.55,0,0,0-.09-.3l-.13-.17-.18-.14-.26-.11c-.35-.15-.7-.32-1.06-.44a6,6,0,0,0-2.19-.34,5.88,5.88,0,0,0-1.25.17,2.7,2.7,0,0,0-.9.4,1.15,1.15,0,0,0-.51.69.76.76,0,0,0,0,.47.63.63,0,0,0,.2.26,1.28,1.28,0,0,0,.37.23,2.32,2.32,0,0,0,.51.16,3.5,3.5,0,0,0,.45.07h0a7.32,7.32,0,0,0,1.91.3Z" transform="translate(-32.15 -2.37)"/><path d="M169.94,135.74c-.05-.9-.1-1.8-.16-2.69s-.11-1.6-.14-2.4,0-1.47,0-2.21V128a.76.76,0,0,1,0-.15c-.05-.75-.12-1.51-.12-2.26a3,3,0,0,1,0-.31.62.62,0,0,1,.18-.43.61.61,0,0,1,.6-.16.63.63,0,0,1,.45.61,10.47,10.47,0,0,1,0,1.12l-.06,1.26c0,.74-.08,1.48-.17,2.22l-.12,1c0,.59-.07,1.18-.11,1.77-.06.8-.14,1.59-.25,2.38l-.09.62Z" transform="translate(-32.15 -2.37)"/><path d="M173.85,134.94h0Zm-.57-9.59a.2.2,0,0,0,0-.07.2.2,0,0,1,0,.07Zm.62,10h0c0-.14,0-.28-.05-.43h0c-.06-.46-.13-.91-.2-1.37v0c-.09-.72-.17-1.44-.23-2.16s-.09-1.36-.12-2.05,0-1.35,0-2c0-.36,0-.73,0-1.09a7.1,7.1,0,0,0,0-1,.5.5,0,0,0-.08-.27.55.55,0,0,0-.2-.2.56.56,0,0,0-.42,0,.55.55,0,0,0-.41.55,6.54,6.54,0,0,0,0,1.17c0,.4,0,.78.06,1.18,0,.2,0,.41.06.61s.06.39.08.58c.08.49.17,1,.28,1.48,0,.2,0,.39.08.59a38.64,38.64,0,0,0,1.05,4.5h0l-.06-.75c.07.26.14.51.22.75Z" transform="translate(-32.15 -2.37)"/><path d="M171,125.8a1.35,1.35,0,0,1-.35-.06,3.27,3.27,0,0,1-.33-.14,2,2,0,0,1-.4-.24,5.91,5.91,0,0,1-1.15-.73,6.15,6.15,0,0,1-.87-.9,4.16,4.16,0,0,1-.42-.42,11.3,11.3,0,0,1-1-1.23c-.14-.2-.26-.42-.39-.63a6.07,6.07,0,0,1-.57-1.21,1.12,1.12,0,0,1,0-.13c-.06-.14-.12-.27-.17-.4a4.75,4.75,0,0,1-.17-.49c0-.06,0-.13-.05-.2a1.09,1.09,0,0,1,0-.26.7.7,0,0,1,.33-.63.68.68,0,0,1,.91.24,2.62,2.62,0,0,1,.15.39l.13.34c.2.44.42.85.65,1.26l.53.94a19.71,19.71,0,0,0,1.35,2.06l0,0a9.72,9.72,0,0,0,1.77,1.1l.23.09h0a.47.47,0,0,1,.15.06.62.62,0,0,1,.23.85.64.64,0,0,1-.51.31Z" transform="translate(-32.15 -2.37)"/><path d="M172.7,125.23a.59.59,0,0,1,.09-.71l.07,0a9.59,9.59,0,0,0,.81-.88c.2-.23.4-.46.59-.7l.18-.24.34-.5c.11-.17.21-.34.31-.51a13.14,13.14,0,0,0,.9-1.8l.09-.31a4.52,4.52,0,0,0,.12-.62c0-.1,0-.2,0-.3a.5.5,0,0,1,0-.12h0a.57.57,0,0,1,.16-.27.58.58,0,0,1,.12-.1c0-.07,0-.15.05-.23h0c0,.07,0,.14,0,.21a.62.62,0,0,1,.87.39,2.85,2.85,0,0,1,0,1,4.47,4.47,0,0,1-.26,1,.78.78,0,0,1,0,.14c-.05.27-.11.54-.18.8a7,7,0,0,1-.49,1.16,4.91,4.91,0,0,1-1.47,1.73,3,3,0,0,1-.76.39.39.39,0,0,1-.08.1,4.25,4.25,0,0,1-.4.46l-.21.16a.82.82,0,0,1-.35.09h0a.58.58,0,0,1-.47-.3Z" transform="translate(-32.15 -2.37)"/><path d="M172.67,118.82c-1.37,0-2.74-.09-4.11-.12l-1.67-.06-.74,0h-.4a4.36,4.36,0,0,0-.51,0,.63.63,0,0,1-.33-.09.65.65,0,0,1-.3-.39.69.69,0,0,1,0-.35.75.75,0,0,1,.3-.4.91.91,0,0,1,.35-.15l.39,0,.25,0h.63a4.21,4.21,0,0,1,.5,0h.5l2.27.14.8.05,3.43-.1,1.7,0,1.1-.1.14,0a.85.85,0,0,1,.23,0,.69.69,0,0,1,.66.5.73.73,0,0,1,0,.36.69.69,0,0,1-.31.4.79.79,0,0,1-.31.17l-.33.08-.26,0-.7.09c-.35,0-.69.06-1,.07l-1.49,0Z" transform="translate(-32.15 -2.37)"/><path d="M173.58,138.48l0,0,0,0Zm4.24,2.2-.47-.38-.12-.09L177,140c-.28-.26-.58-.51-.87-.76l-.93-.78-.51-.41-.37-.29-.29-.19-.19-.08-.19-.06a.44.44,0,0,0-.51.21h0l-.1-.06h0l.09.07a.49.49,0,0,0,0,.44.7.7,0,0,0,.14.16.42.42,0,0,0,.14.09l.06,0c.37.33.72.68,1.1,1s.78.63,1.18.92a.35.35,0,0,0,.13.11l.31.24Z" transform="translate(-32.15 -2.37)"/><path d="M178.15,140.68a1.6,1.6,0,0,1,.25-.37.42.42,0,0,1,.37-.12.59.59,0,0,1,.33-.11.55.55,0,0,1,.39.16.58.58,0,0,1,.15.44Z" transform="translate(-32.15 -2.37)"/><path d="M177.51,140.68l-.59-.45c-.31-.25-.61-.5-.9-.77l-.77-.71c-.29-.27-.61-.5-.9-.76a0,0,0,0,1,0-.06,1,1,0,0,1,.28.14h0l.6.32-1.1-.95h0c.58.33,1.16.68,1.74,1l.45.28c.21.14.42.28.64.41.45.26.89.53,1.33.8l.56.34a1.79,1.79,0,0,1,.52.38Z" transform="translate(-32.15 -2.37)"/><path d="M168.71,128.68l-.47,0,.33-.44c.23-.26.45-.52.69-.78l.46-.48a9.29,9.29,0,0,1,1-.94c.41-.31.84-.61,1.26-.91l.62-.42a9.31,9.31,0,0,1,1.43-.76l1.67-.67.89-.35a8.7,8.7,0,0,1,1.66-.46,11.66,11.66,0,0,1,2,0c.57,0,1.14.07,1.71.14a10.14,10.14,0,0,1,2.28.62,8.72,8.72,0,0,1,1.65,1,5.39,5.39,0,0,1,.76.75,2.36,2.36,0,0,1,.24.4,3.45,3.45,0,0,1,.12.43,6.52,6.52,0,0,1,0,1,4.24,4.24,0,0,1-.17.61,3.85,3.85,0,0,1-.36.62,4.72,4.72,0,0,1-.68.66,4.09,4.09,0,0,1-.82.5,6.17,6.17,0,0,1-1.28.33,18.87,18.87,0,0,1-2.13.08h-1.9c-1.55,0-3.09-.11-4.64-.21s-3-.32-4.46-.47l-1.32-.14c-.17,0-.35,0-.52,0Zm-11.49,10.07a.07.07,0,0,1,0-.05.07.07,0,0,0,0,.05Zm27.45,1.93a7,7,0,0,0,.39-1.85c0-.21,0-.41,0-.61a5.18,5.18,0,0,0-.14-1.62,5.45,5.45,0,0,0-1.43-2.58,6.34,6.34,0,0,0-2.72-1.61,7.65,7.65,0,0,0-1.65-.25,6.39,6.39,0,0,0-1.51.09,9,9,0,0,0-2.56,1c-.24.14-.48.27-.71.42a9.85,9.85,0,0,0-1.11.81l-.51.42c-.15.12-.29.26-.44.39a20.68,20.68,0,0,0-1.56,1.68c-.5.6-1,1.22-1.45,1.84-.22.28-.45.54-.68.82l-.34.39c-.14.15-.27.31-.41.45l-.19.2h1.92l.15-.18c.49-.59,1-1.18,1.44-1.78s1-1.19,1.54-1.76a9,9,0,0,1,.78-.73c.3-.26.6-.52.92-.76a10.32,10.32,0,0,1,1.18-.76,10,10,0,0,1,1.08-.56,6.8,6.8,0,0,1,1.46-.43,7.2,7.2,0,0,1,1.54,0,5.81,5.81,0,0,1,1.24.33,6.12,6.12,0,0,1,1.13.67,5.17,5.17,0,0,1,.78.77,4.48,4.48,0,0,1,.52.9,5.32,5.32,0,0,1,.32,1.1,8.35,8.35,0,0,1,0,1c0,.33,0,.66-.05,1a6.79,6.79,0,0,1-.29,1.16Zm-6.94,0L176.6,140h0l.78.73Zm-13,0a8.65,8.65,0,0,1-.16-.86,10.77,10.77,0,0,1-.08-1.5c0-.27,0-.53,0-.8s0-.55.06-.83l.09-.75a14,14,0,0,1,.86-3.05,8.5,8.5,0,0,1,.66-1.23l.42-.64.58-.89.17-.25h.72c.4,0,.8,0,1.19.05l2.58.24c.7.06,1.4.14,2.1.19s1.64.1,2.45.14,1.58.05,2.37.06,1.44,0,2.17,0a20.69,20.69,0,0,0,3.34-.13,5.46,5.46,0,0,0,1.64-.49,6.52,6.52,0,0,0,1.28-.86,4.15,4.15,0,0,0,.54-.57,3.22,3.22,0,0,0,.41-.65,3.55,3.55,0,0,0,.26-.71,7.19,7.19,0,0,0,.13-.81,3.52,3.52,0,0,0-.32-1.81,3.23,3.23,0,0,0-.44-.65,4,4,0,0,0-.49-.52,8.88,8.88,0,0,0-2.86-1.64,11.72,11.72,0,0,0-3-.62l-1.28-.09c-.43,0-.86,0-1.29,0a6.82,6.82,0,0,0-1.69.23c-.3.09-.6.19-.89.3-.72.27-1.43.56-2.14.85a13.36,13.36,0,0,0-2.09,1q-.51.31-1,.66l-1,.73a9.37,9.37,0,0,0-1.18,1l-.52.54a15.54,15.54,0,0,0-1.51,1.84l-.34.48-.91,0c-.39,0-.77,0-1.16,0a13.18,13.18,0,0,0-2.58.39,7.7,7.7,0,0,0-4.06,2.43,8.84,8.84,0,0,0-.92,1.26,9.14,9.14,0,0,0-.73,1.51,6.7,6.7,0,0,0-.24.76c0,.26-.09.53-.12.8a12.35,12.35,0,0,0,0,1.72,12.66,12.66,0,0,0,.15,1.63,8.38,8.38,0,0,0,.35,1.48h1.47l-.1-.21a8.52,8.52,0,0,1-.47-1.85c-.06-.47-.09-1-.11-1.43a9.94,9.94,0,0,1,0-1.54,4.69,4.69,0,0,1,.14-.65c.08-.22.16-.45.25-.67a6.15,6.15,0,0,1,.41-.81,8.13,8.13,0,0,1,.52-.78,7.69,7.69,0,0,1,1.2-1.22,6.91,6.91,0,0,1,1.39-.81,11,11,0,0,1,2.52-.66c.72-.09,1.44-.13,2.16-.15-.07.11-.14.21-.2.32-.25.37-.5.74-.72,1.13s-.28.52-.4.8-.18.42-.26.64l-.21.62c-.11.3-.2.6-.28.91a11.16,11.16,0,0,0-.29,1.53c0,.34-.08.69-.1,1s0,.82,0,1.22,0,.52,0,.78a11.18,11.18,0,0,0,.19,1.62l0,.17Z" transform="translate(-32.15 -2.37)"/><path d="M172.76,119.54Zm1.51.07v0Zm0,.16a0,0,0,0,0,0,0,0,0,0,0,1,0,0Zm-.73.34h0Zm-.23,0h0Zm2,.93h0Zm-.41.22,0,0,0,0Zm-2.1.69a1.93,1.93,0,0,0,.71.12,3.91,3.91,0,0,0,.49,0,3.85,3.85,0,0,0,.49-.08l.37-.13a2.17,2.17,0,0,0,1.18-1.06,4.52,4.52,0,0,0,.18-.47,5.5,5.5,0,0,0,.16-.58,14.23,14.23,0,0,0,.2-1.46h0c-.14.5-.27,1-.46,1.51a0,0,0,0,0,0,0l-.13.31a4,4,0,0,1-.38.7l-.26.26a2.3,2.3,0,0,1-.4.23,3.46,3.46,0,0,1-.7.19l-.45,0h-.44a1.57,1.57,0,0,1-.29-.08,2,2,0,0,1-.25-.14,1.31,1.31,0,0,1-.2-.21,1.4,1.4,0,0,1-.16-.26,3.25,3.25,0,0,1-.11-.42,3,3,0,0,1,0-.6,2,2,0,0,1,.08-.31,1.62,1.62,0,0,1,.1-.18l.16-.16.2-.11a1.91,1.91,0,0,1,.41-.11h.24l.2.06.18.11a1.7,1.7,0,0,1,.19.19l.09.16a1,1,0,0,1,.07.25.17.17,0,0,1,0,.1.13.13,0,0,0,0-.06.27.27,0,0,1,0,.12s0,0,0,0l-.07.07L174,120a2.09,2.09,0,0,1-.43.11h-.29l-.17,0L173,120a.63.63,0,0,1-.11-.12.26.26,0,0,1-.05-.09h0a.74.74,0,0,1,0-.14.31.31,0,0,1,0-.1.76.76,0,0,1,0-.11h0l.13-.23h0c-.06.07-.12.13-.17.2a.29.29,0,0,0-.07.12.6.6,0,0,0,0,.35.64.64,0,0,0,.22.29.71.71,0,0,0,.3.15,1.38,1.38,0,0,0,.45,0,1.44,1.44,0,0,0,.41,0,1,1,0,0,0,.38-.19.77.77,0,0,0,.2-.35,1.13,1.13,0,0,0,0-.26,1.84,1.84,0,0,0-.05-.25,1.33,1.33,0,0,0-.17-.36,1.62,1.62,0,0,0-.37-.37,1.41,1.41,0,0,0-.39-.19,1.36,1.36,0,0,0-.49,0,1.61,1.61,0,0,0-1,.35,1.26,1.26,0,0,0-.31.34,1.89,1.89,0,0,0-.27.84,2.67,2.67,0,0,0,0,.4,3.11,3.11,0,0,0,.06.44,1.89,1.89,0,0,0,.39.79,1.75,1.75,0,0,0,.69.49Z" transform="translate(-32.15 -2.37)" style="opacity:0.4"/><path d="M172.2,134Zm0-1.65a.08.08,0,0,1,0,0,.08.08,0,0,0,0,0Zm0,0a.08.08,0,0,1,0,0,.08.08,0,0,0,0,0Zm.35,1.11h0Zm.19.18v0Zm-.31.19h0Zm-.31.31v0Zm.06.27v0Zm.19.18h0Zm-.13.22a.7.7,0,0,0,.25,0h.08a1,1,0,0,0,.37-.12.7.7,0,0,0,.16-.13.48.48,0,0,0,.12-.17.93.93,0,0,0,.09-.4,3.16,3.16,0,0,0,0-.32,1.15,1.15,0,0,0-.21-.43l-.21-.23a5.82,5.82,0,0,1-.6-.62l-.09-.15v-.05a.14.14,0,0,1,0-.06v0l0,0,.22-.14a1.18,1.18,0,0,0,.47-.47A.84.84,0,0,0,173,131a1,1,0,0,0-.17-.52,4.37,4.37,0,0,0-.37-.48c-.12-.15-.25-.27-.37-.42a.64.64,0,0,1-.08-.14,1.52,1.52,0,0,1-.06-.2,1.7,1.7,0,0,1,0-.22.77.77,0,0,1,.07-.26l.06-.12c.15-.17.33-.29.47-.46a.88.88,0,0,0,.23-.53.87.87,0,0,0-.1-.42c-.19-.29-.45-.53-.67-.81l-.12-.19,0-.15a3.37,3.37,0,0,1,0-.84,1.55,1.55,0,0,1,.08-.36l.09-.15.07-.07a.76.76,0,0,1,.23-.13c.13-.06.26-.1.39-.15h0l-.42.07a.9.9,0,0,0-.27.11.91.91,0,0,0-.35.49,3.14,3.14,0,0,0-.15.8,1.27,1.27,0,0,0,0,.55,2.5,2.5,0,0,0,.29.5,5.8,5.8,0,0,1,.34.52.19.19,0,0,1,0,.08.19.19,0,0,1,0,.08.19.19,0,0,0,0,.07l-.06.09a1.7,1.7,0,0,1-.24.22,1.09,1.09,0,0,0-.26.22,1.42,1.42,0,0,0-.29.47,1.5,1.5,0,0,0,0,1.12,2.67,2.67,0,0,0,.43.57l.27.32-.06-.07.08.09a0,0,0,0,1,0,0,1.64,1.64,0,0,1,.14.22,1,1,0,0,1,0,.17.57.57,0,0,1,0,.13.07.07,0,0,1,0,.05l0,.06-.17.16-.16.11a1.92,1.92,0,0,0-.17.13,1,1,0,0,0-.12.17.79.79,0,0,0-.09.52.92.92,0,0,0,.27.49,4.72,4.72,0,0,0,.41.37l.29.23.26.23.07.11c0,.1,0,.19.07.28v.17s0,0,0,.06a.47.47,0,0,1,0,.1l-.09.09-.13.08-.15,0h0a.15.15,0,0,1-.09,0l0,0-.08-.08,0-.06a1.52,1.52,0,0,1-.06-.2h0v-.1a.19.19,0,0,1,0-.08.18.18,0,0,1,0-.07h0v0h0l.07-.06h0l.08-.05h0l.12,0h.1l.18.1h0a1,1,0,0,0-.16-.13.68.68,0,0,0-.2,0,.38.38,0,0,0-.25.11.43.43,0,0,0-.15.28,1,1,0,0,0,.05.38.53.53,0,0,0,.23.26Z" transform="translate(-32.15 -2.37)" style="opacity:0.4"/><path d="M184,117.4Zm-.15-.07Zm.09,0Zm0,0h0Zm-18.62.55-1.12-.09-1-.12h0c1.38-.06,2.77-.09,4.15-.12s2.78,0,4.16,0,2.5,0,3.74-.07l1.42,0c.27,0,.55,0,.83,0h.33l-.16,0-.53,0-.56,0-1.07.08-1.17.07-2.13.11-2,.09-1.79.08-1.31,0c-.3,0-.6,0-.89,0s-.6,0-.9,0Zm9.31.42.72,0h.23l1.27-.06.81-.06,1.34-.11a11.32,11.32,0,0,0,1.53-.24,4.41,4.41,0,0,0,.71-.2.47.47,0,0,0,.15-.06.82.82,0,0,0,.19-.09l.18-.14h1c.38,0,.76,0,1.13,0h0l0,0h0l0,0h0l0,.07h0s0-.11-.07-.15-.09,0-.14,0h0l-.6,0-.49,0-.87,0a.5.5,0,0,0,.05-.13.34.34,0,0,0,0-.2.36.36,0,0,0-.27-.26.74.74,0,0,0-.33,0l-.11,0-.11,0c-.48.06-.95.09-1.42.11-1.4.07-2.79.11-4.18.15l-2.21.05h-1l-.85,0-2,0c-.72,0-1.44,0-2.16,0h-3.28l-.88,0-1.28,0h-.41l-.77,0a2.57,2.57,0,0,0-.4,0l-.35.08a.37.37,0,0,0-.25.25l-1.34.16h0l1.32-.06v0a.4.4,0,0,0,.29.36,1,1,0,0,0,.25,0h.31l.29,0,.48,0c.62.07,1.24.17,1.86.24.36,0,.71.09,1.07.12l1.25.1.27,0,.72,0H167c.11,0,.23,0,.35,0l4.42-.08,2,0,.87,0Z" transform="translate(-32.15 -2.37)"/></g><path d="M169.61,73.55c.32,0,.63,0,.95.06a6.61,6.61,0,0,1-.77,0,1.13,1.13,0,0,1-.18,0Zm8.3-2.16a1.69,1.69,0,0,0-.27.12l-.15.11-.16.07-.41.18a4.07,4.07,0,0,1-.82.25l-.46.1-.76.13-1.57.25-.54.07-.51,0c-.35,0-.7,0-1.06,0l-1.25,0c-.33,0-.66-.06-1-.1l-.82-.13a.45.45,0,0,0-.34.05.42.42,0,0,0-.21.26.48.48,0,0,0,0,.35.4.4,0,0,0,.26.2l.29.05-.05.07a.41.41,0,0,0,0,.34.45.45,0,0,0,.2.27l.17.11a.82.82,0,0,0,.24.1l.16,0,.34.08a5.35,5.35,0,0,0,.68.11h.59a12.21,12.21,0,0,0,1.35-.07l.81-.09.28,0c.15,0,.3,0,.44-.06a10.15,10.15,0,0,0,1.42-.35l.83-.3c.32-.12.63-.25.94-.39s.53-.27.78-.41a4,4,0,0,0,.34-.22l.27-.2.07,0a1.06,1.06,0,0,0,.33-.22.47.47,0,0,0,.07-.54.44.44,0,0,0-.4-.22.16.16,0,0,0-.1,0Z" transform="translate(-32.15 -2.37)" style="fill:#3c5412"/><path d="M171.51,94.18a.42.42,0,0,0-.21.37l0,0h0a.55.55,0,0,0-.27.31.72.72,0,0,0,0,.41.44.44,0,0,0,.52.32.79.79,0,0,0,.22.06,1.44,1.44,0,0,0,.74-.07,1.3,1.3,0,0,0,.34-.15l.14-.11a1,1,0,0,0,.16-.19.58.58,0,0,0,.07-.32.51.51,0,0,0,0-.17.68.68,0,0,0-.14-.23l-.14-.1a1.21,1.21,0,0,0-.2-.09,1.41,1.41,0,0,0-.41-.07l-.26,0a.45.45,0,0,0-.29-.1.46.46,0,0,0-.23.06Z" transform="translate(-32.15 -2.37)" style="fill:#3c5412"/><path d="M171.86,94.13l-.27.07a1.28,1.28,0,0,0-.38.21.79.79,0,0,0-.3.78.84.84,0,0,0,.21.38,1.14,1.14,0,0,0,.38.23l.11,0a2.24,2.24,0,0,1-.1.37.83.83,0,0,1-.07.13l-.08.08-.14.08a3.48,3.48,0,0,1-.64.14l-.25,0-.1,0A.61.61,0,0,0,170,97.8a1,1,0,0,0,.33.15,3.62,3.62,0,0,0,.46.06,4.58,4.58,0,0,0,.53,0l.7,0c.22,0,.43,0,.64,0a8.46,8.46,0,0,0,1-.15.54.54,0,0,0,.35-.26.59.59,0,0,0,.06-.45.62.62,0,0,0-.27-.35.69.69,0,0,0-.45-.06l-.49.09-.37,0,.06-.1a2.51,2.51,0,0,0,.23-.81,2.83,2.83,0,0,0,0-.41.08.08,0,0,1,0,0,1.92,1.92,0,0,0,.21-.16.79.79,0,0,0,.19-.46.75.75,0,0,0-.42-.68,1.32,1.32,0,0,0-.47-.13h-.11a1.55,1.55,0,0,0-.31,0Z" transform="translate(-32.15 -2.37)" style="fill:#676767"/><path d="M177,72.2l-.12.14-.19.09a5.49,5.49,0,0,1-1,.28c-.34.07-.69.13-1,.18a11.59,11.59,0,0,1-1.3.11c-.45,0-.9,0-1.34,0s-.91,0-1.37,0l-.72,0-.51,0-1.7-.3a.69.69,0,0,0-.45.06.58.58,0,0,0-.21.8.54.54,0,0,0,.35.26l1,.17c.34.06.68.12,1,.16s.63.07.95.09.66,0,1,0h1.79A12.6,12.6,0,0,0,175,74c.44-.07.88-.15,1.32-.25a5.62,5.62,0,0,0,.58-.19l.4-.17.1,0a1.07,1.07,0,0,0,.35-.32.61.61,0,0,0,.17-.41.58.58,0,0,0-.58-.58.57.57,0,0,0-.41.17Z" transform="translate(-32.15 -2.37)" style="fill:#676767"/><path d="M177,72c-.18.06-.37.13-.56.18s-.37.08-.55.12c-.35.08-.69.12-1,.18s-.91.11-1.36.14-1,0-1.47,0q-1.86,0-3.72,0a.59.59,0,0,0-.58.58.58.58,0,0,0,.58.58c1.46,0,2.93,0,4.39,0,.62,0,1.24-.07,1.86-.14s1.28-.18,1.92-.32a5.8,5.8,0,0,0,.84-.24.63.63,0,0,0,.35-.27.59.59,0,0,0,.06-.45.62.62,0,0,0-.27-.35.58.58,0,0,0-.3-.08L177,72Z" transform="translate(-32.15 -2.37)" style="fill:#d4932b"/><path d="M171.45,98.25l-.12-.1v0l.49-.06.51-.1,0,0,0,.06a2.58,2.58,0,0,0-.19.37v0a.4.4,0,0,0-.24-.16.22.22,0,0,0-.12,0,.49.49,0,0,0-.2,0l-.06-.08Zm2.33-2.06a15.11,15.11,0,0,0-1.65.16l-.18,0-.93.14-.44.08-.09,0a1.4,1.4,0,0,0-.46.16.46.46,0,0,0-.1.7.69.69,0,0,0,0,.2A.42.42,0,0,0,170,98a.4.4,0,0,0,.2.11s0,0,0,0a.93.93,0,0,0,0,.25,3.1,3.1,0,0,0,0,.45v0a3.67,3.67,0,0,0-.19.74,9.75,9.75,0,0,0-.1,1c0,.41,0,.78,0,1.12a13.88,13.88,0,0,0,.11,2.17,8,8,0,0,0,.31,1.34l0,.1c.06.39.13.78.2,1.14,0,.14.05.27.07.41s0,.14,0,.22v.1a8.85,8.85,0,0,0,.09.9.43.43,0,0,0,.42.33,3.35,3.35,0,0,0-.17.62l0,.08c0,.08,0,.15,0,.23l-.34.14-.42.22a9.08,9.08,0,0,0-.89.64,8.17,8.17,0,0,0-1,1,.54.54,0,0,0-.15.26.75.75,0,0,0,0,.16v.12l-.33.34-.24.25-.09.09,0,0a1.65,1.65,0,0,0-.23.32.45.45,0,0,0,0,.45.63.63,0,0,0,.11.12l-.18.21-.15.16-.06.06,0,0-.06.06-.11.1-.15.13a1.69,1.69,0,0,0-.28.32.45.45,0,0,0,.37.67h.25a.35.35,0,0,0,.08.13.37.37,0,0,0,0,.18.46.46,0,0,0,.06.23.54.54,0,0,0,.26.2,1.61,1.61,0,0,0,.58.09h1.11l.42,0c.45,0,.91,0,1.39-.07l1.68-.1,1.38-.08.59,0h.38a.46.46,0,0,0,.39-.23.43.43,0,0,0,.06-.22v0l.24.18a.48.48,0,0,0,.23.07.41.41,0,0,0,.31-.14.13.13,0,0,0,.06-.07.5.5,0,0,0,.21,0,.43.43,0,0,0,.22-.06.41.41,0,0,0,.16-.16l0-.07h0l.11,0a.42.42,0,0,0,.27-.22.43.43,0,0,0,0-.33,4.54,4.54,0,0,0-.21-.45.64.64,0,0,1-.08-.14l-.16-.28-.05-.09c-.09-.16-.19-.32-.29-.48l-.12-.2-.15-.22-.08-.11-.19-.29-.07-.1,0,0c-.11-.23-.23-.45-.35-.67a.49.49,0,0,0-.39-.23l-.27-.22a.62.62,0,0,0-.33-.11.74.74,0,0,0-.28,0,.45.45,0,0,0-.22.13v0l-.07-.11-.11-.19a1.89,1.89,0,0,0-.29-.69.53.53,0,0,0-.15-.15.41.41,0,0,0-.38-.22l-.12,0-.18,0h0s0,0,0,0a.64.64,0,0,0-.08-.14v-.08c.06-.43.13-.86.21-1.28l0-.18a5.16,5.16,0,0,0,.09-.52l.06-.4.06-.41c0-.19.06-.39.08-.58l0-.28v-.14c0-.13,0-.27,0-.41l0-.36c0-.37.07-.73.1-1.1l0-.43.06-.84c.08-.37.17-.78.28-1.24s.19-.84.32-1.3l.05-.19c0-.18.11-.36.16-.55v0a3.57,3.57,0,0,0,.1-.35c0-.06,0-.13,0-.19a.59.59,0,0,0-.06-.52.47.47,0,0,0-.27-.21h-.1a.3.3,0,0,0-.1-.14.45.45,0,0,0-.22-.13h.1a.51.51,0,0,0,.29-.11l.12,0,.08,0a.45.45,0,0,0,.31-.55.52.52,0,0,0-.11-.19.2.2,0,0,0,0-.11.45.45,0,0,0-.44-.45Z" transform="translate(-32.15 -2.37)" style="fill:#d4932b"/><path d="M171.85,80.27l-.24.21a.48.48,0,0,0-.09.11l-.05.06,0,0a.87.87,0,0,0-.07.17.9.9,0,0,0,0,.18.45.45,0,0,0,0,.16.14.14,0,0,0,0,.06.42.42,0,0,0-.05.34.44.44,0,0,0,.31.31.76.76,0,0,0,.3.07H172a1.67,1.67,0,0,0,.48-.15l0,0h0a.46.46,0,0,0,.26-.13l0,0h0l0,0a.93.93,0,0,0,.37-.19.49.49,0,0,0,.16-.39.53.53,0,0,0-.24-.42l-.15-.07h-.25l-.18,0a.39.39,0,0,0-.12-.25.46.46,0,0,0-.32-.13.45.45,0,0,0-.31.13Z" transform="translate(-32.15 -2.37)" style="fill:#d4932b"/><path d="M170.76,73.46h0Zm-3.53-.87.88.18a.64.64,0,0,0-.3.19.48.48,0,0,0-.13.32.5.5,0,0,0,.22.4l.25.16.19.08.24.08a6.78,6.78,0,0,0,.88.16l.85.07c.19,0,.38,0,.58,0h.17a.81.81,0,0,1,.22,0h.25a.34.34,0,0,0,.3-.15h0a.35.35,0,0,0,.06-.19.38.38,0,0,0-.37-.37l-.5,0-.28,0h-.06c.63,0,1.25,0,1.88-.08a.34.34,0,0,0,.29-.51.32.32,0,0,0-.29-.17h0c-.8-.06-1.6-.08-2.4-.08-.32,0-.65,0-1,0l-.21,0-1.75-.1Z" transform="translate(-32.15 -2.37)" style="fill:#fff;opacity:0.45"/><path d="M171.67,81.36Zm0,0Zm-.18-.47a.47.47,0,0,0,.17.33l.06,0h0c-.12,0-.18.16-.25.25h0l.15-.13h0a.09.09,0,0,1,.06,0h.21a.52.52,0,0,0,.17,0c.07,0,.09-.11,0-.12h-.14l-.16,0h0l-.15-.08h0l-.06-.05a.56.56,0,0,1-.09-.17Z" transform="translate(-32.15 -2.37)" style="fill:#fff;opacity:0.45"/><path d="M170.1,112.35c.06-.14.13-.27.19-.41v.26h-.1l.1,0s0,.08,0,.13v.21l-.28,0,.08-.16Zm.4-14.79c0,.16,0,.33,0,.49s0,.36,0,.54,0,.6,0,.9l0,.25,0-.1a6.78,6.78,0,0,1,0-1.56c0-.18.07-.35.11-.52Zm.58-.88h0Zm.62-1.93-.39.92c-.1.23-.18.47-.26.71h0a.61.61,0,0,0-.18,0,1,1,0,0,0-.36.26,2.23,2.23,0,0,0-.48.83,4.88,4.88,0,0,0-.22,1,5.64,5.64,0,0,0,0,1.16,7.19,7.19,0,0,0,.18,1c.07.26.16.5.24.75s.09.27.13.4a.14.14,0,0,1,0,.06.43.43,0,0,0,0,0c0,.32,0,.64,0,1s0,.45.05.68c0,.08,0,.17,0,.26h0c0,.53.05,1,.07,1.57a.57.57,0,0,0,0,.14v.4c0,.19,0,.39,0,.58a.48.48,0,0,0-.14.36c0,.23,0,.47,0,.7s0,.34,0,.51,0,.39,0,.59,0,.22,0,.33v.12l-.16.3-.11.22-.07,0a.61.61,0,0,0-.24.07,3.34,3.34,0,0,0-.48.44q-.4.38-.78.78c-.26.3-.52.58-.77.89l-.47.59c-.12.15-.24.31-.35.47s-.45.63-.67.94l0,0a.74.74,0,0,0-.14.22.39.39,0,0,0,0,.24l-.18.2a.47.47,0,0,0-.12.3.42.42,0,0,0,.06.21.43.43,0,0,0,.15.15.53.53,0,0,0,.21.11.68.68,0,0,0,.2,0h0a.5.5,0,0,0,.31.7,2.46,2.46,0,0,0,.41.1,4,4,0,0,0,.49,0,5.82,5.82,0,0,0,.93-.07c.21,0,.43,0,.64-.09s.45-.09.67-.15l.31-.08.19,0,.17,0,.21-.09a.44.44,0,0,0,.23-.31h0l.33,0a.51.51,0,0,0,.46-.35.6.6,0,0,0,0-.23h.06a.85.85,0,0,0,.23,0,.45.45,0,0,0,.21-.12.47.47,0,0,0,.13-.33.46.46,0,0,0-.46-.46l-.37,0a.41.41,0,0,0-.12-.33.65.65,0,0,0-.18-.15h0a1,1,0,0,0,0-.17.26.26,0,0,0,0-.15c0-.21,0-.42,0-.63s0-.3,0-.46l0-1c0-.64,0-1.28.05-1.92a.28.28,0,0,0,0-.18c0-.29,0-.59,0-.88s0-.66,0-1a.58.58,0,0,0-.15-.37l0,0v0c0-1,0-2,0-2.94v-1.17c.05-1,.12-1.9.18-2.85,0-.19,0-.37,0-.56s0-.29,0-.43a2.16,2.16,0,0,0,0-.35.49.49,0,0,0-.06-.17.61.61,0,0,0-.13-.15q0-.37,0-.75a.42.42,0,0,0-.3-.4H171l.08,0,.13,0a.12.12,0,0,0,.1-.09l0-.16a15.85,15.85,0,0,1,.4-1.65Z" transform="translate(-32.15 -2.37)" style="fill:#fff;opacity:0.45"/><path d="M169.62,74.38h0Zm-1-.26,0,0,0,0Zm5.64-2h0Zm.07,0h0Zm4.47-1.55a.83.83,0,0,0-.41.22,3.65,3.65,0,0,0-.24.31l-.1,0c-.22.09-.43.16-.64.23s-.56.17-.83.25-.53.13-.8.2a14.74,14.74,0,0,1-1.5.3,12.63,12.63,0,0,1-1.5.12l-1,0c-.34,0-.68,0-1,0l-.8,0c-.67,0-1.33,0-2,0l-.81,0-1.35.07h0l1.48.06c.29,0,.58,0,.87.06l1.07.11,1.19.15c.35,0,.7.06,1,.08s.58,0,.88,0l.66,0,.85,0a14.78,14.78,0,0,0,2.1-.32q.62-.12,1.23-.27l-.19.18A13.58,13.58,0,0,1,175,73.51l-.55.22c-.22.09-.44.15-.66.22l-.3.08-.36.09-.3,0-.32.06-.88.09a11.26,11.26,0,0,1-2,.05,4.81,4.81,0,0,1-.94-.25c-.49-.22-1-.48-1.43-.72s-.92-.49-1.39-.71h0l1.1.77.9.62a6.61,6.61,0,0,0,.84.53,4.6,4.6,0,0,0,.61.25A4,4,0,0,0,170,75a16.74,16.74,0,0,0,1.73.11,8.38,8.38,0,0,0,.87,0l.57,0c.18,0,.36,0,.54-.07a8.58,8.58,0,0,0,1-.18l.59-.16.45-.14.77-.29a7.18,7.18,0,0,0,1.57-.78,5.42,5.42,0,0,0,.8-.71c.14-.17.29-.32.42-.5a1.39,1.39,0,0,0,.41-1.19.76.76,0,0,0-.72-.56.69.69,0,0,0-.2,0Z" transform="translate(-32.15 -2.37)"/><path d="M172.09,71.22a.15.15,0,0,1,0,.07.17.17,0,0,0,0-.07Zm.08-.11ZM172,71h0Zm.11-1a2.32,2.32,0,0,0-.62.37,1.11,1.11,0,0,0-.37.51,1.13,1.13,0,0,0-.06.32.57.57,0,0,0,.08.25,1,1,0,0,0,.24.25v0c0,.13.2.23.3.29a1.23,1.23,0,0,0,.59.15,1.28,1.28,0,0,0,.61-.11,1.67,1.67,0,0,0,.5-.37,1,1,0,0,0,.26-.55,1,1,0,0,0,0-.17.55.55,0,0,0,0-.25.65.65,0,0,0-.07-.34,1,1,0,0,0-.21-.25,1.16,1.16,0,0,0-.64-.25h-.07a1.52,1.52,0,0,0-.59.12Z" transform="translate(-32.15 -2.37)"/><path d="M172.26,68.36a5.58,5.58,0,0,0-1.21.16,1.21,1.21,0,0,0-.65.29.64.64,0,0,0-.13.19.77.77,0,0,0-.21.24.86.86,0,0,0-.1.38.84.84,0,0,0,.32.6,2.57,2.57,0,0,0,1.43.44,6.84,6.84,0,0,0,1.69,0,5,5,0,0,0,.76-.19,1.76,1.76,0,0,0,.7-.34.74.74,0,0,0,.14-.22,1.08,1.08,0,0,0,.1-.43.86.86,0,0,0-.44-.69,3.11,3.11,0,0,0-1.55-.39h-.85Z" transform="translate(-32.15 -2.37)"/><path d="M171.7,75.37a.48.48,0,0,0-.13.34h0c0,.65-.07,1.29-.09,1.94l0,.55c0,.7,0,1.4,0,2.09a.59.59,0,0,0,.09.32.63.63,0,0,0,.38.3.65.65,0,0,0,.49-.07.62.62,0,0,0,.29-.38c0-.09,0-.18,0-.27a.41.41,0,0,0,.19-.2,1.89,1.89,0,0,0,.11-.25,1.53,1.53,0,0,0,0-.3,3.51,3.51,0,0,0,0-.56c0-.12,0-.23,0-.35s0-.52,0-.77,0-.47,0-.71,0-.32,0-.48v-.23a2.57,2.57,0,0,0-.08-.47.63.63,0,0,0-.5-.47.48.48,0,0,0-.37-.17.49.49,0,0,0-.34.14Z" transform="translate(-32.15 -2.37)"/><path d="M171.3,81.35Zm1.5-.34Zm0,0h0Zm0,0h0Zm0,0Zm-.37-.14.26.07.09,0,0,0v0s0,0,0,0h0s0,.05,0,.07l0-.08s0,.07,0,.11l0,0a2.25,2.25,0,0,1-.21.12l-.3.08a3.29,3.29,0,0,1-.7,0l-.18,0v0l0,0a1.09,1.09,0,0,1,.08-.15l.07-.08.09,0a2.13,2.13,0,0,1,.43-.13Zm-.62-1a2,2,0,0,0-.63.23,1.57,1.57,0,0,0-.71,1,1.32,1.32,0,0,0,0,.56.75.75,0,0,0,.14.3.82.82,0,0,0,.25.24,1.62,1.62,0,0,0,1.23.24,1.67,1.67,0,0,0,1-.46,1.09,1.09,0,0,0,.44-.35,1,1,0,0,0,.2-.52,1,1,0,0,0-.14-.61l-.13-.17a1.22,1.22,0,0,0-.25-.2,1.92,1.92,0,0,0-.33-.14,1.61,1.61,0,0,0-.38-.08,2.07,2.07,0,0,0-.35,0,1.63,1.63,0,0,0-.31,0Z" transform="translate(-32.15 -2.37)"/><path d="M171.84,82a.69.69,0,0,0-.3.17,1.66,1.66,0,0,0-.34.53,4,4,0,0,0-.12.6c0,.38-.06.76-.07,1.14s0,.66,0,1,0,.52,0,.78,0,.57.05.85a.57.57,0,0,0,0,.13s0,0,0,.07c0,.29-.05.58-.08.87s0,.38,0,.57,0,.68,0,1c0,.19,0,.39,0,.59s0,.52,0,.77v.16c0,.35,0,.7,0,1,0,.12,0,.25,0,.38s0,.22,0,.33v.08l0,.19c0,.08.08.18.11.26a.69.69,0,0,0,.24.24.67.67,0,0,0,.5.06.61.61,0,0,0,.18-.09.55.55,0,0,0,.29-.08.6.6,0,0,0,.29-.37,1.7,1.7,0,0,0,.09-.39v-.16l0-.55c0-.22,0-.44,0-.66,0-.55,0-1.09,0-1.64,0-1.06,0-2.12,0-3.17l0-1.22c0-.13,0-.26.05-.39s0-.26,0-.39,0-.29,0-.43a2.13,2.13,0,0,0,0-.25.71.71,0,0,0-.1-.35h0l-.06-.08a.57.57,0,0,0-.23-.28l0,0a.77.77,0,0,1,0-.15l0-.13s0-.09.05-.13a.86.86,0,0,0,0-.42.68.68,0,0,0-.48-.48.57.57,0,0,0-.18,0,.63.63,0,0,0-.19,0Z" transform="translate(-32.15 -2.37)"/><path d="M171.9,95.36h0Zm-.26,0h0Zm-.2,0,.05,0-.05,0Zm.85-.1h0Zm-1.07-.09v0Zm0,0h0Zm1.27-.06,0,0,0,0Zm.06-.13,0,0,0,0Zm-1.29-.23,0,0,0,0Zm1.32-.1Zm-.37-.14.12,0,.16.11-.05,0,.06.07,0,0s0,0,0,0,0,.08,0,.12,0,.11,0,.16a.41.41,0,0,1-.07.11.26.26,0,0,1-.09.09,2.07,2.07,0,0,1-.25.15l-.14,0a1.82,1.82,0,0,1-.33,0,.61.61,0,0,1-.18,0l-.11-.06-.06,0,0,0-.09-.13a.83.83,0,0,1,0-.15,1,1,0,0,1,0-.24h0l.32-.19a2.24,2.24,0,0,1,.37-.1Zm-.67-.92a2.57,2.57,0,0,0-.69.28,1.35,1.35,0,0,0-.71,1,1,1,0,0,0,.09.61.92.92,0,0,0,.2.31,1.81,1.81,0,0,0,.3.25,1.39,1.39,0,0,0,.55.22,2,2,0,0,0,.69,0,1.77,1.77,0,0,0,.57-.2,1.19,1.19,0,0,0,.39-.35,1.64,1.64,0,0,0,.36-.47,1.17,1.17,0,0,0-.05-1.26,1.3,1.3,0,0,0-.42-.32,2.28,2.28,0,0,0-.68-.18H172a2.42,2.42,0,0,0-.46.06Z" transform="translate(-32.15 -2.37)"/><path d="M169.91,97.21l0,0,0,0Zm-.16-.2v0Zm3.47.07.38.08a8.3,8.3,0,0,1-1.47.36,7,7,0,0,1-1.58,0l-.11,0a5,5,0,0,1-.52-.26,4.23,4.23,0,0,1,.87-.2,10.39,10.39,0,0,1,2.43.07Zm-.95-1.22a6.93,6.93,0,0,0-1.91.31h0l-.45.07a3,3,0,0,0-.51.16,1.93,1.93,0,0,0-.37.23.66.66,0,0,0-.2.27.75.75,0,0,0,0,.47,1.18,1.18,0,0,0,.51.69,2.89,2.89,0,0,0,.9.39,5.31,5.31,0,0,0,1.25.18,6.28,6.28,0,0,0,2.19-.35c.36-.12.71-.29,1.06-.44l.26-.11.18-.13.13-.18a.53.53,0,0,0,.09-.3l0-.23a1.11,1.11,0,0,0-.23-.41,3,3,0,0,0-2-.62h-.83Z" transform="translate(-32.15 -2.37)"/><path d="M169.94,98.11c-.05.9-.1,1.79-.16,2.69s-.11,1.59-.14,2.4,0,1.47,0,2.21v.41a.61.61,0,0,0,0,.14c-.05.76-.12,1.51-.12,2.27,0,.1,0,.2,0,.3a.65.65,0,0,0,.18.44.61.61,0,0,0,.6.16.65.65,0,0,0,.45-.62,10.42,10.42,0,0,0,0-1.12l-.06-1.26c0-.74-.08-1.48-.17-2.22l-.12-1c0-.59-.07-1.19-.11-1.78-.06-.79-.14-1.58-.25-2.37l-.09-.62Z" transform="translate(-32.15 -2.37)"/><path d="M173.85,98.9h0Zm-.57,9.6a.13.13,0,0,1,0,.06.13.13,0,0,0,0-.06Zm.62-10c-.08.25-.15.5-.22.75l.06-.75h0a38.8,38.8,0,0,0-1.05,4.51c0,.19-.06.39-.08.58-.11.5-.2,1-.28,1.49,0,.19-.05.38-.08.57s0,.41-.06.62q0,.58-.06,1.17a6.51,6.51,0,0,0,0,1.17.57.57,0,0,0,.41.56.52.52,0,0,0,.42-.06.48.48,0,0,0,.2-.2.5.5,0,0,0,.08-.27,7,7,0,0,0,0-1c0-.36,0-.72,0-1.08,0-.68,0-1.36,0-2s.06-1.37.12-2,.14-1.43.23-2.15h0c.07-.45.14-.91.2-1.37h0c0-.14,0-.29.05-.43Z" transform="translate(-32.15 -2.37)"/><path d="M171,108a2,2,0,0,0-.35.06l-.33.15a1.63,1.63,0,0,0-.4.24,5.09,5.09,0,0,0-1.15.73,5.69,5.69,0,0,0-.87.9,4.07,4.07,0,0,0-.42.41,10.52,10.52,0,0,0-1,1.24c-.14.2-.26.41-.39.62a6.16,6.16,0,0,0-.57,1.22.5.5,0,0,0,0,.13c-.06.13-.12.26-.17.4a4.59,4.59,0,0,0-.17.48c0,.07,0,.13-.05.2a1.26,1.26,0,0,0,0,.27.68.68,0,0,0,.33.62.67.67,0,0,0,.91-.24,2.5,2.5,0,0,0,.15-.38c0-.12.09-.24.13-.35.2-.43.42-.85.65-1.26s.35-.63.53-.93a19.71,19.71,0,0,1,1.35-2.06l0,0a8.73,8.73,0,0,1,1.77-1.1l.23-.09h0a.47.47,0,0,0,.15-.06.69.69,0,0,0,.29-.38A.62.62,0,0,0,171,108Z" transform="translate(-32.15 -2.37)"/><path d="M172.7,108.61a.59.59,0,0,0,.09.71l.07.06a8.34,8.34,0,0,1,.81.87l.59.7.18.25.34.5c.11.16.21.33.31.5a13.14,13.14,0,0,1,.9,1.8l.09.32a4.25,4.25,0,0,1,.12.62c0,.1,0,.2,0,.3a.5.5,0,0,0,0,.12h0a.61.61,0,0,0,.16.28l.12.09c0,.08,0,.16.05.24h0c0-.07,0-.14,0-.21a.63.63,0,0,0,.87-.4,2.8,2.8,0,0,0,0-1,4.72,4.72,0,0,0-.26-1,.78.78,0,0,0,0-.14c-.05-.27-.11-.53-.18-.79a6.62,6.62,0,0,0-.49-1.16,4.94,4.94,0,0,0-1.47-1.74,3,3,0,0,0-.76-.38.76.76,0,0,0-.08-.11,3.39,3.39,0,0,0-.4-.45l-.21-.16a.7.7,0,0,0-.35-.09h0a.57.57,0,0,0-.47.29Z" transform="translate(-32.15 -2.37)"/><path d="M172.67,115c-1.37,0-2.74.08-4.11.12l-1.67.06-.74,0h-.4c-.17,0-.34,0-.51,0a.63.63,0,0,0-.33.09.62.62,0,0,0-.3.39.65.65,0,0,0,.3.74.78.78,0,0,0,.35.15,2.6,2.6,0,0,0,.39,0H167l.5,0c.76,0,1.51-.08,2.27-.13l.8-.06c1.14,0,2.28.07,3.43.11l1.7,0,1.1.1.14,0a.85.85,0,0,0,.23,0,.68.68,0,0,0,.66-.49.73.73,0,0,0,0-.36.68.68,0,0,0-.31-.41,1.17,1.17,0,0,0-.31-.17l-.33-.07-.26,0c-.23,0-.47-.08-.7-.1l-1-.07-1.49,0Z" transform="translate(-32.15 -2.37)"/><path d="M173.58,95.37l0,0,0,0ZM178,92l-.13.1c-.19.14-.41.25-.6.38l-.55.37c-.28.19-.54.39-.81.59a.47.47,0,0,0-.13.11c-.4.3-.79.61-1.18.92s-.73.67-1.1,1l-.06,0a.67.67,0,0,0-.14.09.75.75,0,0,0-.14.17.47.47,0,0,0,0,.43l-.09.07h0l.1-.07v0a.46.46,0,0,0,.51.21l.19-.07.19-.08.29-.19.37-.28.51-.41.93-.78c.29-.25.59-.51.87-.77a1.9,1.9,0,0,0,.21-.19l.12-.09.57-.45.22-.19.24-.22a1.58,1.58,0,0,0,.12-.15,1.23,1.23,0,0,0,.09-.23.35.35,0,0,0-.17-.39.34.34,0,0,0-.17,0,.35.35,0,0,0-.25.1Z" transform="translate(-32.15 -2.37)"/><path d="M177.58,91c0,.07.07.14.11.2l-.06.08a.21.21,0,0,0-.19,0,.24.24,0,0,0-.09.33l.08.15a.23.23,0,0,0,0,.11,5.4,5.4,0,0,0,.64,1.18,2.26,2.26,0,0,0,.31.49.39.39,0,0,0,.37.11.52.52,0,0,0,.33.11.55.55,0,0,0,.39-.16.54.54,0,0,0,0-.73,3.27,3.27,0,0,0-.35-.46l0,0c-.08-.11-.17-.21-.25-.31-.2-.28-.38-.56-.56-.85a.46.46,0,0,0-.51-.21.48.48,0,0,0-.16.08l-.13-.18h0Z" transform="translate(-32.15 -2.37)"/><path d="M173.79,73.87h0Zm-8.87-2.74a.72.72,0,0,0-.34.61.73.73,0,0,0,.09.35.67.67,0,0,0,.25.25,5.29,5.29,0,0,0,.52.29l-.06,0c.29.22.62.39.93.58s.61.33.93.49a7.87,7.87,0,0,0,1.22.47,9.06,9.06,0,0,0,1.53.26c.35,0,.71.07,1.06.08l1.09,0a8,8,0,0,0,2.32-.47,11.85,11.85,0,0,0,1.37-.6h0l-1.2.34a7.58,7.58,0,0,1-.83.15h0a7.08,7.08,0,0,1-1.66,0l-.6-.07a11.5,11.5,0,0,1-1.14-.23,12.27,12.27,0,0,1-1.57-.46c-.3-.14-.59-.3-.88-.47l.29,0c.74.06,1.48.09,2.22.11.36,0,.72,0,1.09,0s.69,0,1-.07a11.86,11.86,0,0,0,1.18-.14l1.06-.2.34-.07h0l-1.74,0c-.52,0-1,0-1.55-.08-1-.06-2.07-.2-3.1-.33-.52-.08-1-.17-1.56-.28l-.75-.16-.33-.08L166,71.3l-.18-.1a1.17,1.17,0,0,0-.35-.14h0l-.18,0a.74.74,0,0,0-.36.09Z" transform="translate(-32.15 -2.37)"/><path d="M178.92,92.49l-.23,0a2.26,2.26,0,0,0-.33.13,4,4,0,0,0-.67.39c-.27.18-.52.37-.77.57s-.61.49-.9.76l-.77.71c-.29.27-.61.5-.9.77,0,0,0,.07,0,.06a1.08,1.08,0,0,0,.28-.15h0l.6-.31-1.1,1h0c.58-.34,1.16-.68,1.74-1l.45-.28c.21-.13.42-.28.64-.41l1.33-.79.56-.35c.25-.15.63-.29.59-.65a.47.47,0,0,0-.12-.3.43.43,0,0,0-.3-.11Z" transform="translate(-32.15 -2.37)"/><path d="M168.71,105.16c.17,0,.35,0,.52,0l1.32-.14c1.49-.15,3-.37,4.46-.47s3.09-.18,4.64-.2l1.9,0a18.87,18.87,0,0,1,2.13.09,5.58,5.58,0,0,1,1.28.32,5.28,5.28,0,0,1,.82.5,4.31,4.31,0,0,1,.68.67,3.37,3.37,0,0,1,.36.61,4,4,0,0,1,.17.62,6.39,6.39,0,0,1,0,1,3,3,0,0,1-.12.43,2.44,2.44,0,0,1-.24.41,5.32,5.32,0,0,1-.76.74,8.77,8.77,0,0,1-1.65,1,10.69,10.69,0,0,1-2.28.62c-.57.06-1.14.11-1.71.14a11.66,11.66,0,0,1-2,0,8.67,8.67,0,0,1-1.66-.45l-.89-.35-1.67-.67a9.36,9.36,0,0,1-1.43-.77c-.21-.14-.42-.27-.62-.42-.42-.3-.85-.59-1.26-.91a9.29,9.29,0,0,1-1-.94l-.46-.48c-.24-.25-.46-.52-.69-.78l-.33-.43.47,0ZM157.22,95.09a.11.11,0,0,0,0,0,.11.11,0,0,1,0,0Zm6-4.65a6.89,6.89,0,0,1,1.11.26,9.25,9.25,0,0,0-.94,2.64,10.86,10.86,0,0,0-.19,1.62c0,.25,0,.51,0,.77s0,.81,0,1.22.06.7.1,1a11.77,11.77,0,0,0,.29,1.53c.08.31.17.61.28.91l.21.62c.08.21.18.43.26.64s.26.54.4.79.47.76.72,1.14l.2.32c-.72,0-1.44-.07-2.16-.16a11,11,0,0,1-2.52-.65,7.42,7.42,0,0,1-1.39-.81,8.14,8.14,0,0,1-1.2-1.22c-.19-.26-.36-.51-.52-.78a6.27,6.27,0,0,1-.41-.82c-.09-.22-.17-.44-.25-.67a4.89,4.89,0,0,1-.14-.64,10,10,0,0,1,0-1.55c0-.48,0-1,.11-1.42a8.46,8.46,0,0,1,.47-1.86,7.51,7.51,0,0,1,.72-1.22,6.31,6.31,0,0,1,.89-.9,5.46,5.46,0,0,1,1-.58,4,4,0,0,1,1-.27,8.92,8.92,0,0,1,2,0ZM182,80v0Zm-.15-.71h0Zm-.31-.31Zm-.4-.25Zm-.38-.09a2.62,2.62,0,0,1,.38.09,2.42,2.42,0,0,1,.4.25,1.64,1.64,0,0,1,.29.3,1.09,1.09,0,0,1,.14.23.83.83,0,0,1,0,.15,1.15,1.15,0,0,1,0,.32,2.94,2.94,0,0,1-.16.6c-.07.13-.14.25-.22.37a3.72,3.72,0,0,1-.53.52,4,4,0,0,1-.67.38,16.61,16.61,0,0,1-3.5.72,16.7,16.7,0,0,0-2.52.57l-1.21.41c-.37.13-.74.29-1.1.43s-.73.32-1.09.49a14.83,14.83,0,0,0-1.92,1,14.55,14.55,0,0,0-2.49,2.08c-.35.38-.67.79-1,1.2-.18.22-.35.45-.51.67-.18-.07-.38-.15-.57-.21A7.91,7.91,0,0,0,162.8,89a9.64,9.64,0,0,0-1.52,0,4.9,4.9,0,0,0-.85.16,5.5,5.5,0,0,0-.91.34,6.2,6.2,0,0,0-1.26.82,6,6,0,0,0-1.14,1.27A6.78,6.78,0,0,0,156,94.64a12.66,12.66,0,0,0-.15,1.63,12.32,12.32,0,0,0,0,1.72c0,.27.07.54.12.8a6.27,6.27,0,0,0,.24.77,9.54,9.54,0,0,0,.73,1.51,10.14,10.14,0,0,0,.92,1.26,8.87,8.87,0,0,0,1.19,1.1,8.25,8.25,0,0,0,2.87,1.32,13.2,13.2,0,0,0,2.58.4l1.16,0h.91c.12.17.23.32.34.49a14.68,14.68,0,0,0,1.51,1.83l.52.54a9.37,9.37,0,0,0,1.18,1l1,.73c.32.23.65.46,1,.67a14.27,14.27,0,0,0,2.09,1l2.14.86a9.24,9.24,0,0,0,.89.29,6.39,6.39,0,0,0,1.69.24c.43,0,.86,0,1.29,0l1.28-.08a11.72,11.72,0,0,0,3-.62,9.06,9.06,0,0,0,2.86-1.64,4.79,4.79,0,0,0,.49-.52,3.23,3.23,0,0,0,.44-.65,3.56,3.56,0,0,0,.32-1.82,7.58,7.58,0,0,0-.13-.81,3.7,3.7,0,0,0-.26-.7,2.74,2.74,0,0,0-.41-.65,4.22,4.22,0,0,0-.54-.58,6.06,6.06,0,0,0-1.28-.85,5.47,5.47,0,0,0-1.64-.5,21.91,21.91,0,0,0-3.34-.13l-2.17,0c-.79,0-1.58,0-2.37.06l-2.45.14c-.7,0-1.4.13-2.1.2l-2.58.23c-.39,0-.79,0-1.19,0h-.72a2.2,2.2,0,0,0-.17-.25l-.58-.89-.42-.64a9.7,9.7,0,0,1-.66-1.23,14.29,14.29,0,0,1-.86-3l-.09-.76c0-.27,0-.55-.06-.83s0-.53,0-.79a10.77,10.77,0,0,1,.08-1.5,8.71,8.71,0,0,1,.55-2.06c.1-.23.21-.45.32-.68l.29.2.44.34.85.73c.28.26.55.53.82.8l.41.46.34.39c.23.27.46.54.68.82.48.61.95,1.24,1.45,1.83a19.14,19.14,0,0,0,1.56,1.68l.44.4.51.42a11.27,11.27,0,0,0,1.11.81l.71.41a8.71,8.71,0,0,0,2.56,1,5.48,5.48,0,0,0,1.51.09,7.08,7.08,0,0,0,1.65-.25,6.32,6.32,0,0,0,2.72-1.6A5.53,5.53,0,0,0,185,97.24a5.15,5.15,0,0,0,.14-1.61c0-.2,0-.41,0-.61a6.1,6.1,0,0,0-.93-2.92,4.1,4.1,0,0,0-.6-.71,2.34,2.34,0,0,0-.81-.5,2.93,2.93,0,0,0-1.38,0l-.69.13-.36.1a4.22,4.22,0,0,0-1,.43,6.06,6.06,0,0,0-.86.65l-.59.54-1.28,1.18h0l1.45-.94a11.52,11.52,0,0,1,1.54-.94,5.61,5.61,0,0,1,.89-.25l.3,0a6.42,6.42,0,0,1,1.24,0,1.25,1.25,0,0,1,.26.07,1.23,1.23,0,0,1,.25.14,4.08,4.08,0,0,1,.36.36,4.68,4.68,0,0,1,.43.75,7.31,7.31,0,0,1,.34,1.3c0,.33,0,.66.05,1a8.18,8.18,0,0,1,0,1,5.41,5.41,0,0,1-.32,1.11,4.7,4.7,0,0,1-.52.89,5.23,5.23,0,0,1-.78.78,6.73,6.73,0,0,1-1.13.67,6.47,6.47,0,0,1-1.24.33,7.91,7.91,0,0,1-1.54,0,8.16,8.16,0,0,1-1.46-.43c-.38-.17-.73-.36-1.08-.56a10.32,10.32,0,0,1-1.18-.76c-.32-.25-.62-.5-.92-.76s-.54-.48-.78-.74c-.53-.56-1.06-1.14-1.54-1.75s-.95-1.2-1.44-1.78c-.27-.32-.55-.64-.83-.95a9.78,9.78,0,0,0-.72-.72,15.39,15.39,0,0,0-2-1.61c.19-.27.4-.54.61-.81s.66-.8,1-1.18a14.91,14.91,0,0,1,1.2-1,16.58,16.58,0,0,1,2-1.28c.33-.19.67-.35,1-.52s1-.46,1.49-.69a24.62,24.62,0,0,1,2.65-1c.76-.22,1.54-.36,2.32-.53a10.92,10.92,0,0,0,1.75-.51,4.44,4.44,0,0,0,1.07-.58,3,3,0,0,0,.71-.76,2.12,2.12,0,0,0,.33-1,1.42,1.42,0,0,0,0-.46,1.33,1.33,0,0,0-.12-.4,1.64,1.64,0,0,0-.67-.58l-.25-.1a1.58,1.58,0,0,0-.53-.07Z" transform="translate(-32.15 -2.37)"/><path d="M182.36,79.07a1.2,1.2,0,0,0-.41.2,2.48,2.48,0,0,0-.43.37,2.54,2.54,0,0,0-.29.36.43.43,0,0,0-.09.36.37.37,0,0,0,.28.25.84.84,0,0,0,.47-.06,2.78,2.78,0,0,0,.67-.42.93.93,0,0,0,.33-.35.22.22,0,0,0,0-.27,1.09,1.09,0,0,0,.05-.17.28.28,0,0,0-.15-.24.35.35,0,0,0-.2,0l-.19,0Z" transform="translate(-32.15 -2.37)"/><path d="M179.79,77.11a.31.31,0,0,0-.22.38,2.43,2.43,0,0,0,.16.37.41.41,0,0,0,.11.25l.06.06a9.69,9.69,0,0,0,.78,1c.13.15.27.29.41.43s.34.27.48.44a.39.39,0,0,0,.31.13.41.41,0,0,0,.37-.22.54.54,0,0,0-.06-.64l-.27-.35-.33-.37-.3-.35c-.18-.2-.36-.39-.56-.58a5.34,5.34,0,0,0-.53-.41.88.88,0,0,0-.15-.12.25.25,0,0,0-.14,0Z" transform="translate(-32.15 -2.37)"/><path d="M179.61,76.7l-.14.07a2.21,2.21,0,0,0-.46.36.34.34,0,0,0-.07.22v.05a.3.3,0,0,0,.22.31.27.27,0,0,0,.12,0,.64.64,0,0,0,.24,0,1.11,1.11,0,0,0,.38-.18,2.42,2.42,0,0,0,.31-.25l.11-.12a.47.47,0,0,0,.1-.1.31.31,0,0,0,0-.42l0,0h0a.38.38,0,0,0-.29-.12,1,1,0,0,0-.5.18Z" transform="translate(-32.15 -2.37)"/><path d="M180,65.3a2.49,2.49,0,0,0,.15,1.24,2.68,2.68,0,0,0,.18.28l.15.21a9.84,9.84,0,0,1,.78,1.33,2,2,0,0,1,.14.48,6.06,6.06,0,0,1-.05,1.41,4.5,4.5,0,0,1-.24,1,4.84,4.84,0,0,1-.62,1c-.29.37-.6.73-.86,1.12a3.11,3.11,0,0,0-.3.64,2.61,2.61,0,0,0-.13.63,1.12,1.12,0,0,0,.11.51,2,2,0,0,0,.4.5h0l-.18-.36a1.39,1.39,0,0,1-.06-.19,1.61,1.61,0,0,1,0-.31,1.78,1.78,0,0,1,.09-.33,3.59,3.59,0,0,1,.43-.73c.29-.37.63-.7.94-1.05a4.83,4.83,0,0,0,.79-1.12,4,4,0,0,0,.23-.69A3.4,3.4,0,0,0,182,70a4.11,4.11,0,0,0-.16-1.6,3.78,3.78,0,0,0-.64-1c-.14-.17-.27-.33-.42-.49l-.49-.53s0,0,0,0a.76.76,0,0,1-.12-.19c0-.13-.09-.25-.13-.39a5.12,5.12,0,0,1-.1-.54h0Z" transform="translate(-32.15 -2.37)"/><path d="M178.34,62.69h0Zm-.13-.78c0,.12.09.25.13.38a2,2,0,0,1,0,.42c0,.1,0,.2-.05.3a0,0,0,0,0,0,0,5,5,0,0,1-.3,1.07c-.17.4-.39.76-.55,1.16a2.36,2.36,0,0,0-.19.64,2.91,2.91,0,0,0,0,.66,3.31,3.31,0,0,0,.36,1.27,2.56,2.56,0,0,0,.35.51,5.45,5.45,0,0,0,.46.5h0a7.62,7.62,0,0,1-.46-.9,3.93,3.93,0,0,1-.23-.83.43.43,0,0,0,0,0,4.67,4.67,0,0,1,0-1.12,3.41,3.41,0,0,1,.23-.75,9.66,9.66,0,0,0,.37-.94,4,4,0,0,0,.19-1c0-.18,0-.37,0-.56a1.63,1.63,0,0,0-.08-.44,1.57,1.57,0,0,0-.22-.37h0Z" transform="translate(-32.15 -2.37)"/><path d="M175.07,59.81c.05.17.11.33.14.49a4.29,4.29,0,0,1-.05.88,4.46,4.46,0,0,1-.25,1,3.71,3.71,0,0,1-.44.74,18.58,18.58,0,0,0-1.16,1.46,2.1,2.1,0,0,0-.36,1.46,5.51,5.51,0,0,0,.75,1.81h0a10.62,10.62,0,0,1-.38-1.5,2.91,2.91,0,0,1,0-.59,1.82,1.82,0,0,1,.11-.4,3.74,3.74,0,0,1,.42-.69,8.68,8.68,0,0,0,1.3-1.77,3.45,3.45,0,0,0,.28-1.52c0-.18,0-.36,0-.53a1.53,1.53,0,0,0-.11-.42,2.32,2.32,0,0,0-.21-.38h0Z" transform="translate(-32.15 -2.37)"/><path d="M171,66.87h0Zm0,0Zm-.78-5.72a2.15,2.15,0,0,0-.6,1,1.81,1.81,0,0,0,.08,1.17v0l-.13.06a2.91,2.91,0,0,0-.46.32,2.56,2.56,0,0,0-.45.48,2.3,2.3,0,0,0-.48,1.11,2,2,0,0,0,0,.55,1.72,1.72,0,0,0,.27.62,1.5,1.5,0,0,0,.94.59,2.49,2.49,0,0,0,.47,0,3.89,3.89,0,0,0,.59,0,2.23,2.23,0,0,0,.44-.13,1.8,1.8,0,0,0,.4-.28h0l-.29.15a1.45,1.45,0,0,1-.35.07,2.43,2.43,0,0,1-.54,0,2.71,2.71,0,0,1-.68-.17,1.92,1.92,0,0,1-.31-.18.8.8,0,0,1-.13-.13,1.94,1.94,0,0,1-.15-.24c0-.1-.06-.2-.08-.3v-.17a2.42,2.42,0,0,1,.13-.46A2.34,2.34,0,0,1,169,65a3,3,0,0,1,.4-.39,2.77,2.77,0,0,1,.55-.33,2.38,2.38,0,0,1,.38-.11h0a.84.84,0,0,0,.43.16.51.51,0,0,0,.47-.27.54.54,0,0,0,0-.52.77.77,0,0,0-.46-.33l-.23,0h-.13a1.22,1.22,0,0,1-.12-.19,2.68,2.68,0,0,1-.07-.27c0-.1,0-.2,0-.3a1.83,1.83,0,0,1,.12-.46,2.29,2.29,0,0,1,.18-.29,3.41,3.41,0,0,1,.39-.37,3.72,3.72,0,0,1,.64-.38,2.34,2.34,0,0,1,.49-.13,3,3,0,0,1,.42,0l.27.07.08,0,.06,0a.43.43,0,0,0,0,.07,0,0,0,0,0,0,0,.68.68,0,0,1,.07.2,5,5,0,0,1,0,.77h0a4.75,4.75,0,0,0,.2-.64.79.79,0,0,0-.05-.5.54.54,0,0,0-.21-.24,1.45,1.45,0,0,0-.59-.21,1.84,1.84,0,0,0-.33,0,2.77,2.77,0,0,0-1.83.8Z" transform="translate(-32.15 -2.37)"/><path d="M162.43,68.36a2.94,2.94,0,0,0-1.24.75,3.52,3.52,0,0,0-.8,1.34,4.58,4.58,0,0,0-.23,1.51,3.22,3.22,0,0,0,.08.76,2.81,2.81,0,0,0,.28.83,2.71,2.71,0,0,0,.42.6,2.75,2.75,0,0,0,.53.49l.2.14a3.62,3.62,0,0,0-.83,1.22,3.49,3.49,0,0,0-.29,1.59A3,3,0,0,0,161,79a3.45,3.45,0,0,0,1.09,1.06,3.73,3.73,0,0,0,1.34.49,5.37,5.37,0,0,0,1.55,0,4.27,4.27,0,0,0,.71-.15,2.85,2.85,0,0,0,.56-.26,3,3,0,0,0,.49-.33,3.68,3.68,0,0,0,.5-.54h0c-.16.13-.31.27-.47.39h0a3.53,3.53,0,0,1-.5.28,4.45,4.45,0,0,1-.77.22,5,5,0,0,1-1.16,0,5.28,5.28,0,0,1-1.18-.32,2.86,2.86,0,0,1-1.1-.85,3.25,3.25,0,0,1-.32-.53,2.32,2.32,0,0,1-.13-.45,4.7,4.7,0,0,1,0-.65,3.68,3.68,0,0,1,.17-.63,3.4,3.4,0,0,1,.31-.52,4.26,4.26,0,0,1,.52-.52,5.65,5.65,0,0,1,.51-.34c.19,0,.39.07.57.1l.38.05a1.27,1.27,0,0,0,.34,0,1,1,0,0,0,.36-.2A.87.87,0,0,0,165,75a1.09,1.09,0,0,0,0-.44.89.89,0,0,0-.37-.5,1.84,1.84,0,0,0-1.47-.16,2.17,2.17,0,0,0-.53.21,3.81,3.81,0,0,1-.61-.37,2.91,2.91,0,0,1-.43-.43,2.86,2.86,0,0,1-.24-.42,3.56,3.56,0,0,1-.19-.73,4.35,4.35,0,0,1,0-1,3.72,3.72,0,0,1,.23-.87,2.79,2.79,0,0,1,.36-.63,2.59,2.59,0,0,1,.4-.41,2.84,2.84,0,0,1,.61-.35,2.72,2.72,0,0,1,.69-.19,5.57,5.57,0,0,1,1.08,0h0l1,.14h0a11.66,11.66,0,0,0-1.51-.51,3.63,3.63,0,0,0-.73-.08h0a3.19,3.19,0,0,0-.81.13Z" transform="translate(-32.15 -2.37)"/><path d="M172.76,114.31Zm1.51-.07v0Zm0-.17a0,0,0,0,0,0,0,0,0,0,0,1,0,0Zm-.73-.33h0Zm-.23,0h0Zm2-.92h0Zm-.41-.23,0,0,0,0Zm-2.1-.69a1.86,1.86,0,0,0-.69.49,2,2,0,0,0-.39.79,3.56,3.56,0,0,0-.06.44,2.81,2.81,0,0,0,0,.41,2,2,0,0,0,.27.84,1.43,1.43,0,0,0,.31.34,1.59,1.59,0,0,0,.5.26,2.44,2.44,0,0,0,.47.09,2,2,0,0,0,.49,0,1.41,1.41,0,0,0,.39-.19,1.62,1.62,0,0,0,.37-.37,1.56,1.56,0,0,0,.17-.37,1.69,1.69,0,0,0,.05-.24,1.22,1.22,0,0,0,0-.27.82.82,0,0,0-.2-.35,1.11,1.11,0,0,0-.38-.18,1.93,1.93,0,0,0-.41-.06,1.71,1.71,0,0,0-.45,0,.85.85,0,0,0-.3.15.77.77,0,0,0-.22.29.64.64,0,0,0,0,.36.29.29,0,0,0,.07.12l.17.19h0l-.13-.23h0a.36.36,0,0,1,0-.11.34.34,0,0,1,0-.1.74.74,0,0,1,0-.14h0a.41.41,0,0,1,.05-.09.63.63,0,0,1,.11-.12l.13-.07.17,0h.29a2.11,2.11,0,0,1,.43.12.7.7,0,0,1,.17.09.46.46,0,0,1,.07.07.05.05,0,0,1,0,0,.27.27,0,0,1,0,.12.11.11,0,0,0,0-.05.14.14,0,0,1,0,.09,1.25,1.25,0,0,1-.07.26l-.09.16a1.07,1.07,0,0,1-.19.18l-.18.11a.76.76,0,0,1-.2.06,1,1,0,0,1-.24,0,1.91,1.91,0,0,1-.41-.11,1.06,1.06,0,0,1-.2-.12,1.21,1.21,0,0,1-.16-.16,1.62,1.62,0,0,1-.1-.18,1.57,1.57,0,0,1-.08-.31,2.9,2.9,0,0,1,0-.59,2.58,2.58,0,0,1,.11-.42,1.48,1.48,0,0,1,.16-.27,1.26,1.26,0,0,1,.2-.2,1.28,1.28,0,0,1,.25-.15l.29-.08a3.23,3.23,0,0,1,.44,0,3.39,3.39,0,0,1,.45,0,3.46,3.46,0,0,1,.7.19,2.24,2.24,0,0,1,.4.22,3.31,3.31,0,0,1,.26.27,3.88,3.88,0,0,1,.38.69c0,.11.09.21.13.32a0,0,0,0,0,0,0,15.49,15.49,0,0,1,.46,1.51h0a14.82,14.82,0,0,0-.2-1.47,5.32,5.32,0,0,0-.16-.57,3.8,3.8,0,0,0-.18-.47,2,2,0,0,0-.51-.66,2.41,2.41,0,0,0-.67-.41c-.12,0-.24-.09-.37-.12a3.85,3.85,0,0,0-.49-.08,2.63,2.63,0,0,0-.49,0,1.93,1.93,0,0,0-.71.12Z" transform="translate(-32.15 -2.37)" style="opacity:0.4"/><path d="M172.2,99.86h0Zm0,1.65a0,0,0,0,0,0,0,0,0,0,0,1,0,0Zm0,0s0,0,0,0,0,0,0,0Zm.35-1.11h0Zm.19-.18v0Zm-.31-.19h0Zm-.31-.3v0Zm.06-.27h0Zm.19-.18h0Zm-.13-.22a.49.49,0,0,0-.23.26.92.92,0,0,0-.05.37.46.46,0,0,0,.15.29.37.37,0,0,0,.25.1.46.46,0,0,0,.2,0c.05,0,.12-.09.16-.13h0l-.18.1h-.1a.27.27,0,0,1-.12,0h0l-.08,0h0a.18.18,0,0,1-.07,0h0a.22.22,0,0,1,0-.08.19.19,0,0,1,0-.07v-.09a1.17,1.17,0,0,1,.06-.2l0-.07.08-.07,0,0,.09,0h0l.15,0a.57.57,0,0,1,.13.08l.09.09a.41.41,0,0,1,0,.09s0,0,0,.06v.17a2.29,2.29,0,0,1-.07.28l-.07.11a3,3,0,0,1-.26.24l-.29.22c-.14.12-.28.24-.41.37a1,1,0,0,0-.27.49.81.81,0,0,0,.09.53.67.67,0,0,0,.12.16,1,1,0,0,0,.17.14l.16.11a1.29,1.29,0,0,1,.17.16l0,0a.09.09,0,0,1,0,.05.66.66,0,0,1,0,.14.94.94,0,0,1,0,.16,1.76,1.76,0,0,1-.14.23v0l-.08.1.06-.07-.27.32a2.67,2.67,0,0,0-.43.57,1.5,1.5,0,0,0,0,1.12,1.53,1.53,0,0,0,.29.47,1.88,1.88,0,0,0,.26.22,1.64,1.64,0,0,1,.24.21l.06.09a.24.24,0,0,0,0,.08.22.22,0,0,1,0,.08.31.31,0,0,1,0,.08,5.8,5.8,0,0,1-.34.52,2.43,2.43,0,0,0-.29.49,1.29,1.29,0,0,0,0,.55,3.06,3.06,0,0,0,.15.8.94.94,0,0,0,.35.5.88.88,0,0,0,.27.1c.14,0,.28,0,.42.08h0l-.39-.14a1.71,1.71,0,0,1-.23-.13l-.07-.07L172,109a1.53,1.53,0,0,1-.08-.37,3.38,3.38,0,0,1,0-.84l0-.14.12-.2a10.28,10.28,0,0,0,.67-.81.83.83,0,0,0,.1-.41.91.91,0,0,0-.23-.54c-.14-.17-.32-.29-.47-.45l-.06-.12a.9.9,0,0,1-.07-.27,1.55,1.55,0,0,1,0-.22,1.06,1.06,0,0,1,.06-.19,1.09,1.09,0,0,1,.08-.15l.37-.41a5.58,5.58,0,0,0,.37-.48,1.1,1.1,0,0,0,.17-.52.87.87,0,0,0-.09-.57,1.32,1.32,0,0,0-.47-.47l-.22-.14,0,0v0a.14.14,0,0,1,0-.06v0c0-.06.06-.1.09-.15a5.09,5.09,0,0,1,.6-.63,2.4,2.4,0,0,0,.21-.23,1.08,1.08,0,0,0,.21-.43c0-.1,0-.21,0-.31a.9.9,0,0,0-.09-.4.41.41,0,0,0-.12-.17.7.7,0,0,0-.16-.13,1,1,0,0,0-.37-.12h-.08a.54.54,0,0,0-.25.06Z" transform="translate(-32.15 -2.37)" style="opacity:0.4"/><path d="M184,116.44Zm-.15.07Zm.09,0Zm0,0h0Zm-18.62-.56.9,0c.29,0,.59,0,.89,0l1.31,0,1.79.08,2,.1,2.13.11,1.17.06,1.07.08.56,0,.53.06h-.17l-.83,0-1.42-.05c-1.24,0-2.49-.07-3.74-.07s-2.77,0-4.16,0-2.77-.07-4.15-.13h0l1-.12,1.12-.09Zm9.31-.41-.87,0-2,0c-1.47,0-3-.07-4.42-.08H167l-.48,0-.72,0h-.27l-1.25.11c-.36,0-.71.08-1.07.12l-1.86.23-.48,0-.29,0h-.31a.69.69,0,0,0-.25,0,.41.41,0,0,0-.29.36v0l-1.32-.06h0l1.34.16a.37.37,0,0,0,.25.25l.35.09.4,0,.77,0,.41,0,1.28,0h.88l1.12,0h2.16l2.16,0,2,0,.85,0h1l2.21,0,4.18.15c.47,0,.94.06,1.42.12h.11l.11,0a.91.91,0,0,0,.33,0,.4.4,0,0,0,.28-.47.61.61,0,0,0-.05-.12l.87,0,.49,0c.2,0,.4,0,.6,0h0a.22.22,0,0,0,.14,0s0-.1.07-.15h0a.69.69,0,0,0,0,.08h0l0,0h0s0,0,0,0h0c-.37,0-.75,0-1.13,0h-1l-.18-.14a1.63,1.63,0,0,0-.19-.09l-.15-.06c-.23-.08-.47-.14-.71-.2a13.13,13.13,0,0,0-1.53-.23l-1.34-.12-.81-.05-1.27-.07h-1Z" transform="translate(-32.15 -2.37)"/></g></svg>