<svg id="Layer_1" data-name="Layer 1" xmlns="http://www.w3.org/2000/svg" viewBox="0 0 127.36 212.34"><defs><style>.cls-1{opacity:0.74;}.cls-2{fill:#3c5412;}.cls-3{fill:#676767;}.cls-4{fill:#047391;}.cls-5{fill:#fff;opacity:0.45;}.cls-5,.cls-6{isolation:isolate;}.cls-6{opacity:0.4;}</style></defs><g class="cls-1"><path class="cls-2" d="M185.82,208.59h1.57a4.37,4.37,0,0,1,3.17,1,2.31,2.31,0,0,1,.66,2.28,12.77,12.77,0,0,1,1.48.48,10.86,10.86,0,0,1,3.67,1.93,2.25,2.25,0,0,1,.66,1.08.84.84,0,0,0,.08.43l.52.11a2.47,2.47,0,0,1,1.78,1.66,2.25,2.25,0,0,1,0,1.26,2.33,2.33,0,0,1-1.16,1.42c-.27.13-.55.24-.84.35a11,11,0,0,1-1.41.15H172.22l-1.3.17-.67-.08a2.59,2.59,0,0,1-.94-.3,2.91,2.91,0,0,1-1-.92,1.31,1.31,0,0,1-.17-.28c-.52,0-1,0-1.56.07a4.16,4.16,0,0,1-1.27-.07,2.56,2.56,0,0,1-2.39-1.16,2.31,2.31,0,0,1,.91-3.24l.22-.11.36-.42a12.75,12.75,0,0,1,2.17-1.76,13.61,13.61,0,0,1,2.16-1.08,16.94,16.94,0,0,1,2.1-.76l1.9-.56c1-.27,1.92-.52,2.89-.74.61-.17,1.23-.31,1.86-.44a18.28,18.28,0,0,1,2.86-.32c.85-.07,1.68-.11,2.52-.13h2.18Z" transform="translate(-116 -11.66)"/><path class="cls-3" d="M187.34,159.17Zm-11-.56Zm6.94-8.31a9.16,9.16,0,0,0-2.15-.2h-.24c-.77,0-1.53,0-2.32.07a11.39,11.39,0,0,0-3.46.79,9.33,9.33,0,0,0-2.31,1.35l-.33.26-1,.19a1.46,1.46,0,0,0-1.1,1.81.77.77,0,0,0,.12.28c-.2.35-.37.72-.54,1.08s-.39.91-.56,1.37a10.06,10.06,0,0,1-.62,1.14,10.73,10.73,0,0,0-1,3.31,7.3,7.3,0,0,0,.28,2.75,2.52,2.52,0,0,0,.56.91,2.21,2.21,0,0,0,.87.49l1,.13.89.11c1.25.17,2.51.34,3.78.45l2.45.22L180,167c1.64.14,3.29.31,4.94.32s3.39,0,5.08,0a6.17,6.17,0,0,0,1.06-.06,7,7,0,0,0,1.65-.28,3.18,3.18,0,0,0,1.29-.76,1.94,1.94,0,0,0,.53-1.51c-.11-.79-.28-1.56-.44-2.34A8.49,8.49,0,0,0,193,159.2a10.43,10.43,0,0,0-.9-1.2l-.34-.43a1.24,1.24,0,0,0-.21-.95,21.83,21.83,0,0,0-2.87-3.44,10,10,0,0,0-2.4-1.69c-.31-.14-.62-.29-.95-.42a11.23,11.23,0,0,0-2.07-.71Z" transform="translate(-116 -11.66)"/><path class="cls-3" d="M180.88,98a1.57,1.57,0,0,1,.93.67,1.45,1.45,0,0,1,.18,1.09,5.48,5.48,0,0,0-1.26-.23,5.71,5.71,0,0,0-2,.36c.06-.31.13-.6.19-.89a1.43,1.43,0,0,1,.73-.89,1.65,1.65,0,0,1,.79-.19,1.48,1.48,0,0,1,.42,0Z" transform="translate(-116 -11.66)"/><path class="cls-3" d="M181.77,99.3h0ZM187,93.44a1.55,1.55,0,0,0-1.54-1.08,2.67,2.67,0,0,0-.4,0l-1.86.37a9.72,9.72,0,0,1-1.15.15h.15c-1.31.13-2.6.29-3.91.36s-2.57.1-3.86.1h-.27a1.47,1.47,0,1,0,0,2.94h1.41a1.2,1.2,0,0,0-.21.17,3.19,3.19,0,0,0-.79.17,5.24,5.24,0,0,0-.85.35,1.46,1.46,0,0,0-.33,2.36,1.94,1.94,0,0,0,1.38.59h4a5.61,5.61,0,0,1,3.13-.24l.81-.19a1.57,1.57,0,0,0,.89-.59,1.72,1.72,0,0,0,.52-.4,2,2,0,0,0,.61-.32,1.47,1.47,0,0,0,.79-1.26,1.5,1.5,0,0,0-.39-1,1.5,1.5,0,0,0,.28-.6l.47-.1A1.47,1.47,0,0,0,187,93.41Z" transform="translate(-116 -11.66)"/><path class="cls-3" d="M171.6,74.44Zm8-7.06h-.82a11.28,11.28,0,0,0-1.92.14,13.06,13.06,0,0,0-3,.93A9.34,9.34,0,0,0,171.37,70l-.35.35c-.13.14-.25.3-.37.45a1.44,1.44,0,0,0-.23.88v.08a2,2,0,0,0-1,1.09,1.3,1.3,0,0,0,0,.78,1.51,1.51,0,0,0,1.1,1.08c.9.15,1.81.18,2.71.27l2,.18c1.38.14,2.77.29,4.17.37.75,0,1.5.1,2.25.12l2.49.06c.72,0,1.46,0,2.19.07l2.44.19a1.51,1.51,0,0,0,1.15-.42,1.27,1.27,0,0,0,.21-.25,1.48,1.48,0,0,0,.65-.41,2,2,0,0,0,.44-.75,1.74,1.74,0,0,0,0-1,3.75,3.75,0,0,0-.28-.77,6.23,6.23,0,0,0-.7-1.08,6.7,6.7,0,0,0-1.16-1.16A11.31,11.31,0,0,0,185,68.39c-.82-.21-1.66-.44-2.5-.58a22.78,22.78,0,0,0-2.85-.31Z" transform="translate(-116 -11.66)"/><path class="cls-3" d="M166.73,215.9Zm10.53-7.74h-1.59a11.79,11.79,0,0,0-3.54.6,18.1,18.1,0,0,0-3.18,1.41,3.6,3.6,0,0,0-1,.11,1.57,1.57,0,0,0-1.15,1.23l-1.16.28a1.48,1.48,0,0,0-1.16,1.79v0a.19.19,0,0,0,.06.14l-.38.39-.8.84-.39.43a4.44,4.44,0,0,0-.46.59l-.3.56a1.44,1.44,0,0,0-.16,1.14,1.49,1.49,0,0,0,.72.88,1.71,1.71,0,0,0,2-.35,1.54,1.54,0,0,0,.93.68,7,7,0,0,0,1.58.12H171c1.38,0,2.77,0,4.15.1l4.75.17h8.85c1.9,0,3.79,0,5.7-.11a17,17,0,0,0,2.85-.27,3.73,3.73,0,0,0,1.45-.53,1.4,1.4,0,0,0,.56-.52l.1-.12a1.78,1.78,0,0,0,.27-.87c.12-.93-.73-1.62-1.44-2.1a9.57,9.57,0,0,0-1-.64c-.69-.39-1.39-.76-2.11-1.08a24.21,24.21,0,0,0-2.5-1.09l-1.45-.5-.52-.17A1.72,1.72,0,0,0,190,211l-.62-.1c-.63-.29-1.25-.56-1.89-.81a31.1,31.1,0,0,0-3.56-1.08,25,25,0,0,0-3.46-.61c-1.07-.11-2.14-.19-3.21-.2Z" transform="translate(-116 -11.66)"/><path class="cls-4" d="M177.35,74.22a66.17,66.17,0,0,1-8.56-.71,10,10,0,0,1,.76-.89c.29-.3.36-.87.55-1.26v-.12l.16-.33a7.79,7.79,0,0,1,.76-1.35,6.61,6.61,0,0,1,2.23-2,9.81,9.81,0,0,1,3.85-1,13.55,13.55,0,0,1,1.43-.08,12.12,12.12,0,0,1,3.35.45,8.22,8.22,0,0,1,1.85.46,22.52,22.52,0,0,1,2.77,1.29l1.16.61.14.06A10.17,10.17,0,0,1,189,70a3.48,3.48,0,0,1,1,1,3.15,3.15,0,0,1,.39.75v.12l.06.11.07.29h0a4,4,0,0,1,.1,1.09,3.49,3.49,0,0,1-.39,1.51C186.31,75.62,181.51,74.26,177.35,74.22Z" transform="translate(-116 -11.66)"/><path class="cls-4" d="M167.62,75.37c.13-.27.28-.54.44-.81a86.26,86.26,0,0,0,10.4.84c3.79.08,7.89,1.2,11.7.74a2.78,2.78,0,0,1,.6,1.2,4.4,4.4,0,0,1,.39.66,7.62,7.62,0,0,1,.45,1.15,4.92,4.92,0,0,1,.21,1.08v.25c.08.59.1,1.16.12,1.63v1.94a14,14,0,0,1-.24,2.23,8.21,8.21,0,0,1-.85,2.29l-.3.53h-.06c-3.68,3.18-9.92,3-14.61,2.51-.68-.07-1.35-.17-2-.28l-.17-.07a15.19,15.19,0,0,1-3.95-2.52,6.87,6.87,0,0,1-.52-.59L169.1,88A10.37,10.37,0,0,1,168,86.44a10.67,10.67,0,0,1-1.34-4.62c0-.53-.06-1.08-.06-1.7a10.57,10.57,0,0,1,.17-2.1A11.51,11.51,0,0,1,167.62,75.37Z" transform="translate(-116 -11.66)"/><path class="cls-3" d="M186.7,94.15a2.3,2.3,0,0,1-.16.82,6.59,6.59,0,0,1,.25,1.58V97.9q0,.3,0,.6a2.73,2.73,0,0,1-.69,1.67c-4,0-8.09.06-12.1.11l-.21-.24-.16-.19a3.9,3.9,0,0,1-.36-.93,8.17,8.17,0,0,1-.15-1.21v-.17a2.28,2.28,0,0,1-.83-1.22l-.1-.64a2.26,2.26,0,0,1,.33-1.18v-.2l.11-.25.1-.3a5.53,5.53,0,0,1,.54-1.09l.17-.19a36.11,36.11,0,0,0,5.69.48A29.08,29.08,0,0,0,187,92.2c-.34.15-.69.28-1,.41A2.19,2.19,0,0,1,186.7,94.15Z" transform="translate(-116 -11.66)"/><path class="cls-4" d="M154.73,182.27a9.26,9.26,0,0,1,.28-1.35,12,12,0,0,1,1.15-2.65,12.38,12.38,0,0,1,1.87-2.35l.17-.17.6-.61.09-.08L159,175l.08-.07.13-.13.1-.09.07-.08.23-.23c.42-.42.89-.86,1.4-1.29l.2-.36a8.54,8.54,0,0,1,.77-1.15,5.5,5.5,0,0,1,1.16-1.15c.4-.29.78-.55,1.15-.79s.59-.35.9-.53l.13-.06.11-.07,1.16-.61.25-.16.13-.06a8.12,8.12,0,0,1,1-.51,2.68,2.68,0,0,1,2.52,0c.51,0,1.07-.1,1.71-.14a.29.29,0,0,1-.13-.14,12.26,12.26,0,0,1-1.78-.2,3.3,3.3,0,0,1-.52-.13,2.42,2.42,0,0,1-1.09.25,2.39,2.39,0,0,1-.66-.09,2.5,2.5,0,0,1-1.16-.61,2.42,2.42,0,0,1-.75-1.7,23.25,23.25,0,0,1,0-2.64,21.85,21.85,0,0,1,.34-3.32,2.33,2.33,0,0,1,1.15-1.43,2.59,2.59,0,0,1,2.09-.21,9.74,9.74,0,0,1,3.15-6.34,4.61,4.61,0,0,1,1-.75,2.7,2.7,0,0,1,1.28-.32l1,.12a2.86,2.86,0,0,1,.74.32,3.65,3.65,0,0,1-.09-.74c0-1.15-.07-2.33-.08-3.58V101.45l5.1-.06v43.07c0,1.88,0,4,.16,6a2,2,0,0,0,.1.49,12.94,12.94,0,0,1,4.1,1.63,16.52,16.52,0,0,1,5.78,5.85c.19.11.39.22.57.34a17.05,17.05,0,0,1,2.07,1.5,8.58,8.58,0,0,1,1.9,2.27,6.47,6.47,0,0,1,.45,1l.09.23a4.72,4.72,0,0,1,.27,1.28,5.67,5.67,0,0,1-.1,1.09v.2a3.4,3.4,0,0,1-.39,1v.08l-.09.18-.08.11-.12.16c-.06.07-.11.15-.16.22a9,9,0,0,1,1.24.3,11.37,11.37,0,0,1,2.1.88,11.76,11.76,0,0,1,1.66,1.21c.43.36.88.8,1.38,1.29.76.78,1.65,1.69,2.48,2.63.45.51.86,1,1.25,1.58a10.07,10.07,0,0,1,1.06,2c.28.67.51,1.25.7,1.78a12.67,12.67,0,0,1,.38,1.5v.11a19.46,19.46,0,0,1,.36,2.16c.11,1.25.18,2.49.21,3.83a17,17,0,0,1-.12,2.37,11.92,11.92,0,0,1-.51,2.22,10.8,10.8,0,0,1-1.1,2.17,12.88,12.88,0,0,1-2.62,2.85l-.89.73-.13.1-.39.31a31.1,31.1,0,0,1-3,2.17A9.08,9.08,0,0,1,199,201l-.19.08a16.85,16.85,0,0,1-1.82.73,30.91,30.91,0,0,1-3,.78c-1.16.21-2.31.36-3.25.48l-.86.12h-.11c-1.06.14-2.16.29-3.26.38s-2.31.09-3.28.09h-8a21.72,21.72,0,0,1-9.24-2,22.26,22.26,0,0,1-3.33-2h0a17.82,17.82,0,0,1-1.55-1.2c-.45-.42-.9-.85-1.48-1.43a18.72,18.72,0,0,1-1.69-2.08,12.57,12.57,0,0,1-1.16-1.92,20,20,0,0,1-1-2.34,15.89,15.89,0,0,1-.88-3.66c-.07-.63-.13-1.25-.17-1.88V183.5A8.42,8.42,0,0,1,154.73,182.27Z" transform="translate(-116 -11.66)"/><path class="cls-5" d="M180.22,67.32a12.73,12.73,0,0,1,2.82.35,15.45,15.45,0,0,1,5.61,2.58c.34.24.67.49,1,.75l.81.4.74.31a1.84,1.84,0,0,1,1,1.62h0a6.75,6.75,0,0,1,.55.65,1.26,1.26,0,0,1,0,1.32,1.46,1.46,0,0,1-1.57.6,4.73,4.73,0,0,1-1.16-.36l-.38-.19h-.78a.52.52,0,0,1-.51.46,16.47,16.47,0,0,1-2.72-.11l-1.27-.12-1.08-.08-.73-.08a7.52,7.52,0,0,1-1.25-.17,1,1,0,0,1-.73-.9.87.87,0,0,1,.22-.57l-1.85-.34a1.63,1.63,0,0,1-.31-3.1l-.17-.15a1.67,1.67,0,0,1,0-2.47h0l-1.53-.07h0c.71-.1,1.4-.2,2.12-.28l.23-.08a2.05,2.05,0,0,1,.49-.06,2.42,2.42,0,0,1,.47,0Z" transform="translate(-116 -11.66)"/><path class="cls-5" d="M179.26,82.24Zm10.2-6.68a17.49,17.49,0,0,0-2.4-.16c-1.05,0-2.1.07-3.16.14-1.86.12-3.7.26-5.56.4h0l5.55.4-.47.12h-1a9.53,9.53,0,0,0-1.7.1,3.48,3.48,0,0,0-1.28.3,2.08,2.08,0,0,0-.36.2,1.65,1.65,0,0,0-.66,2.34,1.83,1.83,0,0,0,1.1.79l.48,0a1.87,1.87,0,0,0,.09.41,2.65,2.65,0,0,0,.64,1.08c.17.14.35.26.53.39h0l-1,.14-1,.18h0l0-.1.17-.12h0l.28-.18h0a1.63,1.63,0,0,0-.62.37h0a.06.06,0,0,0,0,.06l-.67.15a.62.62,0,0,0-.47.77.65.65,0,0,0,.66.46,8.43,8.43,0,0,0,1-.06h.22l-.17.08h0a1.19,1.19,0,0,0-.42.35h0a1.21,1.21,0,0,0-.48,1.71.92.92,0,0,0,.24.28l-.52.42a1.47,1.47,0,0,0-.4,1.69,1.53,1.53,0,0,0-.19,1.28,1.72,1.72,0,0,0,.61.87v.4a1.77,1.77,0,0,0,1,1.54,1.93,1.93,0,0,0,1.47.18,16.31,16.31,0,0,1,1.67-.42c.45-.11.88-.26,1.32-.4s.9-.34,1.34-.5l1-.38,1.16-.47h.12a2.09,2.09,0,0,0,.92-.45l.19-.09.21-.11c.21-.13.41-.27.6-.41a6.31,6.31,0,0,0,1.67-2.79,10.61,10.61,0,0,0,.5-3.4,14.22,14.22,0,0,0-.13-1.72,9.86,9.86,0,0,0-.21-1.08,1.82,1.82,0,0,0-.44-2.08l-.15-.14a1.4,1.4,0,0,0-.21-.73,1.72,1.72,0,0,0-.52-.59v-.07a1.84,1.84,0,0,0,.06-.47.77.77,0,0,0-.6-.74Z" transform="translate(-116 -11.66)"/><path class="cls-5" d="M183.18,91.57h.1a.86.86,0,0,1,.55.26,2.5,2.5,0,0,1,.95.51l.45.54a5.7,5.7,0,0,1,.5.9,13.73,13.73,0,0,1,.88,3.89,3.05,3.05,0,0,1,0,.74,1.91,1.91,0,0,1-.57,1.28,2,2,0,0,1-1.36.52,1.45,1.45,0,0,1-1.64,0,1.81,1.81,0,0,1-.82.49,2,2,0,0,1-.92,0,1.66,1.66,0,0,1-.33.15,1.17,1.17,0,0,1-1.33-.72c-.16-.86-.39-1.74-.5-2.62a12.53,12.53,0,0,0-.16-1.34,5.2,5.2,0,0,1,0-2.08,1.48,1.48,0,0,1,1.42-1h.32c0-.11,0-.21.05-.32a1.83,1.83,0,0,1,1.34-1.24,1.79,1.79,0,0,1,.51-.07,2.24,2.24,0,0,1,.51.07Z" transform="translate(-116 -11.66)"/><path class="cls-5" d="M180.59,142.7v0Zm.29-44.37h0c-.37,1.66-.82,3.32-1.07,5-.1.72-.19,1.46-.25,2.16a9.32,9.32,0,0,0,0,1.67,9.75,9.75,0,0,0,.18,1.29c.14,1.08.29,2.07.36,3.12s.12,2.17.1,3.25c0,2.35-.15,4.7-.21,7a32.18,32.18,0,0,1-.11,3.25c-.1,1.08-.17,2.32-.26,3.47a48.27,48.27,0,0,0,.22,7c.08,1.09.15,2.24.26,3.37s.35,2.39.52,3.58c.28,2.23.58,4.45.85,6.68h0c.31-2.74.62-5.51.69-8.26,0-1.08.13-2.25.22-3.38s.17-2.25.24-3.37.16-2.32.24-3.48.28-2.38.41-3.57a23.55,23.55,0,0,0,.29-3.35c0-1.15,0-2.3-.08-3.45s-.07-2.28-.12-3.43a37.22,37.22,0,0,0-.3-3.8,29.88,29.88,0,0,0-.63-3.24c-.18-.62-.35-1.23-.54-1.84a20.51,20.51,0,0,1-.6-2.17c-.11-1.16-.24-2.31-.27-3.47,0-1.43,0-2.86-.12-4.33Z" transform="translate(-116 -11.66)"/><path class="cls-5" d="M192.12,166.85Zm-12.07-14.94h-.56a2.08,2.08,0,0,0-1,.23,2.11,2.11,0,0,0-.7.66,1.84,1.84,0,0,0-.2,1.41,2,2,0,0,0,.48.78,1.28,1.28,0,0,0,.11.2c.09.12.18.24.28.35a1.75,1.75,0,0,0-.46.77,1.89,1.89,0,0,0,1.39,2.3l.51.16a1.78,1.78,0,0,0-.93,1.08,1.66,1.66,0,0,0,0,1.08,1.77,1.77,0,0,0-.93,1.54,1.82,1.82,0,0,0,1.41,1.73h.19a1.12,1.12,0,0,0,.64,1.52.85.85,0,0,0,.17.06,42.67,42.67,0,0,0,5.65.65h.55c-1.83.18-3.66.31-5.5.45h0c1.83.12,3.66.24,5.49.31h4.89a10.23,10.23,0,0,0,1.08-.2.66.66,0,0,0,.52-.81s0,0,0,0a2.24,2.24,0,0,0,.37-.1,3,3,0,0,0,1.05-.46,1.81,1.81,0,0,0,.33-.29,1.54,1.54,0,0,0,.42-1.52,1.68,1.68,0,0,0-1-1.09,1.94,1.94,0,0,0-.16-.57,1.65,1.65,0,0,0-.09-.7,1.14,1.14,0,0,0-.15-.36,1,1,0,0,0,.15-.31,1.06,1.06,0,0,0-.29-1.09l-.13-.13a.54.54,0,0,0,0-.18,1.89,1.89,0,0,0-1.44-1.77l-.56-.18h0l-.69-.69a2,2,0,0,0-.6-1.16,2.26,2.26,0,0,0-.9-.49l-.9-.25a13.83,13.83,0,0,0-3.47-1.76,23.93,23.93,0,0,0-2.49-.64c-.86-.22-1.73-.4-2.6-.55Z" transform="translate(-116 -11.66)"/><path class="cls-5" d="M204.32,188.9h.17v.3l-.57-.08.22-.1.2-.13Zm-23.67-22.48h-.1a1.48,1.48,0,0,0-1.15.68,1.31,1.31,0,0,0-.07,1.2l-1.47-.06h0a1.5,1.5,0,0,0-1.59,1.41,1.46,1.46,0,0,0,1.18,1.44l.65.13h0a1.85,1.85,0,0,0,.62,1.3l.07.07-.27.12a1.48,1.48,0,0,0-.73.88,1.5,1.5,0,0,0,.73,1.68,2.36,2.36,0,0,0,.76.34,1.16,1.16,0,0,0,.4,1.08h0a4.18,4.18,0,0,0-.79.11,1.48,1.48,0,0,0-1.27,1,1.4,1.4,0,0,0,1,1.71l.55.15a1.28,1.28,0,0,0,0,1.31,4.69,4.69,0,0,0,.9,1h0a1.41,1.41,0,0,0,.25,1.77l.61.44a2.62,2.62,0,0,0,1,.28h.19l-.48.1h0a1.4,1.4,0,0,0-1.1,1.34,1.47,1.47,0,0,0,1.5,1.41h.73a1.61,1.61,0,0,0,1.24,1.24h0a1.54,1.54,0,0,0-.24.83,1.67,1.67,0,0,0,1.06,1.52v.18a1.78,1.78,0,0,0,1.05,1.58l-.39.13a11,11,0,0,1-1.16.3,3.7,3.7,0,0,0-.57.07,5.19,5.19,0,0,0-.59.24h0a1.63,1.63,0,0,0-.63.59,1.58,1.58,0,0,0,0,1.65,1.61,1.61,0,0,0,.21.3,2,2,0,0,0-.44.47,1.7,1.7,0,0,0-.25.9,1.77,1.77,0,0,0,.77,1.44,14.63,14.63,0,0,0-1.43.71,1.67,1.67,0,0,0-.75,2.17,2.14,2.14,0,0,0-.37,3.15,2.45,2.45,0,0,0,.66.53l.58.23a9.09,9.09,0,0,0,1.28.12h.61c.61-.06,1.23-.11,1.83-.2.82-.11,1.63-.24,2.42-.39a22.73,22.73,0,0,0,2.31-.53c.52-.08,1-.17,1.56-.28.77-.15,1.52-.35,2.26-.52s1.64-.39,2.43-.64c.41-.13.8-.26,1.16-.4.7-.27,1.41-.52,2.08-.84a17,17,0,0,0,2.8-1.77c.49-.38,1-.74,1.49-1.17a12.81,12.81,0,0,0,2-2.31c.21-.32.44-.62.65-.93.33-.56.68-1.09,1-1.67a12.25,12.25,0,0,0,1.16-3.25,15.22,15.22,0,0,0,.22-2V186.9a22.08,22.08,0,0,0-.76-5.36,18.82,18.82,0,0,0-2.31-4.83,13.85,13.85,0,0,0-1.67-2.16,19.61,19.61,0,0,0-1.78-1.75c-.76-.59-1.56-1.15-2.38-1.67a14.54,14.54,0,0,0-1.25-.78,13.6,13.6,0,0,0-2.31-.93,18.48,18.48,0,0,0-2.54-.63l-.4-.08-.33-.12a46,46,0,0,0-5.32-1.48,29.7,29.7,0,0,0-4.51-.65c-.77,0-1.53,0-2.31-.07h-.42Z" transform="translate(-116 -11.66)"/><path class="cls-5" d="M185.76,212a10.43,10.43,0,0,1,1.16.42l.73.31-.66-.15-.39-.14h0l-.88-.44Zm-3.17-1.48a2.45,2.45,0,0,0-.71-.11h-.23a1.39,1.39,0,0,0-.87.38L179,211h1.57a.14.14,0,0,0,0,.09,1,1,0,0,0,.52,1.19l.45.26a2,2,0,0,0-.21.44,1.8,1.8,0,0,0,1.16,2.17,1,1,0,0,0-.3.13,1.47,1.47,0,0,0-.74.69l-1.16-.08h-.51a5.2,5.2,0,0,0-.68.06,1.71,1.71,0,0,0-1.85,1.55,1.67,1.67,0,0,0,1.37,1.7c.56.14,1.15.24,1.72.34a1.49,1.49,0,0,0-.07.47,1.72,1.72,0,0,0,.58,1.28,1.94,1.94,0,0,0,.85.48,2.69,2.69,0,0,0,1,.11h.49l.67.05c.58,0,1.16.1,1.76.13,1.38.07,2.75.1,4.14.12,1.15,0,2.31,0,3.53-.05.59,0,1.16-.11,1.77-.17l.83-.08a13.59,13.59,0,0,0,1.9-.38,1.85,1.85,0,0,0,1.37-2.27.09.09,0,0,0,0-.07,1.13,1.13,0,0,0-.14-1.08,2.55,2.55,0,0,0-.6-.58l-.22-.14c-.72-.57-1.43-1.17-2.16-1.74a22,22,0,0,0-3.69-2.55c-.74-.37-1.52-.68-2.32-1a19.2,19.2,0,0,0-3-1,16.94,16.94,0,0,0-4.08-.49,1.63,1.63,0,0,0-.37-.13Z" transform="translate(-116 -11.66)"/><path d="M153.74,73.21a8.29,8.29,0,0,0,.86.21c1.92.18,3.84.24,5.78.26s4,0,6,0c3.92-.08,7.84,0,11.75.15,3.71.21,7.43.46,11.14.75,4,.33,8,.64,12,1.08h0c-4.08.51-8.19.81-12.3.91a108.79,108.79,0,0,1-11.56-.49c-3.95-.39-7.9-.78-11.86-1.08q-3-.24-5.94-.57c-.82-.1-1.64-.21-2.46-.34l-1.48-.26-.61-.12-.43-.08a5,5,0,0,1-.85-.37h0Z" transform="translate(-116 -11.66)"/><path d="M166.79,78.26v0Zm4.62-3.88h0a15.69,15.69,0,0,0-1.66.21,4.72,4.72,0,0,0-.89.19l-1,.26a2.52,2.52,0,0,0-1.16.56,4.39,4.39,0,0,0-.77,1.23,9,9,0,0,0-.77,3,21.15,21.15,0,0,0,0,4.5,10.54,10.54,0,0,0,1.16,4A8.42,8.42,0,0,0,169,91.08,16.5,16.5,0,0,0,172.92,93a14.29,14.29,0,0,0,4.26.7,22.14,22.14,0,0,0,9.1-1.39,15.48,15.48,0,0,0,3.77-2.17,10.08,10.08,0,0,0,1.56-1.5,8.7,8.7,0,0,0,1-1.61,9.84,9.84,0,0,0,.77-2.17,8.58,8.58,0,0,0,.24-1.89,15.57,15.57,0,0,0-.16-2,11.64,11.64,0,0,0-.5-2.4,9.71,9.71,0,0,0-.69-1.71l-.4-.65c.9-.08,1.8-.13,2.7-.22,1.54-.13,3-.27,4.54-.42h0c-2.08-.21-4.17-.41-6.25-.57l-1.36-.1a2.86,2.86,0,0,0-1,0,1,1,0,0,0-.67.63,2.5,2.5,0,0,0,.41,1.56c.1.29.23.57.33.86a9.75,9.75,0,0,1,.35,1.39,18.52,18.52,0,0,1,.1,2.11,13.17,13.17,0,0,1-.07,1.65,9.38,9.38,0,0,1-.56,1.85,9.72,9.72,0,0,1-.95,1.61,8.16,8.16,0,0,1-1.26,1.08,17,17,0,0,1-3.07,1.7A17.6,17.6,0,0,1,183,90c-.79.17-1.57.29-2.37.4a26.52,26.52,0,0,1-5.49.15,13.36,13.36,0,0,1-5.3-2.09,7,7,0,0,1-.94-.86,8.62,8.62,0,0,1-.85-1.39,15.42,15.42,0,0,1-1-3.51,20.8,20.8,0,0,1-.24-4.46,7.93,7.93,0,0,1,.46-1.65c.08-.13.16-.26.25-.38l.11-.12a10.52,10.52,0,0,1,1.52-.81c.39-.19.78-.36,1.15-.52h0c.38-.15.78-.25,1.16-.37Z" transform="translate(-116 -11.66)"/><path d="M190.83,72.67v0Zm0-.15Zm0-.16v.15h0v-.14Zm-9.41-7.09c-.81-.09-1.63-.14-2.45-.15h-.12a11.81,11.81,0,0,0-4.86.72,12.44,12.44,0,0,0-2.74,1.7,7.94,7.94,0,0,0-1.63,2,8.68,8.68,0,0,0-.71,1.59c-.06.2-.11.41-.16.61a16.68,16.68,0,0,1-1.7.27c-2.16.24-4.32.46-6.49.68h0l5.2.53c.73.08,1.46.14,2.2.19a5.91,5.91,0,0,0,1,0,2.09,2.09,0,0,0,.88-.2,1.73,1.73,0,0,0,.5-.43,1.4,1.4,0,0,0,.13-.34.9.9,0,0,0,0-.4,6.73,6.73,0,0,1,.27-.87,6.86,6.86,0,0,1,.91-1.42,5.7,5.7,0,0,1,.88-.82,11.12,11.12,0,0,1,2.08-1.09,8.61,8.61,0,0,1,1.59-.4,22.91,22.91,0,0,1,3.1,0,17.41,17.41,0,0,1,2,.19l1.23.21a16.46,16.46,0,0,1,2.86.83,23.67,23.67,0,0,1,3.83,2,5.79,5.79,0,0,1,1,.91,4.28,4.28,0,0,1,.37.57l-.1-.21a2.08,2.08,0,0,1,.19.49v.1h0c-.27.27-.62.47-.61.9a.61.61,0,0,0,.35.57,2.9,2.9,0,0,0,.91.23l.94.16a10.75,10.75,0,0,0,2.26.28c.91,0,1.82-.11,2.72-.2h0l-2-.23a12.63,12.63,0,0,1-2.12-.42l-1-.31.07-.11a1.51,1.51,0,0,0,.27-.59l.07-.42a3.94,3.94,0,0,0-.33-1.34,8.51,8.51,0,0,0-3.47-3.25,17.46,17.46,0,0,0-7.39-2.53Z" transform="translate(-116 -11.66)"/><path d="M179.1,56.56a2.37,2.37,0,0,1,1,.25,3.53,3.53,0,0,1,.68.46,2,2,0,0,1,.39.44l.19.13a3.22,3.22,0,0,1,.78,1.09,5.67,5.67,0,0,1,.44,1.56,6.45,6.45,0,0,1,.11,1.86,5.67,5.67,0,0,1-.41,1.5,5.74,5.74,0,0,1-.4.78,4.81,4.81,0,0,1-.47.62,1.86,1.86,0,0,1-.41.33v.64h0a2.35,2.35,0,0,0-.13-.57l-.1.06A2,2,0,0,1,180,66a2.17,2.17,0,0,1-1.82-.5,5.59,5.59,0,0,1-1.36-2.93,17.39,17.39,0,0,1-.23-2.16,6.93,6.93,0,0,1,.06-1.82,2.39,2.39,0,0,1,2.25-2Z" transform="translate(-116 -11.66)"/><path d="M173.46,92.37Zm.35-1.17h0c-.2.22-.13.14-.32.37a1.48,1.48,0,0,0-.12.29c-.1.23-.18.45-.26.67s-.25.73-.36,1.09A28.46,28.46,0,0,0,172,97a12.61,12.61,0,0,0-.18,1.94,3.12,3.12,0,0,0,.29,1.5,1.59,1.59,0,0,0,.55.48,1.21,1.21,0,0,0,.68.09h.52c.92,0,1.83.08,2.76.12,1.88.1,3.78.2,5.66.13a11.54,11.54,0,0,0,1.86-.1,8.86,8.86,0,0,0,1.61-.26,1.08,1.08,0,0,0,.8-.69.81.81,0,0,0,.07-.61l-.1-.39a3.7,3.7,0,0,0-.08-.48c-.07-.41-.14-.82-.2-1.25-.12-1-.23-1.9-.31-2.86s-.16-2.27-.24-3.4h0a38.67,38.67,0,0,0-.61,4.54c0,.69-.07,1.38-.07,2.06v1.42h-6.3l-2.89.15c-.73,0-1.47.09-2.19.06a5,5,0,0,0-.12-.63,26.36,26.36,0,0,1-.18-2.94v-1.3a16.07,16.07,0,0,1,.17-2.3h0a3.12,3.12,0,0,1,.14-.74,4.11,4.11,0,0,1,.21-.42Z" transform="translate(-116 -11.66)"/><path d="M176.39,138.18v0Zm5.49-37.25h0c-.1.91-.21,1.82-.3,2.73-.18,1.7-.28,3.41-.33,5.12s-.13,3.67-.18,5.51c-.09,3.48-.08,6.95-.11,10.42V130c0,1.75,0,3.51-.06,5.28s0,3.5.08,5.26c0,1.43.06,2.86,0,4.27l-.43-.13-.5-.16a13.29,13.29,0,0,1,.09-1.89,7.21,7.21,0,0,1,.08-1.31c0-.88.07-1.78.08-2.65s0-1.66,0-2.48-.07-1.66-.07-2.48v-5.48c0-1.83-.14-3.38-.22-5.07l-.28-5.59c-.08-1.68-.1-3.38-.26-5s-.33-3.55-.44-5.34l-.14-2.59a6.36,6.36,0,0,0-.08-1.23v-.93a3.48,3.48,0,0,1,0-.79h0a3.6,3.6,0,0,0-.19.85V104c0,.64-.08,1.28-.11,1.91-.07,1.31-.14,2.62-.19,3.93s0,2.51-.07,3.76-.1,2.55-.16,3.81c-.09,1.86-.17,3.71-.27,5.55s-.17,3.54-.29,5.3c-.27,3.44-.48,6.91-.94,10.33-.09.6-.17,1.21-.25,1.82s-.26,1.38-.37,2.06-.23,1.28-.28,1.93a5.86,5.86,0,0,0,.1,1.72,2.94,2.94,0,0,0,.33.8,3,3,0,0,0,.47.54A2.5,2.5,0,0,0,178,148a11.5,11.5,0,0,1,1.59.55c1.22.46,2.69,1.19,3.95.36a2,2,0,0,0,.92-1.09,1.89,1.89,0,0,0,0-1,2.67,2.67,0,0,0-.25-.58,2.07,2.07,0,0,0-.09-.4c0-.55-.07-1.08-.09-1.65,0-1.85-.12-3.72-.25-5.57s-.15-3.42-.22-5.13-.08-3.52-.13-5.29-.09-3.58-.15-5.41c-.11-3.52-.45-7-.71-10.53-.14-1.82-.32-3.64-.44-5.41a54.89,54.89,0,0,1,0-5.88Z" transform="translate(-116 -11.66)"/><path d="M200.37,88.61Zm-15.63,27.56v0Zm15.63-27.52h0a.06.06,0,0,0,0,.06.09.09,0,0,1,0-.07Zm-2-9.07h0c.12,1.15.22,2.29.34,3.44.07.79.17,1.57.22,2.36l.21,2.94c0,.72.07,1.44.09,2.17.06,1.29.11,2.56.18,3.84l.07,1.58c0,.54.08,1.08.08,1.63v5.78a26,26,0,0,1-.1,2.79c-.1.93-.16,1.71-.28,2.55a29.38,29.38,0,0,1-1.87,7.23,12.56,12.56,0,0,1-1.48,2.42,11,11,0,0,1-1.4,1.33,9.19,9.19,0,0,1-1.55.83,8.5,8.5,0,0,1-1.66.46,8.65,8.65,0,0,1-1.44,0,6.62,6.62,0,0,1-1.16-.31,6.1,6.1,0,0,1-1.15-.63,8,8,0,0,1-1.16-1.16,12.59,12.59,0,0,1-1.55-2.55,21.51,21.51,0,0,1-.88-2.31c-.22-.74-.4-1.48-.56-2.17s-.38-1.71-.52-2.59-.23-1.6-.36-2.4h0a15.14,15.14,0,0,0,.07,1.78,27.81,27.81,0,0,0,.1,2.88c.06.79.15,1.6.27,2.39a15.48,15.48,0,0,0,1.48,4.85,7.81,7.81,0,0,0,3.3,3.48,6.29,6.29,0,0,0,2.66.69,8.34,8.34,0,0,0,2.63-.34,9.62,9.62,0,0,0,2.45-1.08,10.62,10.62,0,0,0,1.9-1.63,13,13,0,0,0,1.6-2.23,16.46,16.46,0,0,0,1.09-2.38,25.73,25.73,0,0,0,1.33-5.23,33.26,33.26,0,0,0,.47-5.55c0-.84,0-1.69-.05-2.54a14.17,14.17,0,0,0-.06-1.6c-.08-1.27-.15-2.53-.3-3.79-.31-2.61-.66-5.23-1-7.84v0h0v-.06h0c-.11-.69-.26-1.4-.4-2.09-.09-.5-.17-1-.28-1.49-.42-1.81-.84-3.62-1.29-5.41Z" transform="translate(-116 -11.66)"/><path d="M179.16,148.46c1.21.14,2.42.39,3.62.64a19.9,19.9,0,0,1,4.08,1.34,9.53,9.53,0,0,1,3.09,2.42c.39.44.74.92,1.15,1.39a9.73,9.73,0,0,1,.87,1.18c.4.61.8,1.21,1.15,1.85a18,18,0,0,1,1.1,2.51,38.14,38.14,0,0,1,1.16,4.05c.4,1.63.73,3.25,1.05,4.92h0L195,165c-.31-.79-.66-1.57-1-2.35-.27-.59-.51-1.19-.81-1.77-.23-.41-.44-.82-.66-1.23a15.6,15.6,0,0,0-1.44-2.16,26.49,26.49,0,0,0-3.62-3.64,9.24,9.24,0,0,0-1.57-.87,25.07,25.07,0,0,0-5.37-1.08,23.44,23.44,0,0,0-4.43-.18,6.37,6.37,0,0,0-.95.26,7.34,7.34,0,0,0-1.15.67,16.78,16.78,0,0,0-2.45,2.31,19,19,0,0,0-2.1,3.43,22.71,22.71,0,0,0-1.16,4.33c-.06.46-.12.91-.15,1.37,0,.29-.06.6-.07.91,1,.2,1.92.3,2.88.44s1.64.21,2.46.31l5.07.7c2.81.3,5.62.52,8.42.71s5.78.34,8.73.6h0c-2.42.2-4.84.32-7.26.47s-4.56.3-6.84.39-4.46.09-6.69.07h-2c-1.63,0-3.28,0-4.91-.11a9.61,9.61,0,0,1-1.77-.29,2.87,2.87,0,0,1-1.69-1.29,2.78,2.78,0,0,1-.09-2.08,1,1,0,0,1,.1-.52c.12-1.08.23-2.1.4-3.15.08-.52.2-1.08.3-1.56a16.94,16.94,0,0,1,1.16-3.55,16.36,16.36,0,0,1,3.63-5.06,14.11,14.11,0,0,1,2.12-1.64,8,8,0,0,1,4.28-1.14h.09a22.89,22.89,0,0,1,2.73.25Z" transform="translate(-116 -11.66)"/><path d="M200.75,170.62Zm-32.35-2.26h0Zm3.15-.73h0a13.47,13.47,0,0,0-3.35.27c-.59.17-1.15.35-1.77.57a19.92,19.92,0,0,0-2.71,1.31l-2.15,1.35a15,15,0,0,0-3.8,3.55c-.46.61-.94,1.23-1.39,1.87a17.31,17.31,0,0,0-2.31,4.16,10.31,10.31,0,0,0-.63,3.1v1.27a22,22,0,0,0,.24,3.44,16.22,16.22,0,0,0,1.15,4.08,20.51,20.51,0,0,0,1.67,3.18A21.21,21.21,0,0,0,160,200a23.34,23.34,0,0,0,3.69,2.6,21.38,21.38,0,0,0,3.9,1.84,39.72,39.72,0,0,0,5.7,1.36,46.43,46.43,0,0,0,9.5.47c1.1,0,2.19-.07,3.29-.13s2.13-.16,3.19-.26a32.1,32.1,0,0,0,7.89-1.69,25.43,25.43,0,0,0,4.2-1.86,26.27,26.27,0,0,0,3.46-2.44,24.43,24.43,0,0,0,3.08-3,18.57,18.57,0,0,0,2.2-3.25,12.19,12.19,0,0,0,1.41-4.17,18.44,18.44,0,0,0,0-3.93,19.68,19.68,0,0,0-.64-4,17.14,17.14,0,0,0-1.47-3.48,23.8,23.8,0,0,0-3-4.19,18.21,18.21,0,0,0-3.79-3.48,16.58,16.58,0,0,0-3.39-1.64,36.31,36.31,0,0,0-3.89-1h0c1,.42,2.07.81,3.06,1.31a18.43,18.43,0,0,1,2.53,1.52,15.41,15.41,0,0,1,2.53,2.37,25.42,25.42,0,0,1,1.63,2.24,27.76,27.76,0,0,1,2.06,3.53,17.36,17.36,0,0,1,1.15,3.91,25.2,25.2,0,0,1,.19,3.25,23.78,23.78,0,0,1-.12,3,10.41,10.41,0,0,1-.65,2.1,19.33,19.33,0,0,1-2.2,3.42,25.07,25.07,0,0,1-4.29,3.93,19.24,19.24,0,0,1-2.31,1.41c-.75.41-1.53.76-2.31,1.09a30.78,30.78,0,0,1-3.79,1.17c-1.15.28-2.39.49-3.6.67-1.82.19-3.64.39-5.48.43a60.66,60.66,0,0,1-8.09-.11c-1-.14-2-.33-3-.52a26.38,26.38,0,0,1-4.2-1.16,24.3,24.3,0,0,1-4.37-2.46,18.41,18.41,0,0,1-2.81-2.62,27.42,27.42,0,0,1-3.2-5,17.9,17.9,0,0,1-1.15-4,20.54,20.54,0,0,1-.19-4.5,13.37,13.37,0,0,1,.89-2.95c.44-.93.94-1.86,1.46-2.75a24.05,24.05,0,0,1,2-3.06,24.62,24.62,0,0,1,3.7-3.36l-.13.09c.51-.37,1-.75,1.55-1.08a19.32,19.32,0,0,1,2.44-1.25,18.57,18.57,0,0,1,3.14-.72Z" transform="translate(-116 -11.66)"/><path d="M179,206.89a10.06,10.06,0,0,1,1.45.07l1.75.15a13.09,13.09,0,0,1,2.07.31c.43.07.86.16,1.27.26s1,.21,1.52.35l1.64.49q.93.3,1.83.69a15.43,15.43,0,0,1,2.26,1.14,25.28,25.28,0,0,1,4,3.25c.37.34.76.69,1.15,1.08s.79.75,1.16,1.15c.74.83,1.46,1.66,2.15,2.52.51.63,1,1.27,1.51,1.9h0l-1.76-1.63c-.42-.37-.83-.76-1.25-1.08l-1.39-1.16c-.4-.34-.85-.64-1.27-.95a32.21,32.21,0,0,0-6.18-3.86,18.6,18.6,0,0,0-2.84-.86l-1.51-.32c-.77-.15-1.54-.24-2.31-.36l-1.81-.17c-.65,0-1.31,0-1.94-.06a12.8,12.8,0,0,0-1.64,0,19.36,19.36,0,0,0-3,.16,21.78,21.78,0,0,0-4.22,1.08,17.55,17.55,0,0,0-3.15,1.74,33.58,33.58,0,0,0-5.08,4.66l-.2.28c.77.19,1.57.34,2.31.48,1,.18,2.05.33,3.08.47s1.86.21,2.8.28c1.15.09,2.39.17,3.58.24,2.13.13,4.25.26,6.38.37l13.26.72,2.59.15c.95,0,1.92.15,2.87.16a7.94,7.94,0,0,0,.87-.24h0a3.37,3.37,0,0,1-1.07.4H199l-1.64.09-3.21.18-6.39.35c-4.42.24-8.85.5-13.27.7-2.11.1-4.23.21-6.34.13-1.21,0-2.42-.11-3.64-.2a14.25,14.25,0,0,1-1.45-.15,13.26,13.26,0,0,1-3.24-.62,3.8,3.8,0,0,1-1.23-.68,2.37,2.37,0,0,1-.79-1.09,2.26,2.26,0,0,1-.06-1.36,2.63,2.63,0,0,1,.66-1.08c.29-.34.64-.63,1-.93.69-.68,1.37-1.38,2.07-2.05s1.58-1.44,2.39-2.16c.38-.34.8-.64,1.16-1a19.77,19.77,0,0,1,3.35-2.16,18.65,18.65,0,0,1,4-1.41,21.62,21.62,0,0,1,4.54-.57h2.08Z" transform="translate(-116 -11.66)"/><path d="M157.9,148.43a2.87,2.87,0,0,1,.68.45,2.83,2.83,0,0,1,1.79.23,3.53,3.53,0,0,1,.77.56,2.88,2.88,0,0,1,.56.87c.49,1,1.08,1.93,1.66,2.88s1.08,1.83,1.6,2.77l1,1.8c.3.55.54,1.13.79,1.7a7.43,7.43,0,0,1,.43.9c.11.31.21.61.33.9l.32.91c.11.32.21.65.29,1a2.53,2.53,0,0,1-.09,1.54,2,2,0,0,1-2.36,1.26,1.89,1.89,0,0,1-1-.67.72.72,0,0,1-.52-.19l-.45-.41a1.47,1.47,0,0,1-.49-.19c-.21-.12-.41-.25-.61-.39a1.76,1.76,0,0,1-.94-.75l-.09-.14-.63-.63-.14-.13-.3-.22L158.37,161c-.87-.59-1.72-1.21-2.57-1.83-.65-.48-1.29-1-1.94-1.48a5.68,5.68,0,0,1-2.19-2.69,2.32,2.32,0,0,1,0-1.28,2.35,2.35,0,0,1,.66-1.08c.24-.19.5-.37.77-.55s.3-.24.46-.35a1.4,1.4,0,0,1,0-.29,1.28,1.28,0,0,1,.88-1.08,2.47,2.47,0,0,1,.66-.07,1.64,1.64,0,0,1,.81-1.86,2.38,2.38,0,0,1,1.05-.28,2,2,0,0,1,.9.23Z" transform="translate(-116 -11.66)"/><path d="M236.6,158.38l.19.21Zm-33.43-13c2,.19,4,.4,6,.61l3,.46c1.06.16,2.1.38,3.15.57.86.16,1.73.37,2.59.6a37.91,37.91,0,0,1,3.88,1.22l2.54,1a41.21,41.21,0,0,1,7.29,3.61,24.26,24.26,0,0,1,2.77,2.48c.85.9,1.71,1.76,2.5,2.71a14,14,0,0,1,1.15,1.59,13.54,13.54,0,0,1,.88,1.58,10.74,10.74,0,0,1,.64,2,7.21,7.21,0,0,1,0,.93,5.75,5.75,0,0,1-.2.71l-.2.31-.08.07a3.25,3.25,0,0,1-.45.25,10.43,10.43,0,0,1-1.36.35c-.62,0-1.25.05-1.87.05h-1.16c-.75,0-1.5,0-2.31-.07s-1.6-.11-2.4-.2l-2.17-.25-1.33-.21c-.46-.08-.95-.13-1.4-.23l-1.41-.32c-.47-.1-1-.18-1.42-.31l-1.39-.39c-.45-.12-.92-.23-1.37-.38l-2.64-.86-2.62-1.09c-.95-.39-1.87-.84-2.8-1.27l-2.68-1.2c-1.66-.75-3.32-1.48-5-2.27-3.6-1.74-7.21-3.5-10.75-5.34-.87-.46-1.71-1-2.57-1.42l-2.54-1.4c-.84-.46-1.73-.87-2.61-1.31l-2.59-1.31c-.79-.4-1.54-.86-2.31-1.27-.43-.22-.84-.45-1.26-.68H191.6c2,0,4,.12,6,.24s3.69.24,5.53.41Zm-83.33-18.77v0Zm1-.17a24.74,24.74,0,0,1,5.44.06,52.71,52.71,0,0,1,6.23,1.34l5,1.32c1.4.38,2.77.82,4.15,1.26.69.23,1.39.43,2.08.7l2,.78,6.93,3.13c1,.42,1.92.84,2.87,1.31,1.15.58,2.36,1.19,3.54,1.81l5.06,2.62,2.59,1.38c.52.28,1,.59,1.54.9l-1.31.22-2.61.47c-.91.19-1.82.35-2.73.57s-2.08.46-3.1.74l-3.25.9c-1.86.52-3.7,1.08-5.53,1.7l-1.87.63-2.76-1.64c-1.64-1-3.3-1.86-5-2.77-.82-.44-1.64-.87-2.43-1.36s-1.67-1-2.48-1.53-1.68-1.08-2.5-1.64l-2.48-1.7c-.87-.66-1.75-1.3-2.62-2l-1.8-1.4a20.26,20.26,0,0,1-1.77-1.57,16.91,16.91,0,0,1-1.62-1.74l-.54-.69a6.38,6.38,0,0,1-.46-.6,19.25,19.25,0,0,1-1.16-2,5.89,5.89,0,0,1-.34-1.08c.3-.07.62-.13.93-.17Zm4.63-3.8a25,25,0,0,0-2.73-.17c-.54,0-1.08,0-1.62.08a13.73,13.73,0,0,0-2.12.32,4.53,4.53,0,0,0-1.91.92,2.84,2.84,0,0,0-1,2.17,4.52,4.52,0,0,0,.46,1.79,12.39,12.39,0,0,0,1.47,2.47c.67.89,1.37,1.75,2.09,2.61a23.91,23.91,0,0,0,4.17,3.86l2.46,1.8,2.31,1.64c.78.55,1.63,1.08,2.48,1.59s1.73,1.08,2.62,1.58l2.83,1.55q.51.27,1.05.51l1.7.8,5.37,2.48.82.37c-.49.2-1,.39-1.5.61-.89.38-1.78.76-2.66,1.17-.48.23-1,.43-1.44.69l-1.35.73c-.81.43-1.61.92-2.38,1.43l-1.16.76a16.29,16.29,0,0,0-1.59,1.26h0a38.34,38.34,0,0,1,3.71-2.08c1-.5,2.06-1,3.1-1.41s1.8-.69,2.7-1,2.05-.73,3.1-1l1.25-.33,2.49,1.08c2.12.9,4.28,1.75,6.44,2.59h0l-6.74-4-.33-.19c.92-.24,1.84-.48,2.76-.69,2.11-.49,4.21-1,6.32-1.42,3.7-.81,7.47-1.31,11.23-1.84l2-.21h.12l2.13,1.08c1.83.94,3.64,1.88,5.43,2.85s3.62,1.83,5.45,2.71c.89.43,1.74.91,2.62,1.36l2.55,1.36c1.62.86,3.3,1.65,5,2.43s3.32,1.58,5,2.34c1,.45,2,.93,3,1.36l3,1.28c1.76.75,3.47,1.5,5.24,2.27s3.6,1.55,5.46,2.17c1,.32,1.93.62,2.9.92.47.13.93.29,1.4.4l1.56.36c.43.11.86.23,1.3.31l1.68.28c1.08.18,2.16.3,3.25.43,1.82.22,3.65.35,5.49.42l1.71.06a13.67,13.67,0,0,0,1.81,0,12.54,12.54,0,0,0,1.93-.32,5.12,5.12,0,0,0,1.94-1,4.16,4.16,0,0,0,1.07-1.33,9,9,0,0,0,.38-.9,7.08,7.08,0,0,0,.16-.8,4.36,4.36,0,0,0,.1-1,7.43,7.43,0,0,0-.12-1.08,11.68,11.68,0,0,0-1.5-3.83,18.3,18.3,0,0,0-2.31-3c-.89-1-1.87-2-2.85-2.88a25.51,25.51,0,0,0-3-2.41,30.36,30.36,0,0,0-5.72-3c-1-.41-2-.83-3-1.21-1.44-.53-2.86-1.08-4.33-1.51a46.79,46.79,0,0,0-5.39-1.24c-.91-.15-1.84-.32-2.76-.44s-2.18-.33-3.27-.43c-2.16-.21-4.34-.41-6.5-.59-1.88-.16-3.76-.25-5.63-.34s-3.76-.16-5.63-.17H179.2c-.9,0-1.81,0-2.71.07l-2.18.12h-.55l-.45-.24c-.46-.23-.94-.44-1.39-.69-.79-.47-1.6-.92-2.41-1.37s-1.85-1-2.79-1.5c-1.68-.87-3.39-1.68-5.09-2.52s-3.36-1.75-5.09-2.51l-5.24-2.36-2.77-1.3c-.44-.21-.88-.44-1.33-.62l-1.45-.6c-.56-.22-1.15-.48-1.7-.68l-1.32-.46q-1.41-.49-2.82-1c-1.9-.62-3.82-1.19-5.72-1.79l-2.82-.85a36.59,36.59,0,0,0-6.06-1.24Z" transform="translate(-116 -11.66)"/><path d="M138.06,150.06l.24.2a1.74,1.74,0,0,1,.48-.22,1.65,1.65,0,0,1,1.51.39,13.38,13.38,0,0,1,1,1.08l.54.62.43.55a4.33,4.33,0,0,1,.44.89,1.57,1.57,0,0,1,0,.86,1.63,1.63,0,0,1-.79,1l-.15.07-.17.12a1.36,1.36,0,0,1-1.77-.43v-.08l-.37-.39-.36.28c-.39.26-.78.5-1.15.73a9.09,9.09,0,0,1-.86.49c-.63.29-1.26.59-1.91.85l-.8.33c-.58.41-1.16.8-1.76,1.2a5.75,5.75,0,0,1-1,.66,2,2,0,0,1-1,.24l-.36.24a1.3,1.3,0,0,1-.73.12,1.21,1.21,0,0,1-.8-.31,1,1,0,0,1-.29-1l.1-.26h0a1.83,1.83,0,0,1,.72-2.59h0l1.7-.81.53-.39c.34-.33.68-.64,1-.95a14.86,14.86,0,0,1,2.65-1.83c.45-.23.9-.51,1.37-.71a.79.79,0,0,1,.24-.78.94.94,0,0,1,.6-.24,1.22,1.22,0,0,1,.69.24Z" transform="translate(-116 -11.66)"/><path d="M210.32,163.78l-.4-.15Zm0,0Zm24.83,1.89Zm.14-.17v.05h0Zm-23.73-4.83h0Zm-15.81-15.11c.91.05,1.81.17,2.71.27,2.08.3,4.15.61,6.23.94s4.08.77,6.11,1.24c.9.2,1.79.44,2.67.71s2,.66,3,1,1.91.7,2.87,1,2,.68,3,1.08a43.44,43.44,0,0,1,8.53,5.25,18.57,18.57,0,0,1,3,2.89,10.86,10.86,0,0,1,1.16,1.7,7.75,7.75,0,0,1,.35,1.13,9.08,9.08,0,0,1,0,2,4.46,4.46,0,0,1-.2.8h-1.86c-.62,0-1.39-.06-2.08-.13-1.3-.12-2.6-.25-3.9-.4s-2.52-.35-3.76-.61-2.75-.64-4.09-1.09c-2.75-.82-5.43-1.76-8.09-2.76-2-.8-4-1.67-6-2.5s-3.82-1.56-5.65-2.51c-1-.51-1.94-1-2.93-1.49s-1.76-.79-2.63-1.19-2-.87-2.94-1.37-2-1.08-3-1.59c-1.77-1-3.62-1.8-5.42-2.68-1-.49-1.95-1-2.9-1.55l-.84-.5h.35c2.17-.06,4.34,0,6.5,0s4.15,0,6.2.13c1.16.08,2.4.14,3.59.23Zm-73.68-18.09a.2.2,0,0,0,0,.11A.2.2,0,0,1,122.07,127.47Zm.38-.32-.22.15A1.07,1.07,0,0,1,122.45,127.15Zm-.15,0-.11.13h0l.11-.12Zm1.44-.17a14.24,14.24,0,0,1,2.77,0,53,53,0,0,1,10.74,3.24c1.7.64,3.36,1.31,5.06,1.93.81.29,1.64.53,2.46.8s1.69.56,2.53.86c.62.24,1.24.49,1.85.76l2.41,1.09c1.41.65,2.85,1.25,4.27,1.88s3,1.35,4.47,2.05,2.82,1.38,4.25,2c1,.45,1.9.91,2.83,1.42h.07l-4.36.57a73.52,73.52,0,0,0-7.39,1.09c-1.16.26-2.31.5-3.4.86a29.11,29.11,0,0,0-4,1.8l-.29.14-1.29-.78-5.28-3.25c-1.75-1.08-3.16-2.1-4.7-3.17-2.32-1.73-4.56-3.53-6.83-5.3-1.08-.85-2.16-1.71-3.22-2.59a36.93,36.93,0,0,1-3.59-3.25,7.48,7.48,0,0,1-.67-1.08c-.08-.22-.15-.43-.21-.65v-.1l.15-.07a8.58,8.58,0,0,1,1.4-.32Zm3.25-3.89a15.66,15.66,0,0,0-2.37-.18,14.47,14.47,0,0,0-2.55.22,5,5,0,0,0-.87.22,6.06,6.06,0,0,0-1.09.44,5.41,5.41,0,0,0-.72.5l-.27.21a6.85,6.85,0,0,0-.68.85,4.55,4.55,0,0,0-.3.72,5.26,5.26,0,0,1-.12.78,4.22,4.22,0,0,0,.13,1,6.62,6.62,0,0,0,.68,1.63,11.61,11.61,0,0,0,2.31,2.83c.75.68,1.53,1.33,2.31,2q2.77,2.16,5.65,4.2c1.69,1.19,3.36,2.43,5.1,3.55a102.78,102.78,0,0,0,11.24,6l.66.32-.68.3c-.93.41-1.84.84-2.75,1.29s-1.78.86-2.63,1.37l-2.7,1.64c-.92.55-1.69.86-2.47,1.38a26.11,26.11,0,0,0-2.58,1.83h0a36.43,36.43,0,0,1,3.63-1.71h0c.92-.36,1.87-.66,2.78-1.08s1.91-.85,2.87-1.25c1.66-.59,3.35-1.16,5-1.71q1.17-.37,2.31-.81l2,.87c2.25.94,4.52,1.82,6.79,2.7h0L150.54,149l1.15-.46a25.16,25.16,0,0,1,3.83-.93c.77-.15,1.56-.26,2.31-.38,2.38-.27,4.78-.46,7.16-.75s4.81-.58,7.22-.83l.6.33c.93.5,1.89.95,2.82,1.41s1.82,1,2.71,1.55,1.91,1,2.9,1.5c1.86.9,3.74,1.77,5.56,2.74.88.48,1.76,1,2.66,1.38s2.13,1,3.2,1.45,1.86.8,2.78,1.23,1.75.89,2.63,1.32c.52.26,1,.53,1.56.77l1.57.68c1,.41,1.92.79,2.88,1.18s1.75.75,2.63,1.08c1.16.5,2.31,1,3.55,1.44,1.79.71,3.62,1.33,5.43,2s3.8,1.25,5.78,1.74c1,.24,1.95.5,2.95.68s2.2.35,3.3.5c2,.27,4.1.48,6.16.63a11.33,11.33,0,0,0,2.18.07,4,4,0,0,0,1.27-.32,2.87,2.87,0,0,0,.83-.53,4.66,4.66,0,0,0,1.16-1.76,7.28,7.28,0,0,0,.46-2.25,10.15,10.15,0,0,0-.13-2.27,6.53,6.53,0,0,0-.52-1.66,8.46,8.46,0,0,0-1-1.81,20.83,20.83,0,0,0-3-3.25,35.32,35.32,0,0,0-3-2.16c-1-.68-2-1.3-3-1.93a31.53,31.53,0,0,0-3.31-1.86,44,44,0,0,0-4.73-1.76c-1.1-.37-2.2-.75-3.29-1.14-.9-.31-1.8-.66-2.72-.94A83.14,83.14,0,0,0,202.19,143c-2.14-.29-4.29-.6-6.45-.72s-4.35-.23-6.53-.24c-4.45,0-8.91,0-13.36.18-.72,0-1.43.09-2.15.14-.75-.41-1.49-.82-2.31-1.21s-1.78-1-2.67-1.45-1.88-.94-2.85-1.39c-1.89-.88-3.73-1.84-5.64-2.7s-4-1.69-6-2.56l-3-1.37c-1-.46-2.11-.94-3.19-1.32l-3.17-1.08c-1-.34-2-.68-3-1.08-1.7-.71-3.4-1.42-5.11-2.1-2-.78-3.93-1.57-5.95-2.17a31.09,31.09,0,0,0-4-.94Z" transform="translate(-116 -11.66)"/><path d="M181.76,87.23h0Zm7.81-10.29a1.52,1.52,0,0,0-.95-.39h-.07a3.15,3.15,0,0,0-.43,0l-.3.1a4.13,4.13,0,0,1-.61.13c-2.12.24-4.26.29-6.39.4-2.54.13-5.07.32-7.6.51h0a66,66,0,0,1,7.3.27c1,.09,2.09.23,3.13.32s2.17.21,3.25.35h-.26l.58.1v3.46a7.66,7.66,0,0,1-.23.82,8,8,0,0,1-.81,1.27,7.89,7.89,0,0,1-1.32,1.19,17.44,17.44,0,0,1-3.29,1.79,16.16,16.16,0,0,1-3.58.88,20,20,0,0,1-2.31.2,13,13,0,0,1-2.07-.11h.11A18,18,0,0,1,170,87.2h0c-.9-.37-1.78-.8-2.66-1.24h0c.82.54,1.62,1.09,2.48,1.55a22.58,22.58,0,0,0,2.52,1.23,14.9,14.9,0,0,0,5.14.89,15.88,15.88,0,0,0,5.65-.7,13.71,13.71,0,0,0,4.55-2.36,6.72,6.72,0,0,0,2.59-4.44,13.47,13.47,0,0,0,0-2.29v-1a2.66,2.66,0,0,0-.66-1.91Z" transform="translate(-116 -11.66)"/><path d="M183.51,204.61h1.11a32.35,32.35,0,0,1,3.26.29,1.5,1.5,0,0,1,.69.37l.26.31a1.49,1.49,0,0,1,.22.74v.3a5.07,5.07,0,0,1-.09.54,2,2,0,0,1-.94,1.08,5.66,5.66,0,0,1-1.45.56,11.15,11.15,0,0,1-1.9.35c-.66.09-1.31.15-2,.18h-2.45l-1.78-.07h-1.05l-1.55-.2-1.45-.19-1.08-.17h-.49l-.49-.07a1.35,1.35,0,0,1-.36-2.52,4.44,4.44,0,0,1,.93-.45c.3-.08.62-.15.93-.2a17.23,17.23,0,0,1,2.15-.23h.71q1.29-.24,2.61-.36c1.15-.09,2.21-.14,3.31-.18h.85Z" transform="translate(-116 -11.66)"/><path d="M185.45,208.06a22.44,22.44,0,0,1,4,.83,26.79,26.79,0,0,1,4.62,1.75c.75.38,1.44.82,2.15,1.26a25,25,0,0,1,2.31,1.66c.92.74,1.76,1.59,2.66,2.35a20.73,20.73,0,0,1,1.89,1.75,5.42,5.42,0,0,1,.63.72,2.59,2.59,0,0,1,.3,1.15,1.93,1.93,0,0,1-.62,1.41,3.11,3.11,0,0,1-1.74.87,10.77,10.77,0,0,1-1.79.19c-2,.07-4.06,0-6.08,0s-4.09-.16-6.12-.23l-6.31-.14c-2.14,0-4.29,0-6.44-.07h-2.23c-1.56,0-3.12,0-4.68-.07h0l3.9-.43,2.93-.35c2.08-.24,4.17-.49,6.25-.69l5.88-.58c2.07-.19,4.14-.35,6.22-.56,1.84-.19,3.67-.38,5.51-.59h.23a27.73,27.73,0,0,0-3.82-3.6c-1-.68-2-1.36-3-2a30.65,30.65,0,0,0-3.35-1.52,21.83,21.83,0,0,0-4.43-1.28c-1.27-.15-2.56-.17-3.84-.25l-2.83-.15c-2.1-.12-4.18-.08-6.27,0h0a49.13,49.13,0,0,1,6.38-1.08c1-.09,2-.17,3-.22s2.19-.15,3.29-.15a13.38,13.38,0,0,1,1.41,0Z" transform="translate(-116 -11.66)"/><path d="M195.94,160.39v0h0Zm.11.23-.11-.23Zm-19.64-9.12Zm6.66-2.44h-.32a9.94,9.94,0,0,0-1.54.08c-.51.09-1,.11-1.56.2a10.63,10.63,0,0,0-2.47.73,17.77,17.77,0,0,0-5,3.82h0a32.79,32.79,0,0,1,4.25-2.41,12.22,12.22,0,0,1,2.6-.65,16.68,16.68,0,0,1,2,0,10.59,10.59,0,0,1,1.59.08,8.19,8.19,0,0,1,1.62.41,15,15,0,0,1,2.85,1.6,16.59,16.59,0,0,1,2.56,2.39,31.29,31.29,0,0,1,3.19,5.28,8.93,8.93,0,0,1,.35.85c.11.33.21.68.33,1a10.64,10.64,0,0,1,.34,1.68,14.54,14.54,0,0,1,.14,2.08l-1.7.13c-1.93.14-3.87.23-5.77.44-2.13.22-4.27.47-6.39.73s-4,.43-6.08.56c-2.31.16-4.7.26-7.05.47h0c1.63.15,3.27.23,4.9.34,2,.11,4.06.28,6.09.32l6.41.15c2.14.07,4,.19,6.05.33l3,.15a9.55,9.55,0,0,0,1.07,0,6.73,6.73,0,0,0,.88-.09l.34-.05a5.45,5.45,0,0,0,.87-.35,2,2,0,0,0,.81-.83,1.88,1.88,0,0,0,.18-1.39,2.71,2.71,0,0,0-.09-.41l-.07-.37a24.87,24.87,0,0,0-.58-2.93,20.28,20.28,0,0,0-1-3.09q-.45-1-1-2c-.35-.65-.68-1.21-1-1.8a16.18,16.18,0,0,0-3.24-4,15.84,15.84,0,0,0-4.83-2.89,9,9,0,0,0-2.82-.6Z" transform="translate(-116 -11.66)"/><path d="M202.68,56.47v0ZM189,48.23Zm6.57-.09a28.54,28.54,0,0,0-4.13-.25c-1.42,0-2.83.06-4.24.12h0l1.78.21c1.36.18,2.73.35,4.08.61a22.42,22.42,0,0,1,3.76,1.08,14,14,0,0,1,2.47,1.33A12.32,12.32,0,0,1,201,52.81a8.61,8.61,0,0,1,1,1.66,10.35,10.35,0,0,1,.67,2.29,10.49,10.49,0,0,1,.1,1.85,5.14,5.14,0,0,1-.23.79,6.59,6.59,0,0,1-.44.72,8.06,8.06,0,0,1-.74.69c-.22.14-.43.27-.66.39l-.59.17a1.81,1.81,0,0,0-1.38,1.7,1.69,1.69,0,0,0,.56,1.25,1.94,1.94,0,0,0,.82.45,7.22,7.22,0,0,0,1,.14h1.15c.57,0,1.16.07,1.68.12a13.07,13.07,0,0,1,2.31.6,11.58,11.58,0,0,1,1.91,1.08,13.27,13.27,0,0,1,1.87,1.8,11.42,11.42,0,0,1,1.15,1.85,12.63,12.63,0,0,1,.61,2.16,9.63,9.63,0,0,1,0,1.86,8.54,8.54,0,0,1-.4,1.42,6.38,6.38,0,0,1-.61,1,5.68,5.68,0,0,1-.67.63,14,14,0,0,1-1.37.75l-.41.12c-.27.11-.53.2-.79.32a7.94,7.94,0,0,0-.76.52,2.13,2.13,0,0,0-.54.88,2,2,0,0,0,0,1.08,2.13,2.13,0,0,0,.54.88,2.16,2.16,0,0,0,.94.51c.76.1,1.52.23,2.31.29l1.48.11a15.31,15.31,0,0,1,2.82.78,18.38,18.38,0,0,1,3.46,2,21.46,21.46,0,0,1,3.55,3.24,17.26,17.26,0,0,1,2.12,3.38,14.46,14.46,0,0,1,.86,2.93,11.42,11.42,0,0,1,0,2.74,10.8,10.8,0,0,1-.63,2.24,8.73,8.73,0,0,1-1,1.57,14.37,14.37,0,0,1-2,1.86,18.58,18.58,0,0,1-3.71,2,26.34,26.34,0,0,1-3.72,1.17c-1.3.31-2.62.54-3.94.81h0a42.86,42.86,0,0,0,6.6-.73,24.63,24.63,0,0,0,3.4-1,13.2,13.2,0,0,0,2.55-1.2A10.26,10.26,0,0,0,226,100.4a12.45,12.45,0,0,0,1-3,11.87,11.87,0,0,0,.09-3.15,13.92,13.92,0,0,0-.72-3.24,16.9,16.9,0,0,0-1.3-2.84,19.94,19.94,0,0,0-4.32-5.08A20.29,20.29,0,0,0,217.86,81a15.86,15.86,0,0,0-3.05-1.39,9.18,9.18,0,0,0-.89-.28,7.34,7.34,0,0,0,.85-1.08,8.94,8.94,0,0,0,.89-2A10.58,10.58,0,0,0,216,74a13.12,13.12,0,0,0-.15-2.17,10.92,10.92,0,0,0-1.15-3.5,9.16,9.16,0,0,0-1.16-1.75A14.64,14.64,0,0,0,212.12,65a12.34,12.34,0,0,0-3.1-2.17,13.92,13.92,0,0,0-4.08-1.2,5.5,5.5,0,0,0,.72-2.95,10.7,10.7,0,0,0-3.1-7,11.2,11.2,0,0,0-3.2-2.16,15,15,0,0,0-3.9-1.09Z" transform="translate(-116 -11.66)"/><path d="M165.16,29Zm1.27-1.17Zm3.47-1.45h0a11,11,0,0,0-4.21,1,10.59,10.59,0,0,0-3,2.77,13.31,13.31,0,0,0-1.26,1.93,10.73,10.73,0,0,0-.88,2.17,18,18,0,0,0-.48,4.33,33.21,33.21,0,0,0,.41,5c.14.83.28,1.67.5,2.49s.46,1.59.73,2.38.53,1.57.81,2.35.56,1.54.82,2.32a27.23,27.23,0,0,1,1,4.27,25.19,25.19,0,0,1,.13,4.51L164.23,66h0a50.27,50.27,0,0,0,1.64-6.5,16.63,16.63,0,0,0,.18-3.31,21.91,21.91,0,0,0-.31-3c-.42-2.17-1.09-4.33-1.69-6.5a54.93,54.93,0,0,1-1.34-6.49,22.5,22.5,0,0,1-.2-5.62,11.84,11.84,0,0,1,.85-2.71,13.17,13.17,0,0,1,1.71-2.77,8.85,8.85,0,0,1,1.29-1.23,8.29,8.29,0,0,1,1.32-.69h-.06c.76-.28,1.54-.53,2.32-.82Z" transform="translate(-116 -11.66)"/><path d="M180.35,50.38v0Zm-4.63-24.9.06.13ZM177,11.67h0a16.21,16.21,0,0,0-3.47,3.84,8,8,0,0,0-.92,2.49,11.94,11.94,0,0,0-.15,2.67,20.84,20.84,0,0,0,.26,2.73,21.69,21.69,0,0,0,.76,3A29.45,29.45,0,0,0,175,30.21,36.37,36.37,0,0,0,177,34c1.16,1.93,2.38,3.81,3.34,5.81a18.2,18.2,0,0,1,1.24,3.85,16.64,16.64,0,0,1,0,4,8,8,0,0,1-.46,1.57,7.12,7.12,0,0,1-.76,1.3,11.83,11.83,0,0,1-1.52,1.39L177,53.39h0L179.72,52a6.65,6.65,0,0,0,1.94-1.36,7.73,7.73,0,0,0,1.49-2.32,13.59,13.59,0,0,0,.7-2.72,12.2,12.2,0,0,0,.07-3.25,14.81,14.81,0,0,0-.66-2.84,24.11,24.11,0,0,0-2-4.33c-1.86-3.16-3.89-6.25-5.44-9.56a19.09,19.09,0,0,1-1.15-3.14,27.12,27.12,0,0,1-.56-2.68,11.13,11.13,0,0,1,0-2.58,9.8,9.8,0,0,1,.57-1.84,32.07,32.07,0,0,1,2.37-3.76Z" transform="translate(-116 -11.66)"/><path d="M151.92,88.22a6.57,6.57,0,0,1,4,2.68,6.87,6.87,0,0,1,1,2.17c.32,1,.62,2,.91,3h0l-1.16-2.16A16.37,16.37,0,0,0,155.54,92a6,6,0,0,0-2.22-1.67,5.21,5.21,0,0,0-3.24-.49,7,7,0,0,0-.79.2,8.33,8.33,0,0,0-1.16.67,7.25,7.25,0,0,0-.85.81,8.16,8.16,0,0,0-.87,1.4,10.89,10.89,0,0,0-.59,2.17,15.83,15.83,0,0,0-.06,3.37,12.89,12.89,0,0,0,.84,2.71,17,17,0,0,0,1.88,3.1l.81.15a15,15,0,0,1,3.21,1.08,6.65,6.65,0,0,1,2.81,2.23,2.58,2.58,0,0,1,.46,1.74,1.65,1.65,0,0,1-.19.79l-.2.47a5.27,5.27,0,0,1-.49.57,2.29,2.29,0,0,1-.93.51,3.17,3.17,0,0,1-1.37,0,7,7,0,0,1-.75-.32,5.27,5.27,0,0,1-.62-.43,29.82,29.82,0,0,1-3.31-2.38c-.29-.24-.55-.48-.82-.74l-.81-.16a14.93,14.93,0,0,0-2.41-.05,7.8,7.8,0,0,0-1.16.27l-.46.27a6.35,6.35,0,0,0-.65.62,5.75,5.75,0,0,0-.53.9,5.49,5.49,0,0,0-.39,3,10.66,10.66,0,0,0,.6,2.07,12.74,12.74,0,0,0,1.58,2.42,16.4,16.4,0,0,0,2.77,2.62,22.4,22.4,0,0,0,4.62,2.44h-.11c.6.23,1.16.43,1.79.64a27.53,27.53,0,0,0,3.61.75h0a21.29,21.29,0,0,1-3.09-.11c-.61-.09-1.21-.22-1.81-.34a21.57,21.57,0,0,1-6.21-2.24,15.36,15.36,0,0,1-2.64-1.87,14.72,14.72,0,0,1-2.47-2.65,10.05,10.05,0,0,1-1.48-3.25,8.17,8.17,0,0,1-.11-3.41,7.49,7.49,0,0,1,1.16-3,6.31,6.31,0,0,1,1.22-1.31,5.47,5.47,0,0,1,1.7-1,9.46,9.46,0,0,1,2.46-.57,19.29,19.29,0,0,1-1-2.29,13.53,13.53,0,0,1-.64-2.8,11.42,11.42,0,0,1,.07-2.8,14.52,14.52,0,0,1,.74-3.11,8.75,8.75,0,0,1,1.38-2.38,7.39,7.39,0,0,1,2-1.74,6.47,6.47,0,0,1,2.54-.92,4.82,4.82,0,0,1,.76,0,8.49,8.49,0,0,1,1.88.24Z" transform="translate(-116 -11.66)"/><path class="cls-6" d="M175.39,197.63Zm-6.22,4.91Zm-3.27-5.42v0Zm9.73-1.46Zm-8.68-3Zm4.45-2.16Zm3.11-1.64a7.07,7.07,0,0,0-1.21-.11h-.12a8.1,8.1,0,0,0-1.1.05,11.31,11.31,0,0,0-2.23.38,9.33,9.33,0,0,0-2.16,1,7.37,7.37,0,0,0-1.59,1.29,5.89,5.89,0,0,0-1.16,1.81,5.63,5.63,0,0,0-.38,2,8.72,8.72,0,0,0,1,4.1,9.79,9.79,0,0,0,1.16,1.72,8.76,8.76,0,0,0,1.51,1.47,9.85,9.85,0,0,0,3.8,1.43h0l-.54-.21h0c-.43-.17-.87-.33-1.27-.53a8.27,8.27,0,0,1-1.16-.66,7.36,7.36,0,0,1-1.15-1.08,12,12,0,0,1-1.59-2.54,7.87,7.87,0,0,1-.55-1.89,8.7,8.7,0,0,1,0-2,6.3,6.3,0,0,1,.38-1.26,4.46,4.46,0,0,1,1.61-1.88,7.08,7.08,0,0,1,3.34-1.3,12.45,12.45,0,0,1,2.66,0,6.52,6.52,0,0,1,1.23.31,8.12,8.12,0,0,1,1.33.72,9.14,9.14,0,0,1,1.06,1,7.08,7.08,0,0,1,.72,1.17,7.64,7.64,0,0,1,.47,1.68,6.09,6.09,0,0,1,0,1.35,2.88,2.88,0,0,1-.2.65,1.65,1.65,0,0,1-.22.36,4.17,4.17,0,0,1-.38.34,7.69,7.69,0,0,1-.69.39,8.84,8.84,0,0,1-1.35.32,8.3,8.3,0,0,1-1.41,0,4.63,4.63,0,0,1-1-.26,6.14,6.14,0,0,1-2.22-1.61,3,3,0,0,1-.61-1.38v-.4l.07-.25a1.14,1.14,0,0,1,.15-.23l.25-.22a2.49,2.49,0,0,1,.51-.27,5.7,5.7,0,0,1,1.22-.29,3.48,3.48,0,0,1,.79,0,2.91,2.91,0,0,1,.58.15,2.34,2.34,0,0,1,.49.27,3.2,3.2,0,0,1,.54.5,5,5,0,0,1,.53.82,3.2,3.2,0,0,1,.26.9.81.81,0,0,1,0,.22h0a1.25,1.25,0,0,1-.11.39.68.68,0,0,1-.14.23h0a1.7,1.7,0,0,1-.31.29h0c-.3.2-.63.34-.94.51h0a3.52,3.52,0,0,0,1.39-.67,1.42,1.42,0,0,0,.41-1.23,3.87,3.87,0,0,0-.48-1.51,3.26,3.26,0,0,0-1.16-1.26,3.53,3.53,0,0,0-1.92-.46,5.15,5.15,0,0,0-2,.4,2.23,2.23,0,0,0-1.27,1.25,2.66,2.66,0,0,0,0,1.58,4.57,4.57,0,0,0,.9,1.82,7.88,7.88,0,0,0,1.43,1.27,5.43,5.43,0,0,0,1.9.93,6.85,6.85,0,0,0,2,.16,5.53,5.53,0,0,0,4-1.64,4.63,4.63,0,0,0,.71-3.86,7.21,7.21,0,0,0-1.94-3.89,7.63,7.63,0,0,0-1.75-1.33,6.76,6.76,0,0,0-2.11-.77Z" transform="translate(-116 -11.66)"/><path class="cls-6" d="M163.79,200.1ZM167,183.87Zm-.91-1.77Zm4-2.42.11.07Zm-3.27-2.91h-.48a5.93,5.93,0,0,0-.84.06,4.91,4.91,0,0,0-2,.82,5.82,5.82,0,0,0-.81.66,4.91,4.91,0,0,0-1.16,1.84,3.92,3.92,0,0,0-.15,1.92,3.7,3.7,0,0,0,1,1.85,4.22,4.22,0,0,0,1.73,1,6.86,6.86,0,0,0,1.08.21,4.57,4.57,0,0,0,1,0,1.55,1.55,0,0,0,.84-.24,1.07,1.07,0,0,0,.42-.5,2.41,2.41,0,0,0,.13-1.65,1.31,1.31,0,0,0-.87-.78,1.51,1.51,0,0,0-1.37.09c-.35.24-.26.77-.28,1.08h0a5.47,5.47,0,0,1,.19-.8h0v-.07l.13-.11h.07a1,1,0,0,1,.29-.08,1,1,0,0,1,.25,0,1.62,1.62,0,0,1,.43.12,2.11,2.11,0,0,1,.33.18l.15.13h0a1.13,1.13,0,0,1,.12.18,1.38,1.38,0,0,1,.08.29.92.92,0,0,1,0,.33,2.74,2.74,0,0,1-.18.62c-.06.11-.12.22-.19.33l-.13.1h-.11a1.27,1.27,0,0,1-.28.06h-.38a7.1,7.1,0,0,1-1.35-.44,3.91,3.91,0,0,1-.78-.42,2.72,2.72,0,0,1-.43-.4,3.06,3.06,0,0,1-.37-.59,4.2,4.2,0,0,1-.21-.66,4.33,4.33,0,0,1,0-.72,7.76,7.76,0,0,1,.25-.82,4.43,4.43,0,0,1,.39-.71,4.19,4.19,0,0,1,.69-.64,5.2,5.2,0,0,1,.89-.5l.69-.2a5.94,5.94,0,0,1,2.86.46,9.59,9.59,0,0,1,1.76.94,7.18,7.18,0,0,1,.92.82,4,4,0,0,1,.38.62,3.8,3.8,0,0,1,.15.51,4.09,4.09,0,0,1,0,.7,4.44,4.44,0,0,1-.25.86,4.73,4.73,0,0,1-.35.56,5.89,5.89,0,0,1-.74.67c-.43.29-.88.54-1.32.8l-1.16.63-1.42.79a14.64,14.64,0,0,0-1.51.94,9.19,9.19,0,0,0-1,.78,10,10,0,0,0-1,1.15,12.23,12.23,0,0,0-.89,1.36,8,8,0,0,0-.71,1.55,5.35,5.35,0,0,0-.21,1.95,10.15,10.15,0,0,0,.14,1.55,8.2,8.2,0,0,0,.53,2.1,7.79,7.79,0,0,0,1,1.73,10.64,10.64,0,0,0,3.46,2.44h0a16.24,16.24,0,0,1-2.58-2.16,7.27,7.27,0,0,1-.79-1.27,8.27,8.27,0,0,1-.59-2,12.1,12.1,0,0,1-.08-1.59V193.8a4.16,4.16,0,0,1,.31-1.08,13.09,13.09,0,0,1,1.39-2.17,11,11,0,0,1,1.3-1.25,33.56,33.56,0,0,1,3.68-2l1.15-.6c.35-.18.7-.36,1-.55a7.71,7.71,0,0,0,1.16-.8,4.67,4.67,0,0,0,.91-1.08,4.33,4.33,0,0,0-1.87-6.15,9.78,9.78,0,0,0-4.54-1.43Z" transform="translate(-116 -11.66)"/><path class="cls-6" d="M157.69,179.23Zm11.83-4.68Zm0,0Zm2.38-5.11a8.18,8.18,0,0,0-1.4-.11h-.59a10.25,10.25,0,0,0-1.36.11,12.92,12.92,0,0,0-3,.69,14.45,14.45,0,0,0-2.08,1l-.91.57a21,21,0,0,0-2.72,1.95,13.88,13.88,0,0,0-1.08,1.09,12.36,12.36,0,0,0-1.39,1.76,17.58,17.58,0,0,0-1.32,3.25c-.16.49-.31,1-.46,1.47s-.31,1-.44,1.53a9.3,9.3,0,0,0-.25,4,16.12,16.12,0,0,0,.94,3.46h0c-.12-.64-.22-1.26-.33-1.89a2.93,2.93,0,0,0-.08-.83,2.11,2.11,0,0,1,0-.71,12.68,12.68,0,0,1,.09-1.74,13.54,13.54,0,0,1,.89-2.79c.33-.82.65-1.63,1-2.44l-.07.15c.1-.21.19-.44.3-.66h0v-.07a11.49,11.49,0,0,1,1.29-2.29c.36-.41.75-.8,1.16-1.19.22-.22.44-.42.67-.63a5.3,5.3,0,0,1,.52-.42,16.53,16.53,0,0,1,1.68-1.08l1.07-.63a14,14,0,0,1,1.94-1,13.57,13.57,0,0,1,2.68-.71c.4,0,.81-.06,1.21-.08s1,0,1.45,0a3.4,3.4,0,0,1,.7.17,5.86,5.86,0,0,1,.78.42,10.93,10.93,0,0,1,1.53,1.43,5.21,5.21,0,0,1,.56.9,5.13,5.13,0,0,1,.33,1.16,1.31,1.31,0,0,1,0,.28l-.07.24a2.33,2.33,0,0,1-.17.26l-.36.33a4.25,4.25,0,0,1-.6.31,7.42,7.42,0,0,1-1.32.3,3.34,3.34,0,0,1-1.77-.16,5.07,5.07,0,0,1-.64-.37,4.48,4.48,0,0,1-.5-.47,3,3,0,0,1-.23-.38,2.92,2.92,0,0,1-.13-.42v-.31a2,2,0,0,1,.08-.26l.06-.09a2.39,2.39,0,0,1,.23-.22,3.84,3.84,0,0,1,.35-.18,5.78,5.78,0,0,1,.91-.23h.65a2.43,2.43,0,0,1,1.05.39h0a3.31,3.31,0,0,1,.44.39,2.78,2.78,0,0,1,.29.41,3.88,3.88,0,0,1,.14.45v.14a4.16,4.16,0,0,1-.15.66h0a5.79,5.79,0,0,0,.27-.8,1,1,0,0,0-.08-.51,2.22,2.22,0,0,0-.66-1,2.78,2.78,0,0,0-1.35-.64,4.05,4.05,0,0,0-1.3,0,2.46,2.46,0,0,0-1.3.53,1.63,1.63,0,0,0-.52,1.08,2.75,2.75,0,0,0,1,2.24,4.58,4.58,0,0,0,2.91,1.08,6,6,0,0,0,3.22-.74,2.82,2.82,0,0,0,1.15-1.36,1.74,1.74,0,0,0,.15-.84,2,2,0,0,0-.09-.72,5.85,5.85,0,0,0-1.37-2.8,10.4,10.4,0,0,0-1.56-1.48,4.8,4.8,0,0,0-.89-.54,5.25,5.25,0,0,0-1.16-.38Z" transform="translate(-116 -11.66)"/><path class="cls-6" d="M156.67,191.33Zm3.29-2.16Zm-1.15-1.56Zm0-.06Zm.83-.36ZM161,186v0Zm-.7-1.62h-.16a6.61,6.61,0,0,0-1.88.31,3.76,3.76,0,0,0-1.77,1.2,4,4,0,0,0-.74,1.77,7.78,7.78,0,0,0,.12,2.26,12.93,12.93,0,0,0,1.15,3.39h0l-.33-1.84a2.72,2.72,0,0,0-.08-.8,1.88,1.88,0,0,1,0-.71v-1.76a4.4,4.4,0,0,1,.24-.86,5.69,5.69,0,0,1,.46-.74,3.06,3.06,0,0,1,.37-.35,5.92,5.92,0,0,1,.61-.33,5.71,5.71,0,0,1,1.16-.25,5.61,5.61,0,0,1,.82,0,1.86,1.86,0,0,1,.39.1l.17.08a3.84,3.84,0,0,1,.29.27,4.15,4.15,0,0,1,.35.57,3.67,3.67,0,0,1,.23.8,2.67,2.67,0,0,1,0,.4,1.36,1.36,0,0,1-.11.38,1.86,1.86,0,0,1-.22.35l-.28.27a3.19,3.19,0,0,1-.45.23,2.64,2.64,0,0,1-.46.13h-.2a.9.9,0,0,1-.28-.08h.09a2,2,0,0,1-.31-.2l.08.05a3,3,0,0,1-.32-.3l-.2-.32a3.56,3.56,0,0,1-.16-.53v-.29a.76.76,0,0,1,.11-.16h0l.09-.08h0a.57.57,0,0,1,.21-.13h0l.23-.08h.37c.25.11.48.25.72.38h0a2.19,2.19,0,0,0-1-.63,1.1,1.1,0,0,0-.81.2,1,1,0,0,0-.36,1.08,2.26,2.26,0,0,0,.82,1.42,1.84,1.84,0,0,0,1.07.34,3.24,3.24,0,0,0,1.07-.22,2.62,2.62,0,0,0,1.24-1,2.65,2.65,0,0,0,.36-.93,3.17,3.17,0,0,0,0-.87,3.57,3.57,0,0,0-.71-1.72,2.51,2.51,0,0,0-1.87-1Z" transform="translate(-116 -11.66)"/><path class="cls-6" d="M174.37,160.72Zm2.62.15Zm.2-.2Zm0,0Zm.07-.21Zm-3-.15Zm1.33-4.87Zm4.08-1.13a5.1,5.1,0,0,0-2.18-.48h-.12a13.83,13.83,0,0,0-2.23.24,10.22,10.22,0,0,0-4.16,1.84,7.74,7.74,0,0,0-1.44,1.36l-.53.63c-.26.31-.5.63-.73,1a7.07,7.07,0,0,0-.82,1.79,7.18,7.18,0,0,0-.3,2.16,20,20,0,0,0,.18,2.17h0a15.35,15.35,0,0,1,.17-2.34,7.67,7.67,0,0,1,.53-1.81v.07a8.11,8.11,0,0,1,.95-1.57c.28-.33.59-.64.9-.94a13.44,13.44,0,0,1,1.44-1.28,10.63,10.63,0,0,1,2-1.08,11.54,11.54,0,0,1,2.31-.6,10.73,10.73,0,0,1,2.12,0,5.49,5.49,0,0,1,.7.17,3.37,3.37,0,0,1,.46.25l.33.31c.09.14.18.29.26.44a5,5,0,0,1,.28,1,9.76,9.76,0,0,1,.07,2,3.83,3.83,0,0,1-.2.63,4.87,4.87,0,0,1-.46.75,5.51,5.51,0,0,1-2.08,1.5,7.68,7.68,0,0,1-1.43.36,5.68,5.68,0,0,1-1,0l-.5-.14a4.61,4.61,0,0,1-.65-.38,4.84,4.84,0,0,1-.63-.57,3.71,3.71,0,0,1-.33-.54,3.4,3.4,0,0,1-.2-.64,2.29,2.29,0,0,1,0-.37,2.81,2.81,0,0,1,.08-.31l.15-.21a3.4,3.4,0,0,1,.34-.32,3.13,3.13,0,0,1,.65-.35,8.65,8.65,0,0,1,1.22-.29,5.89,5.89,0,0,1,.84,0,4.05,4.05,0,0,1,.5.12,3.37,3.37,0,0,1,.32.19,2.35,2.35,0,0,1,.33.3,2.85,2.85,0,0,1,.33.52,2.23,2.23,0,0,1,.13.44.54.54,0,0,1,0,.18.7.7,0,0,1-.06.19l-.07.1a.67.67,0,0,1-.15.14,2.21,2.21,0,0,1-.34.18,4.63,4.63,0,0,1-.89.22h-.35a2.16,2.16,0,0,1-.44-.1l-.38-.2-.23-.24h0a1.43,1.43,0,0,1-.14-.2v-.21a4.13,4.13,0,0,1,.36-.37h0l-.11.08h0c-.19.12-.46.27-.41.54a1.26,1.26,0,0,0,.24.44,1.11,1.11,0,0,0,.36.32,2.15,2.15,0,0,0,1.24.32,3.25,3.25,0,0,0,1.37-.3,1.47,1.47,0,0,0,.47-.42,1.26,1.26,0,0,0,.2-.56,2.42,2.42,0,0,0-.3-1.28,2.82,2.82,0,0,0-1.06-1.08,2.74,2.74,0,0,0-.79-.27,4.69,4.69,0,0,0-.92-.06,5,5,0,0,0-3.13.93,2.6,2.6,0,0,0-.54.56,2.5,2.5,0,0,0-.33.79,1.89,1.89,0,0,0,0,.75,3.56,3.56,0,0,0,.14.78,4.12,4.12,0,0,0,.84,1.46,5.3,5.3,0,0,0,.6.56,4.93,4.93,0,0,0,.76.53,3.9,3.9,0,0,0,1.87.47,8.68,8.68,0,0,0,1.83-.19,7.1,7.1,0,0,0,3.77-2.16,4.47,4.47,0,0,0,.68-1,3.4,3.4,0,0,0,.38-1,6.52,6.52,0,0,0,0-2.16,5.73,5.73,0,0,0-.65-2.23,3,3,0,0,0-.6-.78,3.16,3.16,0,0,0-.85-.59Z" transform="translate(-116 -11.66)"/><path class="cls-6" d="M169.29,87.05v0Zm3.46-1.47a2.16,2.16,0,0,1,.44.1l.13.07.3.29h0a2.91,2.91,0,0,1-.58.15,1,1,0,0,1-.25,0l-.29-.06-.31-.17-.07-.06h0a.42.42,0,0,1-.09-.14h0l.14-.08a1.65,1.65,0,0,1,.32-.07h.21Zm-.05-3a8.68,8.68,0,0,0-1.34-.08h-.79a4.89,4.89,0,0,0-1.15.14,2.43,2.43,0,0,0-1.47.9,1.72,1.72,0,0,0-.22,1.27,4.39,4.39,0,0,0,.11.81,5.12,5.12,0,0,0,.86,2.06,7.79,7.79,0,0,0,1.63,1.56A8,8,0,0,0,173,90.28h0a17.33,17.33,0,0,1-1.78-1A10.49,10.49,0,0,1,170,88.11a4.49,4.49,0,0,1-1-2.4,5.92,5.92,0,0,1,0-1.33V84.3l.07-.11h.07c.11-.08.23-.13.34-.2l.59-.14h1c.47,0,.95,0,1.42,0,.2.05.4.1.6.17a2.22,2.22,0,0,1,.87.64,4,4,0,0,1,.22.34,2,2,0,0,0,.09.33v.13a.9.9,0,0,1-.06.22l-.09.13a1.58,1.58,0,0,1-.23.22l-.16.09a1.74,1.74,0,0,0-.38-.47,1.3,1.3,0,0,0-.46-.22,1.5,1.5,0,0,0-1.06.12.52.52,0,0,0-.05.77s0,0,.05.05A1.92,1.92,0,0,0,173,87a3,3,0,0,0,1.15-.14,1.64,1.64,0,0,0,.72-.42,1.84,1.84,0,0,0,.43-.65,1.89,1.89,0,0,0,0-.75,2.38,2.38,0,0,0-.3-.82,2.66,2.66,0,0,0-.55-.7,3.36,3.36,0,0,0-.77-.52,3.82,3.82,0,0,0-.91-.33Z" transform="translate(-116 -11.66)"/><path class="cls-6" d="M167.86,85.88Zm6.72-6.8Zm-.23-.38Zm.43-1.08-.08.06Zm2.31-.87a5.08,5.08,0,0,0-1.16-.17,3.47,3.47,0,0,0-.91.09,1.66,1.66,0,0,0-1.16,1.08,1.64,1.64,0,0,0,.22,1.54,2.53,2.53,0,0,0,1.49.79h.54a1.27,1.27,0,0,0,.39,0,.48.48,0,0,0,.16-.12.39.39,0,0,0,.07-.33V79.5a2.43,2.43,0,0,0-.34-.3h0l.19.22.08.12a.67.67,0,0,1,0,.2l-.06.09h-.24a7.41,7.41,0,0,1-.84-.24,3.11,3.11,0,0,1-.67-.37h0a.92.92,0,0,1-.25-.23,1.53,1.53,0,0,1-.19-.3v-.12a1.71,1.71,0,0,1,0-.32,2.64,2.64,0,0,1,.12-.4.56.56,0,0,1,.1-.15.53.53,0,0,1,.13-.13,1,1,0,0,1,.33-.16h.09a3.53,3.53,0,0,1,.65,0,7,7,0,0,1,.79.18,1.72,1.72,0,0,1,.79.55,3.87,3.87,0,0,1,.27.43,2.24,2.24,0,0,1,.1.37,2.62,2.62,0,0,1,0,.56,2.37,2.37,0,0,1-.13.54l-.11.18a1.71,1.71,0,0,1-.2.18l-.29.16-.26.07a12.63,12.63,0,0,1-1.74,0h-3a8.9,8.9,0,0,0-1.46.13,9,9,0,0,0-1.44.4,3.7,3.7,0,0,0-1.44,1,3,3,0,0,0-.7,1.44,6.46,6.46,0,0,0,.61,3.46,4.08,4.08,0,0,0,1.07,1.2,15.36,15.36,0,0,0,1.46.89h0a13.52,13.52,0,0,1-1.42-1.3,4.4,4.4,0,0,1-.55-.87,5,5,0,0,1-.28-.91,9.22,9.22,0,0,1,0-1.82,3.69,3.69,0,0,1,.18-.65,1.86,1.86,0,0,1,.29-.44,2,2,0,0,1,.89-.63,7.36,7.36,0,0,1,1.56-.35h2.21c.52,0,1.16.07,1.65.1s1.15.07,1.67.07a3.65,3.65,0,0,0,1.09-.17,2.85,2.85,0,0,0,.82-.45,2.56,2.56,0,0,0,.59-.72,2.76,2.76,0,0,0,.25-.88,2.7,2.7,0,0,0,0-1.2,2.5,2.5,0,0,0-.44-.95,3.81,3.81,0,0,0-.7-.69,2.88,2.88,0,0,0-.88-.43Z" transform="translate(-116 -11.66)"/><path class="cls-6" d="M169.44,79.12Zm-.31-.06Zm1.53-3.43a4.58,4.58,0,0,0-.83-.08h-.66A3.62,3.62,0,0,0,166.5,77a4.91,4.91,0,0,0-.79,3.22,9.34,9.34,0,0,0,.19,1.38c.14.53.33,1.08.51,1.58h0c-.07-.56-.13-1.08-.15-1.69q0-.31,0-.63a4.87,4.87,0,0,1,.08-1.08,4.23,4.23,0,0,1,.36-1.18,5.1,5.1,0,0,1,.6-1,2.72,2.72,0,0,1,.43-.4,3,3,0,0,1,.47-.25,3.58,3.58,0,0,1,.91-.23,5.62,5.62,0,0,1,1.16,0,2.25,2.25,0,0,1,.35.09,1.41,1.41,0,0,1,.32.17,2.39,2.39,0,0,1,.22.23,1.19,1.19,0,0,1,.16.23,2.42,2.42,0,0,1,.16.5v.14a2,2,0,0,1-.1.35,1.35,1.35,0,0,1-.2.27h0l.07-.08-.11.11a3.55,3.55,0,0,1-.43.23,6.14,6.14,0,0,1-.84.23h-.43a1.37,1.37,0,0,1-.29-.07A.59.59,0,0,1,169,79h0l-.09-.11-.08-.13h0a.62.62,0,0,1-.09-.32h0l.07-.12.11-.1a1.51,1.51,0,0,1,.29-.13h0a2.21,2.21,0,0,0-.35.08.71.71,0,0,0-.36.28.84.84,0,0,0-.08.47,1.27,1.27,0,0,0,.25.54,1.18,1.18,0,0,0,.54.32,2.46,2.46,0,0,0,.72.1,3.51,3.51,0,0,0,1.53-.33,1.64,1.64,0,0,0,.7-.6,1.7,1.7,0,0,0,.27-.75,2.54,2.54,0,0,0-.48-1.57,2.32,2.32,0,0,0-1.28-.81Z" transform="translate(-116 -11.66)"/><path class="cls-6" d="M176.21,72.29v0Zm-3-.1Zm0-.51Zm1.16-.1Zm.62-2.85a5,5,0,0,0-.55,0h-.19l-.61.07a4.15,4.15,0,0,0-1.43.38,3.76,3.76,0,0,0-1.06.79,3.36,3.36,0,0,0-.69,1.2,12.81,12.81,0,0,0-.37,1.48h0a9.3,9.3,0,0,1,1-1.88,3.08,3.08,0,0,1,.53-.49,4.68,4.68,0,0,1,.75-.43,2.94,2.94,0,0,1,.65-.16,7.12,7.12,0,0,1,1.46,0,1.89,1.89,0,0,1,.41.1l.19.1a4.31,4.31,0,0,1,.37.37A4.07,4.07,0,0,1,176,71a6.46,6.46,0,0,1,.24.86,3.53,3.53,0,0,1,0,.46.28.28,0,0,1,0,.13l-.07.11-.2.19-.3.15a3.24,3.24,0,0,1-.7.16,1,1,0,0,1-.25,0,1.8,1.8,0,0,1-.39-.08,4,4,0,0,1-.52-.31,3.35,3.35,0,0,1-.49-.43c-.06-.09-.13-.17-.19-.27s0,0,0-.08h0l.18-.1.48-.12a4.21,4.21,0,0,1,.71,0l.39.07H175a5,5,0,0,1,.39.41h0a2,2,0,0,0-.31-.5,1.21,1.21,0,0,0-.48-.24,2.88,2.88,0,0,0-1.3-.18c-.38.07-.74.2-.81.59a.87.87,0,0,0,.15.54,2.77,2.77,0,0,0,.31.45,3.11,3.11,0,0,0,1.16.9,2.43,2.43,0,0,0,1.36.15,2.68,2.68,0,0,0,.79-.19,1.69,1.69,0,0,0,1.15-1.47,3.63,3.63,0,0,0-1-2.66,2.27,2.27,0,0,0-1.33-.78Z" transform="translate(-116 -11.66)"/><path d="M219.48,222Zm1,.13Zm-24.91-1.53h.77c1.24.06,2.48.12,3.73.16h1.34a8.59,8.59,0,0,1,1,.09c1.15.09,2.31.17,3.46.28l3.47.32,2.91.28c1,.11,2,.2,3,.27l2.77.2,1.55.09h-3.72c-2.09,0-4.18,0-6.26-.07s-4.2,0-6.29-.06H191c-2.08-.07-4.16-.13-6.24-.22s-4.19-.2-6.29-.22L172,221.6c-2.17,0-4.35,0-6.52-.08s-4.47-.09-6.7-.14h0l1.15-.06c1.94-.13,3.88-.24,5.78-.35l3.27-.15,2.39-.1,3.82-.13h3c2.18,0,4.36-.05,6.53-.06h8.82ZM190.44,219h-13c-2.21,0-4.41,0-6.61.09l-2.58.07-2.78.08c-2.06.08-4.11.16-6.17.26l-6.78.33-6.25.35a10.88,10.88,0,0,0-1.16.1l-2,.17a11.56,11.56,0,0,0-1.44.18l-1,.13a5.58,5.58,0,0,0-1.08.21.93.93,0,0,0-.71,1.15,1,1,0,0,0,1,.7h.35c.27,0,.53-.05.8-.07h12.14c1,0,2,0,3.06.08l6.27.15c1.89,0,3.79.1,5.69.13s4,0,6,.09,4.15.05,6.2.15l6.29.32,4.2.2c.71,0,1.41,0,2.11,0,2.09,0,4.17.09,6.26.09s4.11,0,6.17-.06,4.08-.09,6.11-.2,4.1-.19,6.14-.38c3-.27,5.94-.56,8.91-.91h-3.82l-2.31-.23h0l-1-.11h0c-1.61-.21-3.21-.43-4.82-.66-1.93-.29-3.85-.6-5.78-.88-1-.15-2-.3-3-.43l-4-.49c-.83-.11-1.65-.15-2.49-.21l-2.2-.15c-.33,0-.65-.06-1-.06-1.95,0-3.89-.09-5.78-.09Z" transform="translate(-116 -11.66)"/></g></svg>