<svg id="Layer_3" data-name="Layer 3" xmlns="http://www.w3.org/2000/svg" xmlns:xlink="http://www.w3.org/1999/xlink" viewBox="0 0 137.76 121.81"><defs><linearGradient id="linear-gradient" x1="142.37" y1="102.03" x2="142.37" y2="135.88" gradientUnits="userSpaceOnUse"><stop offset="0" stop-color="#fff"/><stop offset="1"/></linearGradient><mask id="mask" x="107.32" y="93.6" width="37.33" height="28.21" maskUnits="userSpaceOnUse"><g transform="translate(-16.39 -23.82)"><rect x="123.7" y="117.42" width="37.33" height="21.52" style="fill:url(#linear-gradient)"/></g></mask></defs><path d="M105.71,89.66c-14.32-1.86-9.3,33.35-15,46.52H83.81C88.1,69.33,36.14,73.77,38.86,135h-6.3c-4.58-13.32-5.72-39.8-6-53.11C24,85.08,21,86.66,16.39,87.37c4.87-17.18,23.33-55.25,48.52-55s27.62,35.35,37.51,36.07c22.18,1.71,7.44-40.36,14.45-44.66.86.86,3.44,1.72,4.15,2.72,4-1,15.55.1,20,.52,11.05,1.06,12.79,15.27,2.62,14.65-9.44-.57-10.9-.86-13.19,6.3-5.44,16.46.15,41.65-24.76,41.65Z" transform="translate(-16.39 -23.82)" style="fill:#b17f4a;fill-rule:evenodd"/><path d="M66.92,89.66c-9.31,5.3-17.18,20.75-16,45.38h-6.3A97.23,97.23,0,0,1,41,117.14c1.86-11.73,6.3-20,11.73-24.47a14.71,14.71,0,0,1,9.6-3.87,12.5,12.5,0,0,1,4.58.86Z" transform="translate(-16.39 -23.82)" style="fill:#b17f4a;fill-rule:evenodd"/><path d="M106.42,124.59c2,.85,3.58,1.71,5.87,1.86,5.15-24.34,10.16-18.18-8.59-33.64-3.58,1.43-4.87,6.59-5.58,12,12.74,7.3,9.45,4.16,8.3,19.76Z" transform="translate(-16.39 -23.82)" style="fill:#b17f4a;fill-rule:evenodd"/><path d="M127.47,32.42a2.11,2.11,0,1,1-2.1-2.1A2.11,2.11,0,0,1,127.47,32.42Z" transform="translate(-16.39 -23.82)" style="fill:#fff;fill-rule:evenodd"/><g style="mask:url(#mask)"><path d="M139.13,144.74a.35.35,0,0,1-.19-.32l0,0h0a.5.5,0,0,1-.23-.28.69.69,0,0,1,0-.35.4.4,0,0,1,.46-.28.7.7,0,0,1,.19-.06,1.35,1.35,0,0,1,.66.06,2,2,0,0,1,.3.14l.12.09a.75.75,0,0,1,.14.17.5.5,0,0,1,.07.29l0,.14a.57.57,0,0,1-.13.21l-.12.09-.18.08a1.41,1.41,0,0,1-.35.05,1,1,0,0,1-.24,0,.38.38,0,0,1-.25.08.35.35,0,0,1-.2,0Z" transform="translate(-16.39 -23.82)" style="fill:#3c5412"/><path d="M139.43,144.79l-.23-.06a1.41,1.41,0,0,1-.34-.19.67.67,0,0,1-.26-.68.7.7,0,0,1,.18-.34.9.9,0,0,1,.34-.2l.09,0a2,2,0,0,0-.08-.33l-.07-.11-.06-.07-.13-.07a3.78,3.78,0,0,0-.56-.13l-.23,0H138a.54.54,0,0,1-.33-.18.52.52,0,0,1,.11-.8,1.08,1.08,0,0,1,.29-.13,2.73,2.73,0,0,1,.4,0,3.71,3.71,0,0,1,.47,0l.62,0,.56,0c.29,0,.59.08.88.13a.48.48,0,0,1,.3.24.48.48,0,0,1,0,.39.52.52,0,0,1-.23.31.61.61,0,0,1-.4.05l-.43-.08-.33,0a.19.19,0,0,1,0,.09,2.18,2.18,0,0,1,.21.7,2.36,2.36,0,0,1,0,.37v0a1.24,1.24,0,0,1,.18.14.66.66,0,0,1,.17.4.67.67,0,0,1-.37.6,1,1,0,0,1-.42.11h-.1l-.27,0Z" transform="translate(-16.39 -23.82)" style="fill:#676767"/><path d="M139.07,141.16l.06-.07a.34.34,0,0,0,.18,0h.1a.36.36,0,0,0,.21-.15v0a1.91,1.91,0,0,0,.16.32l0,.06,0,0-.45-.08-.44-.06v0a.35.35,0,0,0,.1-.08Zm2.06,1.82h0a.4.4,0,0,0,.38-.4.31.31,0,0,0,0-.1.4.4,0,0,0-.18-.65l-.08,0-.1,0a.47.47,0,0,0-.25-.09h-.1a.46.46,0,0,0,.21-.1.57.57,0,0,0,.08-.13h.09a.43.43,0,0,0,.24-.18.56.56,0,0,0,.05-.46c0-.06,0-.12,0-.17a2.81,2.81,0,0,0-.08-.31v0c0-.16-.09-.32-.13-.48l-.05-.17c-.12-.4-.21-.8-.29-1.14s-.17-.77-.23-1.1,0-.49-.07-.73l0-.38c0-.32-.06-.65-.09-1l0-.32c0-.12,0-.24,0-.36v-.12l0-.25-.06-.51-.06-.36-.05-.35c0-.15,0-.3-.08-.46l0-.16c-.07-.37-.13-.75-.18-1.12v-.07a.83.83,0,0,0,.07-.13v0h0l.16,0,.11,0a.36.36,0,0,0,.2-.06.33.33,0,0,0,.13-.13.62.62,0,0,0,.14-.14,1.69,1.69,0,0,0,.24-.61l.11-.16.06-.1v0a.35.35,0,0,0,.19.12.8.8,0,0,0,.24,0,.62.62,0,0,0,.29-.09,2.11,2.11,0,0,0,.24-.21.39.39,0,0,0,.34-.19c.12-.19.22-.4.32-.59v0l.06-.09.17-.25.07-.1a1.37,1.37,0,0,0,.13-.2,1.63,1.63,0,0,0,.11-.17,4.64,4.64,0,0,0,.25-.42l0-.08.14-.25a.83.83,0,0,1,.07-.13,1.73,1.73,0,0,0,.18-.39.42.42,0,0,0,0-.29.49.49,0,0,0-.25-.2h-.1l0-.06a.38.38,0,0,0-.14-.14.35.35,0,0,0-.19-.06.41.41,0,0,0-.19,0,.18.18,0,0,0,0-.07.39.39,0,0,0-.28-.11.49.49,0,0,0-.2.05l-.21.16v0a.46.46,0,0,0-.05-.2.39.39,0,0,0-.35-.19l-.33,0-.52,0-1.22-.08-1.48-.08-1.22-.07h-1.34a1.38,1.38,0,0,0-.51.08.42.42,0,0,0-.24.18.46.46,0,0,0,0,.2.41.41,0,0,0,0,.16.39.39,0,0,0-.06.11h-.23a.41.41,0,0,0-.32.19.38.38,0,0,0,0,.4,1.68,1.68,0,0,0,.25.29l.13.11.1.09.05,0h0l.06.06.13.15.16.18a.28.28,0,0,0-.09.1.41.41,0,0,0,0,.4,1.18,1.18,0,0,0,.2.28l0,0,.08.08.21.22c.1.09.19.19.29.3v.1l0,.15a.68.68,0,0,0,.14.22,6.89,6.89,0,0,0,.87.85,6.06,6.06,0,0,0,.79.57l.36.19.3.13c0,.07,0,.13,0,.2l0,.07a2.78,2.78,0,0,0,.14.55.45.45,0,0,0-.19.05.41.41,0,0,0-.18.24c0,.26-.06.52-.08.78v.1c0,.07,0,.13,0,.19l-.06.36c-.06.32-.12.67-.18,1,0,0,0,.06,0,.09a8.34,8.34,0,0,0-.28,1.17,14.63,14.63,0,0,0-.1,1.92c0,.3,0,.62,0,1s0,.59.09.9a4.39,4.39,0,0,0,.16.65v0c0,.15,0,.28,0,.4a1.12,1.12,0,0,0,0,.21l0,0a.4.4,0,0,0-.18.1.41.41,0,0,0-.11.28.47.47,0,0,0,0,.17.44.44,0,0,0-.12.28.4.4,0,0,0,.2.34,1.17,1.17,0,0,0,.41.14l.08,0,.38.07.82.12.16,0a14.16,14.16,0,0,0,1.46.15Z" transform="translate(-16.39 -23.82)" style="fill:#d4932b"/><path d="M137.88,128.74l-.06-.14.24,0v.18a.37.37,0,0,1,0,.11l-.09,0h.09v.23c-.05-.12-.11-.24-.17-.36Zm.36,13c0-.15-.07-.31-.1-.46a6.27,6.27,0,0,1,0-1.37l0-.09a1.8,1.8,0,0,0,0,.22c0,.26,0,.53,0,.79s0,.32,0,.47,0,.29,0,.44Zm.51.77h0Zm.55,1.7h0a14.57,14.57,0,0,1-.35-1.45s0-.1,0-.14a.16.16,0,0,0-.09-.09l-.12,0-.07,0h.09a.39.39,0,0,0,.27-.35c0-.22,0-.44,0-.66a.76.76,0,0,0,.11-.14.33.33,0,0,0,0-.15,1.63,1.63,0,0,0,0-.31c0-.12,0-.25,0-.37l0-.5c-.06-.83-.12-1.67-.17-2.5v-1c0-.87,0-1.73,0-2.6v0l0,0a.5.5,0,0,0,.14-.33c0-.29,0-.58,0-.87s0-.51,0-.77a.22.22,0,0,0,0-.16c0-.57,0-1.13-.05-1.69q0-.44,0-.87v-.4c0-.18,0-.37,0-.56a.2.2,0,0,0,0-.13v-.15h0a.66.66,0,0,0,.15-.14.44.44,0,0,0,.11-.29l.32,0A.42.42,0,0,0,140,127a.4.4,0,0,0-.12-.29.42.42,0,0,0-.18-.11.75.75,0,0,0-.21,0h-.05a.44.44,0,0,0,0-.2.42.42,0,0,0-.4-.31l-.29,0h0a.45.45,0,0,0-.2-.28l-.19-.07a.8.8,0,0,0-.15,0l-.17,0-.27-.06-.59-.13-.56-.09a5.66,5.66,0,0,0-.82-.06l-.44,0a2.37,2.37,0,0,0-.36.09.44.44,0,0,0-.27.61h0a.47.47,0,0,0-.17,0,.69.69,0,0,0-.19.1.33.33,0,0,0-.13.13.32.32,0,0,0-.05.19.36.36,0,0,0,.11.26l.15.18a.38.38,0,0,0,0,.21.76.76,0,0,0,.12.19l.05,0,.59.83.3.41.42.52c.22.27.45.52.68.78s.45.47.69.69a2.19,2.19,0,0,0,.42.38.48.48,0,0,0,.21.07l.06,0a1.86,1.86,0,0,0,.1.2,2.15,2.15,0,0,0,.14.26v.11a2.81,2.81,0,0,0,0,.29c0,.17,0,.35,0,.52v.45c0,.2,0,.41,0,.61a.44.44,0,0,0,.13.32c0,.17,0,.34,0,.51v.35a.28.28,0,0,0,0,.13c0,.46,0,.92-.07,1.38h0c0,.08,0,.16,0,.23s0,.4,0,.6,0,.55,0,.83v0l0,.05-.12.35c-.07.22-.15.44-.21.66a7.23,7.23,0,0,0-.16.93,5.79,5.79,0,0,0,0,1,3.78,3.78,0,0,0,.2.87,1.82,1.82,0,0,0,.41.73,1,1,0,0,0,.32.23.49.49,0,0,0,.16.05h0c.07.21.14.43.23.63s.23.54.35.81Z" transform="translate(-16.39 -23.82)" style="fill:#fff;opacity:0.45"/><path d="M138.73,145.63s0,0,0-.07a1.15,1.15,0,0,1,.1-.23.55.55,0,0,1,.2-.2.57.57,0,0,1,.44-.06.51.51,0,0,1,.17.07.57.57,0,0,1,.5.4l0,.09Z" transform="translate(-16.39 -23.82)"/><path d="M139.47,143.7h0Zm-.23,0h0Zm-.17.05,0,0,0,0Zm.74.09h0Zm-.94.07h0Zm0,0h0ZM140,144l0,0,0,0Zm.05.12,0-.05,0,.05Zm-1.14.2,0,0,0,0Zm1.17.09Zm-.33.12h-.29a1.92,1.92,0,0,1-.32-.09l-.28-.16h0a.81.81,0,0,1,0-.22l0-.12a.57.57,0,0,1,.08-.13l0,0,.05,0,.1-.06.16,0a1.4,1.4,0,0,1,.29,0l.12,0,.22.13a.3.3,0,0,1,.08.08l.06.1a.65.65,0,0,1,0,.13.37.37,0,0,1,0,.11.09.09,0,0,1,0,.05l0,0-.06.06.05,0a1.1,1.1,0,0,1-.14.09l-.11,0Zm-.58.81a1.83,1.83,0,0,0,.4,0h.13a2,2,0,0,0,.59-.15,1,1,0,0,0,.37-.29,1,1,0,0,0,0-1.1,1.14,1.14,0,0,0-.31-.41,1.07,1.07,0,0,0-.35-.32,1.5,1.5,0,0,0-.5-.18,2,2,0,0,0-.6,0,1.24,1.24,0,0,0-.49.2l-.27.21a1.31,1.31,0,0,0-.17.28,1,1,0,0,0-.08.54,1.2,1.2,0,0,0,.62.9,2.07,2.07,0,0,0,.62.25Z" transform="translate(-16.39 -23.82)"/><path d="M137.72,142.07h0l0,0,0,0Zm-.14.18h0Zm3-.07a9,9,0,0,1-2.14.07,4.91,4.91,0,0,1-.76-.17,3.88,3.88,0,0,1,.45-.24l.1,0a6.46,6.46,0,0,1,1.39,0,7.48,7.48,0,0,1,1.3.32l-.34.06Zm-.84,1.08h.74a2.69,2.69,0,0,0,1.74-.54,1,1,0,0,0,.2-.37,1.23,1.23,0,0,0,0-.2.48.48,0,0,0-.07-.26l-.11-.16-.16-.12-.23-.09c-.31-.14-.62-.28-.94-.39a5.44,5.44,0,0,0-1.92-.3A4.64,4.64,0,0,0,138,141a2.55,2.55,0,0,0-.79.35,1,1,0,0,0-.44.61.72.72,0,0,0,0,.41.58.58,0,0,0,.18.23,1.12,1.12,0,0,0,.33.2,2.38,2.38,0,0,0,.45.15l.39.06h0a6.33,6.33,0,0,0,1.67.27Z" transform="translate(-16.39 -23.82)"/><path d="M137.74,141.28c0-.79-.09-1.58-.14-2.36s-.09-1.41-.12-2.12,0-1.3,0-1.94v-.37s0-.08,0-.13c0-.66-.1-1.32-.1-2a2.45,2.45,0,0,1,0-.27.56.56,0,0,1,.15-.38.55.55,0,0,1,.53-.14.56.56,0,0,1,.4.54,8.14,8.14,0,0,1,0,1c0,.37,0,.74-.06,1.11,0,.65-.07,1.3-.14,1.95,0,.3-.07.61-.11.91,0,.52-.06,1-.1,1.57,0,.69-.13,1.39-.22,2.09l-.07.54Z" transform="translate(-16.39 -23.82)"/><path d="M141.18,140.58h0Zm-.49-8.45a.07.07,0,0,1,0,0,.07.07,0,0,0,0,0Zm.54,8.84h0c0-.13,0-.25,0-.38h0l-.18-1.21v0c-.08-.63-.15-1.26-.21-1.9s-.07-1.2-.1-1.8,0-1.2,0-1.8c0-.32,0-.63,0-1a5.5,5.5,0,0,0,0-.91.48.48,0,0,0-.06-.24.49.49,0,0,0-.18-.17.44.44,0,0,0-.37,0,.48.48,0,0,0-.36.49,5.91,5.91,0,0,0,0,1c0,.34,0,.69.06,1a4.93,4.93,0,0,0,.05.54c0,.17.05.34.07.51.07.44.15.87.24,1.31,0,.17,0,.34.08.51a33.6,33.6,0,0,0,.92,4h0l-.06-.66c.07.22.13.45.2.66Z" transform="translate(-16.39 -23.82)"/><path d="M138.63,132.53a1.54,1.54,0,0,1-.31-.05l-.29-.12a2.56,2.56,0,0,1-.35-.22,4.8,4.8,0,0,1-1-.64,4.86,4.86,0,0,1-.77-.8,4.17,4.17,0,0,1-.37-.36,9,9,0,0,1-.84-1.09c-.13-.17-.23-.36-.35-.55a7,7,0,0,1-.5-1.07.49.49,0,0,1,0-.11c-.06-.12-.1-.24-.16-.35s-.1-.29-.14-.43a1.16,1.16,0,0,1,0-.18.85.85,0,0,1,0-.23.61.61,0,0,1,.29-.55.59.59,0,0,1,.8.21,2,2,0,0,1,.13.34l.12.3c.17.39.37.75.57,1.11l.46.83c.37.62.76,1.23,1.19,1.81l0,0a8.65,8.65,0,0,0,1.56,1l.21.07h0l.13.06a.56.56,0,0,1,.25.33.55.55,0,0,1-.5.69Z" transform="translate(-16.39 -23.82)"/><path d="M140.17,132a.51.51,0,0,1,.08-.62l.06,0a7.46,7.46,0,0,0,.72-.77l.52-.62.15-.21.31-.45c.1-.14.18-.29.27-.44a12.94,12.94,0,0,0,.79-1.58c0-.09.06-.19.08-.28a5.35,5.35,0,0,0,.11-.55l0-.26a.43.43,0,0,1,0-.11h0a.52.52,0,0,1,.14-.25l.1-.08a1.94,1.94,0,0,0,0-.2h0v.18a.55.55,0,0,1,.77.35,2.84,2.84,0,0,1,0,.92,4.2,4.2,0,0,1-.23.86.61.61,0,0,1,0,.12,5.88,5.88,0,0,1-.16.7,6.49,6.49,0,0,1-.43,1,4.25,4.25,0,0,1-1.29,1.53,3.52,3.52,0,0,1-.67.34l-.07.09a3.42,3.42,0,0,1-.36.4l-.18.14a.68.68,0,0,1-.31.08h0a.52.52,0,0,1-.42-.26Z" transform="translate(-16.39 -23.82)"/><path d="M140.15,126.38c-1.21,0-2.41-.07-3.62-.1l-1.47-.06-.65,0h-.36l-.45,0a.59.59,0,0,1-.29-.07.61.61,0,0,1-.26-.35.54.54,0,0,1,0-.31.63.63,0,0,1,.26-.34.87.87,0,0,1,.31-.14l.35,0h1.21l.44,0c.67,0,1.33.07,2,.12l.7,0,3-.08,1.5,0,1-.09.12,0a.71.71,0,0,1,.21,0,.61.61,0,0,1,.58.44.58.58,0,0,1,0,.32.61.61,0,0,1-.28.35.65.65,0,0,1-.27.15l-.29.07-.23,0-.61.09c-.31,0-.61,0-.92.06l-1.32,0Z" transform="translate(-16.39 -23.82)"/><path d="M141,143.7l0,0,0,0Zm3.73,1.93-.41-.32-.1-.08-.19-.17-.77-.68c-.27-.23-.54-.46-.82-.68s-.3-.24-.45-.36l-.32-.25-.25-.17-.18-.08-.16-.05a.4.4,0,0,0-.45.18v0l-.08-.06h0l.08.06a.42.42,0,0,0,0,.38.53.53,0,0,0,.12.14.38.38,0,0,0,.13.09l0,0c.32.29.63.59,1,.87s.68.55,1,.81a.4.4,0,0,0,.12.1l.27.2Z" transform="translate(-16.39 -23.82)"/><path d="M145,145.63a1.77,1.77,0,0,1,.21-.32.34.34,0,0,1,.33-.1.46.46,0,0,1,.29-.1.48.48,0,0,1,.34.14.49.49,0,0,1,.14.38Z" transform="translate(-16.39 -23.82)"/><path d="M144.41,145.63c-.18-.12-.35-.26-.52-.39l-.79-.67-.68-.63c-.25-.24-.54-.44-.8-.67a0,0,0,0,1,0-.06.94.94,0,0,1,.24.13h0l.52.28-1-.84h0c.52.3,1,.6,1.53.91l.4.25c.18.12.37.25.56.36l1.18.7.49.3a1.68,1.68,0,0,1,.46.33Z" transform="translate(-16.39 -23.82)"/><path d="M136.66,135.07l-.41,0,.29-.39c.2-.22.4-.46.61-.68l.4-.42a7.11,7.11,0,0,1,.91-.83l1.11-.81.55-.36a8,8,0,0,1,1.26-.68l1.47-.59.79-.3a7.36,7.36,0,0,1,1.46-.41,10,10,0,0,1,1.73,0c.5,0,1,.06,1.5.12a8.59,8.59,0,0,1,2,.55,7.29,7.29,0,0,1,1.46.84,4.58,4.58,0,0,1,.67.65,2.6,2.6,0,0,1,.21.36,1.78,1.78,0,0,1,.1.38,4.22,4.22,0,0,1,0,.87,3.32,3.32,0,0,1-.15.54,3.65,3.65,0,0,1-.32.54,5.48,5.48,0,0,1-.59.59,4.16,4.16,0,0,1-.73.44,4.84,4.84,0,0,1-1.12.28,16.89,16.89,0,0,1-1.88.08l-1.67,0c-1.37,0-2.73-.09-4.09-.18s-2.62-.28-3.93-.41l-1.16-.12c-.15,0-.31,0-.46,0Zm-10.12,8.87a.08.08,0,0,1,0,0,.08.08,0,0,0,0,0Zm24.18,1.69a6.08,6.08,0,0,0,.34-1.62c0-.18,0-.36,0-.54a5,5,0,0,0-1.38-3.7,5.68,5.68,0,0,0-2.41-1.42,6.42,6.42,0,0,0-1.44-.21,5,5,0,0,0-1.34.07,8,8,0,0,0-2.25.89c-.21.12-.42.24-.62.37a11.83,11.83,0,0,0-1,.71l-.45.37-.38.35a14.73,14.73,0,0,0-1.37,1.48c-.45.52-.86,1.08-1.28,1.62-.19.24-.4.48-.6.72l-.3.34c-.12.13-.23.28-.36.4s-.11.12-.17.17h1.69s.09-.1.13-.16c.44-.51.86-1,1.27-1.56s.89-1,1.36-1.55a7,7,0,0,1,.69-.64c.26-.24.53-.46.8-.67a8.76,8.76,0,0,1,1-.67c.31-.18.63-.35.95-.5a6.44,6.44,0,0,1,1.3-.37,6.1,6.1,0,0,1,1.35,0,5.64,5.64,0,0,1,1.09.29,6,6,0,0,1,1,.59,5.54,5.54,0,0,1,.69.68,4.79,4.79,0,0,1,.46.79,5.47,5.47,0,0,1,.27,1,10.84,10.84,0,0,1,0,1.74,5.07,5.07,0,0,1-.25,1Zm-6.12,0-1-.64h0l.69.63Zm-11.41,0a6.36,6.36,0,0,1-.14-.76,8.16,8.16,0,0,1-.07-1.31c0-.24,0-.47,0-.7s0-.49,0-.73.05-.45.08-.67a12.43,12.43,0,0,1,.76-2.68,6.32,6.32,0,0,1,.58-1.09l.37-.56.51-.79.15-.22h.63c.35,0,.7,0,1,0l2.27.21c.62.06,1.23.13,1.85.17l2.16.12,2.08.06h1.92a19.23,19.23,0,0,0,2.94-.11,5,5,0,0,0,1.45-.44,5.22,5.22,0,0,0,1.12-.75,3.3,3.3,0,0,0,.48-.51,2.61,2.61,0,0,0,.36-.57,3.29,3.29,0,0,0,.23-.62,5.52,5.52,0,0,0,.11-.71,3,3,0,0,0-.28-1.6,2.87,2.87,0,0,0-.39-.57,3.12,3.12,0,0,0-.43-.46,7.93,7.93,0,0,0-2.52-1.45,10.25,10.25,0,0,0-2.63-.54l-1.12-.08c-.38,0-.76,0-1.14,0a5.82,5.82,0,0,0-1.49.21,7.92,7.92,0,0,0-.78.26c-.63.24-1.25.5-1.88.75a13,13,0,0,0-1.85.88c-.29.18-.58.38-.86.58l-.89.64a8.79,8.79,0,0,0-1,.88l-.45.47a14.68,14.68,0,0,0-1.33,1.62l-.3.42-.8,0c-.34,0-.68,0-1,.05a10.92,10.92,0,0,0-2.27.34,7.39,7.39,0,0,0-2.53,1.17,6.8,6.8,0,0,0-1,1,7.37,7.37,0,0,0-1.45,2.44,3.25,3.25,0,0,0-.21.67,5.65,5.65,0,0,0-.11.7,11.05,11.05,0,0,0,0,1.52,10,10,0,0,0,.13,1.44,8.35,8.35,0,0,0,.31,1.29H127a1.42,1.42,0,0,0-.08-.18,7.51,7.51,0,0,1-.42-1.63c0-.42-.08-.83-.09-1.25a8.8,8.8,0,0,1,0-1.36,3.39,3.39,0,0,1,.13-.57,6,6,0,0,1,.22-.59,4.84,4.84,0,0,1,.36-.72,6.36,6.36,0,0,1,.46-.69,7.14,7.14,0,0,1,1.05-1.08,6.79,6.79,0,0,1,1.23-.71,9.92,9.92,0,0,1,2.22-.57c.63-.08,1.26-.12,1.9-.14l-.18.28c-.22.33-.44.66-.63,1a6.53,6.53,0,0,0-.35.7,5.65,5.65,0,0,0-.23.57c-.07.18-.13.36-.19.54s-.18.53-.25.81a9.9,9.9,0,0,0-.25,1.34c0,.31-.07.61-.09.92s0,.72-.05,1.08,0,.45,0,.68a9.64,9.64,0,0,0,.16,1.42l0,.15Z" transform="translate(-16.39 -23.82)"/><path d="M140.23,127h0Zm1.33.06a0,0,0,0,0,0,0,0,0,0,0,1,0,0Zm0,.14v0a0,0,0,0,0,0,0Zm-.65.3h0Zm-.2,0h0Zm1.78.82h0Zm-.36.19h0Zm-1.84.61a1.62,1.62,0,0,0,.62.11,3.11,3.11,0,0,0,.43,0l.43-.07.32-.11a2,2,0,0,0,.6-.36,1.79,1.79,0,0,0,.44-.58c.06-.14.11-.27.16-.41a3.23,3.23,0,0,0,.14-.51c.09-.43.13-.86.18-1.29h0c-.12.44-.24.9-.4,1.33,0,0,0,0,0,0l-.12.28a4.47,4.47,0,0,1-.33.61,1.31,1.31,0,0,1-.24.23,1.68,1.68,0,0,1-.34.2,2.72,2.72,0,0,1-.62.17l-.4,0h-.39a1.83,1.83,0,0,1-.25-.06l-.22-.13a1.53,1.53,0,0,1-.18-.18c-.05-.08-.1-.16-.14-.24a1.54,1.54,0,0,1-.09-.37,3,3,0,0,1,0-.52,2.68,2.68,0,0,1,.07-.27l.09-.16c0-.06.1-.1.15-.15l.17-.1a2.37,2.37,0,0,1,.36-.09h.21a1.27,1.27,0,0,1,.18.06l.16.09a1.29,1.29,0,0,1,.16.17l.09.14.06.22v.08a.06.06,0,0,1,0,0,.38.38,0,0,1,0,.1.05.05,0,0,1,0,0l-.06.06-.15.08a1.64,1.64,0,0,1-.38.1h-.25l-.15,0-.11-.06-.11-.11a.59.59,0,0,1,0-.08h0a.56.56,0,0,1,0-.12V127a.16.16,0,0,1,0-.09h0l.12-.2h0l-.16.17a.37.37,0,0,0-.05.11.55.55,0,0,0,0,.31.61.61,0,0,0,.19.26.68.68,0,0,0,.27.13,1.29,1.29,0,0,0,.39,0,1.08,1.08,0,0,0,.36,0,.82.82,0,0,0,.34-.16.56.56,0,0,0,.17-.31.59.59,0,0,0,0-.23,1.7,1.7,0,0,0,0-.22,1.33,1.33,0,0,0-.15-.32,2,2,0,0,0-.32-.33,1.58,1.58,0,0,0-.35-.16,1.25,1.25,0,0,0-.43,0,1.47,1.47,0,0,0-.85.3,1.27,1.27,0,0,0-.27.3,1.66,1.66,0,0,0-.24.74,2.16,2.16,0,0,0,0,.36,2.6,2.6,0,0,0,0,.39,1.56,1.56,0,0,0,.35.69,1.48,1.48,0,0,0,.61.43Z" transform="translate(-16.39 -23.82)" style="opacity:0.4"/><path d="M139.73,139.74Zm0-1.45v0Zm0,0s0,0,0,0,0,0,0,0Zm.31,1h0Zm.17.16v0Zm-.27.17Zm-.28.26h0Zm.05.24h0Zm.17.16h0Zm-.11.19a.54.54,0,0,0,.22.05h.07a1,1,0,0,0,.33-.11l.14-.11a1.3,1.3,0,0,0,.1-.15.9.9,0,0,0,.08-.36,2.48,2.48,0,0,0,0-.27.76.76,0,0,0-.19-.38,1.16,1.16,0,0,0-.18-.2,5.48,5.48,0,0,1-.52-.56.57.57,0,0,1-.08-.13v0a.43.43,0,0,1,0-.05l0,0,0,0L140,138a1.21,1.21,0,0,0,.42-.42.86.86,0,0,0,.08-.5,1.09,1.09,0,0,0-.15-.46c-.1-.15-.22-.28-.33-.42l-.32-.36-.08-.13a1,1,0,0,1,0-.17.67.67,0,0,1,0-.2,1,1,0,0,1,.06-.23l.06-.11c.13-.14.29-.25.41-.4a.8.8,0,0,0,.2-.47.7.7,0,0,0-.09-.37c-.17-.25-.39-.47-.58-.71a1,1,0,0,1-.11-.17l0-.12a3.14,3.14,0,0,1,0-.75,1.57,1.57,0,0,1,.08-.31s0-.09.07-.14l.07-.06a1,1,0,0,1,.2-.12l.34-.12h0l-.37.07a.7.7,0,0,0-.24.09.78.78,0,0,0-.31.44,2.34,2.34,0,0,0-.12.7,1,1,0,0,0,0,.48,1.92,1.92,0,0,0,.25.44c.1.15.21.3.3.46a.19.19,0,0,1,0,.07.15.15,0,0,1,0,.07.14.14,0,0,0,0,.07l-.05.07a1,1,0,0,1-.21.19,1.5,1.5,0,0,0-.24.2,1.33,1.33,0,0,0-.25.41,1.31,1.31,0,0,0,0,1,2.07,2.07,0,0,0,.38.5l.23.28,0-.06.06.09v0a1.37,1.37,0,0,1,.13.2l0,.14a.57.57,0,0,1,0,.13s0,0,0,0l0,0-.15.14-.14.09-.15.12a.53.53,0,0,0-.11.15.73.73,0,0,0-.08.46.8.8,0,0,0,.24.43q.18.18.36.33l.26.2a1.42,1.42,0,0,1,.22.2.37.37,0,0,1,.06.1,1.82,1.82,0,0,1,.07.25V140s0,0,0,.05a.59.59,0,0,1,0,.08l-.08.08-.12.07-.13,0h-.11l0,0-.07-.06,0-.06c0-.06,0-.11-.05-.18v0a.31.31,0,0,1,0-.1s0,0,0-.06a.16.16,0,0,1,0-.07h0l.06,0h0l.07,0h0l.11,0h.09l.15.09h0s-.09-.1-.14-.11a.39.39,0,0,0-.18,0,.36.36,0,0,0-.22.09.41.41,0,0,0-.13.25.74.74,0,0,0,.05.33.41.41,0,0,0,.2.23Z" transform="translate(-16.39 -23.82)" style="opacity:0.4"/><path d="M150.15,125.14Zm-.13-.07Zm.08,0Zm0,0Zm-16.39.49-1-.09-.9-.1h0c1.22,0,2.44-.08,3.66-.11s2.44,0,3.66,0,2.2,0,3.29-.07l1.25,0,.73,0h.15l-.47.05-.48,0-1,.07-1,0-1.88.1-1.77.08c-.53,0-1.05.06-1.58.07l-1.16,0c-.26,0-.52,0-.78,0s-.52,0-.79,0Zm8.2.36.63,0h.21l1.11-.06.72,0,1.18-.1a10.51,10.51,0,0,0,1.35-.21,4.37,4.37,0,0,0,.62-.17l.13,0,.17-.08.16-.13h.91c.34,0,.67,0,1,0h0l0,0h0l0,0h0s0,0,0,.07h0a.22.22,0,0,0-.06-.13s-.08,0-.12,0h0l-.53,0-.43,0-.77,0a.32.32,0,0,0,0-.29.35.35,0,0,0-.24-.23.94.94,0,0,0-.29,0l-.1,0-.1,0c-.41,0-.83.08-1.25.1l-3.68.13-1.94,0h-.86l-.75,0c-.58,0-1.16,0-1.74,0l-1.9,0h-1.91l-1,0h-.77l-1.13,0h-.36c-.23,0-.46,0-.68,0l-.36,0-.3.08a.29.29,0,0,0-.22.22l-1.19.14h0l1.17,0v0a.34.34,0,0,0,.26.32.76.76,0,0,0,.21,0h.28l.26,0,.42,0,1.64.2.94.11,1.1.09h.24l.63,0,.42,0h.31c1.3,0,2.6,0,3.9-.07l1.78,0,.77,0Z" transform="translate(-16.39 -23.82)"/></g><path d="M137.45,86.52l.84,0a3.87,3.87,0,0,1-.68,0l-.16,0Zm7.31-1.91-.24.11-.13.09-.14.07-.36.16a4.71,4.71,0,0,1-.73.22l-.4.08-.67.12-1.38.21-.48.07c-.14,0-.29,0-.44,0-.31,0-.62,0-.93,0s-.74,0-1.11,0a8.52,8.52,0,0,1-.87-.08l-.72-.11a.44.44,0,0,0-.3,0,.39.39,0,0,0-.18.24.35.35,0,0,0,0,.3.33.33,0,0,0,.23.18l.25,0,0,.06a.42.42,0,0,0,0,.31.41.41,0,0,0,.18.23l.15.11a.76.76,0,0,0,.21.08l.14,0,.3.07q.3.06.6.09a4.47,4.47,0,0,0,.52,0,11.85,11.85,0,0,0,1.19-.06l.71-.08.25,0a2.32,2.32,0,0,0,.38-.05,9.13,9.13,0,0,0,1.25-.31l.74-.26c.28-.1.55-.22.83-.35a6.33,6.33,0,0,0,.68-.36,3,3,0,0,0,.3-.19l.24-.17.06,0a1.12,1.12,0,0,0,.29-.19.41.41,0,0,0,.06-.48.32.32,0,0,0-.14-.14.47.47,0,0,0-.21-.06l-.09,0Z" transform="translate(-16.39 -23.82)" style="fill:#3c5412"/><path d="M139.13,104.68a.38.38,0,0,0-.19.33l0,0h0a.58.58,0,0,0-.23.28.74.74,0,0,0,0,.36.4.4,0,0,0,.46.28.67.67,0,0,0,.19,0A1.24,1.24,0,0,0,140,106a1.94,1.94,0,0,0,.3-.13l.12-.09a.75.75,0,0,0,.14-.17.5.5,0,0,0,.07-.29l0-.15a.63.63,0,0,0-.13-.2l-.12-.09a1,1,0,0,0-.18-.08,1.43,1.43,0,0,0-.35-.06l-.24,0a.38.38,0,0,0-.25-.09.46.46,0,0,0-.2.05Z" transform="translate(-16.39 -23.82)" style="fill:#3c5412"/><path d="M139.43,104.64a.86.86,0,0,0-.23.06,1.14,1.14,0,0,0-.34.19.67.67,0,0,0-.26.68.8.8,0,0,0,.18.34,1.05,1.05,0,0,0,.34.2l.09,0a1.87,1.87,0,0,1-.08.32.75.75,0,0,1-.07.12l-.06.06-.13.08a3.73,3.73,0,0,1-.56.12l-.23,0H138a.6.6,0,0,0-.33.18.52.52,0,0,0,.11.8,1.08,1.08,0,0,0,.29.13,2.76,2.76,0,0,0,.4.06l.47,0h.62a5.24,5.24,0,0,0,.56,0A8.89,8.89,0,0,0,141,108a.5.5,0,0,0,.3-.23.49.49,0,0,0,0-.39.52.52,0,0,0-.23-.31.55.55,0,0,0-.4,0l-.43.07-.33,0a.41.41,0,0,0,0-.09,2.38,2.38,0,0,0,.23-1.07v0a1.24,1.24,0,0,0,.18-.14.63.63,0,0,0-.2-1,1,1,0,0,0-.42-.11h-.1a1.24,1.24,0,0,0-.27,0Z" transform="translate(-16.39 -23.82)" style="fill:#676767"/><path d="M143.93,85.33l-.11.12-.17.08a6.09,6.09,0,0,1-.86.25l-.92.16c-.38,0-.76.08-1.14.09h-1.18c-.4,0-.8,0-1.2,0-.22,0-.43,0-.64,0l-.45,0-1.5-.26a.62.62,0,0,0-.4,0,.52.52,0,0,0-.23.31.49.49,0,0,0,.05.39.47.47,0,0,0,.31.24l.84.14c.3,0,.6.11.9.15l.84.08c.29,0,.58,0,.87,0h1.58a10.74,10.74,0,0,0,1.7-.15c.39-.06.78-.13,1.17-.22a3.39,3.39,0,0,0,.51-.17c.12,0,.24-.1.36-.15l.08,0a.92.92,0,0,0,.31-.28.55.55,0,0,0,.15-.36.51.51,0,0,0-.15-.36.51.51,0,0,0-.36-.15.48.48,0,0,0-.36.15Z" transform="translate(-16.39 -23.82)" style="fill:#676767"/><path d="M144,85.17a6,6,0,0,1-1,.27c-.3.07-.61.11-.91.15s-.8.1-1.2.13-.87,0-1.3,0l-3.27,0a.53.53,0,0,0-.51.52.52.52,0,0,0,.51.51c1.29,0,2.58,0,3.87,0a14.91,14.91,0,0,0,1.63-.13c.57-.07,1.13-.16,1.69-.27a6.45,6.45,0,0,0,.75-.22.59.59,0,0,0,.3-.24.49.49,0,0,0,0-.39.52.52,0,0,0-.23-.31.6.6,0,0,0-.27-.07l-.13,0Z" transform="translate(-16.39 -23.82)" style="fill:#d4932b"/><path d="M139.07,108.27a.41.41,0,0,0-.1-.09v0l.44,0,.45-.09,0,0,0,0a2,2,0,0,0-.16.33v0a.34.34,0,0,0-.21-.14l-.1,0a.35.35,0,0,0-.18,0l-.06-.07Zm2.06-1.82a14.15,14.15,0,0,0-1.46.14l-.16,0-.82.13-.38.07-.08,0a.87.87,0,0,0-.41.14.39.39,0,0,0-.2.34.42.42,0,0,0,.12.27.55.55,0,0,0,0,.17.38.38,0,0,0,.11.28.4.4,0,0,0,.18.1l0,0a1.12,1.12,0,0,0,0,.21c0,.12,0,.25,0,.4v0h0a4.5,4.5,0,0,0-.16.66c0,.3-.07.62-.09.89s0,.69,0,1a14.4,14.4,0,0,0,.1,1.91,8.48,8.48,0,0,0,.28,1.18s0,.06,0,.09l.18,1,.06.35c0,.07,0,.13,0,.19v.1c0,.26,0,.53.08.79a.44.44,0,0,0,.18.24.45.45,0,0,0,.19.05,2.87,2.87,0,0,0-.14.54l0,.08c0,.06,0,.13,0,.2a1.6,1.6,0,0,0-.3.13l-.36.19a6.73,6.73,0,0,0-1.66,1.42.59.59,0,0,0-.14.22l0,.14v.11l-.29.3-.21.22-.08.08,0,0a1,1,0,0,0-.2.27.41.41,0,0,0,0,.4.31.31,0,0,0,.09.11l-.16.18L135,122l-.06.06v0l-.05.05-.1.09a.69.69,0,0,0-.13.11,1.32,1.32,0,0,0-.25.28.38.38,0,0,0,0,.4.39.39,0,0,0,.32.2H135a.67.67,0,0,0,.06.12.38.38,0,0,0,0,.16.49.49,0,0,0,0,.2.47.47,0,0,0,.24.18,1.38,1.38,0,0,0,.51.08h.62l.35,0h.37l1.22-.06,1.48-.09,1.22-.07.52,0h.33a.43.43,0,0,0,.35-.2.41.41,0,0,0,.05-.19v0l.21.16a.39.39,0,0,0,.2.06.36.36,0,0,0,.28-.12l0-.06a.41.41,0,0,0,.19,0,.45.45,0,0,0,.19,0,.47.47,0,0,0,.14-.14l0-.07h.1a.44.44,0,0,0,.25-.2.39.39,0,0,0,0-.28,2,2,0,0,0-.18-.4.75.75,0,0,1-.07-.12,2,2,0,0,0-.14-.25l0-.08a4.64,4.64,0,0,0-.25-.42,1.74,1.74,0,0,0-.11-.18l-.13-.2-.07-.09c-.05-.09-.11-.17-.17-.26l-.06-.08v0c-.1-.2-.2-.4-.32-.59a.4.4,0,0,0-.34-.2,1.33,1.33,0,0,0-.24-.2.53.53,0,0,0-.29-.1l-.24.05a.35.35,0,0,0-.19.12v0l-.06-.1-.11-.16a1.62,1.62,0,0,0-.24-.61.46.46,0,0,0-.14-.14.44.44,0,0,0-.13-.14.46.46,0,0,0-.2,0h-.11l-.16,0h0v0a.54.54,0,0,0-.07-.13v-.07c.05-.38.11-.75.18-1.13l0-.16c0-.15.06-.3.08-.45l.05-.36.06-.35.06-.52,0-.25v-.11c0-.12,0-.24,0-.36l0-.33c0-.32.07-.64.09-1l0-.38c0-.25,0-.49.07-.74s.14-.69.23-1.09.17-.74.29-1.15l.05-.17c0-.16.09-.32.13-.48v0c0-.11.06-.21.08-.31s0-.12,0-.17a.56.56,0,0,0-.05-.46.39.39,0,0,0-.24-.18l-.09,0a.5.5,0,0,0-.08-.12.39.39,0,0,0-.21-.11h.1a.4.4,0,0,0,.25-.1l.1,0,.08,0a.4.4,0,0,0,.27-.49.37.37,0,0,0-.09-.16.34.34,0,0,0,0-.1.4.4,0,0,0-.38-.4Z" transform="translate(-16.39 -23.82)" style="fill:#d4932b"/><path d="M139.42,92.43l-.2.19-.09.09,0,.06,0,0-.06.15a.78.78,0,0,0,0,.16.4.4,0,0,0,0,.15.08.08,0,0,1,0,0,.39.39,0,0,0,0,.31.37.37,0,0,0,.27.27.73.73,0,0,0,.26.06h.06a1.28,1.28,0,0,0,.42-.13h0l0,0a.41.41,0,0,0,.23-.11l0,0h.07a1.1,1.1,0,0,0,.32-.17.45.45,0,0,0,.14-.34.48.48,0,0,0-.22-.38l-.13,0h-.06l-.11,0h0l-.15,0a.39.39,0,0,0-.11-.22.39.39,0,0,0-.28-.11.45.45,0,0,0-.28.11Z" transform="translate(-16.39 -23.82)" style="fill:#d4932b"/><path d="M138.46,86.43h0Zm-3.1-.76.77.16a.44.44,0,0,0-.26.17.36.36,0,0,0-.12.28.4.4,0,0,0,.2.34l.21.15.17.07.22.07a5,5,0,0,0,.77.14l.75.07h1.07a.3.3,0,0,0,.27-.14h0a.34.34,0,0,0,.05-.17.33.33,0,0,0-.33-.33l-.43,0-.26,0h0c.56,0,1.11,0,1.66-.07a.31.31,0,0,0,.26-.15.32.32,0,0,0,0-.3.29.29,0,0,0-.26-.14h0c-.7-.06-1.41-.07-2.11-.07a8.44,8.44,0,0,0-.87,0l-.18,0-1.54-.09Z" transform="translate(-16.39 -23.82)" style="fill:#fff;opacity:0.45"/><path d="M139.27,93.39Zm0,0h0Zm-.17-.41a.46.46,0,0,0,.15.29l.06,0h0c-.11,0-.16.14-.22.22h0l.14-.12h0l.06,0h.18a.47.47,0,0,0,.16,0,.06.06,0,0,0,0-.11h-.12l-.14,0h0l-.13-.07h0a.08.08,0,0,1,0,0,.51.51,0,0,1-.09-.16h0Z" transform="translate(-16.39 -23.82)" style="fill:#fff;opacity:0.45"/><path d="M137.88,120.69c.06-.12.12-.25.17-.37v.24h0a.41.41,0,0,1,0,.11v.19l-.24,0,.06-.14Zm.36-13c0,.14,0,.29,0,.43s0,.32,0,.48,0,.52,0,.79a1.5,1.5,0,0,0,0,.22l0-.09a6.28,6.28,0,0,1,0-1.37c0-.16.06-.31.1-.46Zm.51-.77h0Zm.55-1.7c-.12.26-.24.53-.35.8s-.16.42-.23.63h0l-.16,0a1.44,1.44,0,0,0-.32.23,1.93,1.93,0,0,0-.41.74,3.67,3.67,0,0,0-.2.87,5.79,5.79,0,0,0,0,1,7.08,7.08,0,0,0,.16.92c.06.23.14.45.21.67l.12.34s0,0,0,.06v0c0,.28,0,.56,0,.84s0,.4,0,.59,0,.16,0,.24h0c0,.46,0,.92.07,1.38a.27.27,0,0,0,0,.12v.35c0,.17,0,.35,0,.52a.44.44,0,0,0-.13.31c0,.21,0,.41,0,.62V117c0,.17,0,.34,0,.51s0,.2,0,.3v.1c-.05.09-.1.18-.14.27a1.74,1.74,0,0,0-.1.19l-.06,0a.65.65,0,0,0-.21.07,2.19,2.19,0,0,0-.42.38c-.24.23-.47.45-.69.7s-.46.51-.68.78l-.42.52-.3.41c-.2.27-.4.55-.59.83,0,0,0,0-.05.05a.62.62,0,0,0-.12.19.38.38,0,0,0,0,.21l-.15.17a.39.39,0,0,0-.11.27.31.31,0,0,0,.05.18.35.35,0,0,0,.13.14.69.69,0,0,0,.19.1h.17a.45.45,0,0,0,.27.62,2.33,2.33,0,0,0,.36.08,3.31,3.31,0,0,0,.44,0,5.66,5.66,0,0,0,.82-.06c.18,0,.37,0,.56-.08l.59-.13.27-.07.17,0,.15,0,.19-.08a.43.43,0,0,0,.2-.27H139a.43.43,0,0,0,.4-.31.46.46,0,0,0,0-.2h.05l.21,0a.4.4,0,0,0,.18-.1.42.42,0,0,0,.12-.29.41.41,0,0,0-.41-.41l-.32,0a.48.48,0,0,0-.11-.29.93.93,0,0,0-.15-.13h0v-.14a.23.23,0,0,0,0-.14c0-.18,0-.37,0-.56v-.4c0-.28,0-.58,0-.86,0-.57,0-1.13.05-1.69a.22.22,0,0,0,0-.16c0-.26,0-.52,0-.77s0-.59,0-.88a.49.49,0,0,0-.14-.32,0,0,0,0,0,0,0v0c0-.86,0-1.73,0-2.59v-1c.05-.84.11-1.67.17-2.5l0-.5c0-.13,0-.25,0-.38a1.63,1.63,0,0,0,0-.31.44.44,0,0,0,0-.15A.69.69,0,0,0,139,108c0-.22,0-.44,0-.66a.38.38,0,0,0-.27-.35h-.09l.07,0,.12,0a.12.12,0,0,0,.09-.08s0-.1,0-.14a14.57,14.57,0,0,1,.35-1.45Z" transform="translate(-16.39 -23.82)" style="fill:#fff;opacity:0.45"/><path d="M137.46,87.24h0Zm-.85-.22h0Zm5-1.8h0Zm0,0h0Zm4-1.37a.71.71,0,0,0-.37.2c-.08.09-.14.18-.21.27l-.09,0-.56.2-.74.22c-.23.07-.46.12-.69.17-.44.11-.88.2-1.33.27s-.88.09-1.32.11l-.87,0c-.3,0-.6,0-.9,0l-.71,0c-.58,0-1.16,0-1.75,0-.23,0-.47,0-.71,0l-1.19.07h0l1.3.06.77.05.94.1,1,.13c.31,0,.62.05.93.07s.51,0,.77,0h.58q.38,0,.75,0a14.47,14.47,0,0,0,1.85-.27l1.09-.24-.17.15a11.8,11.8,0,0,1-1.84,1l-.48.19c-.19.08-.39.13-.58.2a2.61,2.61,0,0,1-.27.06l-.31.09-.27,0-.28,0-.77.08a11.77,11.77,0,0,1-1.78,0,3.84,3.84,0,0,1-.82-.23c-.43-.18-.85-.41-1.26-.63s-.81-.43-1.22-.63h0l1,.67.79.55a6.67,6.67,0,0,0,.75.47,4.87,4.87,0,0,0,.53.21,3.16,3.16,0,0,0,.68.14,13.08,13.08,0,0,0,1.53.09c.25,0,.51,0,.76,0l.51,0,.47-.06a8.85,8.85,0,0,0,.87-.16l.52-.13.4-.13.67-.25a6.4,6.4,0,0,0,1.38-.7,4.21,4.21,0,0,0,.71-.62c.13-.15.26-.28.38-.44s.48-.66.35-1a.65.65,0,0,0-.63-.49l-.17,0Z" transform="translate(-16.39 -23.82)"/><path d="M139.64,84.46s0,.05,0,.07a.17.17,0,0,1,0-.07Zm.07-.1Zm-.16-.07h0Zm.1-.85a1.72,1.72,0,0,0-.55.33,1,1,0,0,0-.33.45,1.28,1.28,0,0,0-.05.27.56.56,0,0,0,.07.23,1.15,1.15,0,0,0,.22.22v0c0,.12.17.2.26.26a1.19,1.19,0,0,0,1.06,0,1.28,1.28,0,0,0,.44-.32.83.83,0,0,0,.23-.49.33.33,0,0,0,0-.14.43.43,0,0,0,0-.22.66.66,0,0,0-.06-.31,1,1,0,0,0-.75-.43h-.07a1.3,1.3,0,0,0-.51.11Z" transform="translate(-16.39 -23.82)"/><path d="M139.79,81.94a5.5,5.5,0,0,0-1.07.14,1.11,1.11,0,0,0-.57.26.43.43,0,0,0-.12.17.72.72,0,0,0-.18.21.66.66,0,0,0-.09.33.74.74,0,0,0,.28.53,2.23,2.23,0,0,0,1.26.39,5.71,5.71,0,0,0,1.49,0,3.84,3.84,0,0,0,.67-.16,1.62,1.62,0,0,0,.62-.3.82.82,0,0,0,.12-.2.69.69,0,0,0,.08-.37.74.74,0,0,0-.38-.61,2.71,2.71,0,0,0-1.37-.34h-.74Z" transform="translate(-16.39 -23.82)"/><path d="M139.3,88.12a.39.39,0,0,0-.12.3h0c0,.57-.06,1.14-.08,1.71,0,.16,0,.32,0,.48,0,.62,0,1.23,0,1.84a.59.59,0,0,0,.07.29.61.61,0,0,0,.34.25.59.59,0,0,0,.43,0,.6.6,0,0,0,.26-.34l0-.23a.42.42,0,0,0,.17-.18l.1-.22,0-.27c0-.16,0-.33,0-.49s0-.21,0-.31l0-.68c0-.21,0-.41,0-.62s0-.29,0-.43V89a2.93,2.93,0,0,0-.07-.41.56.56,0,0,0-.45-.41.37.37,0,0,0-.31-.16.4.4,0,0,0-.3.13Z" transform="translate(-16.39 -23.82)"/><path d="M138.94,93.38Zm1.32-.3Zm0,0h0Zm0,0h0Zm0,0Zm-.32-.13.22.07.08,0,0,0h0a0,0,0,0,0,0,0v0a.13.13,0,0,0,0,.06s0,0,0-.07l0,.09,0,0-.19.11-.26.07a3.21,3.21,0,0,1-.62,0l-.16,0v0s0,0,0,0l.08-.13.06-.06.08,0a2.4,2.4,0,0,1,.38-.12Zm-.56-.88a1.84,1.84,0,0,0-.55.21,1.4,1.4,0,0,0-.63.84,1.35,1.35,0,0,0,0,.49,1,1,0,0,0,.13.27.88.88,0,0,0,.22.21,1.44,1.44,0,0,0,1.09.21,1.54,1.54,0,0,0,.84-.4,1.19,1.19,0,0,0,.39-.31,1,1,0,0,0,.17-.46.93.93,0,0,0-.12-.54l-.12-.15a.76.76,0,0,0-.22-.17,1.28,1.28,0,0,0-.29-.13,1.94,1.94,0,0,0-.33-.07l-.31,0-.28,0Z" transform="translate(-16.39 -23.82)"/><path d="M139.42,93.94a.72.72,0,0,0-.27.15,1.52,1.52,0,0,0-.3.46,3.29,3.29,0,0,0-.1.53c0,.34-.06.67-.07,1s0,.58,0,.87,0,.46,0,.69,0,.5,0,.75v.17c0,.25,0,.51-.07.77s0,.33,0,.5,0,.59,0,.89,0,.36,0,.53,0,.45,0,.68v.13c0,.31,0,.62,0,.93,0,.11,0,.22,0,.33s0,.2,0,.3v.07l0,.16a1.22,1.22,0,0,0,.1.24.64.64,0,0,0,.2.2.57.57,0,0,0,.44.06.53.53,0,0,0,.17-.08.52.52,0,0,0,.25-.07.55.55,0,0,0,.25-.33,1,1,0,0,0,.08-.34c0-.05,0-.1,0-.14s0-.32,0-.49,0-.39,0-.58c0-.48,0-1,0-1.44,0-.93,0-1.87,0-2.8l0-1.07c0-.12,0-.23,0-.35s0-.22,0-.34l0-.37a.91.91,0,0,0,0-.23.55.55,0,0,0-.09-.3h0l0-.07a.51.51,0,0,0-.21-.25l0,0s0-.09,0-.13l0-.11,0-.12a.77.77,0,0,0,0-.37.61.61,0,0,0-.43-.42.41.41,0,0,0-.16,0,.44.44,0,0,0-.16,0Z" transform="translate(-16.39 -23.82)"/><path d="M139.47,105.72h0Zm-.23,0h0Zm-.17,0h0Zm.74-.09h0Zm-.94-.08v0Zm0,0h0Zm1.12-.06,0,0,0,0Zm.05-.11s0,0,0,0l0,0Zm-1.14-.2,0,0,0,0Zm1.17-.09Zm-.33-.12.11,0,.14.1-.05,0,.06.07,0,0a.06.06,0,0,1,0,0,.45.45,0,0,1,0,.11.74.74,0,0,1,0,.14l-.06.1-.08.08a.94.94,0,0,1-.22.12l-.12,0h-.29l-.16,0-.1,0s0,0-.05-.05l0,.05a.83.83,0,0,1-.08-.12l0-.13a.74.74,0,0,1,0-.21h0a2.61,2.61,0,0,1,.28-.17c.11,0,.21-.07.32-.09a1.41,1.41,0,0,1,.29,0Zm-.58-.81a2.34,2.34,0,0,0-.62.24,1.21,1.21,0,0,0-.62.91,1,1,0,0,0,.08.54,1.24,1.24,0,0,0,.17.27,2.88,2.88,0,0,0,.27.22,1.39,1.39,0,0,0,.49.19,1.51,1.51,0,0,0,.6,0,1.48,1.48,0,0,0,.5-.17,1.07,1.07,0,0,0,.35-.32,1.24,1.24,0,0,0,.31-.41,1,1,0,0,0,0-1.11,1.13,1.13,0,0,0-.37-.28,1.79,1.79,0,0,0-.59-.16h-.13a1.83,1.83,0,0,0-.4,0Z" transform="translate(-16.39 -23.82)"/><path d="M137.72,107.35l0,0,0,0Zm-.14-.18v0Zm3,.07.34.07a8.5,8.5,0,0,1-1.3.32,5.88,5.88,0,0,1-1.39,0l-.1,0a3.81,3.81,0,0,1-.45-.23,4.94,4.94,0,0,1,.76-.18,9,9,0,0,1,2.14.07Zm-.84-1.08a6.33,6.33,0,0,0-1.67.27h0a2.63,2.63,0,0,0-.39.06,2.35,2.35,0,0,0-.45.14,1.81,1.81,0,0,0-.33.2.61.61,0,0,0-.18.24.71.71,0,0,0,0,.41,1,1,0,0,0,.44.61,2.55,2.55,0,0,0,.79.35,5.2,5.2,0,0,0,1.11.15,5.44,5.44,0,0,0,1.92-.3c.32-.11.63-.26.94-.39l.23-.1.16-.12.11-.15a.5.5,0,0,0,.07-.27,1.5,1.5,0,0,0,0-.2,1.07,1.07,0,0,0-.2-.36,2.7,2.7,0,0,0-1.74-.55h-.74Z" transform="translate(-16.39 -23.82)"/><path d="M137.74,108.14c0,.79-.09,1.58-.14,2.37s-.09,1.41-.12,2.11,0,1.3,0,1.95v.36s0,.09,0,.13c0,.66-.1,1.33-.1,2a2.64,2.64,0,0,0,0,.28.61.61,0,0,0,.15.38.55.55,0,0,0,.53.14.57.57,0,0,0,.4-.54,8.18,8.18,0,0,0,0-1c0-.37,0-.74-.06-1.11,0-.65-.07-1.3-.14-1.95,0-.31-.07-.61-.11-.92,0-.52-.06-1-.1-1.56,0-.7-.13-1.4-.22-2.09l-.07-.55Z" transform="translate(-16.39 -23.82)"/><path d="M141.18,108.84h0Zm-.49,8.45a.13.13,0,0,0,0,.06.13.13,0,0,1,0-.06Zm.54-8.84c-.07.22-.13.44-.2.66l.06-.66h0a34.07,34.07,0,0,0-.92,4c0,.17,0,.35-.08.52-.09.43-.17.87-.24,1.31,0,.17,0,.33-.07.5a4.93,4.93,0,0,0-.05.54c0,.35,0,.69-.06,1a5.91,5.91,0,0,0,0,1,.49.49,0,0,0,.36.49.48.48,0,0,0,.37,0,.52.52,0,0,0,.18-.18.46.46,0,0,0,.06-.23,5.55,5.55,0,0,0,0-.91c0-.32,0-.64,0-1,0-.6,0-1.19,0-1.79s0-1.21.1-1.81.13-1.26.21-1.89h0l.18-1.21h0c0-.12,0-.25,0-.38Z" transform="translate(-16.39 -23.82)"/><path d="M138.63,116.89a1.07,1.07,0,0,0-.31.06c-.1,0-.19.08-.29.12a1.86,1.86,0,0,0-.35.22,4.8,4.8,0,0,0-1,.64,5.22,5.22,0,0,0-.77.79c-.13.11-.25.24-.37.36a10.91,10.91,0,0,0-.84,1.09c-.13.18-.23.37-.35.55a6.64,6.64,0,0,0-.5,1.08.36.36,0,0,0,0,.11c-.06.11-.1.23-.16.35s-.1.29-.14.43a1,1,0,0,0,0,.17,1,1,0,0,0,0,.24.62.62,0,0,0,.29.55.6.6,0,0,0,.8-.21,2.37,2.37,0,0,0,.13-.34l.12-.31c.17-.38.37-.74.57-1.11l.46-.82c.37-.62.76-1.23,1.19-1.81l0,0a8.13,8.13,0,0,1,1.56-1l.21-.08h0l.13,0a.59.59,0,0,0,.25-.33.56.56,0,0,0-.5-.7Z" transform="translate(-16.39 -23.82)"/><path d="M140.17,117.39a.53.53,0,0,0,.08.63l.06,0a6.56,6.56,0,0,1,.72.77c.18.2.35.41.52.62l.15.21.31.44c.1.14.18.3.27.44a13.83,13.83,0,0,1,.79,1.59,2.29,2.29,0,0,1,.08.28,4.86,4.86,0,0,1,.11.55l0,.26a.36.36,0,0,0,0,.1h0a.49.49,0,0,0,.14.24l.1.08a1.6,1.6,0,0,1,0,.21h0v-.18a.56.56,0,0,0,.77-.35,2.84,2.84,0,0,0,0-.92,4.2,4.2,0,0,0-.23-.86.61.61,0,0,0,0-.12,5.47,5.47,0,0,0-.16-.7,5.78,5.78,0,0,0-.43-1,4.25,4.25,0,0,0-1.29-1.53,2.65,2.65,0,0,0-.67-.34.86.86,0,0,0-.07-.1,4.48,4.48,0,0,0-.36-.4l-.18-.14a.84.84,0,0,0-.31-.08h0a.54.54,0,0,0-.42.26Z" transform="translate(-16.39 -23.82)"/><path d="M140.15,123c-1.21,0-2.41.08-3.62.11l-1.47,0-.65,0h-.36a3.52,3.52,0,0,1-.45,0,.6.6,0,0,0-.29.08.58.58,0,0,0-.26.35.51.51,0,0,0,0,.3.62.62,0,0,0,.26.35.71.71,0,0,0,.31.13l.35,0h1.65c.67,0,1.33-.07,2-.12l.7,0,3,.09,1.5,0,1,.09.12,0a.71.71,0,0,0,.21,0,.59.59,0,0,0,.58-.43.58.58,0,0,0,0-.32.63.63,0,0,0-.28-.36,1,1,0,0,0-.27-.15c-.1,0-.19,0-.29-.06l-.23,0-.61-.08c-.31,0-.61-.05-.92-.06s-.88,0-1.32,0Z" transform="translate(-16.39 -23.82)"/><path d="M141,105.73l0,0,0,0Zm3.89-3-.11.08a6.1,6.1,0,0,1-.54.34l-.48.33c-.24.16-.48.34-.71.52a.27.27,0,0,0-.12.09l-1,.82c-.34.27-.65.58-1,.87l0,0a.57.57,0,0,0-.13.08.44.44,0,0,0-.12.15.42.42,0,0,0,0,.38l-.08.06h0l.08,0h0a.39.39,0,0,0,.45.18l.16,0,.18-.07.25-.17.32-.25.45-.36.82-.69c.26-.22.52-.44.77-.67l.19-.17.1-.08.5-.4.19-.16.22-.2a.64.64,0,0,0,.1-.13.7.7,0,0,0,.08-.2.32.32,0,0,0-.14-.35.32.32,0,0,0-.16,0,.31.31,0,0,0-.22.09Z" transform="translate(-16.39 -23.82)"/><path d="M144.47,101.87l.1.17-.06.07a.16.16,0,0,0-.16,0,.2.2,0,0,0-.08.29l.07.13a.38.38,0,0,0,0,.1,4.84,4.84,0,0,0,.58,1,1.9,1.9,0,0,0,.26.43.36.36,0,0,0,.33.1.52.52,0,0,0,.29.09.48.48,0,0,0,.37-.78,2.59,2.59,0,0,0-.31-.41l0,0c-.07-.1-.15-.19-.22-.28s-.34-.49-.5-.74a.39.39,0,0,0-.45-.19l-.13.07-.12-.15h0Z" transform="translate(-16.39 -23.82)"/><path d="M141.14,86.79Zm-7.82-2.41a.64.64,0,0,0-.3.54.68.68,0,0,0,.08.31.66.66,0,0,0,.22.22c.14.1.31.17.46.26l-.05,0c.26.19.54.35.81.51s.55.29.82.43a7.53,7.53,0,0,0,1.08.42,8.83,8.83,0,0,0,1.35.22,7.28,7.28,0,0,0,.93.07c.32,0,.64,0,1,0a6.8,6.8,0,0,0,2-.42,11.91,11.91,0,0,0,1.21-.52h0c-.35.11-.7.21-1.06.3a6,6,0,0,1-.72.13h0a5.5,5.5,0,0,1-1.46,0l-.53-.06a8.59,8.59,0,0,1-1-.2,10.94,10.94,0,0,1-1.38-.41,7.22,7.22,0,0,1-.78-.41l.26,0c.64,0,1.3.08,1.95.1h1c.3,0,.61,0,.91-.06a9.2,9.2,0,0,0,1-.12c.31,0,.62-.12.93-.18l.31-.06h0l-1.54,0c-.46,0-.91,0-1.37-.07-.91,0-1.82-.17-2.73-.29-.46-.07-.91-.15-1.37-.24l-.66-.14-.29-.08-.12-.07-.16-.09a1.11,1.11,0,0,0-.3-.12h0l-.16,0a.72.72,0,0,0-.32.08Z" transform="translate(-16.39 -23.82)"/><path d="M145.65,103.19l-.2,0a1.72,1.72,0,0,0-.29.11,3.53,3.53,0,0,0-.59.35,6.6,6.6,0,0,0-.68.5l-.79.67-.68.63c-.25.24-.54.43-.8.67,0,0,0,.06,0,.06s.16-.09.24-.13h0l.52-.28c-.33.27-.65.55-1,.83h0c.52-.3,1-.6,1.53-.92l.4-.24c.18-.12.37-.25.56-.36l1.18-.7.49-.31c.22-.14.55-.26.52-.58a.38.38,0,0,0-.11-.25.33.33,0,0,0-.26-.11Z" transform="translate(-16.39 -23.82)"/><path d="M136.66,114.36c.15,0,.31,0,.46,0l1.16-.12c1.31-.14,2.62-.33,3.93-.42s2.72-.16,4.09-.18H148a16.88,16.88,0,0,1,1.88.07A5.43,5.43,0,0,1,151,114a4.16,4.16,0,0,1,.73.44,4.7,4.7,0,0,1,.59.59,3.65,3.65,0,0,1,.32.54,3.06,3.06,0,0,1,.15.54,4.12,4.12,0,0,1,0,.86,1.86,1.86,0,0,1-.1.39,2.5,2.5,0,0,1-.21.35,4.65,4.65,0,0,1-.67.66,7.8,7.8,0,0,1-1.46.84,9.09,9.09,0,0,1-2,.54c-.5.06-1,.1-1.5.13a11.1,11.1,0,0,1-1.73,0,7.34,7.34,0,0,1-1.46-.4l-.79-.31-1.47-.59a7.23,7.23,0,0,1-1.26-.67l-.55-.37-1.11-.8a9,9,0,0,1-.91-.83l-.4-.42-.61-.69c-.1-.13-.2-.25-.29-.38l.41,0Zm-10.12-8.87a.06.06,0,0,0,0,0,.06.06,0,0,1,0,0Zm5.29-4.1a5.37,5.37,0,0,1,1,.23,8,8,0,0,0-.83,2.32,9.78,9.78,0,0,0-.16,1.43c0,.22,0,.45,0,.68s0,.72.05,1.07.06.62.09.93a10.2,10.2,0,0,0,.25,1.34c.07.27.16.54.25.81s.12.36.19.54a5.48,5.48,0,0,0,.23.56,5.85,5.85,0,0,0,.35.71c.19.34.41.66.63,1l.18.29c-.64,0-1.27-.06-1.9-.14a9.43,9.43,0,0,1-2.22-.58,6.25,6.25,0,0,1-1.23-.71,6.71,6.71,0,0,1-1.05-1.08,7.38,7.38,0,0,1-.46-.68,5.37,5.37,0,0,1-.36-.72,6,6,0,0,1-.22-.59,3.9,3.9,0,0,1-.13-.57,8.8,8.8,0,0,1,0-1.36q0-.63.09-1.26a7.82,7.82,0,0,1,.42-1.63,5.47,5.47,0,0,1,.63-1.07,5.9,5.9,0,0,1,.78-.8,5.16,5.16,0,0,1,.88-.51,4,4,0,0,1,.84-.24,8,8,0,0,1,1.76,0Zm16.56-9.2s0,0,0,0a0,0,0,0,1,0,0Zm-.14-.62h0Zm-.27-.28h0Zm-.35-.22Zm-.34-.08.33.08a3,3,0,0,1,.35.22,1.72,1.72,0,0,1,.27.27,2,2,0,0,1,.11.2.65.65,0,0,1,0,.13,1.41,1.41,0,0,1,0,.29,3.21,3.21,0,0,1-.15.53,3.37,3.37,0,0,1-.19.32,2.53,2.53,0,0,1-1.06.79,14,14,0,0,1-3.08.63,15.2,15.2,0,0,0-2.22.51c-.36.11-.71.24-1.07.37s-.64.25-1,.37-.64.28-1,.43a12.41,12.41,0,0,0-3.88,2.76,12.92,12.92,0,0,0-.87,1.06c-.16.19-.31.39-.45.59l-.5-.19a6.61,6.61,0,0,0-1.53-.25,7.49,7.49,0,0,0-1.34,0,4.83,4.83,0,0,0-.76.13,4.89,4.89,0,0,0-.8.31,5.27,5.27,0,0,0-1.11.72,5.88,5.88,0,0,0-1,1.11,6.15,6.15,0,0,0-1,2.71,9.75,9.75,0,0,0-.13,1.43,11,11,0,0,0,0,1.52,5.81,5.81,0,0,0,.11.71,3.25,3.25,0,0,0,.21.67,8.09,8.09,0,0,0,.63,1.33,8.83,8.83,0,0,0,.82,1.11,8,8,0,0,0,1,1,7.19,7.19,0,0,0,2.53,1.16,10.94,10.94,0,0,0,2.27.35l1,0h.8l.3.43a14.57,14.57,0,0,0,1.33,1.61l.45.48a7.86,7.86,0,0,0,1,.87l.89.64c.28.21.57.41.86.59a13,13,0,0,0,1.85.88l1.88.75c.26.1.52.18.78.26a5.82,5.82,0,0,0,1.49.21q.57,0,1.14,0l1.12-.07a10.27,10.27,0,0,0,2.63-.55A7.9,7.9,0,0,0,153,119a3.72,3.72,0,0,0,.43-.46,3.19,3.19,0,0,0,.39-.57,3,3,0,0,0,.28-1.6,5.52,5.52,0,0,0-.11-.71,3.29,3.29,0,0,0-.23-.62,2.68,2.68,0,0,0-.36-.58,3.24,3.24,0,0,0-.48-.5,5.67,5.67,0,0,0-1.12-.76,4.94,4.94,0,0,0-1.45-.43,18,18,0,0,0-2.94-.12l-1.92,0c-.69,0-1.38,0-2.08,0l-2.16.13c-.62,0-1.23.11-1.85.17l-2.27.2c-.35,0-.7,0-1,0s-.42,0-.63,0l-.15-.22-.51-.78-.37-.56a7.15,7.15,0,0,1-.58-1.09,12.35,12.35,0,0,1-.76-2.69c0-.22-.06-.44-.08-.66s0-.49,0-.73,0-.47,0-.7a8.35,8.35,0,0,1,.07-1.32,7.56,7.56,0,0,1,.48-1.81c.09-.2.19-.4.29-.6l.25.18.39.29c.25.21.5.42.74.65l.73.7c.13.13.24.27.36.4l.3.35c.2.24.41.47.6.72.42.54.83,1.09,1.28,1.61a14.84,14.84,0,0,0,1.37,1.49l.38.34.45.37a10,10,0,0,0,1,.72c.2.13.41.24.62.36a8,8,0,0,0,2.25.89,5.46,5.46,0,0,0,1.34.08,6.44,6.44,0,0,0,1.44-.22,5.56,5.56,0,0,0,2.41-1.41,5,5,0,0,0,1.38-3.7c0-.18,0-.36,0-.54a5.41,5.41,0,0,0-.82-2.57,3.16,3.16,0,0,0-.53-.62,2,2,0,0,0-.71-.44,2.4,2.4,0,0,0-1.22,0l-.6.11-.32.1a3.85,3.85,0,0,0-.86.37,5.29,5.29,0,0,0-.75.57l-.52.48-1.13,1h0l1.28-.82a9.88,9.88,0,0,1,1.36-.83,4.1,4.1,0,0,1,.78-.22l.26,0a6.62,6.62,0,0,1,1.09,0l.23.07a.94.94,0,0,1,.22.12,3.11,3.11,0,0,1,.31.32,3.69,3.69,0,0,1,.39.66,5.7,5.7,0,0,1,.29,1.15,6.17,6.17,0,0,1,.05.87,6.32,6.32,0,0,1,0,.87,5.47,5.47,0,0,1-.27,1,4.7,4.7,0,0,1-.46.78,4.92,4.92,0,0,1-.69.68,6,6,0,0,1-1,.59,5,5,0,0,1-1.09.3,6.77,6.77,0,0,1-1.35,0,5.88,5.88,0,0,1-1.3-.38,9.5,9.5,0,0,1-.95-.49,8.76,8.76,0,0,1-1-.67c-.27-.22-.54-.44-.8-.67a8.53,8.53,0,0,1-.69-.65c-.47-.5-.93-1-1.36-1.54s-.83-1.06-1.27-1.57c-.23-.28-.48-.56-.72-.83s-.42-.43-.64-.64a13.26,13.26,0,0,0-1.76-1.41c.18-.25.36-.48.54-.72a9.86,9.86,0,0,1,.91-1,10.27,10.27,0,0,1,1.05-.93,15.64,15.64,0,0,1,1.74-1.12c.28-.17.58-.31.88-.46s.87-.41,1.31-.61a21.8,21.8,0,0,1,2.34-.85c.67-.18,1.36-.31,2-.46a10.43,10.43,0,0,0,1.54-.45,3.78,3.78,0,0,0,.95-.51,2.48,2.48,0,0,0,.62-.67,1.88,1.88,0,0,0,.29-.86,1.34,1.34,0,0,0,0-.4,1.12,1.12,0,0,0-.12-.35,1.37,1.37,0,0,0-.58-.51,1.09,1.09,0,0,0-.23-.09,1.19,1.19,0,0,0-.46-.06Z" transform="translate(-16.39 -23.82)"/><path d="M148.68,91.38a1,1,0,0,0-.36.17,1.94,1.94,0,0,0-.37.33,1.35,1.35,0,0,0-.26.32.35.35,0,0,0-.08.31.34.34,0,0,0,.25.23.69.69,0,0,0,.4-.06,2.26,2.26,0,0,0,.59-.37.89.89,0,0,0,.3-.31.2.2,0,0,0,0-.24.66.66,0,0,0,0-.15.27.27,0,0,0-.13-.21.39.39,0,0,0-.18,0l-.17,0Z" transform="translate(-16.39 -23.82)"/><path d="M146.41,89.65a.26.26,0,0,0-.18.33,1.89,1.89,0,0,0,.13.33.37.37,0,0,0,.1.22l.06.06a8.26,8.26,0,0,0,.68.88,4.35,4.35,0,0,0,.36.38,3.88,3.88,0,0,1,.42.39.36.36,0,0,0,.28.11.39.39,0,0,0,.33-.19.48.48,0,0,0-.06-.56,3.65,3.65,0,0,0-.24-.31c-.09-.11-.19-.22-.29-.32a4,4,0,0,0-.26-.32c-.16-.18-.32-.34-.49-.51s-.31-.24-.47-.36a.69.69,0,0,0-.13-.11.27.27,0,0,0-.12,0Z" transform="translate(-16.39 -23.82)"/><path d="M146.26,89.28l-.12.07a1.81,1.81,0,0,0-.41.32.31.31,0,0,0-.06.19v0a.27.27,0,0,0,.2.28l.1,0a.49.49,0,0,0,.21,0,.91.91,0,0,0,.33-.15l.28-.22.1-.11.08-.09a.27.27,0,0,0,0-.37h0a.36.36,0,0,0-.26-.11,1,1,0,0,0-.44.15Z" transform="translate(-16.39 -23.82)"/><path d="M146.57,79.25a2.24,2.24,0,0,0,.13,1.09,2,2,0,0,0,.16.24c0,.07.09.13.13.19a8.16,8.16,0,0,1,.69,1.17,2.11,2.11,0,0,1,.12.43,5.15,5.15,0,0,1,0,1.24,4,4,0,0,1-.22.84,4.09,4.09,0,0,1-.54.87c-.26.33-.53.65-.76,1a2.77,2.77,0,0,0-.26.55,1.8,1.8,0,0,0-.11.56.87.87,0,0,0,.09.45,2.12,2.12,0,0,0,.35.44h0l-.15-.32a.49.49,0,0,1-.06-.17,1.22,1.22,0,0,1,0-.27,1.57,1.57,0,0,1,.08-.29,4.09,4.09,0,0,1,.37-.64c.26-.32.56-.62.84-.92a4.05,4.05,0,0,0,.69-1,3,3,0,0,0,.21-.6,4,4,0,0,0,.09-.69,3.73,3.73,0,0,0-.15-1.41,3.44,3.44,0,0,0-.56-.91c-.12-.14-.24-.29-.37-.43l-.44-.46,0,0a.86.86,0,0,1-.1-.16,2.35,2.35,0,0,1-.11-.35,3.55,3.55,0,0,1-.09-.47Z" transform="translate(-16.39 -23.82)"/><path d="M145.14,77h0Zm-.11-.69c0,.11.08.22.11.34a2.16,2.16,0,0,1,0,.36c0,.09,0,.18,0,.27v0a4.46,4.46,0,0,1-.26,1c-.15.35-.34.67-.49,1a2.23,2.23,0,0,0-.16.56,2.81,2.81,0,0,0,0,.58,3,3,0,0,0,.32,1.13,2.63,2.63,0,0,0,.3.44c.13.16.27.3.41.45h0a7.37,7.37,0,0,1-.41-.79,3.74,3.74,0,0,1-.19-.73v0a4.69,4.69,0,0,1,0-1,3.08,3.08,0,0,1,.21-.65c.11-.27.23-.55.33-.83a4,4,0,0,0,.16-.91c0-.16,0-.33,0-.49a1.59,1.59,0,0,0-.07-.39,1.29,1.29,0,0,0-.19-.32Z" transform="translate(-16.39 -23.82)"/><path d="M142.27,74.41a3.54,3.54,0,0,1,.11.44,3.32,3.32,0,0,1,0,.77,3.43,3.43,0,0,1-.22.85,3.37,3.37,0,0,1-.39.66,15.9,15.9,0,0,0-1,1.28,1.84,1.84,0,0,0-.31,1.29,4.69,4.69,0,0,0,.65,1.59h0a12.13,12.13,0,0,1-.33-1.32,2.35,2.35,0,0,1,0-.53,2.25,2.25,0,0,1,.09-.35,3.38,3.38,0,0,1,.38-.6,7.58,7.58,0,0,0,1.14-1.57,3.08,3.08,0,0,0,.25-1.34c0-.15,0-.31,0-.46a1.56,1.56,0,0,0-.1-.37,2.21,2.21,0,0,0-.18-.34Z" transform="translate(-16.39 -23.82)"/><path d="M138.63,80.63Zm0,0h0Zm-.7-5a1.85,1.85,0,0,0-.52.92,1.59,1.59,0,0,0,.07,1v0l-.11.06a2.69,2.69,0,0,0-.8.7,2,2,0,0,0-.42,1,1.61,1.61,0,0,0,0,.49,1.52,1.52,0,0,0,.23.54,1.37,1.37,0,0,0,.83.52,3,3,0,0,0,.42,0,2.91,2.91,0,0,0,.51,0,1.27,1.27,0,0,0,.39-.12,1.21,1.21,0,0,0,.35-.24h0l-.26.13-.31.07a3.69,3.69,0,0,1-.47,0,3.76,3.76,0,0,1-.6-.15,1.75,1.75,0,0,1-.27-.16l-.12-.12a1.48,1.48,0,0,1-.13-.21,2.13,2.13,0,0,1-.07-.27v-.14a1.77,1.77,0,0,1,.12-.41,1.12,1.12,0,0,1,.13-.24,2.26,2.26,0,0,1,.35-.34,2.92,2.92,0,0,1,.48-.29,1.91,1.91,0,0,1,.34-.1h0a.77.77,0,0,0,.38.14.47.47,0,0,0,.42-.23.49.49,0,0,0,0-.47.76.76,0,0,0-.41-.29l-.2,0h-.12a1,1,0,0,1-.1-.17A1.05,1.05,0,0,1,138,77a1.13,1.13,0,0,1,0-.26,3.11,3.11,0,0,1,.11-.41c.05-.08.1-.17.16-.25a2.65,2.65,0,0,1,.34-.33,3.16,3.16,0,0,1,.56-.33,2.09,2.09,0,0,1,.43-.11,1.61,1.61,0,0,1,.38,0,1.05,1.05,0,0,1,.24.06l.07,0,.05,0a.21.21,0,0,0,0,.06v0l.06.18a3.76,3.76,0,0,1,0,.67h0a5.05,5.05,0,0,0,.18-.55.77.77,0,0,0,0-.45.55.55,0,0,0-.19-.21,1.42,1.42,0,0,0-.52-.19l-.3,0a2.47,2.47,0,0,0-1.61.7Z" transform="translate(-16.39 -23.82)"/><path d="M131.13,81.94a2.56,2.56,0,0,0-1.09.67,3.2,3.2,0,0,0-.71,1.17,4,4,0,0,0-.2,1.34,3.11,3.11,0,0,0,.07.67,2.37,2.37,0,0,0,.25.72,2.75,2.75,0,0,0,.36.53,2.38,2.38,0,0,0,.47.43l.18.13a3.33,3.33,0,0,0-.73,1.08,3,3,0,0,0-.25,1.39,2.59,2.59,0,0,0,.39,1.27,3,3,0,0,0,1,.93,3.29,3.29,0,0,0,1.18.43,4.2,4.2,0,0,0,1.37,0,3.25,3.25,0,0,0,.62-.13,2.75,2.75,0,0,0,.49-.23,2.16,2.16,0,0,0,.43-.29,3.27,3.27,0,0,0,.44-.47h0l-.42.35h0a2.7,2.7,0,0,1-.44.24,3.13,3.13,0,0,1-.68.2,5,5,0,0,1-1,0,5.07,5.07,0,0,1-1-.29,2.94,2.94,0,0,1-.52-.3,3.92,3.92,0,0,1-.46-.45,2.78,2.78,0,0,1-.28-.47,2.5,2.5,0,0,1-.11-.39,2.2,2.2,0,0,1,.15-1.13,2.4,2.4,0,0,1,.27-.46,3.92,3.92,0,0,1,.45-.46c.15-.1.3-.2.46-.29a4.71,4.71,0,0,0,.5.08l.33,0a1.46,1.46,0,0,0,.3,0,.78.78,0,0,0,.32-.18.73.73,0,0,0,.19-.3.9.9,0,0,0,0-.4.73.73,0,0,0-.32-.43,1.6,1.6,0,0,0-1.3-.14,1.4,1.4,0,0,0-.46.19,4.86,4.86,0,0,1-.54-.33,4.54,4.54,0,0,1-.38-.38,2.71,2.71,0,0,1-.21-.37,3.45,3.45,0,0,1-.17-.65,4.51,4.51,0,0,1,0-.9,4.37,4.37,0,0,1,.2-.77,2.22,2.22,0,0,1,.68-.91,3.5,3.5,0,0,1,.53-.31,2.61,2.61,0,0,1,.61-.16,5,5,0,0,1,1,0h0l.9.13h0a9.05,9.05,0,0,0-1.33-.45,3.48,3.48,0,0,0-.64-.07h0a2.84,2.84,0,0,0-.71.11Z" transform="translate(-16.39 -23.82)"/><path d="M140.23,122.41Zm1.33-.06a0,0,0,0,1,0,0,0,0,0,0,0,0,0Zm0-.15v0Zm-.65-.29h0Zm-.2,0h0Zm1.78-.81h0Zm-.36-.2,0,0,0,0Zm-1.84-.61a1.62,1.62,0,0,0-1,1.13,2.6,2.6,0,0,0,0,.39,2,2,0,0,0,0,.35,1.58,1.58,0,0,0,.24.74,1,1,0,0,0,.27.3,1.24,1.24,0,0,0,.44.23,1.42,1.42,0,0,0,.41.08,1.25,1.25,0,0,0,.43,0,1.62,1.62,0,0,0,.35-.17,1.68,1.68,0,0,0,.32-.33,1.05,1.05,0,0,0,.15-.32,1.3,1.3,0,0,0,0-.21.65.65,0,0,0,0-.24.51.51,0,0,0-.17-.3.84.84,0,0,0-.34-.17,2.08,2.08,0,0,0-.36,0,1.29,1.29,0,0,0-.39,0,.68.68,0,0,0-.27.13.57.57,0,0,0-.21.57.31.31,0,0,0,.05.1l.16.18h0l-.12-.2h0a.17.17,0,0,1,0-.1v-.08a.65.65,0,0,1,0-.13h0a.59.59,0,0,0,0-.08l.11-.1.11-.06.15,0h.25a1.64,1.64,0,0,1,.38.1l.15.08.06.06,0,0a.45.45,0,0,1,0,.11.09.09,0,0,1,0,0v.08l-.06.23-.09.14a1.21,1.21,0,0,1-.16.16l-.16.1-.18.05h-.21a1.61,1.61,0,0,1-.36-.1l-.17-.1-.15-.14-.09-.16a2.68,2.68,0,0,1-.07-.27,3.13,3.13,0,0,1,0-.53,1.66,1.66,0,0,1,.09-.37c0-.08.09-.15.14-.23a1.53,1.53,0,0,1,.18-.18l.22-.13.25-.07a2.54,2.54,0,0,1,.39,0,2.61,2.61,0,0,1,.4,0,2.69,2.69,0,0,1,.62.16,2.33,2.33,0,0,1,.34.2,1.36,1.36,0,0,1,.24.24,5,5,0,0,1,.33.6l.12.29s0,0,0,0c.16.43.28.88.4,1.33h0c0-.44-.09-.87-.18-1.29a2.73,2.73,0,0,0-.14-.51c-.05-.14-.1-.28-.16-.41a1.82,1.82,0,0,0-.44-.59,2.25,2.25,0,0,0-.6-.35l-.32-.11a3.21,3.21,0,0,0-.43-.07,3.11,3.11,0,0,0-.43,0,1.62,1.62,0,0,0-.62.1Z" transform="translate(-16.39 -23.82)" style="opacity:0.4"/><path d="M139.73,109.69Zm0,1.45v0Zm0,0s0,0,0,0,0,0,0,0Zm.31-1h0Zm.17-.16v0Zm-.27-.17Zm-.28-.27v0Zm.05-.23h0Zm.17-.16s0,0,0,0,0,0,0,0Zm-.11-.19a.43.43,0,0,0-.2.22.74.74,0,0,0-.05.33.38.38,0,0,0,.13.25.37.37,0,0,0,.22.1.58.58,0,0,0,.18,0c.05,0,.1-.08.14-.12h0l-.15.09H140a.2.2,0,0,1-.11,0h0l-.07,0h0l-.06,0h0a.25.25,0,0,1,0-.07s0-.05,0-.07a.28.28,0,0,1,0-.09h0c0-.06,0-.12.05-.17l0-.06.07-.07,0,0,.09,0h0a.5.5,0,0,1,.13,0l.12.07a.6.6,0,0,0,.08.08l0,.09s0,0,0,0v.15c0,.08,0,.16-.07.25a.24.24,0,0,1-.06.09,1.47,1.47,0,0,1-.22.21l-.26.2-.36.32a.83.83,0,0,0-.24.44.74.74,0,0,0,.08.46.49.49,0,0,0,.11.14.57.57,0,0,0,.15.12l.14.1.15.14,0,0a.08.08,0,0,0,0,0,.49.49,0,0,1,0,.12l0,.15a1.27,1.27,0,0,1-.13.19h0l-.06.09a.43.43,0,0,1,0-.07,3.11,3.11,0,0,1-.23.28,2.12,2.12,0,0,0-.38.51,1.3,1.3,0,0,0,0,1,1.33,1.33,0,0,0,.25.41,2.23,2.23,0,0,0,.24.19,1.29,1.29,0,0,1,.21.19l.05.08a.19.19,0,0,0,0,.07.2.2,0,0,1,0,.07.14.14,0,0,1,0,.06,5.21,5.21,0,0,1-.3.46,1.92,1.92,0,0,0-.25.44,1,1,0,0,0,0,.49,2.45,2.45,0,0,0,.12.7.85.85,0,0,0,.31.44,1,1,0,0,0,.24.09c.12,0,.25,0,.37.06h0l-.34-.13a1,1,0,0,1-.2-.11l-.07-.07s-.05-.08-.07-.13a1.67,1.67,0,0,1-.08-.32,3.06,3.06,0,0,1,0-.74l0-.12a1.08,1.08,0,0,1,.11-.18c.19-.24.41-.45.58-.71a.68.68,0,0,0,.09-.37.83.83,0,0,0-.2-.47c-.12-.15-.28-.25-.41-.4l-.06-.1a1.05,1.05,0,0,1-.06-.24.61.61,0,0,1,0-.19.85.85,0,0,1,0-.17l.08-.13c.1-.13.22-.24.32-.36s.23-.28.33-.43a1,1,0,0,0,.15-.46.87.87,0,0,0-.08-.5,1.18,1.18,0,0,0-.42-.41l-.19-.12,0,0,0,0a.43.43,0,0,0,0-.05v0a0,0,0,0,1,0,0l.08-.13a4.51,4.51,0,0,1,.52-.55,1.71,1.71,0,0,0,.18-.2.81.81,0,0,0,.19-.38,2.66,2.66,0,0,0,0-.28.85.85,0,0,0-.08-.35.78.78,0,0,0-.1-.15l-.14-.11a.81.81,0,0,0-.33-.11H140a.43.43,0,0,0-.22.06Z" transform="translate(-16.39 -23.82)" style="opacity:0.4"/><path d="M150.15,124.29Zm-.13.06Zm.08,0Zm0,0Zm-16.39-.49.79,0h.78l1.16,0,1.58.07,1.77.09,1.88.09,1,.06,1,.07.48,0,.47,0,.14,0h-.29l-.73,0-1.25,0c-1.09,0-2.19-.06-3.29-.06s-2.44,0-3.66,0-2.44-.06-3.66-.11h0l.9-.11,1-.08Zm8.2-.36-.77,0-1.78,0-3.9-.07h-.73l-.63,0h-.24l-1.1.1c-.32,0-.63.07-.94.1l-1.64.21-.42,0h-.54a.78.78,0,0,0-.21,0,.34.34,0,0,0-.26.32h0l-1.17,0h0l1.19.14a.32.32,0,0,0,.22.22l.3.07.36,0,.68,0h.36l1.13,0h1.75c.28,0,.56,0,.83,0h1.08l1.9,0,1.74,0,.75,0h.86l1.94,0c1.23,0,2.46.07,3.68.13.42,0,.84,0,1.25.1l.1,0,.1,0a.57.57,0,0,0,.29,0,.31.31,0,0,0,.24-.23.32.32,0,0,0,0-.17.37.37,0,0,0-.05-.11l.77,0h.43a4.53,4.53,0,0,0,.53-.05h0a.23.23,0,0,0,.12,0s.05-.1.06-.14h0l0,.07h0l0,0h0l0,0h0c-.33,0-.66,0-1,0h-.91l-.16-.12a.89.89,0,0,0-.17-.08l-.13,0a4.4,4.4,0,0,0-.62-.18,12.6,12.6,0,0,0-1.35-.21l-1.18-.1-.72,0-1.11-.05h-.84Z" transform="translate(-16.39 -23.82)"/></svg>