<svg id="Layer_1" data-name="Layer 1" xmlns="http://www.w3.org/2000/svg" viewBox="0 0 271.99 162.43"><defs><style>.cls-1,.cls-5{fill:#161616;}.cls-1{opacity:0.25;}.cls-2{fill:#824b22;}.cls-3{fill:#6c8f00;}.cls-4{fill:#db5120;}.cls-6{fill:#fff;}</style></defs><path class="cls-1" d="M275.54,212q-19.21-.15-38.41-.26a5.36,5.36,0,0,0-1.79-.36c-1.38-.07-2.73-.14-4.12-.19-1.61-.05-3.24-.06-4.86-.07H226c-2.39,0-4.79,0-7.18,0l-6.79,0-13.72.08q-13.11.08-26.22.15l-27.4.14-12.91.05h-2.24q-12.44-.14-24.88-.23-14-.11-28-.18l-17.9-.1L45.93,211l-3.48,0c-1.57,0-3.13-.05-4.7-.08-1,0-2,0-3.08,0q-1.1,0-2.16.06a19.73,19.73,0,0,0-2.24.18,5.72,5.72,0,0,0-2.24.65l-1.59,0c-1,0-2.06,0-3.1,0s-1.85,0-2.78,0c-1.83,0-3.66.09-5.47.16q-1.78,0-3.54.06a14.17,14.17,0,0,0-1.78.11,3.53,3.53,0,0,0-1.63.53c-.19.17-.16.36.07.53a.39.39,0,0,0,0,.14c0,.35.55.68,1.53.93a14.91,14.91,0,0,0,3.67.4c1.79,0,3.58-.08,5.39-.09a.26.26,0,0,0-.14.21c0,.35,1.24.73,2.72.7,9.66-.17,19.37-.14,29.07-.14q8.63,0,17.26,0l3.28,0c3.15.05,6.3,0,9.44.05l19,.07c2.59,0,5.16,0,7.75,0l19.15-.1c17.37-.1,34.71-.3,52.07-.48l3.6,0,22.64.17,19.24.1c6.3,0,12.63,0,18.92,0a16.75,16.75,0,0,0,3.8-.38,4.27,4.27,0,0,0,1.19-.44h27.81c2.43,0,4.47-.48,4.47-1.11S278,212,275.54,212Z" transform="translate(-8.01 -53.02)"/><path class="cls-2" d="M208.17,66.2a4.75,4.75,0,0,0-1.52-1.63,8.79,8.79,0,0,0-4.3-1.33,11.18,11.18,0,0,0-2.58.08,2.35,2.35,0,0,0-1.56-1.26,8.56,8.56,0,0,0-1.33-.13h-.12l-.6,0-1,0c-.75,0-1.51.08-2.26.15q-2.72.29-5.38.82A22.12,22.12,0,0,0,183,64.4a2.48,2.48,0,0,0-4.07,1.91c0,.77,0,1.54,0,2.3A10.89,10.89,0,0,0,179,71.1a2.51,2.51,0,0,0,3.55,1.56,4.63,4.63,0,0,0,2.82-.13c.67-.14,1.34-.28,2-.4,1.25-.25,2.52-.46,3.78-.68s2.55-.46,3.83-.7a5.37,5.37,0,0,0,.45.35,8.82,8.82,0,0,0,1.29.59,6,6,0,0,0,1.53.25,3.88,3.88,0,0,0,.76,0l.1.06a6.28,6.28,0,0,0,2.81.79,8.62,8.62,0,0,0,1.9,0,10,10,0,0,0,1.37-.25,8.58,8.58,0,0,0,1.18-.48,3.82,3.82,0,0,0,1.3-1,3.86,3.86,0,0,0,.7-1.08c.08-.19.16-.39.25-.59a10.46,10.46,0,0,0,.12-1.11c0-.32-.07-.62-.12-.93A4.72,4.72,0,0,0,208.17,66.2Z" transform="translate(-8.01 -53.02)"/><path class="cls-2" d="M167.07,137.84c-.38-1.08-.76-2.16-1.12-3.25l-.42-1.32c0-.18-.08-.37-.13-.56a6.84,6.84,0,0,0-.88-2.23,2.66,2.66,0,0,0-1.76-1.2c-.64-1.74-1.34-3.46-2.06-5.17-.47-1.15-.92-2.3-1.29-3.48s-.73-2.34-1.16-3.5-.84-2.28-1.29-3.4-1.09-2.46-1.63-3.68a42.36,42.36,0,0,0-3.31-6.29c-1.28-1.9-2.52-3.85-3.9-5.68-.61-.8-1.2-1.61-1.79-2.43s-1.08-1.62-1.66-2.39c-.82-1.08-1.69-2.12-2.55-3.17s-1.59-1.93-2.44-2.86a31.2,31.2,0,0,0-2.78-2.61c-.87-.75-1.76-1.49-2.66-2.22s-2-1.55-2.92-2.39a27,27,0,0,0-3.26-2.59,24.63,24.63,0,0,0-11.33-3.88c-.26,0-.53,0-.79,0a21.54,21.54,0,0,0-3.31.29,32.65,32.65,0,0,0-7.17,2.06,28.57,28.57,0,0,0-6.82,3.77A77.6,77.6,0,0,0,87.21,91.12c-1.73,2-3.41,4.06-5.17,6s-3.37,3.73-5,5.69c-1.77,2.17-3.57,4.3-5.18,6.6-1.49,2.12-2.82,4.37-4.12,6.61-.67,1.14-1.31,2.3-1.91,3.48s-1.17,2.6-1.69,3.92c-.45,1.12-.84,2.28-1.24,3.42s-.89,2.43-1.32,3.64c-1.06,2.94-2.13,5.9-3,8.89a82.45,82.45,0,0,0-2.35,9.38,2.62,2.62,0,0,0,.25,1.92A2.49,2.49,0,0,0,58,151.85a2.53,2.53,0,0,0,1.31,0l.2.07c2.44.69,4.89,1.34,7.36,1.91,1.16.27,2.31.57,3.47.82,1.42.3,2.87.48,4.31.65,1.25.14,2.51.19,3.77.25s2.78.16,4.17.24c2.51.15,5,.36,7.52.53s5,.27,7.43.41q4,.24,8,.3c3.28,0,6.57-.08,9.85-.26a2.51,2.51,0,0,0,2.22,1.37c5.38-.06,10.77-.24,16.16-.13a62.61,62.61,0,0,0,16.27-1.41,36,36,0,0,0,6.71-2.53c1.11-.52,2.22-1.05,3.31-1.64.56-.3,1.11-.61,1.65-.95a1.88,1.88,0,0,1,.23-.16,30.76,30.76,0,0,0,4.44-1.65,3.24,3.24,0,0,0,1-.82,2.29,2.29,0,0,0,.91-1.33,10.12,10.12,0,0,0,.18-1.82,13.53,13.53,0,0,0-.33-4.15A37.81,37.81,0,0,0,167.07,137.84Zm-14.38,10.29.19,0Zm7.25-1.67,0,0q.21-.58.36-1.17C160.18,145.71,160.07,146.09,159.94,146.46Z" transform="translate(-8.01 -53.02)"/><path class="cls-2" d="M259.33,117c-.11-.46-.22-.91-.36-1.37a15,15,0,0,0-.77-1.85,7.36,7.36,0,0,0-4.86-4.26,6.44,6.44,0,0,0-1.45-.16,8.29,8.29,0,0,0-2.82.53,8.86,8.86,0,0,0-2.06,1,8.66,8.66,0,0,0-2,2.1,6.63,6.63,0,0,0-.92,2.31,7.87,7.87,0,0,0-.16,2.78,10.31,10.31,0,0,0,1.93,4.79,12.39,12.39,0,0,0,3.56,3.32,9.26,9.26,0,0,0,1.23.59,4.65,4.65,0,0,0,1.25.28,3.56,3.56,0,0,0,2.5-.65,2.48,2.48,0,0,0,4.6.87,5.7,5.7,0,0,0,.7-2.24,21.17,21.17,0,0,0,.2-2.24c0-.75,0-1.48,0-2.23A19.28,19.28,0,0,0,259.33,117Z" transform="translate(-8.01 -53.02)"/><path class="cls-2" d="M262.88,186.63c-.33-1.64-.61-3.28-.95-4.92-.18-.84-.34-1.7-.58-2.53-.08-.28-.16-.58-.24-.88a2.37,2.37,0,0,0,.7-1.74,41,41,0,0,0-.77-4.24c-.26-1.25-.53-2.51-.79-3.76-.45-2.14-.86-4.29-1.28-6.44-.89-4.57-1.84-9.12-2.5-13.73a22.18,22.18,0,0,1-.1-4.31l0-.26v0a2.5,2.5,0,0,0-.3-1.37c.16-.6.33-1.18.53-1.77a2.46,2.46,0,0,0,1.08-1,2.67,2.67,0,0,0,.25-1.92,3.23,3.23,0,0,0-.39-1.13,2.62,2.62,0,0,0-2.23-1.32h-.1c-2,.09-2.76,2.12-3.31,3.76a29.68,29.68,0,0,0-1,3.46c-.25,1.17-.43,2.35-.62,3.54s-.47,2.67-.72,4c-.49,2.49-1.06,5-1.59,7.43-.27,1.2-.49,2.41-.7,3.63a2.49,2.49,0,0,0-2.3,1.82,26.43,26.43,0,0,0-.46,2.94c-.07.64-.15,1.28-.23,1.93s-.1,1.4-.16,2.09c0,.46-.07.91-.08,1.36s0,1.17,0,1.75l-.18,1.41c-.37,2.48-.79,4.95-1.28,7.41-.2,1-.37,2-.63,2.94-.3,1.12-.67,2.23-1,3.34-.13.37-.26.74-.38,1.12a3.16,3.16,0,0,0-.17,1.14,3.11,3.11,0,0,0,.41,1.45,4.14,4.14,0,0,0,1.3,1.3,7.44,7.44,0,0,0,2.27.73l1.45.16c.63.07,1.26.11,1.89.13,1.47,0,2.94,0,4.41,0h3.38a47.21,47.21,0,0,1,4.91.27,2.84,2.84,0,0,0,2.86-1.37c.66-1.13.36-2.53.16-3.73C263.25,188.44,263.06,187.53,262.88,186.63Zm-12,2.55.09-.07,0,.07Z" transform="translate(-8.01 -53.02)"/><path class="cls-3" d="M149.28,96.92l-.14-.3a17.5,17.5,0,0,0-1.8-3.19A51.39,51.39,0,0,0,142,87.34c-.79-.8-1.64-1.57-2.45-2.31l-.25-.23c-.47-.42-.92-.85-1.37-1.28l-1.54-1.44A27.41,27.41,0,0,0,133,79.53l-.8-.53c-.71-.47-1.41-.94-2.13-1.38-1.11-.7-2.29-1.33-3.3-1.86A25.51,25.51,0,0,0,122.71,74a24,24,0,0,0-7.26-1.17l-.89,0a35.89,35.89,0,0,0-7.67,1.42,23.87,23.87,0,0,0-7.29,3,41.46,41.46,0,0,0-6.3,5.45c-1.61,1.64-3.5,3.61-5.25,5.78A76.88,76.88,0,0,0,83.21,95c-.53.81-1,1.64-1.54,2.48a50.57,50.57,0,0,1-2.76,4.25c-.4.51-.78,1-1.15,1.54a4.62,4.62,0,0,0-.87,1.81,3.25,3.25,0,0,0,0,1.52,4.58,4.58,0,0,0,.33.87l.07.14a3.92,3.92,0,0,0,.66.91l.2.24.15.18c.4.45.8.91,1.19,1.38l.18.22a66.81,66.81,0,0,0,4.45,5.14c.27.27.53.53.79.81.64.67,1.32,1.36,2,2,1.36,1.16,2.41,2,3.43,2.73,1.68,1.18,3.49,2.21,5.24,3.2l1.53.86a66.85,66.85,0,0,1,6.78,4.49c1,.84,2.06,1.72,3.07,2.6,1.4,1.23,2.85,2.51,4.38,3.62l.14.15v0a2.31,2.31,0,0,0,1.09.77,2.45,2.45,0,0,0,2.35,3.28,2.36,2.36,0,0,0,2.16-1.23,71.11,71.11,0,0,1,4.56-7.86c.56-.83,1.16-1.62,1.77-2.42l1-1.29q1.22-1.66,2.46-3.3c2.59-3.25,5.52-6.28,8.36-9.22l1-1a93.62,93.62,0,0,1,8.38-8c.85-.64,1.75-1.23,2.53-1.74l.2-.12c.35-.23.69-.45,1-.69s.57-.4.82-.61a3.3,3.3,0,0,0,.92-1.41,3.78,3.78,0,0,0-.1-2.48A13.83,13.83,0,0,0,149.28,96.92Z" transform="translate(-8.01 -53.02)"/><path class="cls-3" d="M263,191h0c-.14-1.27-.23-2.55-.31-3.83l0-.28-.15-2.31c0-.31-.05-.63-.08-.94l0-.34c0-.27-.06-.56-.1-.84a5.83,5.83,0,0,0-.16-1l-.37-.87a2.15,2.15,0,0,0-1.31-1.09c-.09-1.69-.2-3.4-.32-5.11-.15-2.13-.39-4.47-.72-7.14l-.16-1.33c-.13-1.09-.25-2.17-.43-3.25-.21-1.33-.43-2.67-.64-4l0-.29a10.5,10.5,0,0,0-.33-2.07,4,4,0,0,0-.52-1.09,2.59,2.59,0,0,0-.79-.82c-.16-2.1-.28-4.21-.39-6.33l0-.57c0-.57-.06-1.14-.11-1.7a2.54,2.54,0,0,0-.26-1.1l.3-1.42c.26-1.27.52-2.54.79-3.81l.13-.61.13-.61a2.56,2.56,0,0,0-1.75-3.08,2.61,2.61,0,0,0-.64-.08,2.48,2.48,0,0,0-2.45,1.83q-.61,2.88-1.18,5.75c-.69,3.41-1.41,6.93-2.22,10.37-.68,2.82-1.2,5.41-1.59,7.93q-.39,2.67-.77,5.35l-.13.9c-.87,2.57-1.52,5.27-2.15,7.87l-.25,1c-.31,1.27-.6,2.54-.88,3.82-.43,1.67-.78,3.08-1,4.53a17,17,0,0,1-.56,1.7c-.26.58-.51,1.15-.75,1.74a4.35,4.35,0,0,0-.45,2.92c.71,2.62,3.87,2.68,6.17,2.72h.26l3.94.05h.47l1.4,0,.76,0a3.53,3.53,0,0,0,.81.78,3.91,3.91,0,0,0,2.29.62,14.29,14.29,0,0,0,1.85-.17,6.75,6.75,0,0,0,1.93-.5,2.12,2.12,0,0,0,.44.05,1.85,1.85,0,0,0,.67-.12,2.52,2.52,0,0,0,1.77-3.08Z" transform="translate(-8.01 -53.02)"/><path class="cls-4" d="M256,112.61a3.9,3.9,0,0,0-1.57-1.76,7.17,7.17,0,0,0-3.36-.87H251a6.2,6.2,0,0,0-1.53.24,5,5,0,0,0-1.91,1,6.19,6.19,0,0,0-1.79,2.7,13.28,13.28,0,0,0-.78,2.68c-.35,1.93-.61,5.49,1.59,7.66a3.57,3.57,0,0,0,2.38,1.19,3,3,0,0,0,2.53-1.56c.44-.67.87-1.33,1.34-2,1.44-1.81,3-3.54,4.48-5.13a2.54,2.54,0,0,0,0-3.54A2.42,2.42,0,0,0,256,112.61Z" transform="translate(-8.01 -53.02)"/><path class="cls-5" d="M168.7,138.16c-.15-.76-.3-1.51-.5-2.26s-.47-1.4-.71-2.1c-.51-1.46-1-2.93-1.53-4.38-1.07-2.89-2.34-5.71-3.68-8.48s-2.58-5.68-3.94-8.49c-.69-1.41-1.4-2.8-2.17-4.18s-1.46-2.47-2.2-3.7-1.67-2.71-2.54-4-1.69-2.53-2.56-3.77-1.8-2.5-2.73-3.73-1.91-2.52-3-3.7a89.44,89.44,0,0,0-6.35-6.42c-.55-.51-1.13-1-1.71-1.46s-1.26-1-1.91-1.45a33.64,33.64,0,0,0-3.82-2.3,47.49,47.49,0,0,0-4.38-2c-.74-.28-1.47-.57-2.21-.81a23.3,23.3,0,0,0-2.26-.67L119.35,74c-.4-.08-.81-.11-1.22-.17-.83-.11-1.67-.17-2.51-.21-.53,0-1.05,0-1.58,0a20.86,20.86,0,0,0-3.26.24,33.93,33.93,0,0,0-4.32.93,36,36,0,0,0-4.6,1.65c-.73.34-1.46.68-2.18,1s-1.43.79-2.13,1.2c-.25.15-.5.32-.74.48s-.62.39-.91.61c-.67.5-1.36,1-2,1.54S92.62,82.38,92,82.94s-1.18,1.13-1.76,1.71-1,1.17-1.58,1.75-1,1.26-1.53,1.89c-.95,1.17-1.87,2.39-2.81,3.58s-1.92,2.42-2.87,3.63S79.51,98,78.6,99.29s-1.7,2.47-2.52,3.73-1.74,2.64-2.58,4-1.62,2.71-2.38,4.09c-1.49,2.73-3,5.46-4.42,8.22-1.19,2.31-2.29,4.65-3.34,7-.56,1.27-1,2.57-1.53,3.86s-.91,2.31-1.38,3.46c-1.15,2.69-2.31,5.37-3.25,8.15-.48,1.42-1,2.84-1.42,4.27s-.89,2.89-1.38,4.31a1.43,1.43,0,0,0,2.75.76c.37-1.07.68-2.16,1-3.24s.71-2.17,1.07-3.25.71-2.15,1.09-3.22.8-2.15,1.24-3.21l0,.06c.76-1.81,1.54-3.6,2.28-5.41s1.35-3.5,2-5.24c1.2-2.71,2.47-5.39,3.87-8l2.31-4.32c.69-1.27,1.36-2.55,2.08-3.8s1.46-2.49,2.22-3.72,1.48-2.28,2.22-3.41,1.37-2.07,2.08-3.09,1.55-2.14,2.35-3.2c1.94-2.47,3.9-4.93,5.83-7.41A42.9,42.9,0,0,1,95,84.1l1.18-1c.44-.34.87-.69,1.33-1,.62-.41,1.23-.82,1.88-1.2s1.33-.76,2-1.11,1.21-.59,1.83-.88,1.17-.48,1.77-.68c.78-.28,1.55-.52,2.33-.76a33.85,33.85,0,0,1,4.09-.88c.4,0,.81-.09,1.21-.11.6,0,1.19,0,1.79,0,1.08,0,2.17.08,3.25.17l-.21,0,.26,0h-.05c.61.09,1.21.19,1.81.31a15.19,15.19,0,0,1,1.9.51c1.33.42,2.62.92,3.91,1.44s2.5,1.14,3.71,1.8A33.35,33.35,0,0,1,132.47,83c1,.77,1.93,1.56,2.84,2.41s1.87,1.79,2.78,2.7a62,62,0,0,1,5.06,5.68c.87,1.14,1.75,2.29,2.58,3.46s1.74,2.5,2.59,3.76q2.52,3.8,4.81,7.74a86.83,86.83,0,0,1,4.13,8.1c.68,1.5,1.35,3,2.05,4.5.64,1.35,1.32,2.69,1.93,4.06.21.46.41.94.62,1.41.57,1.39,1.13,2.79,1.65,4.2s.93,2.72,1.41,4.07a18.78,18.78,0,0,1,.68,2.17c.17.71.31,1.44.45,2.16.27,1.45.53,2.9.73,4.36s.26,2.73.36,4.11a1.45,1.45,0,0,0,1.42,1.42,1.42,1.42,0,0,0,1.42-1.42c-.11-1.76-.27-3.51-.51-5.26C169.27,141.1,169,139.63,168.7,138.16ZM65.79,127.83l0-.09Zm96.1-1,.08.18Z" transform="translate(-8.01 -53.02)"/><path class="cls-5" d="M117.42,76.6l.21,0h.05Z" transform="translate(-8.01 -53.02)"/><path class="cls-5" d="M181.57,53.08a1.21,1.21,0,0,0-.38-.06,1.48,1.48,0,0,0-.71.19,1.58,1.58,0,0,0-.66.86,35.88,35.88,0,0,0-1.35,4.19c-.18.76-.32,1.53-.43,2.3a23.23,23.23,0,0,0-.2,2.48c0,.72,0,1.44,0,2.16s0,1.64.07,2.46c0,1.53.08,3.07.12,4.61q.13,4.64.23,9.27c.06,3.08.22,6.16.44,9.23s.57,5.93.75,8.9.22,6.07.15,9.1c0,1.13,0,2.27-.11,3.4,0,.56-.09,1.13-.13,1.69s-.1.94-.17,1.41c-.24,1.44-.48,2.87-.81,4.29s-.7,3-1.07,4.56c-.75,3.08-1.54,6.14-2.41,9.19-.49,1.72-1.09,3.4-1.73,5.07a20.68,20.68,0,0,1-1.13,2.32c-.48.82-1,1.61-1.58,2.39a50.77,50.77,0,0,1-3.6,4,1.42,1.42,0,1,0,2,2,43.51,43.51,0,0,0,3.11-3.4,22.83,22.83,0,0,0,2.68-3.87,33.49,33.49,0,0,0,1.92-4.49c.54-1.56,1-3.14,1.48-4.73.82-2.9,1.54-5.83,2.24-8.76.36-1.48.71-3,1-4.44.16-.8.32-1.6.46-2.4s.27-1.83.38-2.74c.17-1.44.23-2.89.26-4.34s.07-3,.06-4.57,0-3-.11-4.45-.22-3.17-.36-4.75c-.25-3-.55-6-.7-9s-.21-6.26-.28-9.38c-.07-2.85-.15-5.71-.24-8.56,0-1.35-.07-2.72-.1-4.07,0-.71,0-1.41,0-2.12s.06-1.28.12-1.92a30.37,30.37,0,0,1,.66-3.09c.29-1.08.7-2.15,1.1-3.21A1.42,1.42,0,0,0,181.57,53.08Zm-11,89.93.07-.08Z" transform="translate(-8.01 -53.02)"/><path class="cls-5" d="M210,64.78a5.7,5.7,0,0,0-.84-.79,15.4,15.4,0,0,0-1.93-1.38,13.73,13.73,0,0,0-2.21-1A10.43,10.43,0,0,0,202.6,61a24.13,24.13,0,0,0-2.94-.15h-1.39c-1.52,0-3,.12-4.55.21l-4.43.27-5.15.34a25.74,25.74,0,0,0-2.75.32,20.81,20.81,0,0,0-2.67.66,1.42,1.42,0,0,0,.76,2.74,28.3,28.3,0,0,1,3.25-.75c1.4-.16,2.82-.21,4.23-.3s3-.21,4.58-.3c3-.17,6-.42,9-.35.62,0,1.24,0,1.85.11.33.06.66.13,1,.21s.73.24,1.08.37,1,.43,1.42.68a10.8,10.8,0,0,1,1.2.79A11,11,0,0,1,208.18,67a6,6,0,0,1,.33.54c.05.16.1.33.14.49a.66.66,0,0,1,0,.14,4.43,4.43,0,0,1-.13.49,7.23,7.23,0,0,1-.51.84,5.82,5.82,0,0,1-.74.75,9.55,9.55,0,0,1-1.49.85,11.45,11.45,0,0,1-1.91.51,7.28,7.28,0,0,1-1.32,0,8.58,8.58,0,0,1-1.41-.36,12.46,12.46,0,0,1-2-1.22,10.83,10.83,0,0,1-1.54-1.41l0,0A1.43,1.43,0,1,0,195,70a8.73,8.73,0,0,0,1.59,1.68,19,19,0,0,0,2,1.47,8.78,8.78,0,0,0,3,1.17,7.64,7.64,0,0,0,2.86,0c.38-.07.76-.15,1.13-.24a11.21,11.21,0,0,0,1.62-.6,8,8,0,0,0,2.63-1.86,6.5,6.5,0,0,0,1.47-2.56,4.28,4.28,0,0,0-.42-3.11A6.55,6.55,0,0,0,210,64.78Zm-3,1.11.22.16Z" transform="translate(-8.01 -53.02)"/><path class="cls-5" d="M198.11,69.89H198c-2.94.38-5.9.53-8.84.86-1.51.18-3,.37-4.51.67-1.28.25-2.55.59-3.83.9a1.42,1.42,0,0,0,.77,2.74c2-.5,4-1,6.07-1.28,1.64-.21,3.28-.39,4.92-.52,1.81-.15,3.62-.29,5.42-.52a1.51,1.51,0,0,0,1-.42,1.4,1.4,0,0,0,.42-1,1.42,1.42,0,0,0-.42-1A1.39,1.39,0,0,0,198.11,69.89Z" transform="translate(-8.01 -53.02)"/><path class="cls-6" d="M185.69,66.17a1.43,1.43,0,1,0,1.42,1.42A1.43,1.43,0,0,0,185.69,66.17Z" transform="translate(-8.01 -53.02)"/><path class="cls-5" d="M168.33,146.5a1.34,1.34,0,0,0-1,.42,3.83,3.83,0,0,1-.29.28,19.94,19.94,0,0,1-3.76,2c-1.32.55-2.69,1-4,1.49s-2.84,1-4.27,1.53a63,63,0,0,1-8.57,2.09c-1.92.35-3.84.69-5.77,1a79.07,79.07,0,0,1-9,.39c-3.07,0-6.14,0-9.21.14-1.49.07-3,.2-4.45.29s-3.26.16-4.9.23c-3,.11-5.95.07-8.93.07H94.89c-1.5,0-3,0-4.5,0s-3.08-.15-4.61-.32-3.25-.36-4.87-.57-3-.46-4.42-.76-2.88-.73-4.31-1.09c-2.93-.74-5.87-1.42-8.82-2.07-1.17-.26-2.33-.55-3.49-.86s-2.45-.79-3.66-1.23a1.42,1.42,0,0,0-1.75,1,1.46,1.46,0,0,0,.14,1.1,1.5,1.5,0,0,0,.85.65c1.43.52,2.85,1,4.32,1.41s3,.71,4.45,1q4.35,1,8.66,2.09c1.47.38,2.93.75,4.41,1s3.12.51,4.69.69a85.43,85.43,0,0,0,9.18.77c3.07,0,6.13,0,9.19,0s6.15,0,9.23,0,6.23-.14,9.33-.36,6-.39,9-.39h2.29c2.36,0,4.71,0,7.07-.1a69.76,69.76,0,0,0,9.1-1.21,72.44,72.44,0,0,0,8.8-2.06c1.42-.45,2.82-1,4.23-1.49s2.68-.93,4-1.45a30.81,30.81,0,0,0,3.16-1.42c.45-.23.9-.48,1.33-.75l.51-.34a4.71,4.71,0,0,0,.91-.76,1.58,1.58,0,0,0,.42-1,1.4,1.4,0,0,0-.42-1A1.42,1.42,0,0,0,168.33,146.5Z" transform="translate(-8.01 -53.02)"/><path class="cls-5" d="M150.1,100.65a1.7,1.7,0,0,0-.41-.05,1.23,1.23,0,0,0-.69.19,71.54,71.54,0,0,0-7.19,5.92c-2.18,2.13-4.3,4.34-6.43,6.52-1,1.07-2,2.17-3,3.27s-2,2.25-3,3.41-2,2.47-2.95,3.75-1.79,2.45-2.71,3.66l-2,2.58-3.27,4.2c-.47.59-.93,1.19-1.42,1.76a21.78,21.78,0,0,1-1.76,2c-1-.8-1.84-1.73-2.76-2.58A41.3,41.3,0,0,0,109,132.3c-2.4-1.74-4.92-3.3-7.33-5s-4.78-3.44-7.13-5.22a86.8,86.8,0,0,1-6.92-5.78,78.39,78.39,0,0,1-6-6.77q-2-2.36-4-4.7a1.42,1.42,0,0,0-2.43,1,1.52,1.52,0,0,0,.41,1q1.77,2.09,3.53,4.2c.94,1.11,1.86,2.25,2.79,3.36.52.61,1,1.21,1.56,1.8s1.06,1.15,1.61,1.71C86.23,119,87.43,120,88.63,121s2.35,1.89,3.54,2.82,2.53,1.94,3.82,2.88c2.52,1.84,5.06,3.67,7.66,5.4,1.52,1,3,2,4.49,3.12,1.11.9,2.18,1.85,3.21,2.83.49.46,1,.92,1.45,1.37a6.42,6.42,0,0,0,2,1.41,1.79,1.79,0,0,0,.89,0,4.49,4.49,0,0,0,.77-.36,5.17,5.17,0,0,0,1-.87c.26-.27.53-.55.77-.83.54-.64,1.08-1.28,1.6-1.94q1.38-1.72,2.71-3.45c1.27-1.64,2.54-3.27,3.77-4.92s2.28-3.1,3.45-4.63c1.85-2.34,3.83-4.59,5.86-6.77s4.15-4.31,6.25-6.44c1-1,2.08-2.11,3.17-3.1s2.13-1.83,3.25-2.69l2.1-1.59a1.5,1.5,0,0,0,.65-.85,1.46,1.46,0,0,0-.14-1.1A1.5,1.5,0,0,0,150.1,100.65Zm-20.25,23.13.12-.15Z" transform="translate(-8.01 -53.02)"/><path class="cls-5" d="M224.29,152.53v0h0Z" transform="translate(-8.01 -53.02)"/><path class="cls-5" d="M238.39,166.73q-1.56-1.48-3.23-2.87C234,162.94,233,162,231.88,161s-2.23-2.18-3.29-3.34-2.07-2.36-3.06-3.58c-.42-.51-.83-1-1.24-1.57v0h0c-.88-1.13-1.76-2.28-2.59-3.45s-1.69-2.53-2.5-3.83c-1.6-2.58-3.13-5.21-4.61-7.86s-2.92-5.32-4.25-8.05-2.67-5.65-4-8.5c-.89-2-1.77-4-2.62-6-1.19-2.88-2.28-5.8-3.4-8.7s-2.26-5.82-3.5-8.69c-.6-1.39-1.2-2.78-1.88-4.12a37.41,37.41,0,0,0-2.39-4,23.13,23.13,0,0,0-1.47-2c-.51-.6-1-1.19-1.57-1.75s-1.14-1.09-1.75-1.61a13.83,13.83,0,0,0-1.92-1.36,17.8,17.8,0,0,0-2.63-1.29,10.9,10.9,0,0,0-3.87-.74,8.83,8.83,0,0,0-.89,0,12.09,12.09,0,0,0-2.8.56,10.35,10.35,0,0,0-3.33,2.09,1.42,1.42,0,0,0,1,2.43,1.54,1.54,0,0,0,1-.41l.55-.47a9.86,9.86,0,0,1,1.43-.86,8.73,8.73,0,0,1,1.74-.45,11.35,11.35,0,0,1,2.33,0,10.57,10.57,0,0,1,2,.55,18.13,18.13,0,0,1,1.71.85c.58.34,1.13.72,1.67,1.11.71.61,1.38,1.24,2,1.91a22.84,22.84,0,0,1,1.73,2c.59.8,1.13,1.63,1.66,2.47s1,1.79,1.47,2.7c.85,1.68,1.56,3.42,2.29,5.15l0-.07c2.41,5.77,4.4,11.7,6.91,17.42q1.88,4.27,3.82,8.51c1.27,2.76,2.58,5.5,4,8.19s2.93,5.45,4.49,8.11c.77,1.31,1.54,2.62,2.35,3.91s1.59,2.58,2.47,3.82c1.87,2.65,3.88,5.22,6,7.7a61.38,61.38,0,0,0,6.33,6.47c.88.78,1.81,1.51,2.69,2.27l1.34,1.16.55.52c.12.1.22.21.33.31a5.72,5.72,0,0,0,.53.45,3.49,3.49,0,0,0,.75.37,1.44,1.44,0,0,0,1.75-1,1.41,1.41,0,0,0-.15-1.1A1.43,1.43,0,0,0,238.39,166.73ZM178.22,83.51l.18,0ZM195,100.34c0,.08.07.16.1.23S195.06,100.42,195,100.34Z" transform="translate(-8.01 -53.02)"/><path class="cls-5" d="M262.19,188.9V189c0,.11,0,.21.05.32C262.22,189.16,262.21,189,262.19,188.9Z" transform="translate(-8.01 -53.02)"/><path class="cls-5" d="M263.21,177.68c-.49-2.41-1-4.81-1.44-7.24-.41-2.28-.76-4.56-1.07-6.86-.23-1.76-.48-3.52-.72-5.29s-.45-3.39-.69-5.09c-.37-3-.64-6-.81-9s-.15-5.94-.15-8.91a45.88,45.88,0,0,1,.19-5,.84.84,0,0,1,.05-.17,1.36,1.36,0,0,0-.1-1,1.52,1.52,0,0,0-.71-1.12,1.36,1.36,0,0,0-.71-.2,1.21,1.21,0,0,0-.38.06,1.46,1.46,0,0,0-.85.65,24.65,24.65,0,0,0-2.33,4c-.67,1.53-1.31,3.07-1.9,4.63s-1,2.87-1.53,4.29-1,2.82-1.49,4.25-.93,2.93-1.36,4.4-.83,3-1.14,4.58c-.6,3-1.14,5.91-1.7,8.86s-1.06,6.1-1.67,9.13-1.23,6.08-2,9.09c-.38,1.5-.78,3-1.23,4.46s-.94,2.74-1.41,4.1a12.14,12.14,0,0,0-.53,1.82,1.63,1.63,0,0,0,0,.85l0,.1a1.44,1.44,0,0,0,.37.63,2.9,2.9,0,0,0,1.21.71c.33.14.68.25,1,.36a22.1,22.1,0,0,0,4.62,1c1.46.15,2.93.21,4.41.24s3.06.1,4.58.22,3,.31,4.54.42a37.32,37.32,0,0,0,4.09.12,7.4,7.4,0,0,0,.93-.12,1.78,1.78,0,0,0,.61-.28,2.11,2.11,0,0,0,.65-.71l.09-.19a3,3,0,0,0,.2-.54c.06-.19.09-.38.13-.57s.06-.41.09-.62a12.15,12.15,0,0,0,.14-2.41,47.72,47.72,0,0,0-.56-4.77C264.21,183.61,263.8,180.63,263.21,177.68Zm-4.71-47.26s0,0,0,.06S258.5,130.44,258.5,130.42Zm3.83,62.91c0,.2-.07.41-.12.62-.51,0-1,0-1.55,0l-2.12-.1c-1.49-.09-3-.27-4.44-.41s-3-.19-4.47-.23-2.9,0-4.34-.2l-.6-.07a23.76,23.76,0,0,1-4.16-1c.09-.28.19-.56.29-.84.22-.65.45-1.3.68-1.94.5-1.45,1-2.89,1.36-4.36s.8-3,1.14-4.56.66-3.05,1-4.58.61-2.89.88-4.34.52-3,.8-4.52c.55-3,1.13-6.06,1.71-9.08.29-1.52.57-3.05.95-4.55s.82-2.93,1.27-4.38c.91-2.95,2-5.85,3-8.75.59-1.65,1.19-3.28,1.87-4.89l0-.08c0,1.12,0,2.25,0,3.38,0,1.47,0,3,.08,4.43s.18,3.08.3,4.62.23,2.93.41,4.38.42,3.19.64,4.77l0-.18c.24,1.81.48,3.6.74,5.41,0,0,0-.09,0-.13.4,3.07.83,6.14,1.37,9.2s1.25,6.1,1.8,9.16c.27,1.51.5,3,.74,4.51s.46,2.89.67,4.34v-.06c0,.13,0,.26.05.38,0-.11,0-.21-.05-.32.1.77.18,1.54.22,2.31A14.25,14.25,0,0,1,262.33,193.33Z" transform="translate(-8.01 -53.02)"/><path class="cls-5" d="M260.22,117.73a1.47,1.47,0,0,0-1.37-1,1.31,1.31,0,0,0-.38.06,1.44,1.44,0,0,0-1,1.75,23.19,23.19,0,0,1,.89,3.7,14.18,14.18,0,0,1,.08,3.19,7,7,0,0,1-.22.9c-.07.12-.13.23-.21.35l-.28.27-.14.07a3.79,3.79,0,0,1-.48.14,6.15,6.15,0,0,1-1,0,10,10,0,0,1-1.71-.46c-.26-.12-.51-.24-.75-.38a6.93,6.93,0,0,1-.72-.48c-.4-.34-.8-.69-1.18-1a1.42,1.42,0,0,0-2,2,18.17,18.17,0,0,0,1.7,1.46,10.26,10.26,0,0,0,2.55,1.31,8.29,8.29,0,0,0,2.41.46,5.14,5.14,0,0,0,2.64-.56,3.8,3.8,0,0,0,1-.86,4.79,4.79,0,0,0,.85-1.47,5.42,5.42,0,0,0,.26-1.11,8.81,8.81,0,0,0,.12-1.26c0-.34,0-.68,0-1a18,18,0,0,0-.25-2.29A21,21,0,0,0,260.22,117.73Z" transform="translate(-8.01 -53.02)"/><path class="cls-5" d="M258.54,112.23a9,9,0,0,0-.7-.81c-.3-.3-.6-.58-.92-.85a10.92,10.92,0,0,0-2.24-1.49,9.27,9.27,0,0,0-3.59-1l-.39,0a6.83,6.83,0,0,0-2.71.61,9.84,9.84,0,0,0-2.6,1.78A10,10,0,0,0,243,114c-.16.4-.3.79-.44,1.2a12.14,12.14,0,0,0-.44,2.14,7.91,7.91,0,0,0,.08,2.33,8.9,8.9,0,0,0,.43,1.53,17.61,17.61,0,0,0,.71,1.74,21.73,21.73,0,0,0,1.71,2.87c.6.89,1.21,1.78,1.86,2.62a1.35,1.35,0,0,0,1,.42,1.4,1.4,0,0,0,1-.42,1.45,1.45,0,0,0,.19-.23,1.5,1.5,0,0,0,1.38-.69c.72-1.09,1.47-2.14,2.24-3.18s1.72-2.14,2.62-3.18c.51-.58,1-1.14,1.61-1.69s1-.93,1.54-1.4c.12-.11.23-.24.34-.36a6.75,6.75,0,0,0,.47-.59,3,3,0,0,0,.33-.78,3,3,0,0,0,.14-1.2,4.76,4.76,0,0,0-.48-1.76A5.17,5.17,0,0,0,258.54,112.23Zm-2,2-.1-.12Zm.2,1.6a.76.76,0,0,0,.08-.11A.76.76,0,0,1,256.73,115.84Zm.13-.19h0c-.69.77-1.52,1.39-2.24,2.12s-1.51,1.6-2.21,2.44a67,67,0,0,0-4.08,5.4L247.24,124a18.83,18.83,0,0,1-1.64-2.94,12.88,12.88,0,0,1-.67-2.19,7.89,7.89,0,0,1,0-1.61,11.35,11.35,0,0,1,.67-2.29,9.85,9.85,0,0,1,.92-1.61A10.81,10.81,0,0,1,248,112a8,8,0,0,1,1.25-.75,5.47,5.47,0,0,1,1-.27,6.43,6.43,0,0,1,1.24,0,7.84,7.84,0,0,1,1.51.41,11,11,0,0,1,1.84,1.09,12.85,12.85,0,0,1,1.57,1.56,5.62,5.62,0,0,1,.45.74c0,.13.07.24.1.37a1.22,1.22,0,0,1,0,.27A1.41,1.41,0,0,1,256.86,115.65Z" transform="translate(-8.01 -53.02)"/><path class="cls-5" d="M264.36,136.34c-.19-.45-.36-.91-.59-1.34a8.69,8.69,0,0,0-1.17-1.54,1.88,1.88,0,0,1-.12-.18s0-.05,0-.08c0-.23,0-.47,0-.7,0-.41-.07-.82-.12-1.24a5,5,0,0,0-.24-1.07,3.7,3.7,0,0,0-.65-1.08,11.46,11.46,0,0,0-1.73-1.68,1.51,1.51,0,0,0-1-.42,1.45,1.45,0,0,0-1,.42,1.42,1.42,0,0,0,0,2,12.54,12.54,0,0,1,1.59,1.5l.12.2a4.75,4.75,0,0,1,.14.63c.07.73,0,1.46.17,2.18a3.67,3.67,0,0,0,1,1.61c.15.17.3.34.44.52a6.74,6.74,0,0,1,.36.63A9.85,9.85,0,0,0,262,138a1.43,1.43,0,0,0,2.46-1.44A1,1,0,0,1,264.36,136.34Z" transform="translate(-8.01 -53.02)"/><path class="cls-5" d="M84.61,103.68A1.42,1.42,0,1,0,86,105.1,1.43,1.43,0,0,0,84.61,103.68Z" transform="translate(-8.01 -53.02)"/><circle class="cls-5" cx="83.11" cy="43.26" r="1.42"/><circle class="cls-5" cx="85.45" cy="54.46" r="1.42"/><path class="cls-5" d="M101.77,104a1.42,1.42,0,1,0,1.43,1.42A1.43,1.43,0,0,0,101.77,104Z" transform="translate(-8.01 -53.02)"/><circle class="cls-5" cx="90.69" cy="45.99" r="1.42"/><path class="cls-5" d="M101.24,88.09a1.42,1.42,0,1,0,1.43,1.42A1.43,1.43,0,0,0,101.24,88.09Z" transform="translate(-8.01 -53.02)"/><circle class="cls-5" cx="102.25" cy="40.03" r="1.42"/><circle class="cls-5" cx="103.52" cy="51.36" r="1.42"/><path class="cls-5" d="M109.55,84.48A1.43,1.43,0,1,0,111,85.91,1.43,1.43,0,0,0,109.55,84.48Z" transform="translate(-8.01 -53.02)"/><circle class="cls-5" cx="110.38" cy="30.13" r="1.42"/><circle class="cls-5" cx="110.67" cy="42.49" r="1.42"/><circle class="cls-5" cx="116.86" cy="36.62" r="1.42"/><path class="cls-5" d="M132.76,90.43a1.42,1.42,0,1,0,1.42,1.42A1.43,1.43,0,0,0,132.76,90.43Z" transform="translate(-8.01 -53.02)"/><circle class="cls-5" cx="120.98" cy="47.46" r="1.42"/><path class="cls-5" d="M122.16,105.35a1.51,1.51,0,0,0-.74-.2,1,1,0,0,0-.35.06l-.32.12a1.53,1.53,0,0,0-.86.66,1.48,1.48,0,0,0-.14,1.09,1.44,1.44,0,0,0,.66.85,1.35,1.35,0,0,0,1.09.15l.32-.12a1.52,1.52,0,0,0,.85-.66,1.41,1.41,0,0,0-.51-2Z" transform="translate(-8.01 -53.02)"/><path class="cls-5" d="M126.55,112.55A1.43,1.43,0,1,0,128,114,1.43,1.43,0,0,0,126.55,112.55Z" transform="translate(-8.01 -53.02)"/><circle class="cls-5" cx="130.43" cy="48.7" r="1.42"/><circle class="cls-5" cx="102.82" cy="62.95" r="1.42"/><circle class="cls-5" cx="92.24" cy="62.49" r="1.42"/><circle class="cls-5" cx="85.04" cy="61.93" r="1.42"/><path class="cls-5" d="M108.33,124.13a1.34,1.34,0,0,0-1,.41,2.48,2.48,0,0,0-.36.44,2.16,2.16,0,0,0-.26.93,1.43,1.43,0,0,0,1.43,1.42,1.39,1.39,0,0,0,1.3-.89,1.42,1.42,0,0,0-1.12-2.31Z" transform="translate(-8.01 -53.02)"/><circle class="cls-5" cx="113.21" cy="67.11" r="1.42"/><circle class="cls-5" cx="109.9" cy="78.14" r="1.42"/><path class="cls-5" d="M81.24,110.39a1.44,1.44,0,0,0-1.95.51q-1.32,2.47-2.76,4.88l-1.26,2.15c-.45.78-.85,1.58-1.25,2.38a1.46,1.46,0,0,0,.51,2,1.44,1.44,0,0,0,2-.51c.39-.78.77-1.56,1.21-2.31l1.23-2.1c1-1.65,1.93-3.32,2.83-5A1.43,1.43,0,0,0,81.24,110.39Z" transform="translate(-8.01 -53.02)"/><path class="cls-5" d="M88.23,116.84a1.42,1.42,0,0,0-.72-.2,1.57,1.57,0,0,0-.37,0,1.4,1.4,0,0,0-.86.66c-1.41,3.35-2.75,6.73-4.14,10.09a1.37,1.37,0,0,0,.14,1.1,1.5,1.5,0,0,0,.85.65,1.46,1.46,0,0,0,1.1-.14,1.53,1.53,0,0,0,.65-.85c1.15-2.78,2.25-5.57,3.4-8.33a.61.61,0,0,1,0,.12c0-.08.07-.15.1-.23a.54.54,0,0,1,0-.11l0,.06c.13-.31.26-.61.39-.93a1.53,1.53,0,0,0,.15-1.09A1.44,1.44,0,0,0,88.23,116.84Z" transform="translate(-8.01 -53.02)"/><path class="cls-5" d="M88.28,119.87a1.11,1.11,0,0,0,.07-.16l0,.05Z" transform="translate(-8.01 -53.02)"/><path class="cls-5" d="M94.88,124.14a1.52,1.52,0,0,0-.72-.19,1.73,1.73,0,0,0-.38,0,1.42,1.42,0,0,0-.85.65c-.65,1.4-1.28,2.82-1.83,4.26-.47,1.26-.92,2.54-1.37,3.82a1.43,1.43,0,0,0,1,1.75,1.45,1.45,0,0,0,1.75-1c.52-1.51,1.07-3,1.63-4.5.42-1,.84-1.93,1.28-2.89a1.56,1.56,0,0,0,.15-1.1A1.47,1.47,0,0,0,94.88,124.14Zm-.9,5.14c0-.08.07-.17.11-.25C94.05,129.11,94,129.2,94,129.28Z" transform="translate(-8.01 -53.02)"/><path class="cls-5" d="M102.75,129.23a1.18,1.18,0,0,0-.37,0,1.45,1.45,0,0,0-1.38,1c-.43,1.49-.87,3-1.26,4.49s-.73,2.78-1.11,4.17a1.43,1.43,0,0,0,2.75.76c.37-1.36.72-2.73,1.08-4.09.4-1.53.85-3.05,1.29-4.57A1.44,1.44,0,0,0,102.75,129.23Z" transform="translate(-8.01 -53.02)"/><path class="cls-5" d="M110.22,132.63a1.49,1.49,0,0,0-.36,0,1.41,1.41,0,0,0-1.39,1c-.4,1.72-.79,3.44-1.09,5.18s-.57,3.44-.88,5.16a1.51,1.51,0,0,0,.15,1.1,1.36,1.36,0,0,0,.85.65,1.41,1.41,0,0,0,1.74-1c.32-1.72.58-3.45.88-5.17s.69-3.46,1.09-5.17A1.43,1.43,0,0,0,110.22,132.63Z" transform="translate(-8.01 -53.02)"/><path class="cls-5" d="M118,146.13a13.29,13.29,0,0,1-.62-2.58,16.06,16.06,0,0,1-.08-3.6v0a1.51,1.51,0,0,0-.15-1.1,1.36,1.36,0,0,0-.85-.65,1.18,1.18,0,0,0-.37-.05,1.41,1.41,0,0,0-.72.19,1.38,1.38,0,0,0-.66.85,15.66,15.66,0,0,0,0,4.16,21.28,21.28,0,0,0,.35,2.24,10.52,10.52,0,0,0,.69,2.05,1.36,1.36,0,0,0,.85.65,1.41,1.41,0,0,0,1.75-1,1.51,1.51,0,0,0-.14-1.1Z" transform="translate(-8.01 -53.02)"/><path class="cls-5" d="M124.17,133.62l-.08-.17a1.22,1.22,0,0,0-.07-.17Z" transform="translate(-8.01 -53.02)"/><path class="cls-5" d="M124.09,133.45l.08.17-.15-.34a1.22,1.22,0,0,1,.07.17c-.08-.21-.17-.42-.26-.63a1.53,1.53,0,0,0-.65-.85,1.41,1.41,0,0,0-.72-.19,1.24,1.24,0,0,0-.38.05,1.45,1.45,0,0,0-.85.65,1.37,1.37,0,0,0-.14,1.1c.85,2.06,1.73,4.12,2.66,6.14a1.35,1.35,0,0,0,.85.66,1.41,1.41,0,0,0,1.1-.15,1.46,1.46,0,0,0,.65-.85,1.53,1.53,0,0,0-.14-1.09C125.47,136.68,124.78,135.07,124.09,133.45Z" transform="translate(-8.01 -53.02)"/><path class="cls-5" d="M133.49,130.08a1.77,1.77,0,0,0-.16-.22l-.06-.07Z" transform="translate(-8.01 -53.02)"/><path class="cls-5" d="M133.33,129.86a1.77,1.77,0,0,1,.16.22l-.22-.29.06.07c-.55-.72-1.12-1.42-1.64-2.16-.93-1.33-1.86-2.64-2.76-4a1.51,1.51,0,0,0-1.25-.7,1.41,1.41,0,0,0-1.21,2.13c.64,1,1.29,1.9,1.95,2.84.43.61.84,1.22,1.29,1.81,1.12,1.45,2.24,2.9,3.41,4.32a1.43,1.43,0,0,0,2.43-1,1.51,1.51,0,0,0-.42-1C134.53,131.36,133.93,130.61,133.33,129.86Z" transform="translate(-8.01 -53.02)"/><path class="cls-5" d="M135.29,117.44a1.47,1.47,0,0,0-1.24-.71,1.29,1.29,0,0,0-.7.2,1.42,1.42,0,0,0-.51,1.94c1.86,2.93,3.71,5.87,5.73,8.69a1.56,1.56,0,0,0,.85.65,1.41,1.41,0,0,0,1.75-1,1.37,1.37,0,0,0-.13-1.1C139,123.3,137.15,120.36,135.29,117.44Z" transform="translate(-8.01 -53.02)"/><path class="cls-5" d="M144.8,114.58q-1.17-2.39-2.25-4.82a1.42,1.42,0,0,0-.85-.65,1.65,1.65,0,0,0-.38,0,1.49,1.49,0,0,0-.73.2,1.43,1.43,0,0,0-.65.85,1.48,1.48,0,0,0,.15,1.09q1,2.37,2.2,4.69c.72,1.46,1.46,2.93,2.29,4.34A1.42,1.42,0,1,0,147,118.8C146.23,117.43,145.51,116,144.8,114.58Z" transform="translate(-8.01 -53.02)"/><path class="cls-5" d="M148.13,104.19a1.38,1.38,0,0,0-1.23-.69,1.51,1.51,0,0,0-.72.18,1.44,1.44,0,0,0-.5,1.95c1.35,2.56,2.71,5.14,4.3,7.57a1.46,1.46,0,0,0,2,.51,1.43,1.43,0,0,0,.51-1.95C150.85,109.34,149.48,106.76,148.13,104.19Z" transform="translate(-8.01 -53.02)"/><path class="cls-5" d="M56.51,149.32a1.43,1.43,0,0,0-.71-.19,1.47,1.47,0,0,0-1.24.7c-.48.77-.92,1.57-1.38,2.35s-.86,1.39-1.34,2a25.64,25.64,0,0,1-1.8,2,24.64,24.64,0,0,1-2,1.7c-1,.72-2.09,1.39-3.18,2s-2.18,1.05-3.29,1.52c-.48.19-1,.38-1.47.55s-1.25.35-1.89.51a12.13,12.13,0,0,0-1.69.49,7.47,7.47,0,0,0-2.19,1.3,8.69,8.69,0,0,0-1,1.08,13.82,13.82,0,0,0-2.14,3.58,24.26,24.26,0,0,0-1.33,4,1.43,1.43,0,0,0,2.75.75,25,25,0,0,1,1-3.28,15.91,15.91,0,0,1,.72-1.5,15.08,15.08,0,0,1,1-1.57,9.52,9.52,0,0,1,1.09-1.11,8.51,8.51,0,0,1,.92-.54c1.28-.45,2.65-.64,3.92-1.1a43.54,43.54,0,0,0,4.43-1.92,25.84,25.84,0,0,0,7.38-5.53,18.61,18.61,0,0,0,2.14-2.85c.6-1,1.15-2,1.76-3A1.44,1.44,0,0,0,56.51,149.32ZM36.58,166.11l.08-.07Zm5.2-4.78.08,0Z" transform="translate(-8.01 -53.02)"/><path class="cls-5" d="M37.07,163.08a1.36,1.36,0,0,0-.36-.05,1.4,1.4,0,0,0-1.39,1c-.29,1.47-.59,3-.88,4.43-.13.66-.27,1.34-.39,2a13,13,0,0,0-.36,2.68,1.45,1.45,0,0,0,1.42,1.43,1.43,1.43,0,0,0,1.43-1.43,3.41,3.41,0,0,1,0-.55c.43-2.62,1-5.21,1.51-7.81a1.51,1.51,0,0,0-.15-1.1A1.43,1.43,0,0,0,37.07,163.08Z" transform="translate(-8.01 -53.02)"/><path class="cls-5" d="M40.5,164.15a1.42,1.42,0,1,0-2.84,0c-.1,1.56-.18,3.12-.22,4.68a23.44,23.44,0,0,0,.16,4.27,1.35,1.35,0,0,0,.65.85,1.41,1.41,0,0,0,1.1.14,1.39,1.39,0,0,0,.85-.65,1.46,1.46,0,0,0,.15-1,33.13,33.13,0,0,1-.06-3.73C40.33,167.18,40.41,165.67,40.5,164.15Z" transform="translate(-8.01 -53.02)"/><path class="cls-5" d="M57.49,150.11a1.41,1.41,0,0,0-1.74,1c-.72,2.88-1.45,5.77-2.31,8.62-.44,1.44-.8,2.89-1.12,4.37s-.63,2.92-.9,4.38c-.4,2.21-.75,4.41-1.19,6.6-.22,1.08-.48,2.14-.73,3.21a30,30,0,0,0-.52,3.13c-.22,1.46-.57,2.89-.84,4.34s-.47,2.92-.67,4.39-.46,3-.78,4.52a44.52,44.52,0,0,1-1.29,4.55c-.43,1.3-.94,2.56-1.42,3.84-.22.6-.44,1.2-.61,1.81-.06.21-.11.42-.16.64a4.2,4.2,0,0,0-.52.26,5.27,5.27,0,0,0-1.21,1.1,7.94,7.94,0,0,0-.9,1.4,5.57,5.57,0,0,0-.48,1.25,1.65,1.65,0,0,0,.74,1.84,4.08,4.08,0,0,0,1.45.63,9.47,9.47,0,0,0,1.59.29,1.7,1.7,0,0,0,1.68-1,4,4,0,0,0,.29-1.85c0-.48-.05-.95-.1-1.43,0-.28-.07-.55-.12-.83a2.32,2.32,0,0,0,.18-.39c.06-.18.1-.37.14-.54.16-.62.34-1.22.55-1.81s.5-1.33.76-2,.58-1.58.85-2.37a39.35,39.35,0,0,0,1.24-4.27c.34-1.57.63-3.15.84-4.75s.45-3.29.77-4.91c.15-.79.34-1.58.49-2.36s.3-1.83.42-2.75c0,.13,0,.25,0,.38.21-1.48.57-2.92.9-4.37s.59-2.89.85-4.34.51-3,.81-4.55.6-2.92.92-4.37c.45-2,1.09-3.93,1.63-5.91s1.06-4,1.56-6A1.44,1.44,0,0,0,57.49,150.11Z" transform="translate(-8.01 -53.02)"/><path class="cls-5" d="M88.73,207.61c-.29-.64-.59-1.27-.9-1.9-.64-1.26-1.36-2.46-2.07-3.68s-1.42-2.59-2.2-3.85-1.68-2.67-2.51-4q-2.37-3.84-4.81-7.65-1.53-2.4-3-4.82a39.77,39.77,0,0,1-2.78-4.92,16.77,16.77,0,0,1-.55-1.74,17.31,17.31,0,0,1-.33-1.91c-.78-6.12-1-12.28-1.46-18.42a1.51,1.51,0,0,0-.42-1,1.47,1.47,0,0,0-1-.42,1.43,1.43,0,0,0-1.42,1.43c.24,3.37.41,6.73.66,10.1.12,1.5.25,3,.39,4.51s.29,3,.5,4.5c.1.66.18,1.33.34,2a14.54,14.54,0,0,0,.64,1.93A29.85,29.85,0,0,0,70,181.91c1.59,2.61,3.26,5.16,4.88,7.74.77,1.23,1.56,2.44,2.33,3.67s1.65,2.69,2.48,4,1.66,2.62,2.43,4c.37.65.73,1.31,1.09,2,.12.19.23.39.35.59a1.44,1.44,0,0,0-.92,1,6.26,6.26,0,0,0-.15,1.5c0,.39,0,.77,0,1.15a12.7,12.7,0,0,0,.17,3.2,2.17,2.17,0,0,0,.9,1.29,1.86,1.86,0,0,0,1.41.1l1-.22a5.71,5.71,0,0,0,2.82-1.26,1.89,1.89,0,0,0,.45-1.93A10.86,10.86,0,0,0,88.73,207.61Z" transform="translate(-8.01 -53.02)"/><path class="cls-5" d="M147.92,167.77c-.64-1.66-1.16-3.36-1.7-5.06-.26-.84-.55-1.69-.78-2.55l-.39-1.47c-.14-.55-.23-1.14-.33-1.71a1.33,1.33,0,0,0-.65-.85,1.41,1.41,0,0,0-.72-.19,1.65,1.65,0,0,0-.38.05,1.39,1.39,0,0,0-.85.65,1.51,1.51,0,0,0-.14,1.1c.12.75.27,1.48.46,2.22s.43,1.56.67,2.33c.39,1.28.79,2.56,1.21,3.83a30.8,30.8,0,0,0,1.66,4.24c.62,1.21,1.23,2.42,1.77,3.66a11.7,11.7,0,0,1,.63,2.09,9.81,9.81,0,0,1,.08,1.53c0,.64-.07,1.27-.14,1.9-.26,1.5-.6,3-1,4.43s-.76,3-1.13,4.48c-.72,3-1.29,6-1.73,9-.17,1.2-.32,2.39-.46,3.59a1.51,1.51,0,0,0-.26.18,4.42,4.42,0,0,0-1,1.68c-.17.35-.32.7-.47,1.06-.32.74-.63,1.49-.94,2.24-.12.29-.23.59-.35.89a1.86,1.86,0,0,0-.07,1.77,2.1,2.1,0,0,0,.56.59,3.15,3.15,0,0,0,.64.31,6.46,6.46,0,0,0,.78.25c.31.08.64.13,1,.18l1.15.15a2.09,2.09,0,0,0,1.76-.43,3.12,3.12,0,0,0,.6-2.39c0-.42-.05-.84-.08-1.26l-.15-2-.09-1.1a3.68,3.68,0,0,0-.09-.76,1.49,1.49,0,0,0-.17-.43v-.1c.11-1,.23-1.92.35-2.89.41-2.91.91-5.82,1.59-8.68.36-1.51.73-3,1.12-4.53s.79-3.05,1.09-4.6a13.78,13.78,0,0,0-.12-7.07C150.05,171.87,148.85,169.88,147.92,167.77Z" transform="translate(-8.01 -53.02)"/><path class="cls-5" d="M170.37,170.69c-.67-1.18-1.35-2.37-2-3.57-1.36-2.54-2.55-5.15-3.7-7.79a43.87,43.87,0,0,1-2.24-7.06,1.41,1.41,0,0,0-1.4-1,1.12,1.12,0,0,0-.36.05,1.45,1.45,0,0,0-1,1.75,45.53,45.53,0,0,0,3.12,9.08q1,2.22,2.05,4.42c.62,1.27,1.33,2.5,2,3.74.43.77.84,1.53,1.28,2.28.18.32.37.63.56.95l0,0,0,0c-.2.33-.37.67-.54,1-.35.67-.68,1.34-1,2-.67,1.35-1.33,2.71-1.94,4.09s-1.22,2.83-1.85,4.25-1.38,3-2,4.57-1.2,2.83-1.71,4.28a44.21,44.21,0,0,0-1.33,4.48c-.68,2.76-1.23,5.54-1.83,8.31-.08.37-.15.73-.22,1.1a5,5,0,0,0-.13,1,1.38,1.38,0,0,0,.19.71,1,1,0,0,0,.27.4l.41.33c.18.07.37.15.56.21a3.43,3.43,0,0,0,1,.15c.18,0,.37,0,.55.06a3,3,0,0,0,1.82-.13c1.53-.9,1-3,.64-4.44l-.27-1.24a4.81,4.81,0,0,0-.4-1.45,1.53,1.53,0,0,0-.64-.57l.45-2c.32-1.43.65-2.87,1.09-4.26.5-1.57,1.08-3.09,1.69-4.62.21-.52.44-1.05.66-1.57-.05.11-.1.23-.14.34.63-1.47,1.3-2.94,1.95-4.4s1.23-2.84,1.85-4.25,1.24-2.66,1.89-4c.36-.72.71-1.44,1.09-2.15.15-.3.31-.6.49-.89a5,5,0,0,0,.46-.86,2.1,2.1,0,0,0-.36-1.71C171,171.78,170.69,171.24,170.37,170.69Z" transform="translate(-8.01 -53.02)"/><path class="cls-5" d="M254,148.47a1.43,1.43,0,0,0-.73-.2,1.49,1.49,0,0,0-.36,0,1.43,1.43,0,0,0-.86.66c-.62,1.36-1.19,2.73-1.77,4.11,0-.06.05-.13.08-.19-.69,1.63-1.44,3.24-2.28,4.79a31.45,31.45,0,0,1-2.73,4q-.83,1.05-1.71,2c-.63.7-1.33,1.34-2,2s-1.15,1-1.74,1.52a1.28,1.28,0,0,0-1-.42,2.33,2.33,0,0,0-.9.21,4.74,4.74,0,0,0-.51.37,4.07,4.07,0,0,0-.9,1,1.49,1.49,0,0,0-.14,1.09,7.36,7.36,0,0,0-.47.63,3.44,3.44,0,0,0-.66,1.74,1.79,1.79,0,0,0,.46,1.36,2.69,2.69,0,0,0,.45.37,1.89,1.89,0,0,0,.85.23A3.11,3.11,0,0,0,240,171v0l.27-.25c.52-.46,1.05-.9,1.57-1.35,1.18-1,2.3-2,3.38-3.1a33.73,33.73,0,0,0,2.92-3.49,29.71,29.71,0,0,0,2.49-3.78,71.38,71.38,0,0,0,3-6.59c0,.07-.06.13-.09.21.32-.74.64-1.48,1-2.21a1.53,1.53,0,0,0,.15-1.09A1.44,1.44,0,0,0,254,148.47Z" transform="translate(-8.01 -53.02)"/><path class="cls-5" d="M243,203.56a10.28,10.28,0,0,1-1.38-.86,8.39,8.39,0,0,1-.92-.87.41.41,0,0,1-.05-.09c.15-.54.38-1.07.54-1.6s.39-1.36.58-2c.42-1.48.85-3,1.26-4.45a1.44,1.44,0,0,0-1-1.75,1.64,1.64,0,0,0-.37-.05,1.43,1.43,0,0,0-1.38,1.05c-.58,2-1.15,4.1-1.74,6.15-.13.42-.27.85-.42,1.26l-.21.61a2.51,2.51,0,0,0,.05,1.77,4.76,4.76,0,0,0,1.27,1.71,11.55,11.55,0,0,0,.94.76,11,11,0,0,0,1.38.86,1.43,1.43,0,0,0,1.44-2.46Z" transform="translate(-8.01 -53.02)"/><path class="cls-5" d="M262.8,204.6a13.16,13.16,0,0,1-2.71-.7l-.14-.07a42.76,42.76,0,0,1,.05-7.42,1.43,1.43,0,1,0-2.85,0,56.34,56.34,0,0,0-.14,6.37c0,.43.07.85.12,1.29,0,.28.07.56.13.84a2.18,2.18,0,0,0,1.21,1.36,8.59,8.59,0,0,0,2,.74c.54.13,1.07.25,1.61.34a1.56,1.56,0,0,0,1.1-.15,1.43,1.43,0,0,0,.51-1.94A1.4,1.4,0,0,0,262.8,204.6Zm-2.85-.77a.77.77,0,0,1,0-.15l0,.15Zm.21.1.15.07Z" transform="translate(-8.01 -53.02)"/></svg>