<svg id="Layer_2" data-name="Layer 2" xmlns="http://www.w3.org/2000/svg" viewBox="0 0 318.9 213.93"><defs><style>.cls-1{fill:#c69c6d;}.cls-2{fill:#6edaf4;}.cls-3{fill:#d17cb0;}.cls-4{fill:#046380;}.cls-5{fill:#161616;}.cls-6{fill:#fff;}.cls-7{fill:#a7a37e;}.cls-8{fill:#468966;}.cls-9{fill:red;}</style></defs><path class="cls-1" d="M167.53,97.74a3.84,3.84,0,0,1,.83,0,3.13,3.13,0,0,1,3.11,2.17c.22,1,.44,1.93.69,2.76a2.75,2.75,0,0,1,1.24,1.63c.19,1.07.36,2.12.52,3.17a30.14,30.14,0,0,0,3.7,5.73,51.57,51.57,0,0,0,4,4.08c1.46,1.29,3,2.45,4.27,3.41h.19a20,20,0,0,0,2.43.47H189a11.7,11.7,0,0,0,1.87-.16c1.63-.2,3.28-.42,4.91-.66a33.43,33.43,0,0,0,5.84-1.27,9.8,9.8,0,0,0,1.07-.55l.58-.58h0a2.93,2.93,0,0,1,2.29-3.09,3.84,3.84,0,0,1,.83,0,3.62,3.62,0,0,1,2.23.8,24,24,0,0,0,2-2.07c.71-.91,1.35-1.87,2-2.75v-.14a24.9,24.9,0,0,1,2-2.76,35.89,35.89,0,0,0,4-6.06c.44-1.16.83-2.37,1.16-3.44v-.28l.38-1.29c.53-1.63,1.13-3.37,1.93-5.52l1.11-2.75v-.33c.3-.8.63-1.6,1-2.4s.77-2,1.3-3.06a10,10,0,0,1,1.24-2.09,7.68,7.68,0,0,1,.63-.78l.83-.55a2.59,2.59,0,0,1,1.48-.41H230l.33-1.68.38-1.77a3.09,3.09,0,0,1,.39-.82,4.17,4.17,0,0,1,1.27-3.7A17.65,17.65,0,0,1,241,66.82a15.67,15.67,0,0,1,3.34-.36h.44a12,12,0,0,1,4.19,1.13,10.5,10.5,0,0,1,2.37,1.46l.47.36a15.46,15.46,0,0,1,2,1.87,32.22,32.22,0,0,1,3.86,5.21c.3.52.6,1,.88,1.54l.16.28.28.47,1.71,2.75c.66,1.08,1.4,2.12,2.12,3.17l.83,1.19c.49.71,1,1.48,1.43,2.23s.86,1.4,1.32,2.07c2,2.75,4.17,5.76,6.73,8.87,1.13,1.32,2.62,3,4.3,4.66a60.48,60.48,0,0,0,5,4.43l1.87,1.55,3.37,2.75.77.61.16.14c1.41,1.13,2.76,2.23,4.08,3.36a62.94,62.94,0,0,1,4.63,4.46,26.78,26.78,0,0,1,4,5.21,26,26,0,0,1,2.51,6.42,21.6,21.6,0,0,1,.41,6.26A40.88,40.88,0,0,1,301,151.53a34.8,34.8,0,0,1-3.31,6.09c-1.24,1.79-2.59,3.61-3.69,5.07l-.5.64v.22c-1.13,1.49-2.26,3-3.3,4.57a27.75,27.75,0,0,1-1.85,2.43v.16a27.11,27.11,0,0,1-2.48,2.76,36.47,36.47,0,0,1-13.15,7.3c-1.27.47-2.45.86-3.61,1.19a6.88,6.88,0,0,1-.77.66,3.58,3.58,0,0,1-.94.41h-.24l-1,.31-1,.27h-.85l-1.55.44a37.55,37.55,0,0,1-4.79,1.16h-.5a26,26,0,0,1-3.08,1.65,14.24,14.24,0,0,1-5.82,1.19,36.89,36.89,0,0,1-4.93-.33l-3.5-.53h-1l-3.78-.55c-1.46-.19-2.75-.35-4.1-.58a20.59,20.59,0,0,1-4.08-1.21c-1.66-.6-3.25-1.27-5-2l-1.65-.66c-1-.3-1.85-.58-2.59-.85-1-.34-2-.71-2.95-1.13l-4.08-1.44c-1.57-.57-3.39-1.24-5.12-2.06a44.65,44.65,0,0,1-4.41-2.4,35.58,35.58,0,0,1-4.22-2.76,42.5,42.5,0,0,1-3.64-3.33,50.26,50.26,0,0,1-3.28-3.86l-1.62-2.07a58.47,58.47,0,0,1-5.52-4.79,24.91,24.91,0,0,1-3.94-4.91,23.11,23.11,0,0,1-1.43-2.75c-.44-.94-.85-2-1.27-3v-1.35a3.83,3.83,0,0,1-.38-1.73,2.71,2.71,0,0,1,.44-1.49,3.36,3.36,0,0,1,.66-.75h0c-.61-1.37-1.13-2.75-1.76-4.57-.5-1.3-1-2.76-1.55-4a64.68,64.68,0,0,1-2.75-7.25,25.46,25.46,0,0,1-.72-3.66v-.55l-.5-3.37c-.13-.91-.27-1.79-.44-2.75v-.53a15.58,15.58,0,0,0-.36-2.17c-.11-.75-.3-2-.46-3a25.56,25.56,0,0,1-1.27-3.28c-.42-1.24-.8-2.75-1.21-4.46a2.69,2.69,0,0,1,.33-2.26A3.07,3.07,0,0,1,167.53,97.74Z" transform="translate(-25 -43.18)"/><path class="cls-1" d="M116.93,75.44a10,10,0,0,1,2.76-3A19.81,19.81,0,0,1,128,69.16h.28c.85-.19,1.68-.39,2.51-.64,2.75-.79,5.37-1.73,8.46-2.89a31.7,31.7,0,0,0,3.88-1.79l2.32-1.24.55-.3,1.27-.69a39.9,39.9,0,0,1,9.28-4,23.45,23.45,0,0,1,3.12-.45,10.47,10.47,0,0,1,1.38-.24h.49c.83,0,1.63-.17,2.4-.17h.44a20.14,20.14,0,0,1,2.45.25,11.21,11.21,0,0,1,2.29.69,10.31,10.31,0,0,1,2.43,1.49,7.78,7.78,0,0,1,1.4,1.35l.17.19a14.09,14.09,0,0,1,2.75,5.13,10.27,10.27,0,0,1,.22,4.74,6.84,6.84,0,0,1-1.4,3.3,12,12,0,0,1-1.41,1.44,15.41,15.41,0,0,1-1.68,1.07,11.64,11.64,0,0,1-2.56,1,19.6,19.6,0,0,1-4.11.6l-3.36.17h-.33l-3.31.11a57.39,57.39,0,0,0-6.45,1.62l-.71.22-1.13.33H149c-2.57.75-5.24,1.55-7.8,2.49a34.84,34.84,0,0,0-4.55,2.23,19.76,19.76,0,0,0-1.57,1.6l-.22.24a13.27,13.27,0,0,1-2.4,2,11.9,11.9,0,0,1-6.56,1.85h-.22A9.63,9.63,0,0,1,119.44,88a12.59,12.59,0,0,1-2.76-4.35,9.54,9.54,0,0,1-.8-5.21A9.9,9.9,0,0,1,116.93,75.44Z" transform="translate(-25 -43.18)"/><path class="cls-2" d="M234.91,76.74h.69l.69.16H237l.85.25.78.25a11.86,11.86,0,0,0,1.76.52,17.65,17.65,0,0,1-3-.33,10.33,10.33,0,0,1-2.75-1,2.25,2.25,0,0,1-.86.36,2.41,2.41,0,0,1-.38,0l.41-.31A2.69,2.69,0,0,1,234.91,76.74Z" transform="translate(-25 -43.18)"/><path class="cls-2" d="M226.56,83.16A4,4,0,0,1,228,81.67a.56.56,0,0,1,.27-.63,1.82,1.82,0,0,1,0-.33,2.11,2.11,0,0,1,.72-1.6,2.61,2.61,0,0,1,3.47,0c1.38,1.07,2.76,2.15,4.13,3.28.67.55,1.3,1.13,1.91,1.73a18.73,18.73,0,0,1,1.82,2.24,8.83,8.83,0,0,1,1.62,3.74,5.4,5.4,0,0,1,0,1.88,5.1,5.1,0,0,1-.83,1.93,14.77,14.77,0,0,1-1.51,1.84l-.77.94c-.36.41-.69.91-1.08,1.3a2.75,2.75,0,0,1-3,.35A2.12,2.12,0,0,1,233.64,97c-.19-.19-.33-.39-.49-.58s-.58-.74-.86-1.13-.85-1.43-1.24-2.18A39.37,39.37,0,0,0,229,89.5c-.72-1.11-1.46-2.18-2.24-3.26l-.3-.44a2.18,2.18,0,0,1-.3-.74,2.26,2.26,0,0,1,0-1.21A1.32,1.32,0,0,1,226.56,83.16Z" transform="translate(-25 -43.18)"/><path class="cls-2" d="M250.21,91.81a2.21,2.21,0,0,0-.25,1.74,2.08,2.08,0,0,0,.63,1,2.61,2.61,0,0,0,2.4.61,7.16,7.16,0,0,0,2.23-1.35l1.49-1.11c.8-.6,1.52-1.29,2.29-1.9A33.63,33.63,0,0,0,262,94l1.58,1.35a36.62,36.62,0,0,1,5.26,1.79l.63.27h0a2.28,2.28,0,0,0,.72-1.62,2.12,2.12,0,0,0-.72-1.6c-1.24-1-2.48-1.93-3.63-3a26.93,26.93,0,0,1-2.76-2.89,12.58,12.58,0,0,0-1.46-1.63l-.08-.24a2.57,2.57,0,0,0-1.46-1,2.29,2.29,0,0,0-.64,0,3.47,3.47,0,0,0-1.27.3,10.65,10.65,0,0,0-2.95,2c-.44.38-.79.85-1.24,1.24s-.86.77-1.32,1.13l-.55.38A4.84,4.84,0,0,0,250.21,91.81Zm12.92-3.42v0Zm-3.31,1.8" transform="translate(-25 -43.18)"/><path class="cls-2" d="M211.35,113.5c.58-.44,1.1-.88,1.71-1.29s1.87-1.19,2.75-1.82l1.52-1,1.6-.9a34.69,34.69,0,0,1,3.22-1.63l3.17-1.6a30.71,30.71,0,0,0,3.14-1.71c1-.66,2-1.35,3-2s2-1.27,3-1.88,2.42-1.35,3.64-2,2.53-1.43,3.77-2.15,2.54-1.32,3.83-2l2.12-.93a8.35,8.35,0,0,0,1.8-1,28.23,28.23,0,0,1,5.23-3,3.43,3.43,0,0,1,1.3-.3,1.88,1.88,0,0,1,.58,0,2.35,2.35,0,0,1,1.46,1,2.3,2.3,0,0,1,.24.5,5.5,5.5,0,0,1,4.66,1.71,2,2,0,0,1,0,2.29,2.14,2.14,0,0,1-.41.49,1.73,1.73,0,0,1-.58.42h0l-.91-.09a7.11,7.11,0,0,0-1.13,0,3.64,3.64,0,0,0-.66,0,3.06,3.06,0,0,0-1.19.64,1.14,1.14,0,0,0-.19.19,3.92,3.92,0,0,1-1.32-.88v3.83c.3.63.6,1.27.88,1.9a3.65,3.65,0,0,1,.39,2.76,2.73,2.73,0,0,1-.83,1.15l-3.69-.57c-1.46-.28-2.93-.53-4.41-.72h-.36c-.61,0-1.21-.17-1.82-.19h-.17a2.43,2.43,0,0,0-.66,0h-.27a21.18,21.18,0,0,0-2.76,0c.25.3.47.6.66.88a8.73,8.73,0,0,1,.55.93,3.6,3.6,0,0,0,.39,1.85l.33.63v.67c0,.22.52,1,.72,1.57a2.18,2.18,0,0,1-.64,2.23h-.3a14.88,14.88,0,0,1-2.76-.47l-1.15-.19a47.34,47.34,0,0,0-7.5-.86H233a6.6,6.6,0,0,0-1.82.2,3.46,3.46,0,0,0-2.5,3.52v3.37c0,1.79.13,3.61.24,5.51v1.1a5.66,5.66,0,0,0,.2,1.82,2.78,2.78,0,0,1-2.76-.41,4.09,4.09,0,0,1-.85-1,2.32,2.32,0,0,1-1.11,0,2.36,2.36,0,0,1-1.46-1,13.21,13.21,0,0,1-.88-2c-1.21-.63-2.51-1.18-3.77-1.71a24.18,24.18,0,0,0-2.76-.91,20.28,20.28,0,0,0-2.56-.49h-.5a2.79,2.79,0,0,1-1.27-.3,2.31,2.31,0,0,1-1.13-1.36,2.2,2.2,0,0,1,.64-2.23Z" transform="translate(-25 -43.18)"/><path class="cls-2" d="M238.14,136.29a2.54,2.54,0,0,0-.22,1.05,3.61,3.61,0,0,0,.66,2c.3.5.6,1,.93,1.44a29,29,0,0,1,1.79,3.17c1,2,2.15,3.94,3.09,6l.58,1.29a5.77,5.77,0,0,0,.22.58,3.75,3.75,0,0,0,.8,1.27,2.59,2.59,0,0,0,3.44,0,4,4,0,0,0,1-2.76v-.82a12.52,12.52,0,0,1,.39-1.69,10.06,10.06,0,0,1,.49-1.29,23.36,23.36,0,0,1,1.9-3,13.06,13.06,0,0,0,1.16-1.63c.39-.61.72-1.21,1-1.85.6-1.1,1.16-2.23,1.76-3.33a20,20,0,0,1,2-2.92,77,77,0,0,1,5.51-6.2l3.41-3.26c1.11-1,2.24-2,3.42-3a24.06,24.06,0,0,1,3.61-2c1.44-.69,3-1.24,4.38-2a10.75,10.75,0,0,0,1.52-.85,3.13,3.13,0,0,0,.74-.61,2.76,2.76,0,0,0,3.06-.3,2.21,2.21,0,0,0,.11-3.12,1.14,1.14,0,0,0-.11-.11c-2.23-2-4.38-4-6.64-6a7.43,7.43,0,0,0-.88-.69,3,3,0,0,0-1.46-.39,3.39,3.39,0,0,0-1.05.17v.14a3.45,3.45,0,0,1-1,.69h-.19c-.44.24-.91.46-1.38.68H272c-.91.67-1.77,1.38-2.76,2l-2.62,1.71c-1.13.72-2.17,1.49-3.25,2.26s-2,1.44-3,2.21-1.82,1.54-2.75,2.34c-1.68,1.54-3.36,3.11-5.1,4.63h-.17c-.22.25-.44.52-.66.74l-.41.53a39.08,39.08,0,0,1-3.42,3.39l-1.43,1.35-.91.82c-.52.47-1.08,1-1.57,1.49l-.83,1c-.47.52-.94,1.07-1.46,1.57h0l-1.07,1.07A5,5,0,0,1,238.14,136.29Zm6.75,3.34h0Zm-.2,0h0Zm-1.62-2.1.47-.58h0v.2a5.46,5.46,0,0,0-.31.47Z" transform="translate(-25 -43.18)"/><path class="cls-3" d="M233.26,77.32h0a2.1,2.1,0,0,1,.41-.31,2.81,2.81,0,0,1,1.21-.27h.69l.69.16h.66l.86.25.77.25a12.24,12.24,0,0,0,1.79.52h2.26a18.16,18.16,0,0,0,2.76,0,26,26,0,0,0,3-.69,22.38,22.38,0,0,0,2.76-.85l1-.47a2.75,2.75,0,0,1,2.07-1h.16a5,5,0,0,1,.77,0,2.8,2.8,0,0,1,1.3.8h.19a3.6,3.6,0,0,1,2.07,1.74c.36.52.66,1.07,1,1.6a6.47,6.47,0,0,1,.45.77,6,6,0,0,1,.79,2v1.44a2.75,2.75,0,0,1-.71,1.13,7.34,7.34,0,0,1-.86.6c-.88.58-1.71,1.16-2.59,1.68a11.73,11.73,0,0,1-1.51.75l-1.49.69a30.63,30.63,0,0,0-3,1.62c-.95.63-1.94,1.23-3,1.82a7.85,7.85,0,0,1-2.26,1,2.74,2.74,0,0,1-3.17-1.32l-.72-1.43a40.5,40.5,0,0,0-2.92-5.18A19.92,19.92,0,0,0,235.9,82L233.67,81a2.41,2.41,0,0,1-.88-.8,2.18,2.18,0,0,1-.25-1.76A2.51,2.51,0,0,1,233.26,77.32Z" transform="translate(-25 -43.18)"/><path class="cls-3" d="M217.14,102.39a20,20,0,0,0,1.54-2.75c.66-1.54,1.21-3.12,1.79-4.69.3-.85.58-1.68.85-2.5s.5-1.88.86-2.76A2.44,2.44,0,0,1,224.6,88a2.74,2.74,0,0,1,.86-.8,2.88,2.88,0,0,1,1.32-.31,2,2,0,0,1,1.16.31,4.07,4.07,0,0,1,.69.55,2.93,2.93,0,0,1,.66,1.13l.49.8a10.29,10.29,0,0,1,.78,1.27,32.11,32.11,0,0,1,1.6,3.41,13.2,13.2,0,0,1,.79,2.76A4.53,4.53,0,0,1,233,99a4.14,4.14,0,0,1-1.73,2.29,27.49,27.49,0,0,1-6.59,3.78,31,31,0,0,0-5.51,2.94l-.47.34a2.8,2.8,0,0,1-1.93.22,2.26,2.26,0,0,1-1.72-2.7s0,0,0-.06A19.42,19.42,0,0,1,217.14,102.39Z" transform="translate(-25 -43.18)"/><path class="cls-4" d="M231.16,110.39a6.6,6.6,0,0,1,1.82-.2h.36a47.34,47.34,0,0,1,7.5.86l1.1.22c.94.16,1.87.36,2.75.47a23,23,0,0,0,2.48.14c-.16-.53-.38-1-.6-1.6a15.44,15.44,0,0,0-.8-1.57l-.36-.67c-.25-.44-.49-.88-.72-1.35a2.54,2.54,0,0,1,0-2.75,2.8,2.8,0,0,1,1.55-1.08,2.43,2.43,0,0,1,.66,0h.16a5.63,5.63,0,0,1,1.82.2h.36c1.49.19,2.95.44,4.41.71l4.19.64h1.05a3.73,3.73,0,0,0-.14-1.24c-.14-.42-.3-1.49-.55-2.37l-.17-.61a13.59,13.59,0,0,1-.52-2.09,3,3,0,0,1,0-1.69,2.22,2.22,0,0,1,.63-1,3.18,3.18,0,0,1,1.19-.63,2.43,2.43,0,0,1,.66,0,7.11,7.11,0,0,1,1.13,0c.76.14,1.52.31,2.26.52a33,33,0,0,1,5.29,1.8,25,25,0,0,1,2.26,1.1h.44a3.89,3.89,0,0,1,.94.33,8,8,0,0,1,1,.83,6.27,6.27,0,0,1,.74.88,2.71,2.71,0,0,1,.47,1.43.91.91,0,0,1,0,.33,2.25,2.25,0,0,1,.53.58,2.07,2.07,0,0,1,.33,1.13,2.4,2.4,0,0,1-.72,1.63,3.36,3.36,0,0,1-1,.68h-.2c-.44.25-.91.47-1.37.69l-.47.25A32.27,32.27,0,0,0,268,109l-1.71,1.32-1.18,1c-1.1.85-2.21,1.65-3.34,2.45s-1.81,1.32-2.75,2a29,29,0,0,0-2.59,2.29l-2.76,2.75c-.69.69-1.32,1.44-2,2.15l-.41.53a39.08,39.08,0,0,1-3.42,3.39l-1.43,1.35-.91.82c-.52.47-1.07,1-1.57,1.49l-.83,1c-.46.52-.93,1.07-1.46,1.57h0l-1.07,1.07A4.44,4.44,0,0,1,237.5,136a3.57,3.57,0,0,1-1.82-.53,4.23,4.23,0,0,1-1.24-1.18l-.38-.53v-.24l-.94-1.33c-.66-.91-1.24-1.68-1.85-2.42s-.69-.83-1-1.21a7.29,7.29,0,0,1-.83-1.82,16.36,16.36,0,0,1-.52-3.34v-1.1c0-1.76-.22-3.58-.25-5.51v-3.36A3.46,3.46,0,0,1,231.16,110.39Z" transform="translate(-25 -43.18)"/><path class="cls-4" d="M232.1,71.89l.72-.36a6.67,6.67,0,0,1,.71-1.1,10,10,0,0,1,1.82-1.91,11.25,11.25,0,0,1,4.08-1.92,16.21,16.21,0,0,1,2.76-.45h.63a17.61,17.61,0,0,1,2,.2H245a12,12,0,0,1,4.24,1.51A5.62,5.62,0,0,1,252,70.62h.27a2.66,2.66,0,0,1,.69,0,2.24,2.24,0,0,1,1.46,1,2,2,0,0,1,.25,1.76,2.5,2.5,0,0,1-1.13,1.35,15.16,15.16,0,0,1-4.36,2,25,25,0,0,1-3.63.91,26.35,26.35,0,0,1-4.05.49h-1.08a12.24,12.24,0,0,1-1.79-.52l-.77-.25-.86-.25h-.66l-.69-.16H235a2.81,2.81,0,0,0-1.21.27,2.1,2.1,0,0,0-.41.31h-.22a2.43,2.43,0,0,1-2.4-1.68,4.42,4.42,0,0,1-.17-1.08,2.78,2.78,0,0,1,.39-1.46A3.67,3.67,0,0,1,232.1,71.89Z" transform="translate(-25 -43.18)"/><path class="cls-5" d="M274.82,99.56Z" transform="translate(-25 -43.18)"/><path class="cls-5" d="M167,78.75v8.46c0,1.41.14,2.76.27,4.22a43.68,43.68,0,0,0,.69,4.43,48.66,48.66,0,0,0,2.29,8,63.06,63.06,0,0,0,3.66,8,23.53,23.53,0,0,0,2.26,3.42,16.78,16.78,0,0,0,3.5,3.39,23,23,0,0,0,3.95,2.09,18.57,18.57,0,0,0,2.45.83c.71.19,1.46.3,2.18.44a20.55,20.55,0,0,0,2.34.28,18.74,18.74,0,0,0,5-.17l1.18-.25a6.16,6.16,0,0,0,1.11-.27,20,20,0,0,0,2-.67,30.6,30.6,0,0,0,4.38-2,42,42,0,0,0,10.34-8.68,36.59,36.59,0,0,0,2.42-3.48c.77-1.24,1.46-2.53,2.12-3.83,1.33-2.56,2.48-5.21,3.73-7.82s2.23-5,3.36-7.5h0a1,1,0,0,1,.14-.3.33.33,0,0,1-.14.27l.6-1.32a1.94,1.94,0,0,0-.13.3c.68-1.48,1.35-3,2-4.49s1.07-2.75,1.68-4,.91-2,1.43-3c.31-.52.58-1.08.91-1.57l1-1.3a10,10,0,0,1,.77-.82A13.46,13.46,0,0,1,236,70.21a11.69,11.69,0,0,1,2.48-1.35,17.18,17.18,0,0,1,3.09-.83l1.26-.19a14.14,14.14,0,0,1,2.76,0,10.5,10.5,0,0,1,2.12.55,14.88,14.88,0,0,1,2.51,1.37,17.76,17.76,0,0,1,2.53,2.37,34,34,0,0,1,2.76,4.08c.72,1.19,1.38,2.4,2.07,3.59s1.46,2.48,2.23,3.69c1.57,2.45,3.11,4.93,4.85,7.3.88,1.21,1.82,2.43,2.76,3.64l2.5,3.31c1.82,2.34,3.72,4.65,5.68,6.89s3.8,4.3,5.82,6.36,4.13,4.19,6.36,6.12l3.42,3c1.07,1,2.11,2,3.14,3s2,2.07,3,3.12,1.82,1.93,2.76,2.95a23.33,23.33,0,0,1,1.68,2.39c.51.84,1,1.71,1.41,2.6l.74,1.7.33.86c0,.22.22.47.3.69a1.3,1.3,0,0,0,1,1.29,1.4,1.4,0,0,0,1.71-.91,1.63,1.63,0,0,0,0-1.15l-.16-.36c0-.25-.22-.5-.31-.75s-.44-1.1-.69-1.65a31.24,31.24,0,0,0-1.87-3.64,36.23,36.23,0,0,0-4.85-5.92c-2-2.07-4-4.16-6.17-6.09-1.13-1-2.26-1.93-3.37-2.93s-2.17-2-3.22-3A158.13,158.13,0,0,1,275,99.64h0V99.5h0c-2.07-2.53-4.05-5.15-6-7.74-.91-1.22-1.82-2.43-2.75-3.64s-1.55-2.34-2.32-3.5-1.65-2.54-2.42-3.8L259.27,77c-.66-1.19-1.37-2.4-2.12-3.56a20.17,20.17,0,0,0-5.51-6,12.88,12.88,0,0,0-5.51-2.21,12.2,12.2,0,0,0-1.71,0h-1.65l-1.47.2-1.18.22a13.76,13.76,0,0,0-2.45.71A14.24,14.24,0,0,0,233,69.13a17.25,17.25,0,0,0-3,3.58,40.63,40.63,0,0,0-2,3.83c-1.21,2.76-2.26,5.35-3.45,8,0,.27-.24.55-.35.8h0v.24h0c-1.11,2.43-2.15,4.88-3.26,7.33l.14-.33-.58,1.27c-1.27,2.59-2.39,5.24-3.75,7.83-.66,1.29-1.35,2.56-2.09,3.8a38.07,38.07,0,0,1-2.45,3.47c-.47.56-.94,1.11-1.44,1.63s-1.07,1-1.62,1.52c-1.16,1-2.37,2-3.61,2.92a22.23,22.23,0,0,1-2.76,1.76,27.16,27.16,0,0,1-3,1.43,15.17,15.17,0,0,1-2.42.83c-.83.22-2,.47-2.95.63a21.16,21.16,0,0,1-3.56,0h-1.24l-2.29-.44a15.87,15.87,0,0,1-2-.58,21.49,21.49,0,0,1-2-.93,22.71,22.71,0,0,1-2-1.19,7.51,7.51,0,0,1-1.13-.91c-.39-.38-.77-.79-1.13-1.21a23.89,23.89,0,0,1-2.09-2.92,34.94,34.94,0,0,1-1.85-3.47,59.82,59.82,0,0,1-3-7.61c-.39-1.32-.77-2.62-1-4s-.52-2.59-.72-3.91c-.24-2.26-.41-4.52-.46-6.81s0-4.66,0-7a1.39,1.39,0,0,0-1.41-1.3A1.36,1.36,0,0,0,167,78.6.76.76,0,0,0,167,78.75Zm63.22-.22v0Zm-5.51,6v0ZM175.08,108v0Z" transform="translate(-25 -43.18)"/><path class="cls-5" d="M226.31,87.49a.33.33,0,0,1-.14.27h0A1.71,1.71,0,0,1,226.31,87.49Z" transform="translate(-25 -43.18)"/><path class="cls-5" d="M165.54,100.71v4.14a75.15,75.15,0,0,0,.91,8.49c.36,3,.64,5.73,1.13,8.57.25,1.37.64,2.75,1,4s.74,2.59,1.15,3.86,1,2.75,1.46,4.27.94,2.48,1.46,3.69,1.33,2.92,2,4.36,1.27,2.42,1.88,3.66,1.18,2.51,1.84,3.72,1.47,2.76,2.26,3.94a79.93,79.93,0,0,0,4.58,6.89c1,1.27,1.93,2.54,3,3.78.46.58,1,1.13,1.48,1.68s1,1.07,1.55,1.6,1,1,1.6,1.46,1,.91,1.54,1.32l3.42,2.76,1.73,1.24h.14c.58.44,1.21.82,1.79,1.24s1.16.69,1.71,1c1.24.72,2.54,1.35,3.83,2s2.54,1.24,3.83,1.82l4.63,2c1.3.55,2.62,1.1,4,1.62l2.76,1,1.84.64,1.9.61,2.76.82c.63.19,1.3.33,2,.5s1.24.33,1.87.44l2.76.55H236l1.57.19,2.12.25c.8,0,1.6.17,2.37.19H249l2.23-.16,2.62-.3,2.75-.39,2.07-.39a7.87,7.87,0,0,0,2-.41c.63-.16,1.46-.33,2.17-.55l2.76-.83c.72-.22,1.43-.49,2.12-.74l1.82-.69c1.54-.55,3.06-1.16,4.58-1.74.79-.3,1.62-.66,2.42-1a27.58,27.58,0,0,0,4.11-2,29.26,29.26,0,0,0,3.88-2.75l1.71-1.46,3.56-3.28c1-.94,2-1.93,2.92-3s2-2.31,3-3.55l2.76-3.72c.83-1.16,1.6-2.35,2.37-3.56.36-.58.69-1.18,1-1.79a15.64,15.64,0,0,0,1-2c.31-.63.58-1.27.86-1.93s.55-1.46.8-2.2a24.74,24.74,0,0,0,.93-3.89c.22-1.51.42-3.06.55-4.6l.17-2v-1.62a5.14,5.14,0,0,0,0-1.24,1.46,1.46,0,0,0-1.74-.91,1.32,1.32,0,0,0-1,1.6h0v3.74c0,1.11-.22,2.24-.33,3.34a26.51,26.51,0,0,1-1.3,4.71c-.25.77-.52,1.55-.8,2.29s-.55,1.27-.82,1.9c-.55,1.08-1.08,2.15-1.74,3.2-.36.55-.69,1.13-1.07,1.68l-1.22,1.76c-1.43,2.07-3,4-4.54,6-.72.8-1.41,1.6-2.15,2.35s-1.82,1.79-2.76,2.75a64,64,0,0,1-5.93,5.1h-.19a29.27,29.27,0,0,1-5.32,2.92l-2.48,1-2.06.83-3.78,1.4-2.29.8-2.59.8c-.69.22-1.38.36-2.07.55a15.84,15.84,0,0,1-1.95.42c-.66.11-1.41.3-2.12.41l-2.48.36-3.26.33-2.15.16h-5.84l-2.95-.46-1.21-.17-2-.28-2.76-.57a7.94,7.94,0,0,1-2.12-.53c-.69-.19-1.21-.27-1.79-.47l-2.76-.77c-.74-.22-1.49-.49-2.2-.74-1.3-.42-2.57-.88-3.83-1.38s-2-.77-3-1.21c-2.76-1.19-5.51-2.4-8.27-3.72l-2-1c-.69-.36-1.38-.69-2-1.07s-1.35-.77-2-1.19L201.37,172h0l-1.87-1.35h0c-.86-.64-1.71-1.33-2.54-2s-1.71-1.43-2.53-2.17a27.33,27.33,0,0,1-2.37-2.32c-.42-.44-.83-.85-1.22-1.32l-1-1.22a92.65,92.65,0,0,1-5.76-8.1c-.8-1.27-1.54-2.56-2.28-3.86s-1.3-2.42-1.9-3.63c-1.25-2.51-2.54-5-3.75-7.53-.36-.82-.75-1.65-1.08-2.51a78.85,78.85,0,0,1-2.75-7.82c-.44-1.41-.86-2.76-1.22-4.25s-.63-2.75-.85-4c-.44-3.17-.77-6.37-1.21-9.54a63.49,63.49,0,0,1-.58-8.27V98c0-1.43.16-2.75.3-4.3a21.71,21.71,0,0,1,.55-3.17c.22-1.07.55-2.56.8-3.83.47-2.56.72-5.18,1-7.74a1.28,1.28,0,0,0-.41-.94,1.56,1.56,0,0,0-1-.36,1.69,1.69,0,0,0-1,.36,1.59,1.59,0,0,0-.42.94c-.19,1.82-.41,3.64-.63,5.51-.14.91-.28,1.85-.47,2.76s-.44,2-.63,3-.39,2.1-.53,3.14-.25,2.21-.3,3.31S165.57,99.34,165.54,100.71Zm54.63,80.7h0ZM201.29,172Zm-11.71-10.53v0Z" transform="translate(-25 -43.18)"/><path class="cls-5" d="M197.84,172.75Z" transform="translate(-25 -43.18)"/><polygon class="cls-5" points="174.41 127.51 174.41 127.51 174.41 127.51 174.41 127.51"/><path class="cls-5" d="M280.52,176.72Z" transform="translate(-25 -43.18)"/><path class="cls-5" d="M302.93,136.07a1.06,1.06,0,0,0,.14,1,23.67,23.67,0,0,0,1.79,2.21,15.45,15.45,0,0,0,6,3.47c1.49.58,3,1.08,4.52,1.57s2.75.83,4.13,1.24l2.4.72c.58.16,1.16.41,1.71.61a26,26,0,0,1,5.21,2.75h0a21.78,21.78,0,0,1,3.94,3.61,18,18,0,0,1,2.07,3.31,19.08,19.08,0,0,1,1.43,4.74,14,14,0,0,1,0,2.75l-.16.36a6.41,6.41,0,0,0-.28,1.3,3.7,3.7,0,0,0,0,.94v.44l-2.23,3.47-2.31,3.5c-.69,1-1.38,2-2.1,2.92s-1.57,2.23-2.45,3.28a1.12,1.12,0,0,0-.14,1,1.34,1.34,0,0,0,.63.77,1.52,1.52,0,0,0,1.11,0,1.32,1.32,0,0,0,.82-.6c.89-1,1.63-2.18,2.43-3.25.47-.61.91-1.24,1.35-1.85l-.19.63a12.29,12.29,0,0,0-.42,1.3,5.48,5.48,0,0,0-.13,1,2.71,2.71,0,0,0,.13.69,1.45,1.45,0,0,0,1.83.89,1.48,1.48,0,0,0,.74-.59,13.31,13.31,0,0,0,.88-2,1.39,1.39,0,0,1,.22-.55l.33-1v2.48a8,8,0,0,0,.19,2.12,1.48,1.48,0,0,0,.42.91,1.23,1.23,0,0,0,.6.33,1.45,1.45,0,0,0,1.6-.58,2.43,2.43,0,0,0,.3-.63V180a4.7,4.7,0,0,0,0-.75,3.67,3.67,0,0,1,.14-1.21v.5a9.42,9.42,0,0,0,.28,1.7,19,19,0,0,0,.38,2.13,5.93,5.93,0,0,0,.36,1.13l.47.93a1.44,1.44,0,0,0,2.2.28,2.06,2.06,0,0,0,.61-1,3.84,3.84,0,0,0,0-.83c0-1.46-.16-2.92-.27-4.38,0-.69-.17-1.4-.23-2.12a17,17,0,0,0-.27-1.9c-.11-.64-.3-1.74-.44-2.59a22.14,22.14,0,0,0-.58-2.4,26.06,26.06,0,0,0-.88-2.76,8.93,8.93,0,0,0-1.35-2.53,4.63,4.63,0,0,0-.5-.58,2.35,2.35,0,0,0-.41-.36h0a15,15,0,0,0-.22-2.92,18.84,18.84,0,0,0-1.22-4,17.29,17.29,0,0,0-1.59-3.12,18.68,18.68,0,0,0-2.26-2.75,25.75,25.75,0,0,0-7.44-5.27,36.89,36.89,0,0,0-5.3-1.93L316.35,142l-4.08-1.38a23.32,23.32,0,0,1-4.24-2.12,10.62,10.62,0,0,1-1.49-1.43l-1.13-1.41a1.41,1.41,0,0,0-.86-.61h-.35a1.62,1.62,0,0,0-.72.2A1.21,1.21,0,0,0,302.93,136.07Zm33.62,45-3.86-27.56v0Zm0,0-20.06-12.54-5.84-3.52" transform="translate(-25 -43.18)"/><path class="cls-5" d="M328.75,149.85Z" transform="translate(-25 -43.18)"/><path class="cls-5" d="M281.38,117.36" transform="translate(-25 -43.18)"/><path class="cls-5" d="M206.58,115.32a1.21,1.21,0,0,0-.41.91,1.31,1.31,0,0,0,.41.91,1.46,1.46,0,0,0,1,.38h.28a13,13,0,0,1,2.75.72h.53l.88.39c1.07.41,2.18.85,3.22,1.32s2.29,1,3.39,1.6a33.7,33.7,0,0,1,3,1.84l2.34,1.77,3.53,2.75c.52.42,1.07.86,1.57,1.3s1.05.91,1.52,1.41c1.07,1,2.12,2.06,3.11,3.16l2.89,3.37c.67.8,1.33,1.6,2,2.42l2,2.76,1,1.57a12,12,0,0,1,.66,1.16c.25.44.52.88.74,1.35l.72,1.51c.41,1,.83,2,1.21,3,.17.52.36,1,.55,1.54s.64,1.79,1.05,2.76a2.17,2.17,0,0,0,.88,1,1.68,1.68,0,0,0,1.57,0,2.17,2.17,0,0,0,.89-1.44c.16-.52.33-1,.52-1.57.39-1,.8-2.09,1.24-3.14.26-.57.53-1.15.83-1.73s.71-1.35,1.1-2c.69-1.21,1.51-2.34,2.23-3.55s1.41-2.37,2.1-3.58l1.07-1.85c.41-.63.77-1.27,1.19-1.87l.79-1.19.5-.72,1.32-1.65c.83-1,1.66-1.87,2.51-2.76l2.59-2.75c.39-.41.8-.8,1.21-1.21a17.07,17.07,0,0,1,1.27-1.16c.44-.36,1-.91,1.57-1.32l1.46-1.08c.53-.36,1-.74,1.57-1.07s1.16-.78,1.77-1.11,1.29-.71,2-1,1.79-.82,2.76-1.21h0a22.16,22.16,0,0,1,2.89-.94c.94-.22,1.87-.38,2.76-.55a1.29,1.29,0,0,0,1-1.55v0a1.3,1.3,0,0,0-.63-.78,1.18,1.18,0,0,0-.66-.16h-.42a28.11,28.11,0,0,0-4,.88,36.81,36.81,0,0,0-4.19,1.65,21.92,21.92,0,0,0-2.07,1,5.83,5.83,0,0,0-1,.55l-1,.63-1.9,1.27-2,1.49c-.6.44-1.18,1-1.73,1.43s-1.08,1-1.6,1.49-1,1-1.49,1.49l-3,3.22c-1.07,1.16-2.07,2.4-3,3.64a40.09,40.09,0,0,0-2.4,3.5c-.73,1.25-1.45,2.49-2.15,3.72s-1.51,2.53-2.31,3.77a40,40,0,0,0-2.1,3.5c-.69,1.38-1.38,2.76-1.93,4.17l-.36.93-.49-1.32a34.36,34.36,0,0,0-1.46-3.55,39.73,39.73,0,0,0-2-3.78c-.8-1.24-1.57-2.48-2.45-3.67s-1.93-2.5-3-3.72l-3-3.44c-1-1.1-2-2.12-3.09-3.17a6.77,6.77,0,0,0-.69-.63l-.86-.45c-.52-.44-1-.91-1.57-1.32-2.45-2-4.93-3.91-7.55-5.68a30.75,30.75,0,0,0-3.91-2.12c-1.3-.6-2.76-1.16-4-1.71l-1.71-.69h-.33c-.72-.28-1.45-.53-2.2-.74a17.79,17.79,0,0,0-2.07-.3A1.27,1.27,0,0,0,206.58,115.32Zm4,3" transform="translate(-25 -43.18)"/><path class="cls-5" d="M281.4,116.78a1.78,1.78,0,0,1,.75-.16h.33a1.34,1.34,0,0,1,.85.6c0,.22.22.42.33.66a4.16,4.16,0,0,1,.25.83l.17,1.13a10.23,10.23,0,0,0,.22,1.6c.08.55.19,1.71.3,2.56.17,1.63.39,3.23.61,4.85a1.09,1.09,0,0,1,0-.36c.16,1.19.36,2.37.52,3.56a1.28,1.28,0,0,1-.14,1,1.44,1.44,0,0,1-.82.61,1.67,1.67,0,0,1-1.08,0,1.32,1.32,0,0,1-.66-.77c-.3-2.15-.66-4.3-.91-6.45-.22-1.74-.41-3.45-.63-5.16a1.4,1.4,0,0,1-1.11-1.26,11.81,11.81,0,0,1,0-1.19C280.52,117.86,280.52,117,281.4,116.78Z" transform="translate(-25 -43.18)"/><path class="cls-5" d="M273.22,119.54h.36a1.39,1.39,0,0,1,1.37,1c.72,2.45,1.38,4.91,1.93,7.41.25,1.11.5,2.24.72,3.37l.33,1.95a19.27,19.27,0,0,1,.28,2.51,12.21,12.21,0,0,1-.36,2.4,1.41,1.41,0,0,1-1.74.91,1.5,1.5,0,0,1-.82-.58,1.29,1.29,0,0,1,0-1,2.14,2.14,0,0,1,.22-1.13,8.45,8.45,0,0,0,0-2,13.12,13.12,0,0,0-.28-1.74,13.3,13.3,0,0,0-.28-1.4c-.24-1.16-.52-2.35-.77-3.53s-.41-1.6-.6-2.43c-.36-1.35-.72-2.75-1.11-4a1.27,1.27,0,0,1,.72-1.64Z" transform="translate(-25 -43.18)"/><path class="cls-5" d="M265.47,125.88a1.3,1.3,0,0,1,.83-.58h.36a1.4,1.4,0,0,1,1,.38,8,8,0,0,1,1,1.13,1.3,1.3,0,0,1-.48,1.77l-.05,0h-.41v1.22c.22,1.48.61,2.92,1,4.35.22.88.44,1.74.69,2.62s.53,2,.77,3a19.56,19.56,0,0,1,.61,3.3,1.35,1.35,0,0,1-1.21,1.3,1.45,1.45,0,0,1-1-.39,1.31,1.31,0,0,1-.39-.93v-.36a60.08,60.08,0,0,0-1.49-6.09l-.82-3.28a23.74,23.74,0,0,1-.58-2.76,16.32,16.32,0,0,1-.25-2.31,6.31,6.31,0,0,1,.14-1.3A4.25,4.25,0,0,1,265.47,125.88Z" transform="translate(-25 -43.18)"/><path class="cls-5" d="M259.49,134.61a1.43,1.43,0,0,1,1,.39,1.21,1.21,0,0,1,.41.91l.25,1.87c.22,1.43.47,2.76.71,4.27a8.71,8.71,0,0,0,.22,1.46c.09.47.31,1.33.45,2,.3,1.32.57,2.76.85,4,.14.63.25,1.24.33,1.87s.17,1.66.19,2.48a1.35,1.35,0,0,1-1.37,1.33h0a1.41,1.41,0,0,1-1.41-1.33V152a2.6,2.6,0,0,0-.19-1.27,18.86,18.86,0,0,1-.47-2.2l-.83-3.83c-.24-1.11-.41-2.21-.6-3.34s-.25-1.6-.39-2.4-.3-2-.44-3.08a1.29,1.29,0,0,1,.41-.91A1.5,1.5,0,0,1,259.49,134.61Z" transform="translate(-25 -43.18)"/><path class="cls-5" d="M251.69,143.93h.39a1.44,1.44,0,0,1,1.35.93c1,2.76,2.07,5.52,3,8.49.42,1.27.86,2.54,1.27,3.83s.88,2.59,1.21,3.92a1.28,1.28,0,0,1-.91,1.58h0a1.43,1.43,0,0,1-1.74-.9,39.68,39.68,0,0,0-1.18-3.81l-1.27-3.83c-1-2.75-2-5.73-3.06-8.6a1.3,1.3,0,0,1,.88-1.6Z" transform="translate(-25 -43.18)"/><path class="cls-5" d="M247.45,153.66a1.38,1.38,0,0,1,1.41-1.3,1.35,1.35,0,0,1,1.4,1.29h0c-.16,2.31-.33,4.6-.47,6.91s-.16,4.16-.44,6.2a1.38,1.38,0,0,1-.41.94,1.56,1.56,0,0,1-1,.36,1.68,1.68,0,0,1-1-.36,1.38,1.38,0,0,1-.41-.94c.28-2,.33-4.13.44-6.2S247.23,156,247.45,153.66Z" transform="translate(-25 -43.18)"/><path class="cls-5" d="M238.47,154.76c.22-.83.44-1.66.6-2.51s.42-1.87.64-2.76a3.42,3.42,0,0,1,.16-1.24,5.87,5.87,0,0,0,.22-1.24c0-1.46.31-2.92.44-4.38a1.28,1.28,0,0,1,.42-.91,1.49,1.49,0,0,1,1-.38,1.34,1.34,0,0,1,1.4,1.29h0a20.49,20.49,0,0,1-.27,2.59,11.33,11.33,0,0,1-.25,2.26c-.25.75-.33,2.26-.58,3.42-.55,2.56-1.18,5.13-1.84,7.66a1.44,1.44,0,0,1-1.74.91,1.29,1.29,0,0,1-1-1.55v0C238,156.77,238.22,155.78,238.47,154.76Z" transform="translate(-25 -43.18)"/><path class="cls-5" d="M232.76,140.54a53.62,53.62,0,0,1,2-5.52,1.44,1.44,0,0,1,.63-.77,1.73,1.73,0,0,1,.74-.16h.31a1.3,1.3,0,0,1,1,1.55v.05a1,1,0,0,1,0,.24,3.54,3.54,0,0,1-.16.34c-.67,1.65-1.22,3.33-1.77,5s-1,3.33-1.38,5a1.44,1.44,0,0,1-1.73.91,1.32,1.32,0,0,1-1-1.59C231.77,143.84,232.24,142.19,232.76,140.54Z" transform="translate(-25 -43.18)"/><path class="cls-5" d="M224.41,132.19c.75-2.48,1.43-5,2.1-7.47a1.37,1.37,0,0,1,1.35-.94h.3a1.31,1.31,0,0,1,1,1.58v0c-.66,2.48-1.32,4.93-2.07,7.36s-1.4,4.46-2.09,6.72a1.46,1.46,0,0,1-1.74.91,1.3,1.3,0,0,1-1-1.55v0C223,136.6,223.75,134.39,224.41,132.19Z" transform="translate(-25 -43.18)"/><path class="cls-5" d="M214,129.1c.33-1.21.66-2.45,1-3.64.55-1.73,1.1-3.44,1.68-5.15a1.4,1.4,0,0,1,1.35-1h.36a1.3,1.3,0,0,1,1,1.53.64.64,0,0,1,0,.07c-.58,1.71-1.13,3.42-1.68,5.16-.36,1.21-.69,2.42-1,3.63-.69,2.46-1.18,4.94-1.76,7.42a1.41,1.41,0,0,1-1.71.91,1.34,1.34,0,0,1-1-1.59h0C212.84,134,213.33,131.55,214,129.1Z" transform="translate(-25 -43.18)"/><path class="cls-5" d="M204.35,122.9c.36-1.08.74-2.15,1.05-3.23.44-1.59.9-3.19,1.29-4.79a1.36,1.36,0,0,1,1.35-.94h.36a1.3,1.3,0,0,1,1,1.55l0,.05c-.35,1.57-.8,3.14-1.24,4.71-.3,1.08-.69,2.15-1,3.23a60.66,60.66,0,0,0-1.8,6.89,1.42,1.42,0,0,1-1.7.91,1.38,1.38,0,0,1-.86-.61,1.28,1.28,0,0,1-.14-1A60.84,60.84,0,0,1,204.35,122.9Z" transform="translate(-25 -43.18)"/><path class="cls-5" d="M115.72,81.17a14.74,14.74,0,0,0,0,1.88v1.1a4.67,4.67,0,0,0,.22,1.1,4.76,4.76,0,0,0,.49,1.16,6.23,6.23,0,0,0,1.93,2.21,5.77,5.77,0,0,0,2.48,1,7.52,7.52,0,0,0,2,0,5.88,5.88,0,0,0,1.38-.31,7.73,7.73,0,0,0,2.29-1.07,11.62,11.62,0,0,0,1.9-1.52l1.49-1.54c.5-.52,1-1,1.46-1.6a15.53,15.53,0,0,0,2.56-3.91,18.3,18.3,0,0,0,1.22-3.8,1.33,1.33,0,0,0,0-1,1.48,1.48,0,0,0-.83-.6,1.46,1.46,0,0,0-1.74.91,18.64,18.64,0,0,1-1.13,3.61,14.51,14.51,0,0,1-.85,1.48c-.33.47-.66,1-1,1.44s-1.3,1.38-2,2.09l-1,1.08a11.67,11.67,0,0,1-1.07.91,5.88,5.88,0,0,1-3.09,1.29,4.61,4.61,0,0,1-.91,0c-.25,0-.5-.1-.74-.16l-.69-.39-.58-.55a6.27,6.27,0,0,1-.61-1,4.22,4.22,0,0,1-.24-.86,15.52,15.52,0,0,1,0-4,11.42,11.42,0,0,1,.46-1.92c.22-.67.5-1.33.75-2l.77-2.23c.25-.75.47-1.46.77-2.18.14-.28.3-.56.47-.83l.22-.19h0l.69-.16h3.09a36.61,36.61,0,0,0,3.77-.31,26.09,26.09,0,0,0,3.28-.66,33.38,33.38,0,0,0,3.39-.94,31.16,31.16,0,0,0,7.88-4.32c1.19-.83,2.32-1.66,3.56-2.4.66-.39,1.35-.74,2-1.1s1.1-.55,1.68-.8a42.37,42.37,0,0,1,7.77-1.9c.83,0,1.65-.14,2.48-.14l2.32.16a10.36,10.36,0,0,1,2.2.39,23.55,23.55,0,0,1,2.32.66l.71.33a14.65,14.65,0,0,1,1.63.94,7.23,7.23,0,0,1,1.18,1.1,10.32,10.32,0,0,1,1,1.6c.2.44.39.91.55,1.35a11.13,11.13,0,0,1,.47,1.87,12.77,12.77,0,0,1,0,3.15,11.9,11.9,0,0,1-.63,2.34,20.31,20.31,0,0,1-2,2.76,7.52,7.52,0,0,1-1.07,1l-.83.44-1.68.53a1.29,1.29,0,0,0-1,1.55v0a1.41,1.41,0,0,0,1.71.9,10.57,10.57,0,0,0,3.89-1.73,12.65,12.65,0,0,0,2-2.34,12.8,12.8,0,0,0,1.51-2.54,11,11,0,0,0,.78-2.76,14,14,0,0,0,0-2.59,12.32,12.32,0,0,0-.64-3.39,17.66,17.66,0,0,0-1.1-2.48,9.11,9.11,0,0,0-1.76-2.2,10.88,10.88,0,0,0-2.24-1.57,11.94,11.94,0,0,0-1.93-.86,16.41,16.41,0,0,0-2.2-.66c-.74-.16-1.52-.3-2.29-.41a24.82,24.82,0,0,0-2.53-.22h-2.18a37.35,37.35,0,0,0-4.6.74A40.77,40.77,0,0,0,151,57.45a33.24,33.24,0,0,0-7.8,4.38A36.33,36.33,0,0,1,136,66a37.81,37.81,0,0,1-3.72,1,26.09,26.09,0,0,1-3.5.69c-1.38,0-2.76.19-4.16.19a11,11,0,0,0-2.29,0,1.69,1.69,0,0,0-.55,0,3.29,3.29,0,0,0-1.13.42,3.93,3.93,0,0,0-1.07,1,4.4,4.4,0,0,0-.61,1c-.66,1.44-1.08,3-1.6,4.41A28.34,28.34,0,0,0,116,78.67C115.88,79.63,115.8,80.4,115.72,81.17Zm57.87-9.39M173,63v0ZM124,86.66h0Z" transform="translate(-25 -43.18)"/><path class="cls-5" d="M126.19,87.84l.41.39h.2a10.15,10.15,0,0,0,1.35.3,9.52,9.52,0,0,0,1.51,0,6.68,6.68,0,0,0,1.38-.36,14.47,14.47,0,0,0,2.37-1.4c.52-.39,1.05-.77,1.54-1.19a18.35,18.35,0,0,0,1.57-1.51c.5-.53.91-1,1.41-1.44l1.57-1.57c.5-.49.91-1,1.43-1.46a10.6,10.6,0,0,1,1.8-1.4A15.56,15.56,0,0,1,147,76.63a20.5,20.5,0,0,1,4.55-.47h.25c1.41,0,2.76.19,4.27.27,3.06.14,6.15.28,9.21.17a11.82,11.82,0,0,0,2.75-.22h.22a1.75,1.75,0,0,1,1.08.14,1.39,1.39,0,0,1,.66.77,1.49,1.49,0,0,1,0,1,1.4,1.4,0,0,1-.86.58,36.94,36.94,0,0,1-4.93.38h-4.68l-4.5-.22a36.2,36.2,0,0,0-4.3-.16l-1.59.13a17.58,17.58,0,0,0-3.2.78l-1,.44a8.51,8.51,0,0,0-2.56,1.93c-.47.49-.94,1-1.44,1.46s-1,1-1.48,1.49-1,1.1-1.58,1.62a30.56,30.56,0,0,1-3.44,2.76,11.65,11.65,0,0,1-2,1.13,10.06,10.06,0,0,1-2.76.63,7.37,7.37,0,0,1-2.2,0l-1-.19a6.1,6.1,0,0,1-.91-.31,3.15,3.15,0,0,1-1.35-1,1.29,1.29,0,0,1-.41-.91,1.21,1.21,0,0,1,.41-.91A1.45,1.45,0,0,1,126.19,87.84Z" transform="translate(-25 -43.18)"/><path class="cls-6" d="M157.83,63.23a1.91,1.91,0,0,1,.88-.22,1.62,1.62,0,0,1,.44,0,1.67,1.67,0,0,1,.63,0,1.3,1.3,0,0,1,.61.33,1.46,1.46,0,0,1,.39.72.81.81,0,0,1,0,.22,1.45,1.45,0,0,1-1.46,2h-.06a2.54,2.54,0,0,1-.77.13,1.59,1.59,0,0,1-1.6-1.62,1.86,1.86,0,0,1,.58-1.27A1.54,1.54,0,0,1,157.83,63.23Z" transform="translate(-25 -43.18)"/><path class="cls-5" d="M162.9,54.91a1.31,1.31,0,0,1,0-.28h0c.3-1.35.63-2.75.94-4,.22-.83.44-1.65.68-2.45a13.73,13.73,0,0,1,1.11-2.76,11.88,11.88,0,0,1,.85-1.16,7.16,7.16,0,0,1,1-.88h0a1.61,1.61,0,0,1,.72-.16h.14a1.51,1.51,0,0,1,.52,0h.33a2.14,2.14,0,0,1,.44.3,2.63,2.63,0,0,1,.52.88,4.81,4.81,0,0,1-.16,2.76,16.71,16.71,0,0,1-1.08,2.75L168.38,51l-.47.91c-.22.36-.44.72-.68,1.07v.28c-.31.69-.67,1.35-1,2a1.38,1.38,0,0,1-.8.58v.3a1.47,1.47,0,0,1-1.74.91,1.3,1.3,0,0,1-1-1.55l0,0A1.54,1.54,0,0,0,162.9,54.91Z" transform="translate(-25 -43.18)"/><path class="cls-5" d="M172,62.1a.72.72,0,0,0,.24.28,1.15,1.15,0,0,0-.22,1.1,1.41,1.41,0,0,0,1.55.94,11.77,11.77,0,0,0,1.68,0,13.2,13.2,0,0,0,3.47-.58,17.83,17.83,0,0,0,2.45-1,9.64,9.64,0,0,0,2.12-1.46,2.72,2.72,0,0,0,1-2.53,2.29,2.29,0,0,0-1.73-1.65,8.55,8.55,0,0,0-1.24,0,10.7,10.7,0,0,0-2,.22,15.65,15.65,0,0,0-3.47,1.13,18.36,18.36,0,0,0-3.34,1.76,1.34,1.34,0,0,0-.63.77A1.12,1.12,0,0,0,172,62.1Zm9.61-2.92,0,.19M175,61.94l1.15-.61c.64-.3,1.3-.58,1.93-.83a14,14,0,0,1,2.29-.6h.8l-.33.27a10.18,10.18,0,0,1-1.93,1,13,13,0,0,1-2.76.72,8.53,8.53,0,0,1-1.24,0Z" transform="translate(-25 -43.18)"/><path class="cls-5" d="M275,207.73a2.12,2.12,0,0,0,.25.82,1.72,1.72,0,0,0,.41.55,2.78,2.78,0,0,0,.88.69,3.16,3.16,0,0,0,1.35.33,3.89,3.89,0,0,0,1.27-.16,6,6,0,0,0,1.16-.52,2.76,2.76,0,0,0,.94-.89,1.63,1.63,0,0,0,.41-2,4.27,4.27,0,0,0-.3-.44l.49-.6a25.28,25.28,0,0,0,1.6-2.24c.94-1.4,1.82-2.75,2.76-4.41l1.07-2.09a18.62,18.62,0,0,0,.8-1.9c.47-1.46.91-2.9,1.35-4.36s.83-2.56,1.21-3.83.78-2.75,1.13-4.24c.72-2.76,1.6-5.51,2.4-8.13.39-1.38.72-2.76,1.1-4.16.2-.66.36-1.3.5-2a17.12,17.12,0,0,0,.44-2.75,1.2,1.2,0,0,0-.41-.91,1.38,1.38,0,0,0-1-.39,1.48,1.48,0,0,0-1,.39,1.4,1.4,0,0,0-.41.91v.41l-.25,1.38-.49,1.93c-.31,1.07-.58,2.15-.89,3.22-.63,2.37-1.37,4.69-2.06,7-.39,1.29-.69,2.75-1.05,3.94s-.77,2.75-1.24,4.19L286,191.36c-.22.74-.44,1.48-.69,2.23s-.44,1.21-.68,1.79a51.8,51.8,0,0,1-2.57,4.68,38,38,0,0,1-3,4.36l-.44.47a2.22,2.22,0,0,0-.89,0l-.66.27h0a2.87,2.87,0,0,0-1.13.39A2.09,2.09,0,0,0,275,207.73Zm18.27-41.89-14.22,38.8a.52.52,0,0,0,.14-.19.58.58,0,0,1-.19.16Z" transform="translate(-25 -43.18)"/><path class="cls-5" d="M262.36,239.56a18.22,18.22,0,0,0-.58,4.35,16,16,0,0,0,0,2v2.18a1.57,1.57,0,0,0,.41.6,1.36,1.36,0,0,0,1.8.42h0a1.51,1.51,0,0,0,.85-.61,1.15,1.15,0,0,0,0-1,.81.81,0,0,0,0-.31h0a20.57,20.57,0,0,1,0-5.2,31.17,31.17,0,0,1,2.43-7.42c.6-1.27,1.24-2.53,1.87-3.8s1.32-2.56,1.9-3.89,1.16-2.75,1.71-4.08c.22-.6.41-1.24.66-1.84s.47-1.11.72-1.66a62.83,62.83,0,0,0,3.64-10.17,1.27,1.27,0,0,0-.9-1.55l-.07,0a1.09,1.09,0,0,0-.36,0,1.46,1.46,0,0,0-1.38.94,59.74,59.74,0,0,1-2.75,8c-.36.77-.75,1.57-1.1,2.37s-.61,1.52-.89,2.29c-.6,1.62-1.29,3.22-2,4.82s-1.9,3.91-2.76,5.84A38.89,38.89,0,0,0,262.36,239.56Zm9.92-23.24v0Zm-4,9.6v0Zm0,.13" transform="translate(-25 -43.18)"/><path class="cls-5" d="M264.84,246.75a5.86,5.86,0,0,0-.39-1.16c-.19-.41-.41-.8-.6-1.18s-.39-.64-.55-1a1.27,1.27,0,0,1-.14-1,1.23,1.23,0,0,1,.5-.69,16.69,16.69,0,0,1-.89-1.6,1.29,1.29,0,0,1-.13-1,1.37,1.37,0,0,1,.63-.77,1.61,1.61,0,0,1,.72-.16.69.69,0,0,1,.35,0,1.36,1.36,0,0,1,.86.58,12.85,12.85,0,0,0,1.1,1.9l.44.58a29.42,29.42,0,0,1,1.9,2.28,10.16,10.16,0,0,1,1.3,2.54l.16.63a1.67,1.67,0,0,1,0,.94,1.91,1.91,0,0,1-.91,1,3.82,3.82,0,0,1-.93.39l-.58.19-.75.19c-.57,0-1.18.22-1.76.28a2.79,2.79,0,0,1-2.31-.41,1.28,1.28,0,0,1-.22-1.57C263,247,264,246.86,264.84,246.75Z" transform="translate(-25 -43.18)"/><path class="cls-5" d="M293.56,164v13.06a28.94,28.94,0,0,0,.38,3.94c.17,1.32.5,3.06.8,4.6s.55,2.76.8,4.11.44,2.76.66,4l.33,2.15c.14.66.31,1.35.47,2a29,29,0,0,0,1.3,3.74,2.07,2.07,0,0,0,.3.78l-.39.13a2.41,2.41,0,0,0-1,1,2,2,0,0,0,0,1.85,2.93,2.93,0,0,0,.77,1.1,3.22,3.22,0,0,0,1.29.83h0A24.81,24.81,0,0,0,301,210.1l2.26,3.61c1.52,2.37,3.09,4.71,4.6,7.11s3.31,5,5.05,7.41a38.3,38.3,0,0,0,2.75,3.34,36.29,36.29,0,0,1,2.43,3.27c.8,1.11,1.65,2.24,2.45,3.39a44.54,44.54,0,0,0,2.76,3.67,22.45,22.45,0,0,0,3,3,14.93,14.93,0,0,0,1.26,1,4.68,4.68,0,0,0,2.76.66,8.48,8.48,0,0,0,3.06-1l1.29-.69a13.35,13.35,0,0,0,1.68-1.08l1.05-.8.39-.35a1.47,1.47,0,0,0,.36-1.49,1.35,1.35,0,0,0-.36-.58,1,1,0,0,0-.36-.28,2.7,2.7,0,0,0-.44-.24c-.39-.14-.77-.31-1.19-.42l-1.1-.3c-.72-.19-1.43-.33-2.15-.5l-4.3-.77L326,237.6l-1-.19-.69-.14a2.2,2.2,0,0,0-1,0l-.85-1.24-2.76-3.89c-.8-1.1-1.65-2.17-2.5-3.25s-1.77-2.29-2.59-3.47-1.69-2.34-2.46-3.56-1.54-2.42-2.34-3.63c-1.57-2.4-3.14-4.77-4.66-7.17-.74-1.21-1.51-2.42-2.23-3.64h0a1.92,1.92,0,0,0,.25-.52v-.19a1.51,1.51,0,0,0,.22-.44v-.33a2.89,2.89,0,0,0,0-.72,2.36,2.36,0,0,0-.39-.69l-.44-.58a4.51,4.51,0,0,0-.55-.52c-.14-.47-.3-1-.47-1.41-.49-1.27-1-2.53-1.4-3.83a31.7,31.7,0,0,1-.91-4c-.22-1.35-.42-2.75-.64-4.08-.47-2.75-1.07-5.51-1.57-8.26v-.67c-.2-1.32-.34-2.65-.41-4V164.1a1.54,1.54,0,0,0-3-.14A.13.13,0,0,0,293.56,164Zm40.76,78.07" transform="translate(-25 -43.18)"/><path class="cls-5" d="M212.56,180.3a1.33,1.33,0,0,0,0,1c.85,1.65,1.68,3.3,2.51,5l.91,2.09a35.14,35.14,0,0,1,1.35,3.72c.41,1.43.8,2.76,1.16,4.33.68,2.75,1.26,5.29,1.7,8,0,1.07.25,2.18.34,3.25a7.85,7.85,0,0,0,.13,1.74v1.07l-.19.17a1.88,1.88,0,0,0-.44.71,2.18,2.18,0,0,0,.85,2.76,4.24,4.24,0,0,0,1.74.72v.33c0,.11.19.77.28,1.13l.57,2c.17.63.33,1.26.56,1.87.46,1.35,1,2.76,1.48,4s1,2.76,1.52,4.11.88,2.76,1.29,4.19.75,2.76,1.13,4,.91,2.75,1.41,4.16c1,2.59,1.76,5.26,2.76,7.88.19.58.41,1.16.6,1.76a16.93,16.93,0,0,0,.66,1.85h0a3.17,3.17,0,0,0,.2,1.35c.19.44,0,.63.19,1a3.06,3.06,0,0,0,2,2,13.24,13.24,0,0,0,1.46.5,3.35,3.35,0,0,0,1.41,0,9.23,9.23,0,0,0,1.46-.3,1.75,1.75,0,0,0,.6-.36,2,2,0,0,0,1.22-.83,2.15,2.15,0,0,0,0-1.79,5.78,5.78,0,0,0-.69-1.24,11.22,11.22,0,0,0-1.74-1.9c-.58-.55-1.18-1.05-1.79-1.57l-.85-.66a10.52,10.52,0,0,0-1.33-1,1.37,1.37,0,0,0-.93-.16l-.75-2.15c-.41-1.3-.85-2.76-1.29-3.92s-1.05-2.75-1.52-4.3-.8-2.75-1.18-4a81.48,81.48,0,0,0-2.54-7.88c-.5-1.3-1-2.76-1.49-3.94s-.93-2.76-1.32-4.11c-.19-.74-.41-1.49-.58-2.23a1.27,1.27,0,0,0,0-.39,4.21,4.21,0,0,0,1.1-.82,2.53,2.53,0,0,0,.64-1.52,2.1,2.1,0,0,0-.64-1.38,5,5,0,0,0-1.21-1.07,3.72,3.72,0,0,0-1.49-.44h-.44c-.16-1.77-.27-3.5-.52-5.24-.36-2.2-.8-4.41-1.33-6.59-.35-1.46-.74-2.92-1.13-4.38a39.77,39.77,0,0,0-1.32-4.08c-.19-.58-.44-1.15-.69-1.73s-.6-1.44-.93-2.13l-2.54-5a1.34,1.34,0,0,0-1.21-.63,1.18,1.18,0,0,0-.69.19A1.3,1.3,0,0,0,212.56,180.3Zm2.54,5.76" transform="translate(-25 -43.18)"/><path class="cls-5" d="M195.89,185.68Z" transform="translate(-25 -43.18)"/><path class="cls-5" d="M179.65,201.06a5.55,5.55,0,0,1,1.33-2,27.62,27.62,0,0,1,3-2.76c1-.83,2.29-2.07,3.5-3l3.42-2.59,1.85-1.52a31.94,31.94,0,0,0,3.14-3.44.31.31,0,0,0,0,.19l.16-.22h0c1.3-1.54,2.48-3.2,3.64-4.85l.94-1.32.49-.69c.5-.8,1-1.63,1.44-2.48a1.35,1.35,0,0,1,1.21-.64,1.65,1.65,0,0,1,.72.17,1.49,1.49,0,0,1,.63.77,1.35,1.35,0,0,1-.14,1c-.41.8-.91,1.57-1.38,2.37a17.63,17.63,0,0,1-1.21,1.74c-.94,1.32-1.9,2.75-2.75,3.94a35.69,35.69,0,0,1-4.08,4.6c-.86.8-1.8,1.49-2.76,2.23s-2.29,1.71-3.42,2.76-2.34,2-3.47,3-1.54,1.35-2.26,2.1a4.31,4.31,0,0,1,.88,0,3.49,3.49,0,0,1,2.29,1.95,2.43,2.43,0,0,1,.14,1.46,2.78,2.78,0,0,1-.8,1.41l-.25.16h0c0,.21,0,.43,0,.64a1.85,1.85,0,0,1-.33.85,15.79,15.79,0,0,0,.58,1.63c.27.71.55,1.46.83,2.15.49,1.27,1,2.48,1.51,3.72,1.13,2.75,2.4,5.51,3.47,8.27.5,1.24.89,2.48,1.27,3.72s.91,2.75,1.38,4.27,1,3,1.46,4.52a1.32,1.32,0,0,1,.94.63l1.46,2.76.55,1,.72,1.21c.46.53,1,1,1.4,1.6h0l.83.72c.55.47,1.07,1,1.6,1.46s1,1,1.57,1.57c.23.25.45.52.66.8a2.26,2.26,0,0,1,.55,1,1.55,1.55,0,0,1,0,.8,1.64,1.64,0,0,1-.44.72l-.77.52a11.05,11.05,0,0,1-2.1,1.1,9.34,9.34,0,0,1-3,.69,4.86,4.86,0,0,1-1.32,0,2.72,2.72,0,0,1-1.4-.66,2.07,2.07,0,0,1-.61-1.13,3.68,3.68,0,0,1,0-.47l-.17-1a13.21,13.21,0,0,0-.3-2c-.28-1.32-.58-2.76-.94-4s-.74-2.75-1.15-3.91c-.83-2.76-1.69-5.51-2.57-8.07-.44-1.27-.82-2.57-1.24-3.84s-1-2.75-1.51-4.24-1-2.51-1.6-3.75-1.16-2.59-1.68-3.91-1.19-2.76-1.74-4.27l-.74-2c-.14-.44-.31-.91-.42-1.4a3.87,3.87,0,0,1-2-.8,3.23,3.23,0,0,1-.83-.94,3.87,3.87,0,0,1-.41-1.6,5.77,5.77,0,0,1,0-1.76A3.92,3.92,0,0,1,179.65,201.06Z" transform="translate(-25 -43.18)"/><path class="cls-5" d="M181.8,200.67a1.28,1.28,0,0,0,.22,1.57,1.5,1.5,0,0,0,1,.39,1.35,1.35,0,0,0,.71-.19,4.12,4.12,0,0,0,.75-.47l.71-.44,1.69-1.27,2.75-2.34,2.76-2.57c1-.82,2-1.57,3-2.34a43.67,43.67,0,0,0,6.36-5.87c1-1.1,2-2.29,2.9-3.47.38-.5.8-1,1.16-1.55a10.63,10.63,0,0,0,1.15-2,7.92,7.92,0,0,0,.58-2.76,1.36,1.36,0,0,0-1.4-1.29,1.42,1.42,0,0,0-.83.24,1.63,1.63,0,0,0-1.52,0,1.93,1.93,0,0,0-.63.61l-.33.44-1,1.41c-.75,1.07-1.38,2.2-2.15,3.28-.44.49-.91,1-1.41,1.46s-1.07,1.11-1.57,1.71c-.91,1.1-1.73,2.23-2.75,3.33-.47.55-1,1.07-1.49,1.57l-1.6,1.52L188,194.44l-3.23,3.14-1.54,1.47-.66.63A6.61,6.61,0,0,0,181.8,200.67Zm18.14-18.74" transform="translate(-25 -43.18)"/><path class="cls-5" d="M215.45,181.52a1.41,1.41,0,0,1,.69-.17,1.27,1.27,0,0,1,.39,0,1.4,1.4,0,0,1,.83.58A18.15,18.15,0,0,1,219.7,186a28.75,28.75,0,0,1,1.07,4c.31,1.32.64,2.61.89,3.94s.46,2.75.6,4.24.25,2.4.41,3.58.47,2.76.69,4.33a21.28,21.28,0,0,1,.31,2.4v2.09a1.41,1.41,0,0,1-2.81,0,16.78,16.78,0,0,0-.2-3.17c-.3-1.87-.63-3.72-.88-5.51s-.44-3.83-.69-5.73a43.64,43.64,0,0,0-1-4.91c-.19-.8-.36-1.62-.55-2.42a22,22,0,0,0-.72-2.26,19.85,19.85,0,0,0-2-3.25,1.23,1.23,0,0,1,.39-1.71A1.06,1.06,0,0,1,215.45,181.52Z" transform="translate(-25 -43.18)"/><path class="cls-5" d="M277.41,203.51c.44-1,.91-1.9,1.38-2.76s1-2,1.59-3.06,1-1.95,1.41-2.92,1-2.5,1.52-3.77,1.1-2.76,1.57-4c.91-2.62,1.46-5.32,2.31-7.94.47-1.46,1-2.89,1.43-4.35.2-.69.42-1.38.61-2.07s.33-1.6.47-2.39h0a1.4,1.4,0,0,1,.41-.91,1.46,1.46,0,0,1,2,0,1.2,1.2,0,0,1,.41.91,19.23,19.23,0,0,1-.44,2.5,18,18,0,0,1-.52,1.91c-.42,1.35-.86,2.75-1.3,4s-.72,2.15-1,3.22c.66-1.4,1.35-2.75,2-4.16.17-.27.3-.58.44-.85a1.45,1.45,0,0,1,1.9-.47,1.36,1.36,0,0,1,.66.77,1.3,1.3,0,0,1-.13,1c-.8,1.57-1.6,3.14-2.37,4.74a32.88,32.88,0,0,0-1.55,3.8c-.47,1.3-.93,2.76-1.35,4.14a27.67,27.67,0,0,1-1.57,4,38.23,38.23,0,0,1-2.26,3.94l-1.4,2.18c-.44.74-.83,1.52-1.27,2.26a26.81,26.81,0,0,1-1.57,2.26l-1,1.21c-.47.53-1,1.24-1.79,1.35a1.44,1.44,0,0,1-1.08,0,1.31,1.31,0,0,1-.63-.77,3.1,3.1,0,0,1,.38-2Z" transform="translate(-25 -43.18)"/><path class="cls-5" d="M290.88,177.08a1.31,1.31,0,0,0,.92,1.59h.05a1.43,1.43,0,0,0,1.73-.91,2,2,0,0,1,.28-.74c.47-1,.94-2,1.38-3.09l.49-1.35v1.79c.28,2.76.47,5.51.72,8.05a39.22,39.22,0,0,0,.63,4.57c.28,1.35.53,2.76.75,4.05.33,2.26.58,4.55.94,6.84a29.8,29.8,0,0,0,.71,3.11c.36,1.21.69,2.43,1,3.64a1.44,1.44,0,0,0,1.73.91,1.29,1.29,0,0,0,1-1.55V204c-.31-1.35-.72-2.76-1.08-4-.16-.66-.33-1.33-.47-2s-.19-1-.27-1.6c-.25-2-.47-3.94-.8-5.93-.14-1-.3-2-.5-2.95s-.38-1.84-.55-2.75a23,23,0,0,1-.25-2.54c-.05-.85-.13-1.68-.22-2.53,0-1.41-.24-2.76-.35-4.22a32.26,32.26,0,0,1-.25-4.05c0-1.27.16-2.56.19-3.86v-3.78a1.43,1.43,0,0,0-1.59-1.25,1.46,1.46,0,0,0-1.17.9c-.33,1-.71,1.87-1.07,2.75a29.05,29.05,0,0,0-.94,3.06,41.59,41.59,0,0,1-2,5.51A16.51,16.51,0,0,0,290.88,177.08Zm2.76.25v0ZM291.71,175a.81.81,0,0,1,0-.22,1.43,1.43,0,0,0,.08.22Z" transform="translate(-25 -43.18)"/><path class="cls-5" d="M239.51,133.32c.47-.53,1-1,1.46-1.52a42.53,42.53,0,0,0,2.76-3.25,24.25,24.25,0,0,1,3.17-3c1.07-1,2-1.85,3-2.76s2.12-2.15,3.22-3.19c.5-.47,1.05-.89,1.57-1.33l1.85-1.51c1-.86,2.06-1.77,3.17-2.56s2.59-1.93,4-2.76c.93-.55,1.87-1,2.75-1.6L268,109l1.71-1.1c.91-.58,1.79-1.18,2.75-1.79a16.6,16.6,0,0,1,1.55-1l2.06-1.27a1.23,1.23,0,0,1,.69-.2,1.45,1.45,0,0,1,1.22.67,1.23,1.23,0,0,1-.4,1.7l-.1.06a39.64,39.64,0,0,0-3.89,2.43l-3.91,2.59c-1.13.74-2.34,1.37-3.53,2s-2.12,1.32-3.17,2a39.59,39.59,0,0,0-3.22,2.56l-3.47,2.76a38.55,38.55,0,0,0-3.31,3.08l-3.09,3c-.82.8-1.71,1.51-2.53,2.31a27.71,27.71,0,0,0-2.59,2.76c-.8,1-1.57,1.82-2.43,2.75-.38.39-.77.78-1.1,1.16s-.8.91-1.19,1.35a1.35,1.35,0,0,1-1,.39,1.47,1.47,0,0,1-1-.39,1.13,1.13,0,0,1-.41-.91,1.33,1.33,0,0,1,.41-.91C238.6,134.36,239.18,133.84,239.51,133.32Z" transform="translate(-25 -43.18)"/><path class="cls-5" d="M227.86,122.93a23,23,0,0,1-.22,3.88,1.35,1.35,0,0,0,1.4,1.3h0a1.39,1.39,0,0,0,1.41-1.3,27,27,0,0,1,.16-3.58c.17-1.21.17-2.56.22-3.89s.14-2.75.25-4a6.7,6.7,0,0,1,.14-1.68,6.12,6.12,0,0,0,0-1.6h2.45l2.43.25,3.17.52,4.27.83,1.26.27a3.82,3.82,0,0,0,2.93,0,1.43,1.43,0,0,0,.69-.85,1.8,1.8,0,0,0,0-.8.64.64,0,0,0-.2-.55,2.9,2.9,0,0,1-.36-.88l-1.43-3.89c-.22-.69-.47-1.35-.69-2l-.47-1.32h0l5.29.85c1.36.22,2.76.5,4,.75l1.6.38,1.15.31.5.14a7.6,7.6,0,0,0,1.16.3,1.61,1.61,0,0,0,1.35-.33,1.4,1.4,0,0,0,.41-.94,3.77,3.77,0,0,0-.33-1.32l-.25-1c-.13-.69-.3-1.37-.44-2-.27-1.48-.55-2.95-.8-4.43l2.37.35c1,.2,1.9.42,2.76.67s2,.52,2.92.8,2,.66,2.95,1A1.47,1.47,0,0,0,271,99a1.24,1.24,0,0,0,.53-1.79,1.52,1.52,0,0,0-.86-.58c-1.84-.69-3.75-1.24-5.65-1.77a31.18,31.18,0,0,0-4.19-.88c-.82,0-1.65-.25-2.5-.33h-.64a1.82,1.82,0,0,0-.85.25,1.53,1.53,0,0,0-.58.55,2.12,2.12,0,0,0-.22.61,3.3,3.3,0,0,0,0,.77,9.75,9.75,0,0,0,.22,1.49c.33,2,.66,4,1.16,6l-.66-.17-1.66-.38c-1.35-.28-2.75-.53-4.1-.75l-4.11-.69-1.82-.27c-.72,0-1.46-.28-2.2-.33a1.45,1.45,0,0,0-1.22.63,1.26,1.26,0,0,0,0,1.32,4,4,0,0,0,.33.47l.28.5a27.89,27.89,0,0,1,1,2.75c.31.94.58,1.63.89,2.43s.52,1.46.79,2.2l.17.44-1-.22c-.69-.16-1.38-.3-2.09-.41-1.33-.28-2.76-.55-4-.74s-2.89-.42-4.35-.5h-2a3.4,3.4,0,0,0-2.43.77l-.33.39a2.16,2.16,0,0,0-.3,1v1.07l-.17,2.15c-.13,1.38-.22,2.76-.27,4.11S227.94,121.58,227.86,122.93Zm14.46-19.3v0Z" transform="translate(-25 -43.18)"/><path class="cls-5" d="M213.72,109.56l3.75-2.23c2.59-1.55,5.23-3,7.8-4.58,1.32-.8,2.75-1.6,4-2.37s2.62-1.46,3.94-2.17c2.76-1.44,5.21-3,7.83-4.47,1.24-.69,2.53-1.35,3.86-2s2.75-1.18,3.91-1.81c.66-.34,1.32-.67,2-1s1.32-.72,2-1.13l4-2.43,4.32-2.48a1.53,1.53,0,0,1,.69-.17,1.49,1.49,0,0,1,1.22.64,1.23,1.23,0,0,1-.37,1.71.57.57,0,0,1-.13.08l-4.22,2.4-4,2.45c-.63.39-1.3.74-2,1.1l-1.93,1L246.43,94a36.56,36.56,0,0,0-3.91,2l-3.89,2.23c-1.29.77-2.75,1.51-3.91,2.23s-2.76,1.43-4,2.18c-2.76,1.51-5.24,3.11-7.88,4.63s-5.07,3-7.64,4.52c-1.18.69-2.39,1.4-3.52,2.17h0a1.55,1.55,0,0,1-.94.34,1.5,1.5,0,0,1-1-.39,1.26,1.26,0,0,1-.42-.91,1.19,1.19,0,0,1,.42-.91A45.77,45.77,0,0,1,213.72,109.56Z" transform="translate(-25 -43.18)"/><path class="cls-5" d="M229.18,75.77a1.24,1.24,0,0,0,.4,1.71l.09.06a20.86,20.86,0,0,0,2.43.91l2.4.6a26.67,26.67,0,0,0,4.71.72,22.5,22.5,0,0,0,4.71-.19,38,38,0,0,0,4.38-.83c.83-.22,1.63-.41,2.43-.66a17.59,17.59,0,0,0,2-.72,16.59,16.59,0,0,0,2.56-1.46,1.47,1.47,0,0,0,.64-.77,1.26,1.26,0,0,0-.14-1,1.37,1.37,0,0,0-.83-.58h-.41a1.09,1.09,0,0,0-.66.19,16.82,16.82,0,0,1-2.76,1.52,37.39,37.39,0,0,1-4.55,1.27l-2.31.47-1.76.22H238.3c-1.16-.17-2.29-.39-3.42-.67a24.4,24.4,0,0,1-3.11-.88l-.66-.27a1.54,1.54,0,0,0-1.08,0A1.36,1.36,0,0,0,229.18,75.77Zm21.74-.47-19.29.17h0Z" transform="translate(-25 -43.18)"/><path class="cls-5" d="M228.6,76.85a1.25,1.25,0,0,0,.4,1.71l.1,0c1,.63,2,1.3,3,2a39,39,0,0,1,3.09,2.48c.49.41,1,.82,1.4,1.26s.77.86,1.16,1.3a35,35,0,0,1,3.75,6.14,12.61,12.61,0,0,1,.69,1.8,1.41,1.41,0,0,0,1.71.91,1.33,1.33,0,0,0,1-1.59h0a19.63,19.63,0,0,0-1.66-3.75,39.12,39.12,0,0,0-2.15-3.56,20.2,20.2,0,0,0-2.89-3.44,52.62,52.62,0,0,0-7.69-5.76,1.09,1.09,0,0,0-.66-.19A1.44,1.44,0,0,0,228.6,76.85Zm3.58,3.83" transform="translate(-25 -43.18)"/><path class="cls-5" d="M225.13,85a1.29,1.29,0,0,0,0,1.83l0,0c.85.88,1.71,1.76,2.51,2.75s1,1.36,1.51,2a21.82,21.82,0,0,1,1.24,2.13,18.82,18.82,0,0,1,.8,2.17,16.17,16.17,0,0,1,.55,2,1.62,1.62,0,0,1,0,.44,1.34,1.34,0,0,0,.42.94,1.62,1.62,0,0,0,1,.36,1.35,1.35,0,0,0,1.4-1.29h0a15.87,15.87,0,0,0-.88-3.72,17.16,17.16,0,0,0-1.6-3.55,19.84,19.84,0,0,0-2.12-3C229,87,228,86,227,84.92a1.37,1.37,0,0,0-1-.36A1.74,1.74,0,0,0,225.13,85Zm6.61,13a.49.49,0,0,1,0,.17.49.49,0,0,0,0-.17Z" transform="translate(-25 -43.18)"/><path class="cls-5" d="M173.67,62.19v.13a1.71,1.71,0,0,0,.53.47,1.15,1.15,0,0,0,.71.22A1.54,1.54,0,0,0,176,63a11.74,11.74,0,0,0,3.39-1.16l1.57-.93,1.87-1.16a1.26,1.26,0,0,0,.53-1.71,1.37,1.37,0,0,0-.25-.33,1.29,1.29,0,0,0-1-.36,2.45,2.45,0,0,0-.88.2c-2.09.79-4.13,1.7-6.17,2.59a1.31,1.31,0,0,0-1,.13,1.27,1.27,0,0,0-.54,1.71Z" transform="translate(-25 -43.18)"/><path class="cls-7" d="M106.32,125a5.51,5.51,0,0,1,.1-1.06,1.13,1.13,0,0,1,.08-.24,6.65,6.65,0,0,1-.19-.93,4.29,4.29,0,0,1,.26-1.83,4.51,4.51,0,0,1,1.35-2,4.38,4.38,0,0,1,2.46-1l.31,0a4.24,4.24,0,0,1,1.94.38,5.3,5.3,0,0,1,1.1.7,5.75,5.75,0,0,1,.94.52,4.54,4.54,0,0,1,.45.21,7.34,7.34,0,0,1,3.16,3.44,5.39,5.39,0,0,1,.38,3.68,4.07,4.07,0,0,1-.51,1,4.23,4.23,0,0,1-.8.84,4,4,0,0,1-1.7.83,5.67,5.67,0,0,1-.59.61,5.48,5.48,0,0,1-1.36.88,7.94,7.94,0,0,1-2.14.61l-.11,0a5.74,5.74,0,0,1-.91.31,4.59,4.59,0,0,1-1.23.11,6,6,0,0,1-2.42-.61,5.78,5.78,0,0,1-1.71-1.24,5.65,5.65,0,0,1-1.29-1.88,2.39,2.39,0,0,1,.67-2.45A3.72,3.72,0,0,1,106.32,125Z" transform="translate(-25 -43.18)"/><path class="cls-1" d="M27.43,154c1.52-2.89,5.19-3.73,8.43-4.46l.93-.21,2.13-.53,1.07-.27a14.27,14.27,0,0,1,1.45-.28c.49-.08,1-.16,1.48-.22.25,0,.51,0,.77,0a12.68,12.68,0,0,1,1.78.09,2.35,2.35,0,0,1,1.67-.75,2.07,2.07,0,0,1,2.23,1.84,12.22,12.22,0,0,1-.19,2.81,6.09,6.09,0,0,1-.39,1.36c-.28.68-.62,1.34-1,2l-.45.87a16.84,16.84,0,0,1-1.48,2.34,15.78,15.78,0,0,1-2.38,2.57,33.94,33.94,0,0,1-2.77,2.11,10.42,10.42,0,0,1-1.28.75,14.3,14.3,0,0,1-1.32.59,10.06,10.06,0,0,1-2.44.55l-.49,0a10.78,10.78,0,0,1-1.68-.14,8.42,8.42,0,0,1-1.9-.56,6.3,6.3,0,0,1-1.75-1.1,9,9,0,0,1-1.54-1.76,8.83,8.83,0,0,1-1.51-3.46,6.4,6.4,0,0,1-.1-1.85A6.76,6.76,0,0,1,27.43,154Z" transform="translate(-25 -43.18)"/><path class="cls-1" d="M71,201.6l.08-.17a51.17,51.17,0,0,1,2.73-5.73A26.68,26.68,0,0,1,78,190.58c1.37-1.39,2.84-2.88,4.38-4.26,1.1-1,2.29-2,3.54-3a1.78,1.78,0,0,1,.23-1.2c.27-.48.52-1,.77-1.46l.11-.21a2,2,0,0,1,1.28-.9,2,2,0,0,1,.58-.09,2.27,2.27,0,0,1,1.1.24,1.94,1.94,0,0,1,.71.55c.44-.21.91-.41,1.37-.6a1,1,0,0,1-.37-.4l-.06-.1a1.84,1.84,0,0,1-.31-.92,2.42,2.42,0,0,1,.44-1.25c.1-.17.19-.34.28-.52l.08-.14.31-.63.41-.8c.5-1,1.11-2,1.7-2.9a46,46,0,0,1,4-5.21l.21-.25a33.54,33.54,0,0,0,4.2-6.71c.67-1.51,1.3-3,1.87-4.49a23.9,23.9,0,0,0,1.35-4.65l.08-.87a1.89,1.89,0,0,1,.61-1.35,2.23,2.23,0,0,1,.68-.42,1.84,1.84,0,0,1,.16-.31,2.17,2.17,0,0,1,1.27-.9,2.8,2.8,0,0,1,.58-.08,2.43,2.43,0,0,1,1.11.23,1.91,1.91,0,0,1,1,1.11,46.69,46.69,0,0,0,1.47,5.42c.46,1.31,1,2.61,1.55,3.86l.54,1.28c.69,1.68,1.38,3.45,2,5.27.55,1.48,1.2,3.21,2,4.87.62,1.13,1.17,2.06,1.75,2.92l.31.45c.21.31.42.61.61.92a2.3,2.3,0,0,1,.39,2,2.17,2.17,0,0,1-.22.46,29.92,29.92,0,0,1,4.56.91,25.66,25.66,0,0,1,6.47,2.94,27.94,27.94,0,0,1,5.09,4.2c.63.64,1.23,1.31,1.82,2l.42.46.59.66c.5.55,1,1.1,1.48,1.66.86,1,1.69,2,2.49,3l1.21,1.49a36.76,36.76,0,0,1,3.4,4.69,12.93,12.93,0,0,1,1.37,2.85,3.06,3.06,0,0,1,0,2.23,4.15,4.15,0,0,1-1.34,1.66,9.81,9.81,0,0,1-1.23.79,22.78,22.78,0,0,1-2.83,1.27,35.63,35.63,0,0,1-3.53,1.18c-.9.26-1.89.48-3.19.75-1.08.21-2.23.44-3.39.62-2.4.36-4.84.63-7.19.89-2.17.24-4.43.44-6.89.59-1.88.12-3.79.17-5.64.21l-1.17,0-1,0c-2.42.06-4.84.1-7.25.14l-5.33.1h-.4c-1.77,0-3.52.12-5.28.21l-1.27.06-1.52.05c-1.81,0-3.56,0-5,0-3.91-.07-7.82-.19-11.74-.3l-1,0h-.35a2.2,2.2,0,0,1-2.08-1.22,2.2,2.2,0,0,1-2.72-1.77,13.05,13.05,0,0,1,.34-3.57A19.34,19.34,0,0,1,71,201.6Z" transform="translate(-25 -43.18)"/><path class="cls-8" d="M91,178.16a1.81,1.81,0,0,0,1,2.1,2.41,2.41,0,0,0,2.19,0,11.84,11.84,0,0,0,1.09-.9l.11-.09h.22a6.3,6.3,0,0,0,1.82-.39l1.1-.33c.72-.22,1.44-.42,2.17-.61l.74-.19h.07a3.72,3.72,0,0,0,1.75-.13,18.69,18.69,0,0,0,2-.6,5.7,5.7,0,0,0,2.13-.22c.41-.09.81-.19,1.22-.26l.76-.13c.53-.07,1.06-.13,1.6-.16a35.39,35.39,0,0,1,5.25,0,19.78,19.78,0,0,1,3.53.64l.11.06a2.39,2.39,0,0,0,3-.74,1.65,1.65,0,0,0,.18-1.46,1.78,1.78,0,0,0-.57-.82l0,0a26.59,26.59,0,0,1-2.34-3.32c-.65-1-1.26-2.13-1.85-3.21-.12-.38-.25-.75-.4-1.13-.32-.82-.63-1.63-1-2.44-.17-.36-.33-.73-.5-1.09l-.19-.4-.16-.55c-.2-.66-.4-1.31-.61-2-.14-.44-.28-.88-.45-1.31-.11-.27-.19-.57-.31-.84a2.69,2.69,0,0,0-1.46-1.58,1.62,1.62,0,0,0-.28-.11c-.41-2.67-.81-5.34-1.09-8a1.85,1.85,0,0,0-.67-1.32,2.36,2.36,0,0,0-1.54-.51c-1.12,0-2.23.91-2.13,1.93s.25,2.1.39,3.15l-.13.18a4.75,4.75,0,0,0-.42,1,2,2,0,0,0-1.54.94,18.56,18.56,0,0,0-1.28,3.57c-.17.59-.34,1.18-.5,1.78-.22.83-.44,1.66-.67,2.49-.42.69-.84,1.38-1.24,2.07-.52.92-1,1.85-1.44,2.79-.82,1.75-1.6,3.51-2.4,5.27l-.32.23a3.4,3.4,0,0,0-.3.23l-.44.35c-.29.25-.59.5-.86.76a14.2,14.2,0,0,0-2,2.29l-.06.09-.11.08-.54.38a2.2,2.2,0,0,0-2.17,1.43,2.4,2.4,0,0,1-.12.38A4.19,4.19,0,0,0,91,178.16Zm25.42-1.89.16,0Z" transform="translate(-25 -43.18)"/><path class="cls-6" d="M84.16,183.89a7,7,0,0,1,1.73-2.17,14.92,14.92,0,0,1,6.22-3.25,44.65,44.65,0,0,1,7-1c2.37-.18,4.74-.32,7.11-.45,2.21-.12,4.42-.16,6.63-.22l4-.14c.89,0,1.79,0,2.68,0a22.59,22.59,0,0,1,5.26.7,15.63,15.63,0,0,1,4.17,1.9,5.62,5.62,0,0,1,.57.09,2,2,0,0,1,1.63,1.78,1.65,1.65,0,0,1-.31,1,1.88,1.88,0,0,1-.48.68,2.36,2.36,0,0,1-1.52.59,2.2,2.2,0,0,1-.7-.09l-.27.05-1.87.36c-1,.2-2.09.42-3.12.67-2.32.58-4.63,1.21-7,1.7a131,131,0,0,1-14.11,2.22c-2.23.22-4.47.21-6.71.21a55.05,55.05,0,0,1-7.27-.53,8.18,8.18,0,0,1-2.56-.71,2.68,2.68,0,0,1-1.38-1.57,2.14,2.14,0,0,1,0-1.15C84,184.34,84.06,184.11,84.16,183.89Z" transform="translate(-25 -43.18)"/><path class="cls-4" d="M77.79,191.21l1-1.47a9,9,0,0,1,1.83-2.18,8.63,8.63,0,0,1,.77-.52,4.49,4.49,0,0,1,1.76-.56,3.51,3.51,0,0,1,2.63.68,3.44,3.44,0,0,1,.64.74h.81c.47,0,1,0,1.43,0,.82,0,1.64,0,2.46,0l3.4,0q.9,0,1.83-.06c1.53,0,3.06,0,4.59,0,1.33,0,2.66,0,4,.07h.25l.66,0c2.34-.13,4.66-.38,7-.63s4.42-.59,6.64-.87l2-.25c.48-.06,1-.11,1.45-.14a6.83,6.83,0,0,1,1.69,0l.24-.07,1.3-.34c1-.42,1.93-.84,2.91-1.25.49-.2,1-.39,1.51-.58a5.56,5.56,0,0,1,.91-.25,1.7,1.7,0,0,1,.57-1.52,2.38,2.38,0,0,1,1.56-.58,2.15,2.15,0,0,1,1.51.51c1.27,1.16,2.56,2.32,3.89,3.43l1.64,1.35a6.94,6.94,0,0,1,1.65,1.59,3.9,3.9,0,0,1,.73.42,1.65,1.65,0,0,1,.6,1.81,2.27,2.27,0,0,1-1.33,1.45,11.75,11.75,0,0,1-1.52.5l-1.68.41c-1.16.25-2.33.5-3.5.72-2.16.43-4.31.89-6.45,1.4-2.38.57-4.77,1.15-7.21,1.49s-4.66.59-7,.75-4.79.24-7.19.33l-3.43.11-1.94,0-.7,0a12.65,12.65,0,0,1-1.74-.06,2,2,0,0,1-1.41-1,2.45,2.45,0,0,1-1.45.54,8.34,8.34,0,0,1-1.73-.11l-1-.12-1.68-.18c-1-.12-2-.22-3-.31l-3.5-.35c-1.07-.11-2.16-.2-3.22-.37-.89.12-1.77.23-2.66.3a6.3,6.3,0,0,1-.87,0,5.27,5.27,0,0,1-.81-.1,7.81,7.81,0,0,1-.81-.29,2.21,2.21,0,0,1-1.14-1.25,2,2,0,0,1,0-1.31A9.5,9.5,0,0,1,77.79,191.21Z" transform="translate(-25 -43.18)"/><path class="cls-4" d="M27.81,154.15a2.29,2.29,0,0,1,1.54.5,30.85,30.85,0,0,1,6.36,7.18,8.16,8.16,0,0,1,.58,1.09,1.93,1.93,0,0,1-.87,2.51,2.43,2.43,0,0,1-1.38.34,5.06,5.06,0,0,1-1.73-.43,8.63,8.63,0,0,1-2.66-1.74c-1.62-1.48-2.25-3.49-2.92-5.4a1.52,1.52,0,0,1-.08-.56l-.3-.25a1.73,1.73,0,0,1-.07-2.66A2.31,2.31,0,0,1,27.81,154.15Z" transform="translate(-25 -43.18)"/><path class="cls-9" d="M108.71,118.57a3.56,3.56,0,0,1,.79-.1,3.23,3.23,0,0,1,1.28.22l.33,0a7.41,7.41,0,0,1,1.15.08,5.72,5.72,0,0,1,2.26,1,5.9,5.9,0,0,1,1.42,1.49,6.08,6.08,0,0,1,1,3.13,2,2,0,0,1,0,.82,1.93,1.93,0,0,1,1.27,1.67,2.05,2.05,0,0,1-2.12,1.93,5.57,5.57,0,0,1-1.91-.29,17,17,0,0,1-2.16-.84l-.24-.12a6.43,6.43,0,0,1-1.88-.64,6.13,6.13,0,0,1-1.86-1.42,5,5,0,0,1-1.28-4.87A3,3,0,0,1,108.71,118.57Z" transform="translate(-25 -43.18)"/><path class="cls-5" d="M105.42,120.28a5.09,5.09,0,0,0-.41,2.13,3.56,3.56,0,0,0,.2,1.11,3.24,3.24,0,0,0,.54,1,8,8,0,0,0,1.63,1.36c1.06.69,2.12,1.4,3.24,2s2.3,1.22,3.43,1.87h0a1.13,1.13,0,0,0,.36.57,1.54,1.54,0,0,0,1.23.44,2.69,2.69,0,0,0,.64-.13,5.61,5.61,0,0,0,.84-.32,3.58,3.58,0,0,0,1.67-1.9,5.77,5.77,0,0,0,.38-1.51,7.79,7.79,0,0,0,.06-1.36,10.5,10.5,0,0,0-.63-3,8.88,8.88,0,0,0-1.87-3c-.21-.21-.42-.43-.64-.63a8.55,8.55,0,0,0-1.53-1.11,7.55,7.55,0,0,0-3.82-1,5.54,5.54,0,0,0-1.61.27,6,6,0,0,0-2.52,1.36A5.62,5.62,0,0,0,105.42,120.28Zm6.74-1.14-.12,0Zm-4.65,3.47a3.36,3.36,0,0,1,0-.71,4.77,4.77,0,0,1,.3-1.06,4.61,4.61,0,0,1,.49-.78,3.7,3.7,0,0,1,.46-.42,6.8,6.8,0,0,1,.71-.38,8.51,8.51,0,0,1,1-.28,4.71,4.71,0,0,1,.75,0,6.72,6.72,0,0,1,1,.22,7.43,7.43,0,0,1,1.3.63,9.58,9.58,0,0,1,1.4,1.21,7.93,7.93,0,0,1,1,1.46,9.19,9.19,0,0,1,.73,2.28,9.93,9.93,0,0,1,.11,1.11,7.25,7.25,0,0,1-.05.93,5.23,5.23,0,0,1-.28,1,3.24,3.24,0,0,1-.28.47l-.15.13-.19.1h0a1.2,1.2,0,0,0-.59-.63c-1.69-1-3.46-1.83-5.1-2.87l.26.17c-.45-.29-.9-.58-1.34-.88a8.78,8.78,0,0,1-1.19-.89l-.2-.28A3.27,3.27,0,0,1,107.51,122.61Z" transform="translate(-25 -43.18)"/><path class="cls-5" d="M102.91,127.52a3.8,3.8,0,0,0,.41,2.4,5.57,5.57,0,0,0,3.17,2.45,8.13,8.13,0,0,0,5.48-.28,15,15,0,0,0,3.19-1.88,1,1,0,0,0,.34-.77,1,1,0,0,0-.38-.75,1.29,1.29,0,0,0-.88-.3,1.49,1.49,0,0,0-.87.34l-.2.15c-.36.24-.71.47-1.08.69a10.64,10.64,0,0,1-1.06.55,10.75,10.75,0,0,1-1.6.42,8.68,8.68,0,0,1-1.14,0,6.46,6.46,0,0,1-1-.22,5.08,5.08,0,0,1-.81-.4,7.79,7.79,0,0,1-.63-.51,4.1,4.1,0,0,1-.35-.5,4.66,4.66,0,0,1-.16-.49,5.52,5.52,0,0,1,0-.58,6.15,6.15,0,0,1,.36-1.1,10.52,10.52,0,0,1,1.15-1.82l0,0a1,1,0,0,0,.35-.76,1.06,1.06,0,0,0-.38-.76,1.37,1.37,0,0,0-.88-.29,1.28,1.28,0,0,0-.87.34,10.13,10.13,0,0,0-1.79,2.79A4.83,4.83,0,0,0,102.91,127.52Zm10.33,1.31.07-.05Z" transform="translate(-25 -43.18)"/><path class="cls-5" d="M109.11,131.76a1.16,1.16,0,0,1,1.26,1c0,1.77,0,3.53.17,5.29.07.92.14,1.83.27,2.74s.22,1.54.35,2.31a67.84,67.84,0,0,0,1.68,6.71c.7,2.28,1.54,4.51,2.46,6.73,1.14,2.77,2.35,5.52,3.72,8.21l-.09-.17c0,.08.09.16.13.24h0c1,1.85,1.92,3.7,2.92,5.52s2.2,3.84,3.2,5.79a.9.9,0,0,1-.1.84,1.26,1.26,0,0,1-.73.51,1.44,1.44,0,0,1-1-.09,1.27,1.27,0,0,1-.58-.63l0,0,.09.16c-.53-1-1.12-2-1.69-3s-1.13-2-1.67-3c-1.15-2.16-2.33-4.31-3.4-6.49s-2-4.35-2.93-6.54c-.47-1.14-.93-2.27-1.38-3.42s-.8-2.25-1.17-3.38a59.07,59.07,0,0,1-1.72-6.62c-.24-1.21-.44-2.43-.61-3.65s-.23-2.29-.3-3.44c-.07-1.49-.09-3-.12-4.48A1.18,1.18,0,0,1,109.11,131.76Z" transform="translate(-25 -43.18)"/><path class="cls-5" d="M89.55,179.51a1.15,1.15,0,0,0,.67,1.47,3.45,3.45,0,0,0,2.06,0c.31-.07.62-.15.94-.21.62-.14,1.24-.25,1.87-.36,1.24-.21,2.46-.49,3.68-.77l3.83-.86c1.19-.25,2.4-.42,3.6-.59.77-.1,1.54-.2,2.31-.25,1.34-.09,2.68-.09,4-.1s2.63,0,4,0,2.53.1,3.79.18c.64,0,1.27.06,1.91.07s1.13,0,1.7,0A1.18,1.18,0,0,0,125.1,177a1,1,0,0,0-.38-.75,1.38,1.38,0,0,0-.89-.29c-.65,0-1.32,0-2,0-1.3,0-2.59-.15-3.89-.2s-2.5-.07-3.75-.07-2.74,0-4.11,0a33.62,33.62,0,0,0-3.77.3c-1.36.19-2.72.38-4.06.64s-2.46.54-3.69.82-2.51.59-3.79.81l-1.74.31c.32-.47.63-.94.94-1.41.94-1.44,1.87-2.88,2.84-4.3.62-.92,1.31-1.82,2-2.72s1.43-2,2.11-2.94a48.28,48.28,0,0,0,3.56-6.23c1-2.19,1.91-4.44,2.75-6.7a62.25,62.25,0,0,0,2.29-6.7,27.88,27.88,0,0,0,.66-3.72c.13-1.08.15-2.18.18-3.26s0-2.31,0-3.47-.09-2.48-.13-3.73a1.25,1.25,0,0,0-2.48.06c.07,1.91.18,3.81.15,5.72q0,1.34-.06,2.67c0,.89-.11,1.77-.21,2.65-.1.63-.2,1.28-.36,1.91-.27,1.09-.57,2.17-.94,3.23s-.8,2.23-1.21,3.34c-.82,2.17-1.63,4.33-2.57,6.46a56.15,56.15,0,0,1-2.88,5.33c-1,1.67-2.24,3.27-3.43,4.87-.68.92-1.36,1.84-2,2.78s-1.33,2-2,3-1.15,1.78-1.77,2.66c-.22.32-.46.62-.69,1A2.09,2.09,0,0,0,89.55,179.51Zm12.9-19.87s0-.11.08-.16S102.48,159.59,102.45,159.64Z" transform="translate(-25 -43.18)"/><path class="cls-5" d="M97.55,199a22.06,22.06,0,0,1-1.66-3.15,25.61,25.61,0,0,1-1.15-3.36,11.36,11.36,0,0,1-.45-3.61,17.89,17.89,0,0,1,.24-1.79,9.05,9.05,0,0,1,.39-1.35,13.71,13.71,0,0,1,.71-1.62c.23-.49.54-1,.82-1.42.57-.94,1.22-1.85,1.82-2.76.72-1.09,1.42-2.18,2.12-3.28a1.31,1.31,0,0,1,1.06-.55,1.2,1.2,0,0,1,.62.13,1,1,0,0,1,.48,1.46c-.91,1.43-1.84,2.87-2.79,4.29-.41.61-.83,1.23-1.21,1.86s-.69,1.19-1,1.8c-.17.41-.32.81-.45,1.23a9.75,9.75,0,0,0-.27,1.19c0,.42-.08.84-.09,1.26a10.27,10.27,0,0,0,.12,1.46,24,24,0,0,0,1.91,5.55c.32.59.65,1.16,1,1.73l.57.92.18.32a1.32,1.32,0,0,1,.79.29,1,1,0,0,1,0,1.51.75.75,0,0,1-.11.2q-.15.19-.3.36a3.38,3.38,0,0,1-.47.35c-.17.11-.35.21-.53.31l-.75.39c-.52.26-1,.51-1.57.78-.33.18-.66.37-1,.57A1.37,1.37,0,0,1,95,203.7a1,1,0,0,1-.14-.83,1.13,1.13,0,0,1,.55-.65c.3-.2.62-.38.94-.55l.68-.37c.5-.27,1-.52,1.49-.81l-.11-.18C98.11,199.86,97.82,199.41,97.55,199Z" transform="translate(-25 -43.18)"/><polygon class="cls-5" points="54.16 147.67 54.15 147.68 54.16 147.67 54.16 147.67"/><path class="cls-5" d="M130.69,208.13h0Z" transform="translate(-25 -43.18)"/><path class="cls-5" d="M68.26,205a5.41,5.41,0,0,0-.15,1.88c0,.38.11.75.17,1.12a4,4,0,0,0,.3,1,4,4,0,0,0,.54.93,2.87,2.87,0,0,0,1,.8,3,3,0,0,0,.66.2c.2,0,.41,0,.61.06.62.05,1.25.06,1.88.08l1.84.05c2.58.07,5.17.15,7.75.29s5.3.3,8,.27,5.21-.09,7.81-.18c1.37-.05,2.74-.12,4.11-.2s2.54-.13,3.82-.1,2.64.17,4,.27,2.61.11,3.91.11c2.69,0,5.36-.19,8-.42s5.36-.41,8-.75,5.29-.88,7.92-1.37c1.26-.24,2.51-.48,3.76-.74a30.64,30.64,0,0,0,3.82-1,15,15,0,0,0,3.61-1.71,5.11,5.11,0,0,0,1.51-1.49,3.4,3.4,0,0,0,.5-1.74,9.43,9.43,0,0,0-.32-1.9,14.08,14.08,0,0,0-1.15-3.22,36.3,36.3,0,0,0-1.78-3.22,38.51,38.51,0,0,0-4.46-5.79c-.86-.92-1.74-1.83-2.68-2.69-.47-.44-.95-.87-1.45-1.28s-1-.84-1.57-1.25-1-.73-1.57-1.08-1.09-.7-1.66-1c-1.15-.65-2.32-1.27-3.51-1.87-2.32-1.17-4.69-2.28-6.94-3.56a1.22,1.22,0,0,0-.59-.14,1.36,1.36,0,0,0-1.09.57.94.94,0,0,0-.11.83,1.2,1.2,0,0,0,.59.63c1.94,1.11,4,2.07,6,3.09q1.56.78,3.12,1.59c.9.47,1.76,1,2.63,1.53.3.21.61.41.92.61s.57.43.86.64c.61.46,1.18,1,1.77,1.44s1,.88,1.42,1.33,1.09,1.07,1.62,1.62,1.06,1.16,1.56,1.76,1.12,1.41,1.66,2.13a32.9,32.9,0,0,1,2.63,4.25c.35.71.67,1.42,1,2.15a14,14,0,0,1,.59,2.17,4.3,4.3,0,0,1,.07.88,2.26,2.26,0,0,1-.11.37c-.08.13-.16.26-.25.39a5.07,5.07,0,0,1-.55.49,13.66,13.66,0,0,1-2.41,1.23l-.09,0a45.86,45.86,0,0,1-7.65,1.84c-2.43.46-4.86.95-7.31,1.31h0c-2.07.27-4.15.46-6.23.62s-4.24.37-6.36.48a59.71,59.71,0,0,1-7.8,0c-1.32-.1-2.62-.22-4-.26s-2.55,0-3.83.11c-2.61.14-5.23.23-7.85.29-1.34,0-2.68.07-4,.08s-2.7,0-4-.07-2.63-.13-4-.21-2.58-.1-3.87-.15-2.57-.09-3.86-.12l-1.85-.07c-.57,0-1.14,0-1.72-.06l-.11,0-.06,0c-.09-.12-.18-.25-.26-.38a5.51,5.51,0,0,1-.35-1.18,8.07,8.07,0,0,1,0-1.3,15.74,15.74,0,0,1,1.2-3.52c.44-.94.9-1.87,1.39-2.79.59-1.09,1.23-2.17,1.89-3.23s1.23-1.91,1.94-2.81,1.42-1.75,2.14-2.62l0,0v0l0,0,.15-.19-.15.19c.8-.92,1.62-1.82,2.45-2.72s1.61-1.8,2.45-2.68,1.63-1.66,2.46-2.48a23.89,23.89,0,0,1,2.63-2.28c.44-.3.89-.57,1.35-.83a13,13,0,0,1,1.24-.62,2.44,2.44,0,0,1,.46-.14,1.08,1.08,0,0,0,.84-1.34A1.3,1.3,0,0,0,91.5,177a6.48,6.48,0,0,0-1.68.67,18.84,18.84,0,0,0-1.75,1,22.2,22.2,0,0,0-3.35,2.8c-.84.83-1.67,1.66-2.48,2.5s-1.64,1.78-2.46,2.68-1.64,1.79-2.44,2.71-1.67,2-2.47,3-1.33,1.86-1.94,2.81-1.29,2.1-1.87,3.18-1.06,2.06-1.54,3.11A19.54,19.54,0,0,0,68.26,205Zm73.27-16-.06-.07Zm6.79,14.66.08,0Zm-76.93,5.13.07,0Z" transform="translate(-25 -43.18)"/><path class="cls-5" d="M92.76,187.33h.08l.25,0Z" transform="translate(-25 -43.18)"/><path class="cls-5" d="M82.39,185.3l2.52.64c.84.21,1.69.41,2.53.59a51.31,51.31,0,0,0,5.4.81h-.08l.33,0-.25,0c1.27.09,2.54.14,3.82.12s2.72-.06,4.07-.11c2.63-.1,5.26-.22,7.87-.49,3.06-.31,6.12-.61,9.17-1a38.78,38.78,0,0,0,5.69-1.29c1.87-.61,3.7-1.32,5.52-2,.55-.23,1.09-.47,1.63-.72s1.19-.61,1.77-.92a1.21,1.21,0,0,1,.61-.16,1.29,1.29,0,0,1,1.09.5,1,1,0,0,1-.41,1.49,35.82,35.82,0,0,1-4,1.86c-1.19.47-2.38.93-3.58,1.37a36.53,36.53,0,0,1-3.76,1.19c-.71.16-1.42.33-2.13.47s-1.24.22-1.85.32c-1.43.23-2.88.36-4.32.51l-3.93.42c-1.35.14-2.7.27-4.06.37s-2.58.15-3.86.21c-2.71.11-5.42.24-8.12.13-1.32,0-2.66-.19-4-.37s-2.67-.44-4-.73c-.74-.16-1.46-.35-2.19-.53l-2.19-.55a1.06,1.06,0,0,1-.89-1.3A1.27,1.27,0,0,1,82.39,185.3Z" transform="translate(-25 -43.18)"/><path class="cls-5" d="M93.33,198.72h0Z" transform="translate(-25 -43.18)"/><path class="cls-5" d="M73.61,194.08a1,1,0,0,0,.48,1.45,5.76,5.76,0,0,0,1.3.47l.69.19c.47.13.93.25,1.4.35a73.14,73.14,0,0,0,7.83,1.34q3.89.47,7.79.82h.05l.17,0h0l1.91.18c1.27.11,2.54.2,3.82.29s2.75.21,4.14.29a50.13,50.13,0,0,0,7.75-.14c2.82-.27,5.63-.68,8.4-1.16,1.32-.23,2.64-.5,4-.76s2.58-.51,3.87-.79l3.78-.87,3.69-.81c1.36-.28,2.7-.57,4.05-.9.61-.16,1.21-.33,1.8-.52a16.33,16.33,0,0,0,1.84-.72,12,12,0,0,0,2.18-1.39,1,1,0,0,0,0-1.52,1.35,1.35,0,0,0-.88-.29,1.45,1.45,0,0,0-.87.33l-.38.29a10.26,10.26,0,0,1-1.88,1,37.74,37.74,0,0,1-5.19,1.38c-1.67.35-3.34.7-5,1.08-1.24.27-2.47.58-3.7.85l-3.81.78c-1.31.26-2.62.53-3.93.76s-2.67.44-4,.63c-1.52.21-3,.42-4.57.53-1.38.09-2.77.18-4.16.17s-2.71-.07-4.07-.16-2.52-.19-3.78-.28-2.52-.19-3.77-.3l-2.79-.26-.94-.09a81.74,81.74,0,0,1-15.23-2.57l-.2-.11A1.36,1.36,0,0,0,73.61,194.08Zm68.55-3.73.16-.11Zm-1.88,1,.07,0Zm-25.43,5.41.26,0Zm-23.48-.33h0Zm-15.79-2.6.06,0Z" transform="translate(-25 -43.18)"/><path class="cls-5" d="M138.46,192.76a1,1,0,0,0,.15.82c.42.76.84,1.52,1.25,2.28a10.87,10.87,0,0,1,.6,1.35,1.28,1.28,0,0,0,1.54.72,1.08,1.08,0,0,0,.83-1.35,16.21,16.21,0,0,0-1.06-2.23c-.34-.64-.69-1.27-1.05-1.9a1.19,1.19,0,0,0-1.08-.51,1.42,1.42,0,0,0-.62.16A1.13,1.13,0,0,0,138.46,192.76Zm1.4,3.11.06.11Zm-.07-.14.07.13Z" transform="translate(-25 -43.18)"/><path class="cls-5" d="M132.82,194.23a1.26,1.26,0,0,1,.33,0,1.48,1.48,0,0,1,.63.13,1.18,1.18,0,0,1,.58.63c.44,1,.88,2,1.24,3a1.07,1.07,0,0,1-.83,1.34,1.29,1.29,0,0,1-1.54-.71c-.36-1-.8-2-1.24-3C131.74,195,132.22,194.39,132.82,194.23Z" transform="translate(-25 -43.18)"/><path class="cls-5" d="M126,195.76a1.25,1.25,0,0,1,.32,0,1.24,1.24,0,0,1,1.22.76,30.17,30.17,0,0,1,1,3.58,1,1,0,0,1-.1.83,1.26,1.26,0,0,1-.73.51,1.38,1.38,0,0,1-1-.08,1.11,1.11,0,0,1-.58-.63,31.61,31.61,0,0,0-1-3.58A1.08,1.08,0,0,1,126,195.76Z" transform="translate(-25 -43.18)"/><path class="cls-5" d="M119.23,196.63a1.19,1.19,0,0,1,1.26,1.05c.12,1.34.25,2.68.37,4,0,.58-.57,1.08-1.21,1.1a1.17,1.17,0,0,1-1.26-1.05c-.13-1.33-.26-2.67-.37-4A1.17,1.17,0,0,1,119.23,196.63Z" transform="translate(-25 -43.18)"/><path class="cls-5" d="M112.64,197.69a1.17,1.17,0,0,1,1.26,1.05c0,1.4,0,2.8.1,4.2a1.25,1.25,0,0,1-2.47.06c-.07-1.4-.14-2.8-.1-4.2A1.18,1.18,0,0,1,112.64,197.69Z" transform="translate(-25 -43.18)"/><path class="cls-5" d="M105.59,198.11a1.18,1.18,0,0,1,1.26,1l.18,3.66a1.16,1.16,0,0,1-1.21,1.11,1.18,1.18,0,0,1-1.26-1c-.06-1.22-.12-2.44-.19-3.66A1.17,1.17,0,0,1,105.59,198.11Z" transform="translate(-25 -43.18)"/><path class="cls-5" d="M88.91,197.94a1,1,0,0,1,.55-.65,1.34,1.34,0,0,1,.62-.17,1.84,1.84,0,0,1,.33,0,1.3,1.3,0,0,1,.75.48,1,1,0,0,1,.14.83,43.83,43.83,0,0,1-.94,4.64,1.29,1.29,0,0,1-1.51.79,1.08,1.08,0,0,1-.89-1.3C88.37,201.05,88.64,199.5,88.91,197.94Z" transform="translate(-25 -43.18)"/><path class="cls-5" d="M83.11,197.35a1.24,1.24,0,0,1,1.19-.81l.32,0a1.08,1.08,0,0,1,.9,1.3c-.46,1.54-.89,3.1-1.4,4.63a1.29,1.29,0,0,1-1.51.78,1.07,1.07,0,0,1-.89-1.3C82.23,200.45,82.67,198.9,83.11,197.35Z" transform="translate(-25 -43.18)"/><path class="cls-5" d="M77.7,196.27a1.22,1.22,0,0,1,1-.55,1.35,1.35,0,0,1,.63.13,1,1,0,0,1,.48,1.46c-.72,1.27-1.41,2.55-2,3.86,0,.12-.1.25-.16.37a1.21,1.21,0,0,1-.55.66,1.41,1.41,0,0,1-1,.12,1.24,1.24,0,0,1-.75-.47.92.92,0,0,1-.15-.83A53.14,53.14,0,0,1,77.7,196.27Z" transform="translate(-25 -43.18)"/><path class="cls-5" d="M123.81,250.51a4.16,4.16,0,0,1,.41-1.06,4.31,4.31,0,0,1,.62-.93,1.85,1.85,0,0,1,.45-.38c.21-1,.43-2,.63-3,.44-2.26.84-4.52,1.24-6.78s.77-4.63,1.19-6.93c.22-1.17.43-2.34.7-3.51a3.65,3.65,0,0,1,.42-1.14l.42-.67c.3-.46.61-.9.93-1.35.69-1,1.38-1.95,2-2.95s1.25-2,1.88-2.92,1.33-2,1.92-3,1.22-2.14,1.83-3.2c1.21-2.07,2.38-4.15,3.47-6.28a1.19,1.19,0,0,1,1-.55,1.48,1.48,0,0,1,.63.13,1.09,1.09,0,0,1,.58.63,1,1,0,0,1-.1.83c-.64,1.26-1.31,2.5-2,3.74-.56,1-1.16,2-1.73,3s-1.14,2.07-1.76,3.09-1.33,2.09-2,3.14c-.86,1.33-1.69,2.67-2.61,4-.43.62-.88,1.23-1.31,1.85a18.81,18.81,0,0,0-1.1,1.69,5.75,5.75,0,0,0-.22.84c-.06.25-.12.52-.17.78-.12.61-.23,1.21-.35,1.82-.22,1.19-.43,2.39-.63,3.58-.38,2.23-.77,4.45-1.17,6.68-.29,1.59-.55,3.18-.88,4.76-.14.7-.29,1.4-.44,2.1l.09.08a2.93,2.93,0,0,1,.65.43,2.69,2.69,0,0,1,.88,1.77,2.3,2.3,0,0,1-.14,1.1,3,3,0,0,1-.67,1,2.32,2.32,0,0,1-.42.32,2.06,2.06,0,0,1-.43.4,3,3,0,0,1-1.12.53,2.64,2.64,0,0,1-.84,0,1.89,1.89,0,0,1-.68-.17,2.63,2.63,0,0,1-.87-.67,2.42,2.42,0,0,1-.47-.95,2.72,2.72,0,0,1,0-1.17A5.34,5.34,0,0,1,123.81,250.51Z" transform="translate(-25 -43.18)"/><path class="cls-5" d="M122.81,210.39a1,1,0,0,0-.11.83,20.47,20.47,0,0,0,.59,2.55,19.31,19.31,0,0,0,1.57,3.44c.28.47.61.94.92,1.4l1,1.47c1.37,2,2.79,4,4.23,6s3,3.79,4.55,5.64c.82,1,1.65,2,2.55,2.92s1.76,1.79,2.66,2.68c1.72,1.71,3.34,3.51,5.07,5.21.65.65,1.32,1.28,2,1.91l-.22.11a2.58,2.58,0,0,0-1,.92,2.14,2.14,0,0,0-.2.53,1.7,1.7,0,0,0-.05.56,2.47,2.47,0,0,0,.38,1.06,3.23,3.23,0,0,0,.48.57c0,.12.07.23.11.35a2.29,2.29,0,0,0,.63.83,3.31,3.31,0,0,0,.93.55,4.62,4.62,0,0,0,1,.31,4.26,4.26,0,0,0,.94.07,4.18,4.18,0,0,0,1.05-.22,2.66,2.66,0,0,0,.94-.54,2,2,0,0,0,.56-.85,2.35,2.35,0,0,0,.06-.79l0-.17a2.13,2.13,0,0,0,0-.44,2.18,2.18,0,0,0-.67-1.23c-.82-.88-1.71-1.71-2.59-2.55s-1.78-1.68-2.65-2.54-1.66-1.69-2.48-2.54c-1.67-1.77-3.43-3.47-5.12-5.22-1.73-1.9-3.38-3.87-5-5.87s-3-4-4.44-6c-.68-1-1.32-1.92-2-2.88s-1.33-1.94-1.92-2.94a17.81,17.81,0,0,1-1-2.26,25.2,25.2,0,0,1-.63-2.67,1.05,1.05,0,0,0-.58-.63,1.35,1.35,0,0,0-.63-.14,1.88,1.88,0,0,0-.33,0A1.23,1.23,0,0,0,122.81,210.39Zm3.88,5.2.07.13Z" transform="translate(-25 -43.18)"/><path class="cls-5" d="M60.92,248.47a5.32,5.32,0,0,1,.38-.45,4.46,4.46,0,0,1,.92-.74,1.69,1.69,0,0,1,.43-.19,1.86,1.86,0,0,1,.69-.15l.51.05h0a2.69,2.69,0,0,1,.62.16c.17-.64.35-1.28.52-1.91.59-2.18,1.17-4.35,1.81-6.51.33-1.15.69-2.31,1.08-3.46s.83-2.22,1.31-3.31a19.11,19.11,0,0,1,1.81-3.24,20.52,20.52,0,0,1,2.45-2.85c.87-.86,1.77-1.71,2.61-2.6s1.64-1.78,2.49-2.65,1.72-1.76,2.55-2.66,1.66-1.8,2.53-2.68c1.55-1.57,3.21-3.06,4.92-4.5a1.4,1.4,0,0,1,.89-.33,1.23,1.23,0,0,1,.86.29,1,1,0,0,1,0,1.52q-1.69,1.42-3.31,2.92c-.9.83-1.75,1.71-2.59,2.59s-1.57,1.71-2.38,2.55-1.77,1.82-2.64,2.73-1.81,2-2.77,2.91-1.86,1.82-2.72,2.8a17.5,17.5,0,0,0-1.26,1.71c-.41.67-.76,1.35-1.1,2-.44,1-.86,2-1.21,3s-.74,2.27-1.08,3.41c-.64,2.2-1.24,4.4-1.84,6.61-.3,1.14-.62,2.27-.94,3.41l-.08.26a1.87,1.87,0,0,1,.07.22,3.73,3.73,0,0,1-.21,2.61,3.06,3.06,0,0,1-1.15,1.25,3.19,3.19,0,0,1-2,.44,2.74,2.74,0,0,1-1.59-.76,2.19,2.19,0,0,1-.21-.23,3.19,3.19,0,0,1-.7-3.77A3.89,3.89,0,0,1,60.92,248.47Z" transform="translate(-25 -43.18)"/><path class="cls-5" d="M70.26,211.85A35.7,35.7,0,0,0,70,218.7a23.4,23.4,0,0,0,.69,3.7,18.91,18.91,0,0,0,1.25,3.28c.25.54.52,1.08.82,1.6s.56,1,.87,1.53c.63,1.09,1.3,2.16,2,3.23q1.89,3,4,5.85c1.44,2,2.93,3.9,4.42,5.83.73.95,1.47,1.9,2.22,2.84.34.42.67.84,1,1.25l0,.06a2.42,2.42,0,0,0-.73.93A2.53,2.53,0,0,0,86.7,251,4.21,4.21,0,0,0,91.26,253a3.1,3.1,0,0,0,.86-.28,1.91,1.91,0,0,0,.45-.32,2.78,2.78,0,0,0,.4-.52,1.83,1.83,0,0,0,.18-.59,3.21,3.21,0,0,0-.4-2.07,4.42,4.42,0,0,0-1.81-1.72,6.75,6.75,0,0,0-1.48-.56c-.58-.67-1.11-1.38-1.66-2.06-.67-.83-1.31-1.68-2-2.52-1.32-1.71-2.64-3.42-3.91-5.16a98.15,98.15,0,0,1-7.61-12,21.16,21.16,0,0,1-1.08-2.66,26.61,26.61,0,0,1-.66-2.63,16.48,16.48,0,0,1-.21-2.52c0-.89,0-1.77.08-2.64.14-1.89.43-3.77.49-5.66a1.17,1.17,0,0,0-1.26-1,1.18,1.18,0,0,0-1.21,1.11C70.44,210,70.36,210.94,70.26,211.85Zm19.35,35.21,0,.06ZM89,249.59l.07,0Z" transform="translate(-25 -43.18)"/><path class="cls-5" d="M45.86,142.55a26.44,26.44,0,0,1,1.69,4.81c.38,1.71.74,3.43,1.05,5.16s.59,3.6.84,5.4c.32,2.26.44,4.53.62,6.8.1,1.2.19,2.39.3,3.59s.22,2.19.32,3.28.18,2.31.31,3.47a31.45,31.45,0,0,0,.71,3.73c.53,2.17,1.11,4.32,1.63,6.49.28,1.21.56,2.41.83,3.61s.48,2.18.75,3.26.61,2.29,1,3.41a30.61,30.61,0,0,0,1.35,3.31A31,31,0,0,0,59,202.06c.31.5.61,1,.95,1.48a14.75,14.75,0,0,0,1.11,1.52,17.93,17.93,0,0,0,2.79,2.64,10.37,10.37,0,0,0,1.75,1.07,11.85,11.85,0,0,0,1.22.47c.77.27,1.59.47,2.39.67a1.29,1.29,0,0,0,1.51-.79,1.08,1.08,0,0,0-.9-1.3c-.68-.17-1.35-.35-2-.54a10.88,10.88,0,0,1-1.83-.85,15.78,15.78,0,0,1-2.32-2c-.36-.42-.71-.84-1-1.27s-.61-.86-.89-1.3C61.13,201,60.57,200,60,199c-.37-.72-.72-1.45-1-2.19s-.61-1.59-.88-2.4a44.26,44.26,0,0,1-1.24-4.65c-.51-2.28-1-4.55-1.59-6.82s-1.17-4.46-1.64-6.71c-.09-.57-.17-1.14-.24-1.72s-.1-1.24-.15-1.86c-.1-1.18-.22-2.35-.34-3.51-.23-2.29-.38-4.56-.56-6.84-.09-1.21-.19-2.42-.33-3.61s-.32-2.22-.49-3.33c-.35-2.33-.76-4.66-1.25-7a31.63,31.63,0,0,0-.85-3.42,30.8,30.8,0,0,0-1.2-3.06,1.17,1.17,0,0,0-.59-.63,1.35,1.35,0,0,0-.63-.14,1.88,1.88,0,0,0-.33.05A1.08,1.08,0,0,0,45.86,142.55ZM68,207.32l.09,0Z" transform="translate(-25 -43.18)"/><path class="cls-5" d="M25.06,156.83a5.7,5.7,0,0,0,0,1.7,5,5,0,0,0,.21,1q.13.41.3.81a6.37,6.37,0,0,0,.45.86c.15.25.29.49.46.72a14.84,14.84,0,0,0,1.37,1.6,7.76,7.76,0,0,0,3.84,2.19,9.88,9.88,0,0,0,2.87.26c.54,0,1.07-.12,1.6-.2a13.55,13.55,0,0,0,1.9-.48,18.53,18.53,0,0,0,3.74-1.59,17.15,17.15,0,0,0,1.74-1.18,14.72,14.72,0,0,0,1.27-1.1,25,25,0,0,0,2.59-2.87,22.15,22.15,0,0,0,1.92-3.1,16,16,0,0,0,.73-1.64c.16-.42.33-.85.47-1.28a4.71,4.71,0,0,0,.28-2.06,1.12,1.12,0,0,0-.38-.75,1.38,1.38,0,0,0-.89-.29,1.37,1.37,0,0,0-.86.33,1,1,0,0,0-.35.77,2.34,2.34,0,0,1,0,.59,14.94,14.94,0,0,1-1,2.8,23.93,23.93,0,0,1-1.27,2.33,19.33,19.33,0,0,1-1.56,2.1A20.46,20.46,0,0,1,43,160c-.56.5-1.13,1-1.73,1.42a12.81,12.81,0,0,1-1.34.8l-1.28.58c-.62.23-1.24.44-1.88.62a12.62,12.62,0,0,1-1.62.35,10.27,10.27,0,0,1-1.75,0,9.48,9.48,0,0,1-1.6-.34,6.29,6.29,0,0,1-.94-.46,9.29,9.29,0,0,1-1.52-1.33,9.87,9.87,0,0,1-.65-.8c-.2-.27-.37-.55-.54-.83s-.25-.51-.36-.78a5,5,0,0,1-.22-.78,6.56,6.56,0,0,1-.07-1.33,7.87,7.87,0,0,1,.5-1.56c.17-.34.35-.66.55-1s.41-.57.63-.85a5.2,5.2,0,0,1,.57-.58c.22-.2.46-.39.7-.58a20.51,20.51,0,0,1,3.66-1.83,27,27,0,0,1,3.2-1c1-.26,2.09-.47,3.16-.63s2.34-.22,3.51-.26a31.41,31.41,0,0,1,3.22,0,14.52,14.52,0,0,1,1.84.34,1.27,1.27,0,0,0,1.51-.78,1.09,1.09,0,0,0-.9-1.31,18.83,18.83,0,0,0-5.14-.45l-1.47.05a29.9,29.9,0,0,0-6.6,1c-.64.18-1.28.36-1.9.57s-1.4.5-2.09.78a17,17,0,0,0-3.37,1.73,8.23,8.23,0,0,0-1.5,1.25,13.76,13.76,0,0,0-1.25,1.6,8.88,8.88,0,0,0-.88,1.74A6.89,6.89,0,0,0,25.06,156.83Zm9-6.05.23-.09Zm.73,13,.26,0Zm-4.15-.89.07,0Z" transform="translate(-25 -43.18)"/><path class="cls-6" d="M40.12,152.48a2.24,2.24,0,0,1,.73-.35,1,1,0,0,1,.32-.26,1.46,1.46,0,0,1,.61-.16,1.35,1.35,0,0,1,1.1.51,2.24,2.24,0,0,1,.53,1.16,2.77,2.77,0,0,1-.49,1.7,1.75,1.75,0,0,1-2.16.61,2.29,2.29,0,0,1-1.14-1.28,1.68,1.68,0,0,1-.06-1.06A1.65,1.65,0,0,1,40.12,152.48Z" transform="translate(-25 -43.18)"/><path class="cls-5" d="M28.49,152.41a1.36,1.36,0,0,1,.89.29,26.88,26.88,0,0,1,3.11,2.7c.42.45.82.91,1.22,1.38s.74,1,1.1,1.5c.64.92,1.25,1.88,1.81,2.84a12.94,12.94,0,0,1,1.51,3.25,1,1,0,0,1-.1.83,1.22,1.22,0,0,1-.73.51,1.27,1.27,0,0,1-1.54-.71,8,8,0,0,0-.62-1.62c-.62-1.16-1.32-2.28-2.06-3.39-.41-.62-.84-1.22-1.29-1.82s-.81-1-1.24-1.45-.88-.82-1.34-1.22-1-.84-1.54-1.24a1,1,0,0,1,0-1.52A1.3,1.3,0,0,1,28.49,152.41Z" transform="translate(-25 -43.18)"/><path class="cls-5" d="M153.27,205.52s0,0,0,.06l.09.2Z" transform="translate(-25 -43.18)"/><path class="cls-5" d="M150,204.32a37.44,37.44,0,0,0,2.3,4.39c.55.87,1.15,1.71,1.79,2.53s1.41,1.76,2.18,2.6,1.68,1.74,2.59,2.56l.56.5s0,0,0,.07a2.14,2.14,0,0,0-.06.56l0,.16c.12.82.19,1.66.27,2.49,0,.36,0,.72.07,1.07a9.21,9.21,0,0,1,.06,1.28l0,.11a1.09,1.09,0,0,0,.9,1.3,1.28,1.28,0,0,0,1.5-.79,4.25,4.25,0,0,0,.08-1.28l0-.46h0a2.24,2.24,0,0,0,.48.54,1.7,1.7,0,0,0,.67.3c.9.21,1.77-.59,1.49-1.36a8.12,8.12,0,0,0-.59-1.18,12.38,12.38,0,0,0,1.69.45,12.09,12.09,0,0,0,1.81.21,6.17,6.17,0,0,0,.86,0,2.26,2.26,0,0,0,.73-.2,1,1,0,0,0,.59-1,1,1,0,0,0-.38-.75,7.14,7.14,0,0,0-1.89-.83c-.68-.24-1.37-.46-2.06-.69l.3.1c-.76-.26-1.53-.53-2.32-.73l-1.15-.28-.64-.14a38.2,38.2,0,0,1-3.16-2.92c-.66-.71-1.32-1.42-1.91-2.18l-1.12-1.46a23.79,23.79,0,0,1-2.33-3.77l.09.2-.12-.26s0,0,0,.06c-.32-.62-.62-1.25-.92-1.89a1.22,1.22,0,0,0-.58-.63,1.48,1.48,0,0,0-.63-.13,1.26,1.26,0,0,0-.33,0C150.24,203.14,149.75,203.78,150,204.32Zm11.67,11.51.09.06h0A.24.24,0,0,1,161.68,215.83Z" transform="translate(-25 -43.18)"/><path class="cls-5" d="M87.11,166.65l.26-.11h0Z" transform="translate(-25 -43.18)"/><path class="cls-5" d="M74,170.93a2.29,2.29,0,0,0,.49,1.45,2.77,2.77,0,0,0,1.38.85,3,3,0,0,0,.9.12,3,3,0,0,0,.72-.09,3.22,3.22,0,0,0,.91-.45,2.88,2.88,0,0,0,.44-.41,2.57,2.57,0,0,0,.74-1.72l.6-.07a27.87,27.87,0,0,0,4.15-.79c.68-.19,1.34-.39,2-.61s1.19-.41,1.78-.62,1.28-.49,1.89-.76,1.32-.57,2-.88c1.17-.55,2.29-1.18,3.4-1.82s2.26-1.37,3.35-2.11,2.07-1.45,3-2.23c2-1.68,4-3.45,5.9-5.26a1,1,0,0,0,0-1.52,1.34,1.34,0,0,0-.89-.29,1.31,1.31,0,0,0-.86.33c-1.42,1.35-2.88,2.65-4.35,3.95a49.17,49.17,0,0,1-4,3.12Q96.3,162,95,162.74c-.86.52-1.74,1-2.63,1.51a42.18,42.18,0,0,1-5,2.29h0l-.29.12.26-.11c-1.15.42-2.31.8-3.5,1.15a27.59,27.59,0,0,1-3.39.72l-1.47.17a11.57,11.57,0,0,1-1.33.09l-.08,0h0a2.78,2.78,0,0,0-.38-.12,3.21,3.21,0,0,0-1.57.05A2.38,2.38,0,0,0,74,170.93Zm2.65.3Zm0,0Z" transform="translate(-25 -43.18)"/><path class="cls-5" d="M38.14,164.46a1,1,0,0,0,0,1.52c.52.45,1,.92,1.5,1.41l1.1,1.2A12.58,12.58,0,0,0,42.35,170c.58.43,1.21.81,1.84,1.19a15.69,15.69,0,0,0,1.69.85,32.63,32.63,0,0,0,7.6,2.16c1.32.2,2.65.36,4,.53s2.74.38,4.12.49,2.63.16,3.95.15a25.42,25.42,0,0,0,4-.38,35.47,35.47,0,0,0,3.85-.95l1.92-.59a19.32,19.32,0,0,1,1.87-.58A12.61,12.61,0,0,1,78.27,174c.44.45.88.89,1.31,1.34.81.91,1.55,1.84,2.26,2.8a1.37,1.37,0,0,0,1.71.35A1,1,0,0,0,84,177c-.36-.49-.73-1-1.11-1.45a35.78,35.78,0,0,0-2.56-2.82c-.38-.37-.75-.76-1.15-1.12a3.51,3.51,0,0,0-.93-.67,3.15,3.15,0,0,0-2.16,0c-1.27.38-2.52.81-3.79,1.18s-2.51.66-3.79.89a28.68,28.68,0,0,1-3.34.23c-1.15,0-2.3-.05-3.45-.14s-2.24-.26-3.35-.41-2.16-.26-3.24-.42-2.28-.36-3.4-.61-1.95-.51-2.91-.83a21.87,21.87,0,0,1-2.24-.91,17,17,0,0,1-1.87-1,13,13,0,0,1-1.94-1.59c-.47-.52-.93-1-1.41-1.54s-.93-.9-1.43-1.32a1.31,1.31,0,0,0-.87-.29A1.37,1.37,0,0,0,38.14,164.46Zm39.11,8.42h0l0,0Zm-.07,0Zm-.15,0h0Zm-34.24-5.51.11.11Z" transform="translate(-25 -43.18)"/></svg>