<?xml version="1.0" encoding="utf-8"?>
<!-- Generator: Adobe Illustrator 24.2.3, SVG Export Plug-In . SVG Version: 6.00 Build 0)  -->
<svg version="1.1" id="Layer_2_1_" xmlns="http://www.w3.org/2000/svg" xmlns:xlink="http://www.w3.org/1999/xlink" x="0px" y="0px"
	 viewBox="0 0 318.9 213.9" style="enable-background:new 0 0 318.9 213.9;" xml:space="preserve">
<style type="text/css">
	.st0{fill:#C69C6D;}
	.st1{fill:#6EDAF4;}
	.st2{fill:#D17CB0;}
	.st3{fill:#046380;}
	.st4{fill:#161616;}
	.st5{fill:#FFFFFF;}
	.st6{fill:#A7A37E;}
	.st7{fill:#FF0000;}
	.st8{fill:#468966;}
	.st9{fill:#6A3F00;}
</style>
<path class="st0" d="M142,35.5V44c0,1.4,0.1,2.8,0.3,4.2c0.1,1.5,0.4,3,0.7,4.4c0.5,2.7,1.3,5.4,2.3,8c1,2.7,2.3,5.4,3.7,8
	c0.7,1.2,1.4,2.3,2.3,3.4c1,1.3,2.2,2.4,3.5,3.4c1.3,0.8,2.6,1.5,4,2.1c0.8,0.3,1.6,0.6,2.4,0.8c0.7,0.2,1.5,0.3,2.2,0.4
	c0.8,0.1,1.6,0.2,2.3,0.3c1.7,0.2,3.3,0.1,5-0.2l1.2-0.2c0.4-0.1,0.7-0.1,1.1-0.3c0.7-0.2,1.3-0.4,2-0.7c1.5-0.6,3-1.2,4.4-2
	c3.9-2.3,7.4-5.3,10.3-8.7c0.8-1.1,1.6-2.3,2.4-3.5c0.8-1.2,1.5-2.5,2.1-3.8c1.3-2.6,2.5-5.2,3.7-7.8s2.2-5,3.4-7.5l0,0
	c0-0.1,0.1-0.2,0.1-0.3c0,0.1-0.1,0.2-0.1,0.3l0.6-1.3c-0.1,0.1-0.1,0.2-0.1,0.3c0.7-1.5,1.4-3,2-4.5s1.1-2.8,1.7-4s0.9-2,1.4-3
	c0.3-0.5,0.6-1.1,0.9-1.6l1-1.3c0.2-0.3,0.5-0.6,0.8-0.8c0.5-0.4,1-0.9,1.5-1.2c0.8-0.5,1.6-1,2.5-1.4c1-0.4,2-0.6,3.1-0.8l1.3-0.2
	c0.9-0.1,1.8-0.1,2.8,0c0.7,0.1,1.4,0.3,2.1,0.5c0.9,0.4,1.7,0.8,2.5,1.4c0.9,0.7,1.8,1.6,2.5,2.5c1,1.3,1.9,2.6,2.8,4
	c0.7,1.2,1.4,2.4,2.1,3.6s1.5,2.5,2.2,3.7c1.6,2.5,3.1,4.9,4.9,7.3c0.9,1.2,1.8,2.4,2.8,3.6l2.5,3.3c1.8,2.3,3.7,4.7,5.7,6.9
	s3.8,4.3,5.8,6.4s4.1,4.2,6.4,6.1l3.4,3c1.1,1,2.1,2,3.1,3s2,2.1,3,3.1s1.8,1.9,2.8,3c0.6,0.8,1.2,1.6,1.7,2.4
	c0.5,0.8,1,1.7,1.4,2.6l0.7,1.7l0.3,0.9c0,0.2,0.2,0.5,0.3,0.7c0,0.6,0.4,1.1,1,1.3c0.7,0.2,1.5-0.2,1.7-0.9c0.1-0.4,0.1-0.8,0-1.2
	l-0.2-0.4c0-0.2-0.2-0.5-0.3-0.8s-0.4-1.1-0.7-1.7c-0.5-1.3-1.2-2.5-1.9-3.6c-1.4-2.1-3-4.1-4.9-5.9c-2-2.1-4-4.2-6.2-6.1
	c-1.1-1-2.3-1.9-3.4-2.9s-2.2-2-3.2-3c-4.1-4-8-8.3-11.6-12.7l0,0v-0.1l0,0c-2.1-2.5-4.1-5.2-6-7.7c-0.9-1.2-1.8-2.4-2.8-3.6
	s-1.6-2.3-2.3-3.5s-1.6-2.5-2.4-3.8l-2.2-3.8c-0.7-1.2-1.4-2.4-2.1-3.6c-1.4-2.4-3.3-4.4-5.5-6c-1.6-1.2-3.5-1.9-5.5-2.2
	c-0.6,0-1.1,0-1.7,0h-1.6l-1.5,0.2l-1.2,0.2c-0.8,0.2-1.7,0.4-2.4,0.7c-1.7,0.6-3.3,1.6-4.7,2.8c-1.2,1.1-2.2,2.3-3,3.6
	c-0.7,1.2-1.4,2.5-2,3.8c-1.2,2.8-2.3,5.3-3.4,8c0,0.3-0.2,0.5-0.4,0.8l0,0v0.2l0,0c-1.1,2.4-2.1,4.9-3.3,7.3l0.1-0.3l-0.6,1.3
	c-1.3,2.6-2.4,5.2-3.8,7.8c-0.7,1.3-1.4,2.6-2.1,3.8c-0.8,1.2-1.6,2.4-2.4,3.5c-0.5,0.6-0.9,1.1-1.4,1.6s-1.1,1-1.6,1.5
	c-1.2,1-2.4,2-3.6,2.9c-0.9,0.7-1.8,1.2-2.8,1.8c-1,0.5-2,1-3,1.4c-0.8,0.3-1.6,0.6-2.4,0.8c-0.8,0.2-2,0.5-3,0.6
	c-1.2,0.1-2.4,0.1-3.6,0h-1.2l-2.3-0.4c-0.7-0.1-1.3-0.3-2-0.6c-0.7-0.3-1.4-0.6-2-0.9c-0.7-0.4-1.4-0.8-2-1.2
	c-0.4-0.3-0.8-0.6-1.1-0.9c-0.4-0.4-0.8-0.8-1.1-1.2c-0.7-0.9-1.4-1.9-2-3c-0.7-1.1-1.3-2.3-1.9-3.5c-1.2-2.5-2.2-5-3-7.6
	c-0.4-1.3-0.7-2.6-1-4c-0.2-1.4-0.5-2.6-0.7-3.9c-0.2-2.3-0.4-4.5-0.5-6.8s0-4.7,0-7c0-0.7-0.7-1.3-1.4-1.3
	c-0.7-0.1-1.4,0.4-1.6,1.2c0,0,0,0,0,0V35.5z"/>
<path class="st0" d="M150.9,22.6c-0.6-1.9-1.5-3.6-2.8-5.1l-0.2-0.2c-0.4-0.5-0.9-1-1.4-1.4c-0.7-0.6-1.6-1.1-2.4-1.5
	c-0.7-0.3-1.5-0.5-2.3-0.7c-0.8-0.1-1.6-0.2-2.4-0.2h-0.4c-0.8,0-1.6,0.2-2.4,0.2h-0.5c-0.5,0-0.9,0.1-1.4,0.2
	c-1,0.1-2.1,0.2-3.1,0.4c-3.3,0.9-6.4,2.3-9.3,4l-1.3,0.7l-0.6,0.3l-2.3,1.2c-1.3,0.7-2.5,1.3-3.9,1.8c-3.1,1.2-5.7,2.1-8.5,2.9
	c-0.8,0.2-1.7,0.5-2.5,0.6H103c-3,0.4-5.8,1.6-8.3,3.3c-1.1,0.8-2.1,1.8-2.8,3c-0.5,0.9-0.9,2-1.1,3c-0.2,1.8,0,3.6,0.8,5.2
	c0.6,1.6,1.6,3.1,2.8,4.3c1.7,1.7,3.9,2.7,6.2,2.9h0.2c2.3,0,4.6-0.6,6.6-1.8c0.9-0.6,1.7-1.2,2.4-2l0.2-0.2c0.5-0.6,1-1.1,1.6-1.6
	c1.5-0.9,3-1.6,4.6-2.2c0.6-0.2,1.2-0.4,1.8-0.6c0.2-0.1,0.5-0.3,0.7-0.4c0.4-0.5,1-1,1.6-1.2c0.7-0.6,1.6-1,2.5-1.2
	c1.7-1.1,3.9-1.2,5.6-0.2c1.5-0.4,3-0.8,4.6-1.1l3.3-0.1h0.3l3.4-0.2c1.4,0,2.8-0.3,4.1-0.6c0.9-0.2,1.7-0.6,2.6-1
	c0.6-0.3,1.1-0.7,1.7-1.1c0.5-0.4,1-0.9,1.4-1.4c0.7-1,1.2-2.1,1.4-3.3C151.4,25.8,151.3,24.2,150.9,22.6z"/>
<path class="st0" d="M142.5,54.5c0.3,0,0.6,0,0.8,0c1.4-0.1,2.7,0.8,3.1,2.2c0.2,1,0.4,1.9,0.7,2.8c0.6,0.4,1.1,0.9,1.2,1.6
	c0.2,1.1,0.4,2.1,0.5,3.2c1,2,2.3,4,3.7,5.7c1.3,1.4,2.6,2.8,4,4.1c1.5,1.3,3,2.4,4.3,3.4h0.2c0.8,0.2,1.6,0.4,2.4,0.5h0.5
	c0.6,0,1.3-0.1,1.9-0.2c1.6-0.2,3.3-0.4,4.9-0.7c2-0.2,3.9-0.7,5.8-1.3c0.4-0.2,0.7-0.3,1.1-0.6l0.6-0.6l0,0
	c-0.1-1.5,0.9-2.8,2.3-3.1c0.3,0,0.6,0,0.8,0c0.8,0,1.6,0.3,2.2,0.8c0.7-0.6,1.4-1.3,2-2.1c0.7-0.9,1.4-1.9,2-2.8v-0.1
	c0.6-1,1.3-1.9,2-2.8c1.5-1.9,2.9-3.9,4-6.1c0.4-1.2,0.8-2.4,1.2-3.4V55l0.4-1.3c0.5-1.6,1.1-3.4,1.9-5.5l1.1-2.8v-0.3
	c0.3-0.8,0.6-1.6,1-2.4s0.8-2,1.3-3.1c0.3-0.7,0.7-1.4,1.2-2.1c0.2-0.3,0.4-0.5,0.6-0.8l0.8-0.5c0.4-0.3,1-0.4,1.5-0.4h0.3l0.3-1.7
	l0.4-1.8c0.1-0.3,0.2-0.6,0.4-0.8c-0.2-1.4,0.3-2.8,1.3-3.7c2.4-2.2,5.4-3.6,8.6-4.2c1.1-0.2,2.2-0.4,3.3-0.4h0.4
	c1.5,0.1,2.9,0.5,4.2,1.1c0.9,0.4,1.6,0.9,2.4,1.5l0.5,0.4c0.7,0.6,1.4,1.2,2,1.9c1.5,1.6,2.8,3.3,3.9,5.2c0.3,0.5,0.6,1,0.9,1.5
	l0.2,0.3l0.3,0.5l1.7,2.8c0.7,1.1,1.4,2.1,2.1,3.2l0.8,1.2c0.5,0.7,1,1.5,1.4,2.2s0.9,1.4,1.3,2.1c2,2.8,4.2,5.8,6.7,8.9
	c1.1,1.3,2.6,3,4.3,4.7c1.6,1.6,3.3,3,5,4.4l1.9,1.6l3.4,2.8l0.8,0.6l0.2,0.1c1.4,1.1,2.8,2.2,4.1,3.4c1.6,1.4,3.2,2.9,4.6,4.5
	c1.5,1.6,2.9,3.3,4,5.2c1.1,2,2,4.2,2.5,6.4c0.4,2.1,0.6,4.2,0.4,6.3c-0.4,4.4-1.5,8.6-3.3,12.6c-0.9,2.1-2,4.2-3.3,6.1
	c-1.2,1.8-2.6,3.6-3.7,5.1l-0.5,0.6v0.2c-1.1,1.5-2.3,3-3.3,4.6c-0.6,0.8-1.2,1.7-1.9,2.4v0.2c-0.8,1-1.6,1.9-2.5,2.8
	c-3.8,3.3-8.3,5.8-13.1,7.3c-1.3,0.5-2.4,0.9-3.6,1.2c-0.2,0.2-0.5,0.5-0.8,0.7c-0.3,0.2-0.6,0.3-0.9,0.4h-0.2l-1,0.3l-1,0.3h-0.9
	l-1.6,0.4c-1.6,0.5-3.2,0.9-4.8,1.1h-0.5c-1,0.6-2,1.2-3.1,1.6c-1.8,0.8-3.8,1.2-5.8,1.2c-1.6,0-3.3-0.1-4.9-0.3l-3.5-0.5h-1
	l-3.8-0.6c-1.5-0.2-2.8-0.4-4.1-0.6c-1.4-0.3-2.8-0.7-4.1-1.2c-1.7-0.6-3.2-1.3-5-2l-1.6-0.7c-1-0.3-1.9-0.6-2.6-0.9
	c-1-0.3-2-0.7-2.9-1.1l-4.1-1.4c-1.6-0.6-3.4-1.2-5.1-2.1c-1.5-0.7-3-1.5-4.4-2.4c-1.5-0.8-2.9-1.7-4.2-2.8c-1.3-1-2.5-2.2-3.6-3.3
	c-1.2-1.2-2.3-2.5-3.3-3.9l-1.6-2.1c-1.9-1.5-3.8-3.1-5.5-4.8c-1.5-1.5-2.8-3.1-3.9-4.9c-0.5-0.9-1-1.8-1.4-2.8
	c-0.4-0.9-0.9-2-1.3-3v-1.3c-0.3-0.5-0.4-1.1-0.4-1.7c0-0.5,0.2-1,0.4-1.5c0.2-0.3,0.4-0.5,0.7-0.8l0,0c-0.6-1.4-1.1-2.8-1.8-4.6
	c-0.5-1.3-1-2.8-1.6-4c-1.1-2.4-2-4.8-2.8-7.2c-0.3-1.2-0.6-2.4-0.7-3.7v-0.6l-0.5-3.4c-0.1-0.9-0.3-1.8-0.4-2.8v-0.5
	c-0.1-0.7-0.2-1.5-0.4-2.2c-0.1-0.8-0.3-2-0.5-3c-0.5-1.1-0.9-2.2-1.3-3.3c-0.4-1.2-0.8-2.8-1.2-4.5c-0.2-0.8-0.1-1.6,0.3-2.3
	C141.6,55.7,142,55,142.5,54.5z"/>
<path class="st1" d="M209.9,33.5h0.7l0.7,0.2h0.7l0.9,0.2l0.8,0.2c0.6,0.2,1.2,0.4,1.8,0.5c-1,0-2-0.1-3-0.3c-1-0.2-1.9-0.5-2.8-1
	c-0.3,0.2-0.6,0.3-0.9,0.4h-0.4l0.4-0.3C209.2,33.4,209.6,33.4,209.9,33.5z"/>
<path class="st1" d="M201.6,40c0.3-0.6,0.8-1.1,1.4-1.5c-0.1-0.2,0-0.5,0.3-0.6c0-0.1,0-0.2,0-0.3c0-0.6,0.3-1.2,0.7-1.6
	c1-0.9,2.5-0.9,3.5,0c1.4,1.1,2.8,2.2,4.1,3.3c0.7,0.5,1.3,1.1,1.9,1.7c0.7,0.7,1.3,1.4,1.8,2.2c0.8,1.1,1.4,2.4,1.6,3.7
	c0.1,0.6,0.1,1.3,0,1.9c-0.1,0.7-0.4,1.4-0.8,1.9c-0.5,0.7-1,1.3-1.5,1.8l-0.8,0.9c-0.4,0.4-0.7,0.9-1.1,1.3c-0.8,0.7-2,0.8-3,0.3
	c-0.5-0.3-0.9-0.8-1.1-1.3c-0.2-0.2-0.3-0.4-0.5-0.6s-0.6-0.7-0.9-1.1s-0.9-1.4-1.2-2.2c-0.6-1.2-1.3-2.4-2.1-3.6
	c-0.7-1.1-1.5-2.2-2.2-3.3l-0.3-0.4c-0.3-0.6-0.5-1.3-0.3-2C201.2,40.4,201.4,40.2,201.6,40z"/>
<path class="st1" d="M225.2,48.6c-0.3,0.5-0.4,1.2-0.2,1.7c0.1,0.4,0.3,0.7,0.6,1c0.6,0.6,1.6,0.8,2.4,0.6c0.8-0.3,1.6-0.8,2.2-1.3
	l1.5-1.1c0.8-0.6,1.5-1.3,2.3-1.9c0.9,1.1,1.9,2.2,3,3.2l1.6,1.3c1.8,0.5,3.5,1.1,5.2,1.8l0.6,0.3l0,0c0.5-0.4,0.7-1,0.7-1.6
	c0-0.6-0.3-1.2-0.7-1.6c-1.2-1-2.5-1.9-3.6-3c-1-0.9-1.9-1.9-2.8-2.9c-0.4-0.6-0.9-1.1-1.5-1.6l-0.1-0.2c-0.4-0.5-0.9-0.9-1.5-1
	c-0.2,0-0.4,0-0.6,0c-0.4,0-0.9,0.1-1.3,0.3c-1.1,0.5-2.1,1.2-2.9,2c-0.4,0.4-0.8,0.8-1.2,1.2s-0.9,0.8-1.3,1.1l-0.6,0.4
	C226.4,47.6,225.7,48,225.2,48.6z"/>
<path class="st1" d="M186.4,70.3c0.6-0.4,1.1-0.9,1.7-1.3s1.9-1.2,2.8-1.8l1.5-1l1.6-0.9c1-0.6,2.1-1.1,3.2-1.6l3.2-1.6
	c1.1-0.5,2.1-1.1,3.1-1.7c1-0.7,2-1.3,3-2s2-1.3,3-1.9s2.4-1.3,3.6-2s2.5-1.4,3.8-2.2s2.5-1.3,3.8-2l2.1-0.9c0.6-0.3,1.2-0.6,1.8-1
	c1.6-1.2,3.4-2.2,5.2-3c0.4-0.2,0.9-0.3,1.3-0.3c0.2,0,0.4,0,0.6,0c0.6,0.1,1.1,0.5,1.5,1c0.1,0.2,0.2,0.3,0.2,0.5
	c1.7-0.2,3.5,0.4,4.7,1.7c0.5,0.7,0.5,1.6,0,2.3c-0.1,0.2-0.2,0.3-0.4,0.5c-0.2,0.2-0.4,0.3-0.6,0.4l0,0l-0.9-0.1
	c-0.4,0-0.8,0-1.1,0c-0.2,0-0.4,0-0.7,0c-0.4,0.1-0.8,0.3-1.2,0.6c-0.1,0.1-0.1,0.1-0.2,0.2c-0.5-0.2-0.9-0.5-1.3-0.9v3.8
	c0.3,0.6,0.6,1.3,0.9,1.9c0.5,0.8,0.6,1.8,0.4,2.8c-0.2,0.4-0.5,0.8-0.8,1.2l-3.7-0.6c-1.5-0.3-2.9-0.5-4.4-0.7h-0.4
	c-0.6,0-1.2-0.2-1.8-0.2h-0.2c-0.2,0-0.4,0-0.7,0h-0.3c-0.9-0.1-1.8-0.1-2.8,0c0.2,0.3,0.5,0.6,0.7,0.9c0.2,0.3,0.4,0.6,0.6,0.9
	c0,0.6,0.1,1.3,0.4,1.8l0.3,0.6v0.7c0,0.2,0.5,1,0.7,1.6c0.2,0.8,0,1.7-0.7,2.2h-0.3c-0.9-0.1-1.9-0.2-2.8-0.5l-1.1-0.2
	c-2.5-0.5-5-0.8-7.5-0.9H208c-0.6,0-1.2,0-1.8,0.2c-1.6,0.4-2.6,1.9-2.5,3.5v3.4c0,1.8,0.1,3.6,0.2,5.5v1.1c0,0.6,0,1.2,0.2,1.8
	c-0.9,0.4-2,0.2-2.8-0.4c-0.3-0.3-0.6-0.6-0.9-1c-0.4,0.1-0.7,0.1-1.1,0c-0.6-0.1-1.1-0.5-1.5-1c-0.3-0.6-0.6-1.3-0.9-2
	c-1.2-0.6-2.5-1.2-3.8-1.7c-0.9-0.4-1.8-0.7-2.8-0.9c-0.8-0.2-1.7-0.4-2.6-0.5h-0.5c-0.4,0-0.9-0.1-1.3-0.3
	c-0.5-0.3-0.9-0.8-1.1-1.4c-0.2-0.8,0-1.7,0.6-2.2L186.4,70.3z"/>
<path class="st1" d="M213.1,93.1c-0.1,0.3-0.2,0.7-0.2,1c0,0.7,0.2,1.4,0.7,2c0.3,0.5,0.6,1,0.9,1.4c0.7,1,1.3,2.1,1.8,3.2
	c1,2,2.1,3.9,3.1,6l0.6,1.3c0.1,0.2,0.1,0.4,0.2,0.6c0.2,0.5,0.5,0.9,0.8,1.3c1,0.9,2.5,0.9,3.4,0c0.7-0.8,1-1.7,1-2.8v-0.8
	c0.1-0.6,0.2-1.1,0.4-1.7c0.1-0.4,0.3-0.9,0.5-1.3c0.6-1,1.2-2,1.9-3c0.4-0.5,0.8-1.1,1.2-1.6c0.4-0.6,0.7-1.2,1-1.8
	c0.6-1.1,1.2-2.2,1.8-3.3c0.6-1,1.2-2,2-2.9c1.7-2.2,3.6-4.2,5.5-6.2l3.4-3.3c1.1-1,2.2-2,3.4-3c1.1-0.8,2.4-1.4,3.6-2
	c1.4-0.7,3-1.2,4.4-2c0.5-0.2,1-0.5,1.5-0.8c0.3-0.2,0.5-0.4,0.7-0.6c1,0.5,2.2,0.4,3.1-0.3c0.9-0.8,0.9-2.2,0.1-3.1
	c0,0-0.1-0.1-0.1-0.1c-2.2-2-4.4-4-6.6-6c-0.3-0.2-0.6-0.5-0.9-0.7c-0.4-0.3-0.9-0.4-1.5-0.4c-0.4,0-0.7,0.1-1.1,0.2v0.1
	c-0.3,0.3-0.6,0.5-1,0.7h-0.2c-0.4,0.2-0.9,0.5-1.4,0.7H247c-0.9,0.7-1.8,1.4-2.8,2l-2.6,1.7c-1.1,0.7-2.2,1.5-3.2,2.3s-2,1.4-3,2.2
	s-1.8,1.5-2.8,2.3c-1.7,1.5-3.4,3.1-5.1,4.6h-0.2c-0.2,0.2-0.4,0.5-0.7,0.7l-0.4,0.5c-1.1,1.2-2.2,2.3-3.4,3.4l-1.4,1.3l-0.9,0.8
	c-0.5,0.5-1.1,1-1.6,1.5l-0.8,1c-0.5,0.5-0.9,1.1-1.5,1.6l0,0l-1.1,1.1C215.1,91.8,214.2,92.6,213.1,93.1z M218.1,94.3l0.5-0.6l0,0
	V94c-0.1,0.2-0.2,0.3-0.3,0.5L218.1,94.3z"/>
<path class="st2" d="M208.3,34.1L208.3,34.1c0.1-0.1,0.3-0.2,0.4-0.3c0.4-0.2,0.8-0.3,1.2-0.3h0.7l0.7,0.2h0.7l0.9,0.2l0.8,0.2
	c0.6,0.2,1.2,0.4,1.8,0.5h2.3c0.9,0.1,1.8,0.1,2.8,0c1-0.2,2-0.4,3-0.7c0.9-0.2,1.9-0.5,2.8-0.8l1-0.5c0.5-0.6,1.3-1,2.1-1h0.2
	c0.3,0,0.5,0,0.8,0c0.5,0.1,0.9,0.4,1.3,0.8h0.2c0.9,0.3,1.6,0.9,2.1,1.7c0.4,0.5,0.7,1.1,1,1.6c0.2,0.2,0.3,0.5,0.4,0.8
	c0.4,0.6,0.6,1.3,0.8,2v1.4c-0.1,0.4-0.4,0.8-0.7,1.1c-0.3,0.2-0.6,0.4-0.9,0.6c-0.9,0.6-1.7,1.2-2.6,1.7c-0.5,0.3-1,0.5-1.5,0.8
	l-1.5,0.7c-1,0.5-2,1-3,1.6c-0.9,0.6-1.9,1.2-3,1.8c-0.7,0.5-1.5,0.8-2.3,1c-1.2,0.4-2.6-0.2-3.2-1.3l-0.7-1.4
	c-0.8-1.8-1.8-3.5-2.9-5.2c-0.8-1-1.8-1.8-2.8-2.6l-2.2-1c-0.4-0.2-0.7-0.5-0.9-0.8c-0.3-0.5-0.4-1.2-0.2-1.8
	C207.7,34.8,207.9,34.4,208.3,34.1z"/>
<path class="st2" d="M192.1,59.2c0.6-0.9,1.1-1.8,1.5-2.8c0.7-1.5,1.2-3.1,1.8-4.7c0.3-0.8,0.6-1.7,0.9-2.5s0.5-1.9,0.9-2.8
	c0.3-1,1.3-1.7,2.4-1.7c0.2-0.3,0.5-0.6,0.9-0.8c0.4-0.2,0.9-0.3,1.3-0.3c0.4,0,0.8,0.1,1.2,0.3c0.2,0.2,0.5,0.3,0.7,0.5
	c0.3,0.3,0.5,0.7,0.7,1.1l0.5,0.8c0.3,0.4,0.6,0.8,0.8,1.3c0.6,1.1,1.1,2.2,1.6,3.4c0.4,0.9,0.6,1.8,0.8,2.8
	c0.2,0.6,0.2,1.3,0.1,1.9c-0.3,0.9-0.9,1.8-1.7,2.3c-2,1.6-4.2,2.8-6.6,3.8c-1.9,0.8-3.8,1.8-5.5,2.9l-0.5,0.3
	c-0.6,0.3-1.3,0.4-1.9,0.2c-1.2-0.3-2-1.5-1.7-2.7c0,0,0,0,0,0l0,0v-0.1C190.6,61.4,191.3,60.3,192.1,59.2z"/>
<path class="st3" d="M206.2,67.2c0.6-0.2,1.2-0.2,1.8-0.2h0.4c2.5,0.1,5,0.4,7.5,0.9l1.1,0.2c0.9,0.2,1.9,0.4,2.8,0.5
	c0.8,0.1,1.7,0.1,2.5,0.1c-0.2-0.5-0.4-1-0.6-1.6c-0.2-0.5-0.5-1.1-0.8-1.6l-0.4-0.7c-0.2-0.4-0.5-0.9-0.7-1.4
	c-0.5-0.8-0.5-1.9,0-2.8c0.4-0.5,0.9-0.9,1.6-1.1c0.2,0,0.4,0,0.7,0h0.2c0.6,0,1.2,0,1.8,0.2h0.4c1.5,0.2,2.9,0.4,4.4,0.7l4.2,0.6h1
	c0-0.4,0-0.8-0.1-1.2c-0.1-0.4-0.3-1.5-0.6-2.4L233,57c-0.2-0.7-0.4-1.4-0.5-2.1c-0.2-0.6-0.2-1.1,0-1.7c0.1-0.4,0.3-0.7,0.6-1
	c0.3-0.3,0.8-0.5,1.2-0.6c0.2,0,0.4,0,0.7,0c0.4,0,0.8,0,1.1,0c0.8,0.1,1.5,0.3,2.3,0.5c1.8,0.4,3.6,1.1,5.3,1.8
	c0.8,0.3,1.5,0.7,2.3,1.1h0.4c0.3,0.1,0.6,0.2,0.9,0.3c0.4,0.2,0.7,0.5,1,0.8c0.3,0.3,0.5,0.6,0.7,0.9c0.3,0.4,0.5,0.9,0.5,1.4
	c0,0.1,0,0.2,0,0.3c0.2,0.2,0.4,0.4,0.5,0.6c0.2,0.3,0.3,0.7,0.3,1.1c0,0.6-0.3,1.2-0.7,1.6c-0.3,0.3-0.6,0.5-1,0.7h-0.2
	c-0.4,0.2-0.9,0.5-1.4,0.7l-0.5,0.2c-1.2,0.6-2.5,1.3-3.6,2l-1.7,1.3l-1.2,1c-1.1,0.8-2.2,1.7-3.3,2.4s-1.8,1.3-2.8,2
	c-0.9,0.7-1.8,1.5-2.6,2.3l-2.8,2.8c-0.7,0.7-1.3,1.4-2,2.2l-0.4,0.5c-1.1,1.2-2.2,2.3-3.4,3.4l-1.4,1.3l-0.9,0.8
	c-0.5,0.5-1.1,1-1.6,1.5l-0.8,1c-0.5,0.5-0.9,1.1-1.5,1.6l0,0l-1,1.1c-0.7,1-1.8,1.7-3.1,1.8c-0.6,0-1.3-0.2-1.8-0.5
	c-0.5-0.3-0.9-0.7-1.2-1.2l-0.4-0.5v-0.2l-0.9-1.3c-0.7-0.9-1.2-1.7-1.9-2.4l-1-1.2c-0.4-0.6-0.6-1.2-0.8-1.8
	c-0.3-1.1-0.5-2.2-0.5-3.3v-1.1c0-1.8-0.2-3.6-0.2-5.5v-3.4C203.8,68.8,204.8,67.6,206.2,67.2z"/>
<path class="st3" d="M207.1,28.7l0.7-0.4c0.2-0.4,0.4-0.8,0.7-1.1c0.5-0.7,1.1-1.4,1.8-1.9c1.2-0.9,2.6-1.6,4.1-1.9
	c0.9-0.2,1.8-0.4,2.8-0.5h0.6c0.7,0,1.3,0.1,2,0.2h0.2c1.5,0.2,2.9,0.7,4.2,1.5c1.2,0.6,2.2,1.5,2.8,2.8h0.3c0.2,0,0.5,0,0.7,0
	c0.6,0.1,1.1,0.5,1.5,1c0.4,0.5,0.4,1.2,0.2,1.8c-0.2,0.6-0.6,1.1-1.1,1.4c-1.3,0.9-2.8,1.6-4.4,2c-1.2,0.4-2.4,0.7-3.6,0.9
	c-1.3,0.3-2.7,0.4-4.1,0.5h-1.1c-0.6-0.1-1.2-0.3-1.8-0.5l-0.8-0.2l-0.9-0.2h-0.7l-0.7-0.2H210c-0.4,0-0.8,0.1-1.2,0.3
	c-0.1,0.1-0.3,0.2-0.4,0.3h-0.2c-1.1,0-2.1-0.6-2.4-1.7c-0.1-0.4-0.2-0.7-0.2-1.1c0-0.5,0.1-1,0.4-1.5
	C206.2,29.5,206.6,29.1,207.1,28.7z"/>
<path class="st4" d="M249.8,56.4"/>
<path class="st4" d="M201.3,44.3c0,0.1-0.1,0.2-0.1,0.3l0,0C201.2,44.5,201.3,44.4,201.3,44.3z"/>
<path class="st4" d="M172.8,129.6"/>
<polygon class="st4" points="174.4,127.5 174.4,127.5 174.4,127.5 "/>
<path class="st4" d="M255.5,133.5"/>
<path class="st0" d="M318.6,135.3c0-0.7-0.2-1.4-0.2-2.1c0-0.6-0.1-1.3-0.3-1.9c-0.1-0.6-0.3-1.7-0.4-2.6c-0.1-0.8-0.3-1.6-0.6-2.4
	c-0.2-0.9-0.5-1.9-0.9-2.8c-0.3-0.9-0.8-1.8-1.4-2.5c-0.2-0.2-0.3-0.4-0.5-0.6c-0.1-0.1-0.3-0.3-0.4-0.4c0-1-0.1-2-0.2-2.9
	c-0.3-1.4-0.7-2.7-1.2-4c-0.4-1.1-1-2.1-1.6-3.1c-0.7-1-1.4-1.9-2.3-2.8c-2.1-2.2-4.7-4-7.4-5.3c-1.7-0.8-3.5-1.4-5.3-1.9l-4.6-1.3
	l-4.1-1.4c-1.5-0.6-2.9-1.3-4.3-2.1c-0.5-0.4-1-0.9-1.5-1.4l-1.1-1.4c-0.2-0.3-0.5-0.5-0.9-0.6h-0.4c-0.3,0-0.5,0.1-0.7,0.2
	c-0.3,0.2-0.5,0.5-0.5,0.8c-0.1,0.3-0.1,0.7,0.1,1c0.6,0.8,1.1,1.5,1.8,2.2c1.7,1.6,3.8,2.8,6,3.5c1.5,0.6,3,1.1,4.5,1.6
	s2.8,0.8,4.1,1.2l2.4,0.7c0.6,0.2,1.2,0.4,1.7,0.6c1.8,0.7,3.6,1.6,5.2,2.8c1.5,1,2.8,2.2,3.9,3.6c0.8,1,1.5,2.1,2.1,3.3
	c0.7,1.5,1.2,3.1,1.4,4.7c0.1,0.9,0.1,1.8,0,2.8l-0.2,0.4c-0.1,0.4-0.2,0.9-0.3,1.3c0,0.3,0,0.6,0,0.9v0.4l-2.2,3.5l-2.3,3.5
	c-0.6,0.9-1.2,1.8-1.8,2.6l-0.9-0.6l0,0l0.9,0.6l-0.2,0.3c-0.7,0.9-1.6,2.2-2.5,3.3c-0.2,0.3-0.3,0.7-0.1,1c0.1,0.3,0.3,0.6,0.6,0.8
	c0.4,0.1,0.8,0.1,1.1,0c0.3-0.1,0.6-0.3,0.8-0.6c0.9-1,1.6-2.2,2.4-3.2l0.1-0.1l0.6,0.4c-0.1,0.3-0.1,0.5-0.1,0.8
	c0,0.2,0.1,0.5,0.1,0.7c0.3,0.7,1.1,1.1,1.8,0.9c0.3-0.1,0.6-0.3,0.7-0.6c0,0,0-0.1,0.1-0.2l1.5,0.9c0,0.1,0,0.2,0,0.3
	c0,0.3,0.2,0.7,0.4,0.9c0.2,0.2,0.4,0.3,0.6,0.3c0.6,0.2,1.2-0.1,1.6-0.6c0.1-0.2,0.2-0.4,0.3-0.6v-1.3c0-0.2,0-0.5,0-0.8
	c0-0.4,0-0.8,0.1-1.2v0.5c0,0.6,0.1,1.1,0.3,1.7c0.1,0.7,0.2,1.4,0.4,2.1c0.1,0.4,0.2,0.8,0.4,1.1l0.5,0.9c0.4,0.7,1.3,0.9,2,0.4
	c0,0,0,0,0,0c0.1,0,0.1-0.1,0.2-0.2c0.3-0.3,0.5-0.6,0.6-1c0-0.3,0-0.6,0-0.8C318.9,138.2,318.7,136.8,318.6,135.3z M306.7,134.8
	l1.2-1.7l-0.2,0.6c-0.2,0.4-0.3,0.9-0.4,1.3c0,0,0,0.1,0,0.2L306.7,134.8z M310,136.8c0.3-0.6,0.6-1.2,0.8-1.8
	c0-0.2,0.1-0.4,0.2-0.6l0.3-1v2.5c0,0.6,0,1.2,0.1,1.8L310,136.8z"/>
<path class="st0" d="M311.5,137.9l-2-14.1"/>
<path class="st4" d="M303.8,106.7"/>
<path class="st4" d="M256.4,74.2"/>
<path class="st4" d="M181.6,72.1c-0.3,0.2-0.4,0.6-0.4,0.9c0,0.3,0.2,0.7,0.4,0.9c0.3,0.2,0.6,0.4,1,0.4h0.3
	c0.9,0.1,1.9,0.4,2.8,0.7h0.5l0.9,0.4c1.1,0.4,2.2,0.8,3.2,1.3s2.3,1,3.4,1.6c1,0.6,2,1.2,3,1.8L199,82l3.5,2.8
	c0.5,0.4,1.1,0.9,1.6,1.3s1.1,0.9,1.5,1.4c1.1,1,2.1,2.1,3.1,3.2l2.9,3.4c0.7,0.8,1.3,1.6,2,2.4l2,2.8l1,1.6
	c0.2,0.4,0.5,0.8,0.7,1.2c0.2,0.4,0.5,0.9,0.7,1.3l0.7,1.5c0.4,1,0.8,2,1.2,3c0.2,0.5,0.4,1,0.6,1.5s0.6,1.8,1.1,2.8
	c0.2,0.4,0.5,0.8,0.9,1c0.5,0.3,1.1,0.3,1.6,0c0.5-0.3,0.8-0.9,0.9-1.4c0.2-0.5,0.3-1,0.5-1.6c0.4-1,0.8-2.1,1.2-3.1
	c0.3-0.6,0.5-1.2,0.8-1.7s0.7-1.3,1.1-2c0.7-1.2,1.5-2.3,2.2-3.6s1.4-2.4,2.1-3.6l1.1-1.9c0.4-0.6,0.8-1.3,1.2-1.9l0.8-1.2l0.5-0.7
	l1.3-1.7c0.8-1,1.7-1.9,2.5-2.8l2.6-2.8c0.4-0.4,0.8-0.8,1.2-1.2s0.8-0.8,1.3-1.2s1-0.9,1.6-1.3l1.5-1.1c0.5-0.4,1-0.7,1.6-1.1
	s1.2-0.8,1.8-1.1c0.6-0.4,1.3-0.7,2-1c0.7-0.3,1.8-0.8,2.8-1.2l0,0c0.9-0.4,1.9-0.7,2.9-0.9c0.9-0.2,1.9-0.4,2.8-0.6
	c0.7-0.1,1.1-0.8,1-1.5l0,0l0,0c-0.1-0.3-0.3-0.6-0.6-0.8c-0.2-0.1-0.4-0.2-0.7-0.2h-0.4c-1.4,0.2-2.7,0.5-4,0.9
	c-1.4,0.5-2.8,1-4.2,1.7c-0.7,0.3-1.4,0.6-2.1,1c-0.4,0.1-0.7,0.3-1,0.6l-1,0.6l-1.9,1.3l-2,1.5c-0.6,0.4-1.2,1-1.7,1.4
	s-1.1,1-1.6,1.5s-1,1-1.5,1.5l-3,3.2c-1.1,1.2-2.1,2.4-3,3.6c-0.9,1.1-1.7,2.3-2.4,3.5c-0.7,1.2-1.4,2.5-2.1,3.7s-1.5,2.5-2.3,3.8
	c-0.8,1.1-1.5,2.3-2.1,3.5c-0.7,1.4-1.4,2.8-1.9,4.2l-0.4,0.9l-0.5-1.3c-0.4-1.2-0.9-2.4-1.5-3.6c-0.6-1.3-1.3-2.6-2-3.8
	c-0.8-1.2-1.6-2.5-2.4-3.7s-1.9-2.5-3-3.7l-3-3.4c-1-1.1-2-2.1-3.1-3.2c-0.2-0.2-0.4-0.4-0.7-0.6l-0.9-0.4c-0.5-0.4-1-0.9-1.6-1.3
	c-2.4-2-4.9-3.9-7.6-5.7c-1.3-0.8-2.6-1.5-3.9-2.1c-1.3-0.6-2.8-1.2-4-1.7l-1.7-0.7h-0.3c-0.7-0.3-1.4-0.5-2.2-0.7
	c-0.7-0.1-1.4-0.2-2.1-0.3C182.5,71.9,182,71.9,181.6,72.1z"/>
<path class="st2" d="M256.4,73.6c0.2-0.1,0.5-0.2,0.8-0.2h0.3c0.4,0.1,0.7,0.3,0.9,0.6c0,0.2,0.2,0.4,0.3,0.7
	c0.1,0.3,0.2,0.5,0.2,0.8l0.2,1.1c0,0.5,0.1,1.1,0.2,1.6c0.1,0.6,0.2,1.7,0.3,2.6c0.2,1.6,0.4,3.2,0.6,4.8c0-0.1,0-0.2,0-0.4
	c0.2,1.2,0.4,2.4,0.5,3.6c0.1,0.3,0,0.7-0.1,1c-0.2,0.3-0.5,0.5-0.8,0.6c-0.4,0.1-0.7,0.1-1.1,0c-0.3-0.2-0.5-0.4-0.7-0.8
	c-0.3-2.2-0.7-4.3-0.9-6.4c-0.2-1.7-0.4-3.4-0.6-5.2c-0.6-0.1-1.1-0.6-1.1-1.3c0-0.4,0-0.8,0-1.2C255.5,74.7,255.5,73.8,256.4,73.6z
	"/>
<path class="st2" d="M248.2,76.3h0.4c0.6,0,1.2,0.4,1.4,1c0.7,2.4,1.4,4.9,1.9,7.4c0.2,1.1,0.5,2.2,0.7,3.4l0.3,2
	c0.1,0.8,0.2,1.7,0.3,2.5c0,0.8-0.2,1.6-0.4,2.4c-0.2,0.7-1,1.1-1.7,0.9c-0.3-0.1-0.6-0.3-0.8-0.6c-0.1-0.3-0.1-0.7,0-1
	c0-0.4,0-0.8,0.2-1.1c0.1-0.7,0.1-1.3,0-2c-0.1-0.6-0.1-1.2-0.3-1.7c-0.1-0.5-0.2-0.9-0.3-1.4c-0.2-1.2-0.5-2.3-0.8-3.5
	s-0.4-1.6-0.6-2.4c-0.4-1.3-0.7-2.8-1.1-4c-0.3-0.7,0.1-1.4,0.7-1.6L248.2,76.3z"/>
<path class="st2" d="M240.5,82.7c0.2-0.3,0.5-0.5,0.8-0.6h0.4c0.4,0,0.7,0.1,1,0.4c0.4,0.3,0.7,0.7,1,1.1c0.4,0.6,0.1,1.4-0.5,1.8
	h-0.5v1.2c0.2,1.5,0.6,2.9,1,4.3c0.2,0.9,0.4,1.7,0.7,2.6s0.5,2,0.8,3c0.3,1.1,0.5,2.2,0.6,3.3c0,0.7-0.5,1.2-1.2,1.3
	c-0.4,0-0.7-0.1-1-0.4c-0.2-0.2-0.4-0.6-0.4-0.9v-0.4c-0.4-2.1-0.9-4.1-1.5-6.1l-0.8-3.3c-0.2-0.9-0.4-1.8-0.6-2.8
	c-0.1-0.8-0.2-1.5-0.2-2.3c0-0.4,0-0.9,0.1-1.3C240.2,83.4,240.3,83,240.5,82.7z"/>
<path class="st2" d="M234.5,91.4c0.4,0,0.7,0.1,1,0.4c0.3,0.2,0.4,0.6,0.4,0.9l0.2,1.9c0.2,1.4,0.5,2.8,0.7,4.3c0,0.5,0.1,1,0.2,1.5
	c0.1,0.5,0.3,1.3,0.4,2c0.3,1.3,0.6,2.8,0.9,4c0.1,0.6,0.2,1.2,0.3,1.9s0.2,1.7,0.2,2.5c0,0.7-0.6,1.3-1.3,1.3c0,0,0,0,0,0l0,0
	c-0.7,0-1.4-0.6-1.4-1.3v-1.9c0-0.4,0-0.9-0.2-1.3c-0.2-0.7-0.4-1.5-0.5-2.2l-0.8-3.8c-0.2-1.1-0.4-2.2-0.6-3.3s-0.2-1.6-0.4-2.4
	s-0.3-2-0.4-3.1c0-0.3,0.2-0.7,0.4-0.9C233.9,91.6,234.2,91.4,234.5,91.4z"/>
<path class="st2" d="M226.7,100.7h0.4c0.6,0,1.1,0.4,1.4,0.9c1,2.8,2.1,5.5,3,8.5c0.4,1.3,0.9,2.5,1.3,3.8s0.9,2.6,1.2,3.9
	c0.2,0.7-0.2,1.4-0.9,1.6l0,0c-0.7,0.2-1.5-0.2-1.7-0.9c-0.3-1.3-0.7-2.6-1.2-3.8l-1.3-3.8c-1-2.8-2-5.7-3.1-8.6
	C225.6,101.7,225.9,101,226.7,100.7L226.7,100.7z"/>
<path class="st2" d="M222.4,110.5c0-0.7,0.7-1.3,1.4-1.3c0.7,0,1.4,0.5,1.4,1.3l0,0c-0.2,2.3-0.3,4.6-0.5,6.9s-0.2,4.2-0.4,6.2
	c0,0.4-0.2,0.7-0.4,0.9c-0.3,0.2-0.6,0.4-1,0.4c-0.4,0-0.7-0.1-1-0.4c-0.3-0.3-0.4-0.6-0.4-0.9c0.3-2,0.3-4.1,0.4-6.2
	S222.2,112.8,222.4,110.5z"/>
<path class="st2" d="M213.5,111.6c0.2-0.8,0.4-1.7,0.6-2.5s0.4-1.9,0.6-2.8c0-0.4,0-0.8,0.2-1.2c0.1-0.4,0.2-0.8,0.2-1.2
	c0-1.5,0.3-2.9,0.4-4.4c0-0.3,0.2-0.7,0.4-0.9c0.3-0.2,0.6-0.4,1-0.4c0.7,0,1.4,0.5,1.4,1.3c0,0,0,0,0,0l0,0c0,0.9-0.1,1.7-0.3,2.6
	c0,0.8-0.1,1.5-0.2,2.3c-0.2,0.8-0.3,2.3-0.6,3.4c-0.6,2.6-1.2,5.1-1.8,7.7c-0.3,0.7-1,1.1-1.7,0.9c-0.7-0.1-1.1-0.8-1-1.5l0,0l0,0
	C213,113.6,213.2,112.6,213.5,111.6z"/>
<path class="st2" d="M207.8,97.3c0.6-1.9,1.2-3.7,2-5.5c0.1-0.3,0.3-0.6,0.6-0.8c0.2-0.1,0.5-0.2,0.7-0.2h0.3c0.7,0.1,1.1,0.8,1,1.5
	l0,0v0.1c0,0.1,0,0.2,0,0.2c0,0.1-0.1,0.2-0.2,0.3c-0.7,1.7-1.2,3.3-1.8,5s-1,3.3-1.4,5c-0.3,0.7-1,1.1-1.7,0.9
	c-0.7-0.2-1.2-0.9-1-1.6l0,0C206.8,100.6,207.2,99,207.8,97.3z"/>
<path class="st2" d="M199.4,89c0.8-2.5,1.4-5,2.1-7.5c0.2-0.6,0.7-1,1.4-0.9h0.3c0.7,0.2,1.2,0.9,1,1.6c0,0,0,0,0,0l0,0l0,0
	c-0.7,2.5-1.3,4.9-2.1,7.4s-1.4,4.5-2.1,6.8c-0.3,0.7-1,1.1-1.7,0.9c-0.7-0.1-1.1-0.8-1-1.5l0,0C198,93.4,198.8,91.2,199.4,89z"/>
<path class="st2" d="M189,85.9c0.3-1.2,0.7-2.4,1-3.6c0.6-1.7,1.1-3.4,1.7-5.2c0.2-0.6,0.7-1,1.4-1h0.4c0.7,0.2,1.1,0.8,1,1.5v0.1
	c-0.6,1.7-1.1,3.4-1.7,5.2c-0.4,1.2-0.7,2.4-1,3.6c-0.7,2.5-1.2,4.9-1.7,7.4c-0.2,0.7-1,1.1-1.7,0.9c-0.7-0.2-1.2-0.9-1-1.6l0,0
	C187.8,90.8,188.3,88.4,189,85.9z"/>
<path class="st2" d="M179.4,79.7c0.4-1.1,0.7-2.2,1.1-3.2c0.4-1.6,0.9-3.2,1.3-4.8c0.2-0.6,0.7-1,1.4-0.9h0.4c0.7,0.1,1.1,0.8,1,1.5
	l0,0l0,0c-0.4,1.6-0.8,3.1-1.2,4.7c-0.3,1.1-0.7,2.2-1,3.2c-0.7,2.3-1.3,4.6-1.8,6.9c-0.2,0.7-1,1.1-1.7,0.9
	c-0.4-0.1-0.7-0.3-0.9-0.6c-0.2-0.3-0.2-0.7-0.1-1C178.1,84.1,178.7,81.9,179.4,79.7z"/>
<path class="st0" d="M145,34.1c-0.1-0.3-0.4-0.6-0.7-0.8c-0.3-0.2-0.7-0.2-1.1-0.1H143c-0.9,0.2-1.8,0.3-2.8,0.2
	c-3.1,0.1-6.1,0-9.2-0.2c-1.5-0.1-2.9-0.3-4.3-0.3h-0.2c-1.5,0-3.1,0.1-4.6,0.5c-1.5,0.3-2.9,0.8-4.2,1.5c-0.6,0.4-1.3,0.9-1.8,1.4
	c-0.5,0.5-0.9,1-1.4,1.5l-1.6,1.6c-0.5,0.4-0.9,0.9-1.4,1.4c-0.5,0.5-1,1-1.5,1.5c-0.5,0.4-1,0.8-1.5,1.2c-0.8,0.5-1.6,1-2.5,1.4
	c-0.4,0.2-0.9,0.3-1.4,0.4c-0.5,0-1,0-1.5,0c-0.5-0.1-0.9-0.2-1.3-0.3h-0.2l-0.4-0.4c-0.6-0.5-1.5-0.5-2,0.1
	c-0.3,0.2-0.4,0.6-0.4,0.9c0,0.3,0.2,0.7,0.4,0.9c0.4,0.4,0.8,0.8,1.3,1c0.3,0.1,0.6,0.2,0.9,0.3l1,0.2c0.7,0.1,1.5,0.1,2.2,0
	c0.9-0.1,1.9-0.3,2.8-0.6c0.7-0.3,1.4-0.7,2-1.1c1.2-0.8,2.4-1.8,3.4-2.8c0.6-0.5,1.1-1.1,1.6-1.6s1-1,1.5-1.5s1-1,1.4-1.5
	c0.7-0.8,1.6-1.5,2.6-2l1-0.4c0.8-0.3,1.7-0.5,2.6-0.7c0.7-0.3,1.5-0.5,2.2-0.5c0.6,0,1.1,0.1,1.6,0.2c0.9,0,1.8,0.1,2.7,0.2
	l4.5,0.2h4.7c1.6,0,3.3-0.1,4.9-0.4c0.4-0.1,0.7-0.3,0.9-0.6C145.1,34.7,145.1,34.4,145,34.1z"/>
<path class="st5" d="M132.8,20c0.3-0.1,0.6-0.2,0.9-0.2c0.1,0,0.3,0,0.4,0c0.2,0,0.4,0,0.6,0c0.2,0.1,0.4,0.2,0.6,0.3
	c0.2,0.2,0.3,0.4,0.4,0.7c0,0.1,0,0.1,0,0.2c0.3,0.7,0,1.6-0.8,1.9c0,0,0,0,0,0c-0.2,0.1-0.4,0.1-0.7,0.1h-0.1
	c-0.2,0.1-0.5,0.1-0.8,0.1c-0.9,0-1.6-0.7-1.6-1.6c0,0,0,0,0,0l0,0c0-0.5,0.2-0.9,0.6-1.3C132.6,20.2,132.7,20.1,132.8,20z"/>
<path class="st0" d="M137.9,11.7c0-0.1,0-0.2,0-0.3l0,0c0.3-1.4,0.6-2.8,0.9-4c0.2-0.8,0.4-1.7,0.7-2.4c0.3-1,0.6-1.9,1.1-2.8
	c0.3-0.4,0.5-0.8,0.9-1.2c0.3-0.3,0.6-0.6,1-0.9l0,0c0.2-0.1,0.5-0.2,0.7-0.2h0.1c0.2,0,0.3,0,0.5,0h0.3c0.2,0.1,0.3,0.2,0.4,0.3
	c0.2,0.3,0.4,0.6,0.5,0.9c0.2,0.9,0.2,1.9-0.2,2.8c-0.3,0.9-0.6,1.9-1.1,2.8l-0.5,1.1l-0.5,0.9c-0.2,0.4-0.4,0.7-0.7,1.1v0.3
	c-0.3,0.7-0.7,1.4-1,2c-0.2,0.3-0.5,0.5-0.8,0.6V13c-0.3,0.7-1,1.1-1.7,0.9c-0.7-0.1-1.1-0.8-1-1.5l0,0
	C137.8,12.2,137.9,11.9,137.9,11.7z"/>
<path class="st0" d="M147,18.9c0.1,0.1,0.1,0.2,0.2,0.3c-0.3,0.3-0.3,0.7-0.2,1.1c0.2,0.6,0.9,1,1.6,0.9c0.6,0,1.1,0,1.7,0
	c1.2,0,2.3-0.2,3.5-0.6c0.8-0.3,1.7-0.6,2.4-1c0.8-0.4,1.5-0.9,2.1-1.5c0.8-0.6,1.1-1.6,1-2.5c-0.2-0.8-0.9-1.5-1.7-1.7
	c-0.4,0-0.8,0-1.2,0c-0.7,0-1.3,0.1-2,0.2c-1.2,0.2-2.4,0.6-3.5,1.1c-1.2,0.5-2.3,1.1-3.3,1.8c-0.3,0.2-0.5,0.4-0.6,0.8
	C146.7,18.2,146.8,18.6,147,18.9z M156.6,16v0.2 M150,18.7l1.1-0.6c0.6-0.3,1.3-0.6,1.9-0.8c0.7-0.3,1.5-0.5,2.3-0.6h0.8l-0.3,0.3
	c-0.6,0.4-1.3,0.7-1.9,1c-0.9,0.3-1.8,0.6-2.8,0.7C150.7,18.7,150.3,18.7,150,18.7L150,18.7z"/>
<path class="st0" d="M250,164.5c0,0.3,0.1,0.6,0.2,0.8c0.1,0.2,0.2,0.4,0.4,0.6c0.2,0.3,0.5,0.5,0.9,0.7c0.4,0.2,0.9,0.3,1.4,0.3
	c0.4,0,0.9,0,1.3-0.2c0.4-0.1,0.8-0.3,1.2-0.5c0.4-0.2,0.7-0.5,0.9-0.9c0.6-0.5,0.8-1.3,0.4-2c-0.1-0.2-0.2-0.3-0.3-0.4l0.5-0.6
	c0.6-0.7,1.1-1.5,1.6-2.2c0.9-1.4,1.8-2.8,2.8-4.4l1.1-2.1c0.3-0.6,0.6-1.3,0.8-1.9c0.5-1.5,0.9-2.9,1.4-4.4s0.8-2.6,1.2-3.8
	s0.8-2.8,1.1-4.2c0.7-2.8,1.6-5.5,2.4-8.1c0.4-1.4,0.7-2.8,1.1-4.2c0.2-0.7,0.4-1.3,0.5-2c0.2-0.9,0.4-1.8,0.4-2.8
	c0-0.3-0.1-0.7-0.4-0.9c-0.3-0.3-0.6-0.4-1-0.4c-0.4,0-0.7,0.1-1,0.4c-0.2,0.2-0.4,0.6-0.4,0.9v0.4l-0.2,1.4l-0.5,1.9
	c-0.3,1.1-0.6,2.1-0.9,3.2c-0.6,2.4-1.4,4.7-2.1,7c-0.4,1.3-0.7,2.8-1,3.9s-0.8,2.8-1.2,4.2l-1.5,3.9c-0.2,0.7-0.4,1.5-0.7,2.2
	s-0.4,1.2-0.7,1.8c-0.8,1.6-1.6,3.2-2.6,4.7c-0.9,1.5-1.9,3-3,4.4l-0.4,0.5c-0.3-0.1-0.6-0.1-0.9,0l-0.7,0.3l0,0
	c-0.4,0-0.8,0.2-1.1,0.4C250.2,162.8,249.8,163.7,250,164.5z M268.3,122.6L254,161.4c0.1-0.1,0.1-0.1,0.1-0.2
	c-0.1,0.1-0.1,0.1-0.2,0.2L268.3,122.6z"/>
<path class="st0" d="M237.4,196.4c-0.4,1.4-0.6,2.9-0.6,4.4c0,0.7,0,1.3,0,2v2.2c0.1,0.2,0.2,0.4,0.4,0.6c0.4,0.6,1.2,0.8,1.8,0.4
	l0,0c0.3-0.1,0.6-0.3,0.9-0.6c0.1-0.3,0.1-0.7,0-1c0-0.1,0-0.2,0-0.3l0,0c-0.2-1.7-0.2-3.5,0-5.2c0.5-2.6,1.3-5.1,2.4-7.4
	c0.6-1.3,1.2-2.5,1.9-3.8s1.3-2.6,1.9-3.9s1.2-2.8,1.7-4.1c0.2-0.6,0.4-1.2,0.7-1.8s0.5-1.1,0.7-1.7c1.5-3.3,2.7-6.6,3.6-10.1
	c0.2-0.7-0.2-1.4-0.9-1.5c0,0,0,0,0,0h-0.1c-0.1,0-0.2,0-0.4,0c-0.6,0-1.2,0.4-1.4,0.9c-0.7,2.7-1.6,5.4-2.8,8
	c-0.4,0.8-0.8,1.6-1.1,2.4s-0.6,1.5-0.9,2.3c-0.6,1.6-1.3,3.2-2,4.8s-1.9,3.9-2.8,5.8C239.2,191.1,238.2,193.7,237.4,196.4z"/>
<path class="st0" d="M239.8,203.6c-0.1-0.4-0.2-0.8-0.4-1.2c-0.2-0.4-0.4-0.8-0.6-1.2s-0.4-0.6-0.6-1c-0.2-0.3-0.2-0.7-0.1-1
	c0.1-0.3,0.3-0.5,0.5-0.7c-0.3-0.5-0.6-1.1-0.9-1.6c-0.2-0.3-0.2-0.7-0.1-1c0.1-0.3,0.3-0.6,0.6-0.8c0.2-0.1,0.5-0.2,0.7-0.2
	c0.1,0,0.2,0,0.4,0c0.4,0.1,0.7,0.3,0.9,0.6c0.3,0.7,0.7,1.3,1.1,1.9l0.4,0.6c0.7,0.7,1.3,1.5,1.9,2.3c0.6,0.8,1,1.6,1.3,2.5
	l0.2,0.6c0.1,0.3,0.1,0.6,0,0.9c-0.2,0.4-0.5,0.8-0.9,1c-0.3,0.2-0.6,0.3-0.9,0.4l-0.6,0.2l-0.8,0.2c-0.6,0-1.2,0.2-1.8,0.3
	c-0.8,0.2-1.6,0.1-2.3-0.4c-0.4-0.4-0.5-1.1-0.2-1.6C238,203.8,239,203.7,239.8,203.6z"/>
<path class="st0" d="M268.6,120.8v13.1c0,1.3,0.2,2.6,0.4,3.9c0.2,1.3,0.5,3.1,0.8,4.6s0.5,2.8,0.8,4.1s0.4,2.8,0.7,4l0.3,2.1
	c0.1,0.7,0.3,1.4,0.5,2c0.3,1.3,0.8,2.5,1.3,3.7c0,0.3,0.2,0.5,0.3,0.8l-0.4,0.1c-0.4,0.2-0.8,0.6-1,1c-0.3,0.6-0.3,1.3,0,1.9
	c0.2,0.4,0.4,0.8,0.8,1.1c0.4,0.4,0.8,0.7,1.3,0.8l0,0c0.5,1,1.1,1.9,1.7,2.8l2.3,3.6c1.5,2.4,3.1,4.7,4.6,7.1s3.3,5,5,7.4
	c0.9,1.2,1.8,2.3,2.8,3.3c0.9,1,1.7,2.1,2.4,3.3c0.8,1.1,1.6,2.2,2.5,3.4s1.8,2.5,2.8,3.7c0.9,1.1,1.9,2.1,3,3
	c0.4,0.4,0.8,0.7,1.3,1c0.8,0.5,1.8,0.7,2.8,0.7c1.1-0.1,2.1-0.5,3.1-1l1.3-0.7c0.6-0.3,1.1-0.7,1.7-1.1l1-0.8l0.4-0.4
	c0.4-0.4,0.5-1,0.4-1.5c-0.1-0.2-0.2-0.4-0.4-0.6c-0.1-0.1-0.2-0.2-0.4-0.3c-0.1-0.1-0.3-0.2-0.4-0.2c-0.4-0.1-0.8-0.3-1.2-0.4
	l-1.1-0.3c-0.7-0.2-1.4-0.3-2.1-0.5l-4.3-0.8l-2.2-0.5l-1-0.2l-0.7-0.1c-0.3-0.1-0.7-0.1-1,0l-0.9-1.2l-2.7-3.8
	c-0.8-1.1-1.6-2.2-2.5-3.2s-1.8-2.3-2.6-3.5s-1.7-2.3-2.5-3.6s-1.5-2.4-2.3-3.6c-1.6-2.4-3.1-4.8-4.7-7.2c-0.7-1.2-1.5-2.4-2.2-3.6
	l0,0c0.1-0.2,0.2-0.3,0.2-0.5v-0.2c0.1-0.1,0.2-0.3,0.2-0.4v-0.3c0-0.2,0-0.5,0-0.7c-0.1-0.3-0.2-0.5-0.4-0.7l-0.4-0.6
	c-0.2-0.2-0.4-0.4-0.5-0.5c-0.1-0.5-0.3-1-0.5-1.4c-0.5-1.3-1-2.5-1.4-3.8c-0.4-1.3-0.7-2.6-0.9-4c-0.2-1.4-0.4-2.8-0.6-4.1
	c-0.5-2.8-1.1-5.5-1.6-8.3V138c-0.2-1.3-0.3-2.6-0.4-4v-13.1c-0.1-0.8-0.9-1.4-1.8-1.2C269.2,119.8,268.8,120.2,268.6,120.8
	C268.6,120.8,268.6,120.8,268.6,120.8z"/>
<path class="st0" d="M187.6,137.1c-0.1,0.3-0.1,0.7,0,1c0.9,1.6,1.7,3.3,2.5,5l0.9,2.1c0.5,1.2,1,2.5,1.4,3.7
	c0.4,1.4,0.8,2.8,1.2,4.3c0.7,2.8,1.3,5.3,1.7,8c0,1.1,0.2,2.2,0.3,3.2c0,0.6,0,1.2,0.1,1.7v1.1l-0.2,0.2c-0.2,0.2-0.4,0.4-0.4,0.7
	c-0.5,1-0.1,2.2,0.9,2.8c0.5,0.4,1.1,0.6,1.7,0.7v0.3c0,0.1,0.2,0.8,0.3,1.1l0.6,2c0.2,0.6,0.3,1.3,0.6,1.9c0.5,1.4,1,2.8,1.5,4
	s1,2.8,1.5,4.1s0.9,2.8,1.3,4.2s0.8,2.8,1.1,4s0.9,2.8,1.4,4.2c1,2.6,1.8,5.3,2.8,7.9c0.2,0.6,0.4,1.2,0.6,1.8
	c0.2,0.6,0.4,1.2,0.7,1.9l0,0c0,0.5,0,0.9,0.2,1.4c0.2,0.4,0,0.6,0.2,1c0.3,1,1,1.7,2,2c0.5,0.2,1,0.4,1.5,0.5
	c0.5,0.1,0.9,0.1,1.4,0c0.5-0.1,1-0.2,1.5-0.3c0.2-0.1,0.4-0.2,0.6-0.4c0.5-0.1,0.9-0.4,1.2-0.8c0.3-0.6,0.3-1.2,0-1.8
	c-0.2-0.4-0.4-0.9-0.7-1.2c-0.5-0.7-1.1-1.3-1.7-1.9c-0.6-0.6-1.2-1-1.8-1.6l-0.9-0.7c-0.4-0.4-0.9-0.7-1.3-1
	c-0.3-0.2-0.6-0.2-0.9-0.2l-0.8-2.1c-0.4-1.3-0.9-2.8-1.3-3.9s-1.1-2.8-1.5-4.3s-0.8-2.8-1.2-4c-0.7-2.7-1.6-5.3-2.5-7.9
	c-0.5-1.3-1-2.8-1.5-3.9c-0.5-1.3-1-2.7-1.3-4.1c-0.2-0.7-0.4-1.5-0.6-2.2c0-0.1,0-0.3,0-0.4c0.4-0.2,0.8-0.5,1.1-0.8
	c0.4-0.4,0.6-1,0.6-1.5c0-0.5-0.3-1-0.6-1.4c-0.3-0.4-0.8-0.8-1.2-1.1c-0.5-0.2-1-0.4-1.5-0.4h-0.4c-0.2-1.8-0.3-3.5-0.5-5.2
	c-0.4-2.2-0.8-4.4-1.3-6.6c-0.4-1.5-0.7-2.9-1.1-4.4c-0.4-1.4-0.8-2.7-1.3-4.1c-0.2-0.6-0.4-1.1-0.7-1.7s-0.6-1.4-0.9-2.1l-2.5-5
	c-0.3-0.4-0.7-0.7-1.2-0.6c-0.2,0-0.5,0.1-0.7,0.2C187.8,136.5,187.6,136.8,187.6,137.1z"/>
<path class="st4" d="M170.9,142.5"/>
<path class="st0" d="M154.6,157.9c0.3-0.8,0.7-1.4,1.3-2c0.9-1,1.9-1.9,3-2.8c1-0.8,2.3-2.1,3.5-3l3.4-2.6l1.9-1.5
	c1.1-1.1,2.2-2.2,3.1-3.4c0,0.1,0,0.1,0,0.2l0.2-0.2l0,0c1.3-1.5,2.5-3.2,3.6-4.9l0.9-1.3l0.5-0.7c0.5-0.8,1-1.6,1.4-2.5
	c0.3-0.4,0.7-0.7,1.2-0.6c0.2,0,0.5,0.1,0.7,0.2c0.3,0.2,0.5,0.5,0.6,0.8c0.1,0.3,0,0.7-0.1,1c-0.4,0.8-0.9,1.6-1.4,2.4
	c-0.4,0.6-0.8,1.2-1.2,1.7c-0.9,1.3-1.9,2.8-2.8,3.9c-1.2,1.6-2.6,3.2-4.1,4.6c-0.9,0.8-1.8,1.5-2.8,2.2s-2.3,1.7-3.4,2.8
	s-2.3,2-3.5,3s-1.5,1.4-2.3,2.1c0.3,0,0.6,0,0.9,0c1,0.3,1.9,1,2.3,1.9c0.2,0.5,0.2,1,0.1,1.5c-0.1,0.5-0.4,1-0.8,1.4l-0.2,0.2l0,0
	v0.6c0,0.3-0.2,0.6-0.3,0.9c0.2,0.6,0.4,1.1,0.6,1.6c0.3,0.7,0.6,1.5,0.8,2.1c0.5,1.3,1,2.5,1.5,3.7c1.1,2.8,2.4,5.5,3.5,8.3
	c0.5,1.2,0.9,2.5,1.3,3.7s0.9,2.8,1.4,4.3s1,3,1.5,4.5c0.4,0.1,0.7,0.3,0.9,0.6l1.5,2.8l0.6,1l0.7,1.2c0.5,0.5,1,1,1.4,1.6l0,0
	l0.8,0.7c0.6,0.5,1.1,1,1.6,1.5s1,1,1.6,1.6c0.2,0.2,0.4,0.5,0.7,0.8c0.3,0.3,0.5,0.6,0.6,1c0.1,0.3,0.1,0.5,0,0.8
	c-0.1,0.3-0.2,0.5-0.4,0.7l-0.8,0.5c-0.7,0.4-1.4,0.8-2.1,1.1c-1,0.4-2,0.6-3,0.7c-0.4,0.1-0.9,0.1-1.3,0c-0.5-0.1-1-0.3-1.4-0.7
	c-0.3-0.3-0.5-0.7-0.6-1.1c0-0.2,0-0.3,0-0.5l-0.2-1c-0.1-0.7-0.2-1.3-0.3-2c-0.3-1.3-0.6-2.8-0.9-4s-0.7-2.8-1.1-3.9
	c-0.8-2.8-1.7-5.5-2.6-8.1c-0.4-1.3-0.8-2.6-1.2-3.8s-1-2.8-1.5-4.2c-0.4-1.3-1-2.5-1.6-3.8c-0.6-1.2-1.2-2.6-1.7-3.9
	s-1.2-2.8-1.7-4.3l-0.7-2c-0.1-0.4-0.3-0.9-0.4-1.4c-0.7-0.1-1.4-0.3-2-0.8c-0.3-0.3-0.6-0.6-0.8-0.9c-0.3-0.5-0.4-1-0.4-1.6
	c-0.1-0.6-0.1-1.2,0-1.8C154.5,158.5,154.5,158.2,154.6,157.9z"/>
<path class="st0" d="M156.8,157.5c-0.3,0.5-0.2,1.2,0.2,1.6c0.3,0.3,0.6,0.4,1,0.4c0.2,0,0.5-0.1,0.7-0.2c0.3-0.1,0.5-0.3,0.8-0.5
	l0.7-0.4l1.7-1.3l2.8-2.3l2.8-2.6c1-0.8,2-1.6,3-2.3c2.3-1.7,4.4-3.7,6.4-5.9c1-1.1,2-2.3,2.9-3.5c0.4-0.5,0.8-1,1.2-1.6
	c0.5-0.6,0.8-1.3,1.1-2c0.4-0.9,0.6-1.8,0.6-2.8c0-0.7-0.7-1.3-1.4-1.3c-0.3,0-0.6,0.1-0.8,0.2c-0.5-0.3-1-0.3-1.5,0
	c-0.3,0.2-0.5,0.4-0.6,0.6l-0.3,0.4l-1,1.4c-0.8,1.1-1.4,2.2-2.1,3.3c-0.4,0.5-0.9,1-1.4,1.5c-0.6,0.5-1.1,1.1-1.6,1.7
	c-0.9,1.1-1.7,2.2-2.8,3.3c-0.5,0.6-1,1.1-1.5,1.6l-1.6,1.5l-2.9,2.8l-3.2,3.1l-1.5,1.5l-0.7,0.6C157.3,156.8,157,157.1,156.8,157.5
	z"/>
<path class="st0" d="M190.4,138.3c0.2-0.1,0.4-0.2,0.7-0.2c0.1,0,0.3,0,0.4,0c0.3,0.1,0.6,0.3,0.8,0.6c1,1.3,1.7,2.6,2.3,4.1
	c0.5,1.3,0.8,2.6,1.1,4c0.3,1.3,0.6,2.6,0.9,3.9s0.5,2.8,0.6,4.2s0.2,2.4,0.4,3.6s0.5,2.8,0.7,4.3c0.1,0.8,0.3,1.6,0.3,2.4v2.1
	c-0.1,0.8-0.7,1.4-1.5,1.3c-0.7-0.1-1.2-0.6-1.3-1.3c0-1.1,0-2.1-0.2-3.2c-0.3-1.9-0.6-3.7-0.9-5.5s-0.4-3.8-0.7-5.7
	c-0.2-1.7-0.6-3.3-1-4.9c-0.2-0.8-0.4-1.6-0.6-2.4c-0.2-0.8-0.4-1.5-0.7-2.3c-0.6-1.1-1.2-2.2-2-3.2c-0.4-0.6-0.2-1.3,0.4-1.7
	c0,0,0,0,0,0l0,0C190.3,138.4,190.4,138.3,190.4,138.3z"/>
<path class="st0" d="M252.4,160.3c0.4-1,0.9-1.9,1.4-2.8s1-2,1.6-3.1c0.5-0.9,1-1.9,1.4-2.9c0.4-1,1-2.5,1.5-3.8s1.1-2.8,1.6-4
	c0.9-2.6,1.5-5.3,2.3-7.9c0.5-1.5,1-2.9,1.4-4.4c0.2-0.7,0.4-1.4,0.6-2.1s0.3-1.6,0.5-2.4l0,0c0-0.3,0.2-0.7,0.4-0.9
	c0.6-0.5,1.4-0.5,2,0c0.3,0.2,0.4,0.6,0.4,0.9c-0.1,0.8-0.2,1.7-0.4,2.5c-0.1,0.6-0.3,1.3-0.5,1.9c-0.4,1.4-0.9,2.8-1.3,4
	s-0.7,2.1-1,3.2c0.7-1.4,1.4-2.8,2-4.2c0.2-0.3,0.3-0.6,0.4-0.9c0.4-0.6,1.2-0.8,1.9-0.5c0.3,0.2,0.5,0.4,0.7,0.8
	c0.1,0.3,0,0.7-0.1,1c-0.8,1.6-1.6,3.1-2.4,4.7c-0.6,1.2-1.1,2.5-1.5,3.8c-0.5,1.3-0.9,2.8-1.4,4.1c-0.4,1.4-0.9,2.7-1.6,4
	c-0.7,1.4-1.4,2.7-2.3,3.9l-1.4,2.2c-0.4,0.7-0.8,1.5-1.3,2.3c-0.5,0.8-1,1.5-1.6,2.3l-1,1.2c-0.5,0.5-1,1.2-1.8,1.4
	c-0.3,0.1-0.7,0.1-1.1,0c-0.3-0.2-0.5-0.4-0.6-0.8c-0.1-0.7,0-1.4,0.4-2L252.4,160.3z"/>
<path class="st0" d="M265.9,133.9c-0.2,0.7,0.2,1.4,0.9,1.6h0c0.7,0.2,1.5-0.2,1.7-0.9c0-0.3,0.1-0.5,0.3-0.7c0.5-1,0.9-2,1.4-3.1
	l0.5-1.4v1.8c0.3,2.8,0.5,5.5,0.7,8.1c0.1,1.5,0.3,3.1,0.6,4.6c0.3,1.4,0.5,2.8,0.8,4.1c0.3,2.3,0.6,4.6,0.9,6.8
	c0.2,1,0.4,2.1,0.7,3.1c0.4,1.2,0.7,2.4,1,3.6c0.3,0.7,1,1.1,1.7,0.9c0.7-0.1,1.1-0.8,1-1.5l0,0l0,0c-0.3-1.4-0.7-2.8-1.1-4
	c-0.2-0.7-0.3-1.3-0.5-2s-0.2-1-0.3-1.6c-0.2-2-0.5-3.9-0.8-5.9c-0.1-1-0.3-2-0.5-2.9s-0.4-1.8-0.5-2.8c-0.1-0.8-0.2-1.7-0.2-2.5
	c0-0.9-0.1-1.7-0.2-2.5c0-1.4-0.2-2.8-0.4-4.2c-0.2-1.3-0.3-2.7-0.2-4.1c0-1.3,0.2-2.6,0.2-3.9v-3.8c-0.1-0.8-0.8-1.3-1.6-1.2l0,0
	c-0.5,0.1-1,0.4-1.2,0.9c-0.3,1-0.7,1.9-1.1,2.8c-0.4,1-0.7,2-0.9,3.1c-0.5,1.9-1.2,3.7-2,5.5C266.5,132.3,266.2,133.1,265.9,133.9z
	 M266.7,131.8c0-0.1,0-0.1,0-0.2C266.7,131.7,266.8,131.7,266.7,131.8L266.7,131.8z"/>
<path class="st4" d="M214.5,90.1c0.5-0.5,1-1,1.5-1.5c1-1,1.9-2.1,2.8-3.2c1-1.1,2-2.1,3.2-3c1.1-1,2-1.8,3-2.8s2.1-2.2,3.2-3.2
	c0.5-0.5,1-0.9,1.6-1.3l1.9-1.5c1-0.9,2.1-1.8,3.2-2.6s2.6-1.9,4-2.8c0.9-0.6,1.9-1,2.8-1.6l1.5-0.8l1.7-1.1
	c0.9-0.6,1.8-1.2,2.8-1.8c0.5-0.4,1-0.7,1.6-1l2.1-1.3c0.2-0.1,0.4-0.2,0.7-0.2c0.5,0,1,0.3,1.2,0.7c0.4,0.6,0.2,1.3-0.4,1.7l0,0
	l-0.1,0.1c-1.3,0.7-2.6,1.5-3.9,2.4l-3.9,2.6c-1.1,0.7-2.3,1.4-3.5,2s-2.1,1.3-3.2,2c-1.1,0.8-2.2,1.7-3.2,2.6l-3.5,2.8
	c-1.2,1-2.3,2-3.3,3.1l-3.1,3c-0.8,0.8-1.7,1.5-2.5,2.3c-0.9,0.9-1.8,1.8-2.6,2.8c-0.8,1-1.6,1.8-2.4,2.8c-0.4,0.4-0.8,0.8-1.1,1.2
	l-1.2,1.3c-0.3,0.3-0.6,0.4-1,0.4c-0.4,0-0.7-0.1-1-0.4c-0.3-0.2-0.4-0.6-0.4-0.9c0-0.3,0.2-0.7,0.4-0.9
	C213.6,91.3,214.1,90.7,214.5,90.1z"/>
<path class="st4" d="M202.9,79.7c0,1.3,0,2.6-0.2,3.9c0,0.7,0.7,1.3,1.4,1.3c0,0,0,0,0,0l0,0c0.7,0,1.4-0.6,1.4-1.3
	c0-1.2,0-2.4,0.2-3.6c0.2-1.2,0.2-2.6,0.2-3.9s0.1-2.8,0.2-4c0-0.6,0-1.1,0.1-1.7c0.1-0.5,0.1-1.1,0-1.6h2.4l2.4,0.2l3.2,0.5
	l4.3,0.8l1.3,0.3c0.9,0.4,2,0.4,2.9,0c0.3-0.2,0.6-0.5,0.7-0.8c0.1-0.3,0.1-0.5,0-0.8c0-0.2,0-0.4-0.2-0.6c-0.2-0.3-0.3-0.6-0.4-0.9
	l-1.4-3.9c-0.2-0.7-0.5-1.3-0.7-2l-0.5-1.3l0,0l5.3,0.8c1.4,0.2,2.8,0.5,4,0.8l1.6,0.4l1.1,0.3l0.5,0.1c0.4,0.1,0.8,0.2,1.2,0.3
	c0.5,0.1,1,0,1.4-0.3c0.3-0.3,0.4-0.6,0.4-0.9c0-0.5-0.1-0.9-0.3-1.3l-0.2-1c-0.1-0.7-0.3-1.4-0.4-2c-0.3-1.5-0.6-3-0.8-4.4l2.4,0.3
	c1,0.2,1.9,0.4,2.8,0.7s2,0.5,2.9,0.8s2,0.7,2.9,1c0.4,0.1,0.8,0,1.1-0.2c0.6-0.3,0.9-1,0.6-1.6c0-0.1,0-0.1-0.1-0.2
	c-0.2-0.3-0.5-0.5-0.9-0.6c-1.8-0.7-3.8-1.2-5.6-1.8c-1.4-0.4-2.8-0.7-4.2-0.9c-0.8,0-1.6-0.2-2.5-0.3h-0.6c-0.3,0-0.6,0.1-0.9,0.2
	c-0.2,0.1-0.4,0.3-0.6,0.5c-0.1,0.2-0.2,0.4-0.2,0.6c0,0.3,0,0.5,0,0.8c0,0.5,0.1,1,0.2,1.5c0.3,2,0.7,4,1.2,6l-0.7-0.2l-1.7-0.4
	c-1.4-0.3-2.8-0.5-4.1-0.8l-4.1-0.7l-1.8-0.3c-0.7,0-1.5-0.3-2.2-0.3c-0.5,0-0.9,0.2-1.2,0.6c-0.2,0.4-0.2,0.9,0,1.3
	c0.1,0.2,0.2,0.3,0.4,0.5l0.3,0.5c0.4,0.9,0.7,1.8,1,2.8c0.3,0.9,0.6,1.6,0.9,2.4s0.5,1.5,0.8,2.2l0.2,0.4l-1-0.2
	c-0.7-0.2-1.4-0.3-2.1-0.4c-1.3-0.3-2.8-0.6-4-0.7s-2.9-0.4-4.4-0.5h-2c-0.9-0.1-1.8,0.2-2.4,0.8l-0.3,0.4c-0.2,0.3-0.3,0.6-0.3,1
	v1.1l-0.2,2.2c-0.1,1.4-0.2,2.8-0.3,4.1S202.9,78.4,202.9,79.7z"/>
<path class="st4" d="M188.7,66.4l3.8-2.2c2.6-1.6,5.2-3,7.8-4.6c1.3-0.8,2.8-1.6,4-2.4s2.6-1.5,3.9-2.2c2.8-1.4,5.2-3,7.8-4.5
	c1.2-0.7,2.5-1.3,3.9-2s2.8-1.2,3.9-1.8c0.7-0.3,1.3-0.7,2-1s1.3-0.7,2-1.1l4-2.4l4.3-2.5c0.7-0.4,1.5-0.1,1.9,0.5
	c0.4,0.6,0.2,1.3-0.4,1.7l0,0c0,0-0.1,0.1-0.1,0.1l-4.2,2.4l-4,2.5c-0.6,0.4-1.3,0.7-2,1.1l-1.9,1l-4,1.9c-1.3,0.6-2.6,1.3-3.9,2
	l-3.9,2.2c-1.3,0.8-2.8,1.5-3.9,2.2s-2.8,1.4-4,2.2c-2.8,1.5-5.2,3.1-7.9,4.6c-2.6,1.5-5.1,3-7.6,4.5c-1.2,0.7-2.4,1.4-3.5,2.2l0,0
	c-0.3,0.2-0.6,0.3-0.9,0.3c-0.4,0-0.7-0.1-1-0.4c-0.3-0.2-0.4-0.6-0.4-0.9c0-0.4,0.2-0.7,0.4-0.9C186,68,187.3,67.1,188.7,66.4z"/>
<path class="st4" d="M204.2,32.6c-0.4,0.6-0.2,1.3,0.4,1.7l0,0l0.1,0.1c0.8,0.4,1.6,0.7,2.4,0.9l2.4,0.6c1.5,0.4,3.1,0.6,4.7,0.7
	c1.6,0.1,3.2,0,4.7-0.2c1.5-0.2,2.9-0.5,4.4-0.8c0.8-0.2,1.6-0.4,2.4-0.7c0.7-0.2,1.3-0.4,2-0.7c0.9-0.4,1.8-0.9,2.6-1.5
	c0.3-0.2,0.5-0.4,0.6-0.8c0.1-0.3,0-0.7-0.1-1c-0.2-0.3-0.5-0.5-0.8-0.6h-0.4c-0.2,0-0.5,0.1-0.7,0.2c-0.9,0.6-1.8,1.1-2.8,1.5
	c-1.5,0.5-3,0.9-4.6,1.3l-2.3,0.5l-1.8,0.2h-4.2c-1.2-0.2-2.3-0.4-3.4-0.7c-1.1-0.2-2.1-0.5-3.1-0.9l-0.7-0.3
	c-0.3-0.1-0.7-0.1-1.1,0C204.7,32.2,204.4,32.4,204.2,32.6z M225.9,32.1l-19.3,0.2l0,0L225.9,32.1z"/>
<path class="st4" d="M203.6,33.6c-0.4,0.6-0.2,1.3,0.4,1.7h0.1c1,0.6,2,1.3,3,2c1.1,0.8,2.1,1.6,3.1,2.5c0.5,0.4,1,0.8,1.4,1.3
	l1.2,1.3c1.5,1.9,2.7,4,3.8,6.1c0.3,0.6,0.5,1.2,0.7,1.8c0.2,0.7,1,1.1,1.7,0.9c0.7-0.2,1.2-0.9,1-1.6l0,0c-0.4-1.3-1-2.6-1.7-3.8
	c-0.7-1.2-1.4-2.4-2.1-3.6c-0.8-1.3-1.8-2.4-2.9-3.4c-2.4-2.2-5-4.1-7.7-5.8c-0.2-0.1-0.4-0.2-0.7-0.2
	C204.3,33,203.9,33.2,203.6,33.6z"/>
<path class="st4" d="M200.1,41.8c-0.5,0.5-0.5,1.3,0,1.8c0,0,0,0,0,0l0,0c0.9,0.9,1.7,1.8,2.5,2.8s1,1.4,1.5,2
	c0.5,0.7,0.9,1.4,1.2,2.1c0.3,0.7,0.6,1.4,0.8,2.2c0.2,0.7,0.4,1.3,0.6,2c0,0.1,0,0.3,0,0.4c0,0.4,0.2,0.7,0.4,0.9
	c0.3,0.2,0.6,0.4,1,0.4c0.7,0,1.4-0.5,1.4-1.3l0,0c-0.1-1.3-0.4-2.5-0.9-3.7c-0.4-1.2-0.9-2.4-1.6-3.5c-0.6-1.1-1.3-2.1-2.1-3
	c-1-1.1-2-2.1-3-3.1c-0.3-0.3-0.6-0.4-1-0.4C200.6,41.4,200.4,41.6,200.1,41.8z M206.7,54.8c0,0.1,0,0.1,0,0.2
	C206.7,54.9,206.7,54.9,206.7,54.8z"/>
<path class="st0" d="M148.7,19v0.1c0.1,0.2,0.3,0.4,0.5,0.5c0.2,0.1,0.5,0.2,0.7,0.2c0.4,0.1,0.7,0.1,1.1,0c1.2-0.2,2.3-0.6,3.4-1.2
	l1.6-0.9l1.9-1.2c0.6-0.3,0.9-1.1,0.5-1.7c0,0,0,0,0,0l0,0c-0.1-0.1-0.2-0.2-0.2-0.3c-0.3-0.3-0.6-0.4-1-0.4c-0.3,0-0.6,0.1-0.9,0.2
	c-2.1,0.8-4.1,1.7-6.2,2.6c-0.3-0.1-0.7,0-1,0.1c-0.6,0.3-0.9,1.1-0.5,1.7L148.7,19z"/>
<path class="st6" d="M81.3,81.8c0-0.4,0-0.7,0.1-1.1c0-0.1,0-0.2,0.1-0.2c-0.1-0.3-0.2-0.6-0.2-0.9c0-0.6,0-1.2,0.3-1.8
	c0.3-0.8,0.7-1.5,1.3-2c0.7-0.6,1.6-0.9,2.5-1h0.3c0.7,0,1.3,0.1,1.9,0.4c0.4,0.2,0.8,0.4,1.1,0.7c0.3,0.1,0.6,0.3,0.9,0.5
	c0.2,0.1,0.3,0.1,0.4,0.2c1.4,0.8,2.5,2,3.2,3.4c0.6,1.1,0.7,2.4,0.4,3.7c-0.1,0.4-0.3,0.7-0.5,1c-0.2,0.3-0.5,0.6-0.8,0.8
	c-0.5,0.4-1.1,0.7-1.7,0.8c-0.2,0.2-0.4,0.4-0.6,0.6c-0.4,0.4-0.9,0.7-1.4,0.9c-0.7,0.3-1.4,0.5-2.1,0.6h-0.1
	c-0.3,0.1-0.6,0.2-0.9,0.3c-0.4,0.1-0.8,0.1-1.2,0.1c-0.8,0-1.7-0.2-2.4-0.6c-0.6-0.3-1.2-0.7-1.7-1.3c-0.6-0.5-1-1.2-1.3-1.9
	c-0.3-0.9,0-1.8,0.7-2.4C80.1,82.2,80.7,81.9,81.3,81.8z"/>
<path class="st0" d="M2.4,110.8c1.5-2.9,5.2-3.7,8.4-4.5l0.9-0.2l2.1-0.5l1.1-0.3c0.5-0.1,1-0.2,1.4-0.3c0.5-0.1,1-0.2,1.5-0.2h0.8
	c0.6,0,1.2,0,1.8,0.1c0.4-0.5,1-0.7,1.7-0.8c1.1-0.1,2.1,0.7,2.2,1.8c0,0.9,0,1.9-0.2,2.8c-0.1,0.5-0.2,0.9-0.4,1.4
	c-0.3,0.7-0.6,1.4-1,2l-0.5,0.9c-0.4,0.8-0.9,1.6-1.5,2.3c-0.7,1-1.5,1.8-2.4,2.6c-0.9,0.8-1.8,1.4-2.8,2.1
	c-0.4,0.3-0.8,0.5-1.3,0.8c-0.4,0.2-0.9,0.4-1.3,0.6c-0.8,0.3-1.6,0.5-2.4,0.6h-0.5c-0.6,0-1.1,0-1.7-0.1c-0.7-0.1-1.3-0.3-1.9-0.6
	c-0.6-0.3-1.2-0.6-1.8-1.1c-0.6-0.5-1.1-1.1-1.5-1.8c-0.7-1-1.3-2.2-1.5-3.4c-0.1-0.6-0.2-1.2-0.1-1.8C1.8,112.3,2,111.5,2.4,110.8z
	"/>
<path class="st0" d="M46,158.4l0.1-0.2c0.8-2,1.7-3.9,2.7-5.7c1.2-1.9,2.6-3.6,4.2-5.1c1.4-1.4,2.8-2.9,4.4-4.3c1.1-1,2.3-2,3.5-3
	c-0.1-0.4,0-0.8,0.2-1.2c0.3-0.5,0.5-1,0.8-1.5l0.1-0.2c0.3-0.5,0.7-0.8,1.3-0.9c0.2-0.1,0.4-0.1,0.6-0.1c0.4,0,0.8,0.1,1.1,0.2
	c0.3,0.1,0.5,0.3,0.7,0.6c0.4-0.2,0.9-0.4,1.4-0.6c-0.2-0.1-0.3-0.2-0.4-0.4l-0.1-0.1c-0.2-0.3-0.3-0.6-0.3-0.9
	c0-0.4,0.2-0.9,0.4-1.2c0.1-0.2,0.2-0.3,0.3-0.5l0.1-0.1l0.3-0.6l0.4-0.8c0.5-1,1.1-2,1.7-2.9c1.2-1.8,2.5-3.6,4-5.2l0.2-0.2
	c1.7-2.1,3.1-4.3,4.2-6.7c0.7-1.5,1.3-3,1.9-4.5c0.6-1.5,1.1-3.1,1.3-4.7l0.1-0.9c0-0.5,0.2-1,0.6-1.3c0.2-0.2,0.4-0.3,0.7-0.4
	c0-0.1,0.1-0.2,0.2-0.3c0.3-0.4,0.7-0.8,1.3-0.9c0.2,0,0.4-0.1,0.6-0.1c0.4,0,0.8,0.1,1.1,0.2c0.5,0.2,0.8,0.6,1,1.1
	c0.4,1.8,0.9,3.6,1.5,5.4c0.5,1.3,1,2.6,1.6,3.9l0.5,1.3c0.7,1.7,1.4,3.4,2,5.3c0.6,1.5,1.2,3.2,2,4.9c0.6,1.1,1.2,2.1,1.8,2.9
	l0.3,0.4c0.2,0.3,0.4,0.6,0.6,0.9c0.4,0.6,0.6,1.3,0.4,2c-0.1,0.2-0.1,0.3-0.2,0.5c1.5,0.2,3.1,0.5,4.6,0.9c2.3,0.7,4.5,1.7,6.5,2.9
	c1.9,1.2,3.6,2.6,5.1,4.2c0.6,0.6,1.2,1.3,1.8,2l0.4,0.5l0.6,0.7c0.5,0.6,1,1.1,1.5,1.7c0.9,1,1.7,2,2.5,3l1.2,1.5
	c1.3,1.5,2.4,3,3.4,4.7c0.6,0.9,1,1.8,1.4,2.9c0.3,0.7,0.3,1.5,0,2.2c-0.3,0.7-0.8,1.2-1.3,1.7c-0.4,0.3-0.8,0.6-1.2,0.8
	c-0.9,0.5-1.9,0.9-2.8,1.3c-1.2,0.5-2.3,0.8-3.5,1.2c-0.9,0.3-1.9,0.5-3.2,0.8c-1.1,0.2-2.2,0.4-3.4,0.6c-2.4,0.4-4.8,0.6-7.2,0.9
	c-2.2,0.2-4.4,0.4-6.9,0.6c-1.9,0.1-3.8,0.2-5.6,0.2h-2.2c-2.4,0.1-4.8,0.1-7.2,0.1l-5.3,0.1h-0.4c-1.8,0-3.5,0.1-5.3,0.2l-1.3,0.1
	l-1.5,0.1h-5c-3.9-0.1-7.8-0.2-11.7-0.3h-1.4c-0.9,0-1.7-0.4-2.1-1.2c-1.2,0.3-2.4-0.4-2.7-1.6c0-0.1,0-0.1,0-0.2
	c-0.1-1.2,0.1-2.4,0.3-3.6C45.3,160.2,45.6,159.3,46,158.4z"/>
<path class="st5" d="M59.2,140.7c0.4-0.8,1-1.6,1.7-2.2c1.8-1.6,3.9-2.7,6.2-3.2c2.3-0.5,4.6-0.9,7-1c2.4-0.2,4.7-0.3,7.1-0.4
	c2.2-0.1,4.4-0.2,6.6-0.2l4-0.1h2.7c1.8,0,3.5,0.3,5.3,0.7c1.5,0.4,2.9,1.1,4.2,1.9c0.2,0,0.4,0.1,0.6,0.1c0.9,0.2,1.5,0.9,1.6,1.8
	c0,0.4-0.1,0.7-0.3,1c-0.1,0.3-0.3,0.5-0.5,0.7c-0.4,0.4-1,0.6-1.5,0.6c-0.2,0-0.5,0-0.7-0.1l-0.3,0.1l-1.9,0.4
	c-1,0.2-2.1,0.4-3.1,0.7c-2.3,0.6-4.6,1.2-7,1.7c-4.7,1-9.4,1.7-14.1,2.2c-2.2,0.2-4.5,0.2-6.7,0.2c-2.4,0-4.9-0.2-7.3-0.5
	c-0.9-0.1-1.7-0.3-2.6-0.7c-0.7-0.3-1.2-0.9-1.4-1.6c-0.1-0.4-0.1-0.8,0-1.1C59,141.1,59.1,140.9,59.2,140.7z"/>
<path class="st3" d="M52.8,148l1-1.5c0.5-0.8,1.1-1.6,1.8-2.2c0.2-0.2,0.5-0.4,0.8-0.5c0.5-0.3,1.1-0.5,1.8-0.6
	c0.9-0.1,1.9,0.1,2.6,0.7c0.2,0.2,0.5,0.5,0.6,0.7h8.1c0.6,0,1.2,0,1.8-0.1h4.6c1.3,0,2.7,0,4,0.1h0.9c2.3-0.1,4.7-0.4,7-0.6
	s4.4-0.6,6.6-0.9l2-0.2c0.5-0.1,1-0.1,1.4-0.1c0.6-0.1,1.1-0.1,1.7,0l0.2-0.1l1.3-0.3c1-0.4,1.9-0.8,2.9-1.2c0.5-0.2,1-0.4,1.5-0.6
	c0.3-0.1,0.6-0.2,0.9-0.2c-0.1-0.6,0.1-1.1,0.6-1.5c0.4-0.4,1-0.6,1.6-0.6c0.6,0,1.1,0.2,1.5,0.5c1.3,1.2,2.6,2.3,3.9,3.4l1.6,1.4
	c0.6,0.4,1.2,1,1.7,1.6c0.3,0.1,0.5,0.3,0.7,0.4c0.6,0.4,0.8,1.1,0.6,1.8c-0.2,0.7-0.7,1.2-1.3,1.4c-0.5,0.2-1,0.4-1.5,0.5l-1.7,0.4
	c-1.2,0.2-2.3,0.5-3.5,0.7c-2.2,0.4-4.3,0.9-6.4,1.4c-2.4,0.6-4.8,1.1-7.2,1.5s-4.7,0.6-7,0.8s-4.8,0.2-7.2,0.3l-3.4,0.1h-2.6
	c-0.6,0-1.2,0-1.7-0.1c-0.6-0.1-1.1-0.5-1.4-1c-0.4,0.3-0.9,0.5-1.4,0.5c-0.6,0-1.2,0-1.7-0.1l-1-0.1l-1.7-0.2c-1-0.1-2-0.2-3-0.3
	l-3.5-0.4c-1.1-0.1-2.2-0.2-3.2-0.4c-0.9,0.1-1.8,0.2-2.7,0.3c-0.3,0-0.6,0-0.9,0c-0.3,0-0.5,0-0.8-0.1c-0.3-0.1-0.5-0.2-0.8-0.3
	c-0.5-0.2-0.9-0.7-1.1-1.2c-0.1-0.4-0.1-0.9,0-1.3C52,149.2,52.3,148.6,52.8,148z"/>
<path class="st3" d="M2.8,111c0.6,0,1.1,0.1,1.5,0.5c2.5,2,4.6,4.5,6.4,7.2c0.2,0.3,0.4,0.7,0.6,1.1c0.4,0.9,0,2-0.9,2.5
	c-0.4,0.2-0.9,0.4-1.4,0.3c-0.6,0-1.2-0.2-1.7-0.4c-1-0.4-1.9-1-2.7-1.7c-1.6-1.5-2.2-3.5-2.9-5.4c-0.1-0.2-0.1-0.4-0.1-0.6
	l-0.3-0.2c-0.8-0.6-0.9-1.7-0.3-2.4c0,0,0,0,0,0c0.1-0.1,0.1-0.2,0.2-0.2C1.7,111.2,2.3,111,2.8,111z"/>
<path class="st7" d="M83.7,75.4c0.3-0.1,0.5-0.1,0.8-0.1c0.4,0,0.9,0.1,1.3,0.2h0.3c0.4,0,0.8,0,1.2,0.1c0.8,0.2,1.6,0.5,2.3,1
	c0.6,0.4,1,0.9,1.4,1.5c0.6,0.9,1,2,1,3.1c0.1,0.3,0.1,0.5,0,0.8c0.7,0.3,1.2,0.9,1.3,1.7c-0.1,1.1-1,2-2.1,1.9
	c-0.6,0-1.3-0.1-1.9-0.3c-0.7-0.2-1.5-0.5-2.2-0.8l-0.2-0.1c-0.7-0.1-1.3-0.3-1.9-0.6c-0.7-0.3-1.4-0.8-1.9-1.4
	c-1.3-1.3-1.8-3.1-1.3-4.9C82,76.5,82.7,75.7,83.7,75.4z"/>
<path class="st8" d="M84.1,88.6c0.6-0.1,1.2,0.4,1.3,1c0,1.8,0,3.5,0.2,5.3c0.1,0.9,0.1,1.8,0.3,2.7s0.2,1.5,0.3,2.3
	c0.5,2.3,1,4.5,1.7,6.7c0.7,2.3,1.5,4.5,2.5,6.7c1.1,2.8,2.3,5.5,3.7,8.2l-0.1-0.2c0,0.1,0.1,0.2,0.1,0.2l0,0c1,1.8,1.9,3.7,2.9,5.5
	c1,1.8,2.2,3.8,3.2,5.8c0.1,0.3,0.1,0.6-0.1,0.8c-0.2,0.3-0.4,0.4-0.7,0.5c-0.3,0.1-0.7,0.1-1-0.1c-0.3-0.1-0.5-0.4-0.6-0.6l0,0
	l0.1,0.2c-0.5-1-1.1-2-1.7-3s-1.1-2-1.7-3c-1.2-2.2-2.3-4.3-3.4-6.5s-2-4.3-2.9-6.5c-0.5-1.1-0.9-2.3-1.4-3.4s-0.8-2.2-1.2-3.4
	c-0.7-2.2-1.3-4.4-1.7-6.6c-0.2-1.2-0.4-2.4-0.6-3.7s-0.2-2.3-0.3-3.4c-0.1-1.5-0.1-3-0.1-4.5C82.9,89,83.4,88.5,84.1,88.6
	C84.1,88.6,84.1,88.6,84.1,88.6L84.1,88.6z"/>
<path class="st8" d="M64.6,136.3c-0.2,0.6,0.1,1.2,0.7,1.5c0,0,0,0,0,0c0.7,0.2,1.4,0.2,2.1,0c0.3-0.1,0.6-0.1,0.9-0.2
	c0.6-0.1,1.2-0.2,1.9-0.4c1.2-0.2,2.5-0.5,3.7-0.8l3.8-0.9c1.2-0.2,2.4-0.4,3.6-0.6c0.8-0.1,1.5-0.2,2.3-0.2c1.3-0.1,2.7-0.1,4-0.1
	h4c1.4,0,2.5,0.1,3.8,0.2c0.6,0,1.3,0.1,1.9,0.1h1.7c0.6,0,1.1-0.5,1.2-1.1c0-0.3-0.1-0.6-0.4-0.8c-0.3-0.2-0.6-0.3-0.9-0.3h-2
	c-1.3,0-2.6-0.1-3.9-0.2s-2.5-0.1-3.8-0.1h-4.1c-1.3,0-2.5,0.1-3.8,0.3c-1.4,0.2-2.7,0.4-4.1,0.6s-2.5,0.5-3.7,0.8s-0.9-1-2.2-0.8
	l-1.6,1.6L69,134c0.9-1.4,1.9-2.9,2.8-4.3c0.6-0.9,1.3-1.8,2-2.7s1.4-2,2.1-2.9c1.3-2,2.5-4.1,3.6-6.2c1-2.2,1.9-4.4,2.8-6.7
	c0.9-2.2,1.7-4.4,2.3-6.7c0.3-1.2,0.5-2.5,0.7-3.7c0.1-1.1,0.2-2.2,0.2-3.3s0-2.3,0-3.5s-0.1-2.5-0.1-3.7c-0.1-0.7-0.7-1.2-1.4-1.1
	c-0.6,0.1-1,0.5-1.1,1.1c0.1,1.9,0.2,3.8,0.2,5.7c0,0.9,0,1.8-0.1,2.7c0,0.9-0.1,1.8-0.2,2.7c-0.1,0.6-0.2,1.3-0.4,1.9
	c-0.3,1.1-0.6,2.2-0.9,3.2s-0.8,2.2-1.2,3.3c-0.8,2.2-1.6,4.3-2.6,6.5c-0.9,1.8-1.8,3.6-2.9,5.3c-1,1.7-2.2,3.3-3.4,4.9
	c-0.7,0.9-1.4,1.8-2,2.8s-1.3,2-2,3s-1.2,1.8-1.8,2.7c-0.2,0.3-0.5,0.6-0.7,1C64.7,136,64.6,136.2,64.6,136.3z M77.5,116.4
	c0-0.1,0-0.1,0.1-0.2C77.6,116.2,77.5,116.4,77.5,116.4z"/>
<polygon class="st4" points="54.2,147.6 54.2,147.7 54.2,147.6 "/>
<path class="st4" d="M105.7,165"/>
<path class="st4" d="M67.8,144.1L67.8,144.1z"/>
<path class="st4" d="M57.4,142.1l2.5,0.6c0.8,0.2,1.7,0.4,2.5,0.6c1.8,0.4,3.6,0.6,5.4,0.8l0,0c1.3,0.1,2.5,0.1,3.8,0.1
	s2.7-0.1,4.1-0.1c2.6-0.1,5.3-0.2,7.9-0.5c3.1-0.3,6.1-0.6,9.2-1c1.9-0.3,3.8-0.7,5.7-1.3c1.9-0.6,3.7-1.3,5.5-2
	c0.6-0.2,1.1-0.5,1.6-0.7s1.2-0.6,1.8-0.9c0.2-0.1,0.4-0.2,0.6-0.2c0.4,0,0.8,0.2,1.1,0.5c0.3,0.5,0.2,1.1-0.2,1.4
	c-0.1,0-0.1,0.1-0.2,0.1c-1.3,0.7-2.6,1.3-4,1.9c-1.2,0.5-2.4,0.9-3.6,1.4c-1.2,0.5-2.5,0.9-3.8,1.2c-0.7,0.2-1.4,0.3-2.1,0.5
	s-1.2,0.2-1.8,0.3c-1.4,0.2-2.9,0.4-4.3,0.5l-3.9,0.4c-1.3,0.1-2.7,0.3-4.1,0.4s-2.6,0.1-3.9,0.2c-2.7,0.1-5.4,0.2-8.1,0.1
	c-1.3,0-2.7-0.2-4-0.4c-1.3-0.2-2.7-0.4-4-0.7c-0.7-0.2-1.5-0.4-2.2-0.5l-2.2-0.6c-0.6-0.1-1-0.6-0.9-1.2c0,0,0-0.1,0-0.1
	C56,142.3,56.7,141.9,57.4,142.1L57.4,142.1z"/>
<path class="st4" d="M68.3,155.5"/>
<path class="st1" d="M113.5,149.6c-0.1,0.3,0,0.6,0.2,0.8c0.4,0.8,0.8,1.5,1.2,2.3c0.2,0.4,0.4,0.9,0.6,1.4c0.3,0.6,0.9,0.9,1.5,0.7
	c0.6-0.1,1-0.7,0.9-1.2c0,0,0,0,0,0c0,0,0,0,0-0.1c-0.3-0.8-0.7-1.5-1.1-2.2c-0.3-0.6-0.7-1.3-1-1.9c-0.2-0.4-0.7-0.5-1.1-0.5
	c-0.2,0-0.4,0.1-0.6,0.2C113.8,149,113.6,149.3,113.5,149.6z M114.9,152.7l0.1,0.1L114.9,152.7z M114.8,152.5l0.1,0.1L114.8,152.5z"
	/>
<path class="st1" d="M107.8,151c0.1,0,0.2,0,0.3,0c0.2,0,0.4,0,0.6,0.1c0.3,0.1,0.5,0.4,0.6,0.6c0.4,1,0.9,2,1.2,3
	c0.2,0.6-0.2,1.2-0.7,1.3c0,0,0,0,0,0h-0.1c-0.6,0.2-1.3-0.1-1.5-0.7c-0.4-1-0.8-2-1.2-3C106.8,151.8,107.2,151.2,107.8,151
	C107.8,151,107.8,151,107.8,151z"/>
<path class="st1" d="M101,152.6c0.1,0,0.2,0,0.3,0c0.5,0,1,0.3,1.2,0.8c0.4,1.2,0.7,2.4,1,3.6c0.1,0.3,0.1,0.6-0.1,0.8
	c-0.2,0.3-0.4,0.4-0.7,0.5c-0.3,0.1-0.7,0.1-1-0.1c-0.3-0.1-0.5-0.3-0.6-0.6c-0.3-1.2-0.6-2.4-1-3.6c-0.2-0.6,0.1-1.2,0.7-1.3
	c0,0,0,0,0,0L101,152.6z"/>
<path class="st1" d="M94.2,153.4c0.6,0,1.2,0.4,1.3,1.1c0.1,1.3,0.2,2.7,0.4,4c-0.1,0.6-0.6,1.1-1.2,1.1c-0.6,0.1-1.2-0.4-1.3-1
	c-0.1-1.3-0.3-2.7-0.4-4C93,153.9,93.6,153.4,94.2,153.4C94.2,153.4,94.2,153.4,94.2,153.4z"/>
<path class="st1" d="M87.6,154.5c0.6-0.1,1.2,0.4,1.3,1.1c0,1.4,0,2.8,0.1,4.2c-0.1,0.7-0.7,1.2-1.4,1.1c-0.5-0.1-1-0.5-1.1-1
	c-0.1-1.4-0.1-2.8-0.1-4.2C86.5,155,87,154.5,87.6,154.5z"/>
<path class="st1" d="M80.6,154.9c0.6,0,1.2,0.4,1.3,1l0.2,3.7c0,0.6-0.6,1.1-1.2,1.1c0,0,0,0,0,0l0,0c-0.6,0-1.2-0.4-1.3-1
	c-0.1-1.2-0.1-2.4-0.2-3.7C79.4,155.4,79.9,154.9,80.6,154.9z"/>
<path class="st1" d="M63.9,154.7c0.1-0.3,0.3-0.5,0.5-0.6c0.2-0.1,0.4-0.2,0.6-0.2h0.3c0.3,0.1,0.6,0.2,0.8,0.5
	c0.2,0.2,0.2,0.5,0.1,0.8c-0.2,1.6-0.5,3.1-0.9,4.6c-0.2,0.6-0.9,0.9-1.5,0.8c-0.6-0.1-1-0.6-0.9-1.2c0,0,0,0,0-0.1
	C63.4,157.8,63.6,156.3,63.9,154.7z"/>
<path class="st1" d="M58.1,154.1c0.2-0.5,0.7-0.8,1.2-0.8h0.3c0.6,0.1,1,0.6,0.9,1.2c0,0,0,0,0,0c0,0,0,0.1,0,0.1
	c-0.5,1.5-0.9,3.1-1.4,4.6c-0.2,0.6-0.9,0.9-1.5,0.8c-0.6-0.1-1-0.6-0.9-1.2c0,0,0-0.1,0-0.1C57.2,157.2,57.7,155.7,58.1,154.1z"/>
<path class="st1" d="M52.7,153.1c0.2-0.3,0.6-0.5,1-0.6c0.2,0,0.4,0,0.6,0.1c0.5,0.2,0.8,0.8,0.6,1.3c0,0,0,0,0,0
	c0,0.1,0,0.1-0.1,0.2c-0.7,1.3-1.4,2.6-2,3.9c0,0.1-0.1,0.3-0.2,0.4c-0.1,0.3-0.3,0.5-0.5,0.7c-0.3,0.2-0.7,0.2-1,0.1
	c-0.3-0.1-0.6-0.2-0.8-0.5c-0.2-0.2-0.2-0.5-0.2-0.8C51,156.2,51.8,154.6,52.7,153.1z"/>
<path class="st0" d="M98.8,207.3c0.1-0.4,0.2-0.7,0.4-1.1c0.2-0.3,0.4-0.6,0.6-0.9c0.1-0.2,0.3-0.3,0.4-0.4c0.2-1,0.4-2,0.6-3
	c0.4-2.3,0.8-4.5,1.2-6.8s0.8-4.6,1.2-6.9c0.2-1.2,0.4-2.3,0.7-3.5c0.1-0.4,0.2-0.8,0.4-1.1l0.4-0.7c0.3-0.5,0.6-0.9,0.9-1.4
	c0.7-1,1.4-2,2-3s1.2-2,1.9-2.9s1.3-2,1.9-3s1.2-2.1,1.8-3.2c1.2-2.1,2.4-4.1,3.5-6.3c0.2-0.3,0.6-0.5,1-0.6c0.2,0,0.4,0,0.6,0.1
	c0.3,0.1,0.5,0.3,0.6,0.6c0.1,0.3,0.1,0.6-0.1,0.8c-0.6,1.3-1.3,2.5-2,3.7c-0.6,1-1.2,2-1.7,3s-1.1,2.1-1.8,3.1s-1.3,2.1-2,3.1
	c-0.9,1.3-1.7,2.7-2.6,4c-0.4,0.6-0.9,1.2-1.3,1.9c-0.4,0.5-0.8,1.1-1.1,1.7c-0.1,0.3-0.2,0.6-0.2,0.8c-0.1,0.2-0.1,0.5-0.2,0.8
	c-0.1,0.6-0.2,1.2-0.3,1.8c-0.2,1.2-0.4,2.4-0.6,3.6c-0.4,2.2-0.8,4.4-1.2,6.7c-0.3,1.6-0.6,3.2-0.9,4.8c-0.1,0.7-0.3,1.4-0.4,2.1
	l0.1,0.1c0.2,0.1,0.5,0.3,0.7,0.4c0.5,0.5,0.8,1.1,0.9,1.8c0,0.4,0,0.8-0.1,1.1c-0.1,0.4-0.4,0.7-0.7,1c-0.1,0.1-0.3,0.2-0.4,0.3
	c-0.1,0.2-0.3,0.3-0.4,0.4c-0.3,0.3-0.7,0.4-1.1,0.5c-0.3,0-0.6,0-0.8,0c-0.2,0-0.5-0.1-0.7-0.2c-0.3-0.2-0.6-0.4-0.9-0.7
	c-0.2-0.3-0.4-0.6-0.5-0.9c-0.1-0.4-0.1-0.8,0-1.2C98.7,207.7,98.7,207.5,98.8,207.3z"/>
<path class="st0" d="M97.8,167.2c-0.2,0.2-0.2,0.6-0.1,0.8c0.1,0.9,0.3,1.7,0.6,2.6c0.4,1.2,0.9,2.3,1.6,3.4
	c0.3,0.5,0.6,0.9,0.9,1.4l1,1.5c1.4,2,2.8,4,4.2,6s3,3.8,4.6,5.6c0.8,1,1.7,2,2.6,2.9s1.8,1.8,2.7,2.7c1.7,1.7,3.3,3.5,5.1,5.2
	c0.7,0.6,1.3,1.3,2,1.9l-0.2,0.1c-0.4,0.2-0.8,0.5-1,0.9c-0.1,0.2-0.2,0.3-0.2,0.5c0,0.2,0,0.4,0,0.6c0,0.4,0.2,0.7,0.4,1.1
	c0.1,0.2,0.3,0.4,0.5,0.6c0,0.1,0.1,0.2,0.1,0.4c0.1,0.3,0.4,0.6,0.6,0.8c0.3,0.2,0.6,0.4,0.9,0.6c0.3,0.1,0.7,0.2,1,0.3
	c0.3,0.1,0.6,0.1,0.9,0.1c0.3,0,0.7-0.1,1-0.2c0.3-0.1,0.7-0.3,0.9-0.5c0.3-0.2,0.4-0.5,0.6-0.9c0.1-0.3,0.1-0.5,0.1-0.8v-0.2
	c0-0.1,0-0.3,0-0.4c-0.1-0.5-0.3-0.9-0.7-1.2c-0.8-0.9-1.7-1.7-2.6-2.6s-1.8-1.7-2.7-2.5s-1.7-1.7-2.5-2.5c-1.7-1.8-3.4-3.5-5.1-5.2
	c-1.7-1.9-3.4-3.9-5-5.9s-3-4-4.4-6c-0.7-1-1.3-1.9-2-2.9s-1.3-1.9-1.9-2.9c-0.4-0.7-0.7-1.5-1-2.3c-0.3-0.9-0.5-1.8-0.6-2.7
	c-0.1-0.3-0.3-0.5-0.6-0.6c-0.2-0.1-0.4-0.1-0.6-0.1h-0.3C98.1,166.7,97.9,166.9,97.8,167.2z M101.7,172.4l0.1,0.1L101.7,172.4z"/>
<path class="st0" d="M35.9,205.3c0.1-0.2,0.2-0.3,0.4-0.4c0.3-0.3,0.6-0.5,0.9-0.7c0.1-0.1,0.3-0.1,0.4-0.2c0.2-0.1,0.5-0.1,0.7-0.1
	l0.5,0.1l0,0c0.2,0,0.4,0.1,0.6,0.2c0.2-0.6,0.3-1.3,0.5-1.9c0.6-2.2,1.2-4.4,1.8-6.5c0.3-1.1,0.7-2.3,1.1-3.5s0.8-2.2,1.3-3.3
	c0.5-1.1,1.1-2.2,1.8-3.2c0.7-1,1.5-2,2.5-2.9c0.9-0.9,1.8-1.7,2.6-2.6s1.6-1.8,2.5-2.6s1.7-1.8,2.5-2.7s1.7-1.8,2.5-2.7
	c1.5-1.6,3.2-3.1,4.9-4.5c0.2-0.2,0.6-0.3,0.9-0.3c0.3,0,0.6,0.1,0.9,0.3c0.4,0.4,0.5,1,0.1,1.4c0,0,0,0,0,0c0,0-0.1,0.1-0.1,0.1
	c-1.1,1-2.2,1.9-3.3,2.9c-0.9,0.8-1.8,1.7-2.6,2.6s-1.6,1.7-2.4,2.6s-1.8,1.8-2.6,2.7s-1.8,2-2.8,2.9s-1.9,1.8-2.7,2.8
	c-0.5,0.5-0.9,1.1-1.3,1.7c-0.4,0.7-0.8,1.4-1.1,2c-0.4,1-0.9,2-1.2,3s-0.7,2.3-1.1,3.4c-0.6,2.2-1.2,4.4-1.8,6.6
	c-0.3,1.1-0.6,2.3-0.9,3.4l-0.1,0.3c0,0.1,0.1,0.1,0.1,0.2c0.2,0.9,0.2,1.8-0.2,2.6c-0.3,0.5-0.7,0.9-1.2,1.2
	c-0.6,0.4-1.3,0.5-2,0.4c-0.6-0.1-1.2-0.3-1.6-0.8c-0.1-0.1-0.1-0.1-0.2-0.2c-1-1-1.3-2.5-0.7-3.8C35.7,205.6,35.8,205.4,35.9,205.3
	z"/>
<path class="st0" d="M45.3,168.6c-0.3,2.3-0.4,4.6-0.3,6.9c0.1,1.2,0.4,2.5,0.7,3.7c0.3,1.1,0.7,2.2,1.2,3.3
	c0.2,0.5,0.5,1.1,0.8,1.6s0.6,1,0.9,1.5c0.6,1.1,1.3,2.2,2,3.2c1.3,2,2.6,3.9,4,5.9c1.4,2,2.9,3.9,4.4,5.8c0.7,1,1.5,1.9,2.2,2.8
	l1,1.2v0.1c-0.3,0.2-0.6,0.6-0.7,0.9c-0.3,0.7-0.2,1.5,0.2,2.2c0.9,1.6,2.8,2.4,4.6,2c0.3-0.1,0.6-0.1,0.9-0.3
	c0.2-0.1,0.3-0.2,0.4-0.3c0.2-0.2,0.3-0.3,0.4-0.5c0.1-0.2,0.2-0.4,0.2-0.6c0.1-0.7,0-1.4-0.4-2.1c-0.4-0.7-1.1-1.3-1.8-1.7
	c-0.5-0.2-1-0.4-1.5-0.6c-0.6-0.7-1.1-1.4-1.7-2.1s-1.3-1.7-2-2.5c-1.3-1.7-2.6-3.4-3.9-5.2c-2.8-3.8-5.4-7.8-7.6-12
	c-0.4-0.9-0.8-1.7-1.1-2.7c-0.3-0.9-0.5-1.7-0.7-2.6c-0.1-0.8-0.2-1.7-0.2-2.5c0-0.9,0-1.8,0.1-2.6c0.1-1.9,0.4-3.8,0.5-5.7
	c-0.1-0.7-0.8-1.1-1.5-1c-0.5,0.1-0.9,0.6-1,1.1C45.4,166.9,45.4,167.8,45.3,168.6z M64.6,203.9L64.6,203.9z M64,206.4L64,206.4z"/>
<path class="st0" d="M20.9,99.4c0.7,1.5,1.3,3.2,1.7,4.8c0.4,1.7,0.7,3.4,1,5.2s0.6,3.6,0.8,5.4c0.3,2.3,0.4,4.5,0.6,6.8
	c0.1,1.2,0.2,2.4,0.3,3.6s0.2,2.2,0.3,3.3s0.2,2.3,0.3,3.5c0.2,1.3,0.4,2.5,0.7,3.7c0.5,2.2,1.1,4.3,1.6,6.5
	c0.3,1.2,0.6,2.4,0.8,3.6s0.5,2.2,0.8,3.3s0.6,2.3,1,3.4c0.4,1.1,0.8,2.2,1.4,3.3c0.5,1.1,1.1,2.2,1.7,3.2c0.3,0.5,0.6,1,1,1.5
	c0.3,0.5,0.7,1,1.1,1.5c0.8,1,1.8,1.9,2.8,2.6c0.5,0.4,1.1,0.8,1.8,1.1c0.4,0.2,0.8,0.3,1.2,0.5c0.8,0.3,1.6,0.5,2.4,0.7
	c0.6,0.2,1.3-0.2,1.5-0.8c0.1-0.6-0.2-1.2-0.8-1.3c0,0,0,0,0,0h-0.1c-0.7-0.2-1.3-0.4-2-0.5c-0.6-0.2-1.2-0.5-1.8-0.9
	c-0.8-0.6-1.6-1.3-2.3-2c-0.4-0.4-0.7-0.8-1-1.3c-0.3-0.4-0.6-0.9-0.9-1.3c-0.7-0.9-1.3-1.9-1.8-2.9c-0.4-0.7-0.7-1.4-1-2.2
	c-0.3-0.7-0.6-1.6-0.9-2.4c-0.5-1.5-0.9-3.1-1.2-4.6c-0.5-2.3-1-4.6-1.6-6.8s-1.2-4.5-1.6-6.7c-0.1-0.6-0.2-1.1-0.2-1.7
	s-0.1-1.2-0.1-1.9c-0.1-1.2-0.2-2.3-0.3-3.5c-0.2-2.3-0.4-4.6-0.6-6.8c-0.1-1.2-0.2-2.4-0.3-3.6s-0.3-2.2-0.5-3.3
	c-0.4-2.3-0.8-4.7-1.2-7c-0.2-1.2-0.5-2.3-0.9-3.4c-0.4-1-0.8-2.1-1.2-3.1c-0.1-0.3-0.3-0.5-0.6-0.6c-0.2-0.1-0.4-0.1-0.6-0.1
	c-0.1,0-0.2,0-0.3,0c-0.6,0.1-1,0.7-0.9,1.2c0,0,0,0,0,0L20.9,99.4z M43,164.1L43,164.1z"/>
<path class="st3" d="M0.1,113.6c-0.1,0.6-0.1,1.1,0,1.7c0,0.3,0.1,0.7,0.2,1c0.1,0.3,0.2,0.5,0.3,0.8c0.1,0.3,0.3,0.6,0.4,0.8
	c0.1,0.2,0.3,0.5,0.5,0.7c0.4,0.6,0.9,1.1,1.4,1.6c1,1.1,2.4,1.9,3.8,2.2c0.9,0.2,1.9,0.3,2.9,0.3c0.5,0,1.1-0.1,1.6-0.2
	c0.6-0.1,1.3-0.3,1.9-0.5c1.3-0.4,2.6-0.9,3.7-1.6c0.6-0.4,1.2-0.8,1.7-1.2c0.4-0.3,0.9-0.7,1.3-1.1c0.9-0.9,1.8-1.8,2.6-2.9
	c0.7-1,1.4-2,1.9-3.1c0.3-0.5,0.5-1.1,0.7-1.6c0.2-0.4,0.3-0.8,0.5-1.3c0.2-0.7,0.3-1.4,0.3-2.1c0-0.3-0.2-0.6-0.4-0.8
	c-0.5-0.4-1.2-0.4-1.8,0c-0.2,0.2-0.4,0.5-0.4,0.8c0,0.2,0,0.4,0,0.6c-0.2,1-0.6,1.9-1,2.8c-0.4,0.8-0.8,1.6-1.3,2.3
	c-0.5,0.7-1,1.4-1.6,2.1c-0.5,0.6-0.9,1.2-1.5,1.7c-0.5,0.5-1.1,1-1.7,1.4c-0.4,0.3-0.9,0.6-1.3,0.8l-1.3,0.6
	c-0.6,0.2-1.2,0.4-1.9,0.6c-0.5,0.2-1.1,0.3-1.6,0.3c-0.6,0-1.2,0-1.8,0c-0.5-0.1-1.1-0.2-1.6-0.3c-0.3-0.1-0.6-0.3-0.9-0.5
	c-0.6-0.4-1.1-0.8-1.5-1.3c-0.2-0.3-0.4-0.5-0.7-0.8c-0.2-0.3-0.4-0.6-0.5-0.8c-0.1-0.2-0.3-0.5-0.4-0.8c-0.1-0.3-0.2-0.5-0.2-0.8
	c-0.1-0.4-0.1-0.9-0.1-1.3c0.1-0.5,0.3-1.1,0.5-1.6c0.2-0.3,0.3-0.7,0.5-1c0.2-0.3,0.4-0.6,0.6-0.8c0.2-0.2,0.4-0.4,0.6-0.6
	c0.2-0.2,0.5-0.4,0.7-0.6c1.2-0.7,2.4-1.3,3.7-1.8c1-0.4,2.1-0.7,3.2-1c1-0.3,2.1-0.5,3.2-0.6c1.2-0.1,2.3-0.2,3.5-0.3
	c1.1-0.1,2.1-0.1,3.2,0c0.6,0.1,1.2,0.2,1.8,0.3c0.6,0.2,1.3-0.2,1.5-0.8c0.1-0.6-0.2-1.2-0.8-1.3c0,0,0,0,0,0h-0.1
	c-1.7-0.4-3.4-0.5-5.1-0.4H18c-2.2,0.1-4.4,0.4-6.6,1c-0.6,0.2-1.3,0.4-1.9,0.6s-1.4,0.5-2.1,0.8c-1.2,0.5-2.3,1-3.4,1.7
	c-0.5,0.4-1,0.8-1.5,1.2c-0.5,0.5-0.9,1-1.2,1.6c-0.4,0.5-0.7,1.1-0.9,1.7C0.2,112.6,0.1,113.1,0.1,113.6z M9.1,107.6l0.2-0.1
	L9.1,107.6z M9.8,120.6L9.8,120.6z M5.6,119.7L5.6,119.7z"/>
<path class="st5" d="M15.1,109.3c0.2-0.2,0.5-0.3,0.7-0.3c0.1-0.1,0.2-0.2,0.3-0.3c0.2-0.1,0.4-0.2,0.6-0.2c0.4,0,0.8,0.2,1.1,0.5
	c0.3,0.3,0.5,0.7,0.5,1.2c0,0.6-0.1,1.2-0.5,1.7c-0.5,0.7-1.4,1-2.2,0.6c-0.5-0.3-0.9-0.7-1.1-1.3c-0.1-0.3-0.2-0.7-0.1-1.1
	C14.6,109.8,14.8,109.5,15.1,109.3z"/>
<path class="st4" d="M3.5,109.2c0.3,0,0.6,0.1,0.9,0.3c1.1,0.8,2.1,1.7,3.1,2.7c0.4,0.4,0.8,0.9,1.2,1.4s0.7,1,1.1,1.5
	c0.6,0.9,1.2,1.9,1.8,2.8c0.7,1,1.2,2.1,1.5,3.2c0.1,0.3,0.1,0.6-0.1,0.8c-0.2,0.3-0.4,0.4-0.7,0.5c-0.6,0.2-1.3-0.1-1.5-0.7
	c-0.2-0.6-0.4-1.1-0.6-1.6c-0.6-1.2-1.3-2.3-2.1-3.4c-0.4-0.6-0.8-1.2-1.3-1.8c-0.4-0.5-0.8-1-1.2-1.4c-0.4-0.4-0.9-0.8-1.3-1.2
	s-1-0.8-1.5-1.2c-0.4-0.4-0.5-1-0.1-1.4c0,0,0,0,0,0c0,0,0.1-0.1,0.1-0.1C2.9,109.3,3.2,109.2,3.5,109.2z"/>
<path class="st4" d="M128.3,162.3L128.3,162.3l0.1,0.3L128.3,162.3z"/>
<path class="st0" d="M125,161.1c0.7,1.5,1.4,3,2.3,4.4c0.6,0.9,1.1,1.7,1.8,2.5s1.4,1.8,2.2,2.6s1.7,1.7,2.6,2.6l0.6,0.5v0.1
	c0,0.2-0.1,0.4-0.1,0.6v0.2c0.1,0.8,0.2,1.7,0.3,2.5c0,0.4,0,0.7,0.1,1.1c0.1,0.4,0.1,0.9,0.1,1.3v0.1c-0.1,0.6,0.3,1.2,0.8,1.3h0.1
	c0.6,0.1,1.3-0.2,1.5-0.8c0.1-0.4,0.1-0.9,0.1-1.3v-0.5l0,0c0.1,0.2,0.3,0.4,0.5,0.5c0.2,0.1,0.4,0.3,0.7,0.3
	c0.9,0.2,1.8-0.6,1.5-1.4c-0.2-0.4-0.4-0.8-0.6-1.2c0.6,0.2,1.1,0.4,1.7,0.5c0.6,0.1,1.2,0.2,1.8,0.2c0.3,0,0.6,0,0.9,0
	c0.3,0,0.5-0.1,0.7-0.2c0.4-0.2,0.6-0.6,0.6-1c0-0.3-0.1-0.6-0.4-0.8c-0.6-0.4-1.2-0.6-1.9-0.8c-0.7-0.2-1.4-0.5-2.1-0.7l0.3,0.1
	c-0.8-0.3-1.5-0.5-2.3-0.7l-1.1-0.3l-0.6-0.1c-1.1-0.9-2.2-1.9-3.2-2.9c-0.7-0.7-1.3-1.4-1.9-2.2l-1.1-1.5c-0.9-1.2-1.7-2.4-2.3-3.8
	l0.1,0.2l-0.1-0.3v0.1c-0.3-0.6-0.6-1.2-0.9-1.9c-0.1-0.3-0.3-0.5-0.6-0.6c-0.2-0.1-0.4-0.1-0.6-0.1h-0.3
	C125.2,160,124.8,160.6,125,161.1z M136.7,172.6L136.7,172.6L136.7,172.6C136.7,172.7,136.7,172.7,136.7,172.6L136.7,172.6z"/>
<path class="st4" d="M62.1,123.5l0.3-0.1l0,0L62.1,123.5z"/>
<path class="st6" d="M49,127.7c0,0.5,0.2,1,0.5,1.4c0.4,0.4,0.8,0.7,1.4,0.9c0.3,0.1,0.6,0.1,0.9,0.1c0.2,0,0.5,0,0.7-0.1
	c0.3-0.1,0.6-0.3,0.9-0.4c0.2-0.1,0.3-0.3,0.4-0.4c0.5-0.5,0.7-1.1,0.7-1.7l0.6-0.1c1.4-0.2,2.8-0.4,4.2-0.8c0.7-0.2,1.3-0.4,2-0.6
	l1.8-0.6c0.6-0.2,1.3-0.5,1.9-0.8s1.3-0.6,2-0.9c1.2-0.6,2.3-1.2,3.4-1.8s2.3-1.4,3.3-2.1c1-0.7,2-1.4,3-2.2c2-1.7,4-3.4,5.9-5.3
	c0.4-0.4,0.5-1,0.1-1.4c0,0,0,0,0,0l-0.1-0.1c-0.3-0.2-0.6-0.3-0.9-0.3c-0.3,0-0.6,0.1-0.9,0.3c-1.4,1.3-2.9,2.7-4.3,3.9
	c-1.3,1.1-2.6,2.2-4,3.1c-0.8,0.6-1.7,1.1-2.6,1.6c-0.9,0.5-1.7,1-2.6,1.5c-1.6,0.9-3.3,1.6-5,2.3l0,0l-0.3,0.1l0.3-0.1
	c-1.2,0.4-2.3,0.8-3.5,1.2c-1.1,0.3-2.2,0.6-3.4,0.7l-1.5,0.2c-0.4,0.1-0.9,0.1-1.3,0.1h-0.1c-0.1-0.1-0.3-0.1-0.4-0.1
	c-0.5-0.1-1.1-0.1-1.6,0.1C49.6,125.7,49,126.7,49,127.7z"/>
<path class="st1" d="M13.1,121.3c-0.4,0.4-0.5,1-0.1,1.4c0,0,0,0,0,0c0,0,0.1,0.1,0.1,0.1c0.5,0.4,1,0.9,1.5,1.4l1.1,1.2
	c0.5,0.5,1,1,1.6,1.4c0.6,0.4,1.2,0.8,1.8,1.2c0.5,0.3,1.1,0.6,1.7,0.8c2.4,1,5,1.8,7.6,2.2c1.3,0.2,2.6,0.4,4,0.5s2.7,0.4,4.1,0.5
	s2.6,0.2,4,0.1c1.3,0,2.7-0.1,4-0.4c1.3-0.2,2.6-0.6,3.8-0.9l1.9-0.6c0.6-0.2,1.2-0.4,1.9-0.6c0.4,0.4,0.7,0.7,1.1,1.1
	c0.4,0.4,0.9,0.9,1.3,1.3c0.8,0.9,1.5,1.8,2.3,2.8c0.4,0.5,1.1,0.7,1.7,0.4c0.5-0.2,0.8-0.8,0.5-1.3c0-0.1-0.1-0.1-0.1-0.2
	c-0.4-0.5-0.7-1-1.1-1.4c-0.8-1-1.7-1.9-2.6-2.8c-0.4-0.4-0.8-0.8-1.2-1.1c-0.3-0.3-0.6-0.5-0.9-0.7c-0.7-0.3-1.5-0.3-2.2,0
	c-1.3,0.4-2.5,0.8-3.8,1.2c-1.2,0.4-2.5,0.7-3.8,0.9c-1.1,0.1-2.2,0.2-3.3,0.2c-1.2,0-2.3-0.1-3.5-0.1s-2.2-0.3-3.3-0.4
	s-2.2-0.3-3.2-0.4s-2.3-0.4-3.4-0.6c-1-0.2-2-0.5-2.9-0.8c-0.8-0.3-1.5-0.6-2.2-0.9c-0.6-0.3-1.3-0.6-1.9-1c-0.7-0.5-1.3-1-1.9-1.6
	c-0.5-0.5-0.9-1-1.4-1.5c-0.4-0.5-0.9-0.9-1.4-1.3c-0.2-0.2-0.6-0.3-0.9-0.3C13.7,121,13.4,121.1,13.1,121.3z M17.8,124.2l0.1,0.1
	L17.8,124.2z"/>
<path class="st0" d="M140.5,57.5v4.1c0.1,2.8,0.4,5.7,0.9,8.5c0.4,3,0.6,5.7,1.1,8.6c0.2,1.4,0.6,2.8,1,4s0.7,2.6,1.1,3.9
	s1,2.8,1.5,4.3c0.4,1.3,0.9,2.5,1.5,3.7c0.5,1.2,1.3,2.9,2,4.4s1.3,2.4,1.9,3.7s1.2,2.5,1.8,3.7s1.5,2.8,2.3,3.9
	c1.4,2.4,2.9,4.7,4.6,6.9c1,1.3,1.9,2.5,3,3.8c0.5,0.6,1,1.1,1.5,1.7s1,1.1,1.6,1.6c0.5,0.5,1,1,1.6,1.5c0.6,0.5,1,0.9,1.5,1.3
	l3.4,2.8l1.7,1.2h0.1c0.6,0.4,1.2,0.8,1.8,1.2c0.5,0.4,1.1,0.7,1.7,1c1.2,0.7,2.5,1.4,3.8,2s2.5,1.2,3.8,1.8l4.6,2
	c1.3,0.6,2.6,1.1,4,1.6l2.8,1l1.8,0.6l1.9,0.6l2.8,0.8c0.6,0.2,1.3,0.3,2,0.5s1.2,0.3,1.9,0.4l2.8,0.6h0.7l1.6,0.2l2.1,0.2
	c0.8,0,1.6,0.2,2.4,0.2h6.9l2.2-0.2l2.6-0.3l2.8-0.4l2.1-0.4c0.7-0.1,1.4-0.2,2-0.4c0.6-0.2,1.5-0.3,2.2-0.6l2.8-0.8
	c0.7-0.2,1.4-0.5,2.1-0.7l1.8-0.7c1.5-0.6,3.1-1.2,4.6-1.7c0.8-0.3,1.6-0.7,2.4-1c1.4-0.6,2.8-1.2,4.1-2c1.4-0.8,2.7-1.7,3.9-2.8
	l1.7-1.5l3.6-3.3c1-0.9,2-1.9,2.9-3c0.9-1.1,2-2.3,3-3.6l2.8-3.7c0.8-1.2,1.6-2.3,2.4-3.6c0.4-0.6,0.7-1.2,1-1.8
	c0.4-0.6,0.7-1.3,1-2c0.3-0.6,0.6-1.3,0.9-1.9s0.5-1.5,0.8-2.2c0.4-1.3,0.7-2.6,0.9-3.9c0.2-1.5,0.4-3.1,0.5-4.6l0.2-2v-1.6
	c0.1-0.4,0.1-0.8,0-1.2c-0.3-0.7-1-1.1-1.7-0.9c-0.7,0.2-1.1,0.9-1,1.6l0,0l0,0v3.7c0,1.1-0.2,2.2-0.3,3.3c-0.3,1.6-0.7,3.2-1.3,4.7
	c-0.2,0.8-0.5,1.6-0.8,2.3s-0.5,1.3-0.8,1.9c-0.5,1.1-1.1,2.2-1.7,3.2c-0.4,0.6-0.4,0-0.7,0.6l-1.5,2.9c-4.4-0.5-3,4-4.5,6
	c-0.7,0.8-1.4,1.6-2.1,2.3s-1.8,1.8-2.8,2.7c-1.9,1.8-3.9,3.5-5.9,5.1h-0.2c-1.7,1.2-3.5,2.1-5.3,2.9l-2.5,1l-2.1,0.8l-3.8,1.4
	l-2.3,0.8l-2.6,0.8c-0.7,0.2-1.4,0.4-2.1,0.6c-0.6,0.2-1.3,0.3-1.9,0.4c-0.7,0.1-1.4,0.3-2.1,0.4l-2.5,0.4l-3.3,0.3l-2.1,0.2h-5.8
	l-3-0.5l-1.2-0.1l-2-0.3l-2.8-0.6c-0.7-0.1-1.4-0.3-2.1-0.5c-0.7-0.2-1.2-0.3-1.8-0.5l-2.8-0.8c-0.7-0.2-1.5-0.5-2.2-0.7
	c-1.3-0.4-2.6-0.9-3.8-1.4s-2-0.8-3-1.2c-2.8-1.2-5.5-2.4-8.3-3.7l-2-1c-0.7-0.4-1.4-0.7-2-1.1s-1.4-0.8-2-1.2l-1.9-1.1l0,0
	l-1.9-1.3l0,0c-0.9-0.6-1.7-1.3-2.5-2s-1.7-1.4-2.5-2.2c-0.8-0.7-1.6-1.5-2.4-2.3c-0.4-0.4-0.8-0.8-1.2-1.3l-1-1.2
	c-2.1-2.6-4-5.3-5.8-8.1c-0.8-1.3-1.5-2.6-2.3-3.9s-1.3-2.4-1.9-3.6c-1.2-2.5-2.5-5-3.8-7.5c-0.4-0.8-0.8-1.7-1.1-2.5
	c-1-2.6-2-5.2-2.7-7.8c-0.4-1.4-0.9-2.8-1.2-4.2s-0.6-2.8-0.9-4c-0.4-3.2-0.8-6.4-1.2-9.5c-0.4-2.7-0.6-5.5-0.6-8.3v-4.1
	c0-1.4,0.2-2.8,0.3-4.3c0.1-1.1,0.3-2.1,0.6-3.2c0.2-1.1,0.6-2.6,0.8-3.8c0.5-2.6,0.7-5.2,1-7.7c0-0.4-0.1-0.7-0.4-0.9
	c-0.3-0.2-0.6-0.4-1-0.4c-0.4,0-0.7,0.1-1,0.4c-0.2,0.3-0.4,0.6-0.4,0.9c-0.2,1.8-0.4,3.6-0.6,5.5c-0.1,0.9-0.3,1.8-0.5,2.8
	s-0.4,2-0.6,3s-0.4,2.1-0.5,3.1s-0.2,2.2-0.3,3.3S140.6,56.1,140.5,57.5z"/>
<path class="st0" d="M90.7,38c0,0.6,0,1.3,0,1.9V41c0,0.4,0.1,0.7,0.2,1.1c0.1,0.4,0.3,0.8,0.5,1.2c0.5,0.9,1.1,1.6,1.9,2.2
	c0.7,0.5,1.6,0.9,2.5,1c0.7,0.1,1.3,0.1,2,0c0.5,0,0.9-0.2,1.4-0.3c0.8-0.2,1.6-0.6,2.3-1.1c0.7-0.4,1.3-1,1.9-1.5l1.5-1.6
	c0.5-0.5,1-1,1.5-1.6c1-1.2,1.9-2.5,2.6-3.9c0.5-1.2,0.9-2.5,1.2-3.8c0.1-0.3,0.1-0.7,0-1c-0.2-0.3-0.5-0.5-0.8-0.6
	c-0.7-0.2-1.5,0.2-1.7,0.9c-0.3,1.2-0.6,2.4-1.1,3.6c-0.3,0.5-0.5,1-0.8,1.5c-0.3,0.5-0.7,1-1,1.4s-1.3,1.4-2,2.1l-1,1.1
	c-0.3,0.3-0.7,0.6-1.1,0.9c-0.9,0.7-2,1.2-3.1,1.3c-0.3,0-0.6,0-0.9,0c-0.3,0-0.5-0.1-0.7-0.2l-0.7-0.4l-0.6-0.5
	c-0.2-0.3-0.4-0.6-0.6-1c-0.1-0.3-0.2-0.6-0.2-0.9c-0.2-1.3-0.2-2.7,0-4c0.1-0.7,0.3-1.3,0.5-1.9c0.2-0.7,0.5-1.3,0.8-2l0.8-2.2
	c0.2-0.8,0.5-1.5,0.8-2.2c0.1-0.3,0.3-0.6,0.5-0.8l0.2-0.2l0,0l0.7-0.2h3.1c1.3,0,2.5-0.1,3.8-0.3c1.1-0.1,2.2-0.4,3.3-0.7
	c1.1-0.3,2.3-0.6,3.4-0.9c2.8-1.1,5.5-2.5,7.9-4.3c1.2-0.8,2.3-1.7,3.6-2.4c0.7-0.4,1.3-0.7,2-1.1c0.5-0.3,1.1-0.6,1.7-0.8
	c2.5-0.9,5.1-1.5,7.8-1.9c0.8,0,1.6-0.1,2.5-0.1L139,15c0.7,0,1.5,0.2,2.2,0.4c0.8,0.2,1.6,0.4,2.3,0.7l0.7,0.3
	c0.6,0.3,1.1,0.6,1.6,0.9c0.4,0.3,0.8,0.7,1.2,1.1c0.4,0.5,0.7,1,1,1.6c0.2,0.4,0.4,0.9,0.6,1.4c0.2,0.6,0.4,1.2,0.5,1.9
	c0.1,1,0.1,2.1,0,3.1c-0.1,0.8-0.3,1.6-0.6,2.3c-0.6,1-1.3,1.9-2,2.8c-0.3,0.4-0.7,0.7-1.1,1l-0.8,0.4l-1.7,0.5
	c-0.7,0.1-1.1,0.8-1,1.5l0,0l0,0c0.2,0.7,1,1.1,1.7,0.9c1.4-0.3,2.7-0.9,3.9-1.7c0.8-0.7,1.4-1.5,2-2.3c0.6-0.8,1.1-1.6,1.5-2.5
	c0.4-0.9,0.6-1.8,0.8-2.8c0.1-0.9,0.1-1.7,0-2.6c-0.1-1.2-0.3-2.3-0.6-3.4c-0.3-0.9-0.7-1.7-1.1-2.5c-0.5-0.8-1.1-1.6-1.8-2.2
	c-0.7-0.6-1.4-1.1-2.2-1.6c-0.6-0.3-1.3-0.6-1.9-0.9c-0.7-0.3-1.5-0.5-2.2-0.7c-0.7-0.2-1.5-0.3-2.3-0.4c-0.8-0.1-1.7-0.2-2.5-0.2
	h-2.2c-1.5,0.2-3.1,0.4-4.6,0.7c-1.4,0.4-2.9,0.8-4.3,1.4c-2.8,1.1-5.4,2.6-7.8,4.4c-2.2,1.7-4.6,3.1-7.2,4.2
	c-1.2,0.4-2.5,0.7-3.7,1c-1.1,0.3-2.3,0.5-3.5,0.7c-1.4,0-2.8,0.2-4.2,0.2c-0.8-0.1-1.5-0.1-2.3,0c-0.2,0-0.4,0-0.6,0
	c-0.4,0.1-0.8,0.2-1.1,0.4c-0.4,0.3-0.8,0.6-1.1,1c-0.2,0.3-0.5,0.6-0.6,1c-0.7,1.4-1.1,3-1.6,4.4c-0.6,1.3-1,2.6-1.4,4
	C90.9,36.4,90.8,37.2,90.7,38z"/>
<path class="st3" d="M148,19.8"/>
<path class="st3" d="M99,43.5"/>
<path class="st3" d="M43.3,161.8c-0.2,0.6-0.2,1.2-0.2,1.9c0,0.4,0.1,0.8,0.2,1.1c0.1,0.3,0.2,0.7,0.3,1c0.1,0.3,0.3,0.6,0.5,0.9
	c0.3,0.3,0.6,0.6,1,0.8c0.2,0.1,0.4,0.2,0.7,0.2c0.2,0,0.4,0,0.6,0.1c0.6,0.1,1.2,0.1,1.9,0.1l1.8,0.1c2.6,0.1,5.2,0.1,7.8,0.3
	s5.3,0.3,8,0.3s5.2-0.1,7.8-0.2c1.4,0,2.7-0.1,4.1-0.2s2.5-0.1,3.8-0.1s2.6,0.2,4,0.3s2.6,0.1,3.9,0.1c2.7,0,5.4-0.2,8-0.4
	s5.4-0.4,8-0.8s5.3-0.9,7.9-1.4c1.3-0.2,2.5-0.5,3.8-0.7c1.3-0.2,2.6-0.6,3.8-1c1.3-0.4,2.5-1,3.6-1.7c0.6-0.4,1.1-0.9,1.5-1.5
	c0.3-0.5,0.5-1.1,0.5-1.7c0-0.6-0.1-1.3-0.3-1.9c-0.3-1.1-0.6-2.2-1.2-3.2c-0.5-1.1-1.1-2.2-1.8-3.2c-1.3-2.1-2.8-4-4.5-5.8
	c-0.9-0.9-1.7-1.8-2.7-2.7c-0.5-0.4-0.9-0.9-1.4-1.3s-1-0.8-1.6-1.2s-1-0.7-1.6-1.1s-1.1-0.7-1.7-1c-1.2-0.6-2.3-1.3-3.5-1.9
	c-2.3-1.2-4.7-2.3-6.9-3.6c-0.2-0.1-0.4-0.1-0.6-0.1c-0.4,0-0.8,0.2-1.1,0.6c-0.2,0.2-0.2,0.6-0.1,0.8c0.1,0.3,0.3,0.5,0.6,0.6
	c1.9,1.1,4,2.1,6,3.1c1,0.5,2.1,1.1,3.1,1.6c0.9,0.5,1.8,1,2.6,1.5c0.3,0.2,0.6,0.4,0.9,0.6s0.6,0.4,0.9,0.6c0.6,0.5,1.2,1,1.8,1.4
	c0.5,0.4,1,0.8,1.4,1.3c0.4,0.4,1.1,1.1,1.6,1.6s1.1,1.2,1.6,1.8s1.1,1.4,1.7,2.1c1,1.3,1.9,2.8,2.6,4.2c0.3,0.7,0.7,1.4,1,2.1
	c0.3,0.7,0.4,1.4,0.6,2.2c0.1,0.3,0.1,0.6,0.1,0.9c0,0.1-0.1,0.3-0.1,0.4c-0.1,0.1-0.2,0.3-0.2,0.4c-0.2,0.2-0.4,0.3-0.6,0.5
	c-0.8,0.5-1.6,0.9-2.4,1.2h-0.1c-2.5,0.8-5.1,1.4-7.7,1.8c-2.4,0.5-4.9,0.9-7.3,1.3l0,0c-2.1,0.3-4.2,0.5-6.2,0.6s-4.2,0.4-6.4,0.5
	c-2.6,0.2-5.2,0.2-7.8,0c-1.3-0.1-2.6-0.2-4-0.3c-1.3,0-2.6,0-3.8,0.1c-2.6,0.1-5.2,0.2-7.8,0.3c-1.3,0-2.7,0.1-4,0.1s-2.7,0-4-0.1
	l-4-0.2c-1.4-0.1-2.6-0.1-3.9-0.1s-2.6-0.1-3.9-0.1l-1.8-0.1c-0.6,0-1.1,0-1.7-0.1h-0.2c-0.1-0.1-0.2-0.2-0.3-0.4
	c-0.2-0.4-0.3-0.8-0.3-1.2c0-0.4,0-0.9,0-1.3c0.3-1.2,0.7-2.4,1.2-3.5c0.4-0.9,0.9-1.9,1.4-2.8c0.6-1.1,1.2-2.2,1.9-3.2
	c0.6-1,1.2-1.9,1.9-2.8c0.7-0.9,1.4-1.8,2.1-2.6l0,0l0.2-0.2l-0.2,0.2c0.8-0.9,1.6-1.8,2.5-2.7s1.6-1.8,2.5-2.7s1.6-1.7,2.5-2.5
	c0.8-0.8,1.7-1.6,2.6-2.3c0.4-0.3,0.9-0.6,1.3-0.8c0.4-0.2,0.8-0.4,1.2-0.6c0.1-0.1,0.3-0.1,0.5-0.1c0.6-0.1,1-0.7,0.9-1.3
	c0,0,0-0.1,0-0.1c-0.2-0.7-0.9-1.1-1.6-0.9c0,0,0,0,0,0l0,0c-0.6,0.1-1.2,0.4-1.7,0.7c-0.6,0.3-1.2,0.6-1.8,1
	c-1.2,0.8-2.3,1.8-3.3,2.8c-0.8,0.8-1.7,1.7-2.5,2.5s-1.6,1.8-2.5,2.7s-1.6,1.8-2.4,2.7s-1.7,2-2.5,3c-0.7,0.9-1.4,1.8-2,2.8
	c-0.6,0.9-1.3,2.1-1.9,3.2s-1.1,2.1-1.5,3.1C44,159.4,43.6,160.6,43.3,161.8z M116.5,145.8L116.5,145.8L116.5,145.8z M123.3,160.5
	L123.3,160.5z M46.4,165.6L46.4,165.6z"/>
<path class="st4" d="M48.6,150.9c-0.3,0.5-0.1,1.1,0.3,1.4l0.2,0.1c0.4,0.2,0.8,0.4,1.3,0.5l0.7,0.2c0.5,0.1,0.9,0.2,1.4,0.4
	c2.6,0.6,5.2,1,7.8,1.3c2.6,0.3,5.2,0.6,7.8,0.8h0.2l1.9,0.2c1.3,0.1,2.5,0.2,3.8,0.3s2.8,0.2,4.1,0.3c2.6,0.2,5.2,0.1,7.8-0.1
	c2.8-0.3,5.6-0.7,8.4-1.2c1.3-0.2,2.6-0.5,4-0.8s2.6-0.5,3.9-0.8l3.8-0.9l3.7-0.8c1.4-0.3,2.7-0.6,4-0.9c0.6-0.2,1.2-0.3,1.8-0.5
	c0.6-0.2,1.2-0.4,1.8-0.7c0.8-0.4,1.5-0.8,2.2-1.4c0.4-0.4,0.5-1,0.1-1.4c0,0,0,0,0,0c0,0-0.1-0.1-0.1-0.1c-0.2-0.2-0.6-0.3-0.9-0.3
	c-0.3,0-0.6,0.1-0.9,0.3l-0.4,0.3c-0.6,0.4-1.2,0.7-1.9,1c-1.7,0.6-3.4,1-5.2,1.4c-1.7,0.4-3.3,0.7-5,1.1c-1.2,0.3-2.5,0.6-3.7,0.9
	l-3.8,0.8c-1.3,0.3-2.6,0.5-3.9,0.8s-2.7,0.4-4,0.6c-1.5,0.2-3,0.4-4.6,0.5c-1.4,0.1-2.8,0.2-4.2,0.2s-2.7-0.1-4.1-0.2
	s-2.5-0.2-3.8-0.3s-2.5-0.2-3.8-0.3l-2.8-0.3l-0.9-0.1c-5.1-0.4-10.2-1.2-15.2-2.6l-0.2-0.1C49.7,150.1,49,150.3,48.6,150.9z
	 M117.2,147.1l0.2-0.1L117.2,147.1z M115.3,148.1L115.3,148.1z M89.9,153.6L89.9,153.6z M50.6,150.6L50.6,150.6z"/>
<path class="st6" d="M72.6,155.8c-0.6-1-1.2-2.1-1.7-3.1c-0.5-1.1-0.8-2.2-1.2-3.4c-0.3-1.2-0.5-2.4-0.4-3.6c0-0.6,0.1-1.2,0.2-1.8
	c0.1-0.5,0.2-0.9,0.4-1.4c0.2-0.6,0.4-1.1,0.7-1.6c0.2-0.5,0.5-1,0.8-1.4c0.6-0.9,1.2-1.9,1.8-2.8c0.7-1.1,1.4-2.2,2.1-3.3
	c0.2-0.3,0.6-0.5,1.1-0.6c0.2,0,0.4,0,0.6,0.1c0.5,0.2,0.8,0.8,0.6,1.3c0,0,0,0,0,0l-0.1,0.2c-0.9,1.4-1.8,2.9-2.8,4.3
	c-0.4,0.6-0.8,1.2-1.2,1.9s-0.7,1.2-1,1.8c-0.2,0.4-0.3,0.8-0.4,1.2c-0.1,0.4-0.2,0.8-0.3,1.2c0,0.4-0.1,0.8-0.1,1.3
	c0,0.5,0,1,0.1,1.5c0.4,1.9,1,3.8,1.9,5.6c0.3,0.6,0.7,1.2,1,1.7l0.6,0.9l0.2,0.3c0.3,0,0.6,0.1,0.8,0.3c0.4,0.4,0.5,1,0.1,1.4
	l-0.1,0.1c0,0.1-0.1,0.1-0.1,0.2l-0.3,0.4c-0.1,0.1-0.3,0.2-0.5,0.4c-0.2,0.1-0.3,0.2-0.5,0.3l-0.8,0.4c-0.5,0.3-1,0.5-1.6,0.8
	l-1,0.6c-0.6,0.2-1.2,0.1-1.6-0.4c-0.2-0.2-0.2-0.5-0.1-0.8c0.1-0.3,0.3-0.5,0.6-0.6c0.3-0.2,0.6-0.4,0.9-0.6l0.7-0.4
	c0.5-0.3,1-0.5,1.5-0.8l-0.1-0.2L72.6,155.8z"/>
<path class="st6" d="M77.9,84.3c-0.1,0.8,0,1.7,0.4,2.4c0.7,1.2,1.8,2.1,3.2,2.4c1.8,0.6,3.8,0.5,5.5-0.3c1.1-0.5,2.2-1.1,3.2-1.9
	c0.2-0.2,0.3-0.5,0.3-0.8c0-0.3-0.1-0.6-0.4-0.8c-0.2-0.2-0.6-0.3-0.9-0.3c-0.3,0-0.6,0.1-0.9,0.3l-0.2,0.2
	c-0.4,0.2-0.7,0.5-1.1,0.7c-0.3,0.2-0.7,0.4-1.1,0.6c-0.5,0.2-1.1,0.3-1.6,0.4c-0.4,0-0.8,0-1.1,0c-0.3,0-0.7-0.1-1-0.2
	c-0.3-0.1-0.6-0.2-0.8-0.4c-0.2-0.2-0.4-0.3-0.6-0.5c-0.1-0.2-0.2-0.3-0.3-0.5c-0.1-0.2-0.1-0.3-0.2-0.5c0-0.2,0-0.4,0-0.6
	c0.1-0.4,0.2-0.7,0.4-1.1c0.3-0.6,0.7-1.3,1.2-1.8l0,0c0.2-0.2,0.3-0.4,0.3-0.7c0-0.3-0.2-0.6-0.4-0.8c-0.2-0.2-0.6-0.3-0.9-0.3
	c-0.3,0-0.6,0.1-0.9,0.3c-0.7,0.8-1.4,1.8-1.8,2.8C78.1,83.5,78,83.9,77.9,84.3z M88.2,85.6L88.2,85.6L88.2,85.6z"/>
<path class="st7" d="M80.4,77.1c-0.3,0.7-0.4,1.4-0.4,2.1c0,0.4,0.1,0.8,0.2,1.1c0.1,0.4,0.3,0.7,0.5,1c0.5,0.5,1,1,1.6,1.4
	c1.1,0.7,2.1,1.4,3.2,2s2.3,1.2,3.4,1.9l0,0c0.1,0.2,0.2,0.4,0.4,0.6c0.3,0.3,0.8,0.5,1.2,0.4c0.2,0,0.4-0.1,0.6-0.1
	c0.3-0.1,0.6-0.2,0.8-0.3c0.8-0.4,1.4-1.1,1.7-1.9c0.2-0.5,0.3-1,0.4-1.5c0.1-0.5,0.1-0.9,0.1-1.4c-0.1-1-0.3-2-0.6-3
	c-0.4-1.1-1.1-2.1-1.9-3c-0.2-0.2-0.4-0.4-0.6-0.6c-0.5-0.4-1-0.8-1.5-1.1c-1.2-0.7-2.5-1-3.8-1c-0.5,0-1.1,0.1-1.6,0.3
	c-0.9,0.2-1.8,0.7-2.5,1.4C81.1,75.8,80.7,76.4,80.4,77.1z M87.2,76L87.2,76z M82.5,79.5c0-0.2,0-0.5,0-0.7c0.1-0.4,0.2-0.7,0.3-1.1
	c0.1-0.3,0.3-0.5,0.5-0.8c0.1-0.2,0.3-0.3,0.5-0.4c0.2-0.1,0.5-0.3,0.7-0.4c0.3-0.1,0.7-0.2,1-0.3c0.2,0,0.5,0,0.8,0
	c0.3,0,0.7,0.1,1,0.2c0.5,0.2,0.9,0.4,1.3,0.6c0.5,0.4,1,0.8,1.4,1.2c0.4,0.4,0.7,0.9,1,1.5c0.3,0.7,0.6,1.5,0.7,2.3
	c0.1,0.4,0.1,0.7,0.1,1.1c0,0.3,0,0.6-0.1,0.9c-0.1,0.3-0.2,0.7-0.3,1c-0.1,0.2-0.2,0.3-0.3,0.5L91,85.3l-0.2,0.1l0,0
	c-0.1-0.3-0.3-0.5-0.6-0.6c-1.7-1-3.5-1.8-5.1-2.9l0.3,0.2c-0.4-0.3-0.9-0.6-1.3-0.9c-0.4-0.3-0.8-0.6-1.2-0.9L82.7,80
	C82.6,79.8,82.5,79.6,82.5,79.5L82.5,79.5z"/>
<path class="st8" d="M66,135c-0.2,0.8,0.2,1.7,1,2.1c0.7,0.3,1.5,0.3,2.2,0c0.4-0.3,0.7-0.6,1.1-0.9l0.1-0.1h0.2
	c0.6,0,1.2-0.2,1.8-0.4l1.1-0.3c0.7-0.2,1.4-0.4,2.2-0.6l0.7-0.2h0.1c0.6,0.1,1.2,0.1,1.8-0.1c0.7-0.2,1.3-0.4,2-0.6
	c0.7,0.1,1.4,0,2.1-0.2c0.4-0.1,0.8-0.2,1.2-0.3l0.8-0.1c0.5-0.1,1.1-0.1,1.6-0.2c1.7-0.1,3.5-0.1,5.2,0c1.2,0.1,2.4,0.3,3.5,0.6
	l0.1,0.1c1,0.5,2.3,0.2,3-0.7c0.3-0.4,0.4-1,0.2-1.5c-0.1-0.3-0.3-0.6-0.6-0.8l0,0c-0.9-1-1.6-2.2-2.3-3.3c-0.7-1-1.3-2.1-1.8-3.2
	c-0.1-0.4-0.2-0.8-0.4-1.1c-0.3-0.8-0.6-1.6-1-2.4c-0.2-0.4-0.3-0.7-0.5-1.1l-0.2-0.4l-0.2-0.6l-0.6-2c-0.1-0.4-0.3-0.9-0.4-1.3
	c-0.1-0.3-0.2-0.6-0.3-0.8c-0.2-0.7-0.8-1.3-1.5-1.6c-0.1,0-0.2-0.1-0.3-0.1c-0.4-2.7-0.8-5.3-1.1-8c0-0.5-0.3-1-0.7-1.3
	c-0.4-0.3-1-0.5-1.5-0.5c-1.1,0-2.2,0.9-2.1,1.9s0.2,2.1,0.4,3.2l-0.1,0.2c-0.2,0.3-0.3,0.7-0.4,1c-0.6,0.1-1.2,0.4-1.5,0.9
	c-0.6,1.1-1,2.3-1.3,3.6c-0.2,0.6-0.3,1.2-0.5,1.8c-0.2,0.8-0.4,1.7-0.7,2.5c-0.4,0.7-0.8,1.4-1.2,2.1c-0.5,0.9-1,1.8-1.4,2.8
	c-0.8,1.8-1.6,3.5-2.4,5.3l-0.3,0.2l-0.3,0.2l-0.4,0.4c-0.3,0.2-0.6,0.5-0.9,0.8c-0.7,0.7-1.4,1.5-2,2.3l-0.1,0.1l-0.1,0.1l-0.5,0.4
	c-1,0-1.8,0.5-2.2,1.5c0,0.1-0.1,0.3-0.1,0.4C66.2,134.6,66.1,134.8,66,135z M91.4,133.1L91.4,133.1z"/>
<path class="st9" d="M94,42.8c-0.2,0.3-0.2,0.7-0.1,1c0.1,0.3,0.3,0.6,0.6,0.8c0.7,0.3,1.5,0.6,2.1,0.8s1.2,0.3,1.8,0.5
	s1.3,0.4,1.9,0.5c1.6,0.3,3.3,0.1,4.8-0.6c0.8-0.4,1.5-0.9,2.1-1.6c0.6-0.7,1.2-1.5,1.6-2.4c0.3-0.6,0.5-1.2,0.7-1.8
	c0.2-0.5,0.3-1.1,0.4-1.6v-0.2c0.2,0,0.4-0.1,0.5-0.2c0.3-0.2,0.6-0.5,0.6-0.8c0,0,0,0,0,0c0.2-0.7-0.3-1.5-1-1.6
	c-0.2,0-0.4-0.1-0.7-0.1l-0.4-0.1l0,0c-0.7-0.4-1.5-0.2-1.9,0.5c-0.3,0.4-0.2,1,0.1,1.4c0,0.2,0,0.3,0,0.5c-0.1,0.5-0.2,0.9-0.3,1.4
	c-0.1,0.5-0.3,1-0.5,1.5c-0.3,0.6-0.6,1.1-0.9,1.6c-0.2,0.3-0.5,0.5-0.8,0.8c-0.3,0.2-0.7,0.4-1,0.6c-0.4,0.1-0.7,0.2-1.1,0.3
	c-0.4,0-0.7,0-1.1,0c-0.9-0.2-1.7-0.4-2.6-0.7c-0.8-0.2-1.6-0.5-2.3-0.8l-0.4-0.2c-0.3-0.2-0.7-0.2-1.1-0.1
	C94.5,42.2,94.1,42.5,94,42.8z"/>
</svg>
