<svg id="Layer_2" data-name="Layer 2" xmlns="http://www.w3.org/2000/svg" viewBox="0 0 133.94 125.52"><path d="M62.07,39.06a2.14,2.14,0,0,1,.48-.07,1.86,1.86,0,0,1,1.84,1.28c.12.56.24,1.13.4,1.69a1.63,1.63,0,0,1,.72.95c.11.62.21,1.23.31,1.85A18.59,18.59,0,0,0,68,48.13a28,28,0,0,0,2.37,2.38,30.35,30.35,0,0,0,2.5,2l.11.08c.51.11,1,.2,1.42.27h.28a8.17,8.17,0,0,0,1.1-.08c1-.12,1.92-.25,2.87-.39a20.37,20.37,0,0,0,3.43-.74,4.77,4.77,0,0,0,.63-.34L83,51l0-.07,0-.07a1.7,1.7,0,0,1,1.35-1.8A1.49,1.49,0,0,1,85,49a2.09,2.09,0,0,1,1.32.47,14.79,14.79,0,0,0,1.14-1.22,18.07,18.07,0,0,0,1.16-1.64l0-.08c.42-.64.77-1.18,1.16-1.68a22.55,22.55,0,0,0,2.36-3.56c.25-.67.47-1.39.67-2l.05-.17.23-.74c.3-1,.66-2,1.13-3.18.21-.54.43-1.07.64-1.61l.08-.19c.19-.47.37-.94.56-1.42s.46-1.15.77-1.79A6.73,6.73,0,0,1,97,28.92a5.2,5.2,0,0,1,.38-.44c.15-.12.32-.23.49-.34a1.56,1.56,0,0,1,.87-.23H99l.21-1,.22-1a1.38,1.38,0,0,1,.23-.49,2.36,2.36,0,0,1,.74-2.16,10.36,10.36,0,0,1,5-2.47,11,11,0,0,1,2-.2h.26a6.91,6.91,0,0,1,2.45.65,6.29,6.29,0,0,1,1.39.87l.28.21a6.91,6.91,0,0,1,1.18,1.1,18.27,18.27,0,0,1,2.25,3l.54.9.09.16.16.27c.33.56.65,1.12,1,1.67s.83,1.25,1.25,1.86l.49.7c.29.42.57.86.84,1.3s.5.82.77,1.22c1.15,1.68,2.44,3.38,4,5.2.65.77,1.53,1.78,2.52,2.74.78.76,1.72,1.59,3,2.6l1.09.89,2,1.61.45.36.1.08c.82.65,1.62,1.3,2.39,2a31.49,31.49,0,0,1,2.72,2.63,15.49,15.49,0,0,1,2.32,3.05,15.13,15.13,0,0,1,1.48,3.77,12,12,0,0,1,.23,3.65,23.82,23.82,0,0,1-1.87,7.41,20.75,20.75,0,0,1-1.94,3.57c-.73,1.06-1.53,2.12-2.17,3l-.29.39-.09.12c-.65.88-1.33,1.77-1.94,2.68-.35.53-.74,1-1.07,1.43l-.08.09a18.3,18.3,0,0,1-1.44,1.62,21.69,21.69,0,0,1-7.71,4.28c-.75.28-1.44.5-2.12.69a2.94,2.94,0,0,1-.45.39,2.42,2.42,0,0,1-.55.24l-.14,0a5.41,5.41,0,0,1-.58.18l-.59.16-.13,0-.38.08-.9.27a21.7,21.7,0,0,1-2.81.67l-.2,0-.09.06a15.48,15.48,0,0,1-1.81,1,8.21,8.21,0,0,1-3.41.69,21.4,21.4,0,0,1-2.9-.19c-.69-.09-1.37-.2-2-.31l-.32,0-.27,0L102,91.24c-.85-.11-1.63-.22-2.4-.35a12.5,12.5,0,0,1-2.4-.7c-1-.36-1.91-.75-3-1.2l-1-.4c-.58-.16-1.08-.32-1.52-.49-.73-.26-1.34-.51-1.92-.77l-2.4-.85a31.41,31.41,0,0,1-3-1.21,25.4,25.4,0,0,1-2.59-1.41,23.93,23.93,0,0,1-2.48-1.69,27.94,27.94,0,0,1-2.13-2A29.39,29.39,0,0,1,75.3,78l-1-1.21a35.73,35.73,0,0,1-3.23-2.81A14.14,14.14,0,0,1,68.81,71,13.54,13.54,0,0,1,68,69.39c-.26-.55-.51-1.14-.74-1.76l-.08-.18,0-.1-.06-.16L67,67l-.06-.17a2.16,2.16,0,0,1-.22-1,1.55,1.55,0,0,1,.26-.87,1.63,1.63,0,0,1,.39-.44l0-.06,0-.08c-.36-.81-.67-1.63-1-2.68-.28-.76-.57-1.56-.89-2.32a38.51,38.51,0,0,1-1.59-4.26A13.61,13.61,0,0,1,63.34,53l-.05-.32c-.09-.67-.18-1.33-.28-2s-.17-1-.26-1.57l-.06-.31-.21-1.28-.27-1.76a17.52,17.52,0,0,1-.74-1.92,25.42,25.42,0,0,1-.71-2.62,1.67,1.67,0,0,1,.2-1.33A1.86,1.86,0,0,1,62.07,39.06Z" transform="translate(-31.6 -7)" style="fill:#824b22"/><path d="M32.36,25.91a5.58,5.58,0,0,1,1.55-1.79,11.7,11.7,0,0,1,4.81-1.91l.16,0c.5-.12,1-.23,1.47-.37,1.64-.47,3.16-1,5-1.7a24.84,24.84,0,0,0,2.27-1L49,18.32l.33-.18.73-.4a23.49,23.49,0,0,1,5.55-2.24,14.17,14.17,0,0,1,1.83-.27c.23-.05.49-.1.82-.14l.28,0c.5-.05,1-.09,1.41-.09h.26c.45,0,.93.07,1.44.14a6,6,0,0,1,1.34.41,6.06,6.06,0,0,1,2.24,1.65l.1.12a8.15,8.15,0,0,1,1.67,3,6.25,6.25,0,0,1,.12,2.79A4.09,4.09,0,0,1,66.25,25a4.66,4.66,0,0,1-.83.83,7.09,7.09,0,0,1-1,.64,8.54,8.54,0,0,1-1.51.57,11.49,11.49,0,0,1-2.41.35c-.68,0-1.33.07-2,.1h-.19c-.67,0-1.34.06-2,.11a31.85,31.85,0,0,0-3.79,1l-.41.12-.67.2-.14,0-.18.05c-1.51.44-3.07.9-4.58,1.46a19.73,19.73,0,0,0-2.66,1.31,11.79,11.79,0,0,0-.93.94l-.13.14A7.63,7.63,0,0,1,41.47,34a7,7,0,0,1-3.84,1.07H37.5a5.57,5.57,0,0,1-3.68-1.59,7.35,7.35,0,0,1-1.59-2.55,5.78,5.78,0,0,1-.47-3.06A5.39,5.39,0,0,1,32.36,25.91Z" transform="translate(-31.6 -7)" style="fill:#824b22"/><path d="M101.53,26.74l.4,0,.4.11.14,0,.26.08.49.14.46.15a8.21,8.21,0,0,0,1,.3,11.29,11.29,0,0,1-1.74-.19,5.79,5.79,0,0,1-1.67-.57,1.47,1.47,0,0,1-.49.22l-.23,0a.85.85,0,0,1,.25-.17A1.37,1.37,0,0,1,101.53,26.74Z" transform="translate(-31.6 -7)" style="fill:#6edaf4"/><path d="M96.63,30.5a2.46,2.46,0,0,1,.83-.87l.08-.16a1.56,1.56,0,0,1,.16-.2,1.34,1.34,0,0,1,0-.2,1.28,1.28,0,0,1,.42-.94,1.48,1.48,0,0,1,1-.39,1.61,1.61,0,0,1,1,.39c.82.63,1.64,1.26,2.42,1.92.39.33.77.67,1.13,1a10.19,10.19,0,0,1,1.06,1.3,5.26,5.26,0,0,1,1,2.2,3.13,3.13,0,0,1,0,1.1,3.2,3.2,0,0,1-.47,1.13,9.18,9.18,0,0,1-.89,1.07c-.15.19-.3.37-.46.55a5.94,5.94,0,0,1-.64.77,1.51,1.51,0,0,1-1.74.21,1.3,1.3,0,0,1-.64-.77c-.11-.11-.2-.23-.3-.35s-.33-.43-.49-.66a14.42,14.42,0,0,1-.73-1.27c-.38-.72-.76-1.45-1.21-2.14s-.86-1.27-1.3-1.9a2,2,0,0,1-.18-.25,1.49,1.49,0,0,1-.19-.45,1.42,1.42,0,0,1,0-.71A1,1,0,0,1,96.63,30.5Z" transform="translate(-31.6 -7)" style="fill:#6edaf4"/><path d="M110.53,35.57a1.28,1.28,0,0,0,.23,1.62,1.54,1.54,0,0,0,1.4.34,4,4,0,0,0,1.31-.79l.88-.65c.46-.35.88-.75,1.33-1.11a18.49,18.49,0,0,0,1.76,1.89l.91.79a21.24,21.24,0,0,1,3.09,1.05l.37.17,0,0a1.32,1.32,0,0,0,.42-.94,1.25,1.25,0,0,0-.42-.95c-.73-.56-1.46-1.12-2.14-1.73a20.35,20.35,0,0,1-1.65-1.7,6,6,0,0,0-.85-1l-.1-.19a1.43,1.43,0,0,0-1.22-.65,2,2,0,0,0-.75.17A6.13,6.13,0,0,0,113.43,33c-.26.23-.48.5-.73.74s-.51.45-.78.66l-.33.22A3,3,0,0,0,110.53,35.57Zm7.58-2,.07.09Zm-1.94,1.06h0Z" transform="translate(-31.6 -7)" style="fill:#6edaf4"/><path d="M87.71,48.29l1-.75c.53-.36,1.1-.69,1.63-1.06.29-.2.58-.4.88-.59l1-.54c.6-.36,1.24-.65,1.87-1s1.25-.62,1.87-.93,1.25-.63,1.84-1,1.17-.79,1.76-1.17,1.18-.75,1.78-1.1,1.42-.79,2.14-1.17,1.47-.83,2.21-1.25,1.48-.78,2.24-1.15l1.25-.55a5.59,5.59,0,0,0,1.05-.57,16,16,0,0,1,3.06-1.77,1.88,1.88,0,0,1,.76-.18,1.48,1.48,0,0,1,.35,0,1.42,1.42,0,0,1,.86.61,1.17,1.17,0,0,1,.14.3,3.17,3.17,0,0,1,2.73,1,1.21,1.21,0,0,1,0,1.34,2.34,2.34,0,0,1-.24.31,1.16,1.16,0,0,1-.34.22l0,.07c-.14,0-.29-.06-.45-.09a4.62,4.62,0,0,0-.65-.07,1.23,1.23,0,0,0-.39.05,1.69,1.69,0,0,0-.71.38.94.94,0,0,0-.1.1,2.38,2.38,0,0,1-.78-.5c0,.46,0,.92.05,1.38l.06.86c.19.37.35.74.52,1.11a2.07,2.07,0,0,1,.22,1.55,1.57,1.57,0,0,1-.48.68c-.73-.1-1.45-.23-2.17-.35s-1.72-.29-2.58-.4l-.21,0c-.35,0-.71-.09-1.06-.11h-.11a1.46,1.46,0,0,0-.38.05l-.16,0a13.62,13.62,0,0,0-1.69,0,5.41,5.41,0,0,1,.39.52,4.34,4.34,0,0,1,.33.56,2,2,0,0,0,.23,1.08c0,.12.12.25.18.37l-.06.38c.15.31.3.61.42.93a1.22,1.22,0,0,1-.37,1.29h-.18c-.55-.08-1.1-.18-1.65-.28l-.67-.13a28.35,28.35,0,0,0-4.4-.48h-.21a4.65,4.65,0,0,0-1.06.09,2.08,2.08,0,0,0-1.49,2.08c0,.45,0,.89,0,1.34,0,.21,0,.43,0,.64,0,1,.08,2.11.14,3.14l0,.64a9,9,0,0,0,.12,1.07,1.56,1.56,0,0,1-1.65-.24,2.09,2.09,0,0,1-.49-.61,1.3,1.3,0,0,1-.65,0,1.44,1.44,0,0,1-.86-.61A7.12,7.12,0,0,1,94,52.69c-.71-.37-1.47-.68-2.22-1-.54-.2-1.08-.38-1.64-.54s-1-.22-1.5-.3h-.29a1.65,1.65,0,0,1-.74-.18,1.32,1.32,0,0,1-.67-.8,1.28,1.28,0,0,1,.37-1.3Z" transform="translate(-31.6 -7)" style="fill:#6edaf4"/><path d="M103.43,61.66a1.48,1.48,0,0,0-.15.61,2.36,2.36,0,0,0,.39,1.17l.56.85a16.9,16.9,0,0,1,1,1.85c.59,1.17,1.26,2.31,1.82,3.5.11.25.22.51.32.77l.14.33a2,2,0,0,0,.46.74,1.52,1.52,0,0,0,2,0,2.37,2.37,0,0,0,.57-1.68l.06-.48a8.79,8.79,0,0,1,.22-1,6.83,6.83,0,0,1,.29-.75,11.63,11.63,0,0,1,1.12-1.76,10.31,10.31,0,0,0,.68-.95c.22-.36.42-.73.62-1.09.35-.65.67-1.31,1-2a11.28,11.28,0,0,1,1.15-1.7,47.44,47.44,0,0,1,3.31-3.64c.66-.65,1.33-1.28,2-1.91s1.29-1.2,2-1.75a15.56,15.56,0,0,1,2.12-1.18c.85-.4,1.74-.73,2.58-1.15a6.41,6.41,0,0,0,.88-.5,2,2,0,0,0,.44-.35,1.52,1.52,0,0,0,1.78-.18,1.27,1.27,0,0,0,0-1.88c-1.3-1.17-2.56-2.37-3.88-3.51a5,5,0,0,0-.52-.39,1.71,1.71,0,0,0-.87-.23,2,2,0,0,0-.6.09l-.06.09a2.65,2.65,0,0,1-.59.4l-.11,0-.81.41-.13.06c-.53.39-1,.8-1.56,1.19l-1.54,1c-.66.42-1.29.88-1.91,1.34s-1.17.84-1.73,1.29-1.06.9-1.57,1.37c-1,.9-2,1.82-3,2.71l-.11.09-.37.44-.25.3a24.9,24.9,0,0,1-2,2l-.85.79-.53.48c-.31.29-.63.58-.91.89s-.33.37-.5.56-.55.63-.85.92l-.07.06c-.21.21-.42.42-.62.64A3,3,0,0,1,103.43,61.66Zm3.95,2,.17-.07h0Zm-.12,0,.18,0Zm-.94-1.22.27-.34v0l-.08.12-.18.27Z" transform="translate(-31.6 -7)" style="fill:#6edaf4"/><path d="M100.56,27.09h0l.26-.17a1.37,1.37,0,0,1,.7-.17l.4,0,.4.11.14,0,.26.08.49.14.46.15a8.36,8.36,0,0,0,1,.3H105l1,.05a11.64,11.64,0,0,0,1.67,0,13.19,13.19,0,0,0,1.76-.4c.57-.15,1.14-.31,1.69-.5l.58-.28a1.55,1.55,0,0,1,1.21-.61h.09a1.75,1.75,0,0,1,.46,0,1.55,1.55,0,0,1,.75.47l.11,0a2,2,0,0,1,1.21,1c.21.3.39.62.58.93.09.15.17.3.25.45a3.47,3.47,0,0,1,.47,1.17c0,.12,0,.24.05.36a3.54,3.54,0,0,1-.07.47,1.48,1.48,0,0,1-.41.66,2.66,2.66,0,0,1-.51.37c-.5.33-1,.67-1.51,1a9.37,9.37,0,0,1-.9.44l-.86.42a18.34,18.34,0,0,0-1.75.94c-.57.37-1.15.74-1.75,1.08a4.87,4.87,0,0,1-1.32.58,1.69,1.69,0,0,1-1.85-.78c-.16-.27-.29-.56-.43-.84a25.31,25.31,0,0,0-1.71-3.05,12.3,12.3,0,0,0-1.68-1.46l-1.36-.92a1.31,1.31,0,0,1-.51-.48,1.23,1.23,0,0,1-.15-1A1.26,1.26,0,0,1,100.56,27.09Z" transform="translate(-31.6 -7)" style="fill:#d17cb0"/><path d="M91.09,41.79a13.4,13.4,0,0,0,.91-1.6c.38-.91.71-1.84,1-2.76.17-.48.34-1,.49-1.47a14.93,14.93,0,0,1,.52-1.6,1.4,1.4,0,0,1,.66-.8,1.63,1.63,0,0,1,.75-.18,1.56,1.56,0,0,1,.5-.46,1.67,1.67,0,0,1,.78-.19,1.2,1.2,0,0,1,.68.19,2,2,0,0,1,.39.31,1.63,1.63,0,0,1,.39.68c.1.15.21.3.3.46s.32.49.46.74a18.3,18.3,0,0,1,.93,2,7.35,7.35,0,0,1,.47,1.58,2.91,2.91,0,0,1,0,1.1,2.55,2.55,0,0,1-1,1.34,15.73,15.73,0,0,1-3.87,2.21,18.88,18.88,0,0,0-3.19,1.73l-.27.19a1.55,1.55,0,0,1-1.14.13,1.31,1.31,0,0,1-1-1.63A10.46,10.46,0,0,1,91.09,41.79Z" transform="translate(-31.6 -7)" style="fill:#d17cb0"/><path d="M99.34,46.46a4.65,4.65,0,0,1,1.06-.09h.21a28.35,28.35,0,0,1,4.4.48l.67.13c.55.1,1.1.2,1.65.28s1,.08,1.46.08c-.1-.31-.23-.63-.36-.94s-.31-.62-.47-.93l-.22-.39c-.14-.26-.28-.52-.4-.78a1.49,1.49,0,0,1,0-1.62,1.64,1.64,0,0,1,.91-.62,1.46,1.46,0,0,1,.38-.05h.11c.35,0,.71.07,1.06.11l.21,0c.86.11,1.72.26,2.58.4s1.63.28,2.45.39l.62.05c0-.23-.05-.48-.08-.72-.08-.42-.18-.87-.32-1.4l-.1-.34a10.54,10.54,0,0,1-.31-1.23,1.78,1.78,0,0,1,0-1,1.28,1.28,0,0,1,.37-.59,1.69,1.69,0,0,1,.71-.38,1.23,1.23,0,0,1,.39-.05,4.62,4.62,0,0,1,.65.07c.49.08.91.19,1.33.3a21,21,0,0,1,3.1,1.05,14.66,14.66,0,0,1,1.32.66l.12.06.15,0a2.59,2.59,0,0,1,.54.19,4.1,4.1,0,0,1,.59.48,3.67,3.67,0,0,1,.44.51,1.73,1.73,0,0,1,.29.85,1.15,1.15,0,0,1,0,.19,1.43,1.43,0,0,1,.31.34,1.22,1.22,0,0,1,.2.67,1.4,1.4,0,0,1-.42,1,2.65,2.65,0,0,1-.59.4l-.11,0-.81.41-.27.13A21.13,21.13,0,0,0,121,45.84l-1,.79-.7.55c-.64.5-1.3,1-2,1.44s-1.07.77-1.56,1.18-1,.91-1.5,1.35-1.1,1-1.64,1.56-.78.84-1.14,1.27l-.25.3a24.9,24.9,0,0,1-2,2l-.85.79-.53.48c-.31.29-.63.58-.91.89s-.33.37-.5.56-.55.63-.85.92l-.07.06c-.21.21-.42.42-.62.64a2.59,2.59,0,0,1-1.81,1.09,2.05,2.05,0,0,1-1.07-.3,3.17,3.17,0,0,1-.73-.69,3.62,3.62,0,0,1-.22-.32l-.09-.14c-.17-.26-.35-.52-.54-.77-.39-.54-.73-1-1.09-1.42-.22-.27-.4-.49-.56-.72a3.7,3.7,0,0,1-.48-1.06,9.54,9.54,0,0,1-.32-2l0-.64c-.06-1-.12-2.09-.14-3.14,0-.21,0-.43,0-.64,0-.45,0-.89,0-1.34A2.08,2.08,0,0,1,99.34,46.46Z" transform="translate(-31.6 -7)" style="fill:#046380"/><path d="M99.89,23.9a2,2,0,0,1,.42-.22,5,5,0,0,1,.41-.65,5.6,5.6,0,0,1,1.07-1.1,6.48,6.48,0,0,1,2.39-1.14,10,10,0,0,1,1.63-.25l.37,0a9.56,9.56,0,0,1,1.2.11h.1a7,7,0,0,1,2.48.9,3.16,3.16,0,0,1,1.56,1.6h.15a1.77,1.77,0,0,1,.41.05,1.43,1.43,0,0,1,.87.62,1.24,1.24,0,0,1,.14,1,1.45,1.45,0,0,1-.66.8,9.23,9.23,0,0,1-2.56,1.14,15.85,15.85,0,0,1-2.13.54,14.78,14.78,0,0,1-2.38.28h-.64a8.36,8.36,0,0,1-1-.3l-.46-.15-.49-.14-.26-.08-.14,0-.4-.11-.4,0a1.37,1.37,0,0,0-.7.17l-.26.17h-.12a1.42,1.42,0,0,1-1.41-1,3.14,3.14,0,0,1-.1-.63,1.8,1.8,0,0,1,.24-.85A2.07,2.07,0,0,1,99.89,23.9Z" transform="translate(-31.6 -7)" style="fill:#046380"/><path d="M124.92,40.12l0,.06,0,0Z" transform="translate(-31.6 -7)" style="fill:#161616"/><path d="M61.69,27.92c0,1.65-.06,3.31,0,5,0,.82.08,1.65.17,2.47s.22,1.74.4,2.61a28,28,0,0,0,1.34,4.71,39.1,39.1,0,0,0,2.14,4.71,14,14,0,0,0,1.34,2,9.18,9.18,0,0,0,2.05,2,13.06,13.06,0,0,0,2.3,1.24,10.26,10.26,0,0,0,1.45.48c.42.11.85.19,1.27.26s.91.13,1.37.16a10.51,10.51,0,0,0,2.91-.1l.7-.14c.22,0,.43-.11.64-.16.4-.11.78-.25,1.16-.39a19.16,19.16,0,0,0,2.57-1.15A18,18,0,0,0,85.81,50a19.52,19.52,0,0,0,3.77-3.54,20.32,20.32,0,0,0,1.44-2c.44-.74.85-1.48,1.24-2.24.78-1.51,1.45-3.07,2.18-4.6s1.31-2.93,2-4.39h0a1.42,1.42,0,0,0,.08-.18c0,.06,0,.11-.07.17.11-.26.23-.52.35-.78l-.08.18c.4-.87.8-1.75,1.16-2.64s.64-1.56,1-2.33c.27-.59.54-1.18.85-1.75a8.43,8.43,0,0,1,.53-.92c.19-.26.38-.52.58-.77s.29-.33.45-.48a10.14,10.14,0,0,1,.92-.8,8.55,8.55,0,0,1,1.46-.79,12.23,12.23,0,0,1,1.8-.48c.25,0,.5-.08.75-.11a8.54,8.54,0,0,1,1.6,0,6.47,6.47,0,0,1,1.24.33,8.69,8.69,0,0,1,1.47.8,9.36,9.36,0,0,1,1.48,1.4,18.3,18.3,0,0,1,1.64,2.38c.42.69.81,1.41,1.22,2.11s.85,1.45,1.31,2.16c.92,1.44,1.82,2.89,2.84,4.28.52.71,1.06,1.43,1.61,2.13s1,1.3,1.47,2c1.07,1.38,2.18,2.72,3.34,4s2.22,2.52,3.4,3.73,2.43,2.45,3.74,3.58c.66.58,1.34,1.16,2,1.75s1.24,1.15,1.84,1.74,1.19,1.22,1.78,1.84,1.07,1.12,1.57,1.71c.35.46.69.93,1,1.41s.56,1,.81,1.53c.15.33.3.67.44,1,.06.17.13.34.2.5s.12.27.17.4a.77.77,0,0,0,.6.76.83.83,0,0,0,1-.53,1,1,0,0,0-.05-.67l-.09-.22c-.06-.14-.12-.29-.17-.44l-.41-1a19.57,19.57,0,0,0-1.09-2.14,21.38,21.38,0,0,0-2.85-3.47c-1.17-1.22-2.35-2.44-3.63-3.57-.65-.58-1.32-1.14-2-1.72s-1.26-1.15-1.88-1.74A95.43,95.43,0,0,1,125,40.18l0,0,0-.07-.07-.08,0,0c-1.21-1.49-2.36-3-3.52-4.55-.53-.7-1.05-1.4-1.56-2.12s-.91-1.37-1.36-2.06-1-1.47-1.41-2.22-.89-1.49-1.31-2.25-.81-1.4-1.25-2.09a12,12,0,0,0-3.21-3.5A7.67,7.67,0,0,0,108.1,20a7,7,0,0,0-1-.07c-.32,0-.63,0-1,.05l-.86.11c-.23,0-.46.09-.69.13a8.06,8.06,0,0,0-1.45.43,8.15,8.15,0,0,0-2.74,1.66,10.91,10.91,0,0,0-1.75,2.1,21.35,21.35,0,0,0-1.13,2.24c-.72,1.55-1.33,3.14-2,4.69-.07.16-.14.32-.22.47h0l0,0a.77.77,0,0,1-.07.16l0,0c-.65,1.43-1.25,2.87-1.9,4.29a1.42,1.42,0,0,1,.08-.18c-.11.25-.23.49-.34.73-.74,1.53-1.41,3.09-2.19,4.6-.39.75-.8,1.5-1.24,2.24a21.84,21.84,0,0,1-1.43,2c-.27.32-.55.64-.85.95a11.48,11.48,0,0,1-.95.89c-.67.6-1.39,1.16-2.12,1.71a15.29,15.29,0,0,1-3.41,1.87,13.82,13.82,0,0,1-1.41.49,17.37,17.37,0,0,1-1.74.37,11.12,11.12,0,0,1-2.08,0c-.24,0-.48,0-.72-.07q-.67-.1-1.35-.24a11.29,11.29,0,0,1-1.17-.35,12.65,12.65,0,0,1-1.18-.55c-.4-.21-.78-.44-1.16-.69a7,7,0,0,1-.66-.54c-.23-.23-.45-.46-.67-.7a15,15,0,0,1-1.22-1.73c-.39-.66-.75-1.34-1.09-2a34.65,34.65,0,0,1-1.75-4.46c-.22-.77-.46-1.54-.62-2.32s-.31-1.52-.42-2.29c-.15-1.33-.24-2.66-.28-4s0-2.73,0-4.1a.83.83,0,0,0-1.65,0Zm37.07-.13,0-.11Zm-3.25,3.5a.2.2,0,0,0,0-.08A.2.2,0,0,1,95.51,31.29ZM66.4,45.09l0,.12Z" transform="translate(-31.6 -7)" style="fill:#161616"/><path d="M96.48,33c0,.06,0,.11-.07.17h0A1.42,1.42,0,0,0,96.48,33Z" transform="translate(-31.6 -7)" style="fill:#161616"/><path d="M60.86,40.81c0,.8,0,1.6,0,2.41.08,1.67.33,3.32.53,5s.38,3.37.67,5c.14.8.37,1.59.58,2.38s.44,1.51.68,2.26.56,1.67.86,2.49.54,1.46.85,2.18.77,1.71,1.2,2.54.74,1.44,1.09,2.16.7,1.46,1.08,2.18.86,1.54,1.32,2.31c.83,1.38,1.72,2.74,2.69,4,.56.75,1.14,1.49,1.74,2.21.29.34.58.67.88,1s.6.61.9.92.62.58.94.86.6.53.91.78c.66.53,1.32,1.06,2,1.56l1,.72h0l.09.06.07.06,0,0c.35.25.71.48,1.06.72s.67.41,1,.61c.71.43,1.47.8,2.23,1.17s1.49.73,2.25,1.07,1.8.8,2.72,1.19c.76.33,1.54.65,2.32.95l1.56.58c.35.13.72.25,1.08.37s.74.26,1.12.37l1.64.47c.38.11.77.2,1.15.3s.73.19,1.1.26l1.63.32c.13,0,.27,0,.41.06l.92.12c.41.06.83.11,1.25.14s.92.1,1.38.11l1.6,0c.41,0,.82,0,1.23,0s.8,0,1.2,0,.88,0,1.31-.1l1.55-.17c.53-.06,1.07-.15,1.61-.23s.8-.15,1.21-.22.77-.15,1.15-.25.86-.2,1.27-.32l1.55-.49c.42-.13.84-.29,1.25-.44s.72-.25,1.07-.39c.9-.33,1.79-.68,2.67-1,.49-.19,1-.39,1.43-.59a19.32,19.32,0,0,0,2.41-1.2,17.32,17.32,0,0,0,2.27-1.62l1-.86,2.09-1.92c.59-.55,1.16-1.14,1.7-1.74s1.21-1.37,1.75-2.09l1.63-2.19c.49-.67.94-1.37,1.39-2.07.22-.35.41-.71.61-1.06s.41-.77.58-1.15.34-.74.49-1.12.32-.86.47-1.3a13.77,13.77,0,0,0,.55-2.28c.14-.89.24-1.79.32-2.69,0-.38.07-.77.1-1.15,0-.2,0-.4.05-.59s0-.25,0-.37a1.94,1.94,0,0,0-.06-.72.83.83,0,0,0-1-.53.76.76,0,0,0-.57.93v.05c0,.23,0,.45-.05.67s0,.33,0,.49c0,.34-.06.69-.08,1-.06.66-.13,1.31-.2,2a16.67,16.67,0,0,1-.58,2.61q-.22.67-.48,1.35c-.14.37-.31.73-.47,1.1-.32.63-.64,1.27-1,1.87-.21.34-.41.68-.63,1l-.72,1c-.83,1.2-1.75,2.36-2.67,3.51-.41.46-.81.94-1.26,1.38l-1.6,1.54a39.72,39.72,0,0,1-3.48,3l0,0-.12.08.08-.05A16.91,16.91,0,0,1,125.26,87l-1.44.61-1.22.47c-.74.29-1.47.56-2.22.83-.44.16-.88.33-1.33.47l-1.52.47c-.4.13-.81.21-1.21.32l-1.14.25c-.42.08-.84.17-1.26.23l-1.46.22c-.63.07-1.26.15-1.89.19l-1.27.09c-.37,0-.75,0-1.13,0-.76,0-1.52,0-2.29,0S104.6,91.09,104,91l-.72-.1c-.39,0-.78-.09-1.16-.16l-1.65-.33c-.42-.08-.83-.2-1.24-.31s-.71-.17-1.06-.27l-1.55-.46c-.43-.12-.86-.28-1.29-.43-.76-.25-1.49-.53-2.24-.81-.58-.24-1.18-.46-1.75-.72-1.63-.7-3.26-1.4-4.84-2.17-.39-.19-.79-.38-1.17-.58s-.81-.4-1.19-.62-.79-.45-1.16-.7l-1.13-.77,0,0h0l-1.09-.79h0c-.51-.37-1-.77-1.49-1.16s-1-.84-1.49-1.27-1-.89-1.39-1.37c-.24-.25-.48-.5-.71-.77l-.6-.71a55.16,55.16,0,0,1-3.36-4.75c-.46-.75-.91-1.5-1.34-2.26s-.76-1.42-1.12-2.14C68.5,65.92,67.74,64.47,67,63q-.33-.74-.63-1.47a48.39,48.39,0,0,1-1.63-4.6c-.25-.82-.51-1.64-.72-2.47s-.36-1.56-.5-2.34c-.26-1.86-.45-3.73-.7-5.59a36.28,36.28,0,0,1-.35-4.88c0-.82,0-1.63,0-2.45s.09-1.68.18-2.52c.09-.62.19-1.24.32-1.86s.32-1.5.46-2.26c.27-1.5.42-3,.59-4.54a.69.69,0,0,0-.24-.53.9.9,0,0,0-.58-.23.86.86,0,0,0-.58.23.75.75,0,0,0-.24.53c-.12,1.07-.24,2.13-.38,3.19-.08.54-.16,1.08-.27,1.61s-.27,1.18-.38,1.77-.22,1.23-.31,1.85-.13,1.28-.18,1.93C60.88,39.17,60.87,40,60.86,40.81Zm32,47.3.11,0ZM81.82,82.63l.05,0h0l.07,0ZM75,76.46l.06.07Z" transform="translate(-31.6 -7)" style="fill:#161616"/><path d="M79.74,83l.08.06,0,0Z" transform="translate(-31.6 -7)" style="fill:#161616"/><polygon points="49.12 74.83 49.12 74.83 49.13 74.84 49.12 74.83" style="fill:#161616"/><path d="M128.31,85.37l.08-.05,0,0Z" transform="translate(-31.6 -7)" style="fill:#161616"/><path d="M141.41,61.45a.69.69,0,0,0,.08.59c.34.43.67.88,1,1.28A9.24,9.24,0,0,0,146,65.45c.87.34,1.76.63,2.65.92s1.62.49,2.43.72c.47.13.93.27,1.4.42s.68.24,1,.36a15.83,15.83,0,0,1,3,1.63l0,0,.06,0,.11.08-.09-.06a14.06,14.06,0,0,1,2.31,2.11,10.33,10.33,0,0,1,1.2,2,11.45,11.45,0,0,1,.85,2.78,8.14,8.14,0,0,1,0,1.56,1.89,1.89,0,0,0-.09.21,4.1,4.1,0,0,0-.18.77,4.89,4.89,0,0,0,0,.54,2.68,2.68,0,0,1-.07.27l-1.31,2c-.45.69-.9,1.38-1.36,2.07s-.81,1.14-1.23,1.71-.92,1.3-1.43,1.92a.63.63,0,0,0-.08.58.77.77,0,0,0,.37.46,1,1,0,0,0,.64.08.93.93,0,0,0,.49-.36c.51-.61,1-1.27,1.43-1.91.26-.36.53-.72.78-1.08,0,.12-.07.25-.11.37s-.19.51-.25.77a3.72,3.72,0,0,0-.08.57,2,2,0,0,0,.08.41.85.85,0,0,0,.8.56.84.84,0,0,0,.71-.38,7.8,7.8,0,0,0,.52-1.19l.12-.33.21-.59v.19c0,.43,0,.84.05,1.27s.07.82.12,1.24a.81.81,0,0,0,.24.54.89.89,0,0,0,.36.19.85.85,0,0,0,.93-.35,1.31,1.31,0,0,0,.17-.36,1.8,1.8,0,0,0,.06-.32c0-.15,0-.31,0-.46s0-.29.05-.43,0-.48.07-.71a2.7,2.7,0,0,0,0,.28c.05.34.09.67.15,1s.12.83.23,1.23a3,3,0,0,0,.22.66c.08.2.18.38.27.57a.85.85,0,0,0,1.29.15,1.06,1.06,0,0,0,.35-.6,1.86,1.86,0,0,0,0-.47c0-.86-.08-1.72-.15-2.57,0-.42-.09-.83-.14-1.24s-.09-.75-.15-1.12l-.27-1.53a13.54,13.54,0,0,0-.33-1.4A11.1,11.1,0,0,0,164,79.6a5.48,5.48,0,0,0-.79-1.49,3.17,3.17,0,0,0-.28-.34,1.64,1.64,0,0,0-.26-.2l0,0a8.3,8.3,0,0,0-.12-1.72,10.79,10.79,0,0,0-.71-2.35,10.54,10.54,0,0,0-.94-1.83A10,10,0,0,0,159.51,70a15,15,0,0,0-4.36-3.08,21.31,21.31,0,0,0-3.1-1.14c-.91-.26-1.81-.52-2.72-.8s-1.59-.52-2.39-.8a13.15,13.15,0,0,1-2.49-1.24,6.91,6.91,0,0,1-.88-.83l-.66-.84a.88.88,0,0,0-.49-.35.76.76,0,0,0-.21,0,.85.85,0,0,0-.42.11A.76.76,0,0,0,141.41,61.45Zm19.72,26.36,0-.09Zm-2.26-16.16.07.08Zm-.06-.07,0,0Zm-11.76-7.36.06,0Zm-3.43-2,0,0Z" transform="translate(-31.6 -7)" style="fill:#161616"/><path d="M156.56,69.53l0,0h0Z" transform="translate(-31.6 -7)" style="fill:#161616"/><path d="M128.77,50.55h0Z" transform="translate(-31.6 -7)" style="fill:#161616"/><path d="M84.92,49.36a.75.75,0,0,0-.24.54.77.77,0,0,0,.24.54.92.92,0,0,0,.58.22h.16a8.36,8.36,0,0,1,1.56.42l.13.06.07,0,.16.06.52.21c.64.26,1.28.5,1.9.78s1.33.61,2,1a19.57,19.57,0,0,1,1.75,1.08l1.37,1q1.05.8,2.07,1.62c.31.24.62.5.92.77s.61.52.89.81c.62.61,1.24,1.22,1.82,1.87l1.7,2c.38.48.77,1,1.14,1.43s.79,1.08,1.18,1.63c.21.3.38.62.57.92s.27.45.39.68.3.52.43.79l.43.88c.24.59.49,1.18.7,1.78l.33.9a14.73,14.73,0,0,0,.62,1.55,1.28,1.28,0,0,0,.52.59,1,1,0,0,0,.91,0,1.3,1.3,0,0,0,.53-.84c.09-.31.19-.62.29-.92.23-.63.47-1.24.73-1.86.15-.34.31-.67.48-1s.43-.79.65-1.18c.41-.71.89-1.38,1.31-2.08s.82-1.4,1.23-2.1c.21-.37.42-.73.64-1.09s.44-.75.68-1.1.33-.46.48-.69.19-.29.3-.42c.25-.33.5-.65.76-1,.48-.56,1-1.1,1.47-1.65s1-1.07,1.53-1.6l.7-.7c.25-.24.49-.48.75-.69s.6-.53.92-.77l.85-.63c.3-.22.6-.44.92-.64s.68-.45,1-.65.76-.41,1.16-.59,1.06-.49,1.61-.71l-.1,0,.12,0,.08,0-.08,0a12.85,12.85,0,0,1,1.7-.53c.55-.13,1.11-.24,1.67-.34a.75.75,0,0,0,.57-.93.82.82,0,0,0-.38-.46.81.81,0,0,0-.39-.1l-.24,0a17.39,17.39,0,0,0-2.38.52,20.75,20.75,0,0,0-2.45,1c-.42.19-.82.37-1.22.58-.2.11-.41.2-.6.32l-.61.39c-.37.23-.74.49-1.1.74s-.8.58-1.19.87-.69.55-1,.83-.63.58-.94.87-.58.59-.87.89q-.9.93-1.77,1.89c-.64.68-1.22,1.4-1.79,2.12a22,22,0,0,0-1.39,2.07c-.44.71-.86,1.44-1.28,2.17s-.88,1.48-1.35,2.21a23.82,23.82,0,0,0-1.23,2.06,24.42,24.42,0,0,0-1.12,2.44c-.08.18-.15.37-.22.55-.09-.26-.18-.52-.28-.78-.27-.7-.53-1.41-.86-2.09a24.34,24.34,0,0,0-1.16-2.2c-.45-.73-.91-1.46-1.43-2.15s-1.14-1.48-1.75-2.19-1.15-1.34-1.73-2-1.2-1.26-1.82-1.87l-.4-.37c-.16-.15-.32-.3-.49-.44l-.92-.77c-1.44-1.15-2.89-2.29-4.42-3.33a16.53,16.53,0,0,0-2.31-1.24c-.76-.37-1.55-.68-2.34-1l-1-.4h0a.68.68,0,0,0-.2-.07h0a7.15,7.15,0,0,0-2.5-.62A.78.78,0,0,0,84.92,49.36Zm2.34,1.74,0,0h0Z" transform="translate(-31.6 -7)" style="fill:#161616"/><path d="M128.79,50.14a1.17,1.17,0,0,1,.44-.1l.2,0a.83.83,0,0,1,.49.35c.07.13.13.25.19.39a2.64,2.64,0,0,1,.15.5c0,.21.08.43.1.65l.12.93c.07.51.12,1,.18,1.52.11,1,.23,1.89.36,2.83l0-.2c.1.69.21,1.38.31,2.07a.8.8,0,0,1-.08.59.83.83,0,0,1-.49.35.88.88,0,0,1-.64-.08.72.72,0,0,1-.37-.45c-.19-1.26-.39-2.52-.54-3.78-.13-1-.24-2-.36-3a.79.79,0,0,1-.65-.74,4,4,0,0,1,0-.69C128.25,50.85,128.3,50.34,128.79,50.14Z" transform="translate(-31.6 -7)" style="fill:#161616"/><path d="M124,51.85a.85.85,0,0,1,1,.53c.42,1.44.8,2.89,1.13,4.35.15.66.3,1.31.42,2,.07.38.14.77.2,1.15a9.16,9.16,0,0,1,.15,1.47,7.59,7.59,0,0,1-.2,1.42.85.85,0,0,1-1,.53.87.87,0,0,1-.5-.35.81.81,0,0,1-.08-.59c0-.22.09-.44.13-.66a5.16,5.16,0,0,0,0-1.18c0-.34-.11-.69-.17-1s-.09-.54-.15-.81c-.15-.69-.31-1.39-.46-2.08-.11-.47-.24-.94-.36-1.41-.21-.8-.42-1.59-.65-2.37A.77.77,0,0,1,124,51.85Z" transform="translate(-31.6 -7)" style="fill:#161616"/><path d="M119.45,55.56a.78.78,0,0,1,.49-.35.76.76,0,0,1,.21,0,.88.88,0,0,1,.59.23,4.38,4.38,0,0,1,.55.66.73.73,0,0,1-.3,1,.59.59,0,0,1-.24.09,5.87,5.87,0,0,0,.08.72,25.3,25.3,0,0,0,.57,2.55l.39,1.53c.16.58.32,1.15.46,1.74a11.63,11.63,0,0,1,.36,1.94.8.8,0,0,1-.82.76.9.9,0,0,1-.59-.22.81.81,0,0,1-.24-.54c0-.07,0-.15,0-.22-.21-1.2-.56-2.39-.88-3.58-.17-.63-.33-1.28-.49-1.92s-.26-1.11-.35-1.67a12.51,12.51,0,0,1-.13-1.36,3.84,3.84,0,0,1,.07-.76A2.4,2.4,0,0,1,119.45,55.56Z" transform="translate(-31.6 -7)" style="fill:#161616"/><path d="M116,60.68a.82.82,0,0,1,.58.23.73.73,0,0,1,.24.53c0,.37.09.73.14,1.1.13.83.28,1.67.42,2.51,0,.28.08.57.14.85s.17.77.25,1.15l.51,2.32c.08.37.13.73.19,1.09a12.12,12.12,0,0,1,.11,1.47.82.82,0,0,1-1.64,0c0-.35,0-.69,0-1s-.07-.5-.12-.74l-.27-1.29c-.16-.75-.33-1.5-.5-2.25s-.23-1.3-.34-2c-.07-.47-.15-.94-.23-1.41s-.17-1.2-.25-1.81a.68.68,0,0,1,.24-.53A.83.83,0,0,1,116,60.68Z" transform="translate(-31.6 -7)" style="fill:#161616"/><path d="M111.38,66.14a.75.75,0,0,1,.21,0,.85.85,0,0,1,.8.55c.6,1.66,1.21,3.31,1.77,5l.75,2.24c.25.76.52,1.53.72,2.31a.76.76,0,0,1-.58.93.84.84,0,0,1-1-.53c-.19-.76-.45-1.5-.69-2.23l-.75-2.25c-.57-1.69-1.18-3.37-1.8-5A.77.77,0,0,1,111.38,66.14Z" transform="translate(-31.6 -7)" style="fill:#161616"/><path d="M108.86,71.84a.82.82,0,0,1,1.64,0c-.1,1.35-.2,2.71-.28,4.06s-.1,2.44-.25,3.64a.81.81,0,0,1-.24.54.87.87,0,0,1-.58.22.9.9,0,0,1-.59-.22.75.75,0,0,1-.24-.54c.16-1.21.19-2.42.26-3.64S108.76,73.19,108.86,71.84Z" transform="translate(-31.6 -7)" style="fill:#161616"/><path d="M103.62,72.48c.12-.48.25-1,.36-1.46s.24-1.11.35-1.66c.06-.24.08-.49.12-.73s.07-.48.11-.72c.09-.86.19-1.72.27-2.58a.79.79,0,0,1,.24-.54.85.85,0,0,1,.58-.22.79.79,0,0,1,.82.76c0,.51-.09,1-.15,1.52s-.08.88-.15,1.32c-.11.67-.2,1.34-.34,2-.32,1.51-.69,3-1.08,4.5a.84.84,0,0,1-1,.53.76.76,0,0,1-.57-.93C103.32,73.67,103.47,73.08,103.62,72.48Z" transform="translate(-31.6 -7)" style="fill:#161616"/><path d="M100.26,64.16c.36-1.12.73-2.23,1.18-3.32a.82.82,0,0,1,.37-.45.92.92,0,0,1,.43-.11.76.76,0,0,1,.21,0,.77.77,0,0,1,.57.94,1.13,1.13,0,0,1,0,.15.76.76,0,0,1-.09.18c-.39,1-.72,2-1,3s-.58,2-.81,2.94a.85.85,0,0,1-1,.54.77.77,0,0,1-.58-.94C99.7,66.09,100,65.12,100.26,64.16Z" transform="translate(-31.6 -7)" style="fill:#161616"/><path d="M95.38,59.25c.44-1.44.83-2.9,1.22-4.37a.83.83,0,0,1,.8-.56.8.8,0,0,1,.78,1c-.38,1.44-.76,2.88-1.2,4.3s-.82,2.63-1.24,3.94a.83.83,0,0,1-1,.53.75.75,0,0,1-.57-.93C94.56,61.84,95,60.55,95.38,59.25Z" transform="translate(-31.6 -7)" style="fill:#161616"/><path d="M89.28,57.44c.19-.71.38-1.43.61-2.13.31-1,.63-2,1-3a.83.83,0,0,1,1-.53.77.77,0,0,1,.57.94c-.33,1-.65,2-1,3-.22.71-.41,1.42-.61,2.13-.39,1.44-.69,2.91-1,4.36a.85.85,0,0,1-1,.53.78.78,0,0,1-.58-.94C88.59,60.34,88.88,58.88,89.28,57.44Z" transform="translate(-31.6 -7)" style="fill:#161616"/><path d="M83.6,53.81c.21-.63.45-1.25.63-1.89.26-.94.52-1.87.75-2.81a.81.81,0,0,1,.8-.56l.21,0a.78.78,0,0,1,.57.94c-.22.92-.48,1.83-.73,2.75-.18.64-.41,1.26-.63,1.89a35.75,35.75,0,0,0-1,4,.84.84,0,0,1-1,.54.93.93,0,0,1-.49-.35.72.72,0,0,1-.08-.59A34.31,34.31,0,0,1,83.6,53.81Z" transform="translate(-31.6 -7)" style="fill:#161616"/><path d="M31.64,29.34a8,8,0,0,0,0,1.1c0,.21,0,.43,0,.64a3.56,3.56,0,0,0,.13.65,3.48,3.48,0,0,0,.29.69,3.68,3.68,0,0,0,1.13,1.29,3.51,3.51,0,0,0,1.46.58,3.6,3.6,0,0,0,1.18,0,4.36,4.36,0,0,0,.8-.16A4.84,4.84,0,0,0,38,33.48a8,8,0,0,0,1.11-.89l.87-.91c.29-.3.59-.61.86-.93a9.38,9.38,0,0,0,1.49-2.29,10.37,10.37,0,0,0,.72-2.23.76.76,0,0,0-.08-.59.88.88,0,0,0-.49-.35.84.84,0,0,0-1,.54,11.16,11.16,0,0,1-.67,2.1c-.16.3-.31.6-.49.87s-.4.57-.61.84c-.36.43-.75.83-1.14,1.23-.2.22-.4.43-.61.64a8,8,0,0,1-.62.54,5.85,5.85,0,0,1-.91.53,5.38,5.38,0,0,1-.9.22,4.64,4.64,0,0,1-.53,0l-.44-.11-.4-.22c-.12-.1-.23-.21-.34-.32a4,4,0,0,1-.36-.58,4.91,4.91,0,0,1-.15-.51,10.09,10.09,0,0,1,.05-2.33,6.4,6.4,0,0,1,.27-1.13c.14-.39.29-.77.44-1.16s.31-.87.45-1.31.28-.86.46-1.28a2.87,2.87,0,0,1,.28-.48l.11-.11.08,0a2.57,2.57,0,0,1,.4-.08c.34,0,.69,0,1,0s.51,0,.76,0c.75,0,1.48-.08,2.22-.17a17.79,17.79,0,0,0,1.93-.38c.66-.17,1.34-.33,2-.55a18.47,18.47,0,0,0,4.58-2.55c.69-.47,1.36-1,2.08-1.39.39-.24.79-.45,1.2-.66s.65-.32,1-.46a23.82,23.82,0,0,1,4.5-1.09,11.89,11.89,0,0,1,1.46-.07,12.59,12.59,0,0,1,1.36.09c.43.06.87.12,1.29.22s.91.24,1.35.39a4.08,4.08,0,0,1,.42.19,9.23,9.23,0,0,1,1,.56,5.23,5.23,0,0,1,.69.64,5.76,5.76,0,0,1,.6.94c.12.26.22.52.33.8a5.89,5.89,0,0,1,.27,1.1,7.55,7.55,0,0,1,0,1.84,6.36,6.36,0,0,1-.37,1.36,10.8,10.8,0,0,1-1.15,1.7,5.28,5.28,0,0,1-.63.62,3.23,3.23,0,0,1-.49.25c-.32.12-.65.22-1,.32a.77.77,0,0,0-.57.93.83.83,0,0,0,1,.54,6.14,6.14,0,0,0,2.28-1,8.13,8.13,0,0,0,1.19-1.37A8.3,8.3,0,0,0,67,24.42a6.71,6.71,0,0,0,.45-1.69,8.51,8.51,0,0,0,.09-1.51,7.15,7.15,0,0,0-.38-2,10,10,0,0,0-.65-1.46,5.53,5.53,0,0,0-1-1.29,7,7,0,0,0-1.31-.92A9.67,9.67,0,0,0,63,15.05a11.88,11.88,0,0,0-1.29-.38c-.45-.1-.89-.17-1.35-.24s-1-.11-1.48-.14l-.64,0c-.22,0-.43,0-.64,0a22.31,22.31,0,0,0-2.7.43,23.18,23.18,0,0,0-2.63.72A19.06,19.06,0,0,0,47.73,18a22,22,0,0,1-4.19,2.47c-.72.24-1.45.43-2.18.62a15.92,15.92,0,0,1-2.06.39,22,22,0,0,1-2.44.11,8.58,8.58,0,0,0-1.34.05l-.33.05a2.2,2.2,0,0,0-.66.25,2.28,2.28,0,0,0-.63.57,3.41,3.41,0,0,0-.36.57c-.39.84-.62,1.73-.94,2.59a18.86,18.86,0,0,0-.78,2.3A12.16,12.16,0,0,0,31.64,29.34ZM65.5,23.83l0,.07Zm-.31-5.13a1,1,0,0,0,0,.1A1,1,0,0,1,65.19,18.7ZM36.49,32.55l.09,0Z" transform="translate(-31.6 -7)" style="fill:#161616"/><path d="M37.77,33.25l.24.24.11,0a5.32,5.32,0,0,0,.79.18,5.41,5.41,0,0,0,.9,0,4.49,4.49,0,0,0,.8-.21A8,8,0,0,0,42,32.69c.31-.23.62-.46.91-.71a11,11,0,0,0,.93-.87c.27-.29.53-.58.81-.85l.93-.92c.28-.28.53-.6.83-.86a6.31,6.31,0,0,1,1.15-.82,9.1,9.1,0,0,1,2.51-.92,12.6,12.6,0,0,1,2.67-.27h.14c.84,0,1.67.11,2.51.15,1.79.09,3.6.17,5.4.11.52,0,1-.07,1.57-.13h.12a1,1,0,0,1,.64.07.82.82,0,0,1,.38.46.73.73,0,0,1-.08.58.8.8,0,0,1-.5.36,25.2,25.2,0,0,1-2.89.22c-.91,0-1.83,0-2.74-.05s-1.77-.08-2.64-.13A23.58,23.58,0,0,0,52.12,28c-.32,0-.63,0-.95.07a12,12,0,0,0-1.86.45l-.6.26a7.58,7.58,0,0,0-.68.4,6.38,6.38,0,0,0-.83.73c-.27.29-.55.58-.84.86l-.88.88c-.3.32-.6.64-.91.95a15.62,15.62,0,0,1-2,1.59,5.67,5.67,0,0,1-1.18.66,5.17,5.17,0,0,1-1.56.38,4.66,4.66,0,0,1-1.29-.05l-.56-.1a5.05,5.05,0,0,1-.55-.18,2.28,2.28,0,0,1-.79-.58.77.77,0,0,1-.24-.54.75.75,0,0,1,.24-.54A.86.86,0,0,1,37.77,33.25Z" transform="translate(-31.6 -7)" style="fill:#161616"/><path d="M56.33,18.82a1.14,1.14,0,0,1,.52-.13.75.75,0,0,1,.26,0,.76.76,0,0,1,.36.08.77.77,0,0,1,.36.18.8.8,0,0,1,.23.42.42.42,0,0,1,.06.14.91.91,0,0,1-.07.74,1,1,0,0,1-.78.41h-.11a1.22,1.22,0,0,1-.46.09.94.94,0,0,1-.94-1,1.17,1.17,0,0,1,.35-.74A1,1,0,0,1,56.33,18.82Z" transform="translate(-31.6 -7)" style="fill:#fff"/><path d="M59.3,14a.75.75,0,0,1,0-.16v0c.18-.78.37-1.56.56-2.35.12-.48.25-1,.39-1.44A7.87,7.87,0,0,1,61,8.33a4.41,4.41,0,0,1,.49-.67,3.73,3.73,0,0,1,.6-.52l.07,0A.88.88,0,0,1,62.54,7h.08a.89.89,0,0,1,.31.06l.19.08a2.27,2.27,0,0,1,.25.18,1.23,1.23,0,0,1,.31.51,3,3,0,0,1-.09,1.69A12,12,0,0,1,63,11.15c-.1.21-.21.42-.32.63s-.17.36-.27.53-.26.43-.4.64l-.06.15a13.34,13.34,0,0,1-.61,1.19.71.71,0,0,1-.47.34v.09a.84.84,0,0,1-1,.53.77.77,0,0,1-.58-.94C59.25,14.19,59.28,14.07,59.3,14Z" transform="translate(-31.6 -7)" style="fill:#161616"/><path d="M64.62,18.16a1.07,1.07,0,0,0,.14.16.71.71,0,0,0-.13.65.85.85,0,0,0,.91.55,6.5,6.5,0,0,0,1,.06,7.39,7.39,0,0,0,2-.34A8,8,0,0,0,70,18.67a4.87,4.87,0,0,0,1.24-.85,1.7,1.7,0,0,0,.61-1.49,1.33,1.33,0,0,0-1-1,4.32,4.32,0,0,0-.73-.06,6.78,6.78,0,0,0-1.2.12,10,10,0,0,0-2,.66,10.36,10.36,0,0,0-2,1,.83.83,0,0,0-.38.45A.72.72,0,0,0,64.62,18.16Zm5.64-1.71v0Zm-.05.11v0h0Zm-3.85,1.5c.22-.13.44-.24.67-.36s.75-.33,1.13-.48a7,7,0,0,1,1.34-.35l.47,0-.2.16a6.79,6.79,0,0,1-1.13.6,8.66,8.66,0,0,1-1.59.42C66.82,18,66.59,18.06,66.36,18.06Z" transform="translate(-31.6 -7)" style="fill:#161616"/><path d="M125,103.53a1.16,1.16,0,0,0,.14.48,1.27,1.27,0,0,0,.23.34,2.11,2.11,0,0,0,.53.4,1.87,1.87,0,0,0,.78.19,2.28,2.28,0,0,0,.74-.09,3.11,3.11,0,0,0,.69-.32,1.91,1.91,0,0,0,.55-.51,1,1,0,0,0,.25-1.2.92.92,0,0,0-.19-.25l.29-.36c.34-.42.64-.86.94-1.3.56-.84,1.07-1.71,1.55-2.59.22-.41.43-.82.63-1.24a7.81,7.81,0,0,0,.47-1.12c.28-.84.53-1.69.79-2.54s.49-1.5.71-2.25.46-1.66.67-2.49c.41-1.6.94-3.17,1.4-4.76.23-.81.43-1.63.65-2.44.11-.39.21-.77.3-1.16a13,13,0,0,0,.25-1.52.68.68,0,0,0-.24-.54.83.83,0,0,0-.58-.23.82.82,0,0,0-.58.23.73.73,0,0,0-.24.54q0,.11,0,.24c0,.27-.09.54-.15.8s-.18.75-.28,1.13l-.51,1.9c-.37,1.38-.82,2.74-1.22,4.11-.22.77-.41,1.54-.61,2.31s-.46,1.65-.72,2.46-.47,1.47-.68,2.2c-.14.44-.27.88-.42,1.31a10.45,10.45,0,0,1-.4,1.06c-.45.93-.95,1.85-1.49,2.74a24.36,24.36,0,0,1-1.75,2.54l-.26.28a1.54,1.54,0,0,0-.53.05,3,3,0,0,0-.37.17l0,0a1.45,1.45,0,0,0-.67.23A1.2,1.2,0,0,0,125,103.53ZM135.73,79l0-.12Zm-8.34,22.75.08-.1Z" transform="translate(-31.6 -7)" style="fill:#161616"/><path d="M117.62,122.22a10.42,10.42,0,0,0-.34,2.54c0,.39,0,.77,0,1.16,0,.2,0,.4,0,.6s0,.29.07.44a.79.79,0,0,0,0,.22.89.89,0,0,0,.23.37.86.86,0,0,0,.8.2h0a.85.85,0,0,0,.49-.35.73.73,0,0,0,.09-.59.76.76,0,0,0-.09-.18v0a12.05,12.05,0,0,1,0-3.06,18.23,18.23,0,0,1,1.42-4.34c.36-.75.73-1.5,1.1-2.24s.77-1.5,1.11-2.27.69-1.59,1-2.39c.13-.36.25-.73.39-1.08s.27-.66.42-1a36.38,36.38,0,0,0,2.22-5.86.76.76,0,0,0-.58-.93.64.64,0,0,0-.2,0,.84.84,0,0,0-.81.56,35,35,0,0,1-1.68,4.69c-.21.47-.43.93-.64,1.4s-.37.88-.53,1.33c-.35,1-.75,1.9-1.16,2.84-.54,1.15-1.12,2.28-1.68,3.42A22.4,22.4,0,0,0,117.62,122.22Zm5.82-13.63,0-.1Zm-2.36,5.62a.31.31,0,0,0,0-.1A.31.31,0,0,1,121.08,114.21Zm0,.09,0-.07Z" transform="translate(-31.6 -7)" style="fill:#161616"/><path d="M119.09,126.43a5.44,5.44,0,0,0-.23-.68c-.12-.24-.25-.47-.37-.7s-.22-.37-.32-.56a.73.73,0,0,1,.22-1,8.62,8.62,0,0,1-.52-.94.74.74,0,0,1-.09-.58.78.78,0,0,1,.38-.46.86.86,0,0,1,.41-.1.78.78,0,0,1,.22,0,.73.73,0,0,1,.49.34,9.6,9.6,0,0,0,.65,1.12l.27.34c.38.44.77.87,1.11,1.34a5.83,5.83,0,0,1,.76,1.49c0,.12.07.24.1.36a1,1,0,0,1,0,.55,1.19,1.19,0,0,1-.53.6,3.21,3.21,0,0,1-.54.22l-.35.11-.43.11c-.34.07-.69.13-1,.17a1.6,1.6,0,0,1-1.35-.25.73.73,0,0,1-.12-.92C118,126.6,118.58,126.49,119.09,126.43Z" transform="translate(-31.6 -7)" style="fill:#161616"/><path d="M135.93,77.93c0,1.71,0,3.41,0,5.12,0,.84,0,1.68,0,2.53a20.07,20.07,0,0,0,.23,2.31c.12.9.28,1.8.46,2.69s.32,1.61.47,2.41.26,1.57.38,2.36c.07.42.13.84.2,1.26s.18.79.28,1.18a17.42,17.42,0,0,0,.75,2.21l.18.45-.22.08a1.33,1.33,0,0,0-.6.57,1.22,1.22,0,0,0,0,1.1,2.17,2.17,0,0,0,.46.63,2,2,0,0,0,.77.49h0l.05,0c.31.57.64,1.12,1,1.68s.88,1.41,1.33,2.11c.9,1.39,1.82,2.77,2.7,4.17s1.93,2.93,3,4.35c.48.68,1,1.31,1.54,2s1,1.28,1.43,1.92,1,1.32,1.43,2,1,1.46,1.61,2.15a12.37,12.37,0,0,0,1.73,1.74,5.93,5.93,0,0,0,.75.57,2.78,2.78,0,0,0,1.63.39,5.07,5.07,0,0,0,1.79-.57c.26-.12.5-.26.75-.4a10.33,10.33,0,0,0,1-.63c.21-.16.42-.3.62-.47l.22-.2a.84.84,0,0,0,.22-.88.81.81,0,0,0-.21-.34.76.76,0,0,0-.22-.17.79.79,0,0,0-.26-.13c-.22-.09-.45-.18-.68-.25l-.66-.18c-.41-.11-.83-.2-1.25-.29-.87-.19-1.75-.36-2.62-.53L155,121.1l-.59-.12-.4-.07a1.09,1.09,0,0,0-.6,0l-.51-.72L151.18,118c-.47-.65-1-1.28-1.48-1.91s-1-1.34-1.52-2-1-1.38-1.44-2.08-.9-1.43-1.37-2.13c-.91-1.4-1.84-2.8-2.72-4.21-.44-.71-.9-1.41-1.32-2.13l-.05-.08,0,0a.73.73,0,0,0,.14-.31.62.62,0,0,0,.09-.12,1,1,0,0,0,.13-.25l0-.2a1.15,1.15,0,0,0,0-.41,1.1,1.1,0,0,0-.21-.4c-.09-.12-.18-.23-.28-.34a2.34,2.34,0,0,0-.31-.32c-.09-.28-.18-.55-.28-.83-.29-.74-.6-1.47-.83-2.23a17.36,17.36,0,0,1-.52-2.33c-.13-.8-.24-1.6-.38-2.39-.27-1.63-.63-3.24-.92-4.87,0-.13,0-.26,0-.38a23.09,23.09,0,0,1-.24-2.35c0-.85,0-1.7,0-2.55,0-1.71,0-3.42,0-5.13a.82.82,0,0,0-1.64,0Zm23.9,45.77h.06l0,0S159.84,123.71,159.83,123.7Z" transform="translate(-31.6 -7)" style="fill:#161616"/><path d="M88.43,87.46a.76.76,0,0,0,.08.59c.5,1,1,2,1.47,2.93l.54,1.23a20.87,20.87,0,0,1,.77,2.18c.26.84.49,1.68.7,2.53.39,1.55.74,3.11,1,4.68q.12,1,.21,1.92c0,.34,0,.68.08,1,0,.15,0,.3,0,.45l0,.21-.11.09a1.28,1.28,0,0,0,.24,2,2.67,2.67,0,0,0,1,.43c0,.06,0,.12.05.19s.11.44.16.66c.1.4.22.8.32,1.2s.21.74.34,1.1c.27.79.56,1.57.86,2.35s.61,1.6.9,2.41.52,1.63.75,2.45.44,1.56.67,2.34.52,1.63.82,2.44c.56,1.53,1,3.09,1.57,4.62l.36,1a10.9,10.9,0,0,0,.39,1.09h0c0,.27.07.53.11.79s.07.38.11.57a1.84,1.84,0,0,0,1.18,1.19,6.24,6.24,0,0,0,.86.3,2.33,2.33,0,0,0,.83.08,4.33,4.33,0,0,0,.85-.19.91.91,0,0,0,.36-.2,1.19,1.19,0,0,0,.71-.49,1.21,1.21,0,0,0,0-1,4.33,4.33,0,0,0-.4-.73,9,9,0,0,0-1-1.12l-1-.9-.49-.39a5.37,5.37,0,0,0-.78-.57.78.78,0,0,0-.56-.09c-.15-.42-.29-.85-.43-1.27-.25-.77-.5-1.53-.77-2.29s-.6-1.68-.89-2.52-.47-1.57-.69-2.36a47.7,47.7,0,0,0-1.48-4.62c-.3-.77-.61-1.54-.88-2.31s-.55-1.61-.77-2.42c-.12-.44-.24-.87-.34-1.31l-.06-.22a2.22,2.22,0,0,0,.64-.49,1.37,1.37,0,0,0,.37-.89,1.28,1.28,0,0,0-.36-.81,2.81,2.81,0,0,0-.72-.61,2,2,0,0,0-.87-.27,1.13,1.13,0,0,0-.26,0c-.09-1-.16-2.06-.31-3.07-.2-1.3-.47-2.58-.78-3.86-.2-.86-.42-1.72-.65-2.57s-.49-1.61-.78-2.4c-.12-.34-.27-.67-.41-1s-.35-.84-.55-1.25c-.49-1-1-2-1.48-3a.78.78,0,0,0-.71-.37.87.87,0,0,0-.42.1A.75.75,0,0,0,88.43,87.46Zm1.49,3.38,0,.08Z" transform="translate(-31.6 -7)" style="fill:#161616"/><path d="M78.65,90.69l0,0h0Z" transform="translate(-31.6 -7)" style="fill:#161616"/><path d="M69.12,99.63a3.72,3.72,0,0,1,.78-1.19c.55-.59,1.17-1.14,1.77-1.68s1.34-1.2,2-1.77,1.34-1,2-1.53c.37-.29.73-.57,1.08-.88a17.37,17.37,0,0,0,1.85-1.89l-.09.1.1-.12,0,0,0,0c.75-.92,1.45-1.89,2.13-2.85l.55-.77c.09-.13.2-.26.28-.4.29-.49.6-1,.85-1.46a.77.77,0,0,1,.7-.38.85.85,0,0,1,.42.11.74.74,0,0,1,.38.45.81.81,0,0,1-.08.59c-.24.47-.53.93-.81,1.39s-.47.69-.71,1c-.55.78-1.11,1.55-1.69,2.3a20.5,20.5,0,0,1-2.4,2.7c-.5.47-1,.89-1.58,1.31s-1.34,1-2,1.54-1.38,1.17-2,1.77c-.45.4-.9.81-1.32,1.23a2.09,2.09,0,0,1,.5.08,2,2,0,0,1,1.36,1.15,1.45,1.45,0,0,1,.08.85,1.64,1.64,0,0,1-.48.82l-.13.1,0,.08a1.09,1.09,0,0,1,0,.36,1,1,0,0,1-.18.52c.09.32.21.64.33,1l.49,1.26c.29.73.59,1.46.89,2.18.67,1.59,1.41,3.16,2,4.77.28.71.51,1.45.74,2.18s.53,1.67.81,2.5.58,1.77.86,2.66a.72.72,0,0,1,.53.36l.87,1.62c.1.2.22.39.33.58a8,8,0,0,0,.41.7c.28.32.56.63.83.95l.07.07c.16.13.33.27.49.42.32.27.63.56.94.84s.62.62.92.93c.13.15.27.3.39.46a1.51,1.51,0,0,1,.32.58.94.94,0,0,1,0,.47,1,1,0,0,1-.27.41,4.37,4.37,0,0,1-.44.31,7.32,7.32,0,0,1-1.24.65,5.26,5.26,0,0,1-1.72.39,2.93,2.93,0,0,1-.78,0,1.61,1.61,0,0,1-.82-.39,1.23,1.23,0,0,1-.36-.67A2.61,2.61,0,0,1,79,128c0-.19-.06-.38-.09-.58-.06-.39-.12-.78-.2-1.17-.14-.79-.33-1.58-.53-2.36s-.45-1.53-.68-2.29c-.48-1.58-1-3.16-1.52-4.73-.24-.75-.47-1.5-.72-2.25s-.56-1.66-.88-2.48-.62-1.47-1-2.2-.67-1.53-1-2.3-.68-1.67-1-2.5c-.15-.38-.29-.76-.43-1.15a7.71,7.71,0,0,1-.24-.82,2.4,2.4,0,0,1-1.16-.48,1.77,1.77,0,0,1-.47-.55,2.36,2.36,0,0,1-.26-.93,3.66,3.66,0,0,1,.08-1A3.9,3.9,0,0,1,69.12,99.63Z" transform="translate(-31.6 -7)" style="fill:#161616"/><path d="M70.4,99.41a.72.72,0,0,0,.12.92.9.9,0,0,0,.59.22.86.86,0,0,0,.41-.1,3,3,0,0,0,.45-.27l.41-.28c.34-.23.66-.47,1-.73.55-.45,1.09-.92,1.63-1.38s1.12-1,1.69-1.5,1.17-.92,1.77-1.36a27.23,27.23,0,0,0,3.74-3.45c.6-.65,1.16-1.34,1.7-2,.23-.3.46-.6.68-.91a5.68,5.68,0,0,0,.67-1.14,4.15,4.15,0,0,0,.33-1.62.79.79,0,0,0-.82-.76.84.84,0,0,0-.47.14,1,1,0,0,0-.89,0,1.13,1.13,0,0,0-.37.35l-.2.27c-.19.27-.4.54-.59.82-.43.63-.8,1.3-1.26,1.92-.26.3-.53.59-.82.87s-.64.65-.93,1c-.52.64-1,1.31-1.53,1.95-.29.32-.58.62-.88.93s-.62.59-.94.88l-1.71,1.6-1.9,1.83c-.29.3-.6.58-.9.87L71,98.8A3.28,3.28,0,0,0,70.4,99.41ZM81,88.43l0-.06Z" transform="translate(-31.6 -7)" style="fill:#161616"/><path d="M90.12,88.18a1,1,0,0,1,.41-.1.78.78,0,0,1,.22,0,.8.8,0,0,1,.49.35,10.88,10.88,0,0,1,1.37,2.38,17.33,17.33,0,0,1,.63,2.35c.17.77.37,1.54.52,2.31s.27,1.66.35,2.5.15,1.4.25,2.1.27,1.69.4,2.53a13.59,13.59,0,0,1,.18,1.41c0,.4,0,.81.06,1.22a.82.82,0,0,1-1.64,0c0-.62,0-1.24-.13-1.86-.16-1.09-.36-2.18-.51-3.28s-.25-2.24-.39-3.36-.38-1.92-.61-2.87c-.11-.48-.21-1-.33-1.43A12.74,12.74,0,0,0,91,91.13a11.92,11.92,0,0,0-1.16-1.9A.74.74,0,0,1,90.12,88.18Z" transform="translate(-31.6 -7)" style="fill:#161616"/><path d="M126.45,101.07c.26-.56.53-1.12.81-1.67s.62-1.2.93-1.8.56-1.14.83-1.72.6-1.46.89-2.2.64-1.56.92-2.35c.53-1.53.85-3.12,1.35-4.65.27-.85.58-1.7.84-2.55.13-.4.26-.81.36-1.22s.2-.94.27-1.41v-.06a.81.81,0,0,1,.24-.54.87.87,0,0,1,1.16,0,.68.68,0,0,1,.24.54,12.2,12.2,0,0,1-.25,1.47c-.09.4-.19.79-.31,1.18-.24.79-.5,1.58-.77,2.37-.21.62-.4,1.25-.58,1.88.38-.82.79-1.63,1.19-2.44l.26-.5a.86.86,0,0,1,1.12-.27.79.79,0,0,1,.38.46.74.74,0,0,1-.09.58q-.7,1.39-1.38,2.79c-.33.73-.64,1.47-.91,2.23s-.54,1.61-.79,2.42a15.27,15.27,0,0,1-.92,2.35,26.54,26.54,0,0,1-1.33,2.31l-.81,1.29c-.27.44-.5.88-.76,1.32a13.14,13.14,0,0,1-.92,1.33c-.19.24-.39.47-.6.71a2,2,0,0,1-1,.8,1,1,0,0,1-.63-.08.79.79,0,0,1-.38-.45A1.87,1.87,0,0,1,126,102C126.16,101.71,126.31,101.39,126.45,101.07Z" transform="translate(-31.6 -7)" style="fill:#161616"/><path d="M134.35,85.58a.77.77,0,0,0,.57.94.85.85,0,0,0,1-.53,2.41,2.41,0,0,1,.16-.45c.27-.6.55-1.19.8-1.8.11-.26.21-.53.3-.79,0,.35.05.7.08,1,.16,1.57.28,3.15.41,4.72a22.16,22.16,0,0,0,.38,2.68c.16.79.31,1.57.44,2.36.18,1.34.33,2.68.54,4a16.52,16.52,0,0,0,.42,1.82c.21.71.4,1.43.58,2.15a.84.84,0,0,0,1,.53.77.77,0,0,0,.57-.94c-.19-.79-.43-1.57-.63-2.36-.1-.4-.2-.79-.28-1.18s-.11-.62-.16-.93c-.15-1.16-.28-2.33-.47-3.48-.09-.58-.18-1.16-.3-1.74s-.22-1.07-.32-1.61-.11-1-.15-1.49-.07-1-.12-1.48c-.08-.83-.15-1.65-.22-2.48a23.34,23.34,0,0,1-.14-2.36c0-.76.1-1.52.11-2.27,0-.38,0-.76,0-1.14,0-.18,0-.37,0-.56s0-.35,0-.52a.8.8,0,0,0-.82-.76.81.81,0,0,0-.79.56c-.2.55-.42,1.1-.62,1.65s-.39,1.19-.56,1.8A25.14,25.14,0,0,1,135,84.2,8,8,0,0,0,134.35,85.58Zm1.67.14,0-.09Zm-1.13-1.38a.5.5,0,0,1,.05-.13A.5.5,0,0,0,134.89,84.34Z" transform="translate(-31.6 -7)" style="fill:#161616"/><path d="M104.23,59.93l.85-.89c.59-.62,1.13-1.27,1.71-1.9S108,56,108.64,55.4s1.18-1.08,1.74-1.64,1.25-1.26,1.89-1.87c.29-.27.61-.53.93-.78l1.09-.89c.61-.5,1.21-1,1.84-1.51s1.53-1.12,2.34-1.62c.54-.33,1.09-.63,1.63-.94.31-.18.63-.35.93-.55l1-.65,1.56-1.05c.3-.2.6-.38.91-.57s.8-.5,1.21-.74a.79.79,0,0,1,.4-.1.85.85,0,0,1,.72.37.74.74,0,0,1-.29,1c-.78.45-1.55.92-2.29,1.42s-1.52,1-2.29,1.52-1.38.81-2.07,1.2-1.25.77-1.85,1.18-1.28,1-1.9,1.48l-2,1.67a25.75,25.75,0,0,0-1.94,1.82c-.59.6-1.2,1.18-1.81,1.76s-1,.89-1.49,1.35-1,1-1.52,1.56-.92,1.06-1.42,1.56c-.22.23-.44.45-.65.69s-.46.53-.69.79a.85.85,0,0,1-1.16,0,.7.7,0,0,1-.24-.54.77.77,0,0,1,.24-.53C103.7,60.53,104,60.22,104.23,59.93Z" transform="translate(-31.6 -7)" style="fill:#161616"/><path d="M97.39,53.82c-.06.76-.08,1.53-.13,2.29a.83.83,0,0,0,1.65,0c0-.7.06-1.4.11-2.1s.09-1.52.12-2.28.08-1.58.14-2.36c0-.34,0-.67.08-1s0-.62.08-.93a13.85,13.85,0,0,1,1.44,0l1.42.13c.62.1,1.24.2,1.86.32.84.15,1.68.3,2.52.49l.73.16c.54.12,1.23.34,1.72,0a.84.84,0,0,0,.39-.5,1.07,1.07,0,0,0,0-.47c0-.11-.08-.22-.13-.33s-.13-.34-.2-.51c-.28-.76-.57-1.52-.84-2.29-.13-.39-.27-.78-.41-1.18l-.27-.78v0l3.09.51c.79.13,1.58.28,2.37.44.31.06.63.15.94.22l.67.17.3.09a5.06,5.06,0,0,0,.67.17.89.89,0,0,0,.79-.2.72.72,0,0,0,.25-.54,2.63,2.63,0,0,0-.19-.77L116.4,42c-.09-.4-.18-.79-.25-1.2-.17-.86-.33-1.72-.47-2.59l1.37.22c.57.1,1.13.24,1.69.38s1.14.3,1.71.47,1.16.38,1.74.59a.82.82,0,0,0,.63-.08.8.8,0,0,0,.38-.45.72.72,0,0,0-.09-.59.85.85,0,0,0-.49-.35c-1.08-.4-2.19-.73-3.32-1a20.12,20.12,0,0,0-2.45-.52l-1.47-.2-.37,0h0a1.16,1.16,0,0,0-.5.13,1,1,0,0,0-.34.32,1.3,1.3,0,0,0-.13.36,1.37,1.37,0,0,0,0,.45,8.47,8.47,0,0,0,.12.88c.2,1.17.39,2.35.67,3.51l-.37-.09c-.33-.08-.65-.17-1-.23-.81-.16-1.61-.31-2.42-.45l-2.41-.39L107.56,41c-.43-.07-.86-.15-1.29-.19a.79.79,0,0,0-.71.38.72.72,0,0,0,0,.76,2.31,2.31,0,0,0,.19.28l.15.28c.23.53.39,1.07.58,1.61l.51,1.43c.15.42.31.85.48,1.28l.09.26-.59-.13-1.23-.25c-.79-.15-1.57-.31-2.36-.43s-1.7-.24-2.55-.29c-.4,0-.8,0-1.2,0a2,2,0,0,0-1.43.46,2,2,0,0,0-.19.22,1.23,1.23,0,0,0-.18.58q0,.31-.06.63c0,.42-.07.84-.11,1.26-.06.8-.12,1.6-.15,2.41S97.44,53,97.39,53.82Zm8.5-11.39a.36.36,0,0,1,0-.09A.36.36,0,0,0,105.89,42.43Z" transform="translate(-31.6 -7)" style="fill:#161616"/><path d="M89.1,46l2.21-1.3c1.51-.91,3.06-1.77,4.57-2.69.77-.47,1.55-.93,2.33-1.38s1.55-.86,2.32-1.28c1.55-.84,3.06-1.74,4.58-2.61.74-.42,1.5-.79,2.27-1.15s1.54-.7,2.3-1.08c.39-.19.77-.38,1.15-.59l1.14-.66c.78-.47,1.56-1,2.36-1.42l2.53-1.45a.85.85,0,0,1,1.13.27.74.74,0,0,1-.3,1l-2.47,1.42c-.79.46-1.58.94-2.37,1.42-.37.23-.75.44-1.13.66s-.76.4-1.14.59c-.76.38-1.54.72-2.3,1.08s-1.55.73-2.28,1.15l-2.29,1.32c-.76.44-1.53.88-2.3,1.3s-1.56.84-2.32,1.28c-1.55.89-3.06,1.83-4.62,2.72s-3,1.76-4.48,2.64c-.7.41-1.4.82-2.06,1.29h0a.86.86,0,0,1-.55.2.9.9,0,0,1-.58-.23.73.73,0,0,1-.24-.53.68.68,0,0,1,.24-.54C87.55,46.91,88.32,46.44,89.1,46Z" transform="translate(-31.6 -7)" style="fill:#161616"/><path d="M98.17,26.17a.73.73,0,0,0,.3,1,11.54,11.54,0,0,0,1.42.54c.46.13.93.24,1.39.35a18.55,18.55,0,0,0,2.77.43,13.51,13.51,0,0,0,2.77-.13,22.36,22.36,0,0,0,2.57-.48l1.42-.38a9.34,9.34,0,0,0,1.19-.43,7.68,7.68,0,0,0,1.5-.86.8.8,0,0,0,.38-.45.72.72,0,0,0-.08-.59.88.88,0,0,0-.49-.35l-.23,0a.78.78,0,0,0-.41.1,8.65,8.65,0,0,1-1.6.9,20.24,20.24,0,0,1-2.67.73l-1.36.28c-.34.06-.69.09-1,.13h.14c-.44,0-.87.06-1.31.05h-.2a3.38,3.38,0,0,1-.45,0l-.66-.05a19.76,19.76,0,0,1-2-.38,15.79,15.79,0,0,1-1.82-.51l-.39-.17a.94.94,0,0,0-.64-.08A.83.83,0,0,0,98.17,26.17Zm12.76-.27,0,0ZM99.52,26l.13.05Z" transform="translate(-31.6 -7)" style="fill:#161616"/><path d="M97.82,26.8a.75.75,0,0,0,.3,1c.59.38,1.18.77,1.76,1.17s1.23.94,1.82,1.44c.28.24.56.49.81.75s.47.5.69.76a22.33,22.33,0,0,1,2.2,3.61,7.78,7.78,0,0,1,.39,1,.84.84,0,0,0,1,.53.77.77,0,0,0,.58-.94,12.22,12.22,0,0,0-1-2.2,22.23,22.23,0,0,0-1.27-2.08,11.24,11.24,0,0,0-1.7-2A30.58,30.58,0,0,0,99,26.53a.7.7,0,0,0-.39-.11A.91.91,0,0,0,97.82,26.8Zm2.12,2.25,0,0Z" transform="translate(-31.6 -7)" style="fill:#161616"/><path d="M95.8,31.61a.74.74,0,0,0,0,1.08c.5.52,1,1,1.46,1.58.31.39.61.79.89,1.2a13,13,0,0,1,.73,1.24c.18.43.33.85.47,1.28a10,10,0,0,1,.32,1.19l0,.27a.75.75,0,0,0,.24.53.82.82,0,0,0,.58.23.8.8,0,0,0,.82-.76,9.45,9.45,0,0,0-.48-2.09,10.8,10.8,0,0,0-.92-2.09,14.57,14.57,0,0,0-1.26-1.77A25.5,25.5,0,0,0,97,31.61a.76.76,0,0,0-.56-.22A.92.92,0,0,0,95.8,31.61Zm3.88,7.6s0,.07,0,.1S99.68,39.24,99.68,39.21Z" transform="translate(-31.6 -7)" style="fill:#161616"/><path d="M65.62,18.21l.06.07a.92.92,0,0,0,.3.29.69.69,0,0,0,.42.12.92.92,0,0,0,.63.08,6.83,6.83,0,0,0,2-.68,10.72,10.72,0,0,0,.93-.54L71,16.87a.74.74,0,0,0,.17-1.2.83.83,0,0,0-.57-.22,1.25,1.25,0,0,0-.52.13c-1.22.47-2.41,1-3.61,1.51a.85.85,0,0,0-.58.08A.73.73,0,0,0,65.62,18.21Zm.61-1h0Z" transform="translate(-31.6 -7)" style="fill:#161616"/></svg>