<svg id="Layer_2" data-name="Layer 2" xmlns="http://www.w3.org/2000/svg" viewBox="0 0 159.91 118.5"><path d="M165.39,20.63a2.69,2.69,0,0,0-.57.06,4,4,0,0,0-1.14-.77,5.81,5.81,0,0,0-1.62-.45,10.27,10.27,0,0,0-1.24-.47c-.75-.25-1.56-.48-2.62-.73a36.46,36.46,0,0,0-5.51-.93c-.78-.05-1.58-.09-2.37-.12s-2-.09-3-.2a28.32,28.32,0,0,1-3.27-.58c-.5-.13-1-.31-1.48-.47l-.43-.15-.64-.23-.81-.27c-.42-.19-.77-.36-1.08-.53a6.14,6.14,0,0,1-.47-.42,2.33,2.33,0,0,1-.17-.26,2.44,2.44,0,0,0,0-.27c0-.4,0-.79,0-1.18l0-.2a2.45,2.45,0,0,0-.17-1,2,2,0,0,0-.57-.89,2.45,2.45,0,0,0-1-.53,1.76,1.76,0,0,0-.6-.1,2.37,2.37,0,0,0-1.94,1,3.56,3.56,0,0,0-.44,1.7,5.21,5.21,0,0,0,.12,1.47v.11c0,.13.07.28.11.41,0,.36-.08.73-.13,1.1A51.41,51.41,0,0,1,133,21.39c-.26.91-.53,1.82-.81,2.72s-.58,1.92-.84,2.88c-.16.53-.28,1.07-.4,1.6l0,.14c-.09.38-.17.76-.26,1.14-.25,1-.52,2-.8,3-.2.67-.4,1.34-.61,2a45.17,45.17,0,0,0-1.18,4.36c-.31,1.57-.6,3.16-.88,4.74l0,.18c-.2,1.12-.41,2.24-.62,3.36l-.19,1c-.19,1-.37,1.91-.53,2.87-.11.64-.2,1.29-.3,1.93l0,.19a27.59,27.59,0,0,1-.68,2.85,20.07,20.07,0,0,1-.77,2,13.48,13.48,0,0,1-1.44,2.37A23.92,23.92,0,0,1,119,64.06a13.62,13.62,0,0,1-1.86,1,16.45,16.45,0,0,1-2.65.61,13.44,13.44,0,0,1-1.47.06,28,28,0,0,1-2.83-.15,28.55,28.55,0,0,1-4.64-1.16c-.36-.15-.72-.3-1.08-.47a8.88,8.88,0,0,1-1.07-.62,18.59,18.59,0,0,1-2.7-2.57c-.51-.6-1-1.21-1.51-1.82l-.24-.3-.17-.2c-.8-1-1.63-2-2.48-3a44.35,44.35,0,0,1-4.69-7.43l-.18-.33c-.44-.81-.88-1.63-1.34-2.43-.56-1-1.14-1.91-1.75-2.81l-.73-1-.21-.29-.8-1.12c-1-1.39-1.79-2.86-2.6-4.27l-.61-1.06-1-1.72c-.67-1.19-1.35-2.39-2.08-3.55l-.42-.67-.09-.15c-.34-.54-.68-1.1-1.06-1.63-.6-.86-1.25-1.7-1.93-2.52a20.56,20.56,0,0,0-2.39-2.56,11.11,11.11,0,0,0-3.07-1.81A15.52,15.52,0,0,0,65.59,19a14.56,14.56,0,0,0-1.49.08,15.55,15.55,0,0,0-6.9,2.5c-1.76,1.2-3.41,2.53-5,3.81l-.38.3A45.83,45.83,0,0,0,47.23,30a30,30,0,0,0-4.15,5.44c-1.15,1.91-2.15,3.66-3.07,5.36-.51.92-1,1.88-1.38,2.72l-.06.12c-.41.85-.82,1.69-1.27,2.52-.55,1-1.19,2-1.75,2.93l0,.08c-.46.73-.92,1.46-1.34,2.21-.6,1-1.11,2.13-1.54,3.07s-.86,1.88-1.26,2.89c-.28.71-.54,1.43-.78,2.15l-.12.35-.34.91-.1.29q-.25.69-.48,1.38c-.52,1.61-.92,3.28-1.3,4.9l-.15.62c-.41,1.75-.74,3.51-1.08,5.32a29.76,29.76,0,0,0-.41,3.09,10.29,10.29,0,0,0,0,1.11,9.91,9.91,0,0,0,.14,1.28,2.05,2.05,0,0,0-.48.82,2.09,2.09,0,0,0,.71,2.2,2.43,2.43,0,0,0,1.16.55l.62.07.15,0c.26,0,.53,0,.79,0,1,0,2,0,3.07-.11l.13,0c1-.07,2.13-.14,3.2-.14h.14c.93,0,1.92.06,3,.17.59.09,1.18.2,1.77.32l.26,0,1,.2c1.29.23,2.65.39,4.05.5.84.06,1.75.09,2.88.09l2.18,0,1.72,0c1.2,0,2.39,0,3.59-.07h.45c.93,0,1.86,0,2.79,0,1.91,0,3.95-.07,6.25-.15,1.35-.06,2.73-.06,4.06-.06h2c1.4,0,2.8-.07,4.2-.12l1.75-.06a81.36,81.36,0,0,0,8.89-1l.18,0c1-.15,2-.29,3-.42,1.76-.2,3.61-.35,5.09-.48l1.52-.13c1.23-.11,2.41-.19,3.52-.24.6,0,1.2,0,1.81,0h1.45l3.63,0h3.2c2.43,0,4.81.09,6.4.17q.69,0,1.38,0a43,43,0,0,0,5.7-.43,23.81,23.81,0,0,0,3.27-.73,27.14,27.14,0,0,0,3.43-1.27,26,26,0,0,0,5.59-3.53,19.67,19.67,0,0,0,2.1-2,29.77,29.77,0,0,0,2-2.46,16.07,16.07,0,0,0,3-5.53,19.87,19.87,0,0,0,.12-6.21c-.13-1.34-.29-2.67-.45-4l-.19-1.59a55.54,55.54,0,0,0-1.09-5.94c-.13-.53-.25-1.06-.37-1.6l-.09-.42c-.3-1.29-.58-2.54-.91-3.77-.14-.57-.31-1.14-.47-1.7l0-.1a36.75,36.75,0,0,1-.92-3.65,8.43,8.43,0,0,1,0-1.8,12.26,12.26,0,0,1,.69-2.36,11.31,11.31,0,0,1,1.11-1.68A9.87,9.87,0,0,1,141.8,29a9.58,9.58,0,0,1,1.2-.6,29.88,29.88,0,0,1,5.17-1.13l2-.16h.27l1.49-.11h.16c.84-.07,1.72-.15,2.55-.27.4-.06.79-.13,1.18-.22a2.77,2.77,0,0,0,.07.76,2.3,2.3,0,0,0,1.75,1.47,3,3,0,0,0,.77.09,9.5,9.5,0,0,0,1.41-.15l.17,0a12.78,12.78,0,0,0,4.28-1.56,8.68,8.68,0,0,0,2.5-2,3.18,3.18,0,0,0,.81-2.95A2.27,2.27,0,0,0,165.39,20.63Z" transform="translate(-8.78 -6.7)" style="fill:#824b22"/><path d="M73.7,21.31a16.33,16.33,0,0,0-5.12-1.69,22.3,22.3,0,0,0-3.66-.28c-.53,0-1.05,0-1.58,0a19.25,19.25,0,0,0-5.16,1.11,15.71,15.71,0,0,0-4.71,2.7,11.93,11.93,0,0,0-1.95,1.87c-.25.3-.49.61-.71.93a7.48,7.48,0,0,0-.56.86l-.34.25c-.33.24-.64.49-.94.74a13.86,13.86,0,0,0-1.92,2,1.36,1.36,0,0,0-.18,1.2,1.59,1.59,0,0,0,.8.93,1.91,1.91,0,0,0,1.33.16,1.94,1.94,0,0,0,1-.72l0,0c.12-.14.25-.28.38-.41l.06.94c0,.12,0,.24,0,.36s0,.33.08.5a1.92,1.92,0,0,0,.22.54,1.58,1.58,0,0,0,1,.72,2.27,2.27,0,0,0,1,0,2.17,2.17,0,0,0,1.29-1c.25-.4.49-.8.75-1.19A18,18,0,0,1,56.24,30l.54-.56.09,0a4.4,4.4,0,0,1,.39.35,6.12,6.12,0,0,1,.43.69c.13.33.25.67.39,1a4.73,4.73,0,0,0,.33.68,2,2,0,0,0,1.25,1l.56.07a6,6,0,0,0,.61-.08,2.5,2.5,0,0,0,1.11-.63,4.86,4.86,0,0,0,.68-.82c.14-.19.27-.39.4-.59.27-.42.55-.83.86-1.23.19.19.37.39.55.6.32.39.63.78.92,1.2s.41.69.66,1a2.17,2.17,0,0,0,1.13.78,2.2,2.2,0,0,0,.57.05,2.82,2.82,0,0,0,1-.28c.2-.13.39-.27.58-.41a3.19,3.19,0,0,0,.45-.45c.25-.27.48-.56.71-.85.39-.49.75-1,1.15-1.49a5.19,5.19,0,0,1,.52-.53l.33.19A9.51,9.51,0,0,1,73.91,31l-.27-.31c.54.63,1.12,1.23,1.67,1.86l.29.29a2.05,2.05,0,0,0,.57.36l.41.15a4.09,4.09,0,0,0,.6.07,2.48,2.48,0,0,0,1-.25,3.7,3.7,0,0,0,.67-.51,3.82,3.82,0,0,0,1-2c.39-2.18-1-4.12-2.36-5.82A12.07,12.07,0,0,0,73.7,21.31Zm-16.84,8h0Zm14.79,0,.18,0Zm.71,0h0Z" transform="translate(-8.78 -6.7)" style="fill:#e4dc00"/><path d="M48.85,53.1a25.27,25.27,0,0,0-1.32-2.24c-.86-1.39-1.76-2.76-2.62-4.15-.47-.76-.93-1.53-1.39-2.3-.19-.32-.39-.64-.6-.95a4.56,4.56,0,0,0-.27-.39l-.12-.16.09-.17a1.47,1.47,0,0,0,.17-1.19,1.61,1.61,0,0,0-.79-.93,1.87,1.87,0,0,0-.88-.21,1.65,1.65,0,0,0-1.49.77c-.57,1-1.08,2.13-1.66,3.18s-1.15,2-1.76,3a43.75,43.75,0,0,1-3.32,5.32,2.67,2.67,0,0,0-.75,1.12,1.46,1.46,0,0,0,.44,1.51,5.48,5.48,0,0,0,.49.35,2.44,2.44,0,0,0,1,.24,8.42,8.42,0,0,0,.87,0l1.17-.06c.71,0,1.43,0,2.14,0,1.41,0,2.81,0,4.21.07a22.17,22.17,0,0,0,4.6.33,3.89,3.89,0,0,0,.9-.11,1.77,1.77,0,0,0,1.25-1.15,1.65,1.65,0,0,0,0-1A7.53,7.53,0,0,0,48.85,53.1Zm-9.16-3.69a1.18,1.18,0,0,0-.26,0,1.79,1.79,0,0,0-.57.09l.16-.27c.24-.39.48-.78.71-1.18C39.71,48.52,39.71,49,39.69,49.41Z" transform="translate(-8.78 -6.7)" style="fill:#e4dc00"/><path d="M70,51.87c-.38-.4-.73-.81-1.09-1.22l0,.05c-.84-1-1.7-1.93-2.61-2.85s-1.56-1.58-2.31-2.4L64,45.26a5.2,5.2,0,0,0-1-1.46,1,1,0,0,0,0-.17,1.62,1.62,0,0,0-.79-.92,1.93,1.93,0,0,0-.88-.21,1.75,1.75,0,0,0-.46,0,1.94,1.94,0,0,0-1,.71,17.18,17.18,0,0,0-1.46,2c-.44.7-.86,1.4-1.3,2.1a33.6,33.6,0,0,1-2.41,3.34,16.31,16.31,0,0,0-1.74,1.89,2,2,0,0,0-.38,1.28,1.61,1.61,0,0,0,.37,1,3.82,3.82,0,0,1,.27.32,4.45,4.45,0,0,0,.51.33,4.17,4.17,0,0,0,1.56.43c.43.07.86.11,1.29.15,1.45.14,2.93.14,4.4.14h1c1.79,0,3.57.07,5.36,0l2.58-.18a2.36,2.36,0,0,0,1-.24,2,2,0,0,0,.7-.61,1.67,1.67,0,0,0-.16-1.89A12.22,12.22,0,0,0,70,51.87Z" transform="translate(-8.78 -6.7)" style="fill:#e4dc00"/><path d="M94.18,51.39c-.23-.39-.46-.77-.68-1.16-.84-1.45-1.62-2.92-2.46-4.36-.39-.66-.8-1.31-1.19-2s-.72-1.3-1-2c-.19-.43-.39-.86-.61-1.29a2.62,2.62,0,0,0-1.55-1.59,1.54,1.54,0,0,0-.57-.5,1.89,1.89,0,0,0-2.38.55c-1.19,1.82-2.2,3.72-3.27,5.59-.49.85-1,1.71-1.46,2.55a19,19,0,0,1-1.64,2.35q-.73.82-1.56,1.59c-.31.29-.61.58-.9.88l-.37.37-.17.18A4.12,4.12,0,0,0,74,53a1.41,1.41,0,0,0-.24.79,1.67,1.67,0,0,0,.92,1.56,4,4,0,0,0,.89.28,5.93,5.93,0,0,0,1.19,0c.63,0,1.26-.13,1.88-.21l2.63-.32h-.14l.19,0,.27,0-.2,0a39.72,39.72,0,0,1,5-.32c1.7,0,3.4.14,5.11.15.36,0,.72,0,1.09-.05s.53,0,.8-.09a1.73,1.73,0,0,0,.6-.22,1.82,1.82,0,0,0,.84-1,2.1,2.1,0,0,0-.38-1.7C94.37,51.7,94.27,51.54,94.18,51.39Z" transform="translate(-8.78 -6.7)" style="fill:#e4dc00"/><path d="M81.27,55.15l.12,0h-.12Z" transform="translate(-8.78 -6.7)" style="fill:#e4dc00"/><path d="M142.24,50.45a13.63,13.63,0,0,0-1.06-3,1.72,1.72,0,0,0-1.32-.76l-.06,0a2,2,0,0,0-.92,0l-.17,0a2.64,2.64,0,0,0-.49,0H138c-.73.07-1.47.1-2.21.12s-1.41-.06-2.1-.11l-1.57-.25a1.86,1.86,0,0,0-1.56-.85,1.71,1.71,0,0,0-1.59,1,1.81,1.81,0,0,0-.23.18,2,2,0,0,0-.54,1.73,32,32,0,0,0,.45,3.52,5.35,5.35,0,0,0,.09,1.2A1.59,1.59,0,0,0,130,54.3h0a2,2,0,0,0,1.34-.16,1.52,1.52,0,0,0,.44-.34,12.73,12.73,0,0,0,1.62.27c.77.11,1.57.21,2.35.27l.72,0,.08.08c.82.86,2.28.52,3.15-.07a4.67,4.67,0,0,0,.48-.37h0a1.94,1.94,0,0,0,1.34.16,1.72,1.72,0,0,0,1-.72,1.44,1.44,0,0,0,.17-1.19C142.63,51.67,142.4,51.06,142.24,50.45Z" transform="translate(-8.78 -6.7)" style="fill:#e4dc00"/><path d="M59,42a2.37,2.37,0,0,0-.5-.2,5.05,5.05,0,0,0-.68-.08l-.53,0-.63-.06c-.94-.13-1.87-.28-2.8-.4s-2-.23-3-.35l-3.12-.43c-1.2-.16-2.42-.24-3.63-.28H44a1.66,1.66,0,0,0-1.67,1.56,1.53,1.53,0,0,0,1,1.37,1.47,1.47,0,0,0,.23.62,3.54,3.54,0,0,0,.36.53c.3.37.61.74.94,1.09s.57.65.88,1l.33.33.26.49.18.51c.22.56.43,1.11.67,1.66a8.85,8.85,0,0,0,1.17,2.13,1.63,1.63,0,0,0,.63.56,1.87,1.87,0,0,0,.81.21v0c0,.11,0,.22,0,.33s.06.42.11.63.17.36.26.54a1.82,1.82,0,0,0,2,.72A2.47,2.47,0,0,0,53,54a4.75,4.75,0,0,0,.49-.6c.1-.15.21-.29.31-.45.29-.42.56-.86.83-1.29.47-.77.89-1.57,1.39-2.33s1.19-1.68,1.81-2.51c.25-.35.51-.7.75-1.06a4.71,4.71,0,0,0,1.21-2.43A1.54,1.54,0,0,0,59,42Zm-8.51-1.17.16,0Z" transform="translate(-8.78 -6.7)" style="fill:#6c8f00"/><path d="M82.4,38.64a1.29,1.29,0,0,0-.5-.09,3.88,3.88,0,0,0-1.6.56c-.38.19-.76.36-1.15.51a18,18,0,0,1-2.34.67c-.86.17-1.74.27-2.62.39s-1.82.28-2.74.39l-2.81.37c-1.57.18-3.15.3-4.72.52a1.66,1.66,0,0,0-1,.72,1.46,1.46,0,0,0-.17,1.2,1.67,1.67,0,0,0,.79.93,2.1,2.1,0,0,0,1.33.15l.34.31c.18.18.36.36.53.55.44.56.85,1.13,1.24,1.72s.92,1.3,1.37,2,.82,1.23,1.29,1.81.91.93,1.35,1.4a3.33,3.33,0,0,1,.36.56l-.06-.13a1.67,1.67,0,0,0,.71.76,2,2,0,0,0,1.34.15,1.75,1.75,0,0,0,1-.71,1.36,1.36,0,0,0,.18-1.2l0,0a1.33,1.33,0,0,0,.34-.05,2.14,2.14,0,0,0,1.33-1c.16-.19.31-.39.46-.59.31-.4.59-.82.87-1.24.65-.92,1.32-1.82,2-2.71s1.3-1.7,1.89-2.6c.28-.42.55-.84.84-1.25L82.7,42l.34-.44a4.59,4.59,0,0,0,.57-1,1.39,1.39,0,0,0-.18-1.2A1.86,1.86,0,0,0,82.4,38.64ZM64.81,45h0Zm3.94-3.53.19,0ZM71.14,52.9l0,.05Z" transform="translate(-8.78 -6.7)" style="fill:#6c8f00"/><path d="M139.68,42.41a1.94,1.94,0,0,0-1.34-.16,1.75,1.75,0,0,0-1,.64,1.69,1.69,0,0,0-.55-1.12,1.84,1.84,0,0,0-1.69-.4,2.25,2.25,0,0,0-.83.42l-.14.15a1.91,1.91,0,0,0-1.05.85l-.16,0a1.93,1.93,0,0,0-.12-.54,1.76,1.76,0,0,0-1.67-1.14,1.71,1.71,0,0,0-1.67,1.14c0,.19-.06.37-.09.55a1,1,0,0,0,.07.47c0,.22,0,.44,0,.65a6.91,6.91,0,0,0,0,.91,1.45,1.45,0,0,0,.23.78,1.77,1.77,0,0,0,1,.72,2,2,0,0,0,.92,0,2,2,0,0,0,.82-.43,11.47,11.47,0,0,0,1.16.14l.65,0c.4,0,.81,0,1.21,0h.27a2.94,2.94,0,0,0,.8.21,6.24,6.24,0,0,0,1,.07,3.19,3.19,0,0,0,2.43-.73,2.2,2.2,0,0,0,.53-2.3A1.64,1.64,0,0,0,139.68,42.41Zm-6.82.36Zm0,0Z" transform="translate(-8.78 -6.7)" style="fill:#6c8f00"/><path d="M83.8,33.48a5.62,5.62,0,0,1-.48-.78,6.76,6.76,0,0,0-.9-1.26,2.14,2.14,0,0,0-2.55-.29,4.4,4.4,0,0,0-.89.77c-.51.57-1,1.18-1.42,1.77-.23-.12-.45-.25-.67-.39a4,4,0,0,1-.49-.42c-.78-1.06-1.07-2.36-2.08-3.27A2.07,2.07,0,0,0,73,29.09h0a2,2,0,0,0-1.31.46A2.57,2.57,0,0,0,71,30.64c-.17.38-.33.78-.5,1.17A14.7,14.7,0,0,1,69.13,34a7.06,7.06,0,0,1-.76.69l-.36.21a11.08,11.08,0,0,1-1.07-1.5,5.54,5.54,0,0,0-1.49-2.53,2.37,2.37,0,0,0-.84-.42,2.12,2.12,0,0,0-1,0,1.69,1.69,0,0,0-1.16.89c-.19.36-.35.73-.51,1.09a7.88,7.88,0,0,1-.81,1.33,8.36,8.36,0,0,1-.67.66c-.1-.3-.19-.6-.29-.9s-.2-.6-.32-.9A4.1,4.1,0,0,0,59,31.07a2.13,2.13,0,0,0-2.53-.34,5.15,5.15,0,0,0-.82.64,15.45,15.45,0,0,0-1.32,1.49,16,16,0,0,1-1.78,1.71l0,0-.42-.85c-.2-.47-.38-.94-.54-1.43,0-.12-.07-.26-.11-.39a1.87,1.87,0,0,0-.9-1.06,2,2,0,0,0-1.4-.15,2.85,2.85,0,0,0-1,.56c-.9.63-1.73,1.32-2.62,2s-2,1.37-3,2.11a1.45,1.45,0,0,0-.51,1.1,1.39,1.39,0,0,0,.26.81,1.84,1.84,0,0,0-.77,1,1.47,1.47,0,0,0,0,.83,1.53,1.53,0,0,0,.8.93,3.37,3.37,0,0,0,.68.22c.27,0,.54.07.8.1l1,.1c.68.06,1.37.11,2,.18a27,27,0,0,0,2.83.36,10,10,0,0,0,1.64-.06,1.42,1.42,0,0,0,.54.21c1.83.27,3.71.23,5.56.38,1.09.19,2.16.47,3.26.59a5.83,5.83,0,0,0,1.18,0c.44,0,.88-.11,1.31-.18.26,0,.52-.11.77-.17l.31-.09a5.91,5.91,0,0,0,.84,0c.46,0,.91,0,1.37,0,.78,0,1.56-.1,2.34-.18s1.51-.16,2.25-.3a8.66,8.66,0,0,0,2.34-.81L75,40.13c.54-.09,1.08-.19,1.62-.31l.57,0a1.82,1.82,0,0,0,1.23-.47c.31-.1.62-.22.92-.34l1-.08,1-.07a14.6,14.6,0,0,0,1.48-.19,3.34,3.34,0,0,0,1.5-.69A2.42,2.42,0,0,0,85,36.79a2.53,2.53,0,0,0,0-1.54A6.93,6.93,0,0,0,83.8,33.48Z" transform="translate(-8.78 -6.7)" style="fill:#db5120"/><path d="M99,57.13a10.93,10.93,0,0,0-2-2.42,3.92,3.92,0,0,0-1.62-.87,2.73,2.73,0,0,0-.64-.06h-.45a11.74,11.74,0,0,0-1.58.16c-.21,0-.41.11-.62.15l-1,.2a7.62,7.62,0,0,0-1.07.27l0,0a5.45,5.45,0,0,1-1,.22L87.61,55l-4.56.52c-.69,0-1.39.09-2.07.14s-1.26.09-1.88.16l-.41,0c-1.94.09-3.88.17-5.82.22l-2.11,0c-.89,0-1.79,0-2.68.06l-3,.16c-.46,0-.94.1-1.4.16l-1.17.13c-1.12,0-2.25,0-3.36,0l-2.66,0c-1.48,0-3,.06-4.42.11h-.46l-3.28-.14c-1,0-1.93-.15-2.9-.22-1.84-.14-3.68-.29-5.52-.39-1-.06-2.08-.09-3.11-.13s-2.14-.07-3.2-.18l-.56-.11a1.86,1.86,0,0,0-1.69.4l-.16.17h0a1.82,1.82,0,0,0-1.22.45,1.61,1.61,0,0,0-.52,1.1c-.08.62-.16,1.24-.25,1.85-.17,1.11-.34,2.22-.5,3.33a1.19,1.19,0,0,0-.24.81v.13a1.21,1.21,0,0,1,0,.19,1.61,1.61,0,0,0,.87,1.43,1.9,1.9,0,0,0,1.75,0l.14-.09h4c1.39,0,2.79,0,4.19,0s2.79,0,4.18-.08c.65,0,1.3-.09,1.94-.14l.94-.1c.35,0,.73-.06,1.09-.12h.89a1.73,1.73,0,0,0,.61.09l5.14-.18,1.25,0c1.85,0,3.71,0,5.57,0L67,65l.85,0a6.77,6.77,0,0,0,2,.1c.73,0,1.45-.12,2.18-.18l2-.17,3.33-.28a62.94,62.94,0,0,0,6.87-.89,1.88,1.88,0,0,0,1.47.24c1.08-.3,2.18-.54,3.27-.79l1.72-.39.87-.13a3.44,3.44,0,0,0,1.4-.4l1,0L95.14,62l.57,0a3.1,3.1,0,0,0,1.48-.3,1.94,1.94,0,0,0,.65-.62,3.45,3.45,0,0,0,1.52-.68,1.68,1.68,0,0,0,.33-2A8.81,8.81,0,0,0,99,57.13Z" transform="translate(-8.78 -6.7)" style="fill:#db5120"/><path d="M139,6.87a1.09,1.09,0,0,0-.71.26c-.43.37-.85.75-1.24,1.16a9.74,9.74,0,0,0-1.1,1.39,17.47,17.47,0,0,0-1.65,3.07c-.43,1-.85,2-1.22,3s-.72,2.08-1,3.14a56.59,56.59,0,0,0-1.23,6.46c-.36,2.2-.75,4.4-1,6.61-.13,1-.27,2-.41,3.05-.27,1.74-.57,3.47-.83,5.21h0l0-.18c0,.07,0,.13,0,.2a1.36,1.36,0,0,0,0,.2.29.29,0,0,0,0,.09.78.78,0,0,0,0,.14s0,.08,0,.11v0c0,.12,0,.23,0,.35l-.12.87c-.08.54-.15,1.07-.23,1.61-.15,1.08-.32,2.17-.47,3.26S127.3,49,127.19,50c-.14,1.27-.31,2.55-.49,3.82-.13.88-.27,1.76-.44,2.64-.1.5-.21,1-.34,1.49a8.35,8.35,0,0,1-.46,1.3c-.15.27-.29.53-.45.79a6.68,6.68,0,0,1-.6.8,11.41,11.41,0,0,1-.92.92c-.33.29-.69.56-1.06.83-.57.38-1.15.74-1.76,1.07a16.44,16.44,0,0,1-1.91.87c-.56.2-1.13.38-1.71.53a16.61,16.61,0,0,1-1.84.36c-.66.07-1.32.12-2,.15s-1.44,0-2.16,0c-.42-.06-.82-.13-1.23-.23s-.69-.21-1-.33a11.22,11.22,0,0,1-1.17-.52l-.64-.36a6.37,6.37,0,0,1-.55-.35c-1.12-.85-2.19-1.76-3.22-2.7-.52-.46-1-.94-1.53-1.43s-.93-1-1.37-1.48c-.67-.8-1.31-1.62-1.94-2.45S97.05,54,96.43,53a32.56,32.56,0,0,1-1.82-2.84c-.54-1-1-1.93-1.58-2.9s-1.1-2-1.69-3-1.12-1.85-1.69-2.77S88.51,39.75,88,38.85s-1.13-1.87-1.7-2.79c-1.14-1.87-2.37-3.68-3.62-5.48-.63-.9-1.26-1.81-1.9-2.7S79.33,26,78.56,25.13s-1.47-1.56-2.25-2.3a16.1,16.1,0,0,0-2.84-2.11,14.93,14.93,0,0,0-3.34-1.4,17.51,17.51,0,0,0-3.61-.64,17,17,0,0,0-3.7.12c-.62.09-1.23.2-1.84.34a14.48,14.48,0,0,0-1.72.58c-.55.23-1.09.47-1.62.74s-1.1.57-1.64.88c-1,.57-2,1.18-2.89,1.83a27.8,27.8,0,0,0-2.75,2.19A26.27,26.27,0,0,0,48,27.73c-.82.95-1.57,1.92-2.29,2.92s-1.29,1.8-1.94,2.7c-1.29,1.78-2.6,3.55-3.79,5.39-.61,1-1.21,1.92-1.8,2.89S37,43.5,36.48,44.45s-1.11,2-1.67,3-1.14,1.94-1.72,2.9S32,52.15,31.45,53a29.49,29.49,0,0,0-1.75,3.09c-.23.5-.43,1-.61,1.51s-.3,1-.43,1.46c-.3,1-.62,2.09-.94,3.13s-.6,2.09-.87,3.14-.57,2.06-.75,3.1-.34,2.2-.43,3.32-.11,2.14-.12,3.21,0,2.12,0,3.18c0,.51,0,1,0,1.53a9.35,9.35,0,0,0,.19,1.9,1,1,0,0,0,1.22.62.89.89,0,0,0,.68-1.09l0-.22c-.05-.43-.06-.86-.07-1.28s0-.92,0-1.38c0-1.05,0-2.1,0-3.14s0-2,.09-2.93.17-1.81.3-2.71c.19-1.07.46-2.13.73-3.19s.53-2.07.84-3.09.63-2.06.93-3.09c.14-.49.27-1,.42-1.47s.36-1.06.56-1.58l.18-.37c.51-1,1.09-1.94,1.68-2.89L34.94,51c.6-1,1.19-2,1.75-3s1.11-2,1.69-3,1.08-1.78,1.62-2.66,1.16-1.89,1.76-2.81,1.24-1.88,1.9-2.8l2-2.74c1.14-1.58,2.25-3.16,3.46-4.69A25.87,25.87,0,0,1,51.36,27c.45-.41.89-.82,1.37-1.21s1-.79,1.52-1.17c.87-.6,1.76-1.17,2.68-1.7.56-.32,1.12-.63,1.7-.92s1.07-.5,1.62-.73,1-.32,1.45-.45,1.09-.22,1.65-.3,1.31-.1,2-.11a17.14,17.14,0,0,1,1.76.11c.61.09,1.23.19,1.83.34a18.5,18.5,0,0,1,1.79.55A13.74,13.74,0,0,1,72,22c.44.24.86.49,1.27.76a19,19,0,0,1,2.11,1.77c.69.68,1.35,1.36,2,2.08s1.39,1.73,2,2.63,1.22,1.72,1.82,2.6c1.26,1.81,2.48,3.64,3.62,5.52l1.7,2.79c.56.91,1.14,1.82,1.71,2.73q1.73,2.76,3.27,5.62c.52,1,1,1.93,1.57,2.88s1.19,1.91,1.85,2.83a68.83,68.83,0,0,0,4.24,5.46A30.89,30.89,0,0,0,101.49,62c.81.74,1.64,1.47,2.5,2.17.5.41,1,.8,1.54,1.16.25.16.5.31.76.45s.57.3.87.44A12.9,12.9,0,0,0,109,67a12.51,12.51,0,0,0,2.59.43,16.14,16.14,0,0,0,1.84,0c.58,0,1.15-.07,1.73-.13a18.65,18.65,0,0,0,3.56-.76A19,19,0,0,0,122.06,65a15.37,15.37,0,0,0,1.45-.91,14.32,14.32,0,0,0,1.38-1,9.57,9.57,0,0,0,2.22-2.75,11.41,11.41,0,0,0,.67-1.67c.15-.51.26-1,.36-1.55.42-2.12.7-4.25,1-6.38.1-.8.17-1.59.26-2.37s.21-1.68.33-2.52c.22-1.59.45-3.19.69-4.78a1.46,1.46,0,0,0,0-.22h0v0l0-.16a.28.28,0,0,1,0-.09v-.07c.25-1.69.54-3.37.8-5.06s.48-3.56.74-5.33c.32-2.1.69-4.19,1-6.28a38.38,38.38,0,0,1,1.51-6.4,51.32,51.32,0,0,1,2-5l0,0a2,2,0,0,0,.1-.21,1.22,1.22,0,0,0-.07.17,16,16,0,0,1,.79-1.39,13.76,13.76,0,0,1,.9-1.26,16.38,16.38,0,0,1,1.41-1.35.83.83,0,0,0,0-1.26A1,1,0,0,0,139,6.87ZM49,29.49l0,0Zm5.09-4.76.13-.09Zm6-3.39.1,0Zm70.31,19.78v-.06h0Z" transform="translate(-8.78 -6.7)" style="fill:#161616"/><path d="M136.51,12.43l0,0a1.22,1.22,0,0,1,.07-.17A2,2,0,0,1,136.51,12.43Z" transform="translate(-8.78 -6.7)" style="fill:#161616"/><path d="M157.73,25.32h0v0Z" transform="translate(-8.78 -6.7)" style="fill:#161616"/><path d="M156.42,26.69h0v0Z" transform="translate(-8.78 -6.7)" style="fill:#161616"/><path d="M167.2,20.48c-.26-.21-.55-.4-.82-.59a7.7,7.7,0,0,0-1.31-.67,10.68,10.68,0,0,0-1.68-.56c-.51-.14-1-.23-1.57-.32s-1-.17-1.45-.24c-1.07-.17-2.15-.32-3.23-.46-2-.28-4.06-.59-6.09-.91-1.64-.25-3.25-.58-4.87-.93a47.45,47.45,0,0,1-4.76-1.23,5.12,5.12,0,0,1-.75-.35l-.16-.15a4.14,4.14,0,0,1-.3-.5,12.9,12.9,0,0,1-.74-2.92c-.15-1.1-.3-2.2-.47-3.3a.87.87,0,0,0-.45-.53,1.11,1.11,0,0,0-.5-.12,1.24,1.24,0,0,0-.27,0,1,1,0,0,0-.59.41.85.85,0,0,0-.1.68c.06.41.12.82.19,1.23a1.85,1.85,0,0,1,0-.23c.15,1,.26,2,.43,3a13.63,13.63,0,0,0,.33,1.37,9.4,9.4,0,0,0,.56,1.41,2.79,2.79,0,0,0,.82,1,6.16,6.16,0,0,0,1.6.75c.52.18,1.05.33,1.58.48,1,.28,2.06.49,3.09.72s2,.44,3.06.63,2.09.35,3.13.51,2.08.33,3.12.48l3.06.41q1.57.23,3.12.48c.52.09,1,.2,1.55.31a11.49,11.49,0,0,1,1.27.37c.3.13.6.27.89.42a7.23,7.23,0,0,1,.66.4,6.43,6.43,0,0,1,.73.64,5.11,5.11,0,0,1,.33.48,3.81,3.81,0,0,1,.13.45,2.46,2.46,0,0,1,0,.47,3.48,3.48,0,0,1-.25.75,4.78,4.78,0,0,1-.53.82,6.55,6.55,0,0,1-1,.86,8.65,8.65,0,0,1-1.38.73,10.67,10.67,0,0,1-2,.47,6.05,6.05,0,0,1-.95,0,4.35,4.35,0,0,1-.71-.18,5.36,5.36,0,0,1-.85-.46,7.26,7.26,0,0,1-1.09-1l0,0,0-.06-.06-.07h0l-.14-.16h0l.05.05,0,0h0v0a7.35,7.35,0,0,1-.84-1.27,4.57,4.57,0,0,1-.22-.62,1,1,0,0,0-1.22-.62.91.91,0,0,0-.69,1.1,7.13,7.13,0,0,0,1.51,2.6l-.16-.18.36.42-.05-.06,0,0h0l0,0,0,0,.12.13-.07-.07a8.31,8.31,0,0,0,1.15,1.06,6.65,6.65,0,0,0,1.93,1,6.34,6.34,0,0,0,3,0,8.74,8.74,0,0,0,3-1.09c.36-.23.72-.47,1-.73A5.69,5.69,0,0,0,168,25.49a4.45,4.45,0,0,0,.66-1.83,3.13,3.13,0,0,0-.33-1.82A4.72,4.72,0,0,0,167.2,20.48Zm-1.57,1.12.07,0Zm-8,3.62.09.1Zm.31.36,0,0h0Zm.1.11h0l0,0Zm3.32,1.53.13,0Zm3.45-1.13.07-.05Z" transform="translate(-8.78 -6.7)" style="fill:#161616"/><path d="M157.19,25.71h-.06c-1.31.1-2.62.19-3.94.22s-2.7,0-4.05,0a18.28,18.28,0,0,0-2.22.17,10.65,10.65,0,0,0-2,.47,13.63,13.63,0,0,0-3.78,2.08,6.63,6.63,0,0,0-.94.89,8.89,8.89,0,0,0-.71.91,7.7,7.7,0,0,0-.65,1.28,9.9,9.9,0,0,0-.66,2.82,14.53,14.53,0,0,0-.06,1.74c0,.67,0,1.33.08,2a28.61,28.61,0,0,0,.58,3.88c.24,1.2.53,2.4.83,3.6.36,1.44.79,2.86,1.17,4.3s.73,2.94,1,4.42c.11.72.2,1.44.26,2.17s.09,1.71.11,2.57,0,1.57,0,2.36A18.46,18.46,0,0,1,142,64a12.63,12.63,0,0,1-.33,1.48c-.16.5-.34,1-.55,1.48a16.39,16.39,0,0,1-1,1.76,18.9,18.9,0,0,1-1.2,1.51c-.26.28-.53.57-.81.85s-.64.6-1,.88a22,22,0,0,1-1.9,1.44,50.83,50.83,0,0,1-9.25,4.92,13,13,0,0,1-1.38.43c-.54.14-1.08.24-1.63.33a30.3,30.3,0,0,1-3.93.11c-1.35,0-2.71-.09-4.06-.11-2.71,0-5.42-.08-8.13-.1s-5.33,0-8,.09-5.55.26-8.3.58q-2.87.34-5.74.77c-1.65.24-3.3.49-5,.69-2.75.31-5.5.58-8.27.71-1.39.07-2.79.07-4.18.08s-2.68,0-4,0c-2.86-.08-5.72-.17-8.59-.22-1.37,0-2.76-.05-4.13-.12s-2.81-.15-4.21-.19-2.51,0-3.77,0l-3.77-.08c-1.22,0-2.44,0-3.66-.05s-2.46,0-3.68-.15c-.7-.1-1.39-.22-2.06-.37l-1.13-.26c-.35-.08-.71-.15-1-.25h0a1.06,1.06,0,0,0-1.36.32.84.84,0,0,0,.36,1.21,4.08,4.08,0,0,0,1.17.35l.89.22c.64.15,1.29.3,1.94.4a18.72,18.72,0,0,0,2.24.25q1.05,0,2.1.06l4.1.06L43,83c1.41,0,2.82,0,4.23.07s2.79.14,4.18.21,2.78.07,4.17.1,2.75,0,4.13.09,2.84.09,4.27.12,2.73,0,4.1,0,2.8,0,4.2-.11,2.79-.19,4.18-.32c2.25-.22,4.49-.47,6.72-.8s4.41-.64,6.62-.92c1.34-.16,2.69-.3,4-.41s2.77-.17,4.16-.23c2.69-.13,5.38-.14,8.08-.13s5.33.06,8,.1c1.36,0,2.71.05,4.07.09a36.85,36.85,0,0,0,4.07,0,19,19,0,0,0,2.25-.32,16,16,0,0,0,1.94-.56,33.53,33.53,0,0,0,3.92-1.73c1.16-.56,2.29-1.19,3.39-1.85s2.4-1.45,3.51-2.28c.56-.42,1.09-.86,1.62-1.31a16.32,16.32,0,0,0,1.31-1.32,16.09,16.09,0,0,0,2.32-3.15,13.18,13.18,0,0,0,1.3-3.6,19,19,0,0,0,.33-3.75c0-1.21,0-2.42-.09-3.62a36.3,36.3,0,0,0-.45-3.88c-.19-1.18-.5-2.35-.79-3.52s-.65-2.35-1-3.53a66.49,66.49,0,0,1-1.49-6.62,26.63,26.63,0,0,1-.23-2.8c0-.51,0-1,0-1.53a12.81,12.81,0,0,1,.1-1.38l.12-.58a6.79,6.79,0,0,1,.51-1.54,7.35,7.35,0,0,1,.82-1.26,8.65,8.65,0,0,1,1.25-1.09,13.23,13.23,0,0,1,1.13-.7,12.45,12.45,0,0,1,1.33-.63c.36-.12.72-.22,1.09-.33a9,9,0,0,1,1-.18c1.57-.14,3.14-.1,4.7-.12.83,0,1.65,0,2.47-.07s1.63-.1,2.45-.16a1.18,1.18,0,0,0,.7-.26.89.89,0,0,0,.29-.63A1,1,0,0,0,157.19,25.71ZM31.58,81l.16,0Z" transform="translate(-8.78 -6.7)" style="fill:#161616"/><path d="M80.72,30.77a1.09,1.09,0,0,0-1.36.32c-.38.51-.75,1-1.11,1.53-.15.21-.3.43-.44.65v0c-.3-.39-.6-.77-.91-1.15-.69-.84-1.39-1.67-2.11-2.48a6.76,6.76,0,0,0-1.11-1,1.72,1.72,0,0,0-1-.4h0a1.29,1.29,0,0,0-1,.44c-.34.39-.65.79-1,1.21-.6.83-1.16,1.68-1.71,2.55-.16.26-.31.53-.46.8a2,2,0,0,0-.11.2l-.69-1c-.24-.38-.5-.75-.75-1.13a9.82,9.82,0,0,0-.64-.84,2.81,2.81,0,0,0-1.48-1.06,2.47,2.47,0,0,0-.39,0,1.57,1.57,0,0,0-1.1.56,4.07,4.07,0,0,0-.4.43c-.31.35-.63.7-.91,1.08-.41.55-.79,1.13-1.19,1.69l-.15-.24c-.2-.35-.41-.71-.63-1.05a15.14,15.14,0,0,0-.92-1.34,6.64,6.64,0,0,0-.56-.63,2,2,0,0,0-.86-.56,1.38,1.38,0,0,0-.67,0,1.46,1.46,0,0,0-.53.26l-.29.26a27.64,27.64,0,0,0-1.79,2.13c-.45.58-.88,1.18-1.34,1.76-.2-.49-.4-1-.63-1.46s-.41-.85-.64-1.27a4.36,4.36,0,0,0-.46-.69,1.58,1.58,0,0,0-.45-.4,1.36,1.36,0,0,0-.41-.17,1.56,1.56,0,0,0-1.33.42l-2.53,1.69c-1,.65-1.9,1.32-2.84,2a.77.77,0,0,0-.29.63.81.81,0,0,0,.29.62,1,1,0,0,0,.7.26,1.18,1.18,0,0,0,.7-.26L46.61,34l-.07.06c.68-.47,1.36-1,2.06-1.41L49.66,32l.44-.29h0a11.13,11.13,0,0,1,.61,1.19h0c.28.62.55,1.25.81,1.88.07.15.13.31.21.47a1.68,1.68,0,0,0,.34.55,1,1,0,0,0,.79.34l.35,0,.32-.13.3-.21.28-.28c.21-.23.4-.48.59-.72.85-1.11,1.69-2.23,2.6-3.31l.13-.14a17,17,0,0,1,1.31,1.95l.51.86a4,4,0,0,0,.75,1,1.32,1.32,0,0,0,.8.29,1.38,1.38,0,0,0,.86-.32,3.54,3.54,0,0,0,.78-.86l.66-1a18.65,18.65,0,0,1,1.21-1.6c.11-.12.21-.24.32-.35a1.59,1.59,0,0,1,.13.13c.34.42.64.87.94,1.32s.53.81.79,1.21.53.8.81,1.19l.13.18a1.36,1.36,0,0,0,.41.38,1.18,1.18,0,0,0,1,.11A2.16,2.16,0,0,0,70,34.62c.49-.88,1-1.73,1.55-2.57.4-.6.82-1.2,1.26-1.78a14.3,14.3,0,0,1,1.06,1.14c1,1.14,1.93,2.31,2.83,3.51l.15.21a1.27,1.27,0,0,0,.1.12l.16.18a1,1,0,0,0,.43.23,1.09,1.09,0,0,0,.93-.1A1.69,1.69,0,0,0,79,35c.22-.33.41-.68.63-1,.46-.68.93-1.33,1.42-2A.84.84,0,0,0,80.72,30.77ZM50.78,33l0,.09Zm2.84,1.69s0,.07,0,.11S53.63,34.71,53.62,34.67Z" transform="translate(-8.78 -6.7)" style="fill:#161616"/><path d="M86,37.16a1.14,1.14,0,0,0-.52-.13.69.69,0,0,0-.25,0c-.93.32-1.86.65-2.81.93s-2,.52-2.93.78-2,.55-3,.8-2.1.49-3.17.67c-.46.08-.94.14-1.41.19-2,.23-4.11.4-6.17.48s-4.3.12-6.46.09c-1.14,0-2.28-.06-3.42-.14s-2.07-.21-3.11-.34l.14,0q-3-.36-6-.75c-1.07-.15-2.14-.31-3.21-.42s-1.95-.18-2.93-.23a.89.89,0,1,0,0,1.77c1.08.07,2.15.15,3.23.27,2,.26,4.09.55,6.13.8,2.2.28,4.4.56,6.62.72,1,.07,2,.08,3,.09s2.09,0,3.13,0q3.27-.06,6.52-.33a45.24,45.24,0,0,0,6.36-.87c1.07-.25,2.12-.54,3.17-.83l2.9-.77c.63-.17,1.27-.34,1.89-.54s1.29-.45,1.94-.67a1,1,0,0,0,.59-.41.78.78,0,0,0,.1-.68A.93.93,0,0,0,86,37.16Z" transform="translate(-8.78 -6.7)" style="fill:#161616"/><path d="M94,53.48h0c-1,0-2,.05-3,.1s-2.07.15-3.1.23-2,.16-3,.22l-3.32.19c-1.72.09-3.45.22-5.16.37s-3.67.42-5.5.67c-1,.11-2,.2-3.06.24s-2,0-3,0c-1.17,0-2.33,0-3.5-.08l-3-.14q-3.24-.16-6.47-.24c-1.08,0-2.15,0-3.24,0s-2.2.13-3.3.23-2.09.2-3.13.26-2.07.1-3.11.09-2.15,0-3.22,0l-3.25-.15c-.51,0-1,0-1.54,0a.9.9,0,1,0,0,1.78c1.09,0,2.18,0,3.28.1s2.15.09,3.22.11,2,0,3,0,2.26-.11,3.38-.21,2.17-.2,3.27-.28,2-.1,3-.11,2.15,0,3.23.07l3.26.11c2.16.09,4.31.22,6.46.27,1,0,2.05,0,3.07,0l1.65,0q.87,0,1.74-.12c.87-.07,1.73-.2,2.59-.32l2.29-.3c2-.22,4.09-.37,6.14-.5s4.21-.22,6.32-.39c1.17-.09,2.35-.19,3.53-.27s2.21-.09,3.32-.13a.89.89,0,1,0,0-1.77Z" transform="translate(-8.78 -6.7)" style="fill:#161616"/><path d="M84.91,37.69a.91.91,0,0,0-.67.26,43.4,43.4,0,0,0-3.41,4.63c-.54.77-1.16,1.51-1.75,2.25s-1.2,1.5-1.76,2.27c-.92,1.25-1.79,2.53-2.66,3.8-.41.6-.82,1.2-1.2,1.83l-.57,1-.87-1,.06.07-.09-.1-.07-.08,0,0c-.57-.67-1.11-1.37-1.67-2S69,49.17,68.37,48.45,67,47,66.34,46.24s-1.39-1.42-2-2.16c-.34-.37-.67-.76-1-1.14l-.43-.45a4.8,4.8,0,0,0-.77-.63,1.55,1.55,0,0,0-1.17-.25,1.52,1.52,0,0,0-.87.67c-.13.16-.26.33-.38.5-.25.35-.49.69-.75,1-.6.78-1.21,1.55-1.82,2.33s-1.19,1.53-1.8,2.29c-.79,1-1.59,2-2.38,3-.39.49-.78,1-1.15,1.49l-.58.78c-.39-.51-.73-1-1.1-1.57-.54-.76-1.08-1.51-1.58-2.29-1.06-1.64-2.11-3.28-3.21-4.9s-2.16-3.28-3.4-4.83a1.06,1.06,0,0,0-1.36-.32.92.92,0,0,0-.45.54.76.76,0,0,0,.1.68c1.24,1.54,2.3,3.2,3.4,4.83s2.15,3.26,3.2,4.9c.51.78,1.05,1.53,1.59,2.29s.95,1.43,1.51,2.09c.15.17.29.34.45.5a1.26,1.26,0,0,0,.59.32,1.24,1.24,0,0,0,1.22-.42,12.34,12.34,0,0,0,1-1.28c.55-.74,1.11-1.48,1.7-2.2,1.23-1.53,2.45-3.06,3.65-4.61.6-.76,1.21-1.52,1.8-2.3.37-.47.72-1,1.07-1.44.26.25.49.51.72.76l.85,1c.55.62,1.15,1.2,1.71,1.8l1.82,2c.57.61,1.13,1.22,1.68,1.85S69.22,52.3,69.74,53s1.12,1.3,1.69,1.94l.62.79a1.15,1.15,0,0,0,1.91,0A5.08,5.08,0,0,0,74.4,55c.45-.84,1-1.65,1.48-2.46s1.09-1.59,1.64-2.39,1.07-1.54,1.64-2.3c1.07-1.42,2.24-2.78,3.29-4.21s1.85-2.82,2.94-4.13l.25-.27a.89.89,0,0,0,.29-.63.82.82,0,0,0-.29-.63A1.09,1.09,0,0,0,84.91,37.69ZM51.58,54.18l0,0,0,0ZM61.87,43l0,0Z" transform="translate(-8.78 -6.7)" style="fill:#161616"/><path d="M72,52.74l0-.06,0,0Z" transform="translate(-8.78 -6.7)" style="fill:#161616"/><path d="M42.37,50.52c-.1-.33-.22-.65-.34-1l-.18-.46c0-.1-.08-.2-.13-.3a1.29,1.29,0,0,0-.29-.45,1.67,1.67,0,0,0-.16-.12.89.89,0,0,0-.28-.47,1.14,1.14,0,0,0-.73-.26.91.91,0,0,0-.67.26A16,16,0,0,0,38.52,49a4.9,4.9,0,0,0-.48.94,3.06,3.06,0,0,0-.17.59,4.91,4.91,0,0,0-.1,1.21,2.83,2.83,0,0,0,.2,1,2.29,2.29,0,0,0,.42.61,2,2,0,0,0,.81.45A3.29,3.29,0,0,0,42,53.15a1.57,1.57,0,0,0,.43-.53,1.2,1.2,0,0,0,.13-.31,1.85,1.85,0,0,0,.08-.46,2.46,2.46,0,0,0-.08-.81A4.44,4.44,0,0,0,42.37,50.52Z" transform="translate(-8.78 -6.7)" style="fill:#161616"/><path d="M51.46,44.28a2.39,2.39,0,0,0-.87.16,1.73,1.73,0,0,0-.76.62,2,2,0,0,0-.36.95,3.37,3.37,0,0,0,0,1,11.38,11.38,0,0,0,.24,1.13c0,.18.1.36.16.54a2.61,2.61,0,0,0,.32.65,1,1,0,0,0,.42.45A1.08,1.08,0,0,0,52,49.41c.27-.39.53-.77.79-1.17a4,4,0,0,0,.69-1.75,2,2,0,0,0-.75-1.81A2.16,2.16,0,0,0,51.46,44.28ZM51.39,46l0,0,0,0Z" transform="translate(-8.78 -6.7)" style="fill:#161616"/><path d="M63.11,49.83a5.4,5.4,0,0,0-.39-1,1.06,1.06,0,0,0-.87-.45.73.73,0,0,0-.25,0,1.22,1.22,0,0,0-.4.18,1,1,0,0,0-.64.26c-.24.27-.49.54-.7.83a3.63,3.63,0,0,0-.54,1.12c0,.14-.07.29-.1.43s0,.28-.06.41a2.34,2.34,0,0,0,.06.7,1.83,1.83,0,0,0,.28.62,1.86,1.86,0,0,0,.56.52,2.49,2.49,0,0,0,1.67.35,2.15,2.15,0,0,0,.7-.24,1.86,1.86,0,0,0,.56-.48,2.62,2.62,0,0,0,.42-.79,2.72,2.72,0,0,0,0-1.67C63.3,50.37,63.21,50.1,63.11,49.83Z" transform="translate(-8.78 -6.7)" style="fill:#161616"/><path d="M73.94,44.36A2.21,2.21,0,0,0,72.72,44a2.26,2.26,0,0,0-.85.17,2,2,0,0,0-1.2,1.66,3.51,3.51,0,0,0,.1,1.07A10.69,10.69,0,0,0,71.13,48a2.39,2.39,0,0,0,.66,1.11,1.13,1.13,0,0,0,.18.12.72.72,0,0,0,.31.26,1,1,0,0,0,1.35-.32c.26-.41.51-.83.74-1.26A3.69,3.69,0,0,0,74.92,46,2.12,2.12,0,0,0,73.94,44.36Z" transform="translate(-8.78 -6.7)" style="fill:#161616"/><path d="M87.19,47.57a7.44,7.44,0,0,0-.42-.85.87.87,0,0,0-.28-.7,1,1,0,0,0-.7-.25,1.06,1.06,0,0,0-.7.25,8,8,0,0,0-1.55,1.58A2.37,2.37,0,0,0,83.16,49a2.18,2.18,0,0,0,1.3,1.72,2.54,2.54,0,0,0,1.87.25,2,2,0,0,0,1.24-2.09A3.75,3.75,0,0,0,87.19,47.57Z" transform="translate(-8.78 -6.7)" style="fill:#161616"/><path d="M100.06,60.08a1.15,1.15,0,0,0-.26,0c-.44.11-.87.25-1.3.38s-.78.22-1.17.31l-2.81.62c-1,.21-2,.39-2.94.57s-2,.37-2.93.53c-2.34.38-4.69.68-7,1-1.75.2-3.49.42-5.24.65-2,.23-4,.47-6,.53-1.08,0-2.16.08-3.25.1s-2.19,0-3.28,0c-4.19,0-8.38,0-12.57,0-2.14,0-4.29-.1-6.43-.14s-4.21-.13-6.3-.13c-1.66,0-3.32,0-5,.13-.82,0-1.63.11-2.44.2s-1.8.21-2.7.28a1.08,1.08,0,0,0-.7.26.82.82,0,0,0-.29.63,1,1,0,0,0,1,.89c1.08-.08,2.15-.22,3.22-.33s2-.16,3.05-.2c2.08-.09,4.16-.1,6.24,0l6.47.16c2.09,0,4.17.09,6.26.1q6.38,0,12.76,0c1,0,2.07,0,3.1-.08s2.07-.07,3.11-.17,2.08-.2,3.12-.32l3.46-.44,1.17-.14h-.1l-.17,0,.17,0q3.18-.37,6.36-.81c2.05-.28,4.08-.64,6.1-1,1.35-.25,2.68-.55,4-.84.61-.13,1.23-.26,1.83-.42s1.16-.36,1.75-.5a.89.89,0,0,0,.69-1.1A1,1,0,0,0,100.06,60.08Z" transform="translate(-8.78 -6.7)" style="fill:#161616"/><path d="M34.27,65.63a1,1,0,0,0-2,0c.08,1.06.16,2.12.2,3.18,0,.88,0,1.76.06,2.64a1,1,0,0,0,1,.89.94.94,0,0,0,1-.89c0-.85,0-1.7-.06-2.56C34.43,67.8,34.35,66.72,34.27,65.63Z" transform="translate(-8.78 -6.7)" style="fill:#161616"/><path d="M41.94,66a1,1,0,0,0-1-.89A1,1,0,0,0,40,66c0,1,0,2,0,3s0,1.77,0,2.66a1,1,0,0,0,1,.88,1,1,0,0,0,1-.88c-.05-.89,0-1.78,0-2.66S42,67,41.94,66Z" transform="translate(-8.78 -6.7)" style="fill:#161616"/><path d="M48.38,65.6a1.1,1.1,0,0,0-.7-.26c-.5,0-1,.41-1,.89.16,1.55.29,3.1.51,4.65a.86.86,0,0,0,.29.62,1,1,0,0,0,.7.27,1.07,1.07,0,0,0,.7-.27.81.81,0,0,0,.29-.62c-.22-1.55-.35-3.1-.51-4.65A.89.89,0,0,0,48.38,65.6Z" transform="translate(-8.78 -6.7)" style="fill:#161616"/><path d="M56.12,66.44a1,1,0,0,0-2,0c0,1.27-.06,2.54,0,3.8a1,1,0,0,0,2,0C56.06,69,56.11,67.71,56.12,66.44Z" transform="translate(-8.78 -6.7)" style="fill:#161616"/><path d="M63.78,66.52a1,1,0,0,0-2,0c0,1.52,0,3,.05,4.57a1,1,0,0,0,1,.89.94.94,0,0,0,1-.89C63.76,69.57,63.75,68,63.78,66.52Z" transform="translate(-8.78 -6.7)" style="fill:#161616"/><path d="M70.85,70.05h0c-.17-1.26-.27-2.53-.37-3.8a.87.87,0,0,0-.29-.63,1,1,0,0,0-.7-.26.94.94,0,0,0-1,.89c.13,1.56.23,3.13.51,4.69a.88.88,0,0,0,.46.53,1.1,1.1,0,0,0,.76.09,1,1,0,0,0,.59-.41.84.84,0,0,0,.1-.69C70.89,70.33,70.87,70.19,70.85,70.05Z" transform="translate(-8.78 -6.7)" style="fill:#161616"/><path d="M76.05,67.77l0-.23h0Z" transform="translate(-8.78 -6.7)" style="fill:#161616"/><path d="M78,67.3a2,2,0,0,1,0,.24c-.07-.49-.15-1-.22-1.47,0-.13,0-.26,0-.39a1,1,0,0,0-.29-.63,1.1,1.1,0,0,0-.7-.26,1.06,1.06,0,0,0-.7.26.8.8,0,0,0-.29.63c.08.62.18,1.24.27,1.86.14.93.31,1.86.54,2.78a1,1,0,0,0,1.22.62.89.89,0,0,0,.69-1.09C78.26,69,78.11,68.15,78,67.3Zm-.18-1.22,0,.19Z" transform="translate(-8.78 -6.7)" style="fill:#161616"/><path d="M85.42,68.1v0c-.17-1.16-.19-2.34-.25-3.51a1,1,0,0,0-2,0c0,.65.06,1.31.1,2s.12,1.35.22,2a.91.91,0,0,0,.46.53,1.05,1.05,0,0,0,.76.08.92.92,0,0,0,.59-.4.88.88,0,0,0,.1-.69Z" transform="translate(-8.78 -6.7)" style="fill:#161616"/><path d="M91.81,66.16c-.2-.8-.44-1.58-.71-2.36a1,1,0,0,0-.95-.66.75.75,0,0,0-.26,0,.89.89,0,0,0-.7,1.09c.27.78.51,1.56.71,2.36s.32,1.36.54,2a1,1,0,0,0,1.21.62.89.89,0,0,0,.69-1.09C92.13,67.51,92,66.83,91.81,66.16Z" transform="translate(-8.78 -6.7)" style="fill:#161616"/><path d="M97.68,62.09a1,1,0,0,0-1-.65,1,1,0,0,0-.25,0,.9.9,0,0,0-.69,1.09c.42,1.75.84,3.49,1.16,5.26a.9.9,0,0,0,.45.53,1.13,1.13,0,0,0,.77.09,1,1,0,0,0,.59-.41.92.92,0,0,0,.1-.69C98.52,65.58,98.1,63.84,97.68,62.09Z" transform="translate(-8.78 -6.7)" style="fill:#161616"/><path d="M143.24,19.72a1.49,1.49,0,0,0-.52-.08h-.06a1.5,1.5,0,0,0-.59.14,1.67,1.67,0,0,0-.33.21,1.27,1.27,0,0,0-.38.55.9.9,0,0,0-.16.18.88.88,0,0,0-.1.69,1.45,1.45,0,0,0,.22.62,2.15,2.15,0,0,0,.32.35,1.34,1.34,0,0,0,.57.29l.42.06a2.52,2.52,0,0,0,1.16-.24,2,2,0,0,0,.42-.25,1.22,1.22,0,0,0,.34-1.59A2.43,2.43,0,0,0,143.24,19.72Z" transform="translate(-8.78 -6.7)" style="fill:#fff"/><path d="M49.21,121.24a2.35,2.35,0,0,0-.5-.67.52.52,0,0,0-.11-.1,1.84,1.84,0,0,0-.05-.25l-.27-1.1c-.2-.87-.4-1.74-.64-2.6s-.58-1.8-.88-2.7-.6-1.81-.93-2.71c-.66-1.81-1.43-3.59-2.19-5.37-.38-.88-.76-1.75-1.1-2.64s-.75-1.86-1.16-2.78-.86-1.78-1.33-2.65-.88-1.68-1.34-2.51c-.93-1.71-2-3.39-2.93-5.08-.43-.76-.89-1.51-1.37-2.25s-1.09-1.58-1.67-2.36S31.63,84,31.1,83.31s-1.07-1.6-1.66-2.37a1.08,1.08,0,0,0-.87-.45,1,1,0,0,0-.48.13.84.84,0,0,0-.36,1.21c.6.79,1.12,1.63,1.7,2.43s1.23,1.62,1.84,2.44a44.38,44.38,0,0,1,3.05,4.7c.91,1.57,1.85,3.12,2.71,4.7.41.75.79,1.5,1.19,2.25s.79,1.49,1.16,2.24c.79,1.75,1.46,3.54,2.21,5.3s1.54,3.52,2.2,5.32c.3.86.61,1.71.89,2.57s.57,1.66.83,2.5.47,1.63.66,2.46c.08.33.16.66.23,1a1.91,1.91,0,0,0-1,.59,2.69,2.69,0,0,0-.44.62,2.52,2.52,0,0,0-.25.89,2.35,2.35,0,0,0,1.31,2.27,2.5,2.5,0,0,0,1.57.23,2.36,2.36,0,0,0,1.42-.84,1.86,1.86,0,0,0,.41-1.44A2.54,2.54,0,0,0,49.21,121.24Z" transform="translate(-8.78 -6.7)" style="fill:#161616"/><path d="M41.21,81.09a1,1,0,0,0-1,.89c.05.93.07,1.86.05,2.79s-.09,1.63-.18,2.44c-.07.41-.13.81-.23,1.21-.06.24-.11.48-.17.72s-.17.51-.24.77c-.3.92-.66,1.82-1,2.72-.71,1.83-1.19,3.73-1.86,5.58-.74,2.08-1.65,4.13-2.58,6.16-.83,1.72-1.68,3.45-2.54,5.17-.43.86-.85,1.73-1.32,2.56s-1,1.69-1.52,2.52c-.83,1.28-1.7,2.56-2.6,3.81l-.47.63a1.4,1.4,0,0,0-.26-.32,2,2,0,0,0-.44-.32,1.66,1.66,0,0,0-.66-.18,2.33,2.33,0,0,0-.59,0,3.23,3.23,0,0,0-1,.34,3.59,3.59,0,0,0-1.09.92,2.85,2.85,0,0,0-.61,1.39,2.57,2.57,0,0,0,0,.62c0,.16.05.3.08.45a4,4,0,0,0,.23.53,2.53,2.53,0,0,0,.88.87,2.54,2.54,0,0,0,1.8.17A2.2,2.2,0,0,0,25,123a7.77,7.77,0,0,0,.85-1.13c.23-.35.48-.7.75-1,.56-.73,1.12-1.45,1.65-2.2,1.11-1.6,2.2-3.2,3.18-4.86.51-.86,1-1.75,1.41-2.64s.83-1.67,1.25-2.5c.89-1.82,1.8-3.63,2.6-5.49s1.57-3.62,2.18-5.49c.29-.89.55-1.8.85-2.7s.69-2,1.06-2.92a19.35,19.35,0,0,0,1.31-4.82c.1-.83.17-1.66.19-2.49s0-1.83-.06-2.74A1,1,0,0,0,41.21,81.09ZM34,104.43l0-.05Zm0-.08.06-.13Z" transform="translate(-8.78 -6.7)" style="fill:#161616"/><path d="M114.46,121c0-.19,0-.38-.07-.57-.06-.5-.15-1-.25-1.51a18.44,18.44,0,0,0-.74-2.61,51.33,51.33,0,0,0-2.1-5.39,57.78,57.78,0,0,0-2.92-5.34,55.09,55.09,0,0,0-3.38-5c-1.14-1.52-2.36-3-3.53-4.51l-1.9-2.43c-.6-.76-1.21-1.51-1.79-2.28s-1.19-1.6-1.82-2.39-1.23-1.5-1.84-2.26S92.77,85,92.06,84.21l-1.91-2.13-1.06-1.22a1,1,0,0,0-.7-.26,1,1,0,0,0-.7.26.82.82,0,0,0-.29.63.9.9,0,0,0,.29.62c1.16,1.34,2.36,2.65,3.52,4,.62.74,1.21,1.48,1.82,2.23s1.26,1.52,1.86,2.3,1.22,1.64,1.84,2.45,1.2,1.51,1.79,2.26c1.21,1.55,2.43,3.08,3.63,4.62.63.8,1.25,1.6,1.85,2.43s1.14,1.64,1.68,2.47a69.79,69.79,0,0,1,3.68,6.44,2,2,0,0,1-.1-.21c.34.73.68,1.46,1,2.21s.61,1.59.89,2.39.53,1.5.75,2.25c.12.41.23.82.32,1.23a2,2,0,0,0-.59,0,2,2,0,0,0-.51.16,1.8,1.8,0,0,0-.71.63,3.57,3.57,0,0,0-.5,1,2.83,2.83,0,0,0-.07,1.75,2.5,2.5,0,0,0,.57.91,1.76,1.76,0,0,0,.43.33,3.12,3.12,0,0,0,.62.26,3.6,3.6,0,0,0,.56.08,4.34,4.34,0,0,0,.51,0,3.52,3.52,0,0,0,1-.17,2.41,2.41,0,0,0,1.58-1.38,1.41,1.41,0,0,0-.37-1.61C114.6,121.07,114.53,121,114.46,121Z" transform="translate(-8.78 -6.7)" style="fill:#161616"/><path d="M100.68,118.76h0l-.09.2Z" transform="translate(-8.78 -6.7)" style="fill:#161616"/><path d="M107.26,89.71c-.07-1-.18-2.06-.3-3.09-.14-1.23-.33-2.46-.53-3.69s-.5-2.45-.78-3.68a1,1,0,0,0-1-.65,1,1,0,0,0-.25,0,.9.9,0,0,0-.69,1.1c.35,1.52.67,3,.93,4.58.27,1.84.51,3.69.62,5.55s.18,3.88.2,5.82c0,1.34,0,2.68-.09,4s-.25,2.68-.44,4c-.32,1.87-.71,3.74-1.17,5.58s-1,3.69-1.56,5.51c-.24.7-.48,1.41-.75,2.11s-.52,1.24-.81,1.86h0l-.1.21.09-.2c-.15.31-.3.62-.44.93a1.88,1.88,0,0,0-.52-.08,1.85,1.85,0,0,0-1,.27,2.65,2.65,0,0,0-.57.47,5.53,5.53,0,0,0-.58.79,4,4,0,0,0-.2.35,2.07,2.07,0,0,0-.5.84,1.85,1.85,0,0,0,0,1,1.78,1.78,0,0,0,.4,1,2.34,2.34,0,0,0,.59.49,1.88,1.88,0,0,0,.42.14,1,1,0,0,0,.26,0,.81.81,0,0,0,.33.13l.14,0a1.19,1.19,0,0,0,.53,0A1.54,1.54,0,0,0,100,125a1.86,1.86,0,0,0,.62-.66.41.41,0,0,1,0-.09l0,0a2.37,2.37,0,0,0,.75-.69,2.18,2.18,0,0,0,.35-1,2.82,2.82,0,0,0-.14-1.35c.09-.22.19-.44.29-.66.41-.87.84-1.74,1.21-2.63s.66-1.75,1-2.63c.61-1.81,1.1-3.66,1.56-5.51s.85-3.71,1.17-5.59a40,40,0,0,0,.57-5.87c0-1.91,0-3.82,0-5.72C107.36,91.62,107.33,90.67,107.26,89.71Z" transform="translate(-8.78 -6.7)" style="fill:#161616"/><path d="M26.45,80.22a1,1,0,0,0-.7.26.93.93,0,0,0-.29.63c0,.17-.05.34-.07.52-.08.4-.15.8-.26,1.2A8.87,8.87,0,0,1,24.74,84a16.94,16.94,0,0,1-1,1.71,13.5,13.5,0,0,1-1.17,1.56c-.29.31-.58.6-.88.89s-.65.57-1,.85c-.64.55-1.33,1-2,1.53s-1.7,1.12-2.57,1.65-1.6.93-2.4,1.4a5,5,0,0,0-.9.66l-.63.6c-.35.35-.68.71-1,1.06A13.84,13.84,0,0,0,9.45,98.3a9.73,9.73,0,0,0-.63,1.35.88.88,0,0,0,.69,1.09,1,1,0,0,0,1.22-.62,5.32,5.32,0,0,1,.21-.5,9.26,9.26,0,0,1,.73-1.25,14.77,14.77,0,0,1,1-1.25,18.51,18.51,0,0,1,1.94-1.92c.33-.21.69-.4,1-.59l1.25-.74c.9-.54,1.8-1.1,2.67-1.69s1.78-1.27,2.63-2A16.11,16.11,0,0,0,24.43,88a14.5,14.5,0,0,0,2-3.11,7.84,7.84,0,0,0,.64-1.73,17.78,17.78,0,0,0,.36-2,.83.83,0,0,0-.29-.63A1,1,0,0,0,26.45,80.22Z" transform="translate(-8.78 -6.7)" style="fill:#161616"/><path d="M15.46,93.07a.82.82,0,0,0-.26,0,1,1,0,0,0-1,.66l-1.33,3.54a20.77,20.77,0,0,0-.91,3.44.92.92,0,0,0,.1.69,1,1,0,0,0,.6.41,1.11,1.11,0,0,0,.76-.09.91.91,0,0,0,.46-.53,21.77,21.77,0,0,1,.9-3.44c.19-.56.41-1.13.63-1.69s.47-1.24.7-1.86A.88.88,0,0,0,15.46,93.07Z" transform="translate(-8.78 -6.7)" style="fill:#161616"/><path d="M16.25,93.33a1.06,1.06,0,0,0-.7-.26,1.1,1.1,0,0,0-.7.26.83.83,0,0,0-.29.63c.3,2.48.68,5,.75,7.45a1,1,0,0,0,1,.89,1,1,0,0,0,1-.89c-.07-2.49-.45-5-.75-7.45A.93.93,0,0,0,16.25,93.33Z" transform="translate(-8.78 -6.7)" style="fill:#161616"/><path d="M142.22,53.26a1.11,1.11,0,0,0-.76-.09c-1.35.21-2.68.51-4,.7a10.92,10.92,0,0,1-1.81.05c-.64,0-1.26-.08-1.89-.15a18.21,18.21,0,0,1-1.82-.32,17.3,17.3,0,0,1-1.74-.5c-.59-.25-1.16-.52-1.72-.81a1.11,1.11,0,0,0-.5-.12,1,1,0,0,0-.86.44.85.85,0,0,0,.35,1.21c.48.25,1,.5,1.47.71s1.12.42,1.7.6a19.7,19.7,0,0,0,3.33.6,17,17,0,0,0,3.11.1,28.37,28.37,0,0,0,3.18-.48l1.76-.32a1,1,0,0,0,.59-.4.81.81,0,0,0,.1-.69A.87.87,0,0,0,142.22,53.26Z" transform="translate(-8.78 -6.7)" style="fill:#161616"/><path d="M131.79,54.06a1.1,1.1,0,0,0-.7.26.93.93,0,0,0-.29.63c-.15,1.4-.3,2.81-.43,4.22,0,.48.49.89,1,.89a1.06,1.06,0,0,0,.7-.26.94.94,0,0,0,.3-.63c.12-1.41.27-2.82.42-4.22C132.83,54.47,132.29,54.06,131.79,54.06Z" transform="translate(-8.78 -6.7)" style="fill:#161616"/><path d="M135.72,55.16a1.1,1.1,0,0,0-.7-.26,1.08,1.08,0,0,0-.7.26.8.8,0,0,0-.29.63c.19,1.4.33,2.8.4,4.2a1,1,0,0,0,2,0c-.07-1.4-.21-2.8-.4-4.2A1,1,0,0,0,135.72,55.16Z" transform="translate(-8.78 -6.7)" style="fill:#161616"/><path d="M139.74,55.23a.94.94,0,0,0-1-.89,1,1,0,0,0-1,.89c0,1.39,0,2.8.05,4.19a1,1,0,0,0,1,.89.94.94,0,0,0,1-.89C139.71,58,139.74,56.62,139.74,55.23Z" transform="translate(-8.78 -6.7)" style="fill:#161616"/><path d="M139.87,45a4.89,4.89,0,0,1-.64.14l-.72.15c-.46.1-.91.2-1.37.26a27.42,27.42,0,0,1-4.53-.09c-.59-.08-1.19-.15-1.77-.25q-1.12-.21-2.25-.39l-.28,0a1.05,1.05,0,0,0-.48.11.94.94,0,0,0-.46.54.83.83,0,0,0,.1.68,1,1,0,0,0,.59.41c1.09.16,2.17.38,3.27.53a31.84,31.84,0,0,0,3.39.29,16.25,16.25,0,0,0,3-.11c.47-.06.93-.17,1.39-.27a12.38,12.38,0,0,0,1.24-.26,1.09,1.09,0,0,0,.6-.41.84.84,0,0,0,.1-.69A1,1,0,0,0,139.87,45Z" transform="translate(-8.78 -6.7)" style="fill:#161616"/><path d="M139.43,40.41a1.07,1.07,0,0,0-1.36.32l-.58.86-.21-.44c-.15-.31-.32-.62-.5-.93a1.79,1.79,0,0,0-1-.93,1.43,1.43,0,0,0-.89.1,1,1,0,0,0-.44.47l0-.06c-.23.44-.46.87-.71,1.29l-.29.47-.26-.49c-.17-.31-.34-.62-.52-.93a2.29,2.29,0,0,0-.84-.91,1.22,1.22,0,0,0-.54-.12,1.86,1.86,0,0,0-.33,0,1.41,1.41,0,0,0-.75.58c-.37.5-.7,1-1.05,1.54S128.38,42.45,128,43a.86.86,0,0,0,.35,1.22,1.06,1.06,0,0,0,1.36-.32c.38-.59.77-1.18,1.16-1.77l.4-.6.45.85c.13.24.26.49.4.73l.22.38a1.18,1.18,0,0,0,1.34.49l.24-.08a2.48,2.48,0,0,1,.26-.19,2.36,2.36,0,0,0,.42-.47l.36-.51c.15-.24.3-.48.44-.72l.1-.15.12.25.57,1.2a1.72,1.72,0,0,0,.4.66,1.06,1.06,0,0,0,1.2.14,1.92,1.92,0,0,0,.57-.53l.2-.27c.16-.2.3-.4.45-.61.27-.37.52-.74.77-1.12A.84.84,0,0,0,139.43,40.41Zm-3.3,2.81a.36.36,0,0,1,0,.09A.36.36,0,0,0,136.13,43.22Z" transform="translate(-8.78 -6.7)" style="fill:#161616"/><path d="M131.06,49.05a.9.9,0,1,0,1,.89A1,1,0,0,0,131.06,49.05Z" transform="translate(-8.78 -6.7)" style="fill:#161616"/><path d="M134.14,49.47a.9.9,0,1,0,0,1.78.9.9,0,1,0,0-1.78Z" transform="translate(-8.78 -6.7)" style="fill:#161616"/><path d="M137.43,49.36a.89.89,0,1,0,1,.89A.95.95,0,0,0,137.43,49.36Z" transform="translate(-8.78 -6.7)" style="fill:#161616"/></svg>