<svg xmlns="http://www.w3.org/2000/svg" viewBox="0 0 106.82 85.92"><defs><style>.cls-1{stroke:#000;}.cls-1,.cls-2{stroke-miterlimit:10;stroke-width:1.57px;}.cls-1,.cls-2,.cls-3{fill-rule:evenodd;}.cls-2{stroke:#42210b;}.cls-3,.cls-4{fill:#fff;}</style></defs><g id="Layer_1" data-name="Layer 1"><path class="cls-1" d="M73.41,51.22c-10.7-1.39-7,24.94-11.24,34.78H57c3.21-50-35.64-46.66-33.61-.85H18.72c-3.42-10-4.28-29.75-4.49-39.71a11.11,11.11,0,0,1-7.6,4.07C10.27,36.67,24.08,8.21,42.91,8.42s20.65,26.43,28,27C87.54,36.67,76.52,5.21,81.76,2c.64.64,2.57,1.28,3.1,2,3-.75,11.62.08,15,.39,8.26.79,9.56,11.42,2,11-7.06-.42-8.15-.64-9.86,4.71-4.07,12.31.1,31.14-18.52,31.14Z" transform="translate(0 -0.08)"/><path class="cls-2" d="M44.41,51.22c-7,4-12.85,15.52-12,33.93H27.71A73.32,73.32,0,0,1,25,71.77c1.39-8.78,4.71-15,8.77-18.3A11,11,0,0,1,41,50.58a9.25,9.25,0,0,1,3.43.64Z" transform="translate(0 -0.08)"/><path class="cls-2" d="M73.94,77.33a12.32,12.32,0,0,0,4.4,1.39c3.85-18.19,7.59-13.59-6.43-25.14-2.67,1.07-3.64,4.92-4.17,9,9.52,5.45,7.06,3.1,6.2,14.76Z" transform="translate(0 -0.08)"/><path class="cls-3" d="M89.68,8.43a1.58,1.58,0,1,1-1.57-1.57A1.57,1.57,0,0,1,89.68,8.43Z" transform="translate(0 -0.08)"/></g><g id="Layer_2" data-name="Layer 2"><rect class="cls-4" x="37.42" y="29.79" width="7.37" height="7.45"/><rect class="cls-4" x="25.34" y="18.47" width="11.17" height="11.17"/><rect x="28.88" y="3.57" width="5.93" height="5.85"/><rect x="16.42" y="8.44" width="8.05" height="7.98"/><rect x="8.21" y="17.1" width="6.54" height="6.54"/><rect x="9.27" width="6.08" height="6.08"/><rect y="4.48" width="4.18" height="4.18"/><rect class="cls-4" x="41.91" y="16.72" width="5.09" height="5.17"/><rect class="cls-4" x="22.91" y="31.84" width="4.64" height="4.64"/></g></svg>