<?xml version="1.0" encoding="utf-8"?>
<!-- Generator: Adobe Illustrator 24.2.3, SVG Export Plug-In . SVG Version: 6.00 Build 0)  -->
<svg version="1.1" id="Layer_1" xmlns="http://www.w3.org/2000/svg" xmlns:xlink="http://www.w3.org/1999/xlink" x="0px" y="0px"
	 viewBox="0 0 115 43" style="enable-background:new 0 0 115 43;" xml:space="preserve">
<path d="M23.34,36.67c-1.15,0.54-3.87,1.2-7.32,1.2C6.11,37.88,1,31.83,1,23.87C1,14.34,7.98,9.08,16.66,9.08
	c3.36,0,5.92,0.62,7.07,1.24l-1.36,4.97c-1.28-0.54-3.11-1.04-5.45-1.04c-5.11,0-9.11,3.03-9.11,9.24c0,5.59,3.4,9.12,9.15,9.12
	c2,0,4.13-0.37,5.45-0.91L23.34,36.67z"/>
<path d="M44.32,32.53c0,1.91,0.09,3.77,0.34,4.89h-5.83l-0.38-2.03h-0.13c-1.36,1.61-3.49,2.49-5.96,2.49
	c-4.21,0-6.72-2.98-6.72-6.22c0-5.26,4.85-7.75,12.21-7.75v-0.25c0-1.12-0.6-2.65-3.79-2.65c-2.13,0-4.38,0.7-5.75,1.53l-1.19-4.06
	c1.45-0.79,4.3-1.82,8.09-1.82c6.94,0,9.11,3.98,9.11,8.78V32.53z M38.06,27.85c-3.4,0-6.04,0.79-6.04,3.19
	c0,1.62,1.11,2.4,2.55,2.4c1.57,0,2.94-1.04,3.36-2.32c0.08-0.33,0.13-0.7,0.13-1.08V27.85z"/>
<path d="M49.47,23.62c0-2.53-0.09-4.64-0.17-6.46h5.49l0.26,2.74h0.13c0.89-1.33,2.77-3.23,6.3-3.23c2.72,0,4.81,1.37,5.7,3.48h0.09
	c0.81-1.08,1.7-1.91,2.72-2.49c1.15-0.62,2.43-0.99,3.96-0.99c4,0,7.02,2.73,7.02,8.83v11.93h-6.3V26.4c0-2.94-0.98-4.64-3.06-4.64
	c-1.53,0-2.55,1-3.02,2.2c-0.13,0.46-0.21,1.08-0.21,1.62v11.85h-6.3v-11.4c0-2.53-0.94-4.27-3.02-4.27c-1.66,0-2.64,1.24-3.02,2.24
	c-0.21,0.5-0.26,1.08-0.26,1.62v11.81h-6.3V23.62z"/>
<path d="M91.04,29.3c0.17,2.61,2.85,3.85,5.87,3.85c2.21,0,4-0.29,5.75-0.87l0.85,4.27c-2.13,0.87-4.72,1.29-7.53,1.29
	c-7.06,0-11.11-3.98-11.11-10.32c0-5.14,3.28-10.82,10.51-10.82c6.72,0,9.28,5.1,9.28,10.11c0,1.08-0.13,2.03-0.21,2.49H91.04z
	 M98.66,24.99c0-1.53-0.68-4.1-3.66-4.1c-2.72,0-3.83,2.45-4,4.1H98.66z"/>
<path d="M108.53,8H115v29.42h-6.47V8z"/>
</svg>
