<svg id="Layer_1" data-name="Layer 1" xmlns="http://www.w3.org/2000/svg" viewBox="0 0 51 13.73"><path d="M11,37.33a8.75,8.75,0,0,1-3.28.55C3.28,37.88,1,35.1,1,31.44c0-4.38,3.12-6.8,7-6.8a7.2,7.2,0,0,1,3.16.58l-.61,2.28A6.07,6.07,0,0,0,8.12,27c-2.28,0-4.07,1.4-4.07,4.25a3.83,3.83,0,0,0,4.09,4.19A6.85,6.85,0,0,0,10.58,35Z" transform="translate(-1 -24.15)"/><path d="M20.38,35.42a12.53,12.53,0,0,0,.15,2.25H17.92l-.17-.93H17.7A3.38,3.38,0,0,1,15,37.88,2.86,2.86,0,0,1,12,35c0-2.42,2.17-3.56,5.47-3.56v-.11c0-.52-.27-1.22-1.7-1.22a5.25,5.25,0,0,0-2.57.7L12.69,29a7.66,7.66,0,0,1,3.62-.84c3.1,0,4.07,1.83,4.07,4Zm-2.8-2.15c-1.52,0-2.7.36-2.7,1.47A1,1,0,0,0,16,35.84a1.6,1.6,0,0,0,1.5-1.07,1.93,1.93,0,0,0,.06-.49Z" transform="translate(-1 -24.15)"/><path d="M22.68,31.33c0-1.16,0-2.13-.07-3h2.45l.12,1.25h.05a3.24,3.24,0,0,1,2.82-1.48,2.63,2.63,0,0,1,2.55,1.6h0a3.85,3.85,0,0,1,1.22-1.14,3.5,3.5,0,0,1,1.77-.46c1.79,0,3.14,1.26,3.14,4.05v5.49H34V32.6c0-1.35-.43-2.13-1.37-2.13a1.45,1.45,0,0,0-1.35,1,2.94,2.94,0,0,0-.09.74v5.45H28.32V32.43c0-1.16-.42-2-1.35-2a1.47,1.47,0,0,0-1.35,1,1.86,1.86,0,0,0-.12.74v5.43H22.68Z" transform="translate(-1 -24.15)"/><path d="M41.28,33.94c.08,1.2,1.28,1.77,2.63,1.77a7.83,7.83,0,0,0,2.57-.4l.38,2a8.78,8.78,0,0,1-3.37.59c-3.16,0-5-1.83-5-4.74,0-2.36,1.47-5,4.7-5,3,0,4.16,2.34,4.16,4.64a6.61,6.61,0,0,1-.1,1.15Zm3.41-2a1.68,1.68,0,0,0-1.64-1.89A1.91,1.91,0,0,0,41.26,32Z" transform="translate(-1 -24.15)"/><path d="M49.11,24.15H52V37.67H49.11Z" transform="translate(-1 -24.15)"/></svg>