<svg id="Layer_1" data-name="Layer 1" xmlns="http://www.w3.org/2000/svg" viewBox="0 0 113 30.42"><path d="M23.15,36.65a18.82,18.82,0,0,1-7.26,1.23C6.06,37.88,1,31.72,1,23.62,1,13.92,7.92,8.56,16.52,8.56a16.18,16.18,0,0,1,7,1.26l-1.35,5.07a13.53,13.53,0,0,0-5.4-1.06c-5.06,0-9,3.08-9,9.41,0,5.69,3.37,9.28,9.07,9.28a15.3,15.3,0,0,0,5.4-.93Z" transform="translate(-1 -7.46)"/><path d="M43.94,32.44a26.82,26.82,0,0,0,.34,5H38.5l-.38-2.06H38a7.44,7.44,0,0,1-5.9,2.53,6.33,6.33,0,0,1-6.67-6.33c0-5.36,4.81-7.89,12.11-7.89v-.25c0-1.14-.59-2.7-3.76-2.7a11.54,11.54,0,0,0-5.69,1.56L26.9,18.13a17,17,0,0,1,8-1.85c6.88,0,9,4,9,8.94Zm-6.2-4.77c-3.38,0-6,.8-6,3.25a2.3,2.3,0,0,0,2.53,2.44A3.53,3.53,0,0,0,37.61,31a4.34,4.34,0,0,0,.13-1.09Z" transform="translate(-1 -7.46)"/><path d="M49,23.37c0-2.58-.08-4.73-.17-6.59h5.45l.25,2.79h.13a7.13,7.13,0,0,1,6.24-3.29,5.83,5.83,0,0,1,5.65,3.54h.09a8.82,8.82,0,0,1,2.7-2.53,7.87,7.87,0,0,1,3.92-1c4,0,7,2.78,7,9V37.41H74V26.19c0-3-1-4.72-3-4.72a3.2,3.2,0,0,0-3,2.23,7.16,7.16,0,0,0-.21,1.65V37.41H61.53V25.81c0-2.57-.93-4.34-3-4.34a3.27,3.27,0,0,0-3,2.28,4.3,4.3,0,0,0-.25,1.64v12H49Z" transform="translate(-1 -7.46)"/><path d="M90.25,29.15c.17,2.65,2.83,3.92,5.82,3.92a17,17,0,0,0,5.7-.89l.84,4.35a19.6,19.6,0,0,1-7.46,1.31c-7,0-11-4.06-11-10.51,0-5.23,3.24-11,10.42-11,6.66,0,9.19,5.19,9.19,10.29a14.81,14.81,0,0,1-.21,2.54Zm7.55-4.39c0-1.56-.67-4.18-3.62-4.18-2.7,0-3.8,2.49-4,4.18Z" transform="translate(-1 -7.46)"/><path d="M107.59,7.46H114V37.41h-6.41Z" transform="translate(-1 -7.46)"/></svg>